<?xml version="1.0" encoding="utf-8"?>
<!-- Generator: Adobe Illustrator 22.0.1, SVG Export Plug-In . SVG Version: 6.00 Build 0)  -->
<svg version="1.1" id="Шар_1" xmlns="http://www.w3.org/2000/svg" xmlns:xlink="http://www.w3.org/1999/xlink" x="0px" y="0px"
	 width="219px" height="66px" viewBox="0 0 219 66" style="enable-background:new 0 0 219 66;" xml:space="preserve">
<style type="text/css">
	.st0{fill-rule:evenodd;clip-rule:evenodd;fill:#E4E758;}
</style>
<g id="Rectangle_3_9_">
	<path class="st0" d="M55,3h8l2-3h-8L55,3z M66,3h8l2-3h-8L66,3z M77,3h8l2-3h-8L77,3z M88,3h8l2-3h-8L88,3z M99,3h8l2-3h-8L99,3z
		 M110,3h8l2-3h-8L110,3z M121,3h8l2-3h-8L121,3z M132,3h8l2-3h-8L132,3z M143,3h8l2-3h-8L143,3z M154,3h8l2-3h-8L154,3z M165,3h8
		l2-3h-8L165,3z M176,3h8l2-3h-8L176,3z M187,3h8l2-3h-8L187,3z M198,3h8l2-3h-8L198,3z M211,0l-2,3h8l2-3H211z M22,3h8l2-3h-8L22,3
		z M33,3h8l2-3h-8L33,3z M44,3h8l2-3h-8L44,3z M0,3h8l2-3H2L0,3z M11,3h8l2-3h-8L11,3z"/>
</g>
<g id="Rectangle_3_10_">
	<path class="st0" d="M55,66h8l2-3h-8L55,66z M66,66h8l2-3h-8L66,66z M77,66h8l2-3h-8L77,66z M88,66h8l2-3h-8L88,66z M99,66h8l2-3
		h-8L99,66z M110,66h8l2-3h-8L110,66z M121,66h8l2-3h-8L121,66z M132,66h8l2-3h-8L132,66z M143,66h8l2-3h-8L143,66z M154,66h8l2-3
		h-8L154,66z M165,66h8l2-3h-8L165,66z M176,66h8l2-3h-8L176,66z M187,66h8l2-3h-8L187,66z M198,66h8l2-3h-8L198,66z M211,63l-2,3h8
		l2-3H211z M22,66h8l2-3h-8L22,66z M33,66h8l2-3h-8L33,66z M44,66h8l2-3h-8L44,66z M0,66h8l2-3H2L0,66z M11,66h8l2-3h-8L11,66z"/>
</g>
<g id="Rectangle_3_11_">
	<path class="st0" d="M0,66l3-1v-8l-3-2V66z M0,30l3,2v-8l-3-2V30z M0,41l3,2v-8l-3-2V41z M0,52l3,2v-8l-3-2V52z M0,0v8l3,2V0H0z
		 M0,19l3,2v-8l-3-2V19z"/>
</g>
<g id="Rectangle_3_12_">
	<path class="st0" d="M216,66l3,1V55l-3,2V66z M216,32l3-2v-8l-3,2V32z M216,43l3-2v-8l-3,2V43z M216,54l3-2v-8l-3,2V54z M216,0v10
		l3-2V0H216z M216,21l3-2v-8l-3,2V21z"/>
</g>
</svg>
