<svg xmlns="http://www.w3.org/2000/svg" width="9" height="22" viewBox="0 0 9 22">
  <metadata><?xpacket begin="﻿" id="W5M0MpCehiHzreSzNTczkc9d"?>
<x:xmpmeta xmlns:x="adobe:ns:meta/" x:xmptk="Adobe XMP Core 5.6-c140 79.160451, 2017/05/06-01:08:21        ">
   <rdf:RDF xmlns:rdf="http://www.w3.org/1999/02/22-rdf-syntax-ns#">
      <rdf:Description rdf:about=""/>
   </rdf:RDF>
</x:xmpmeta>
                                                                                                    
                                                                                                    
                                                                                                    
                                                                                                    
                                                                                                    
                                                                                                    
                                                                                                    
                                                                                                    
                                                                                                    
                                                                                                    
                                                                                                    
                                                                                                    
                                                                                                    
                                                                                                    
                                                                                                    
                                                                                                    
                                                                                                    
                                                                                                    
                                                                                                    
                                                                                                    
                           
<?xpacket end="w"?></metadata>
<defs>
    <style>
      .cls-1 {
        fill: #5b7986;
        fill-rule: evenodd;
      }
    </style>
  </defs>
  <path id="facebook" class="cls-1" d="M350.944,6977.51c0,1.75,0,3.49,0,5.24,0,0.2-.053.25-0.223,0.25q-1.776-.015-3.553,0c-0.206,0-.258-0.06-0.257-0.29,0.006-3.47,0-6.93.009-10.39,0-.25-0.048-0.33-0.28-0.32-0.48.02-.962,0-1.443,0.01-0.156,0-.2-0.06-0.2-0.23,0.006-1.14.007-2.29,0-3.43,0-.2.058-0.24,0.218-0.24,0.474,0.01.948,0.01,1.421,0.01,0.28,0,.277,0,0.281-0.33,0.009-.91-0.049-1.82.029-2.72a4.237,4.237,0,0,1,1.98-3.59,3.863,3.863,0,0,1,1.868-.48c0.992-.01,1.984.01,2.976,0,0.162,0,.194.07,0.193,0.23q-0.009,1.665,0,3.33c0,0.18-.045.23-0.2,0.22-0.636-.01-1.273,0-1.91,0a0.882,0.882,0,0,0-.912,1.03c-0.007.7,0,1.39-.006,2.09,0,0.18.054,0.22,0.2,0.22,0.881-.01,1.762,0,2.643-0.01,0.194,0,.231.06,0.21,0.27-0.109,1.11-.209,2.21-0.3,3.31-0.019.24-.072,0.33-0.3,0.32-0.739-.02-1.48,0-2.22-0.01-0.185,0-.235.05-0.234,0.26C350.947,6974.01,350.944,6975.76,350.944,6977.51Z" transform="translate(-345 -6961)"/>
</svg>
