<svg xmlns="http://www.w3.org/2000/svg" width="27" height="18" viewBox="0 0 27 18">
  <metadata><?xpacket begin="﻿" id="W5M0MpCehiHzreSzNTczkc9d"?>
<x:xmpmeta xmlns:x="adobe:ns:meta/" x:xmptk="Adobe XMP Core 5.6-c140 79.160451, 2017/05/06-01:08:21        ">
   <rdf:RDF xmlns:rdf="http://www.w3.org/1999/02/22-rdf-syntax-ns#">
      <rdf:Description rdf:about=""/>
   </rdf:RDF>
</x:xmpmeta>
                                                                                                    
                                                                                                    
                                                                                                    
                                                                                                    
                                                                                                    
                                                                                                    
                                                                                                    
                                                                                                    
                                                                                                    
                                                                                                    
                                                                                                    
                                                                                                    
                                                                                                    
                                                                                                    
                                                                                                    
                                                                                                    
                                                                                                    
                                                                                                    
                                                                                                    
                                                                                                    
                           
<?xpacket end="w"?></metadata>
<defs>
    <style>
      .cls-1 {
        fill: #5b7986;
        fill-rule: evenodd;
      }
    </style>
  </defs>
  <path id="google" class="cls-1" d="M382,6972.48a16.776,16.776,0,0,1,.289-1.85,8.841,8.841,0,0,1,7.4-6.58,8.489,8.489,0,0,1,6.442,2.06c0.118,0.09.153,0.16,0.038,0.29q-0.916,1.065-1.9,2.07c-0.142.14-.232,0.08-0.359-0.01a6.277,6.277,0,0,0-3.7-1.09,5.21,5.21,0,0,0-4.683,3.92,5.722,5.722,0,0,0,3.289,7.07,5.126,5.126,0,0,0,5.975-1.85,4.692,4.692,0,0,0,.626-1.42c0.06-.22.007-0.27-0.2-0.27-1.212,0-2.425,0-3.637-.01a1.356,1.356,0,0,1-.953-0.1,1.684,1.684,0,0,1-.057-0.97c-0.008-.58,0-1.16-0.007-1.74,0-.21.045-0.28,0.263-0.28,2.565,0.01,5.13,0,7.695.01,0.116,0,.238-0.04.248,0.17a11.847,11.847,0,0,1-.695,5.16,7.58,7.58,0,0,1-5.7,4.75c-0.389.08-.787,0.13-1.181,0.19h-1.142a0.946,0.946,0,0,0-.231-0.05,8.728,8.728,0,0,1-7.586-6.82c-0.1-.44-0.161-0.88-0.24-1.32v-1.33Zm26.992,0.5c0,0.35-.01.7,0,1.04a0.2,0.2,0,0,1-.237.26c-0.651,0-1.3.02-1.953,0.01a0.226,0.226,0,0,0-.274.28c0.011,0.67-.006,1.35,0,2.02,0,0.2-.044.28-0.249,0.27q-0.976-.015-1.954,0c-0.2.01-.257-0.07-0.255-0.27,0.007-.66-0.014-1.32,0-1.99,0.006-.25-0.077-0.31-0.305-0.3-0.62,0-1.242-.02-1.863-0.02a0.242,0.242,0,0,1-.3-0.3c0.017-.67.012-1.34,0-2.01a0.2,0.2,0,0,1,.239-0.25c0.652,0.01,1.3-.01,1.954,0,0.213,0,.27-0.07.267-0.29-0.008-.67.013-1.34,0-2.01,0-.23.067-0.29,0.274-0.28q0.947,0.015,1.894,0c0.217-.01.3,0.04,0.289,0.29-0.015.65,0.009,1.3,0,1.95,0,0.25.054,0.35,0.312,0.34,0.61-.02,1.222.02,1.833-0.01,0.28-.01.34,0.09,0.322,0.36C408.975,6972.37,408.992,6972.68,408.992,6972.98Z" transform="translate(-382 -6964)"/>
</svg>
