<svg xmlns="http://www.w3.org/2000/svg" width="26" height="26" viewBox="0 0 26 26">
  <metadata><?xpacket begin="﻿" id="W5M0MpCehiHzreSzNTczkc9d"?>
<x:xmpmeta xmlns:x="adobe:ns:meta/" x:xmptk="Adobe XMP Core 5.6-c140 79.160451, 2017/05/06-01:08:21        ">
   <rdf:RDF xmlns:rdf="http://www.w3.org/1999/02/22-rdf-syntax-ns#">
      <rdf:Description rdf:about=""/>
   </rdf:RDF>
</x:xmpmeta>
                                                                                                    
                                                                                                    
                                                                                                    
                                                                                                    
                                                                                                    
                                                                                                    
                                                                                                    
                                                                                                    
                                                                                                    
                                                                                                    
                                                                                                    
                                                                                                    
                                                                                                    
                                                                                                    
                                                                                                    
                                                                                                    
                                                                                                    
                                                                                                    
                                                                                                    
                                                                                                    
                           
<?xpacket end="w"?></metadata>
<defs>
    <style>
      .cls-1 {
        fill: #5b7986;
        fill-rule: evenodd;
      }
    </style>
  </defs>
  <path id="instagram" class="cls-1" d="M303.575,6960.01c2.212,0,4.008,0,5.805.01a7.592,7.592,0,0,1,4.653,1.42,7.167,7.167,0,0,1,2.891,5.39c0.069,0.8.037,1.61,0.037,2.41,0,3.02,0,6.03,0,9.05a8.383,8.383,0,0,1-.7,3.58,6.9,6.9,0,0,1-5.365,4,8.043,8.043,0,0,1-1.47.13H298.535a7.535,7.535,0,0,1-4.962-1.71,7.079,7.079,0,0,1-2.5-4.72,8,8,0,0,1-.067-0.98c0-3.77-.026-7.55.011-11.32a7.049,7.049,0,0,1,6.77-7.21C299.855,6959.93,301.924,6960.05,303.575,6960.01Zm0.391,23.59h5.186a6.847,6.847,0,0,0,1.355-.11,4.686,4.686,0,0,0,3.782-3,5.76,5.76,0,0,0,.37-2.16q0-5.2,0-10.41a7.438,7.438,0,0,0-.056-1.1,4.7,4.7,0,0,0-2.982-4.02,6.009,6.009,0,0,0-2.184-.37H298.69a7.209,7.209,0,0,0-1.039.06,4.514,4.514,0,0,0-3.885,2.96,6.379,6.379,0,0,0-.363,2.28q0,5.28,0,10.56a7.188,7.188,0,0,0,.112,1.32,4.433,4.433,0,0,0,3.153,3.69,6.331,6.331,0,0,0,2.026.3h5.273Zm6.706-10.61a6.7,6.7,0,1,1-6.659-6.73A6.7,6.7,0,0,1,310.672,6972.99Zm-6.679,4.26a4.3,4.3,0,1,0-4.3-4.29A4.315,4.315,0,0,0,303.993,6977.25Zm6.939-9.64a1.515,1.515,0,1,1,1.527-1.52A1.508,1.508,0,0,1,310.932,6967.61Z" transform="translate(-291 -6960)"/>
</svg>
