<svg xmlns="http://www.w3.org/2000/svg" width="25" height="25" viewBox="0 0 25 25">
  <metadata><?xpacket begin="﻿" id="W5M0MpCehiHzreSzNTczkc9d"?>
<x:xmpmeta xmlns:x="adobe:ns:meta/" x:xmptk="Adobe XMP Core 5.6-c140 79.160451, 2017/05/06-01:08:21        ">
   <rdf:RDF xmlns:rdf="http://www.w3.org/1999/02/22-rdf-syntax-ns#">
      <rdf:Description rdf:about=""/>
   </rdf:RDF>
</x:xmpmeta>
                                                                                                    
                                                                                                    
                                                                                                    
                                                                                                    
                                                                                                    
                                                                                                    
                                                                                                    
                                                                                                    
                                                                                                    
                                                                                                    
                                                                                                    
                                                                                                    
                                                                                                    
                                                                                                    
                                                                                                    
                                                                                                    
                                                                                                    
                                                                                                    
                                                                                                    
                                                                                                    
                           
<?xpacket end="w"?></metadata>
<defs>
    <style>
      .cls-1 {
        fill: #63b4c9;
        fill-rule: evenodd;
      }
    </style>
  </defs>
  <path class="cls-1" d="M303.5,5347a12.5,12.5,0,1,0,12.5,12.5A12.517,12.517,0,0,0,303.5,5347Zm0,23.26a10.76,10.76,0,1,1,10.756-10.76A10.773,10.773,0,0,1,303.5,5370.26Zm6.773-14.28-8.2,8.26a1.047,1.047,0,0,1-.64.23,0.357,0.357,0,0,1-.174-0.03,0.993,0.993,0,0,1-.553-0.35l-3.982-3.98a0.863,0.863,0,0,1,1.221-1.22l3.488,3.49,7.616-7.62a0.867,0.867,0,0,1,1.221.03A0.858,0.858,0,0,1,310.273,5355.98Z" transform="translate(-291 -5347)"/>
</svg>
