<svg xmlns="http://www.w3.org/2000/svg" width="25" height="25" viewBox="0 0 25 25">
  <metadata><?xpacket begin="﻿" id="W5M0MpCehiHzreSzNTczkc9d"?>
<x:xmpmeta xmlns:x="adobe:ns:meta/" x:xmptk="Adobe XMP Core 5.6-c140 79.160451, 2017/05/06-01:08:21        ">
   <rdf:RDF xmlns:rdf="http://www.w3.org/1999/02/22-rdf-syntax-ns#">
      <rdf:Description rdf:about=""/>
   </rdf:RDF>
</x:xmpmeta>
                                                                                                    
                                                                                                    
                                                                                                    
                                                                                                    
                                                                                                    
                                                                                                    
                                                                                                    
                                                                                                    
                                                                                                    
                                                                                                    
                                                                                                    
                                                                                                    
                                                                                                    
                                                                                                    
                                                                                                    
                                                                                                    
                                                                                                    
                                                                                                    
                                                                                                    
                                                                                                    
                           
<?xpacket end="w"?></metadata>
<defs>
    <style>
      .cls-1 {
        fill: #b5b745;
        fill-rule: evenodd;
      }
    </style>
  </defs>
  <path class="cls-1" d="M1294.5,5347a12.5,12.5,0,1,0,12.5,12.5A12.517,12.517,0,0,0,1294.5,5347Zm0,23.26a10.76,10.76,0,1,1,10.76-10.76A10.776,10.776,0,0,1,1294.5,5370.26Zm6.77-14.28-8.19,8.26a1.065,1.065,0,0,1-.64.23,0.381,0.381,0,0,1-.18-0.03,0.975,0.975,0,0,1-.55-0.35l-3.98-3.98a0.863,0.863,0,0,1,1.22-1.22l3.49,3.49,7.61-7.62A0.863,0.863,0,0,1,1301.27,5355.98Z" transform="translate(-1282 -5347)"/>
</svg>
