<?xml version="1.0" encoding="utf-8"?>
<!-- Generator: Adobe Illustrator 22.0.1, SVG Export Plug-In . SVG Version: 6.00 Build 0)  -->
<svg version="1.1" id="Шар_1" xmlns="http://www.w3.org/2000/svg" xmlns:xlink="http://www.w3.org/1999/xlink" x="0px" y="0px"
	 width="11px" height="8px" viewBox="0 0 11 8" style="enable-background:new 0 0 11 8;" xml:space="preserve">
<style type="text/css">
	.st0{fill-rule:evenodd;clip-rule:evenodd;fill:#E4E758;}
</style>
<g id="Rectangle_3_13_">
	<path class="st0" d="M560,0l-7,8h8l7-8H560z M571,0l-7,8h8l7-8H571z M582,0l-7,8h8l7-8H582z M593,0l-7,8h8l7-8H593z M604,0l-7,8h8
		l7-8H604z M615,0l-7,8h8l7-8H615z M626,0l-7,8h8l7-8H626z M637,0l-7,8h8l7-8H637z M648,0l-7,8h8l7-8H648z M659,0l-7,8h8l7-8H659z
		 M670,0l-7,8h8l7-8H670z M681,0l-7,8h8l7-8H681z M692,0l-7,8h8l7-8H692z M703,0l-7,8h8l7-8H703z M714,0l-7,8h8l7-8H714z M527,0
		l-7,8h8l7-8H527z M538,0l-7,8h8l7-8H538z M549,0l-7,8h8l7-8H549z M505,0l-7,8h8l7-8H505z M516,0l-7,8h8l7-8H516z M725,0l-7,8h9V0
		H725z M340,0l-7,8h8l7-8H340z M351,0l-7,8h8l7-8H351z M362,0l-7,8h8l7-8H362z M373,0l-7,8h8l7-8H373z M384,0l-7,8h8l7-8H384z
		 M395,0l-7,8h8l7-8H395z M406,0l-7,8h8l7-8H406z M417,0l-7,8h8l7-8H417z M428,0l-7,8h8l7-8H428z M439,0l-7,8h8l7-8H439z M450,0
		l-7,8h8l7-8H450z M461,0l-7,8h8l7-8H461z M472,0l-7,8h8l7-8H472z M483,0l-7,8h8l7-8H483z M494,0l-7,8h8l7-8H494z M307,0l-7,8h8l7-8
		H307z M318,0l-7,8h8l7-8H318z M329,0l-7,8h8l7-8H329z M285,0l-7,8h8l7-8H285z M296,0l-7,8h8l7-8H296z M120,0l-7,8h8l7-8H120z
		 M131,0l-7,8h8l7-8H131z M142,0l-7,8h8l7-8H142z M153,0l-7,8h8l7-8H153z M164,0l-7,8h8l7-8H164z M175,0l-7,8h8l7-8H175z M186,0
		l-7,8h8l7-8H186z M197,0l-7,8h8l7-8H197z M208,0l-7,8h8l7-8H208z M219,0l-7,8h8l7-8H219z M230,0l-7,8h8l7-8H230z M241,0l-7,8h8l7-8
		H241z M252,0l-7,8h8l7-8H252z M263,0l-7,8h8l7-8H263z M274,0l-7,8h8l7-8H274z M87,0l-7,8h8l7-8H87z M98,0l-7,8h8l7-8H98z M109,0
		l-7,8h8l7-8H109z M65,0l-7,8h8l7-8H65z M76,0l-7,8h8l7-8H76z M-100,0l-7,8h8l7-8H-100z M-89,0l-7,8h8l7-8H-89z M-78,0l-7,8h8l7-8
		H-78z M-67,0l-7,8h8l7-8H-67z M-56,0l-7,8h8l7-8H-56z M-45,0l-7,8h8l7-8H-45z M-34,0l-7,8h8l7-8H-34z M-23,0l-7,8h8l7-8H-23z
		 M-12,0l-7,8h8l7-8H-12z M-1,0l-7,8h8l7-8H-1z M10,0L3,8h8l7-8H10z M21,0l-7,8h8l7-8H21z M32,0l-7,8h8l7-8H32z M43,0l-7,8h8l7-8H43
		z M54,0l-7,8h8l7-8H54z M-133,0l-7,8h8l7-8H-133z M-122,0l-7,8h8l7-8H-122z M-111,0l-7,8h8l7-8H-111z M-155,0l-7,8h8l7-8H-155z
		 M-144,0l-7,8h8l7-8H-144z M-320,0l-7,8h8l7-8H-320z M-309,0l-7,8h8l7-8H-309z M-298,0l-7,8h8l7-8H-298z M-287,0l-7,8h8l7-8H-287z
		 M-276,0l-7,8h8l7-8H-276z M-265,0l-7,8h8l7-8H-265z M-254,0l-7,8h8l7-8H-254z M-243,0l-7,8h8l7-8H-243z M-232,0l-7,8h8l7-8H-232z
		 M-221,0l-7,8h8l7-8H-221z M-210,0l-7,8h8l7-8H-210z M-199,0l-7,8h8l7-8H-199z M-188,0l-7,8h8l7-8H-188z M-177,0l-7,8h8l7-8H-177z
		 M-166,0l-7,8h8l7-8H-166z M-353,0l-7,8h8l7-8H-353z M-342,0l-7,8h8l7-8H-342z M-331,0l-7,8h8l7-8H-331z M-375,0l-7,8h8l7-8H-375z
		 M-364,0l-7,8h8l7-8H-364z M-540,0l-7,8h8l7-8H-540z M-529,0l-7,8h8l7-8H-529z M-518,0l-7,8h8l7-8H-518z M-507,0l-7,8h8l7-8H-507z
		 M-496,0l-7,8h8l7-8H-496z M-485,0l-7,8h8l7-8H-485z M-474,0l-7,8h8l7-8H-474z M-463,0l-7,8h8l7-8H-463z M-452,0l-7,8h8l7-8H-452z
		 M-441,0l-7,8h8l7-8H-441z M-430,0l-7,8h8l7-8H-430z M-419,0l-7,8h8l7-8H-419z M-408,0l-7,8h8l7-8H-408z M-397,0l-7,8h8l7-8H-397z
		 M-386,0l-7,8h8l7-8H-386z M-573,0l-7,8h8l7-8H-573z M-562,0l-7,8h8l7-8H-562z M-551,0l-7,8h8l7-8H-551z M-595,0l-7,8h8l7-8H-595z
		 M-584,0l-7,8h8l7-8H-584z M-713,0v6l5-6H-713z M-705,0l-7,8h8l7-8H-705z M-694,0l-7,8h8l7-8H-694z M-683,0l-7,8h8l7-8H-683z
		 M-672,0l-7,8h8l7-8H-672z M-661,0l-7,8h8l7-8H-661z M-650,0l-7,8h8l7-8H-650z M-639,0l-7,8h8l7-8H-639z M-628,0l-7,8h8l7-8H-628z
		 M-617,0l-7,8h8l7-8H-617z M-606,0l-7,8h8l7-8H-606z"/>
</g>
</svg>
