<svg xmlns="http://www.w3.org/2000/svg" width="18" height="23.03" viewBox="0 0 18 23.03">
  <metadata><?xpacket begin="﻿" id="W5M0MpCehiHzreSzNTczkc9d"?>
<x:xmpmeta xmlns:x="adobe:ns:meta/" x:xmptk="Adobe XMP Core 5.6-c140 79.160451, 2017/05/06-01:08:21        ">
   <rdf:RDF xmlns:rdf="http://www.w3.org/1999/02/22-rdf-syntax-ns#">
      <rdf:Description rdf:about=""/>
   </rdf:RDF>
</x:xmpmeta>
                                                                                                    
                                                                                                    
                                                                                                    
                                                                                                    
                                                                                                    
                                                                                                    
                                                                                                    
                                                                                                    
                                                                                                    
                                                                                                    
                                                                                                    
                                                                                                    
                                                                                                    
                                                                                                    
                                                                                                    
                                                                                                    
                                                                                                    
                                                                                                    
                                                                                                    
                                                                                                    
                           
<?xpacket end="w"?></metadata>
<defs>
    <style>
      .cls-1 {
        fill: #5b7986;
        fill-rule: evenodd;
      }
    </style>
  </defs>
  <path id="pinterest" class="cls-1" d="M449,6969.15c-0.083.56-.1,1.12-0.2,1.67a8.758,8.758,0,0,1-2.752,5.22,6.145,6.145,0,0,1-4.763,1.55,3.941,3.941,0,0,1-2.758-1.56c-0.179.7-.385,1.37-0.523,2.06a13.105,13.105,0,0,1-2.7,5.7,0.29,0.29,0,0,1-.3.2c-0.166-.04-0.14-0.19-0.158-0.31a15.272,15.272,0,0,1-.1-3.88,24.655,24.655,0,0,1,.586-2.72c0.4-1.73.819-3.46,1.238-5.19a0.77,0.77,0,0,0-.032-0.47,4.828,4.828,0,0,1-.025-3.52,2.579,2.579,0,0,1,1.761-1.7,1.77,1.77,0,0,1,2.3,1.85,6.975,6.975,0,0,1-.379,2.03c-0.267.93-.6,1.83-0.8,2.77a2.027,2.027,0,0,0,1.976,2.49,3.187,3.187,0,0,0,2.65-1.29,7.25,7.25,0,0,0,1.435-3.17,9.257,9.257,0,0,0,.208-3.42,4.556,4.556,0,0,0-3.77-4,6.862,6.862,0,0,0-5.772,1.07,6.188,6.188,0,0,0-2.356,6.26,3.313,3.313,0,0,0,.735,1.39,0.751,0.751,0,0,1,.175.8c-0.094.29-.155,0.59-0.232,0.89a0.5,0.5,0,0,1-.819.38,4.061,4.061,0,0,1-2.224-2.58,7.457,7.457,0,0,1,1.236-7.04,8.859,8.859,0,0,1,5.863-3.45,10.15,10.15,0,0,1,5.073.3,7.639,7.639,0,0,1,5.248,5.57c0.088,0.36.126,0.72,0.187,1.08v1.02Z" transform="translate(-431 -6960.97)"/>
</svg>
