<svg xmlns="http://www.w3.org/2000/svg" width="23.03" height="22.97" viewBox="0 0 23.03 22.97">
  <metadata><?xpacket begin="﻿" id="W5M0MpCehiHzreSzNTczkc9d"?>
<x:xmpmeta xmlns:x="adobe:ns:meta/" x:xmptk="Adobe XMP Core 5.6-c140 79.160451, 2017/05/06-01:08:21        ">
   <rdf:RDF xmlns:rdf="http://www.w3.org/1999/02/22-rdf-syntax-ns#">
      <rdf:Description rdf:about=""/>
   </rdf:RDF>
</x:xmpmeta>
                                                                                                    
                                                                                                    
                                                                                                    
                                                                                                    
                                                                                                    
                                                                                                    
                                                                                                    
                                                                                                    
                                                                                                    
                                                                                                    
                                                                                                    
                                                                                                    
                                                                                                    
                                                                                                    
                                                                                                    
                                                                                                    
                                                                                                    
                                                                                                    
                                                                                                    
                                                                                                    
                           
<?xpacket end="w"?></metadata>
<defs>
    <style>
      .cls-1 {
        fill: #b5b745;
        fill-rule: evenodd;
      }
    </style>
  </defs>
  <path class="cls-1" d="M1000.65,6580.66c-0.875.47-.839,1.16,0.07,1.53l2.71,1.1a3.347,3.347,0,0,0,3.06-.45l11.74-9.55c0.77-.62.86-0.53,0.19,0.21l-9.28,10.24a1.17,1.17,0,0,0,.44,2.01l0.32,0.13c0.91,0.36,2.41.98,3.32,1.36l2.99,1.26a1.549,1.549,0,0,0,2.15-1.05l4.56-17.32c0.26-.98-0.24-1.39-1.11-0.92Zm7.41,11.34c-0.05.16,1.85-2.84,1.85-2.84a1.487,1.487,0,0,0-.67-2.24l-2.08-.88c-0.91-.38-1.34.07-0.97,1C1006.19,6587.04,1008.12,6591.83,1008.06,6592Z" transform="translate(-1000 -6569.03)"/>
</svg>
