<svg xmlns="http://www.w3.org/2000/svg" width="26.969" height="27" viewBox="0 0 26.969 27">
  <metadata><?xpacket begin="﻿" id="W5M0MpCehiHzreSzNTczkc9d"?>
<x:xmpmeta xmlns:x="adobe:ns:meta/" x:xmptk="Adobe XMP Core 5.6-c140 79.160451, 2017/05/06-01:08:21        ">
   <rdf:RDF xmlns:rdf="http://www.w3.org/1999/02/22-rdf-syntax-ns#">
      <rdf:Description rdf:about=""/>
   </rdf:RDF>
</x:xmpmeta>
                                                                                                    
                                                                                                    
                                                                                                    
                                                                                                    
                                                                                                    
                                                                                                    
                                                                                                    
                                                                                                    
                                                                                                    
                                                                                                    
                                                                                                    
                                                                                                    
                                                                                                    
                                                                                                    
                                                                                                    
                                                                                                    
                                                                                                    
                                                                                                    
                                                                                                    
                                                                                                    
                           
<?xpacket end="w"?></metadata>
<defs>
    <style>
      .cls-1 {
        fill: #fff;
        fill-rule: evenodd;
      }
    </style>
  </defs>
  <path class="cls-1" d="M375.757,5627.67c-1.02.55-.978,1.36,0.091,1.8l3.169,1.29a3.952,3.952,0,0,0,3.6-.53l13.76-11.22c0.9-.74,1-0.63.216,0.24l-10.878,12.04a1.384,1.384,0,0,0,.519,2.37l0.371,0.15c1.074,0.42,2.824,1.15,3.89,1.59l3.515,1.48a1.8,1.8,0,0,0,2.511-1.22l5.356-20.37c0.3-1.15-.284-1.63-1.3-1.08Zm8.695,13.33c-0.062.19,2.167-3.34,2.167-3.34a1.755,1.755,0,0,0-.792-2.64l-2.432-1.03c-1.065-.45-1.575.08-1.135,1.18C382.26,5635.17,384.517,5640.8,384.452,5641Z" transform="translate(-375 -5614)"/>
</svg>
