<svg xmlns="http://www.w3.org/2000/svg" width="23" height="19" viewBox="0 0 23 19">
  <metadata><?xpacket begin="﻿" id="W5M0MpCehiHzreSzNTczkc9d"?>
<x:xmpmeta xmlns:x="adobe:ns:meta/" x:xmptk="Adobe XMP Core 5.6-c140 79.160451, 2017/05/06-01:08:21        ">
   <rdf:RDF xmlns:rdf="http://www.w3.org/1999/02/22-rdf-syntax-ns#">
      <rdf:Description rdf:about=""/>
   </rdf:RDF>
</x:xmpmeta>
                                                                                                    
                                                                                                    
                                                                                                    
                                                                                                    
                                                                                                    
                                                                                                    
                                                                                                    
                                                                                                    
                                                                                                    
                                                                                                    
                                                                                                    
                                                                                                    
                                                                                                    
                                                                                                    
                                                                                                    
                                                                                                    
                                                                                                    
                                                                                                    
                                                                                                    
                                                                                                    
                           
<?xpacket end="w"?></metadata>
<defs>
    <style>
      .cls-1 {
        fill: #5b7986;
        fill-rule: evenodd;
      }
    </style>
  </defs>
  <path id="twitter" class="cls-1" d="M249.838,6983h-1.3a2.182,2.182,0,0,0-.253-0.04,13.232,13.232,0,0,1-6.1-1.95,0.392,0.392,0,0,1-.188-0.15,9.581,9.581,0,0,0,6.9-1.98,4.884,4.884,0,0,1-4.417-3.35,6.523,6.523,0,0,0,1.038.08,3.445,3.445,0,0,0,1-.16,4.954,4.954,0,0,1-2.655-1.73,4.768,4.768,0,0,1-1.029-3.03,4.871,4.871,0,0,0,2.126.59,4.821,4.821,0,0,1-1.969-2.93,4.755,4.755,0,0,1,.52-3.45c0.07,0.08.122,0.13,0.171,0.19a13.506,13.506,0,0,0,3.437,2.93,13.22,13.22,0,0,0,5.915,1.86c0.2,0.02.253-.02,0.208-0.23a4.13,4.13,0,0,1-.01-1.65,4.612,4.612,0,0,1,3.215-3.74,4.527,4.527,0,0,1,4.774,1.12,0.337,0.337,0,0,0,.364.1,9.5,9.5,0,0,0,2.515-.96,0.389,0.389,0,0,1,.254-0.09,5,5,0,0,1-1.946,2.54,9.208,9.208,0,0,0,2.593-.69,9.526,9.526,0,0,1-2.161,2.31,0.4,0.4,0,0,0-.182.37,13.66,13.66,0,0,1-1.6,6.81,12.844,12.844,0,0,1-9.577,7.04C250.938,6982.9,250.384,6982.91,249.838,6983Z" transform="translate(-242 -6964)"/>
</svg>
