<?xml version="1.0" encoding="utf-8"?>
<!-- Generator: Adobe Illustrator 22.0.1, SVG Export Plug-In . SVG Version: 6.00 Build 0)  -->
<svg version="1.1" id="Шар_1" xmlns="http://www.w3.org/2000/svg" xmlns:xlink="http://www.w3.org/1999/xlink" x="0px" y="0px"
	 width="367px" height="469px" viewBox="0 0 367 469" style="enable-background:new 0 0 367 469;" xml:space="preserve">
<style type="text/css">
	.st0{fill-rule:evenodd;clip-rule:evenodd;fill:#7BC8DB;}
</style>
<path class="st0" d="M420.7,209.8c-0.5-1.5-1.4-2.4-2.7-2.8c-1.6-0.4-3.2-0.1-4.9,1.1c-5.9,4.3-12.4,7.3-19.4,9
	c-7,1.7-12.9,2-17.6,0.7c-7.4-2-11.8-5.8-13.1-11.4c13.3,0.2,23.3-1.6,30-5.5c6.7-3.9,11-9.5,13-16.9c1.7-6.3,1.2-11.8-1.5-16.5
	c-2.7-4.7-7.1-7.9-13.3-9.5c-6.9-1.8-13.6-1.6-20,0.7c-6.5,2.3-12.1,6.2-16.9,11.8c-4.8,5.6-8.2,12-10.1,19.4
	c-0.5,1.7-0.8,3.4-1.1,5.1c-5.8,2.1-11.8,4.6-18,7.2c1.4-3.3,2.8-6.4,4.1-9.3c1.3-2.9,2.5-5.6,3.6-8.1c5.8-12.9,9.4-21,10.7-24.2
	c0.3-0.7,0.6-1.7,1-3c0.6-2.4,0.5-4.1-0.4-5.2s-2.7-2-5.3-2.7c-2.6-0.7-5-1.1-7.2-1.2c0.1-2.5-0.1-4.3-0.7-5.4c-0.6-1.1-2-2-4.3-2.6
	c-7.3-2-14.8-1.5-22.6,1.4c-7.8,2.9-14.6,7.7-20.6,14.3c-5.2,5.8-9,12.4-11.4,19.7c-5.8,2.2-11.9,4.6-18.1,7.3
	c1.4-3.3,2.8-6.4,4.1-9.3c1.3-2.9,2.5-5.6,3.6-8.1c5.8-12.9,9.4-21,10.7-24.2c0.3-0.7,0.6-1.7,1-3c0.6-2.4,0.5-4.1-0.4-5.2
	c-0.9-1.1-2.7-2-5.3-2.7c-2.6-0.7-5-1.1-7.2-1.2c0.1-2.5-0.1-4.3-0.7-5.4c-0.6-1.1-2-2-4.3-2.6c-7.3-2-14.8-1.5-22.6,1.4
	c-7.8,2.9-14.6,7.7-20.6,14.3c-5.3,5.8-9,12.4-11.4,19.8c-6,2.2-12.1,4.6-18.4,7.1l11.1-24.8c7-15,10.8-23.9,11.5-26.6
	c0.4-1.5,0.2-2.7-0.6-3.6c-0.8-0.9-2.4-1.7-4.8-2.3c-3.5-0.9-6.3-0.9-8.4,0c-2.1,0.9-4,2.9-5.7,5.9c-5.1,8.9-9.9,16.2-14.3,22
	c-4.5,5.8-8.3,10-11.5,12.6c-3.2,2.6-5.7,3.7-7.2,3.2c-2.2-0.6-2.8-2.9-1.7-7c0.7-2.6,1.9-5.8,3.6-9.6c1.7-3.9,3.6-7.9,5.6-12
	c1.5-3,3.3-6.4,5.4-10.1c2.5-4.6,3.8-7.4,4.1-8.2c0.4-1.5,0.3-2.7-0.4-3.7c-0.7-1-2.2-1.8-4.5-2.4c-4.1-1.1-7.3-1.2-9.6-0.3
	c-2.3,0.9-4.4,2.8-6.3,5.7c-4.4,6.9-8.1,13.5-11,19.9c-1.7,3.9-3.4,8.1-4.8,12.7c-5.1,3.5-9.5,5.8-13.2,7c-4.2,1.3-8.5,1.4-12.8,0.3
	c-5-1.3-8.2-4.7-9.7-10.2c-1.5-5.5-0.7-13.8,2.3-25.1c1.2-4.6,2.6-9,4.1-13.2c29.6-3.1,47.9-18,55-44.5c1.8-6.9,1.8-12.8-0.1-17.9
	c-1.9-5.1-5.6-8.3-10.8-9.7c-7.2-1.9-14.6-0.5-22.1,4.4c-7.5,4.9-14.7,11.9-21.3,21.2c-6.7,9.2-12.5,19.5-17.6,30.8
	c-5-0.5-10.8-1.5-17.6-3l-15.8-3.4c6.6-14.5,11.1-26.3,13.5-35.2c2.7-10.1,2.8-18,0.3-23.8c-2.5-5.8-7.2-9.6-14-11.4
	c-7.3-2-15.1-1.8-23.3,0.6C21,4.2,13.7,8.1,7.3,13.3c-3.7,3-5.9,6.2-6.8,9.5C-0.1,25,0,27,0.7,28.6c0.7,1.7,1.8,2.7,3.3,3.1
	c1.7,0.5,3.5,0,5.3-1.5c12.7-10,22.7-14.1,30.1-12.1c2.4,0.7,4.1,2.1,5.1,4.3c1,2.2,0.8,5.8-0.5,10.9c-2.1,7.9-6.6,19.1-13.4,33.5
	l-8.5-1.9c-4.7-1-8.3-1-10.8,0.1c-2.5,1.1-4.2,3.5-5.1,7c-0.7,2.8-0.5,5,0.8,6.7c1.3,1.7,3.6,3,7.1,3.9l7.7,1.7
	c-4.8,9.6-11,21.3-18.6,35c-1.2,2.3-2,4.2-2.3,5.6c-1.7,6.2,0.9,10.2,7.7,12.1c6.2,1.7,11.7-1.9,16.5-10.6
	c8.1-14.8,14.6-27.4,19.7-37.8c2,0.4,5.9,1.2,11.5,2.2c8.4,1.6,16.3,2.6,23.7,3.2c-1.3,3.6-2.4,7.2-3.4,10.8c-4,15-4,27.4,0,37
	c4,9.7,11.1,15.9,21.4,18.7c9.6,2.6,19.9,0.8,30.9-5.4c0.1,2.4,0.6,4.7,1.3,6.9c1.8,5.3,5.1,8.5,9.9,9.8c4.2,1.1,8.8,0.2,13.7-2.8
	c4.9-3,9.4-8.1,13.6-15.2c-2.9,7.1-5.3,12.6-7.1,16.4l-1.5,3.6c-13.7,5.8-24.5,11.2-32.6,16.4c-8,5.1-13.9,10-17.6,14.7
	c-3.7,4.6-6.2,9.5-7.6,14.5c-1.5,5.5-1,10.3,1.5,14.6c2.5,4.3,6.4,7.2,11.8,8.6c10.1,2.7,20.1-1.4,30-12.4c9.9-11,19.9-27,29.8-48.1
	l24.5-8.6c0.3,2.4,1,4.7,1.9,6.9c2.6,5.9,7.2,9.7,13.8,11.5c2.9,0.8,6,0.8,9.3,0c3.3-0.8,6.3-2.4,8.9-4.8l-2.6,6
	c-19.7,8.4-33.7,16.2-42,23.3c-8.3,7.1-13.4,14.5-15.5,22.1c-1.5,5.5-1,10.3,1.5,14.6c2.5,4.3,6.4,7.2,11.8,8.6
	c10.1,2.7,20.1-1.4,30-12.4c9.9-11,19.9-27,29.8-48.1l12-4.2c3-1.1,7.1-2.6,12.2-4.4c0.3,2.4,1,4.7,1.9,6.8
	c2.6,5.9,7.2,9.7,13.8,11.5c2.9,0.8,6,0.8,9.3,0c3.3-0.8,6.3-2.4,8.9-4.8l-2.6,6c-19.7,8.4-33.7,16.2-42,23.3
	c-8.3,7.1-13.4,14.5-15.5,22.1c-1.5,5.5-1,10.3,1.5,14.6c2.5,4.3,6.4,7.2,11.8,8.6c10.1,2.7,20.1-1.4,30-12.4
	c9.9-11,19.9-27,29.8-48.1l12-4.2c3.6-1.3,8.6-3.1,15-5.4c0.7,2.3,1.6,4.6,2.9,6.7c4.5,7.8,12.3,13.1,23.4,16.1
	c8.2,2.2,16.4,2.2,24.6,0c8.2-2.2,15-5.1,20.2-8.9c2.6-1.8,4.5-4.9,5.7-9.2C421.1,213.2,421.1,211.3,420.7,209.8z M363.9,192.8
	c1.8-6.5,4.6-11.8,8.5-15.6c3.9-3.9,7.9-5.3,11.8-4.3c1.9,0.5,3.3,1.5,4,3.1c0.8,1.5,0.9,3.3,0.4,5.4c-1.1,4-3.8,7-8.2,9
	c-4.4,2-9.9,3-16.6,2.8L363.9,192.8z M121.5,55.5c4.3-6.8,8.3-12,12.1-15.5c3.7-3.6,6.8-5.1,9.1-4.5c1.3,0.3,2.1,1.3,2.6,2.9
	c0.5,1.6,0.4,3.7-0.3,6.1c-2.8,10.3-7,18.2-12.8,23.6c-5.8,5.5-13.4,8.8-22.8,10.1C113.2,69.9,117.2,62.3,121.5,55.5z M131.6,220.4
	c-4.9,5.3-8.7,7.7-11.4,6.9c-1.6-0.4-2.6-1.3-2.9-2.7c-0.4-1.4-0.3-3,0.2-4.8c1.1-4.3,4.3-8.8,9.5-13.6c5.2-4.8,12.8-9.5,22.8-14.3
	C142.6,205.6,136.6,215.1,131.6,220.4z M203.3,239.3c-5.1,5.5-8.9,8-11.6,7.2c-1.6-0.4-2.6-1.3-2.9-2.7c-0.4-1.4-0.3-3,0.2-4.8
	c1.1-4.3,4.3-8.8,9.4-13.5c5.1-4.7,12.7-9.5,22.8-14.4C214.3,224.3,208.3,233.7,203.3,239.3z M240.9,162.8
	c-2.4,5.3-5.2,9.2-8.2,11.6c-3,2.4-5.8,3.3-8.2,2.6c-2.3-0.6-3.9-1.9-4.8-3.9c-0.9-2-0.9-4.6,0-7.9c1.6-6,4.2-11.4,7.9-16.2
	c3.7-4.8,7.8-8.3,12.4-10.6c4.6-2.3,9.1-2.9,13.4-1.8L240.9,162.8z M274.4,258.3c-5.1,5.5-8.9,8-11.6,7.2c-1.6-0.4-2.6-1.3-2.9-2.7
	c-0.4-1.4-0.3-3,0.2-4.8c1.1-4.3,4.3-8.8,9.4-13.5c5.1-4.7,12.7-9.5,22.8-14.4C285.4,243.4,279.5,252.8,274.4,258.3z M312,181.9
	c-2.4,5.3-5.2,9.2-8.2,11.6c-3,2.4-5.8,3.3-8.2,2.6c-2.3-0.6-3.9-1.9-4.8-3.9c-0.9-2-0.9-4.6,0-7.9c1.6-6,4.2-11.4,7.9-16.2
	c3.7-4.8,7.8-8.3,12.4-10.6c4.6-2.3,9.1-2.9,13.4-1.8L312,181.9z"/>
<path class="st0" d="M295,369.7c4.6,1.2,8.5,0.9,12-0.8c3.4-1.8,5.7-4.8,6.9-9.1c0.9-3.5,0.5-6.6-1.5-9.2c-1.9-2.6-4.8-4.4-8.8-5.5
	c-4.3-1.2-8.3-0.9-11.9,0.9c-3.6,1.7-5.9,4.5-6.9,8.2c-1,3.8-0.7,7,1,9.7C287.5,366.5,290.6,368.5,295,369.7z M358.6,393.6
	c11.5-15,19-28.8,22.4-41.6c2.4-8.9,2.8-16.1,1.1-21.7c-1.6-5.6-5-9-10.1-10.4c-9-2.4-18.4,1.5-28.1,11.8
	c-9.7,10.3-18.5,23.3-26.3,39.1c-7.8,15.8-13.5,30.3-17,43.4c-1.7,6.3-2.7,12.2-3.2,17.6c-3.5,2.3-6.4,4.1-8.7,5.4
	c-3.6,1.9-6.3,2.6-8.2,2.1c-2-0.5-3.2-1.8-3.6-3.7c-0.4-1.9-0.2-4.5,0.7-7.7c1.1-4.2,4.5-11.8,10.2-22.9c4.6-9.2,7.3-15.2,8-17.8
	c1-3.6-1.2-6.2-6.6-7.6c-3.5-0.9-6.2-1-8.1-0.1c-1.9,0.9-3.8,2.9-5.7,6.1c-3.7,6-7.1,12.7-10.4,19.9c-3.2,7.2-5.5,13.3-6.8,18.1
	c-0.2,0.7-0.3,1.3-0.5,2c-1.6,1-3,1.8-4.3,2.5c-3.6,1.9-6.4,2.5-8.4,2c-1.3-0.3-2.2-1.1-2.7-2.3c-0.5-1.2-0.6-2.6-0.2-4.2
	c1.3-4.8,4.8-13.1,10.5-24.7c3.9-8,6.1-13.2,6.7-15.4c1-3.8-1.1-6.3-6.3-7.7c-2.4-0.7-4.8-1.1-7.2-1.2c0.1-2.5-0.1-4.3-0.7-5.4
	c-0.6-1.1-2-2-4.3-2.6c-7.3-2-14.8-1.5-22.6,1.4c-7.8,2.9-14.6,7.7-20.6,14.3c-4.5,5-7.9,10.5-10.3,16.5c-5.1,3.5-9.4,5.9-12.9,7.2
	c-4,1.5-7.7,1.7-11.2,0.8c-3.7-1-6.3-2.9-7.8-5.7c-1.5-2.8-1.6-6.5-0.4-11c1-3.9,2.8-8.3,5.3-13.4l22-43.4
	c3.2-6.4,5.4-11.9,6.7-16.7c2.3-8.7,2.1-16-0.5-21.9c-2.7-5.9-7.7-9.8-15.1-11.8c-9.2-2.5-18.2-1.4-27.1,3.1
	c-8.8,4.5-17.9,13.5-27.1,26.9c2.4-5,4-9.3,5-12.8c2.4-9,2.3-16.5-0.4-22.5c-2.7-6-7.4-9.9-14.3-11.8c-9-2.4-18.2-1.2-27.6,3.7
	c-9.4,4.9-19.4,15.3-30.1,31.1c0.5-0.9,1.2-2.5,2.3-4.9c1.1-2.4,2.4-5.4,4-9.2c1.6-3.8,2.8-7.1,3.5-10c1.9-7.2,1.8-13.1-0.3-17.7
	c-2.1-4.6-6.1-7.7-11.9-9.2c-6.3-1.7-13-1.4-20.3,0.8c-7.3,2.2-14.4,6.3-21.5,12.1c-2.2,1.8-3.9,3.5-5,5.1c-1.2,1.6-2,3.2-2.4,4.9
	c-0.5,1.8-0.4,3.6,0.4,5.4c0.7,1.7,1.8,2.8,3.3,3.2c1.8,0.5,3.7-0.1,5.7-1.7c6.3-5,11.8-8.4,16.4-10.2c4.6-1.8,8.3-2.3,11.1-1.6
	c3.5,0.9,4.6,3.8,3.3,8.6c-1.4,5.1-3.6,11.5-6.6,18.9c-4.9,11.9-11,25.9-18.2,42c-4,8.7-7.1,15.5-9.2,20.6c-2.1,5-3.6,9.2-4.5,12.5
	c-1.3,4.9-1.4,8.5-0.2,10.7c1.2,2.2,3.8,3.9,7.7,4.9c4.1,1.1,7.2,0.8,9.2-1c2-1.8,4.1-5.3,6.3-10.5c10.4-24.9,20.3-44.2,29.6-58
	c9.3-13.8,17.5-22.9,24.6-27.4c7.1-4.5,13.2-6,18.4-4.6c3.1,0.8,5.1,2.4,6.1,4.7c1,2.3,1,5.5-0.1,9.6c-2,7.5-8.9,23.6-20.7,48.2
	c-4.4,9.2-8.1,17.2-11.2,24c-3.1,6.8-5.2,12.4-6.4,16.8c-1.3,4.7-1.3,8.2-0.1,10.3c1.2,2.2,3.6,3.7,7.2,4.7c4.1,1.1,7.4,0.8,9.9-0.9
	c2.4-1.7,4.9-5.7,7.4-11.9c9.5-23.2,18.7-41.6,27.7-55.3c8.9-13.7,17-23,24.2-28.1c7.2-5,13.3-6.9,18.3-5.5c2.6,0.7,4.4,2.2,5.4,4.5
	c0.9,2.3,0.9,5.3-0.1,9c-0.6,2.1-1.3,4.3-2.2,6.4c-0.9,2.1-2,4.3-3.1,6.7c-1.2,2.3-2,3.9-2.5,4.8L143,359.9
	c-5.8,11.3-9.5,20.2-11.2,26.5c-2.4,9.1-1.8,17.1,1.8,23.8c3.6,6.8,10,11.4,19,13.8c5.9,1.6,12,1.6,18.2-0.1
	c4.2-1.1,8.6-3.1,13.3-5.8c0.3,2.5,1,4.9,2,7.2c2.6,5.9,7.2,9.7,13.8,11.5c8.4,2.2,16.5-0.4,24.4-7.9c0.4,4.6,1.7,8.5,3.9,11.7
	c2.3,3.2,5.1,5.3,8.6,6.2c4.6,1.2,9.8,0.6,15.6-1.8c1.5-0.6,3.1-1.3,4.6-2.1c0.1,0.5,0.3,1.1,0.4,1.6c1.8,5.8,6.1,9.6,13,11.4
	c7.5,2,16.8-0.3,27.7-6.9c0,0.2,0.1,0.4,0.1,0.6c2.2,9.8,8,15.9,17.3,18.4c6.8,1.8,13.3,1.6,19.7-0.6c6.3-2.2,12.5-5.5,18.6-10
	c2.6-1.8,4.5-4.9,5.7-9.2c0.6-2.3,0.7-4.1,0.2-5.6c-0.4-1.5-1.4-2.4-2.7-2.8c-1.6-0.4-3.2-0.1-4.9,1.1c-6.7,4.7-12.1,7.9-16,9.6
	c-4,1.6-8.1,1.9-12.5,0.7c-2.8-0.7-4.7-2.3-5.9-4.6c-1.2-2.3-1.6-5.8-1.1-10.4C333.1,422.7,347.1,408.5,358.6,393.6z M335.4,377
	c5.9-12.6,11.5-22.9,17-31c5.5-8.1,9.4-11.8,11.8-11.1c3,0.8,3.4,5.3,1.2,13.4c-2.8,10.4-8.1,21.3-15.9,32.7
	c-7.8,11.4-17.2,22.4-28.1,32.9C324.9,401.9,329.5,389.6,335.4,377z M225.4,409.8c-2.2,4.4-4.7,7.6-7.6,9.9c-2.9,2.2-5.5,3-7.8,2.4
	c-2.3-0.6-3.9-1.9-4.8-3.9c-0.9-2-0.9-4.6,0-7.9c1.6-6,4.2-11.4,7.9-16.2c3.7-4.8,7.8-8.3,12.4-10.5c4.6-2.3,9.2-2.8,13.7-1.8
	L225.4,409.8z"/>
</svg>
