<?xml version="1.0" encoding="utf-8"?>
<!-- Generator: Adobe Illustrator 22.0.1, SVG Export Plug-In . SVG Version: 6.00 Build 0)  -->
<svg version="1.1" id="Шар_1" xmlns="http://www.w3.org/2000/svg" xmlns:xlink="http://www.w3.org/1999/xlink" x="0px" y="0px"
	 width="930px" height="734px" viewBox="0 0 930 734" style="enable-background:new 0 0 930 734;" xml:space="preserve">
<style type="text/css">
	.st0{fill-rule:evenodd;clip-rule:evenodd;fill:#7BC8DB;}
	.st1{fill-rule:evenodd;clip-rule:evenodd;fill:#3B9DB5;}
	.st2{fill:none;}
	.st3{fill:#FFFFFF;}
	.st4{font-family:'Quicksand-Bold';}
	.st5{font-size:21.003px;}
</style>
<path class="st0" d="M464.8,51.1c-3.2-5.3-9.2-8.4-15.4-7.9l-85.3,7.4c-14-14.1-30.3-26.1-48.9-35.4C274.6-5.4,224-5,169,15.9
	C73.6,52.3-16.6,144.5-64.3,253.3c-0.5-0.1-1.1-0.1-1.6-0.1c-9.5-0.5-20,3.2-25.8,11.1c-0.2,0.2-0.3,0.4-0.5,0.7
	c-0.8,1.2-1.6,2.4-2.2,3.7l-80.3,161.8c-7.1,14.3-0.1,31.9,13.9,38.9l9.1,4.5c0,0-0.2,0.1-0.2,0.1l0,0c-3.1,2-37.1,20.2-46.4,23.1
	l-48.8,15.1l445.8,221.4l10.4-10.1c53.3-51.9,100.9-118.7,137.9-193.2c74.8-150.6,97.3-288.6,69.4-387.3l48.4-74.6
	C467.9,63.2,468,56.5,464.8,51.1z M248.5,62.6c3.2-4,8.3-6.1,14.1-5.7c5.1,0.3,10.3,2.4,14.7,6c9.9,8,12.8,20.3,6.6,28.1
	c-5.2,6.5-14.7,7.5-23.5,3.1c-1.8-0.9-3.6-2-5.3-3.4C245.2,82.7,242.3,70.4,248.5,62.6z M32.8,336.1c1.3,19.3,8.7,34.5,22,41.2l0,0
	l0,0c13.4,6.6,30,3.3,46.1-7.4l78.8,39.1l-95.1,10.4c-5.7-14.7-16.6-27.4-31.8-34.9c-15.5-7.7-32.5-8.6-47.8-4l-49.8-83L32.8,336.1z
	 M59.7,469c-1.7,2-3.7,3.8-5.7,5.4c-0.1,0.1-0.2,0.3-0.4,0.4c-13.6,10.7-32.5,13.3-48.9,5.1c-22.7-11.3-31.9-39-20.6-61.9
	c4.6-9.3,19.1-13.5,15.9-12.3c12.9-5,24.8-5.2,34.3-0.3c4.4,2.2,8.2,5,11.4,8.3l20-1.9c1.5-0.1,2.9,0.6,3.6,1.8
	c0.7,1.3,0.7,2.9-0.1,4.1L58,435.4C60.7,445.1,61.2,456.5,59.7,469z M-76.3,308.7l53.3,88.8c-4.6,4.7-8.6,10.2-11.7,16.5
	c-16,32.3-2.9,71.4,29.4,87.5c32.3,16,71.4,2.9,87.4-29.4c3.2-6.5,5.2-13.3,6.2-20.1l101.4-11.1l-66.2,133.4l-266.1-132.1
	L-76.3,308.7z M310.2,512.2c-32.5,65.6-73.7,124.7-119.6,171.9L119.9,649c0.8-8-0.1-15.2,7.6-40.4l-0.9-0.4c0.3,0,0.7,0,1,0
	c4.9-0.4,9.7-2.1,13.8-4.9l7.1-7.8L230,431.3c0.7-1.3,1.2-2.7,1.7-4.1c0.1-0.2,0.2-0.4,0.2-0.6c2-6.4,1.8-12.8-0.4-18.4l1.9,0.6
	c39.4-24.7,85.1-35.3,129.4-28.8C350,422.9,332.4,467.5,310.2,512.2z M401.9,105c-3.9-8.3-8.3-16.1-13.2-23.6l30.2-2.6L401.9,105z
	 M29.2,413.8c-4-2-8.5-1.2-10,1.9c-1.5,3,0.5,7.1,4.6,9.1c4,2,8.5,1.2,10-1.9S33.3,415.8,29.2,413.8z"/>
<path class="st1" d="M747,87.9c-77.3-2.6-143.6,30.8-171.2,80.3C564.3,171,548,171,548,183.6c0,12.9,6.7,25.4,14.1,36.2
	c0,38.9,21.6,74.8,56.5,100.8c1.3,2.3,3.6,3.9,6.3,4.5c32.1,22,74.2,36,120.3,37.6C846.7,366,929.5,307.3,930,231.4
	C930.5,155.5,848.6,91.3,747,87.9z"/>
<rect x="623.1" y="172.5" class="st2" width="275.7" height="157.3"/>
<text id="With_HyggeMail_x2C__you_can_get_that_feeling_every_day_at_the_click" transform="matrix(1 0 0 1 623.1094 187.1787)"><tspan x="0" y="0" class="st3 st4 st5">With HyggeMail, you can </tspan><tspan x="0" y="41" class="st3 st4 st5">get that feeling every day </tspan><tspan x="0" y="82" class="st3 st4 st5">at the click of a button.</tspan></text>
<ellipse transform="matrix(8.128753e-02 -0.9967 0.9967 8.128753e-02 303.8378 658.1917)" class="st1" cx="508.9" cy="164.3" rx="17.4" ry="28.1"/>
<path class="st1" d="M467.4,133.2c-7.3-3.7-15.3-3.2-17.8,1.3c-2.5,4.4,1.4,11.1,8.7,14.8c7.3,3.7,15.3,3.2,17.8-1.3
	C478.7,143.6,474.8,137,467.4,133.2z"/>
</svg>
