<?xml version="1.0" standalone="no"?>
<!DOCTYPE svg PUBLIC "-//W3C//DTD SVG 1.1//EN" "http://www.w3.org/Graphics/SVG/1.1/DTD/svg11.dtd" >
<svg>
<metadata>
Created by FontForge 20090914 at Tue Jan  2 14:04:58 2018
 By www-data
Copyright (c) 2011 TypeSETit, LLC (typesetit@att.net),with Reserved Font Name "Allura"
</metadata>
<defs>
<font id="Allura-Regular" horiz-adv-x="226" >
  <font-face 
    font-family="Allura"
    font-weight="400"
    font-stretch="normal"
    units-per-em="1000"
    panose-1="2 0 0 0 0 0 0 0 0 0"
    ascent="800"
    descent="-200"
    x-height="275.998"
    cap-height="590.005"
    bbox="-359.999 -449.999 1164 799.995"
    underline-thickness="24"
    underline-position="-132"
    unicode-range="U+0020-U+FB06"
  />
<missing-glyph horiz-adv-x="219" 
 />
    <glyph glyph-name=".notdef" horiz-adv-x="219" 
 />
    <glyph glyph-name="space" unicode=" " horiz-adv-x="219" 
 />
    <glyph glyph-name="exclam" unicode="!" horiz-adv-x="162" 
d="M148 141c0 2.66699 8.16895 27.502 24.502 74.502s44.166 116.667 83.499 209s60.833 140.333 64.5 144s7.66699 5.5 12 5.5s11.666 -3.5 21.999 -10.5s15.5 -17 15.5 -30s-8 -33.5 -24 -61.5c-2 -4 -5.66699 -8.33301 -11 -13s-9.16602 -9.5 -11.499 -14.5
s-11.833 -23.333 -28.5 -55s-27.834 -53.334 -33.501 -65.001l-26.5 -54.5c-22.667 -47.333 -39.667 -89.333 -51 -126c-2 -6.66699 -8.5 -10.834 -19.5 -12.501s-16.5 1.5 -16.5 9.5zM155.002 44.002v-16.999c0 -4.66699 -3.66699 -12.334 -11 -23.001s-13 -16 -17 -16
c-22 0 -33 5.33301 -33 16c0 5.33301 6.66699 13.333 20 24c18.667 14.667 30.167 22 34.5 22s6.5 -2 6.5 -6z" />
    <glyph glyph-name="quotedbl" unicode="&#x22;" horiz-adv-x="256" 
d="M88 455c4.66699 3.33301 13.499 4.99805 26.499 4.99805s18.833 -6 17.5 -18c-0.666992 -18 -4 -33 -10 -45c-2 -8.66699 -6.16699 -23.167 -12.5 -43.5s-10.833 -35.5 -13.5 -45.5c-2.66699 -11.333 -6.5 -17 -11.5 -17s-7.5 4 -7.5 12l4 100
c0 4.66699 -0.333008 11.834 -1 21.501s-0.666992 16.334 0 20.001s3.33398 7.16699 8.00098 10.5zM224.999 459.998c13.333 0 19.999 -6.00391 19.999 -18.0039c0 -8 -1.5 -17.167 -4.5 -27.5s-5 -17.666 -6 -21.999s-4.83301 -16.666 -11.5 -36.999
s-11.167 -36.166 -13.5 -47.499s-6.16602 -17 -11.499 -17s-8 3.66699 -8 11l4 60c0.666992 26.667 1 40.334 1 41.001l-2 35c0 10.667 3.16699 17 9.5 19s13.833 3 22.5 3z" />
    <glyph glyph-name="numbersign" unicode="#" horiz-adv-x="775" 
d="M471 159l155.997 -1.99707c36 -1.33301 54 -6 54 -14c0 -4 -6.33301 -7.66699 -19 -11v-2c-3.33301 -0.666992 -70.666 -2.33398 -201.999 -5.00098l-34 -105c-6 -22 -14 -33 -24 -33h-1c-9.33301 2 -14 7.5 -14 16.5s11.333 49.5 34 121.5l-202 -2l-33 -99
c-6 -22 -14 -33 -24 -33s-15 6 -15 18c0 8 11 46 33 114l-132 -3c-22 0 -33 5.33301 -33 16c0 6 3.16699 11.333 9.5 16s61.833 7 166.5 7c24.667 74 47.334 139 68.001 195c-90.667 -1.33301 -137 -2 -139 -2h-7c-20 0 -30.333 5 -31 15c0 6 3.33301 11.333 10 16
s66.334 7 179.001 7l68 188c11.333 31.333 21 47 29 47c4.66699 0 6.66699 -7.33301 6 -22l1 -1c-1.33301 -10.667 -24 -81.334 -68 -212.001c20 0.666992 41.667 1 65 1l140 -1l30 83l25.5 69.5c7 18.333 10.833 28.5 11.5 30.5c12 31.333 21.667 47 29 47
c4.66699 0 6.66699 -7.33301 6 -22h1c-0.666992 -4.66699 -22.667 -74 -66 -208l146 -2c36 -0.666992 54 -5.33398 54 -14.001c0 -4 -6.33301 -7.66699 -19 -11v-1c-6 -2 -70.333 -3.66699 -193 -5zM500.997 357.003l-206 -3l-65 -195h202z" />
    <glyph glyph-name="dollar" unicode="$" horiz-adv-x="436" 
d="M229 49c-19.333 -4.66699 -37.165 -6.99805 -53.498 -6.99805s-31.5 2.33301 -45.5 7l-26 -56c-4.66699 -11.333 -13.334 -17 -26.001 -17c-7.33301 0 -10.166 4.83301 -8.49902 14.5s11.834 32.5 30.501 68.5c-26 12.667 -39 23.667 -39 33
c0 3.33301 0.666992 5.5 2 6.5s5.66602 0 12.999 -3s20 -5.83301 38 -8.5l58 111c-52 53.333 -78 100.5 -78 141.5s14.333 74.833 43 101.5c46 42 103 63 171 63c11.333 0 22.666 -0.666992 33.999 -2h4c12.667 18 19.334 27.333 20.001 28c6 6.66699 12.333 10 19 10
c21.333 0 28.666 -4.33301 21.999 -13l-9 -13c-6 -8.66699 -10.667 -15.667 -14 -21c40.667 -14.667 60 -37.334 58 -68.001c-0.666992 -26 -12 -50.5 -34 -73.5s-46.333 -39.5 -73 -49.5c-6 -2.66699 -9.66699 -3.33398 -11 -2.00098c-3.33301 2 -1.33301 6.66699 6 14
c56.667 54 85 93.333 85 118c0 20 -15.333 32.667 -46 38c-61.333 -92.667 -117 -184.667 -167 -276l35 -40c22 -26 33 -48 33 -66c-0.666992 -19.333 -14.334 -32.333 -41.001 -39zM164.001 82.002c44.667 0 68 13.667 70 41c0 8 -14 26 -42 54
c-3.33301 -7.33301 -8.33301 -17.333 -15 -30l-17.5 -34.5l-14.5 -29.5c6.66699 -0.666992 13 -1 19 -1zM122.001 317.002c0 -22.667 20 -56.001 60 -100.001c71.333 128 120.333 213.333 147 256c-48 -3.33301 -94.5 -20.166 -139.5 -50.499s-67.5 -65.5 -67.5 -105.5z" />
    <glyph glyph-name="percent" unicode="%" horiz-adv-x="464" 
d="M379 131c0 22 -10.333 32.999 -31 32.999c-16.667 0 -32.334 -8.33301 -47.001 -25s-24.167 -31.167 -28.5 -43.5s-7.16602 -22.666 -8.49902 -30.999s-2 -17 -2 -26s2.83301 -16.333 8.5 -22s15 -8.5 28 -8.5s26.5 8.16699 40.5 24.5s24.167 33.833 30.5 52.5
s9.5 34 9.5 46zM288 -13.001c-40.667 0 -61 21.668 -61 65.001v7c4 36 18.5 65.167 43.5 87.5s52.833 34.166 83.5 35.499c18.667 0 33.167 -4.66699 43.5 -14s15.5 -22 15.5 -38c0 -4.66699 -0.333008 -9.66699 -1 -15c-3.33301 -32.667 -17.333 -62 -42 -88
c-26 -26.667 -53.333 -40 -82 -40zM394 530c6.66699 6.66699 18.001 9.99805 34.001 9.99805s24 -3 24 -9c0 -1.33301 -0.666992 -2.66602 -2 -3.99902c-41.333 -49.333 -100 -130 -176 -242s-134 -208.667 -174 -290c-6.66699 -12.667 -16.667 -19 -30 -19
c-6 0 -9 2.33301 -9 7c0 16.667 103.667 188.667 311 516c-24 -8 -46.167 -12 -66.5 -12s-38.833 2.66699 -55.5 8c5.33301 -42 -9.33398 -81 -44.001 -117c-25.333 -26.667 -50.666 -40 -75.999 -40s-42.5 6 -51.5 18s-13.5 22.667 -13.5 32
c0 46.667 13.667 82.334 41 107.001s53.166 37.167 77.499 37.5s41.833 -4.5 52.5 -14.5c18 -7.33301 34.667 -11 50 -11c50.667 0 86.667 7.66699 108 23zM216.001 483.998c0 9.33301 -2.50195 16.835 -7.50195 22.502s-10 8.5 -15 8.5h-8.5
c-16 0 -31.167 -8.16699 -45.5 -24.5s-23.666 -31 -27.999 -44s-7.33301 -23.5 -9 -31.5s-2.5 -16.667 -2.5 -26s2.66699 -16.833 8 -22.5s14.666 -8.33398 27.999 -8.00098s26.833 8.5 40.5 24.5s22.834 30.333 27.501 43s7.83398 23.167 9.50098 31.5
s2.5 17.166 2.5 26.499z" />
    <glyph glyph-name="ampersand" unicode="&#x26;" horiz-adv-x="697" 
d="M652 386c0 -29.333 -31.6689 -62.002 -95.002 -98.002c10.667 -11.333 19.667 -25.666 27 -42.999s11 -30.666 11 -39.999c0 -41.333 -13.833 -78.833 -41.5 -112.5s-58.167 -59.167 -91.5 -76.5c-78.667 -40 -158 -60 -238 -60c-29.333 0 -57.666 4.33301 -84.999 13
s-49 22 -65 40c-24 26 -36 56 -36 90c0 38 15.333 73 46 105c40 42 107 64.333 201 67c21.333 0.666992 35.333 1.33398 42 2.00098c-38.667 32.667 -69.667 73 -93 121c-10.667 23.333 -16 45.666 -16 66.999s6.33301 41 19 59s38.334 31.667 77.001 41
c22.667 5.33301 41.334 8 56.001 8s27.667 -1.5 39 -4.5s25 -9.33301 41 -19s28.333 -19.834 37 -30.501c15.333 18 28.333 27.333 39 28c8.66699 2 16 0.5 22 -4.5s5.33301 -11.167 -2 -18.5c-2 -2 -7.33301 -6.33301 -16 -13c-38 -30.667 -57 -56.667 -57 -78
c0 -7.33301 1.83301 -13.666 5.5 -18.999s3.33398 -8.66602 -0.999023 -9.99902s-8.5 -0.166016 -12.5 3.50098s-6 16 -6 37s5.33301 40.167 16 57.5c-14 15.333 -30.833 27.166 -50.5 35.499s-35.167 12.5 -46.5 12.5c-50 0 -78.333 -22 -85 -66
c-1.33301 -11.333 -2 -25.666 -2 -42.999s5 -41 15 -71s21.5 -53.5 34.5 -70.5s18.833 -27.667 17.5 -32s-7.33301 -7.16602 -18 -8.49902c-54.667 -6 -107.667 -22.667 -159 -50c-30 -14.667 -52.833 -32.667 -68.5 -54s-23.5 -42.5 -23.5 -63.5s6.33301 -40.833 19 -59.5
s31 -32 55 -40s44.333 -12 61 -12c81.333 0 152.666 20.667 213.999 62c50 33.333 84.667 82 104 146c5.33301 20 8 39.333 8 58s-2 32 -6 40l-59 -32.5c-27.333 -15 -47.333 -26.5 -60 -34.5c-25.333 -15.333 -48 -36 -68 -62s-30 -44.833 -30 -56.5s3.16699 -20 9.5 -25
s10.166 -9 11.499 -12s1 -5 -1 -6s-6 -0.5 -12 1.5c-17.333 6 -26 27 -26 63c0 20 4.66699 39 14 57c13.333 25.333 61.666 58.666 144.999 99.999l69 35c51.333 25.333 83 46.666 95 63.999c5.33301 7.33301 8 13.666 8 18.999s-0.833008 10 -2.5 14s-1.16699 6 1.5 6
s5.33398 -2 8.00098 -6c3.33301 -7.33301 5 -14.333 5 -21z" />
    <glyph glyph-name="quotesingle" unicode="'" horiz-adv-x="145" 
d="M88 455c4.66699 3.33301 13.3301 4.99805 25.9971 4.99805s19 -5.66699 19 -17c0 -8 -1.66699 -17.333 -5 -28s-5.66602 -18.5 -6.99902 -23.5s-5.16602 -17.667 -11.499 -38s-10.833 -35.5 -13.5 -45.5c-2.66699 -11.333 -6.5 -17 -11.5 -17s-7.5 4 -7.5 12l4 100
c0 4.66699 -0.333008 11.834 -1 21.501s-0.666992 16.334 0 20.001s3.33398 7.16699 8.00098 10.5z" />
    <glyph glyph-name="parenleft" unicode="(" horiz-adv-x="380" 
d="M462 563c5.33301 0 8.00098 -2.33496 8.00098 -7.00195c-1.33301 -6.66699 -7.33301 -12.334 -18 -17.001c-74 -24 -141.667 -64.833 -203 -122.5s-105.666 -125.5 -132.999 -203.5c-19.333 -57.333 -29 -119.166 -29 -185.499s11.333 -122.5 34 -168.5
c3.33301 -6.66699 1.66602 -13.667 -5.00098 -21s-14 -11 -22 -11s-14 2.66699 -18 8c-30.667 61.333 -46 126.666 -46 195.999c0 74.667 17.167 149.334 51.5 224.001s86.166 140.334 155.499 197.001s142 93.334 218 110.001c2.66699 0.666992 5 1 7 1z" />
    <glyph glyph-name="parenright" unicode=")" horiz-adv-x="517" 
d="M-28 -166c-5.33301 0 -7.99902 2.00098 -7.99902 6.00098c0 7.33301 5.66699 13 17 17c74 24 141.667 65 203 123s105.666 126 132.999 204c20 53.333 30 114.166 30 182.499s-11.667 125.5 -35 171.5c-3.33301 6.66699 -2 13.334 4 20.001c7.33301 8 15 12 23 12
s14 -2.66699 18 -8c30.667 -61.333 46 -127 46 -197c0 -74.667 -15.667 -145.667 -47 -213c-36.667 -81.333 -89.667 -150.333 -159 -207s-142 -93.334 -218 -110.001c-2.66699 -0.666992 -5 -1 -7 -1z" />
    <glyph glyph-name="asterisk" unicode="*" horiz-adv-x="644" 
d="M260 322c-49.333 -2 -90.668 -3.00391 -124.001 -3.00391c-16.667 0 -26.334 4.33301 -29.001 13c-0.666992 8 5 15.333 17 22c8 4 56.333 6 145 6c-38.667 62.667 -58 103.334 -58 122.001c0 9.33301 4 16 12 20c3.33301 2 6.33301 3 9 3
c8.66699 0 16.667 -7.33301 24 -22c10.667 -22 25.334 -56.333 44.001 -103l42 49.5l39.5 46.5c9.66699 11.333 16.667 20 21 26s9 10 14 12s8.5 3 10.5 3c5.33301 0 8 -3.83301 8 -11.5s-3.66699 -16.834 -11 -27.501l-89 -118h144c30.667 -0.666992 46 -5 46 -13
c0 -3.33301 -4.33301 -7.16602 -13 -11.499s-21 -7.16602 -37 -8.49902s-65.667 -2.66602 -149 -3.99902c13.333 -37.333 25.5 -65.833 36.5 -85.5s17.167 -31.5 18.5 -35.5s2 -9.16699 2 -15.5s-3 -10.166 -9 -11.499c-1.33301 -0.666992 -2.66602 -1 -3.99902 -1
c-8 0 -17.333 9.66699 -28 29l-4 9l-10 18l-26 50l-12 23c-28.667 -36 -47.667 -60.833 -57 -74.5s-15 -21.5 -17 -23.5c-12 -14 -22.667 -21 -32 -21h-4c-9.33301 3.33301 -14 9.33301 -14 18c0 2 0.5 4.33301 1.5 7s10.833 15.667 29.5 39c16 16 37 40.667 63 74z" />
    <glyph glyph-name="plus" unicode="+" horiz-adv-x="615" 
d="M297 162c-98.667 -2.66699 -157.498 -4.00293 -176.498 -4.00293s-28.5 3.33301 -28.5 10c0 9.33301 7.33301 17.333 22 24c3.33301 1.33301 6.66602 2 9.99902 2h188c36 79.333 58 126.5 66 141.5s15.5 22.5 22.5 22.5s10.5 -3.66699 10.5 -11
c0 -5.33301 -2 -12.666 -6 -21.999l-58 -130h174c19.333 0 29 -4.33301 29 -13c0 -2 -2 -4.83301 -6 -8.5s-12.333 -6.16699 -25 -7.5s-74.334 -2.66602 -185.001 -3.99902l-75 -173c-4 -9.33301 -12.667 -15.666 -26 -18.999h-6c-12.667 0 -14.667 9 -6 27z" />
    <glyph glyph-name="comma" unicode="," horiz-adv-x="179" 
d="M151 9c0 -13.333 -14.668 -37.332 -44.001 -71.999c-36 -46.667 -58.667 -70 -68 -70c-3.33301 0 -5 2.66699 -5 8c0 1.33301 9.33301 12.833 28 34.5s30.834 41.667 36.501 60s6.16699 31.5 1.5 39.5c-11.333 22 -3 33 25 33c7.33301 0 13.5 -3.83301 18.5 -11.5
s7.5 -14.834 7.5 -21.501z" />
    <glyph glyph-name="hyphen" unicode="-" horiz-adv-x="377" 
d="M176 194l148 0.999023c36.667 0 55 -4 55 -12c0 -13.333 -71 -21.666 -213 -24.999h-5c-12 0 -18 3 -18 9c0 9.33301 7.33301 17.333 22 24c4 2 7.66699 3 11 3z" />
    <glyph glyph-name="period" unicode="." horiz-adv-x="181" 
d="M155 44v-16.999c0 -4.66699 -3.66699 -12.334 -11 -23.001s-13 -16 -17 -16c-22 0 -33 5.33301 -33 16c0 5.33301 6.66699 13.333 20 24c18.667 14.667 30.167 22 34.5 22s6.5 -2 6.5 -6z" />
    <glyph glyph-name="slash" unicode="/" horiz-adv-x="467" 
d="M411 530c7.33301 6.66699 16.167 9.99902 26.5 9.99902s15.5 -2.33301 15.5 -7c0 -1.33301 -1 -3.33301 -3 -6c-44 -48 -108.5 -128.167 -193.5 -240.5s-150.833 -209.5 -197.5 -291.5c-8 -12.667 -18.333 -19 -31 -19c-6 0 -9 2 -9 6
c0 16.667 59.167 106.334 177.5 269.001s189.833 255.667 214.5 279z" />
    <glyph glyph-name="zero" unicode="0" horiz-adv-x="550" 
d="M95 15c-34.667 40.667 -51.998 89.334 -51.998 146.001c0 36 7.66699 77 23 123c30 89.333 93.667 156 191 200c38.667 18 73 27 103 27c5.33301 0 12.5 -0.333008 21.5 -1s18.167 -5 27.5 -13s15.166 -17.167 17.499 -27.5s1.16602 -17.5 -3.50098 -21.5
c-1.33301 0 -2.66602 0.666992 -3.99902 2c-10 15.333 -27.333 23 -52 23c-37.333 0 -76 -13.167 -116 -39.5s-74.167 -59.5 -102.5 -99.5s-47.166 -86.333 -56.499 -139c-2.66699 -16.667 -4 -37.334 -4 -62.001s6.66699 -51 20 -79c19.333 -41.333 54.166 -62 104.499 -62
s101.166 22.5 152.499 67.5s87.333 95.833 108 152.5s31 104.667 31 144c0 52.667 -15.667 93.334 -47 122.001c-28.667 28 -69 42 -121 42c-15.333 0 -24.833 2 -28.5 6s-2 7.83301 5 11.5s14.833 5.5 23.5 5.5c58 -3.33301 104.667 -21 140 -53
c48 -40.667 72 -97.334 72 -170.001c0 -40 -8.66699 -81.667 -26 -125c-28.667 -69.333 -70.5 -125 -125.5 -167s-111.5 -63 -169.5 -63s-102 16.667 -132 50z" />
    <glyph glyph-name="one" unicode="1" horiz-adv-x="312" 
d="M116 -12l-110.001 -21.002c-4 0 -6 2.33301 -6 7c0 10.667 6.33301 19.667 19 27c3.33301 2 6.33301 3.33301 9 4s21.334 3.33398 56.001 8.00098c6 0 17 0.666992 33 2c8 36.667 28 97.834 60 183.501s63.333 164.167 94 235.5
c-44.667 -43.333 -84.667 -76.666 -120 -99.999c-9.33301 -6 -14 -6.5 -14 -1.5s4 10.833 12 17.5c66 57.333 120 116.333 162 177c4.66699 4.66699 9.33398 7 14.001 7c13.333 0 24.5 -2.66699 33.5 -8s13.5 -10 13.5 -14c0 -0.666992 -0.333008 -1.33398 -1 -2.00098
c-118.667 -234 -190.667 -398.333 -216 -493c13.333 0.666992 31.5 1 54.5 1s44.833 -1.66699 65.5 -5c8.66699 -2 12.167 -5.66699 10.5 -11s-8.16699 -8 -19.5 -8c-70.667 0 -109.334 -0.333008 -116.001 -1v-1c-3.33301 -4 -9 -6.83301 -17 -8.5
s-13.667 -0.166992 -17 4.5z" />
    <glyph glyph-name="two" unicode="2" horiz-adv-x="584" 
d="M428 13c16 0 33.332 1.33105 51.999 3.99805c36.667 5.33301 57.334 15.666 62.001 30.999c2.66699 8 7 11.833 13 11.5s8.16699 -3.66602 6.5 -9.99902s-3.66699 -11.166 -6 -14.499s-5.33301 -6.83301 -9 -10.5s-6.66699 -6.5 -9 -8.5s-6 -4.83301 -11 -8.5
s-8.16699 -6.16699 -9.5 -7.5c-25.333 -18.667 -58.666 -28 -99.999 -28c-18 0 -36 1.66699 -54 5s-57 12.833 -117 28.5s-95 25.5 -105 29.5c-12 -14 -26.333 -26.667 -43 -38s-27.334 -17 -32.001 -17s-7 2.66699 -7 8c0 52.667 30.333 79 91 79h11
c206.667 122 326.334 222.333 359.001 301c7.33301 16.667 11 30 11 40c0 28 -12.333 51.333 -37 70c-17.333 13.333 -40.333 20 -69 20s-56.667 -3 -84 -9c-28.667 -8.66699 -55.667 -19.334 -81 -32.001c-40.667 -21.333 -61 -42 -61 -62c0 -5.33301 1.5 -11.333 4.5 -18
s2.66699 -11.167 -1 -13.5s-7.83398 -1.16602 -12.501 3.50098c-12.667 11.333 -19 24.5 -19 39.5s9.5 31.5 28.5 49.5s42.5 32.667 70.5 44c51.333 22 101 33 149 33c34 0 65 -4.33301 93 -13c51.333 -16 80 -46 86 -90c0.666992 -2.66699 1 -5.66699 1 -9
c0 -41.333 -27.333 -88.666 -82 -141.999c-66 -63.333 -173.667 -135 -323 -215c25.333 -4 60 -12.5 104 -25.5s72.667 -20.5 86 -22.5s28 -3 44 -3z" />
    <glyph glyph-name="three" unicode="3" horiz-adv-x="561" 
d="M343 305c36.667 0 71.166 10.332 103.499 30.999s48.5 47 48.5 79c0 22 -9.5 41 -28.5 57s-44.333 24.167 -76 24.5s-64 -7.66699 -97 -24s-49.5 -38.833 -49.5 -67.5c0 -6 -3.66699 -10.333 -11 -13s-11 0 -11 8c0 40 17.667 71.333 53 94s80 34 134 34
c34.667 0 65 -6.66699 91 -20c34.667 -19.333 52 -48 52 -86c0 -21.333 -7.33301 -43.333 -22 -66c-20 -30.667 -51.333 -53 -94 -67c26 -1.33301 47.667 -10.666 65 -27.999s26 -40 26 -68c0 -45.333 -16.167 -86.333 -48.5 -123s-71.166 -64.167 -116.499 -82.5
s-90.333 -27.5 -135 -27.5c-96.667 0 -145.334 32.333 -146.001 97c0 10.667 2.33301 21.667 7 33s11 17 19 17c2.66699 0 5.66699 -0.333008 9 -1c8 -4.66699 11.333 -10.667 10 -18c-3.33301 -8 -5 -18.333 -5 -31c2 -26 14.167 -45.5 36.5 -58.5
s46.166 -19.5 71.499 -19.5c56.667 0.666992 110.834 22.834 162.501 66.501s77.5 94.167 77.5 151.5c0 19.333 -7.16699 36.5 -21.5 51.5s-35.5 26.167 -63.5 33.5c-11.333 -0.666992 -26.833 -2.83398 -46.5 -6.50098s-32.167 -5.5 -37.5 -5.5
c-17.333 0 -28 4.16699 -32 12.5s-3.16699 15.5 2.5 21.5s15.334 7.66699 29.001 5s28.167 -4 43.5 -4z" />
    <glyph glyph-name="four" unicode="4" horiz-adv-x="469" 
d="M255 -40c-5.33301 -5.33301 -11.499 -8 -18.499 -8s-12.167 2 -15.5 6v6c0 28.667 19.667 97 59 205l-151 15c-8 1.33301 -19.167 2 -33.5 2s-28.333 -5 -42 -15s-23.667 -16.667 -30 -20s-10.833 -3 -13.5 1c0 25.333 13 45.333 39 60l176 127
c72 52.667 138.333 114 199 184l5.5 8c2.33301 3.33301 4 5.83301 5 7.5s2.66699 3.33398 5 5.00098s4.5 2.5 6.5 2.5c6.66699 0 13 -2 19 -6c7.33301 -3.33301 13.166 -8 17.499 -14s4.33301 -13.333 0 -22l-62.5 -122c-37.333 -72.667 -65.333 -130 -84 -172
c34.667 2 68 8.5 100 19.5s50.333 24.5 55 40.5c2.66699 8.66699 6.5 13.167 11.5 13.5s7.5 -1.83398 7.5 -6.50098c0 -14 -14.667 -34 -44 -60c-37.333 -33.333 -87 -50 -149 -50c-32 -79.333 -52.667 -147.333 -62 -204v-3zM110.001 227
c8 0.666992 17.002 1.00098 27.002 1.00098s23.5 -0.666992 40.5 -2s39.167 -3.83301 66.5 -7.5s44.666 -5.83398 51.999 -6.50098c38 102 67.667 176 89 222c-52.667 -52.667 -144.334 -121.667 -275.001 -207z" />
    <glyph glyph-name="five" unicode="5" horiz-adv-x="547" 
d="M516 234.5c0 -43 -11.1709 -81.8311 -33.5039 -116.498s-50.666 -63.334 -84.999 -86.001s-71.833 -40.5 -112.5 -53.5s-80 -19.5 -118 -19.5c-113.333 0 -170 37.667 -170 113c0 13.333 2.83301 26.333 8.5 39s13.167 19 22.5 19c2.66699 0 5.66699 -0.666992 9 -2
c11.333 -4 15.333 -11 12 -21s-5 -21.667 -5 -35c1.33301 -30.667 14.833 -53.334 40.5 -68.001s51.5 -22 77.5 -22h7c42.667 0.666992 85.334 12 128.001 34s78.667 52.667 108 92s44 81.333 44 126c0 23.333 -6.33301 42.666 -19 57.999c-19.333 23.333 -52 35 -98 35
c-23.333 0 -45 -3.33301 -65 -10s-42.167 -19.167 -66.5 -37.5s-39.166 -28.166 -44.499 -29.499c-9.33301 -2 -13.666 1.66699 -12.999 11c0.666992 6.66699 4.33398 15.667 11.001 27c46 80 84.333 139 115 177c-0.666992 1.33301 -2.16699 3.83301 -4.5 7.5
s-3.83301 6.5 -4.5 8.5s-1.83398 4.83301 -3.50098 8.5s-2.33398 6.5 -2.00098 8.5s0.833008 4 1.5 6c1.33301 5.33301 6.66602 9 15.999 11c32 7.33301 81.833 11 149.5 11s122.167 -2.66699 163.5 -8c9.33301 -1.33301 14 -5 14 -11c0 -10 -9 -15 -27 -15
c-148 0 -235 -7.66699 -261 -23c-12 -7.33301 -31 -35.333 -57 -84c-14.667 -20.667 -27 -40.667 -37 -60c24.667 16.667 62.834 25 114.501 25s95.334 -8.5 131.001 -25.5s53.5 -47 53.5 -90z" />
    <glyph glyph-name="six" unicode="6" horiz-adv-x="516" 
d="M396 193c0 26.667 -8.3291 47.832 -24.9961 63.499s-37.334 23.5 -62.001 23.5c-26 0 -54.333 -12.667 -85 -38c-3.33301 -2.66699 -6.83301 -4 -10.5 -4s-5.83398 1.33301 -6.50098 4s2.83301 8.5 10.5 17.5s21.834 18 42.501 27s41 13.5 61 13.5h7
c34 0 62.333 -9.33301 85 -28s34 -44.334 34 -77.001c0 -62 -27 -117 -81 -165c-46 -40.667 -96.333 -61 -151 -61c-42.667 0 -77 10 -103 30s-42 45.667 -48 77c-2.66699 16 -4 32.333 -4 49c0 54 14.167 109.167 42.5 165.5s69.166 107.333 122.499 153
s102.333 73.5 147 83.5c8.66699 2.66699 17.167 4 25.5 4s18.666 -1 30.999 -3s25.833 -6.66699 40.5 -14s25.167 -19.166 31.5 -35.499s9.5 -31 9.5 -44s-0.833008 -24.333 -2.5 -34s-5.83398 -13.667 -12.501 -12s-9.66699 3.83398 -9 6.50098c1.33301 8 2 17.667 2 29
s-3.16699 24 -9.5 38s-15.833 23.667 -28.5 29c-20 8 -36.333 12 -49 12s-22.667 -1.33301 -30 -4c-35.333 -8 -73 -33 -113 -75c-64 -66.667 -105.667 -144.667 -125 -234c-6 -26.667 -9 -47.667 -9 -63v-29c1.33301 -30 11.333 -54.667 30 -74s47.5 -29 86.5 -29
s72.833 18 101.5 54c36 44 54 92 54 144z" />
    <glyph glyph-name="seven" unicode="7" horiz-adv-x="417" 
d="M152 -6c-7.33301 -5.33301 -18.0039 -8 -32.0039 -8s-21 2.33301 -21 7c0 15.333 52.667 87.166 158 215.499s180 214.833 224 259.5c-56 9.33301 -120.333 14 -193 14h-28c-75.333 -2.66699 -120 -31 -134 -85c-2.66699 -12 -7 -16 -13 -12
c-3.33301 2 -4.66602 5.33301 -3.99902 10c10 53.333 28 88.166 54 104.499s63 24.5 111 24.5c16 0 57.333 -2.83301 124 -8.5s105.334 -9.5 116.001 -11.5c8 14.667 19.667 24.667 35 30c3.33301 0.666992 6.33301 1 9 1c8 0 12 -4.66699 12 -14
s-3.83301 -18.833 -11.5 -28.5s-17.167 -17.167 -28.5 -22.5c-5.33301 -5.33301 -30.166 -32.666 -74.499 -81.999l-125.5 -144c-69.333 -81.333 -128.666 -164.666 -177.999 -249.999z" />
    <glyph glyph-name="eight" unicode="8" horiz-adv-x="491" 
d="M217 407c0 -17.333 6.5 -32.1641 19.5 -44.4971s41.5 -26.833 85.5 -43.5l10 -4c38.667 19.333 71.667 39.666 99 60.999c18 14 29.5 27.167 34.5 39.5s7.5 22.666 7.5 30.999s-2 17.166 -6 26.499c-13.333 32.667 -46.333 49 -99 49c-30.667 0 -60.667 -8 -90 -24
c-40.667 -22 -61 -52.333 -61 -91zM400 167.002c0 44 -32.665 76.3291 -97.998 96.9961c-10.667 3.33301 -18.334 6 -23.001 8c-42 -20.667 -85.333 -48 -130 -82c-51.333 -37.333 -77 -74.666 -77 -111.999c0 -16 6.5 -29.5 19.5 -40.5s30.167 -17.833 51.5 -20.5
c43.333 -5.33301 82.666 -2.66602 117.999 8.00098c42.667 14.667 76.5 35.334 101.5 62.001s37.5 53.334 37.5 80.001zM354.002 306.998c60.667 -28 91 -65.6689 91 -113.002c0 -40 -18.333 -78 -55 -114c-33.333 -32.667 -72 -58 -116 -76s-86 -27 -126 -27
c-76 0 -114 24.667 -114 74c0 27.333 10.667 56.333 32 87c18 25.333 38.333 46 61 62c56 40 98.667 66.333 128 79c-29.333 10.667 -51 23.834 -65 39.501s-21 35.834 -21 60.501c0 50.667 26.667 93.667 80 129c38.667 26 88 39 148 39c36 0 64.167 -6.5 84.5 -19.5
s30.5 -30.5 30.5 -52.5c0 -60.667 -52.667 -116.667 -158 -168z" />
    <glyph glyph-name="nine" unicode="9" horiz-adv-x="497" 
d="M155 311c0 -26 8.33496 -47.001 25.002 -63.001s38 -24 64 -24h3c22 0 48.667 13 80 39c3.33301 2.66699 7 3.66699 11 3c8.66699 -0.666992 8 -6.83398 -2 -18.501s-25.167 -21.834 -45.5 -30.501s-40.5 -13 -60.5 -13h-3c-36 0 -65.5 9.5 -88.5 28.5
s-34.5 44.5 -34.5 76.5c0 61.333 27 116.333 81 165c46 40.667 96.333 61 151 61c42.667 0 77 -10 103 -30s42 -45.667 48 -77c2.66699 -16 4 -32.333 4 -49c0 -53.333 -14.167 -108.5 -42.5 -165.5s-69.166 -108.5 -122.499 -154.5s-102.333 -73.333 -147 -82
c-22.667 -2.66699 -38.667 -4 -48 -4s-20 2.66699 -32 8s-23 12.333 -33 21c-16.667 15.333 -25 39.333 -25 72c0 10.667 1 21.667 3 33c1.33301 7.33301 5.33301 10.333 12 9s9.66699 -3.66602 9 -6.99902c-1.33301 -8.66699 -2 -17.5 -2 -26.5s1.66699 -19.167 5 -30.5
c5.33301 -20 21.666 -35.333 48.999 -46c9.33301 -3.33301 16.666 -5 21.999 -5s11.333 0.333008 18 1s14 1.33398 22 2.00098c36 8 73.667 32.667 113 74c64.667 68.667 106.667 147.334 126 236.001c6 26.667 9 47.667 9 63s-0.333008 25 -1 29
c-0.666992 30 -10.334 54.667 -29.001 74s-47.5 29 -86.5 29s-73 -18 -102 -54s-46.167 -76.333 -51.5 -121c-1.33301 -8 -2 -15.667 -2 -23z" />
    <glyph glyph-name="colon" unicode=":" horiz-adv-x="161" 
d="M155 41v-14.001c0 -4.66699 -3.66699 -12.334 -11 -23.001s-13 -16 -17 -16c-22 0 -33 5.33301 -33 16c0 5.33301 6.66699 13.333 20 24s22 16.834 26 18.501s7 2.83398 9 3.50098c4 1.33301 6 -1.66699 6 -9zM206 201.999l-0.000976562 -18
c0 -4.66699 -3.5 -12 -10.5 -22s-12.5 -15 -16.5 -15c-22.667 0 -34 5.33301 -34 16c0 2 4.66699 7.33301 14 16s16 14.667 20 18c8.66699 7.33301 15.334 11 20.001 11s7 -2 7 -6z" />
    <glyph glyph-name="semicolon" unicode=";" horiz-adv-x="166" 
d="M151 9c0 -13.333 -14.668 -37.332 -44.001 -71.999c-36 -46.667 -58.667 -70 -68 -70c-3.33301 0 -5 2.66699 -5 8c0 1.33301 9.33301 12.833 28 34.5s30.834 41.667 36.501 60s6.16699 31.5 1.5 39.5c-11.333 22 -3 33 25 33c7.33301 0 13.5 -3.83301 18.5 -11.5
s7.5 -14.834 7.5 -21.501zM205.999 202.001l-0.000976562 -18c0 -4.66699 -3.5 -12 -10.5 -22s-12.5 -15 -16.5 -15c-22.667 0 -34 5.33301 -34 16c0 2 4.66699 7.33301 14 16s16 14.667 20 18c8.66699 7.33301 15.334 11 20.001 11s7 -2 7 -6z" />
    <glyph glyph-name="less" unicode="&#x3c;" horiz-adv-x="379" 
d="M150 219c45.333 -85.333 71.333 -136.336 78 -153.003s10 -29.167 10 -37.5s-3.16699 -12.5 -9.5 -12.5s-12.833 5.66699 -19.5 17c-32.667 50 -70.667 96.333 -114 139c-10.667 10 -16 17.833 -16 23.5s1 9.83398 3 12.501s9.33301 9.83398 22 21.501l76 73.5
c70.667 68.667 131 123.667 181 165c4 3.33301 7.66699 5 11 5s5 -3.5 5 -10.5s-6 -17.833 -18 -32.5c-39.333 -45.333 -109 -115.666 -209 -210.999z" />
    <glyph glyph-name="equal" unicode="=" horiz-adv-x="539" 
d="M194 264l290.999 0.999023c36 0 54 -4 54 -12c0 -6.66699 -18 -12 -54 -16c-2 0 -102 -3 -300 -9c-16 -1.33301 -23.667 2.33398 -23 11.001s7.33398 16 20.001 22c4.66699 2 8.66699 3 12 3zM152.999 83.999c-12.667 0 -19 3.33496 -19 10.002
c0 10 7.33301 18.333 22 25l10 3h291c36 0 54 -4.33301 54 -13c0 -4.66699 -4 -7.83398 -12 -9.50098s-14.333 -2.83398 -19 -3.50098c-14 -2 -68.667 -4.33301 -164 -7s-146 -4.16699 -152 -4.5s-9.66699 -0.5 -11 -0.5z" />
    <glyph glyph-name="greater" unicode="&#x3e;" horiz-adv-x="397" 
d="M309 270c-58.667 108.667 -88 171.331 -88 187.998c0 6.66699 1.5 11 4.5 13s5.16699 3 6.5 3c6 0 12.333 -5.66699 19 -17c30 -47.333 67.667 -93.666 113 -138.999c3.33301 -4 6 -7.33301 8 -10c6 -6 9 -9.83301 9 -11.5v-6.5c0 -2.66699 -1.16699 -5.16699 -3.5 -7.5
l-5 -5c-1 -1 -3.5 -3.16699 -7.5 -6.5s-9.83301 -8.66602 -17.5 -15.999l-53.5 -51.5l-67 -64.5c-84.667 -80.667 -131 -121 -139 -121c-4 0 -6 3.33301 -6 10s6 17 18 31c29.333 36 99 106.333 209 211z" />
    <glyph glyph-name="question" unicode="?" horiz-adv-x="472" 
d="M199 490c-4 -4 -15.332 -17.999 -33.999 -41.999s-30.667 -36 -36 -36s-7.83301 8 -7.5 24s3.83301 33.333 10.5 52c11.333 25.333 30.666 40 57.999 44c7.33301 0.666992 19.666 5.33398 36.999 14.001c32 16.667 68.667 25 110 25l19 -1c23.333 -1.33301 44 -9 62 -23
c26.667 -20.667 40 -51.667 40 -93c0 -40 -15.667 -77.333 -47 -112c-32.667 -36 -71.667 -69.333 -117 -100c-59.333 -42 -91.666 -76 -96.999 -102c-1.33301 -6 -5.33301 -9 -12 -9s-9.5 5.16699 -8.5 15.5s7.33301 23.166 19 38.499s22.5 27.666 32.5 36.999
s27.5 24.833 52.5 46.5s44.333 39.834 58 54.501s26 34.667 37 60s16.5 52.166 16.5 80.499s-6.33301 50.5 -19 66.5s-29.667 24 -51 24c-36.667 0 -77.667 -21.333 -123 -64zM155.001 27.001c0 -4.66699 -3.66699 -12.332 -11 -22.999s-13 -16 -17 -16
c-22 0 -33 5.33301 -33 16c0 5.33301 10.667 16.666 32 33.999c10.667 8 18.667 12 24 12c3.33301 0 5 -2.66699 5 -8v-15z" />
    <glyph glyph-name="at" unicode="@" horiz-adv-x="752" 
d="M492 148c4.66699 -4 11.165 -6.00195 19.498 -6.00195s21.166 6.5 38.499 19.5s33.666 28.5 48.999 46.5c50.667 62 76 129 76 201c0 48 -19 86.333 -57 115s-87.667 43 -149 43c-66.667 0 -131.334 -18.333 -194.001 -55s-113.5 -85.667 -152.5 -147
s-58.5 -123.666 -58.5 -186.999s19.333 -114 58 -152c40 -38.667 101.667 -58 185 -58c50 0 107.333 14.167 172 42.5s112.334 59 143.001 92s53 62.667 67 89s21 47.833 21 64.5s-3.16699 28.5 -9.5 35.5s-7.66602 12 -3.99902 15s7.83398 2.16699 12.501 -2.5
c18.667 -18 28 -38.667 28 -62c0 -55.333 -23.667 -106.666 -71 -153.999c-38.667 -40 -93.667 -73 -165 -99s-136.666 -39 -195.999 -39c-95.333 0 -168 22.167 -218 66.5s-75 98.833 -75 163.5c0 53.333 13.167 105.833 39.5 157.5s60.666 96.334 102.999 134.001
s91.5 68.334 147.5 92.001s112.333 35.5 169 35.5h4c72 0 129.5 -17 172.5 -51s64.5 -79.833 64.5 -137.5s-28.333 -125.5 -85 -203.5c-42.667 -61.333 -89.667 -92 -141 -92h-2c-28 0 -46.333 13.333 -55 40c-2 8 -3 17 -3 27c0 31.333 6.66699 65.333 20 102
c-2.66699 -1.33301 -15.667 -15.5 -39 -42.5s-50 -52.667 -80 -77s-57.667 -36.5 -83 -36.5s-47 11.667 -65 35c-10 14.667 -15 28.667 -15 42c0 39.333 25.333 81.666 76 126.999c31.333 27.333 63.333 51 96 71s57.167 32.5 73.5 37.5s29.5 7.5 39.5 7.5
c33.333 0 57.333 -5 72 -15c12.667 -10 19 -19.667 19 -29c0 -7.33301 -2.66699 -9 -8 -5c-8 13.333 -25 20 -51 20s-55.5 -8.66699 -88.5 -26s-62.667 -38 -89 -62s-48.666 -51.333 -66.999 -82s-27.5 -52.667 -27.5 -66c0 -24.667 7.33301 -37 22 -37
c5.33301 0 14.333 3.16699 27 9.5s25.334 15.166 38.001 26.499c43.333 34 82 70.333 116 109c52.667 58.667 82.667 88 90 88s16.833 -2.16699 28.5 -6.5s15.5 -10.5 11.5 -18.5c-18 -26 -32.667 -53.5 -44 -82.5s-17.5 -49.833 -18.5 -62.5s-1.5 -21.667 -1.5 -27
c0 -16.667 4.66699 -28 14 -34z" />
    <glyph glyph-name="A" unicode="A" horiz-adv-x="849" 
d="M697 -25c-20.667 0 -35.6611 9.16797 -44.9941 27.501s-14 41.666 -14 69.999s6 67.166 18 116.499c-23.333 2 -63 6.66699 -119 14c-92.667 -114.667 -169.667 -194.334 -231 -239.001c-52.667 -39.333 -107.334 -59 -164.001 -59c-36 0 -66.833 9 -92.5 27
s-38.5 44.667 -38.5 80c0 6.66699 1.66699 12.834 5 18.501s6.66602 7.16699 9.99902 4.5s5 -10.334 5 -23.001c0 -22.667 8.83301 -39.667 26.5 -51s39.167 -17 64.5 -17c54.667 0 108.5 17.833 161.5 53.5s125.167 105.5 216.5 209.5c-98 12 -162.667 18 -194 18
c-84.667 0 -137 -27.667 -157 -83c-2.66699 -7.33301 -4 -14.166 -4 -20.499s1.33301 -12 4 -17s3.16699 -9 1.5 -12s-4.5 -4.33301 -8.5 -4s-7.33301 2.5 -10 6.5c-7.33301 12.667 -11 25 -11 37c0 41.333 7.5 71.833 22.5 91.5s32.5 32.167 52.5 37.5
c24 6.66699 52 10 84 10s112.667 -12.667 242 -38c36 41.333 90.667 107.833 164 199.5s110 138.167 110 139.5h1c0.666992 0.666992 2.33398 1.66699 5.00098 3c16 9.33301 33.333 14 52 14c6.66699 0 10 -3.33301 10 -10c0 -0.666992 -0.333008 -1.5 -1 -2.5
s-1.33398 -2.33301 -2.00098 -4s-1.33398 -3.16699 -2.00098 -4.5c-64 -106 -113.667 -225.333 -149 -358l-3 -7l25 -1c5.33301 -0.666992 14.833 -1 28.5 -1s28.167 3.16699 43.5 9.5s25.166 13.166 29.499 20.499s8.16602 9 11.499 5s3.66602 -8.33301 0.999023 -13
c-7.33301 -13.333 -20.333 -23 -39 -29c-16 -6.66699 -31.833 -10 -47.5 -10h-30.5l-27 1c-12.667 -58 -19 -104.167 -19 -138.5s9.33301 -51.5 28 -51.5c18 0 46 14.333 84 43s73.667 65.667 107 111c2 2.66699 4.66699 3.33398 8 2.00098s5 -3 5 -5s-0.5 -4.5 -1.5 -7.5
s-6.16699 -10.5 -15.5 -22.5c-28 -37.333 -62.333 -72.666 -103 -105.999c-29.333 -23.333 -62 -35 -98 -35zM752.006 478.001c0.666992 1.33301 1.5 3.16797 2.5 5.50098s1.83301 4.16602 2.5 5.49902c-83.333 -114 -150.333 -202 -201 -264l105 -17
c18.667 72.667 49 162.667 91 270z" />
    <glyph glyph-name="B" unicode="B" horiz-adv-x="654" 
d="M17 339l-2.00977 15.998c2.66699 28 18.834 55.667 48.501 83s67.167 53.333 112.5 78s117.333 45.334 216 62.001c56 8.66699 102.833 13 140.5 13s70.834 -3.16699 99.501 -9.5s52.334 -18.833 71.001 -37.5s28 -40.834 28 -66.501s-10.833 -49.834 -32.5 -72.501
s-48.834 -40 -81.501 -52c-63.333 -23.333 -124 -36.333 -182 -39c28.667 -17.333 52.334 -32.5 71.001 -45.5s38.667 -30.167 60 -51.5s35 -39.666 41 -54.999s9 -29 9 -41c0 -39.333 -15 -77 -45 -113c-20 -24.667 -47.833 -44.334 -83.5 -59.001s-73.5 -22 -113.5 -22
c-85.333 0 -132 30 -140 90c-1.33301 1.33301 -2 3.33301 -2 6c-25.333 -40.667 -46.333 -61 -63 -61c-4.66699 0 -12.167 1.16699 -22.5 3.5s-15.666 4.83301 -15.999 7.5s-0.5 8.33398 -0.5 17.001s6.33301 29.5 19 62.5s27 65.5 43 97.5l93 174c5.33301 12 8 21 8 27
s-0.333008 10.667 -1 14c2.66699 18.667 18.834 43.167 48.501 73.5s56.5 45.5 80.5 45.5c8 0 18.667 -3 32 -9s21.333 -14.333 24 -25c0.666992 -4.66699 0.833984 -7.5 0.500977 -8.5s-2.16602 -0.833008 -5.49902 0.5s-5.33301 2 -6 2
c-21.333 0 -46.833 -15.833 -76.5 -47.5s-58.167 -70.5 -85.5 -116.5c-56.667 -93.333 -97.334 -170 -122.001 -230c-5.33301 -13.333 -8 -23.666 -8 -30.999c0 -10 4.33301 -15 13 -15s20.334 9.16699 35.001 27.5s25 27.333 31 27s10.833 -2.16602 14.5 -5.49902
s6.16699 -6.83301 7.5 -10.5s2.33301 -8.83398 3 -15.501s1.33398 -11 2.00098 -13c10.667 -47.333 44.334 -71 101.001 -71h4c46 0 85.333 10.667 118 32c36 24 54 53.833 54 89.5s-16.667 73.167 -50 112.5c-10.667 12 -26.334 27 -47.001 45
c-44 38 -66.667 62.333 -68 73s3.16699 19.5 13.5 26.5s19.833 10.5 28.5 10.5c32.667 0 77.334 11.667 134.001 35c83.333 34 128 71.667 134 113v6c0 12 -5.33301 23.333 -16 34c-18 19.333 -56 29 -114 29c-79.333 0 -171.666 -14.333 -276.999 -43
c-64 -17.333 -120.333 -42 -169 -74c-53.333 -35.333 -80 -73 -80 -113c0 -8.66699 2.66699 -17.167 8 -25.5s11.5 -14.333 18.5 -18s16.167 -7.66699 27.5 -12s19.5 -7.66602 24.5 -9.99902s6.66699 -5.16602 5 -8.49902s-6.5 -4.33301 -14.5 -3
c-22 1.33301 -44 10.5 -66 27.5s-33 36.833 -33 59.5c0 3.33301 0.333008 6.66602 1 9.99902z" />
    <glyph glyph-name="C" unicode="C" horiz-adv-x="535" 
d="M558 504c0 37.333 -19.667 55.998 -59 55.998c-34 0 -78.167 -16 -132.5 -48s-110.166 -80.833 -167.499 -146.5s-97.333 -134.5 -120 -206.5c-9.33301 -28.667 -14 -55.167 -14 -79.5s7 -45.5 21 -63.5c24.667 -32 65 -48.333 121 -49h11c62 0 129 15.833 201 47.5
s129.667 78.167 173 139.5c3.33301 4.66699 6.83301 5.66699 10.5 3s5.5 -5 5.5 -7s-0.666992 -3.66699 -2 -5c-49.333 -67.333 -110 -118 -182 -152s-141.667 -51 -209 -51c-70.667 0 -124 20 -160 60c-23.333 26 -35 60 -35 102c0 70.667 26.667 146.667 80 228
c72.667 110.667 160.667 187.334 264 230.001c40 16 78.333 24 115 24c45.333 0 77.666 -10.667 96.999 -32c12.667 -14.667 19 -31.667 19 -51c0 -36.667 -19.333 -74.334 -58 -113.001s-81.5 -69.5 -128.5 -92.5s-87.833 -36.167 -122.5 -39.5
c-14 -1.33301 -20.667 2.33398 -20 11.001c0.666992 12 9 18.667 25 20c53.333 4.66699 102.333 20.834 147 48.501s79 64.5 103 110.5c11.333 18 17 36.667 17 56z" />
    <glyph glyph-name="D" unicode="D" horiz-adv-x="869" 
d="M81 309l-2.00391 15.998c0 46.667 20.333 88.334 61 125.001c72.667 64.667 190 104.667 352 120c24.667 2 53.5 3 86.5 3s74.833 -4.83301 125.5 -14.5s92.334 -27.5 125.001 -53.5c52 -42.667 78 -98.5 78 -167.5s-20.5 -132.667 -61.5 -191
s-93.167 -103.5 -156.5 -135.5s-131 -48 -203 -48s-130.333 17 -175 51c-0.666992 -0.666992 -3.83398 -6.33398 -9.50098 -17.001s-11.5 -21 -17.5 -31c-30.667 -48.667 -58 -55.334 -82 -20.001c-14 20.667 -21 45.334 -21 74.001s3 63.334 9 104.001
c0.666992 4 -2 13.333 -8 28c-2 6.66699 0.333008 13.334 7 20.001c5.33301 4 12.833 7.33301 22.5 10s16.334 2.66699 20.001 0s2.83398 -9.83398 -2.49902 -21.501s-8 -22.5 -8 -32.5s10.333 -24.833 31 -44.5s33.334 -30.167 38.001 -31.5c16 39.333 50 113 102 221
c6 12 9 21 9 27s-0.666992 10.667 -2 14c3.33301 19.333 24.5 50 63.5 92s70.5 63 94.5 63c9.33301 0 21 -3.16699 35 -9.5s22 -15.166 24 -26.499c0 -4 -0.333008 -6.16699 -1 -6.5s-2.33398 0.166992 -5.00098 1.5s-4.66699 2 -6 2c-21.333 0 -46.5 -15.5 -75.5 -46.5
s-57.833 -71.5 -86.5 -121.5c-50.667 -86.667 -91.334 -163.334 -122.001 -230.001c41.333 -30 86.333 -45 135 -45c63.333 0 124 16.333 182 49s104.667 70.334 140 113.001c57.333 70 86 139 86 207c0 50 -19.833 94.667 -59.5 134s-102.5 60.333 -188.5 63h-12
c-68 0 -139.667 -11.167 -215 -33.5s-139.666 -54.166 -192.999 -95.499s-80 -84.333 -80 -129c0 -11.333 3.5 -21.333 10.5 -30s14.333 -14.667 22 -18s17.334 -7 29.001 -11s19.334 -6.83301 23.001 -8.5s5.83398 -3.5 6.50098 -5.5
c1.33301 -5.33301 -3.33398 -8 -14.001 -8c-24.667 2 -49.5 11.167 -74.5 27.5s-37.5 35.5 -37.5 57.5c0 3.33301 0.333008 6.66602 1 9.99902zM215.996 89.998c0 -90 6.33398 -135 19.001 -135c9.33301 0 22.666 23.333 39.999 70c1.33301 2 2 3.33301 2 4
c-4.66699 4 -14.5 13.833 -29.5 29.5s-25.5 26.167 -31.5 31.5z" />
    <glyph glyph-name="E" unicode="E" horiz-adv-x="717" 
d="M573 509.5c4.66699 -0.333008 8.8291 -2.16602 12.4961 -5.49902s9.33398 -14.333 17.001 -33s11.5 -34.167 11.5 -46.5s-1.5 -25.333 -4.5 -39s-7.83301 -20.5 -14.5 -20.5c-11.333 0 -20.666 13.167 -27.999 39.5s-12.666 42.833 -15.999 49.5
c-18.667 39.333 -38.667 68 -60 86c-19.333 18 -39 27 -59 27c-8.66699 0 -17.334 -1.66699 -26.001 -5c-42.667 -18 -64 -60 -64 -126c0 -21.333 4 -46.5 12 -75.5s20.333 -54.5 37 -76.5c3.33301 -4 21 -7.33301 53 -10c16.667 -2 26.334 -7.83301 29.001 -17.5
s-1.33301 -17.167 -12 -22.5c-6 -7.33301 -29 -5.33301 -69 6c-10.667 2.66699 -17.667 4.33398 -21 5.00098c-36 -0.666992 -76.667 -8.66699 -122 -24s-87 -38.833 -125 -70.5s-57 -66.5 -57 -104.5c0 -28.667 11.667 -51.834 35 -69.501s60.833 -26.5 112.5 -26.5
s109.334 8 173.001 24s113.667 33.333 150 52s72.166 45 107.499 79s53 63.333 53 88c0 4 -0.166992 7.33301 -0.5 10s0.166992 4.33398 1.5 5.00098c4 2 7.33301 1.66699 10 -1c8.66699 -16.667 13 -29.667 13 -39c0 -27.333 -9 -52 -27 -74
c-31.333 -38 -66.666 -68 -105.999 -90s-93.166 -40.667 -161.499 -56s-125.166 -23 -170.499 -23s-83.833 4 -115.5 12s-59.167 24 -82.5 48s-35 53.5 -35 88.5s8.5 64.667 25.5 89s37.333 43.166 61 56.499s52.167 24.333 85.5 33
c49.333 13.333 104.333 21.666 165 24.999c-43.333 49.333 -69 106.333 -77 171c-0.666992 7.33301 -1 14.333 -1 21c0 24 5.83301 46.167 17.5 66.5s31.167 34.833 58.5 43.5s47.666 13 60.999 13s23.166 -0.833008 29.499 -2.5s11.833 -3.33398 16.5 -5.00098
s9.33398 -4 14.001 -7l12 -7.5c3.33301 -2 7.33301 -5.16699 12 -9.5s8 -7.33301 10 -9s5.66699 -5 11 -10s8.66602 -7.83301 9.99902 -8.5c10 -12 19.667 -19 29 -21c1.33301 -1.33301 4.33301 -2.16602 9 -2.49902z" />
    <glyph glyph-name="F" unicode="F" horiz-adv-x="530" 
d="M271 58c2 0 2.99902 -2.00293 2.99902 -6.00293s-4.66699 -10.667 -14 -20l-10 -15c-18 -27.333 -31.167 -43.333 -39.5 -48s-15 -7 -20 -7s-12.667 1.16699 -23 3.5s-15.666 4.83301 -15.999 7.5s-0.5 5.33398 -0.5 8.00098c0 32.667 29.667 106.334 89 221.001
c-16 -2 -28.167 -3 -36.5 -3s-15.333 2.5 -21 7.5s-8.5 11.5 -8.5 19.5s7 15.333 21 22s24.833 10 32.5 10s14.167 -3.16699 19.5 -9.5s8.66602 -9.5 9.99902 -9.5h3l38 70c11.333 21.333 17 35.166 17 41.499s-1 11.166 -3 14.499c4 19.333 20.5 44 49.5 74
s55.5 45 79.5 45c10.667 0 23.667 -4.16699 39 -12.5s22 -19.166 20 -32.499c-4.66699 3.33301 -9 5 -13 5c-45.333 0 -107.666 -68 -186.999 -204c22 2 45 5 69 9c80 10 125.333 15 136 15s17.5 -0.166992 20.5 -0.5s5.66699 -1.16602 8 -2.49902
s3.83301 -2.66602 4.5 -3.99902c0.666992 -4 -7 -8.66699 -23 -14c-38.667 -12.667 -117 -25.334 -235 -38.001c-56 -101.333 -84 -163.666 -84 -186.999c0 -11.333 4.83301 -15.5 14.5 -12.5s18.167 9.16699 25.5 18.5c17.333 22.667 29 34 35 34zM661.999 533.997
c19.333 21.333 37.667 32.0029 55 32.0029c8 0 14.333 -2 19 -6s7 -8 7 -12s-2 -8 -6 -12s-11.667 -10.167 -23 -18.5s-20.333 -15.833 -27 -22.5c-32 -31.333 -48 -58.333 -48 -81c0 -10 2.16699 -18.333 6.5 -25s3.83301 -10.834 -1.5 -12.501s-10.333 0.5 -15 6.5
c-6 4 -9 17.333 -9 40c0 30 5.33301 55 16 75c1.33301 2 3.5 5.5 6.5 10.5s5.5 8.5 7.5 10.5h-37.5c-20.333 0 -60.666 2.66699 -120.999 8s-105.833 8 -136.5 8s-54.334 -2 -71.001 -6c-63.333 -8.66699 -117.833 -26.167 -163.5 -52.5s-72.834 -59.5 -81.501 -99.5
c-1.33301 -4 -2 -8.83301 -2 -14.5s1.83301 -12.5 5.5 -20.5s8.16699 -14.333 13.5 -19s13.5 -10.334 24.5 -17.001s18.333 -11.5 22 -14.5s4.33398 -5.5 2.00098 -7.5s-4.66602 -3 -6.99902 -3s-4.83301 0.333008 -7.5 1c-22.667 6.66699 -41.834 19.167 -57.501 37.5
s-23.5 33.666 -23.5 45.999s1.66699 22.833 5 31.5c0 7.33301 0.333008 12.666 1 15.999c10 47.333 40.333 84 91 110c60.667 31.333 134.667 47 222 47c48 0 107 -5.66699 177 -17s122.333 -17.666 157 -18.999z" />
    <glyph glyph-name="G" unicode="G" horiz-adv-x="799" 
d="M337 -3c-20.667 -4 -41.3311 -5.99902 -61.998 -5.99902c-67.333 0 -120.666 21.667 -159.999 65c-27.333 30.667 -41 69.667 -41 117c0 102 46 195.333 138 280c102.667 91.333 227.667 137 375 137c42 0 78.333 -8 109 -24c24.667 -13.333 37 -33.333 37 -60
c0 -11.333 -3.33301 -17.666 -10 -18.999c-8.66699 -2 -13.334 3 -14.001 15c-2.66699 44 -36.667 66 -102 66c-29.333 0 -65.5 -7.16699 -108.5 -21.5s-87.5 -34.833 -133.5 -61.5s-89 -56.167 -129 -88.5s-72.833 -68.833 -98.5 -109.5s-38.5 -81.334 -38.5 -122.001
s14.167 -71.834 42.5 -93.501s63.166 -32.5 104.499 -32.5c45.333 0 98 8 158 24c33.333 10 65 24.167 95 42.5s53 34.5 69 48.5c30 25.333 60.333 53.333 91 84c16 40.667 42.333 64.334 79 71.001c15.333 2.66699 32 2.66699 50 0l12 -2c6 -1.33301 9 -3 9 -5
c0 -6.66699 -4.33301 -9.66699 -13 -9h-2c-36 0 -65.667 -33.667 -89 -101c-18 -54 -35 -102.333 -51 -145c35.333 8 58.666 12 69.999 12s19.333 -1.33301 24 -4s5.5 -5.66699 2.5 -9s-6 -4.33301 -9 -3s-8.33301 2 -16 2s-22.667 -2.83301 -45 -8.5
s-35.5 -13.834 -39.5 -24.501c-66.667 -168.667 -147.334 -286 -242.001 -352c-42.667 -29.333 -80.667 -44 -114 -44c-12.667 0 -24.667 2 -36 6c-30.667 11.333 -46 34 -46 68c0 40.667 21 85 63 133c81.333 94 192.333 163.667 333 209c17.333 52.667 33.333 105 48 157
c-119.333 -112.667 -222.666 -176.667 -309.999 -192zM257.003 -295.999c0 -7.33301 0.999023 -14.668 2.99902 -22.001c6.66699 -26 23.334 -39 50.001 -39c39.333 0 80.666 26.333 123.999 79c64.667 80.667 117.334 177.667 158.001 291
c-116.667 -38 -209 -99.667 -277 -185c-38.667 -47.333 -58 -88.666 -58 -123.999z" />
    <glyph glyph-name="H" unicode="H" horiz-adv-x="751" 
d="M590 219l-247.998 32.999c-101.333 -230 -199.666 -359.667 -294.999 -389c-17.333 -6 -32.666 -9 -45.999 -9c-50 0 -80.667 21 -92 63c-0.666992 2.66699 -1 5.5 -1 8.5s0.5 6.66699 1.5 11s3.16699 5.83301 6.5 4.5s6.66602 -7.66602 9.99902 -18.999
c6 -19.333 18.667 -31.666 38 -36.999c14.667 -2.66699 27.5 -4 38.5 -4s20.5 1.33301 28.5 4c97.333 30.667 188.333 154.667 273 372l-53 3c-9.33301 0.666992 -18 1 -26 1c-84.667 0 -136.667 -27.333 -156 -82c-3.33301 -7.33301 -5 -14.333 -5 -21s2 -13.334 6 -20.001
s2.83301 -10.834 -3.5 -12.501s-11.5 0.5 -15.5 6.5c-7.33301 13.333 -11 25.666 -11 36.999c0 40.667 7.5 70.834 22.5 90.501s32.5 32.5 52.5 38.5c24 6.66699 50.667 10 80 10l61 -6c21.333 -2 41.666 -5 60.999 -9c16 42.667 35.333 100 58 172
c-35.333 -31.333 -78.666 -49.666 -129.999 -54.999c-6.66699 -0.666992 -10.167 1.66602 -10.5 6.99902s3.5 8.66602 11.5 9.99902c28.667 2.66699 58.167 17.334 88.5 44.001s53.5 58 69.5 94c1.33301 8 12.333 12 33 12s30.667 -4 30 -12l-44.5 -115.5
c-25.667 -67 -47.834 -121.833 -66.501 -164.5c17.333 -3.33301 42.666 -9 75.999 -17c68 -15.333 123 -25.333 165 -30c38.667 82 62.834 134.5 72.501 157.5s14.5 37.5 14.5 43.5s-1 10.667 -3 14c2 18.667 16.5 43.167 43.5 73.5s52.5 45.5 76.5 45.5
c10.667 0 23.5 -3.83301 38.5 -11.5s22.5 -17.5 22.5 -29.5c0 -2.66699 -1.66699 -3 -5 -1s-5.66602 3 -6.99902 3c-16.667 0 -36 -11.833 -58 -35.5s-43.667 -54.167 -65 -91.5c-32.667 -58 -61.667 -115.333 -87 -172c57.333 0 95.666 12 114.999 36
c3.33301 6 6.66602 6.83301 9.99902 2.5s2.16602 -10.666 -3.50098 -18.999s-18.167 -16.5 -37.5 -24.5s-50 -12 -92 -12c-31.333 -74 -47 -132 -47 -174c0 -32.667 9.5 -49 28.5 -49s47.333 14.667 85 44s73.167 66.333 106.5 111c2 2.66699 5 3.16699 9 1.5
s5.16699 -4.66699 3.5 -9s-6.83398 -12.833 -15.501 -25.5c-28 -38 -62.333 -73.333 -103 -106c-30 -23.333 -62.667 -35 -98 -35c-18 0 -31.833 5.33301 -41.5 16s-15 20.667 -16 30s-1.5 18 -1.5 26s1.33301 20.333 4 37c6.66699 42.667 21.334 87.667 44.001 135z" />
    <glyph glyph-name="I" unicode="I" horiz-adv-x="430" 
d="M196 408c0 -10.667 2.83203 -19.9941 8.49902 -27.9941s10.834 -13.667 15.501 -17c9.33301 -6 21.333 -12.667 36 -20c8 -6 9.66699 -9.66699 5 -11c-2 0 -4.33301 0.333008 -7 1c-16 3.33301 -33 13 -51 29s-27.333 34.333 -28 55c-2 7.33301 -3 13.666 -3 18.999
c0 28.667 12 53.667 36 75c44.667 38 115.667 57 213 57c0 2.66699 1 6 3 10c1.33301 8 11.666 12 30.999 12c16.667 0 24.667 -4 24 -12c-2.66699 -5.33301 -4.33398 -9.66602 -5.00098 -12.999c42.667 -2.66699 78.334 -11.334 107.001 -26.001
c9.33301 -4.66699 16.166 -10.334 20.499 -17.001s6.5 -11.334 6.5 -14.001c0 -6 -12.167 -4.83301 -36.5 3.5s-61.5 12.5 -111.5 12.5c-3.33301 -14 -14.833 -49.333 -34.5 -106s-32.167 -91.834 -37.5 -105.501l-22 -57c-9.33301 -24.333 -17.666 -44.166 -24.999 -59.499
l-25 -52c-16 -32.667 -35 -63.334 -57 -92.001c-16.667 -19.333 -29.334 -32.333 -38.001 -39h66c32.667 0 61.334 0.833008 86.001 2.5s38.167 1.5 40.5 -0.5s2.5 -4.33301 0.5 -7c-4 -6.66699 -9.33301 -11.834 -16 -15.501s-55.667 -6.83398 -147 -9.50098
s-148.333 -4 -171 -4h-49c-15.333 0.666992 -23 6.66699 -23 18c0 6 2 14.333 6 25c4.66699 10.667 13.834 17.5 27.501 20.5s25.834 0.166992 36.501 -8.5c18 -14.667 35.667 -22 53 -22s35.166 3.33301 53.499 10s36.833 22 55.5 46c54 72 110.667 223.667 170 455
c-61.333 -5.33301 -112.333 -17.833 -153 -37.5s-61 -45.5 -61 -77.5z" />
    <glyph glyph-name="J" unicode="J" horiz-adv-x="574" 
d="M217 494c26 32.667 71.9971 55.0039 137.997 67.0039c28.667 4.66699 58 7 88 7s61 -2.66699 93 -8c17.333 19.333 35 29 53 29c4.66699 0 7.83398 -1.16699 9.50098 -3.5s1.5 -4.83301 -0.5 -7.5s-6.5 -5.16699 -13.5 -7.5s-15.167 -7.5 -24.5 -15.5
c22.667 -6.66699 38.334 -12.167 47.001 -16.5s15.167 -9.83301 19.5 -16.5s6.5 -11.334 6.5 -14.001c0 -6 -9.16699 -6 -27.5 0s-39.833 10.667 -64.5 14c-12 -28.667 -24.667 -68 -38 -118l-24 -90c36 8.66699 60.167 13 72.5 13s19.833 -0.833008 22.5 -2.5
s4.16699 -3.83398 4.5 -6.50098s-0.166992 -4.83398 -1.5 -6.50098s-3.5 -1.83398 -6.5 -0.500977s-8.5 2 -16.5 2s-23 -2.83301 -45 -8.5s-35 -14.167 -39 -25.5c-61.333 -168.667 -139.333 -286 -234 -352c-42 -30 -80.333 -45 -115 -45c-12.667 0 -24.667 2 -36 6
c-34 11.333 -51 36.5 -51 75.5s20.333 81.833 61 128.5c82 94 192.667 163 332 207l19 59c23.333 76 45 131.333 65 166h-36c-16 0 -38.667 -1.66699 -68 -5c-75.333 -8.66699 -129 -27.667 -161 -57c-16.667 -16 -25 -34.333 -25 -55c0 -10 2.83301 -19 8.5 -27
s11.167 -13.667 16.5 -17c8.66699 -6 20.334 -12.667 35.001 -20c8 -6 9.66699 -9.66699 5 -11c-2 0 -4.33301 0.333008 -7 1c-16 3.33301 -33 13 -51 29s-27.333 34.333 -28 55c-2 7.33301 -3 13.333 -3 18c0 22 6.66699 41.667 20 59zM85.9971 -28.9961
c0 -7.33301 0.666992 -14.668 2 -22.001c6.66699 -25.333 23.334 -38 50.001 -38c39.333 0 80.666 26.333 123.999 79c64 78 117 174.667 159 290c-116.667 -38 -209 -99.667 -277 -185c-38.667 -47.333 -58 -88.666 -58 -123.999z" />
    <glyph glyph-name="K" unicode="K" horiz-adv-x="559" 
d="M334 565l-49 -124.003c-46.667 -120 -84.667 -209.667 -114 -269c19.333 24 49.333 58 90 102v14.5c0 6.33301 0.333008 14.5 1 24.5c2 7.33301 5.33301 12.833 10 16.5s8.66699 0.166992 12 -10.5c0 -3.33301 0.666992 -8.33301 2 -15l1 3
c16.667 18.667 72 67.334 166 146.001s150 122.167 168 130.5s33.167 12.5 45.5 12.5s20.833 -2.83301 25.5 -8.5s7 -11.334 7 -17.001s-2.83301 -11 -8.5 -16s-12.667 -9.5 -21 -13.5s-34.333 -18.333 -78 -43s-83.5 -49 -119.5 -73
c-86.667 -58.667 -146.667 -106.334 -180 -143.001c15.333 -55.333 30.666 -99 45.999 -131s39.5 -68.167 72.5 -108.5s63.167 -60.5 90.5 -60.5c11.333 0 19.333 3 24 9s6.33398 13.667 5.00098 23c-4 18.667 -10 33.834 -18 45.501s-8.83301 17.5 -2.5 17.5
s12.333 -2.83301 18 -8.5s11 -14 16 -25s7.5 -20.5 7.5 -28.5c-0.666992 -18.667 -9.66699 -33.334 -27 -44.001s-34 -16 -50 -16c-30 0 -57.333 8.83301 -82 26.5s-45.334 41.834 -62.001 72.501c-30 56 -51.667 120.667 -65 194c-74.667 -87.333 -126 -150.333 -154 -189
c-68.667 -111.333 -134.334 -176.666 -197.001 -195.999c-18 -6 -33.667 -9 -47 -9c-49.333 0 -80 21 -92 63c-0.666992 2.66699 -1 5.5 -1 8.5s0.5 6.66699 1.5 11s3.16699 5.83301 6.5 4.5s6.66602 -7.66602 9.99902 -18.999c6.66699 -20 19.334 -32.333 38.001 -37
c14.667 -2.66699 27.5 -4 38.5 -4s20.5 1.33301 28.5 4c68.667 22 135.334 92 200.001 210c52 98 100 221.333 144 370c-35.333 -31.333 -78.666 -49.666 -129.999 -54.999c-4.66699 0 -8 1.16699 -10 3.5s-2 5 0 8s5.33301 4.83301 10 5.5
c28.667 2.66699 58.5 17.5 89.5 44.5s54.167 58.167 69.5 93.5c2 8.66699 13.5 13 34.5 13s30.833 -4.33301 29.5 -13z" />
    <glyph glyph-name="L" unicode="L" horiz-adv-x="514" 
d="M38 54l66.9922 -6.00391c14.667 0 25.834 1.5 33.501 4.5s13.334 3.83301 17.001 2.5s2.83398 -3.83301 -2.49902 -7.5s-14.166 -6.5 -26.499 -8.5s-19.833 -3.66699 -22.5 -5c10.667 -4 22.334 -9.66699 35.001 -17l53 -33c16 37.333 27.333 66.666 34 87.999
c-4 -2 -9.33301 -3.5 -16 -4.5s-10 0.833008 -10 5.5s4 8.33398 12 11.001l22 6c10.667 30.667 22.5 67.834 35.5 111.501s19.5 65.834 19.5 66.501c40 128 74.667 208.667 104 242s56.333 55 81 65s43.334 15 56.001 15c35.333 0 63.333 -14 84 -42
c14 -19.333 21 -43.666 21 -72.999c0 -55.333 -18.833 -110.333 -56.5 -165s-83.167 -100.834 -136.5 -138.501s-108.666 -66.5 -165.999 -86.5c-20 -47.333 -39 -86.333 -57 -117c102 -65.333 174.333 -105 217 -119c49.333 -16.667 96.333 -25 141 -25
c48.667 0 89 13.333 121 40c16.667 13.333 25 27.333 25 42s-2.83301 27.667 -8.5 39s-5.16699 17.5 1.5 18.5s12 -2.5 16 -10.5c10 -22 15 -44.667 15 -68v-12c-0.666992 -25.333 -12.334 -47.666 -35.001 -66.999c-26.667 -22.667 -67.667 -34 -123 -34
c-37.333 0 -70.166 5 -98.499 15s-50.666 18.167 -66.999 24.5s-36.666 17.333 -60.999 33l-51.5 33.5c-20 13.333 -54 38 -102 74c-34.667 -60 -65.334 -90 -92.001 -90c-6.66699 0 -10.667 1.16699 -12 3.5s-1.16602 4.5 0.500977 6.5s3.5 3 5.5 3c22 2 46.667 33 74 93
c-37.333 24.667 -68.666 41.334 -93.999 50.001c-22.667 -9.33301 -38.334 -14 -47.001 -14s-14.334 0.333008 -17.001 1c-11.333 4 -17 11 -17 21c0 14 8.66699 23.333 26 28h2zM593.992 493.996c0 50.667 -19.002 75.998 -57.002 75.998c-34 0 -63 -17.333 -87 -52
c-26.667 -37.333 -46 -72.166 -58 -104.499l-26 -71.5c-13.333 -37.333 -23.666 -71.333 -30.999 -102c-22 -61.333 -38 -103.666 -48 -126.999c76.667 34.667 142.834 81.667 198.501 141s90.5 126.333 104.5 201c2.66699 14 4 27 4 39z" />
    <glyph glyph-name="M" unicode="M" horiz-adv-x="1096" 
d="M212 81c-60 -112.667 -116.671 -169.004 -170.004 -169.004c-34 0 -51 17.333 -51 52c0 20.667 8 43.667 24 69c27.333 42.667 69.833 95.167 127.5 157.5s106.5 111.833 146.5 148.5l38 129c-33.333 -31.333 -76.666 -49.666 -129.999 -54.999
c-6.66699 -0.666992 -10.167 1.33301 -10.5 6s2.5 7.66699 8.5 9l4 1c28.667 2.66699 58.167 17.667 88.5 45s53.166 58.666 68.499 93.999c2.66699 8.66699 14.334 12.834 35.001 12.501s30.667 -4.5 30 -12.5l-69 -171c90.667 76.667 155.667 116 195 118h14
c52.667 0 89 -17.333 109 -52c17.333 -29.333 26 -63.666 26 -102.999c0 -58.667 -18 -142.667 -54 -252c-6 -19.333 -8.5 -29.166 -7.5 -29.499s2.83301 1.66699 5.5 6l12.5 19.5c5.66699 8.66699 19.167 30.667 40.5 66c76.667 128.667 154.667 236 234 322
c26 27.333 52 41 78 41c15.333 0 27 -5.33301 35 -16s12 -22.334 12 -35.001s-2.83301 -30.334 -8.5 -53.001s-22.834 -70 -51.501 -142c-35.333 -88 -53 -160 -53 -216c0 -43.333 12 -65 36 -65c17.333 0 40.333 11 69 33c44 36.667 79.333 73 106 109
c3.33301 4.66699 6.5 5.66699 9.5 3s4.5 -4.83398 4.5 -6.50098s-0.666992 -3.16699 -2 -4.5c-12.667 -20 -32.667 -44 -60 -72c-44.667 -47.333 -80.667 -75.333 -108 -84c-13.333 -4.66699 -26.333 -7 -39 -7c-44 0.666992 -66 32.334 -66 95.001
c0 32.667 4 64.334 12 95.001s14.5 54.334 19.5 71.001s11.5 36.167 19.5 58.5s14.667 39.5 20 51.5c17.333 43.333 28 70.333 32 81s6 19.834 6 27.501s-2 13 -6 16s-9.33301 4.5 -16 4.5s-17 -6 -31 -18c-51.333 -44 -109.166 -113.333 -173.499 -208
s-109.5 -169 -135.5 -223c-5.33301 -11.333 -10.666 -17 -15.999 -17s-11 4.83301 -17 14.5s-9 16.667 -9 21s0.333008 7.16602 1 8.49902c17.333 44 29.833 91 37.5 141s11.5 91 11.5 123c0 112.667 -24.333 169 -73 169c-45.333 0 -127.666 -54.667 -246.999 -164
c-6 -17.333 -19 -48.666 -39 -93.999c-27.333 -59.333 -51.666 -109 -72.999 -149zM44.9961 -54.0039c41.333 0 92 57.666 152 172.999c33.333 64 57.333 116 72 156c-35.333 -33.333 -74.333 -74.166 -117 -122.499s-73 -84.5 -91 -108.5
c-23.333 -31.333 -35 -55.5 -35 -72.5s6.33301 -25.5 19 -25.5z" />
    <glyph glyph-name="N" unicode="N" horiz-adv-x="785" 
d="M815 433c-16 0 -37.334 11.6689 -64.001 35.002c0.666992 -10 1 -20.333 1 -31c0 -53.333 -10.667 -118.333 -32 -195s-53.5 -147.334 -96.5 -212.001s-86.833 -97 -131.5 -97c-37.333 0 -69.5 14.667 -96.5 44s-47.5 67.666 -61.5 114.999c-25.333 90 -38 187 -38 291
c-46 -120.667 -90 -220 -132 -298c-70.667 -125.333 -138.667 -198 -204 -218c-16.667 -5.33301 -31.667 -8 -45 -8s-25 1.33301 -35 4c-27.333 9.33301 -44.333 28 -51 56c-0.666992 3.33301 -1 6.33301 -1 9s0.333008 6 1 10s2.66699 5.16699 6 3.5
s6.66602 -7.83398 9.99902 -18.501c4.66699 -18 16.334 -29.333 35.001 -34c11.333 -3.33301 22.333 -5 33 -5s21 1.66699 31 5c64 20 127.333 87 190 201c43.333 83.333 87.333 200.666 132 351.999c-36.667 -33.333 -80 -51.666 -130 -54.999
c-6.66699 -0.666992 -10.167 1.66602 -10.5 6.99902s3.5 8.66602 11.5 9.99902c28.667 2.66699 58.334 17.667 89.001 45s53.667 58.666 69 93.999c2.66699 8.66699 14.334 12.834 35.001 12.501s30.667 -4.5 30 -12.5c-2.66699 -7.33301 -5.66699 -25 -9 -53
s-5 -55.667 -5 -83c0 -117.333 18.333 -227.666 55 -330.999c26 -72.667 59 -109 99 -109s77.333 35 112 105s58.5 139.333 71.5 208s19.5 116.834 19.5 144.501s-1.33301 48.334 -4 62.001s-11.667 42.834 -27 87.501c-0.666992 2 1.66602 5.5 6.99902 10.5
s9.33301 7.83301 12 8.5c12.667 0 24.5 -7.66699 35.5 -23s22.167 -33.333 33.5 -54c19.333 -37.333 37.333 -56 54 -56l12 3c6 0 9.66699 -3.33301 11 -10c0 -5.33301 -2.33301 -9.83301 -7 -13.5s-9.66699 -5.83398 -15 -6.50098z" />
    <glyph glyph-name="O" unicode="O" horiz-adv-x="706" 
d="M717 337c0 -99.333 -34.332 -188.17 -102.999 -266.503s-145 -127.166 -229 -146.499c-24.667 -6 -48.334 -9 -71.001 -9c-62 0 -113.333 23 -154 69s-61 104 -61 174c0 92.667 31.667 169.334 95 230.001c40 38.667 89 65 147 79c17.333 3.33301 33.333 5 48 5
c33.333 0 57.666 -7.83301 72.999 -23.5s19.666 -23.5 12.999 -23.5l-16 8c-14 5.33301 -26.167 8 -36.5 8s-19.166 -1 -26.499 -3c-80 -18.667 -144.667 -66.667 -194 -144c-38 -60 -57 -120.333 -57 -181c0 -83.333 30.333 -137.333 91 -162
c20 -8.66699 41.833 -13 65.5 -13s47.834 3 72.501 9c44.667 10 90 37.833 136 83.5s83.667 99.5 113 161.5s44 120 44 174c0 70.667 -21 123.334 -63 158.001c-35.333 28 -81.666 42 -138.999 42c-8.66699 0 -18 -0.333008 -28 -1c-74 -4.66699 -142.333 -29.667 -205 -75
c-46 -32 -84.667 -71.667 -116 -119s-48.666 -94.333 -51.999 -141c-0.666992 -10.667 -3.83398 -13.167 -9.50098 -7.5s-8.5 14.167 -8.5 25.5c0 48 14.167 95.167 42.5 141.5s66.166 86.5 113.499 120.5c33.333 24 71.5 43.167 114.5 57.5s84.167 21.833 123.5 22.5
c82 0 148.667 -22.333 200 -67s77 -106.667 77 -186z" />
    <glyph glyph-name="P" unicode="P" horiz-adv-x="539" 
d="M187 4c8.66699 0 20.3281 9.16699 34.9951 27.5s24.667 27.166 30 26.499c4 -4 -0.333008 -12.667 -13 -26c-1.33301 -1.33301 -3.66602 -4.83301 -6.99902 -10.5s-6.16602 -10.167 -8.49902 -13.5l-9.5 -13c-4 -5.33301 -7.66699 -9.66602 -11 -12.999
s-7 -6.66602 -11 -9.99902c-8 -6.66699 -15 -10 -21 -10s-14.167 1.16699 -24.5 3.5s-15.666 4.83301 -15.999 7.5s-0.5 5 -0.5 7c0 34.667 28.333 105.667 85 213c-8.66699 0 -15.5 0.333008 -20.5 1s-8 3.33398 -9 8.00098s0.333008 7.33398 4 8.00098
s7.5 0.666992 11.5 0s11 -1 21 -1c34 61.333 54.333 98.833 61 112.5s10 23.5 10 29.5s-0.333008 10.667 -1 14c2.66699 18.667 18.834 43.167 48.501 73.5s56.5 45.5 80.5 45.5c8 0 18.833 -3 32.5 -9s21.5 -12.833 23.5 -20.5s2.5 -12 1.5 -13
s-3.16699 -0.833008 -6.5 0.5s-5.33301 2 -6 2c-48 0 -116.333 -78.333 -205 -235c72.667 3.33301 147.167 17.833 223.5 43.5s134.833 59.5 175.5 101.5c23.333 22.667 35 46.667 35 72c0 74.667 -76.333 112 -229 112c-87.333 0 -170.666 -13.333 -249.999 -40
c-41.333 -14.667 -76.5 -34.334 -105.5 -59.001s-46.167 -52.667 -51.5 -84c-0.666992 -3.33301 -1 -7.66602 -1 -12.999s2.16699 -11.833 6.5 -19.5s9.5 -13.5 15.5 -17.5s14.5 -8.66699 25.5 -14s18.333 -9.33301 22 -12s4.5 -5.5 2.5 -8.5s-6.33301 -3.83301 -13 -2.5
c-20.667 3.33301 -40 13.666 -58 30.999s-27 36 -27 56c0 6 0.666992 12 2 18c-1.33301 8.66699 -2 14 -2 16c9.33301 50 58.333 97.667 147 143c70 32.667 152.667 49 248 49c58.667 0 116.667 -8 174 -24c38.667 -13.333 68 -32.333 88 -57s30 -49.667 30 -75
c0 -38.667 -15.333 -72.834 -46 -102.501s-65 -52.5 -103 -68.5c-90 -38.667 -196 -59.334 -318 -62.001c-26 -48 -45.5 -87 -58.5 -117s-19.5 -49.333 -19.5 -58s4.33301 -13 13 -13z" />
    <glyph glyph-name="Q" unicode="Q" horiz-adv-x="670" 
d="M686 327c9.33301 40 13.9971 77.8398 13.9971 113.507s-8.5 66 -25.5 91s-41.167 38.833 -72.5 41.5c-10 0.666992 -15.167 2.66699 -15.5 6s1.83398 6 6.50098 8s9.33398 2.66699 14.001 2c46 -6.66699 78.833 -26.5 98.5 -59.5s29.5 -72.167 29.5 -117.5
c0 -89.333 -31.167 -178.333 -93.5 -267s-134.166 -148 -215.499 -178c98 -63.333 170 -102.333 216 -117c48.667 -16 93.334 -24 134.001 -24c51.333 0 93.333 13 126 39c17.333 13.333 26 27.5 26 42.5s-3.16699 28.167 -9.5 39.5s-5.83301 17.166 1.5 17.499
s12.666 -3.16699 15.999 -10.5c10.667 -20.667 16 -47.334 16 -80.001c-1.33301 -24.667 -13.333 -46.834 -36 -66.501s-53 -30.834 -91 -33.501c-9.33301 -0.666992 -21.166 -1 -35.499 -1s-33.5 2.16699 -57.5 6.5s-46.667 10.166 -68 17.499s-46.333 19.166 -75 35.499
s-50 29.333 -64 39l-64.5 46.5l-56.5 41c-28 -7.33301 -48.667 -11 -62 -11h-22c-80.667 0 -146.667 21.667 -198 65s-77 103.333 -77 180c0 96 34.333 181.833 103 257.5s145 122.834 229 141.501c24 5.33301 44.667 8 62 8c50 0 91.667 -14.667 125 -44
c41.333 -36.667 62 -90.334 62 -161.001c0 -69.333 -20.333 -135.333 -61 -198c-62 -94 -144.667 -150 -248 -168c0.666992 -0.666992 9.66699 -4.33398 27 -11.001l53 -33c68.667 22 129.167 65 181.5 129s88.166 135 107.499 213zM233.997 55.0068l73 -6.00195
c79.333 23.333 145.833 74.833 199.5 154.5s80.5 155.5 80.5 227.5s-26 118 -78 138c-16.667 6 -35 9 -55 9s-41.333 -2.66699 -64 -8c-70 -16 -136.667 -67.333 -200 -154s-95 -170.334 -95 -251.001c0 -68.667 21.667 -119.667 65 -153c35.333 -27.333 81 -41 137 -41
c29.333 0 55.333 2.66699 78 8c-24 16.667 -50 30 -78 40c-30 -8 -48.167 -12 -54.5 -12h-11.5c-10.667 0.666992 -18.167 4.83398 -22.5 12.501s-4 15.334 1 23.001s13.167 11.834 24.5 12.501z" />
    <glyph glyph-name="R" unicode="R" horiz-adv-x="539" 
d="M34 373c-1.33301 8.66699 -2.00586 13.998 -2.00586 15.998c9.33301 50 58.333 97.667 147 143c70 32.667 152.667 49 248 49c58.667 0 116.667 -8 174 -24c38.667 -13.333 68 -32.333 88 -57s30 -49.667 30 -75c0 -38.667 -15.333 -72.834 -46 -102.501
s-65 -52.5 -103 -68.5c-84.667 -36.667 -181.334 -57 -290.001 -61l42 -52.5l44 -54.5l43.5 -50.5c19 -21.667 35 -38.334 48 -50.001s29.5 -25.667 49.5 -42s39 -29.166 57 -38.499c62.667 -33.333 117.334 -50 164.001 -50l34 3c22.667 4 40.667 13.167 54 27.5
s20 30.166 20 47.499c0 6.66699 -0.833008 13.834 -2.5 21.501s0.5 11.5 6.5 11.5c6.66699 -0.666992 11.167 -5.5 13.5 -14.5s3.5 -20.167 3.5 -33.5s-3.33301 -28.666 -10 -45.999c-7.33301 -24 -27.666 -42.333 -60.999 -55c-21.333 -8 -41.333 -12 -60 -12
c-56 0 -112.667 15.667 -170 47c-38 21.333 -72.167 47.833 -102.5 79.5s-55.666 60.167 -75.999 85.5s-43 56.833 -68 94.5s-42.5 62.834 -52.5 75.501l-7 1c-50.667 -93.333 -76 -149.666 -76 -168.999c0 -10 4.33301 -15 13 -15s20.334 9.16699 35.001 27.5
s24.667 27.166 30 26.499c4 -4 -0.333008 -12.667 -13 -26c-1.33301 -1.33301 -3.66602 -4.83301 -6.99902 -10.5s-6.16602 -10.167 -8.49902 -13.5l-9.5 -13c-4 -5.33301 -7.66699 -9.66602 -11 -12.999s-7 -6.66602 -11 -9.99902c-8 -6.66699 -15 -10 -21 -10
s-14.333 1.16699 -25 3.5s-16 6.83301 -16 13.5c0 30 27.333 99.667 82 209c-22 2 -33 10 -33 24c0 2.66699 0.333008 6 1 10c4.66699 11.333 13.167 17 25.5 17s22.166 -3 29.499 -9c5.33301 10.667 11.666 22.667 18.999 36c26 46.667 39 76.334 39 89.001
c0 3.33301 -0.333008 6.66602 -1 9.99902c2.66699 18.667 18.834 43.167 48.501 73.5s56.5 45.5 80.5 45.5c8 0 18.667 -3 32 -9s21.333 -14.333 24 -25c0.666992 -4.66699 0.833984 -7.5 0.500977 -8.5s-2.16602 -0.833008 -5.49902 0.5s-5.33301 2 -6 2
c-46.667 0 -113.334 -75.667 -200.001 -227c8 -3.33301 15.833 -5 23.5 -5s14.167 0.333008 19.5 1c68 7.33301 134.5 23.333 199.5 48s115.5 55.667 151.5 93c23.333 22.667 35 46.667 35 72c0 74.667 -76.333 112 -229 112c-87.333 0 -170.666 -13.333 -249.999 -40
c-41.333 -14.667 -76.5 -34.334 -105.5 -59.001s-46.167 -52.667 -51.5 -84c-0.666992 -3.33301 -1 -7.66602 -1 -12.999s2.16699 -11.833 6.5 -19.5s9.5 -13.5 15.5 -17.5s14.5 -8.66699 25.5 -14s18.333 -9.33301 22 -12s4.5 -5.5 2.5 -8.5s-6.33301 -3.83301 -13 -2.5
c-20.667 3.33301 -40 13.666 -58 30.999s-27 36 -27 56c0 6 0.666992 12 2 18z" />
    <glyph glyph-name="S" unicode="S" horiz-adv-x="592" 
d="M645 528c0 -14.667 -6.00195 -31.6641 -18.002 -50.9971c-10 -18 -21.167 -30.333 -33.5 -37s-18.5 -6 -18.5 2c0 0.666992 3.66699 4.66699 11 12c22 20.667 33 37.667 33 51c0 28.667 -28.333 43 -85 43c-24 0 -55.667 -4.5 -95 -13.5s-77.333 -23.5 -114 -43.5
c-42.667 -23.333 -64 -43.666 -64 -60.999c0 -14 13 -27.333 39 -40c14 -6.66699 41.833 -17.834 83.5 -33.501s75.334 -29.334 101.001 -41.001s50 -28.167 73 -49.5s34.5 -45 34.5 -71s-15.333 -54.333 -46 -85c-46.667 -44.667 -107.334 -81.834 -182.001 -111.501
s-138.667 -44.5 -192 -44.5c-105.333 0 -158 29.667 -158 89s32.333 109.666 97 150.999c53.333 36.667 109.333 55 168 55c14 0 20.333 -2.33301 19 -7s-11.333 -7.16699 -30 -7.5s-42.667 -6.66602 -72 -18.999s-56.666 -30.166 -81.999 -53.499
c-33.333 -30 -50 -60 -50 -90c0 -18.667 9 -35.334 27 -50.001s52.333 -22 103 -22s100.667 8 150 24c106.667 35.333 173.334 74 200.001 116c10.667 15.333 16 28.333 16 39c0 30.667 -18.667 54.667 -56 72c-43.333 20 -104 43 -182 69c-30 10 -55.5 23.167 -76.5 39.5
s-31.5 36 -31.5 59s12.5 45.667 37.5 68s55.167 40.166 90.5 53.499c76 28.667 140.333 43 193 43c73.333 0 110 -18.333 110 -55z" />
    <glyph glyph-name="T" unicode="T" horiz-adv-x="336" 
d="M271 58c2 0 2.99902 -2 2.99902 -6s-4.66699 -10.667 -14 -20l-10 -15c-18 -27.333 -31.167 -43.333 -39.5 -48s-15 -7 -20 -7s-12.667 1.16699 -23 3.5s-15.666 4.83301 -15.999 7.5s-0.5 8.33398 -0.5 17.001s6.33301 29.5 19 62.5s27.334 65.5 44.001 97.5l92 174
c6 11.333 9 20.166 9 26.499s-1 11.166 -3 14.499c4 19.333 20.5 44 49.5 74s55.5 45 79.5 45c10.667 0 23.667 -4.16699 39 -12.5s22 -19.166 20 -32.499c-4.66699 3.33301 -9 5 -13 5c-28 0 -63 -27.333 -105 -82c-70 -90.667 -129.333 -194.667 -178 -312
c-5.33301 -14 -8 -23.5 -8 -28.5v-9.5c2.66699 -6.66699 8.16699 -8.66699 16.5 -6s16.166 8.66699 23.499 18c17.333 22.667 29 34 35 34zM651.999 489c5.33301 8.66699 13.3311 18.6699 23.998 30.0029c-29.333 0.666992 -73.333 3.33398 -132 8.00098
c-72.667 6 -122.334 9 -149.001 9s-63.667 -2.33301 -111 -7c-63.333 -8.66699 -117.833 -26.167 -163.5 -52.5s-72.834 -59.5 -81.501 -99.5c-1.33301 -4 -2 -8.83301 -2 -14.5s1.83301 -12.5 5.5 -20.5s8.16699 -14.333 13.5 -19s13.5 -10.334 24.5 -17.001
s18.333 -11.5 22 -14.5s4.33398 -5.5 2.00098 -7.5s-4.66602 -3 -6.99902 -3s-4.83301 0.333008 -7.5 1c-22.667 6.66699 -41.834 19.167 -57.501 37.5s-23.5 33.666 -23.5 45.999s1.66699 22.833 5 31.5c0 7.33301 0.333008 12.666 1 15.999c10 47.333 40.333 84 91 110
c60.667 31.333 135.334 47 224.001 47c54 0 124.833 -6 212.5 -18s136.5 -18 146.5 -18c18 20 31.667 30.333 41 31c3.33301 0.666992 8 1 14 1s11.333 -2.16699 16 -6.5s7 -8.83301 7 -13.5s-2 -9.33398 -6 -14.001s-12.167 -11.5 -24.5 -20.5
s-22.166 -17.167 -29.499 -24.5c-34.667 -34.667 -52 -65 -52 -91c0 -11.333 2.33301 -20.5 7 -27.5s4.33398 -12 -0.999023 -15s-11 -0.833008 -17 6.5c-6.66699 5.33301 -10 22.333 -10 51s6 54.667 18 78z" />
    <glyph glyph-name="U" unicode="U" horiz-adv-x="526" 
d="M114 -32c-47.333 0 -71 30.667 -71 92c0 56 27.667 140.667 83 254c30 62 47.833 99.5 53.5 112.5s5.83398 19.167 0.500977 18.5c-5.33301 -1.33301 -13 -5.66602 -23 -12.999c-52 -44 -97.333 -67.333 -136 -70c-6.66699 -0.666992 -10 1 -10 5
c1.33301 6 5.66602 9.66699 12.999 11c26 2.66699 64.833 24.834 116.5 66.501s82.834 72.5 93.501 92.5c2.66699 8 15.334 12 38.001 12c17.333 -1.33301 25.666 -5.33301 24.999 -12c-114.667 -193.333 -179.667 -331.333 -195 -414
c-3.33301 -18.667 -5 -35.334 -5 -50.001c0 -46.667 16.667 -70 50 -70c54.667 0 135.334 51.667 242.001 155c44.667 290.667 116 436 214 436c34.667 0 56.334 -11.333 65.001 -34c4 -10 6 -20.5 6 -31.5s-2.33301 -22.5 -7 -34.5
c-10.667 -35.333 -28.167 -71.5 -52.5 -108.5s-58.333 -81.333 -102 -133s-69.5 -82.834 -77.5 -93.501c-9.33301 -47.333 -15.333 -107 -18 -179v-11c0 -63.333 11 -108.333 33 -135c9.33301 -10.667 18.166 -16 26.499 -16s15.833 4 22.5 12
c3.33301 5.33301 7.5 10.5 12.5 15.5s9 6.66699 12 5s3.5 -5.83398 1.5 -12.501c-6.66699 -10.667 -11 -17 -13 -19c-10.667 -13.333 -29.334 -20 -56.001 -20h-7c-38.667 0.666992 -63.334 33.334 -74.001 98.001c-2.66699 20.667 -4 48.5 -4 83.5s4.33301 82.167 13 141.5
c-106.667 -102.667 -196.667 -154 -270 -154zM636 510c3.33301 12 5 23.001 5 33.001s-2.16699 17 -6.5 21s-8.5 6 -12.5 6c-9.33301 0 -21.666 -8.33301 -36.999 -25c-60.667 -67.333 -105.334 -174.666 -134.001 -321.999c37.333 35.333 74.5 80.666 111.5 135.999
s61.5 105.666 73.5 150.999z" />
    <glyph glyph-name="V" unicode="V" horiz-adv-x="614" 
d="M207 -71c-60 0 -90 24.998 -90 74.998c0 34.667 27 114.667 81 240c63.333 146.667 99 240 107 280c-68.667 0 -129.167 -10.167 -181.5 -30.5s-78.5 -49.166 -78.5 -86.499c0 -10 2.66699 -19 8 -27s10.666 -13.667 15.999 -17
c10.667 -6.66699 22.667 -13.334 36 -20.001c8 -6 9.33301 -9.66699 4 -11c-2 0 -4.33301 0.333008 -7 1c-15.333 3.33301 -32 13 -50 29s-27.333 34.333 -28 55c-2.66699 6.66699 -4 12.667 -4 18c0 32 14.833 59 44.5 81s63 36.167 100 42.5s66.833 9.5 89.5 9.5
s40.334 -0.333008 53.001 -1c-0.666992 4.66699 -2.66699 9.66699 -6 15s-1.33301 9 6 11h3c6.66699 0 13 -5 19 -15l5 -14c38 -5.33301 69.667 -13.666 95 -24.999c10 -4 18 -10.833 24 -20.5s4 -14.167 -6 -13.5c-6 0 -17 2.83301 -33 8.5s-42.333 9.16699 -79 10.5
c-3.33301 -67.333 -21.666 -139 -54.999 -215c-64 -149.333 -96 -250.333 -96 -303c0 -34 13.667 -51 41 -51c33.333 0 80.666 23.333 141.999 70c72.667 54 142.667 134.667 210 242l49 80c46 76 84.667 133.333 116 172c20 24.667 42.5 43.334 67.5 56.001
s44.5 19 58.5 19s24.667 -1.83301 32 -5.5s11 -7 11 -10s-1.66699 -4.5 -5 -4.5l-11 1c-22 0 -53 -24.333 -93 -73c-25.333 -30.667 -60.5 -76.334 -105.5 -137.001l-97.5 -130c-85.333 -107.333 -159 -185.166 -221 -233.499s-119 -72.5 -171 -72.5z" />
    <glyph glyph-name="W" unicode="W" horiz-adv-x="1010" 
d="M92 -91c-52.667 0 -78.9951 18.668 -78.9951 56.001c0 24 9.5 52.167 28.5 84.5s37.5 62.333 55.5 90l65 98l54 80.5c71.333 102 115.666 170.333 132.999 205c-15.333 1.33301 -34.333 2 -57 2c-79.333 0 -145.333 -15.667 -198 -47
c-32.667 -19.333 -49 -43.333 -49 -72c0 -9.33301 2.66699 -18 8 -26s10.666 -13.667 15.999 -17c10.667 -6.66699 22.667 -13.334 36 -20.001c8 -6 9.33301 -9.66699 4 -11c-2 0 -4.33301 0.333008 -7 1c-15.333 3.33301 -32 13 -50 29s-27.333 34.333 -28 55
c-2.66699 6.66699 -4 12.334 -4 17.001c0 28.667 11.167 53.5 33.5 74.5s51.166 35.5 86.499 43.5c48 10.667 90.833 16 128.5 16s69.5 -3 95.5 -9c2 10 1.66699 18 -1 24s-0.333984 9.66699 6.99902 11c1.33301 0.666992 2.33301 1 3 1c7.33301 0 13 -5.33301 17 -16
c1.33301 -7.33301 1 -16 -1 -26c12 -3.33301 24.167 -7.5 36.5 -12.5s21.5 -12.333 27.5 -22s4 -14.167 -6 -13.5c-6 0 -15.5 2.16699 -28.5 6.5s-26.167 7.16602 -39.5 8.49902c-20.667 -60 -59 -131.667 -115 -215c-120.667 -178 -181 -291.667 -181 -341
c0 -22 10.667 -33 32 -33c33.333 0 87 24.667 161 74c114 79.333 210.667 175 290 287c-0.666992 18.667 -1 41.334 -1 68.001s2 53 6 79c2 14 9.5 27 22.5 39s22.833 18 29.5 18c8.66699 0 14.334 -7.66699 17.001 -23l2 -18v-18c0 -51.333 -10 -97.666 -30 -138.999v-9
c0 -74.667 16.5 -142 49.5 -202s71.167 -90 114.5 -90c37.333 0 70.333 19.333 99 58c47.333 64.667 71 143.667 71 237c0 84.667 -18.667 147 -56 187c-22 23.333 -48.333 35 -79 35c-25.333 0 -47 -6.66699 -65 -20c-7.33301 -4.66699 -12.666 -4.33398 -15.999 0.999023
s-3 9.66602 1 12.999c35.333 26 69 39 101 39s58.333 -7.33301 79 -22c51.333 -33.333 77 -99 77 -197c0 -42 -6 -84.667 -18 -128c-17.333 -63.333 -46.333 -119.333 -87 -168s-85.334 -73 -134.001 -73h-2c-52.667 0 -96.5 26.333 -131.5 79s-52.5 111.667 -52.5 177
c0 8 0.333008 16.333 1 25c-32.667 -41.333 -73.834 -85.5 -123.501 -132.5s-96.167 -85.5 -139.5 -115.5c-74.667 -55.333 -144.334 -83 -209.001 -83z" />
    <glyph glyph-name="X" unicode="X" horiz-adv-x="680" 
d="M21 427c-2.66699 6.66699 -3.99805 12.332 -3.99805 16.999c0 28.667 11.667 53.667 35 75s53 36 89 44c46.667 10.667 89.5 16 128.5 16s71.5 -3.33301 97.5 -10c7.33301 8.66699 14.333 13.334 21 14.001c11.333 1.33301 17 -6.66699 17 -24l21 -9
c10 -5.33301 18 -12.666 24 -21.999c8 -14 -2 -16 -30 -6l-20 5c-3.33301 -26.667 -5 -53.667 -5 -81c0 -65.333 9 -133.333 27 -204c40 46.667 90.167 111.5 150.5 194.5s96.166 131.5 107.499 145.5c3.33301 3.33301 6.5 5 9.5 5s6.66699 -1.33301 11 -4
s4.16602 -8 -0.500977 -16c-91.333 -138.667 -180.666 -258.334 -267.999 -359.001c14.667 -46.667 31.667 -86.167 51 -118.5s35 -52.833 47 -61.5s22.333 -13 31 -13s16.334 1 23.001 3c19.333 5.33301 45.333 23 78 53s56 55.667 70 77c2.66699 4 5.83398 5 9.50098 3
s5.5 -3.66699 5.5 -5c0 -8.66699 -15 -29.667 -45 -63c-64.667 -72 -119 -108 -163 -108c-15.333 0 -30.333 4.5 -45 13.5s-32.5 27.833 -53.5 56.5s-39.5 64.667 -55.5 108c-47.333 -52.667 -94.833 -100 -142.5 -142s-88.167 -73.333 -121.5 -94
c-79.333 -49.333 -145.333 -74 -198 -74c-36 0 -68 10 -96 30c-24.667 18 -37 44 -37 78c0 8.66699 1.66699 15.834 5 21.501s6.66602 7.16699 9.99902 4.5s5 -12.834 5 -30.501s9 -32.5 27 -44.5c20 -12.667 42.833 -19 68.5 -19s51.667 4.66699 78 14
s54.666 22.5 84.999 39.5s59.333 35.667 87 56s55.5 42.5 83.5 66.5c44 37.333 89 80 135 128c-22 68.667 -33 136.5 -33 203.5s3.33301 114.5 10 142.5c-15.333 1.33301 -31.333 2 -48 2s-38.334 -1.16699 -65.001 -3.5s-56.167 -7.83301 -88.5 -16.5
s-58.333 -21.5 -78 -38.5s-29.5 -34.5 -29.5 -52.5s4.33301 -31 13 -39s19.5 -14.833 32.5 -20.5s20.5 -9.16699 22.5 -10.5c6.66699 -4 6.66699 -7.33301 0 -10l-10 -1c-16 4 -33.167 14 -51.5 30s-27.5 34 -27.5 54z" />
    <glyph glyph-name="Y" unicode="Y" horiz-adv-x="526" 
d="M648 558l46.0029 -6.00098c7.33301 -1.33301 11 -4.33301 11 -9c0 -0.666992 -0.333008 -1.66699 -1 -3c-2 -5.33301 -5.66699 -7.83301 -11 -7.5s-9.33301 0.5 -12 0.5c-21.333 0 -40 -8.66699 -56 -26s-30 -42.333 -42 -75s-34.667 -102.334 -68 -209.001
s-52 -165.334 -56 -176.001c34.667 8.66699 57.834 13 69.501 13s19.167 -1 22.5 -3c4.66699 -4 5.66699 -7.66699 3 -11s-5.33398 -4.33301 -8.00098 -3s-7.83398 2 -15.501 2s-22.834 -2.83301 -45.501 -8.5s-36 -13.834 -40 -24.501
c-66.667 -168.667 -147.334 -286 -242.001 -352c-42 -29.333 -80 -44 -114 -44c-12.667 0 -24.334 2 -35.001 6c-31.333 11.333 -47 34.333 -47 69c0 40 21 84 63 132c82.667 94.667 193.334 164.334 332.001 209.001c4.66699 10.667 15.667 48.334 33 113.001
s30.333 111.334 39 140.001c-59.333 -90 -121 -165.333 -185 -226s-122.333 -91 -175 -91c-47.333 0 -71 30.667 -71 92c0 56 27.667 140.667 83 254c30 62 47.833 99.5 53.5 112.5s5.83398 19.167 0.500977 18.5c-5.33301 -1.33301 -13 -5.66602 -23 -12.999
c-52 -44 -97.333 -67.333 -136 -70c-6.66699 -0.666992 -10 1 -10 5c1.33301 6 5.66602 9.66699 12.999 11c26 2.66699 64.833 24.834 116.5 66.501s82.834 72.5 93.501 92.5c2.66699 8 15.334 12 38.001 12c17.333 -1.33301 25.666 -5.33301 24.999 -12
c-114.667 -192.667 -179.667 -330.667 -195 -414c-3.33301 -18.667 -5 -35.334 -5 -50.001c0 -46.667 16.667 -70 50 -70c27.333 0 58.666 14.167 93.999 42.5s70.333 64.5 105 108.5c82 106.667 145.333 213 190 319c12 28 21.333 44.667 28 50c14 23.333 42 35 84 35z
M61.0029 -296.001c0 -8 0.998047 -15.334 2.99805 -22.001c6.66699 -26 23.334 -39 50.001 -39c39.333 0 80.333 26.333 123 79c64.667 78 117.667 175 159 291c-115.333 -38 -207.666 -99.667 -276.999 -185c-38.667 -47.333 -58 -88.666 -58 -123.999z" />
    <glyph glyph-name="Z" unicode="Z" horiz-adv-x="524" 
d="M594 499c-83.333 26 -165.33 39.002 -245.997 39.002c-38 0 -74.333 -3.33301 -109 -10c-27.333 -7.33301 -48.5 -18.833 -63.5 -34.5s-22.5 -27.5 -22.5 -35.5s1.33301 -14.667 4 -20s4 -9.83301 4 -13.5s-1.5 -5.16699 -4.5 -4.5s-8.16699 5.5 -15.5 14.5
s-11 20 -11 33s4.66699 26.5 14 40.5c19.333 28.667 45.666 48.667 78.999 60s74.333 17 123 17c76.667 0 171 -14.333 283 -43c15.333 15.333 31.5 26.5 48.5 33.5s30.167 10.5 39.5 10.5s16 -6 20 -18v-5c0 -23.333 -10.833 -41.833 -32.5 -55.5
s-41.167 -20.5 -58.5 -20.5c-6 0 -11.667 0.666992 -17 2c-16 -8.66699 -30.167 -18.5 -42.5 -29.5l-28.5 -25c-6.66699 -5.66699 -15.334 -14 -26.001 -25l-24 -25l-26.5 -29c-12.333 -13.667 -20.833 -22.834 -25.5 -27.501c-21.333 -23.333 -38.666 -43.333 -51.999 -60
c58 4.66699 95 7 111 7h30c4 0 8 -0.5 12 -1.5s7 -2.16699 9 -3.5c4.66699 -4 -2.33301 -9.33301 -21 -16c-28.667 -8 -86.334 -15 -173.001 -21l-47 -50c-66.667 -68 -126.667 -117.333 -180 -148c-4.66699 -4.66699 -7 -9.5 -7 -14.5s4 -10.167 12 -15.5
c18.667 -10 52.167 -29 100.5 -57s85.5 -48.333 111.5 -61s57 -24 93 -34s63.333 -15 82 -15s32.667 0.666992 42 2c32.667 4.66699 59 18 79 40c9.33301 10.667 14 23 14 37s-5.66699 30 -17 48c-4.66699 8.66699 -4.33398 13.5 0.999023 14.5s10.333 -2.5 15 -10.5
c13.333 -21.333 22.666 -48 27.999 -80c0.666992 -4 1 -8.33301 1 -13c0 -20 -7.66699 -39 -23 -57c-18 -21.333 -48.5 -32 -91.5 -32s-87.167 7.66699 -132.5 23s-86.333 35 -123 59c-116 74.667 -194.667 119.667 -236 135c-22 -11.333 -37.333 -17 -46 -17
c-25.333 0 -38 10.667 -38 32c0 12.667 7 22.334 21 29.001c6.66699 0.666992 16.834 -0.5 30.501 -3.5s23.834 -4.83301 30.501 -5.5c44 15.333 118 78.666 222 189.999c-32 -2 -53.333 -3 -64 -3s-18.167 0.166992 -22.5 0.5s-9.33301 3.16602 -15 8.49902
s-8.5 12 -8.5 20s6.66699 14.833 20 20.5s22.333 8.5 27 8.5h12c3.33301 0 7.66602 -3.33301 12.999 -10s9 -10 11 -10c10 -0.666992 20 -1 30 -1s19.667 0.333008 29 1l39 42l41 44c72.667 78 128.667 127.667 168 149z" />
    <glyph glyph-name="bracketleft" unicode="[" horiz-adv-x="447" 
d="M214 3c12 0 14.498 -3.83105 7.49805 -11.498s-14.167 -11.834 -21.5 -12.501c-30.667 -3.33301 -67 -5 -109 -5c-13.333 0 -20 4.66699 -20 14c0 17.333 43.333 100.666 130 249.999s144.334 244 173.001 284c5.33301 6.66699 9.66602 11 12.999 13s9.33301 3 18 3h115
c7.33301 0 11 -1.33301 11 -4s-2.5 -6.5 -7.5 -11.5s-10.833 -7.83301 -17.5 -8.5c-34 -3.33301 -66.333 -5 -97 -5c-43.333 -60 -95.666 -140.167 -156.999 -240.5s-108.666 -188.833 -141.999 -265.5h104z" />
    <glyph glyph-name="backslash" unicode="\" horiz-adv-x="320" 
d="M41 531c0 6 5.83398 9.00195 17.501 9.00195s20.167 -3.33301 25.5 -10c16.667 -22.667 57.5 -113 122.5 -271s97.5 -249 97.5 -273c0 -6.66699 -3.33301 -10 -10 -10c-14.667 0 -23.667 6.33301 -27 19c-20.667 81.333 -55.834 177.666 -105.501 288.999
s-89.5 192.333 -119.5 243c-0.666992 1.33301 -1 2.66602 -1 3.99902z" />
    <glyph glyph-name="bracketright" unicode="]" horiz-adv-x="447" 
d="M380 509c-12 0 -14.666 3.99902 -7.99902 11.999s14 12.333 22 13c30.667 2.66699 66.667 4 108 4c14 0 21 -4.66699 21 -14c0 -17.333 -43.333 -100.666 -130 -249.999s-144.334 -244 -173.001 -284c-8 -10.667 -18.333 -16 -31 -16h-115c-7.33301 0 -11 1.33301 -11 4
s2.16699 6.5 6.5 11.5s10.166 8.16699 17.499 9.5c37.333 2.66699 70 4 98 4c42.667 59.333 94.834 139.5 156.501 240.5s109.167 189.5 142.5 265.5h-104z" />
    <glyph glyph-name="asciicircum" unicode="^" horiz-adv-x="585" 
d="M415 593c24 -30 37.502 -46.499 40.502 -49.499s4.5 -6.16699 4.5 -9.5c0 -12 -3.33301 -20 -10 -24c-1.33301 -0.666992 -3.83301 -1 -7.5 -1s-8.83398 2.5 -15.501 7.5s-20.834 17.667 -42.501 38s-36.167 33.166 -43.5 38.499c-75.333 -35.333 -121 -57 -137 -65
s-26 -12 -30 -12s-6 3 -6 9s6.66699 14.333 20 25c2.66699 2 19 12.333 49 31c67.333 41.333 108.333 62 123 62c12.667 -3.33301 31 -20 55 -50z" />
    <glyph glyph-name="underscore" unicode="_" horiz-adv-x="631" 
d="M0 -66v28h631v-28h-631z" />
    <glyph glyph-name="grave" unicode="`" horiz-adv-x="342" 
d="M240 335c0 -3.33301 -3.00098 -5.00098 -9.00098 -5.00098c-14.667 0 -59.334 20 -134.001 60c-2.66699 2 -5.5 4 -8.5 6s-6.5 4.66699 -10.5 8c-10.667 8.66699 -16 15 -16 19c0 8 4.66699 13.667 14 17c2 0.666992 4.33301 1 7 1c11.333 0 22.333 -3.66699 33 -11
s21.834 -15.5 33.501 -24.5l53 -39.5c23.667 -17.333 35.834 -26.666 36.501 -27.999s1 -2.33301 1 -3z" />
    <glyph glyph-name="a" unicode="a" horiz-adv-x="457" 
d="M90 -11c-10.667 0 -22.166 3.16895 -34.499 9.50195s-22.833 15.333 -31.5 27s-13 24.167 -13 37.5s3 26 9 38c13.333 28 34.833 55.167 64.5 81.5s60.5 48.833 92.5 67.5s57.333 30.334 76 35.001s36.834 7 54.501 7s32.834 -4.5 45.501 -13.5s19 -18.5 19 -28.5
c0 -3.33301 -0.333008 -5.33301 -1 -6s-2.33398 -0.333984 -5.00098 0.999023c-8 12.667 -24.5 19 -49.5 19s-53.333 -8.16699 -85 -24.5s-61.5 -36.833 -89.5 -61.5c-23.333 -22 -43.833 -46.833 -61.5 -74.5s-26.5 -47.834 -26.5 -60.501c0 -24.667 7 -37 21 -37
s35.333 11.333 64 34c47.333 40 79.666 69.333 96.999 88c61.333 66 94.333 99 99 99c8 0 17.667 -2.33301 29 -7s15 -10.334 11 -17.001c-34 -48 -54 -96.333 -60 -145c-0.666992 -6 -1 -13.667 -1 -23s2.66699 -17 8 -23c10 -10.667 23.667 -11.334 41 -2.00098
s41.5 28 72.5 56s55.833 55.333 74.5 82c2.66699 3.33301 5.66699 4.16602 9 2.49902s5 -3.16699 5 -4.5c0 -10 -15.833 -31.833 -47.5 -65.5s-55.834 -56.5 -72.501 -68.5c-31.333 -23.333 -60.333 -35 -87 -35c-25.333 0 -42.333 12.667 -51 38c-2 8 -3 17 -3 27
c0 30 6.33301 61.667 19 95c-2.66699 -1.33301 -15 -14.666 -37 -39.999s-47.5 -49.666 -76.5 -72.999s-55.167 -35 -78.5 -35z" />
    <glyph glyph-name="b" unicode="b" horiz-adv-x="390" 
d="M320 270c12 0 26.3281 -6.16406 42.9951 -18.4971s26 -24.5 28 -36.5c0.666992 -4.66699 1 -9 1 -13c0 -30 -14.667 -62.167 -44 -96.5s-62.333 -63.5 -99 -87.5c-56.667 -38.667 -113 -58 -169 -58c-22.667 0 -40.667 3 -54 9c-10.667 5.33301 2.66602 8 39.999 8
c40.667 0 93.334 24 158.001 72c62.667 44 100.667 96.667 114 158c2 9.33301 1.83301 18.833 -0.5 28.5s-8.16602 14.5 -17.499 14.5c-30 0 -69.333 -21 -118 -63c-20.667 -17.333 -41.834 -40.666 -63.501 -69.999s-32.5 -53.333 -32.5 -72c0 -2.66699 0.5 -5.5 1.5 -8.5
s-0.166992 -7.83301 -3.5 -14.5c-8.66699 -17.333 -21 -16.333 -37 3c-4 10 -6 20.333 -6 31c0 30.667 4.66699 63 14 97c-2.66699 -2.66699 -8.5 -10.834 -17.5 -24.501s-19.5 -27.167 -31.5 -40.5c-6 -6.66699 -10.667 -6.66699 -14 0
c-0.666992 1.33301 -1 3.16602 -1 5.49902s1.33301 5.16602 4 8.49902c52 64.667 82.333 106.667 91 126c12 33.333 30.333 76.833 55 130.5s47.334 96.5 68.001 128.5c42.667 67.333 86.667 101 132 101c8 0 16.333 -1 25 -3l20 -7c19.333 -11.333 29 -25.833 29 -43.5
s-5.33301 -36.834 -16 -57.501c-17.333 -35.333 -54.666 -79.833 -111.999 -133.5s-113 -99.167 -167 -136.5c-13.333 -24 -23.666 -55.333 -30.999 -94c24.667 36.667 56.834 72 96.501 106s77.834 51 114.501 51zM287.995 360.003c79.333 80 119.001 139.333 119.001 178
c0 16 -6 24 -18 24c-9.33301 0 -22 -6 -38 -18c-68.667 -52.667 -135.334 -151.667 -200.001 -297c45.333 30 91 67.667 137 113z" />
    <glyph glyph-name="c" unicode="c" horiz-adv-x="315" 
d="M291 220l4.99805 20c0 13.333 -5 20 -15 20c-27.333 0 -64.666 -21.333 -111.999 -64s-77.333 -85.667 -90 -129c-3.33301 -11.333 -5 -21.5 -5 -30.5s2 -16.5 6 -22.5c8 -12 20.333 -18 37 -18s34.667 2.33301 54 7c42.667 12 78.167 29.167 106.5 51.5
s58.166 53.5 89.499 93.5c2.66699 3.33301 5.83398 4.33301 9.50098 3s5.5 -3.16602 5.5 -5.49902s-1 -5.83301 -3 -10.5c-32 -43.333 -65.5 -78.5 -100.5 -105.5s-75.5 -44.5 -121.5 -52.5c-13.333 -2 -25.666 -3 -36.999 -3c-32.667 0 -57.5 8 -74.5 24
s-25.5 33.667 -25.5 53s4.66699 40.333 14 63c16.667 38 52.334 77 107.001 117s98 60 130 60c8 0 15.667 -1 23 -3c18.667 -6.66699 28 -17.334 28 -32.001c0 -10 -3.66699 -21.333 -11 -34s-12.833 -17.167 -16.5 -13.5s-4.83398 7.5 -3.50098 11.5z" />
    <glyph glyph-name="d" unicode="d" horiz-adv-x="375" 
d="M177 250c32 18.667 57.335 30.3359 76.002 35.0029s37 7 55 7s35 -6 51 -18c91.333 212 178.666 318 261.999 318c28 0 47 -8 57 -24c4.66699 -8 7 -15 7 -21c0 -16.667 -7.16699 -37.834 -21.5 -63.501s-36.5 -53.834 -66.5 -84.501s-73 -68.5 -129 -113.5
s-87 -70.167 -93 -75.5c-21.333 -49.333 -38 -97 -50 -143s-18 -80.333 -18 -103s4 -40.667 12 -54c4 -8.66699 10 -13.834 18 -15.501s14.833 -0.666992 20.5 3s10 6.83398 13 9.50098s6.66699 5.16699 11 7.5s7.5 2.83301 9.5 1.5s1.66699 -5 -1 -11
c-5.33301 -6.66699 -10.333 -12.334 -15 -17.001c-10.667 -7.33301 -23.167 -11 -37.5 -11s-23.833 0.333008 -28.5 1c-32 5.33301 -48 28.666 -48 69.999c0 40 5.33301 77 16 111c14.667 46.667 28 85.334 40 116.001c-106.667 -124 -182.334 -186 -227.001 -186
c-10.667 0 -22.167 3.16699 -34.5 9.5s-22.833 15.333 -31.5 27s-13 24.167 -13 37.5s3 26 9 38c13.333 28 34.833 55.167 64.5 81.5s60.5 48.833 92.5 67.5zM351.002 258.002c-8 4 -22 6.00098 -42 6.00098s-45.833 -8.16699 -77.5 -24.5s-61.5 -36.833 -89.5 -61.5
c-23.333 -22 -43.833 -46.833 -61.5 -74.5s-26.5 -47.834 -26.5 -60.501c0 -24.667 7 -37 21 -37s35.333 11.333 64 34c74 60.667 140 122 198 184zM644.002 510.003c8.66699 16 13.001 29.5 13.001 40.5s-4.83301 16.5 -14.5 16.5s-22.5 -6 -38.5 -18
c-73.333 -56 -139.666 -149.667 -198.999 -281c43.333 28 88.666 65.333 135.999 112s81.666 90 102.999 130z" />
    <glyph glyph-name="e" unicode="e" horiz-adv-x="319" 
d="M271 291c36 0 54.002 -17.334 54.002 -52.001c0 -18 -5 -32.667 -15 -44c-16.667 -24.667 -43.667 -46.167 -81 -64.5s-69 -28.5 -95 -30.5c-9.33301 -0.666992 -14.333 2 -15 8c-0.666992 2.66699 0.166016 4.33398 2.49902 5.00098s4.16602 1 5.49902 1
c15.333 1.33301 35 8.66602 59 21.999c44.667 24 77.334 48.667 98.001 74c8.66699 12 13 23.5 13 34.5s-5.33301 16.5 -16 16.5c-8.66699 0 -20.334 -3.66699 -35.001 -11c-31.333 -14.667 -64.333 -40.167 -99 -76.5s-57.334 -71.833 -68.001 -106.5
c-3.33301 -10.667 -5 -21.167 -5 -31.5s4.33301 -20.166 13 -29.499s22 -14 40 -14c20 0 43 5.33301 69 16c75.333 30.667 133.333 77 174 139c4 5.33301 7.66699 6.33301 11 3c2.66699 -1.33301 4 -3 4 -5s-1 -4.33301 -3 -7c-20 -33.333 -45.333 -63 -76 -89
c-59.333 -50.667 -117 -76 -173 -76c-48 0 -81.667 14.333 -101 43c-7.33301 11.333 -11 25 -11 41s4.33301 35 13 57c16.667 38 52.334 77 107.001 117s98 60 130 60z" />
    <glyph glyph-name="f" unicode="f" horiz-adv-x="286" 
d="M-12.5 -331c-1.66699 -1.33301 -8.50391 -5.33398 -20.5039 -12.001s-22.833 -10 -32.5 -10s-14.5 2.33301 -14.5 7c0 2 0.666992 4.66699 2 8c12 22.667 73.667 176.334 185 461.001c-20.667 -2.66699 -36 -4 -46 -4s-17.833 2.16699 -23.5 6.5s-8.5 10 -8.5 17
s7.5 13.333 22.5 19s26.5 8.5 34.5 8.5s14.667 -2.66699 20 -8s9 -8 11 -8h3l29 74c12 33.333 30.333 76.833 55 130.5s47 96.5 67 128.5c44.667 67.333 89.334 101 134.001 101l24 -3l20 -7c19.333 -11.333 29 -26.833 29 -46.5s-5.33301 -40.834 -16 -63.501
c-18 -38.667 -54.667 -89 -110 -151s-108.666 -113.667 -159.999 -155c54.667 4.66699 89.834 7 105.501 7s23.834 -2 24.501 -6c0 -2.66699 -6.33301 -5.83398 -19 -9.50098s-64 -12.167 -154 -25.5c-79.333 -201.333 -119.666 -316.666 -120.999 -345.999
c-0.666992 -14.667 -2.16699 -25.167 -4.5 -31.5l-8.5 -22l-7.5 -19l-5.5 -14.5c-2 -5.33301 -3.66699 -9.16602 -5 -11.499l-4.5 -8c-1.66699 -3 -3.33398 -5.16699 -5.00098 -6.5zM433.996 481.999c11.333 19.333 16.998 37.667 16.998 55s-6.33301 26 -19 26
c-25.333 0 -61.333 -32.667 -108 -98c-27.333 -38.667 -51.666 -77 -72.999 -115c-42.667 -80 -70 -138.333 -82 -175l-8 -16c46.667 34.667 96.334 84 149.001 148s94 122.333 124 175z" />
    <glyph glyph-name="g" unicode="g" horiz-adv-x="416" 
d="M13 -381c-5.33301 0 -12 0.991211 -20 2.99121c-34 8.66699 -51 26.5 -51 53.5s17.5 60.833 52.5 101.5s108.833 98.334 221.5 173.001c48 98 81.333 175.667 100 233c-37.333 -45.333 -64 -76.666 -80 -93.999c-60 -66.667 -108.333 -100 -145 -100
c-10.667 0 -22.167 3.16699 -34.5 9.5s-22.833 15.333 -31.5 27s-13 24.167 -13 37.5c0 35.333 24.667 75 74 119c29.333 26.667 60 49.334 92 68.001s57.333 30.334 76 35.001s36.667 7 54 7s32.666 -4.66699 45.999 -14s20 -18.666 20 -27.999
c0 -5.33301 -2.66699 -7 -8 -5c-7.33301 12.667 -23.5 19 -48.5 19s-53.333 -8.16699 -85 -24.5s-60.167 -35.666 -85.5 -57.999s-46.833 -47.666 -64.5 -75.999s-26.5 -49.166 -26.5 -62.499c0 -23.333 6.66699 -35 20 -35c18.667 0 47.334 15.333 86.001 46
c57.333 44.667 112.333 99 165 163c8.66699 12.667 26.667 12.334 54 -0.999023c10.667 -5.33301 15 -10 13 -14c-8.66699 -19.333 -24.5 -52.833 -47.5 -100.5l-51.5 -107.5c15.333 8 41.5 28.167 78.5 60.5s69.5 64.833 97.5 97.5c14.667 17.333 22 20 22 8
c0 -16.667 -40 -60.667 -120 -132c-46 -41.333 -78.667 -67.333 -98 -78c-56.667 -116.667 -94.667 -190 -114 -220c-50 -74 -99.333 -111 -148 -111zM197 -88.0088c-80 -60 -137.334 -107.5 -172.001 -142.5s-52 -67.833 -52 -98.5c0 -9.33301 3 -16 9 -20s12.333 -6 19 -6
s16.334 5 29.001 15s23.5 19.833 32.5 29.5s16.833 18.667 23.5 27s14.167 19 22.5 32l19.5 30.5c4.66699 7.33301 11.167 18.833 19.5 34.5l17 32c3 5.66699 8.66699 17.167 17 34.5z" />
    <glyph glyph-name="h" unicode="h" horiz-adv-x="456" 
d="M383 585c12 4.66699 22.3398 7.00098 31.0068 7.00098c29.333 0 48.666 -8 57.999 -24c5.33301 -8 8 -15 8 -21c0 -45.333 -38 -102.333 -114 -171c-67.333 -59.333 -129.333 -110.333 -186 -153c-18.667 -42 -38 -93.667 -58 -155c24 29.333 54.333 63.333 91 102
c74 76.667 125.667 115 155 115c14.667 0 22.334 -7.33301 23.001 -22c1.33301 -15.333 -1.83398 -30 -9.50098 -44l-21.5 -39c-31.333 -52 -47 -98.333 -47 -139c0 -13.333 2.66699 -23 8 -29c9.33301 -10.667 22.666 -11.334 39.999 -2.00098s41.5 28 72.5 56
s56.167 55.333 75.5 82c3.33301 3.33301 6.5 4.16602 9.5 2.49902s4.5 -3.33398 4.5 -5.00098s-0.666992 -3.5 -2 -5.5c-10 -18 -28 -40.833 -54 -68.5s-47 -47.5 -63 -59.5c-30.667 -23.333 -60 -35 -88 -35c-25.333 0 -42.333 12.667 -51 38c-2 6 -3 13.167 -3 21.5
s0.666992 17.166 2 26.499c3.33301 28 21 71.667 53 131c6.66699 12 10 20.5 10 25.5s-2.66699 7.5 -8 7.5c-10.667 0 -31.334 -13.333 -62.001 -40c-20.667 -19.333 -51.167 -55.833 -91.5 -109.5s-63.166 -82.167 -68.499 -85.5c-24 -12 -38.833 -18 -44.5 -18
s-8.83398 0.833008 -9.50098 2.5s-0.333984 3.83398 0.999023 6.50098s6.66602 17.334 15.999 44.001c31.333 88.667 52.666 147.334 63.999 176.001c-22 -28 -49.333 -59.667 -82 -95c-5.33301 -5.33301 -8 -4.16602 -8 3.50098s3 15.5 9 23.5s18.5 23.5 37.5 46.5
s32.5 40.167 40.5 51.5c-6 3.33301 -9.16699 8 -9.5 14s1.66699 10.167 6 12.5s11.5 1.5 21.5 -2.5c6.66699 9.33301 12.667 19.666 18 30.999c79.333 170.667 154.666 269.667 225.999 297zM439.007 510.001c8.66699 16 13.001 29.5 13.001 40.5s-4.83301 16.5 -14.5 16.5
s-22.5 -6 -38.5 -18c-73.333 -56 -139.666 -149.667 -198.999 -281c43.333 28 88.666 65.333 135.999 112s81.666 90 102.999 130z" />
    <glyph glyph-name="i" unicode="i" 
d="M136 277c16.667 0 26.667 -5.32715 30 -15.9941c1.33301 -6 0.5 -11.833 -2.5 -17.5s-5.16699 -10.167 -6.5 -13.5s-2.33301 -6 -3 -8c-3.33301 -6.66699 -6.66602 -13 -9.99902 -19c-38 -76 -58 -124.333 -60 -145c-0.666992 -6 -1 -13.667 -1 -23s2.66699 -17 8 -23
c9.33301 -10.667 22.666 -11.334 39.999 -2.00098s41.5 28 72.5 56s56.167 55.333 75.5 82c2.66699 3.33301 5.66699 4.16602 9 2.49902s5 -3.33398 5 -5.00098s-0.666992 -3.5 -2 -5.5c-10 -18 -28 -41 -54 -69c-42.667 -46 -78.334 -74.333 -107.001 -85
c-16.667 -6 -30.667 -9 -42 -9c-26.667 0 -44.334 12.667 -53.001 38c-1.33301 4.66699 -2 10.334 -2 17.001c0 23.333 10.667 58.666 32 105.999c-3.33301 -7.33301 -16.333 -24 -39 -50c-6 -6.66699 -10.667 -6.66699 -14 0c-0.666992 1.33301 -1 3.16602 -1 5.49902
s1.33301 5.16602 4 8.49902c32.667 40.667 58.334 75 77.001 103c-1.33301 3.33301 -0.666016 7.66602 2.00098 12.999c13.333 37.333 25 57 35 59h7zM215 410.006l-8 -32c0 -6 -4.33301 -15.667 -13 -29s-15.334 -20 -20.001 -20c-28.667 0 -43 7 -43 21
c0 2.66699 14.333 15 43 37l17 13c10.667 9.33301 17.334 14 20.001 14s4 -1.33301 4 -4z" />
    <glyph glyph-name="j" unicode="j" horiz-adv-x="215" 
d="M-188 -381c-5.33301 0 -12 1.00098 -20 3.00098c-34.667 9.33301 -52 27.5 -52 54.5s17.667 60.667 53 101s109.333 97.833 222 172.5c48 99.333 83.333 184.333 106 255l-33 -39.5c-16.667 -19.667 -27.334 -32.834 -32.001 -39.501s-9 -7 -13 -1
c-1.33301 4.66699 -0.333008 9.33398 3 14.001c12.667 15.333 29.667 37.5 51 66.5s34.333 46.167 39 51.5c13.333 12 32 10.333 56 -5c8.66699 -6 12 -11 10 -15l-108 -244c14.667 8 40.334 28.167 77.001 60.5s69.667 65.166 99 98.499c14.667 17.333 22 20 22 8
c0 -16.667 -40 -60.667 -120 -132c-46.667 -41.333 -79.334 -67.333 -98.001 -78c-56.667 -116.667 -94.667 -190 -114 -220c-51.333 -74 -100.666 -111 -147.999 -111zM-4 -87.999c-80 -60 -137.334 -107.5 -172.001 -142.5s-52 -67.833 -52 -98.5c0 -9.33301 3 -16 9 -20
s12.333 -6 19 -6s16.334 5 29.001 15s23.5 19.833 32.5 29.5s16.833 18.667 23.5 27s14.167 19 22.5 32l19.5 30.5c4.66699 7.33301 11.167 18.833 19.5 34.5l17 32c3 5.66699 8.66699 17.167 17 34.5zM271.999 410.001l-8 -32c0 -6 -4.5 -15.667 -13.5 -29
s-15.833 -20 -20.5 -20c-28.667 0 -43 7 -43 21c0 2.66699 14.333 15 43 37l17 13c12 9.33301 19.167 14 21.5 14s3.5 -1.33301 3.5 -4z" />
    <glyph glyph-name="k" unicode="k" horiz-adv-x="344" 
d="M86 -8c-24 -12 -39.3359 -18 -46.0029 -18s-10 1 -10 3s0.5 4.16699 1.5 6.5s5.66699 14.833 14 37.5l31.5 86c12.667 34.667 23.667 63.667 33 87c-15.333 -16.667 -33.333 -39.667 -54 -69c-3.33301 -4.66699 -7.83301 -6 -13.5 -4s-3.83398 9 5.49902 21
c22 26.667 49.667 65 83 115c-10 5.33301 -15 10.5 -15 15.5s0.666992 8.83301 2 11.5c3.33301 8 9.33301 9.66699 18 5c4 -1.33301 6.66699 -2 8 -2c29.333 77.333 66 146.333 110 207c24 34 49 58.833 75 74.5s50.333 23.5 73 23.5c16 0 31.333 -3.83301 46 -11.5
s22 -20.167 22 -37.5c0 -33.333 -28.667 -81.666 -86 -144.999c-30.667 -32.667 -65 -62.667 -103 -90s-71.667 -47.333 -101 -60c-26 -57.333 -49 -117.333 -69 -180l65 85c-0.666992 6 -1 12.333 -1 19c0 20 4.33301 32.333 13 37c4.66699 2 7.66699 -2 9 -12l4 -14
c51.333 60 88.333 95.333 111 106c10.667 5.33301 20.334 8 29.001 8s16.334 -2.33301 23.001 -7s10 -9.66699 10 -15c0 -9.33301 -7.66699 -17.666 -23 -24.999c-73.333 -35.333 -121.666 -65.333 -144.999 -90c16 -56 31.667 -100 47 -132s39.5 -68 72.5 -108
s63.167 -60 90.5 -60c22.667 0 32 10 28 30c-2.66699 18 -8.16699 33.5 -16.5 46.5s-9.16602 19.5 -2.49902 19.5c6 -0.666992 12.333 -3.66699 19 -9c4 -4.66699 8.66699 -12.834 14 -24.501s8 -21.5 8 -29.5c-0.666992 -18.667 -9.66699 -33.334 -27 -44.001
s-34 -16 -50 -16c-31.333 0 -62 15.5 -92 46.5s-55 68.5 -75 112.5s-34 89 -42 135c-12 -16.667 -25.333 -36.667 -40 -60c-30 -46 -48 -71 -54 -75zM439.997 549c0 12 -5 18.001 -15 18.001s-22.667 -6 -38 -18c-42.667 -32.667 -78.667 -69.834 -108 -111.501
s-58.333 -93.5 -87 -155.5c62 28.667 118.333 72 169 130c16.667 19.333 34 44 52 74s27 51 27 63z" />
    <glyph glyph-name="l" unicode="l" horiz-adv-x="235" 
d="M387 510c8 14.667 12 25.999 12 33.999c0 14 -5.66699 21 -17 21c-9.33301 0 -21 -5.33301 -35 -16c-53.333 -41.333 -105 -106.666 -155 -195.999c-40 -72 -69.333 -133.667 -88 -185c46 31.333 97.5 82.333 154.5 153s99.833 133.667 128.5 189zM89 127.999
c-8 -22.667 -12.335 -37.834 -13.002 -45.501s-1 -18 -1 -31s3.33301 -24.833 10 -35.5c11.333 -18 30.333 -19.333 57 -4c20 10.667 45.333 30.167 76 58.5s54.334 54.166 71.001 77.499c1.33301 2 3.33301 3 6 3c6 0 7.66699 -4.33301 5 -13c-10 -18 -28.5 -41 -55.5 -69
s-51.5 -50.167 -73.5 -66.5s-44 -24.5 -66 -24.5c-50.667 0 -76 24.667 -76 74v6c2.66699 46.667 26.334 117.167 71.001 211.5s85 165.5 121 213.5l31 39c7.33301 8.66699 18 19.334 32 32.001c26.667 25.333 54.167 38 82.5 38s47.5 -8.66699 57.5 -26
c3.33301 -6 5 -14.667 5 -26s-5 -27.333 -15 -48c-68.667 -119.333 -177 -240.666 -325 -363.999z" />
    <glyph glyph-name="m" unicode="m" horiz-adv-x="584" 
d="M171 260c0 -4.66699 -3.66797 -14.8262 -11.001 -30.4932s-28.333 -69.5 -63 -161.5c24 29.333 54.333 63.333 91 102c74 77.333 125 116 153 116c6 0 11.833 -1.66699 17.5 -5s8.5 -10.833 8.5 -22.5s-3.66699 -24.667 -11 -39s-15.666 -31.833 -24.999 -52.5
s-15.666 -33.667 -18.999 -39c56 50.667 98.333 81.5 127 92.5s47.667 16.5 57 16.5s14 -3.33301 14 -10c0 -4 -5 -13.667 -15 -29s-21 -38 -33 -68s-18.667 -51 -20 -63s-2 -22.667 -2 -32s2.66699 -17 8 -23c10 -10.667 23.667 -11.334 41 -2.00098s41.5 28 72.5 56
s55.833 55.333 74.5 82c2.66699 3.33301 5.83398 4.16602 9.50098 2.49902s5.5 -3.33398 5.5 -5.00098s-0.666992 -3.5 -2 -5.5c-10 -18 -28 -41 -54 -69c-42.667 -46 -78.334 -74.333 -107.001 -85c-31.333 -10.667 -54 -12 -68 -4s-22.667 17 -26 27s-5 20 -5 30
c0 31.333 6.16699 62.666 18.5 93.999s22.166 52.666 29.499 63.999c-25.333 -10.667 -47 -24 -65 -40c-27.333 -24 -49.333 -45 -66 -63l-20 -22c-6 -14.667 -16.5 -23 -31.5 -25s-22.167 3 -21.5 15c1.33301 12.667 13.666 41 36.999 85s35 68.5 35 73.5
s-2.66699 7.5 -8 7.5c-12 0 -33.667 -13.667 -65 -41c-20.667 -19.333 -51.167 -55.833 -91.5 -109.5s-63.166 -82.167 -68.499 -85.5c-24 -12 -39 -18 -45 -18s-9 1 -9 3s1 5 3 9s22.333 62 61 174c-14.667 -22.667 -28 -40 -40 -52c-5.33301 -6 -8 -4.83301 -8 3.5
s2.33301 15.5 7 21.5c30 39.333 52 72.666 66 99.999c4 23.333 12 37 24 41c7.33301 2.66699 15.833 2.66699 25.5 0s14.5 -7.33398 14.5 -14.001z" />
    <glyph glyph-name="n" unicode="n" horiz-adv-x="409" 
d="M318 284c15.333 0 22.9971 -8.16602 22.9971 -24.499s-7.66699 -38.833 -23 -67.5s-26.666 -52 -33.999 -70c-12.667 -30.667 -19 -55.167 -19 -73.5s2.66699 -30.5 8 -36.5c10 -10.667 23.667 -11.167 41 -1.5s41.5 28.334 72.5 56.001s55.833 54.834 74.5 81.501
c2.66699 3.33301 5.83398 4.16602 9.50098 2.49902s5.5 -3.33398 5.5 -5.00098s-0.666992 -3.5 -2 -5.5c-10 -18 -28 -41 -54 -69s-51 -50.5 -75 -67.5s-47.667 -25.5 -71 -25.5c-22.667 0.666992 -38.667 5.83398 -48 15.501s-14 21.834 -14 36.501
s1.33301 28.834 4 42.501s7.66699 29.5 15 47.5c12 28.667 22.5 51 31.5 67s13.5 26.5 13.5 31.5s-2.66699 7.5 -8 7.5c-10.667 0 -31 -13 -61 -39c-20.667 -19.333 -51.167 -55.833 -91.5 -109.5s-63.166 -82.167 -68.499 -85.5c-24 -12 -39 -18 -45 -18s-9 1 -9 3
s0.666992 4.83301 2 8.5l19.5 54.5l38 107.5c13.667 39 22 62.5 25 70.5s5 14.833 6 20.5s2.16699 10.5 3.5 14.5s3.83301 8.5 7.5 13.5s8.5 7.66699 14.5 8s13.667 -0.333984 23 -2.00098s14 -5.83398 14 -12.501c0 -4.66699 -3.66699 -14.834 -11 -30.501
s-28.333 -69.5 -63 -161.5c24 29.333 54.333 63.166 91 101.499s67.667 67.5 93 87.5c25.333 18 46 27 62 27z" />
    <glyph glyph-name="o" unicode="o" horiz-adv-x="351" 
d="M247 110c12 24.667 18.0039 43.666 18.0039 56.999s-1.5 23.833 -4.5 31.5s-1.66699 14.167 4 19.5s12.834 7.33301 21.501 6c13.333 -3.33301 20 -18.333 20 -45s-15.667 -61.667 -47 -105c0.666992 -18 10 -27 28 -27s45.333 19.333 82 58
c17.333 20 28.166 33 32.499 39s8.16602 8.16699 11.499 6.5s5 -3.16699 5 -4.5c0 -6.66699 -12 -24 -36 -52c-38 -46.667 -71.667 -70 -101 -70c-19.333 0 -33 8.33301 -41 25c-13.333 -14 -26.333 -27 -39 -39c-26 -22 -55 -33 -87 -33c-18 0 -33 4.33301 -45 13
c-23.333 14 -35 39 -35 75c0 39.333 13.333 79.333 40 120c15.333 24 33.333 45 54 63c32.667 28.667 63.667 43 93 43c7.33301 0 14.333 -1 21 -3c20 -6.66699 30 -19.334 30 -38.001c0 -15.333 -4 -23 -12 -23c-3.33301 1.33301 -5 6.33301 -5 15c0 12 -6.66699 18 -20 18
c-23.333 0 -53.333 -21.333 -90 -64s-58.667 -85.667 -66 -129c-1.33301 -7.33301 -2 -15.5 -2 -24.5s3 -19.333 9 -31s17.167 -17.5 33.5 -17.5s34.166 7.33301 53.499 22s36.666 33.334 51.999 56.001l-3 6c-2.66699 10.667 -1.33398 19.334 3.99902 26.001
s12.333 8.66699 21 6z" />
    <glyph glyph-name="p" unicode="p" horiz-adv-x="370" 
d="M353 208c0 -29.333 -12.002 -59.1709 -36.002 -89.5039s-52.333 -56.833 -85 -79.5c-30 -19.333 -60.5 -34.333 -91.5 -45s-54.333 -16 -70 -16s-28.5 1.66699 -38.5 5c-14.667 -34 -35 -91 -61 -171c-2.66699 -8.66699 -4.16699 -19.5 -4.5 -32.5
s-4.33301 -30.667 -12 -53s-15.167 -40.166 -22.5 -53.499c-3.33301 -8 -13 -14.5 -29 -19.5s-27.333 -7.5 -34 -7.5s-10 3.33301 -10 10c0 2.66699 1 6.33398 3 11.001c30.667 62.667 69.334 154.834 116.001 276.501s72.334 189.167 77.001 202.5l20 58
c14.667 42.667 22.667 74.667 24 96c0 8 10.667 12 32 12s32 -7.66699 32 -23c0 -11.333 -6.5 -27.166 -19.5 -47.499s-32.167 -60.833 -57.5 -121.5c38.667 58.667 70 97 94 115c32 26 63 39 93 39c12 0 24 -2 36 -6c26 -9.33301 40.333 -24.333 43 -45
c0.666992 -5.33301 1 -10.333 1 -15zM303.998 221.995c0 23.333 -9.00098 35 -27.001 35c-10.667 0 -28 -6.33301 -52 -19s-48 -31.667 -72 -57s-42.5 -49.166 -55.5 -71.499s-25.167 -45.333 -36.5 -69l-20 -41.5c40.667 0 85.334 17.667 134.001 53s85 73.666 109 114.999
c13.333 20.667 20 39 20 55z" />
    <glyph glyph-name="q" unicode="q" horiz-adv-x="457" 
d="M166 250.5c30.667 19 53.502 30.6719 68.502 35.0049s35.667 6.5 62 6.5s47.166 -6 62.499 -18l26 59c8.66699 10 22 15 40 15c22 0 33 -4.83301 33 -14.5s-11.333 -24.834 -34 -45.501c-28.667 -22.667 -68.334 -112.334 -119.001 -269.001
c6.66699 -12 14.834 -18 24.501 -18s21.667 3.83301 36 11.5s37 25.5 68 53.5s56.167 55.333 75.5 82c2.66699 3.33301 5.66699 4.16602 9 2.49902s5 -3.33398 5 -5.00098s-0.666992 -3.5 -2 -5.5c-10 -18 -28 -41 -54 -69s-51.333 -50.667 -76 -68
c-20 -16.667 -43.333 -25 -70 -25h-6c8 -35.333 14 -75.333 18 -120s6 -74.5 6 -89.5v-30.5c-4.66699 -44.667 -16.167 -76.834 -34.5 -96.501s-37.166 -29.5 -56.499 -29.5c-26.667 0 -49.334 13.667 -68.001 41c-10.667 15.333 -16 38.333 -16 69
c0 33.333 13.667 87.333 41 162l20.5 56c5.66699 16 22.167 58.5 49.5 127.5s41.333 104.833 42 107.5c-106.667 -124 -182.334 -186 -227.001 -186c-10.667 0 -22.167 3.16699 -34.5 9.5s-22.833 15.5 -31.5 27.5s-13 24.667 -13 38c0 36.667 22.333 76 67 118
c28 26.667 57.333 49.5 88 68.5zM351.002 258.005c-8 4 -22 6.00098 -42 6.00098s-45.833 -8.16699 -77.5 -24.5s-61.5 -36.833 -89.5 -61.5c-23.333 -22 -43.833 -46.833 -61.5 -74.5s-26.5 -47.834 -26.5 -60.501c0 -24.667 7 -37 21 -37s35.333 11.333 64 34
c74 60.667 140 122 198 184zM296.002 -30.9941c0 5.33301 -1 7.99902 -3 7.99902s-4 -3 -6 -9s-8.5 -22.5 -19.5 -49.5s-19.167 -47.833 -24.5 -62.5c-18 -47.333 -28.167 -81.666 -30.5 -102.999s-3.5 -36.5 -3.5 -45.5s0.333008 -17.5 1 -25.5
c2 -28.667 12.667 -43 32 -43c48.667 0 73 48 73 144c0 49.333 -6.33301 111.333 -19 186z" />
    <glyph glyph-name="r" unicode="r" horiz-adv-x="315" 
d="M172 -25c-34 0 -50.999 20.5039 -50.999 61.5039s29.333 91.5 88 151.5c4.66699 4.66699 8 8.33398 10 11.001l7 10c9.33301 12.667 13.666 20.667 12.999 24l-3 9c-2.66699 8 -13.667 13.833 -33 17.5s-35 5.5 -47 5.5c-60 -84.667 -94.667 -133 -104 -145
s-15.666 -17 -18.999 -15s-5 4.33301 -5 7s2 6.66699 6 12c36 44 67 91 93 141c-8 1.33301 -14 4.16602 -18 8.49902s-4.33301 11.666 -1 21.999s13.5 24.166 30.5 41.499s31.833 29 44.5 35s20.667 9.66699 24 11s7 2 11 2c8 0 5.33301 -12 -8 -36l-39 -62
c30 -2 55.667 -3 77 -3l35 1c11.333 0 19.666 -1.5 24.999 -4.5s6.66602 -8.16699 3.99902 -15.5c-4.66699 -12.667 -16.334 -29.667 -35.001 -51c-40 -46.667 -70 -96.334 -90 -149.001c-4.66699 -12.667 -7 -23.667 -7 -33c0 -19.333 7 -29 21 -29
c4.66699 0 13.5 3.66699 26.5 11s34.833 24.833 65.5 52.5s55.334 54.834 74.001 81.501c2.66699 3.33301 5.83398 4.16602 9.50098 2.49902s5.5 -3.33398 5.5 -5.00098s-0.666992 -3.5 -2 -5.5c-10 -18 -28 -41 -54 -69s-51.333 -50.667 -76 -68
c-24 -18.667 -50 -28 -78 -28z" />
    <glyph glyph-name="s" unicode="s" horiz-adv-x="296" 
d="M50 -10c-8.66699 -10 -10.501 -18.0039 -5.50098 -24.0039s10.667 -9 17 -9s12.833 1 19.5 3c28.667 8.66699 56.5 25.834 83.5 51.501s40.5 51.834 40.5 78.501c0 14.667 -16.333 30.667 -49 48c-15.333 8 -24 12.667 -26 14c-18 12 -29.333 24 -34 36
c-9.33301 -16 -24.333 -39 -45 -69c-4.66699 -5.33301 -9 -6.5 -13 -3.5s-4.33301 7.16699 -1 12.5c27.333 37.333 45.333 68.666 54 93.999c4.66699 36.667 31.334 69.667 80.001 99s93 44 133 44c25.333 0 43.166 -4.5 53.499 -13.5s15.5 -17.833 15.5 -26.5
s-2.5 -18.667 -7.5 -30s-15.167 -22 -30.5 -32c-4 -2.66699 -7.33301 -2 -10 2c-1.33301 4 1.5 9.5 8.5 16.5s11.5 16.5 13.5 28.5s-3.33301 19.333 -16 22h-6c-26 0 -58.5 -9.66699 -97.5 -29s-69.5 -44.333 -91.5 -75c-8.66699 -11.333 -13 -22.833 -13 -34.5
s8 -22.167 24 -31.5c6.66699 -4 18 -10.333 34 -19s27.333 -15 34 -19s14.667 -10.333 24 -19s14.333 -16.667 15 -24c3.33301 -20 -6 -42 -28 -66c-31.333 -34.667 -78 -59 -140 -73c-14 -3.33301 -28.167 -5 -42.5 -5s-24.166 5.33301 -29.499 16
c-2 2.66699 -3 6.83398 -3 12.501s5.33301 14.834 16 27.501c10 10 26 19.667 48 29c2 0.666992 3.66699 0.333984 5 -0.999023s1.66602 -3 0.999023 -5s-4.16699 -4.33301 -10.5 -7s-13.166 -9 -20.499 -19z" />
    <glyph glyph-name="t" unicode="t" 
d="M200 280c51.333 4.66699 82.501 7.00391 93.501 7.00391s16.5 -1.66699 16.5 -5c0 -4 -7.83301 -8.16699 -23.5 -12.5s-53.834 -9.83301 -114.501 -16.5l-12 -21c-10 -16 -15.333 -25.667 -16 -29c-38 -76 -58 -124.333 -60 -145c-0.666992 -6 -1 -13.667 -1 -23
s2.66699 -17 8 -23c9.33301 -10.667 22.666 -11.334 39.999 -2.00098s41.5 28 72.5 56s56.167 55.333 75.5 82c2.66699 3.33301 6 4 10 2c10 -4.66699 -7.33301 -31 -52 -79c-42.667 -46 -78.334 -74.333 -107.001 -85c-16.667 -6 -30.667 -9 -42 -9
c-26.667 0 -44.334 12.667 -53.001 38c-1.33301 4.66699 -2 10.334 -2 17.001c0 23.333 10.667 58.666 32 105.999c-3.33301 -7.33301 -16.333 -24 -39 -50c-6 -6.66699 -10.667 -6.66699 -14 0c-0.666992 1.33301 -1 3.16602 -1 5.49902s1.33301 5.16602 4 8.49902
c32.667 40.667 58.334 75 77.001 103c0 0.666992 7.33301 14.667 22 42c-6.66699 -1.33301 -13.5 -2 -20.5 -2s-12.167 2.16699 -15.5 6.5s-3.66602 9.5 -0.999023 15.5c4.66699 10.667 22.334 16.667 53.001 18c0.666992 1.33301 2 2 4 2l50 93
c2.66699 5.33301 5.66699 10.833 9 16.5l7.5 13l5.5 9.5c2 3.33301 3.66699 5.66602 5 6.99902l4 4c2.66699 4 10.5 6 23.5 6s21.833 -3.66699 26.5 -11c2 -2.66699 3 -7.16699 3 -13.5s-2.33301 -13.333 -7 -21s-9.66699 -13.167 -15 -16.5s-9 -7 -11 -11l-48 -84z" />
    <glyph glyph-name="u" unicode="u" horiz-adv-x="445" 
d="M456 71c-26 -28 -49.3369 -49.6689 -70.0039 -65.002c-26.667 -19.333 -55.667 -29 -87 -29c-6 0 -13.833 2.83301 -23.5 8.5s-16.167 13.834 -19.5 24.501s-5 21 -5 31c0 34.667 6.66699 69 20 103c-2 -1.33301 -11.167 -15.5 -27.5 -42.5s-36.333 -52.5 -60 -76.5
s-47.5 -36 -71.5 -36c-11.333 0 -24.333 3 -39 9c-26.667 12 -40 34 -40 66c0 39.333 13.5 79.833 40.5 121.5s44.167 63.834 51.5 66.501c10 2.66699 19.5 4 28.5 4s18.167 -1.83301 27.5 -5.5s8 -9.83398 -4 -18.501c-46 -42 -78.667 -88.667 -98 -140
c-7.33301 -20 -11 -36.833 -11 -50.5s3.5 -22.5 10.5 -26.5s13.833 -6 20.5 -6c16 0 37.833 11.167 65.5 33.5s65.834 68.833 114.501 139.5c6.66699 10 18.334 29.5 35.001 58.5s26.667 46.167 30 51.5c10.667 0 23.167 -2.5 37.5 -7.5s19.166 -11.5 14.499 -19.5
c-32 -53.333 -54.5 -92.666 -67.5 -117.999s-21.833 -55 -26.5 -89c-0.666992 -6 -1 -13.667 -1 -23s2.66699 -17 8 -23c10 -10.667 23.833 -11.167 41.5 -1.5s41.834 28.334 72.501 56.001s55.334 54.834 74.001 81.501c2.66699 3.33301 5.83398 4.16602 9.50098 2.49902
s5.5 -3.33398 5.5 -5.00098s-0.666992 -3.5 -2 -5.5c-10 -18 -28 -41 -54 -69z" />
    <glyph glyph-name="v" unicode="v" horiz-adv-x="315" 
d="M92 223c0 32 -9.33594 48 -28.0029 48c-4 0 -8.16699 -0.5 -12.5 -1.5s-6.5 -0.166992 -6.5 2.5s2 6 6 10c4 3.33301 17.667 6 41 8c28 0 45.5 -4 52.5 -12s10.5 -16 10.5 -24s-6.16699 -27.833 -18.5 -59.5s-18.833 -48.167 -19.5 -49.5c-20 -60 -29 -97.667 -27 -113
c60 80.667 99.333 131 118 151c39.333 43.333 67.333 73 84 89c38.667 36 72.667 60.333 102 73c8.66699 3.33301 16.334 5 23.001 5c22 0 37 -6.66699 45 -20c2.66699 -3.33301 4 -6.5 4 -9.5s-1 -6.5 -3 -10.5s-5.66699 -3.83301 -11 0.5s-17.333 6.5 -36 6.5
c-30.667 0 -82 -36 -154 -108c-43.333 -44.667 -83.166 -91.334 -119.499 -140.001s-55.833 -83.334 -58.5 -104.001c0 -5.33301 -5 -8 -15 -8s-17.5 4.16699 -22.5 12.5s-7.5 15.333 -7.5 21s0.333008 10.667 1 15s7.33398 28.833 20.001 73.5s20.667 74.334 24 89.001
c-8 -13.333 -19 -29.666 -33 -48.999c-4.66699 -5.33301 -8.5 -6.83301 -11.5 -4.5s-4.5 4.5 -4.5 6.5s0.666992 4.33301 2 7c28 38 46.333 69.667 55 95z" />
    <glyph glyph-name="w" unicode="w" horiz-adv-x="550" 
d="M140.5 187.5c-25.667 -33.667 -43.334 -63.5 -53.001 -89.5s-14.5 -47.333 -14.5 -64s7.16699 -25 21.5 -25s34.5 10.333 60.5 31c42 34.667 89.333 99 142 193c2.66699 4.66699 7.5 7 14.5 7s16.667 -1.83301 29 -5.5s18.5 -8.5 18.5 -14.5c0 -2 -0.666992 -4 -2 -6
c-28 -45.333 -45.667 -96.666 -53 -153.999c-2.66699 -19.333 0.666016 -35 9.99902 -47c8.66699 -12 26.334 -10.667 53.001 4c41.333 20.667 79.166 53 113.499 97s55.5 83.667 63.5 119c2.66699 7.33301 4 15.333 4 24c0 37.333 -10.667 60 -32 68
c-6 2.66699 -12.667 3.5 -20 2.5s-11.666 -0.666992 -12.999 1s-1.66602 3.5 -0.999023 5.5c1.33301 6 15 9 41 9c43.333 0 65 -22.333 65 -67s-25.333 -98.334 -76 -161.001c-32 -38 -69.667 -73 -113 -105c-24 -16.667 -49 -25 -75 -25c-34 0 -55 12.667 -63 38
c-4.66699 12 -7 31 -7 57s3.33301 47.333 10 64c-18 -36 -37.667 -66.333 -59 -91s-39.5 -41.5 -54.5 -50.5s-30.167 -13.5 -45.5 -13.5c-26.667 0 -45.334 7.16699 -56.001 21.5s-16 29.833 -16 46.5c0 22 4.83301 45.833 14.5 71.5s19.334 46 29.001 61
s22.334 33 38.001 54s25.834 32.5 30.501 34.5c10 2.66699 19.5 4 28.5 4s16.833 -1.33301 23.5 -4s10.167 -6 10.5 -10s-4.33398 -10 -14.001 -18s-27.334 -28.833 -53.001 -62.5z" />
    <glyph glyph-name="x" unicode="x" horiz-adv-x="410" 
d="M427 264c0 -8 -7.66406 -11.9961 -22.9971 -11.9961c-34.667 -13.333 -66.334 -32.333 -95.001 -57l-72 -56c0 -19.333 12.333 -51.333 37 -96c11.333 -22 25.833 -33 43.5 -33s38.5 12.333 62.5 37c11.333 12 38.666 45.667 81.999 101c3.33301 4 6.5 5 9.5 3
s4.5 -4 4.5 -6s-0.666992 -4.33301 -2 -7c-30.667 -46.667 -61.334 -84.667 -92.001 -114c-31.333 -28.667 -60.333 -43 -87 -43c-5.33301 0 -10.666 0.666992 -15.999 2c-33.333 7.33301 -61.666 46 -84.999 116c-136 -138 -205.333 -235.333 -208 -292
c0 -8 -2.33301 -12 -7 -12l-5 2c-2.66699 2.66699 -4 6 -4 10c0 36 17.667 79.5 53 130.5s70.666 95.167 105.999 132.5s53 57 53 59c0 16 -4.66699 32.167 -14 48.5s-17 25.666 -23 27.999s-12.333 1.5 -19 -2.5c-10.667 -6.66699 -21.5 -17.167 -32.5 -31.5
s-17.333 -22.5 -19 -24.5l-6.5 -8c-2.66699 -3.33301 -5.66699 -6.83301 -9 -10.5s-6.83301 -5.33398 -10.5 -5.00098s-5.5 2.16602 -5.5 5.49902s1.33301 6.83301 4 10.5l23.5 31.5l33 43.5c9 11.667 19.667 22.834 32 33.501s23.166 16 32.499 16s18 -3.33301 26 -10
s13.333 -13.334 16 -20.001s6.5 -18.5 11.5 -35.5s8.5 -28.5 10.5 -34.5c50 49.333 100 89.666 150 120.999c5.33301 2 10.333 3 15 3l15 -3c10 -4.66699 15 -11.667 15 -21z" />
    <glyph glyph-name="y" unicode="y" horiz-adv-x="416" 
d="M13 -381c-5.33301 0 -12.0049 0.99707 -20.0049 2.99707c-34 8.66699 -51 26.5 -51 53.5s17.5 60.833 52.5 101.5s108.833 98.334 221.5 173.001c62.667 128 102.334 217.667 119.001 269c-8 -9.33301 -23.667 -29.5 -47 -60.5s-44 -57.333 -62 -79
s-39.667 -42.167 -65 -61.5s-48.666 -29 -69.999 -29s-37.833 4.83301 -49.5 14.5s-18.167 19.834 -19.5 30.501s-2 19.667 -2 27c0 24.667 6.66699 49.334 20 74.001c20 40.667 47 75.667 81 105c12.667 12 23.834 18 33.501 18s18.5 -3 26.5 -9
c8.66699 -9.33301 11.334 -17.333 8.00098 -24c-25.333 -14.667 -54.333 -43 -87 -85c-17.333 -22.667 -29.333 -51.334 -36 -86.001c-0.666992 -4.66699 -1 -10.5 -1 -17.5s2.83301 -12.667 8.5 -17s11.5 -6.5 17.5 -6.5c20.667 0 42.334 11 65.001 33
s44.334 45.167 65.001 69.5s44.167 53.5 70.5 87.5l52 67c8.33301 10.667 16.833 16 25.5 16c10.667 0 21.667 -3 33 -9s16.166 -10.667 14.499 -14s-18.667 -41.166 -51 -113.499l-70.5 -155.5c16 8.66699 43.167 29.167 81.5 61.5s70.833 65.166 97.5 98.499
c6.66699 8 11 8.66699 13 2c0.666992 -1.33301 1 -3.5 1 -6.5s-2 -7.16699 -6 -12.5c-20.667 -27.333 -53.667 -61.666 -99 -102.999s-81.333 -69.333 -108 -84c-56.667 -116.667 -94.667 -190 -114 -220c-50 -74 -99.333 -111 -148 -111zM196.995 -88.0029
c-80 -60 -137.166 -107.335 -171.499 -142.002s-51.5 -64.5 -51.5 -89.5s8.66699 -37.5 26 -37.5c13.333 0 28.666 6.83301 45.999 20.5s34 31.834 50 54.501s28.167 42.167 36.5 58.5s19.833 40.333 34.5 72s24.667 52.834 30 63.501z" />
    <glyph glyph-name="z" unicode="z" horiz-adv-x="422" 
d="M302 212c-47.333 14.667 -83.1729 21.999 -107.506 21.999s-47.5 -10.167 -69.5 -30.5s-42 -43.166 -60 -68.499c-10.667 -12.667 -18 -17.334 -22 -14.001s-3.66699 8.66602 1 15.999l67 92c12.667 18 28.334 32 47.001 42c6 3.33301 11.667 5 17 5
s11 -0.166992 17 -0.5s11.167 -0.666016 15.5 -0.999023s13.5 -2.33301 27.5 -6l25 -6.5l77 -18c10.667 10 22.167 17.333 34.5 22s21.833 7 28.5 7s11.667 -3.66699 15 -11c0.666992 -16 -8.5 -29.667 -27.5 -41s-32.667 -17 -41 -17s-14.166 0.333008 -17.499 1
c-58 -47.333 -104.667 -86.666 -140 -117.999s-55 -48.666 -59 -51.999l30 -15c46 -26.667 80.667 -40 104 -40c15.333 0 32.333 5.33301 51 16s45.334 32.167 80.001 64.5s61.334 61.5 80.001 87.5c3.33301 4.66699 7.16602 6.16699 11.499 4.5s6.5 -3.16699 6.5 -4.5
c0 -9.33301 -20.5 -35 -61.5 -77s-71.5 -70.333 -91.5 -85c-33.333 -24.667 -65.666 -37 -96.999 -37s-67.666 13 -108.999 39c-15.333 9.33301 -28.333 15.666 -39 18.999c-30 -22.667 -52.667 -34 -68 -34c-4 0 -7.66699 0.666992 -11 2c-4.66699 4.66699 -7 11 -7 19
s4 17 12 27c12.667 17.333 31.334 26 56.001 26c12 0 25 -2.33301 39 -7c18.667 15.333 29 24.333 31 27c33.333 28.667 85 77 155 145z" />
    <glyph glyph-name="braceleft" unicode="{" horiz-adv-x="414" 
d="M401 547c6.66699 0 10 -3.16699 10 -9.5s-3.33301 -9.5 -10 -9.5c-32.667 0 -56.167 -1.66699 -70.5 -5s-26 -9 -35 -17s-17.333 -17.667 -25 -29s-13.834 -22.5 -18.501 -33.5s-8.16699 -20.167 -10.5 -27.5s-5.5 -18 -9.5 -32c-14 -48 -28.333 -77.167 -43 -87.5
s-38 -18.166 -70 -23.499c29.333 -15.333 44 -37 44 -65c0 -18 -6 -34.333 -18 -49c-0.666992 -1.33301 -5 -7.83301 -13 -19.5s-13.167 -19.334 -15.5 -23.001s-6.33301 -10.667 -12 -21s-9.5 -18.5 -11.5 -24.5c-5.33301 -16 -6.83301 -34.333 -4.5 -55
s14.833 -36.334 37.5 -47.001c16.667 -8 30 -12 40 -12s17.667 0.666992 23 2s8 -0.666992 8 -6c-1.33301 -6 -5 -9.66699 -11 -11c-10 -0.666992 -19.333 -1 -28 -1h-23c-19.333 0.666992 -38.333 7.66699 -57 21c-22 15.333 -33 37 -33 65c0 30 9.66699 60.333 29 91
c8 12.667 19.667 29.834 35 51.501s23 39.834 23 54.501c0 21.333 -22 35.666 -66 42.999c-6 0.666992 -8.83301 4.16699 -8.5 10.5s3.5 9.5 9.5 9.5c60 0 97.667 10.333 113 31c8 10.667 12.667 21.5 14 32.5s2.33301 24.667 3 41s1.66699 28.5 3 36.5
c4 25.333 16.333 49.333 37 72s48.334 37 83.001 43c14.667 2.66699 41.667 4 81 4z" />
    <glyph glyph-name="bar" unicode="|" horiz-adv-x="257" 
d="M162 -61h-33v633h33v-633z" />
    <glyph glyph-name="braceright" unicode="}" horiz-adv-x="466" 
d="M130 -50c-28 -7.33301 -51.5 -11.001 -70.5 -11.001s-28.5 2.33301 -28.5 7c0 2 1.5 5 4.5 9s6.83301 5.33301 11.5 4s12.167 -2 22.5 -2s29.166 4.66699 56.499 14s53.333 26.666 78 51.999c14 15.333 25.333 32.333 34 51s13.834 32.334 15.501 41.001
s4.16699 23.334 7.5 44.001c2.66699 20.667 14.167 41.5 34.5 62.5s49.166 38.167 86.499 51.5c-19.333 4 -32.666 8 -39.999 12s-11 11.5 -11 22.5s3.33301 22.833 10 35.5l27 49c25.333 45.333 37.333 78 36 98c-1.33301 10.667 -3.33301 17.667 -6 21s-5 6 -7 8
s-5.5 3.5 -10.5 4.5s-8.83301 1.83301 -11.5 2.5s-7.5 1.16699 -14.5 1.5s-12.5 0.5 -16.5 0.5h-22c-7.33301 0 -8 3 -2 9s11.667 9.33301 17 10c40 0 66 -1.33301 78 -4c30.667 -6 46 -22.333 46 -49c0 -22 -7.66699 -44 -23 -66l-28.5 -36.5
c-13 -16.333 -23.5 -30 -31.5 -41s-12.333 -21.667 -13 -32s4 -17.833 14 -22.5c14.667 -6 38.667 -9 72 -9c7.33301 0 8.33301 -3.16699 3 -9.5s-11.333 -9.83301 -18 -10.5c-42 -6 -72.167 -16.667 -90.5 -32s-29.833 -38.666 -34.5 -69.999
c-8.66699 -62.667 -29.5 -111.334 -62.5 -146.001s-70.5 -57.667 -112.5 -69z" />
    <glyph glyph-name="asciitilde" unicode="~" horiz-adv-x="409" 
d="M362 354c-11.333 -8 -21.335 -12.001 -30.002 -12.001s-16 1 -22 3s-15.333 5.83301 -28 11.5s-22 9.5 -28 11.5c-26.667 9.33301 -45 11.333 -55 6c-22 -5.33301 -38.667 -17 -50 -35c-1.33301 -2 -3.16602 -3 -5.49902 -3s-4.5 0.666992 -6.5 2s-3 2.5 -3 3.5
s3.5 6.33301 10.5 16s14.333 19.167 22 28.5s17.334 17 29.001 23s21.834 9 30.501 9l18 -3c5.33301 -2 17.666 -7.66699 36.999 -17c30 -15.333 51 -23 63 -23c19.333 0 33 11 41 33c2.66699 4 6.16699 5 10.5 3s6.5 -3.66699 6.5 -5
c0 -15.333 -13.333 -32.666 -40 -51.999z" />
    <glyph glyph-name="DEL" horiz-adv-x="1500" 
 />
    <glyph glyph-name="uni00A0" unicode="&#xa0;" horiz-adv-x="219" 
 />
    <glyph glyph-name="exclamdown" unicode="&#xa1;" horiz-adv-x="286" 
d="M204 247c-40 -112 -77.168 -207.999 -111.501 -287.999s-53.5 -122.667 -57.5 -128s-8.16699 -8 -12.5 -8s-11.666 3.66699 -21.999 11s-15.5 17.666 -15.5 30.999s8 33.333 24 60c2 4 5.66699 8.33301 11 13s9 9.33398 11 14.001
c72.667 139.333 119 239.666 139 300.999c2.66699 6 9.5 9.83301 20.5 11.5s16.167 -1.83301 15.5 -10.5zM259.999 392.001c0 -4.66699 -7.66797 -13.168 -23.001 -25.501s-24.166 -18.666 -26.499 -18.999s-4.5 -0.5 -6.5 -0.5s-3.16699 1.16699 -3.5 3.5
s-0.5 5.83301 -0.5 10.5v11c0 3.33301 3.5 10.333 10.5 21s12.167 16 15.5 16c22.667 0 34 -5.66699 34 -17z" />
    <glyph glyph-name="cent" unicode="&#xa2;" horiz-adv-x="461" 
d="M409 452l-19.002 -1.99609c-78 -121.333 -145.667 -242 -203 -362c6 -0.666992 15.833 -1 29.5 -1s31.167 3.33301 52.5 10c61.333 16.667 113.666 43.667 156.999 81c13.333 10.667 20 12.167 20 4.5s-5 -15.834 -15 -24.501c-57.333 -50 -120.333 -80.333 -189 -91
c-16 -3.33301 -29.667 -5 -41 -5s-20 0.333008 -26 1c-6.66699 -16 -16.667 -38.667 -30 -68c-5.33301 -11.333 -15.666 -17.666 -30.999 -18.999c-10.667 0 -15.667 3.66699 -15 11c1.33301 9.33301 14 37.666 38 84.999c-51.333 17.333 -77 55.666 -77 114.999
c0 40 18 83.167 54 129.5s79 85.166 129 116.499s95.333 48.666 136 51.999c18.667 34 32.334 51 41.001 51c11.333 0 16 -6 14 -18c0 -2 -1 -4 -3 -6l-19 -28l12 -2c25.333 -9.33301 38 -24 38 -44c0 -5.33301 -1 -11.333 -3 -18l-7 -14
c-4 -8.66699 -8.66699 -16.667 -14 -24s-10.166 -8 -14.499 -2s-4 14.167 1 24.5s7.5 19.833 7.5 28.5c0 12.667 -7.66699 19 -23 19zM104.998 155.004c0 -28.667 15.334 -48 46.001 -58c58 108 124.333 222.333 199 343c-66 -22 -124 -64.667 -174 -128
c-28.667 -36.667 -50.334 -77.667 -65.001 -123c-4 -12.667 -6 -24 -6 -34z" />
    <glyph glyph-name="sterling" unicode="&#xa3;" horiz-adv-x="549" 
d="M16 -8c0.666992 18 7.33008 35.502 19.9971 52.502s28 27.167 46 30.5l62 158c-45.333 -6 -71.666 -9 -78.999 -9s-14 2.33301 -20 7s-9 10.5 -9 17.5s7.5 13.5 22.5 19.5s26.5 9 34.5 9s14.667 -2.83301 20 -8.5s8.83301 -8.5 10.5 -8.5s12.5 1 32.5 3
c49.333 115.333 99.666 202.333 150.999 261c23.333 25.333 50.333 43.333 81 54c15.333 4.66699 30.5 7 45.5 7s30.167 -2.66699 45.5 -8c40.667 -16.667 60.667 -44 60 -82c-2.66699 -22.667 -9.33398 -41.667 -20.001 -57c-4 -5.33301 -8.16699 -8.16602 -12.5 -8.49902
s-7 1.5 -8 5.5s0.166992 9.66699 3.5 17c6.66699 10.667 9.83398 26.834 9.50098 48.501s-7.16602 36.667 -20.499 45s-24.666 12.5 -33.999 12.5c-25.333 0 -51 -8.66699 -77 -26c-46 -32 -105.333 -120 -178 -264c40.667 4.66699 72.5 7 95.5 7s34.5 -1.33301 34.5 -4
c0 -9.33301 -47.667 -20.333 -143 -33l-78 -161l19 -5.5c8 -2.33301 13.667 -3.83301 17 -4.5c66 -22.667 132.667 -38.667 200 -48c15.333 -2 30 -3 44 -3c49.333 0 89.5 12.167 120.5 36.5s60.833 56.166 89.5 95.499c2.66699 3.33301 5.83398 4.16602 9.50098 2.49902
s5.5 -3.33398 5.5 -5.00098s-0.666992 -3.5 -2 -5.5c-10 -18 -28 -41 -54 -69s-51.833 -51.167 -77.5 -69.5s-58.834 -27.5 -99.501 -27.5c-18.667 0 -37.167 1.66699 -55.5 5s-58.166 13.166 -119.499 29.499s-97 26.5 -107 30.5l-24 -22
c-8.66699 -12 -15.167 -19 -19.5 -21s-6.83301 -2.66699 -7.5 -2c-4 -2.66699 -7 -4 -9 -4c-8 -4.66699 -14.167 -7 -18.5 -7s-6.5 3 -6.5 9z" />
    <glyph glyph-name="currency" unicode="&#xa4;" horiz-adv-x="1500" 
 />
    <glyph glyph-name="yen" unicode="&#xa5;" horiz-adv-x="509" 
d="M151 47c0 15.333 26.333 38.335 79 69.002c78 46 141 92 189 138c-20 35.333 -44.667 67 -74 95l-38 34.5l-31.5 28.5c-6.33301 6 -9.5 11.5 -9.5 16.5s1.66699 9.33301 5 13s8 5.5 14 5.5c8.66699 0 20.334 -6.5 35.001 -19.5s40.167 -33.333 76.5 -61
s59.166 -46.167 68.499 -55.5s15 -15.166 17 -17.499s3.66699 -4.83301 5 -7.5s2.33301 -4.5 3 -5.5s1 -2.33301 1 -4s-0.333008 -3.33398 -1 -5.00098s-2.16699 -3.83398 -4.5 -6.50098s-3.83301 -4.33398 -4.5 -5.00098s-3 -2.66699 -7 -6s-11.333 -10.166 -22 -20.499
s-31 -26.5 -61 -48.5s-55 -39.667 -75 -53c-51.333 -34 -99.333 -63.667 -144 -89c-10 -6.66699 -16.667 -6.66699 -20 0c-0.666992 1.33301 -1 2.66602 -1 3.99902zM435 -11.998c20 0 29.998 -4.33301 29.998 -13c0 -2 -2 -4.83301 -6 -8.5s-13.167 -6.16699 -27.5 -7.5
s-74.666 -3 -180.999 -5s-161.666 -3.16699 -165.999 -3.5s-7.16602 -0.5 -8.49902 -0.5c-12.667 0 -19 3.33301 -19 10c0 10 7.33301 18.333 22 25c3.33301 1.33301 6.66602 2 9.99902 2z" />
    <glyph glyph-name="section" unicode="&#xa7;" horiz-adv-x="532" 
d="M400 58c48 36 72.002 69.002 72.002 99.002c0 16.667 -7.66699 33.667 -23 51s-43.333 32 -84 44c-8 2 -23.667 5.33301 -47 10c-48 10 -83.333 21.667 -106 35c-24.667 -10.667 -45.334 -24.667 -62.001 -42s-25 -32.833 -25 -46.5s2.5 -24.334 7.5 -32.001
s10.5 -14 16.5 -19s15 -9.83301 27 -14.5s22 -8.33398 30 -11.001c25.333 -7.33301 46.666 -13 63.999 -17c62.667 -15.333 106 -34.333 130 -57zM447.002 553.002c88 0 132.002 -21.6709 132.002 -65.0039c0 -4.66699 -1.33301 -13 -4 -25c-4 -8 -8.16699 -10.5 -12.5 -7.5
s-6.5 8.5 -6.5 16.5c0 18 -14 30 -42 36c-19.333 4 -35.666 6 -48.999 6c-32 0 -66.167 -3.33301 -102.5 -10s-71 -19 -104 -37s-49.5 -40.333 -49.5 -67c0 -16.667 6.33301 -30 19 -40c19.333 -14 52.666 -27 99.999 -39l40 -10
c13.333 -3.33301 28.166 -8.16602 44.499 -14.499s32.833 -14.5 49.5 -24.5c35.333 -19.333 53 -47.333 53 -84c0 -25.333 -10.333 -51.666 -31 -78.999s-44 -49 -70 -65c12 -17.333 18 -35.666 18 -54.999c0 -33.333 -17.333 -65 -52 -95
c-52.667 -47.333 -117.334 -77 -194.001 -89c-38 -6 -71.5 -9 -100.5 -9s-54.667 5.66699 -77 17s-33.5 28.333 -33.5 51s5.33301 43.667 16 63c3.33301 6.66699 6.5 8.33398 9.5 5.00098s3 -9.16602 0 -17.499s-4.5 -18.333 -4.5 -30s7 -23.5 21 -35.5
c15.333 -12.667 39.333 -19 72 -19c64.667 0 116.834 6.5 156.501 19.5s73 30.833 100 53.5s40.5 45.667 40.5 69c0 34 -34.667 61 -104 81c-9.33301 2.66699 -25.5 6.5 -48.5 11.5s-41.833 9.66699 -56.5 14s-30.334 10.833 -47.001 19.5
c-33.333 16 -49.833 45.667 -49.5 89s38.833 83.666 115.5 120.999c-21.333 17.333 -32 40 -32 68v7c0 27.333 12.667 53 38 77c42 40.667 96.667 69 164 85c20.667 5.33301 47.667 8 81 8z" />
    <glyph glyph-name="dieresis" unicode="&#xa8;" horiz-adv-x="392" 
d="M246 401l-6 -27.001c0 -5.33301 -3.33301 -13.166 -10 -23.499s-12 -15.5 -16 -15.5c-22.667 0 -34 5.66699 -34 17c0 1.33301 9.33301 9.33301 28 24c22 18 33.833 27 35.5 27s2.5 -0.666992 2.5 -2zM405 400.999l-6 -27.001c0 -5.33301 -3.5 -13.166 -10.5 -23.499
s-12.5 -15.5 -16.5 -15.5c-22 0 -33 5.66699 -33 17c0 1.33301 9.33301 9.33301 28 24c22 18 33.833 27 35.5 27s2.5 -0.666992 2.5 -2z" />
    <glyph glyph-name="copyright" unicode="&#xa9;" horiz-adv-x="736" 
d="M434 74.5c-47.333 -26.333 -95.166 -39.5 -143.499 -39.5s-86.5 16 -114.5 48c-20.667 22.667 -31 51.334 -31 86.001s10.667 72.667 32 114c29.333 55.333 69.666 103.333 120.999 144s104.333 61 159 61s82 -21.333 82 -64c0 -18.667 -6 -34.167 -18 -46.5
s-25.167 -20.833 -39.5 -25.5s-20.833 -2.66699 -19.5 6c0.666992 6.66699 7 15.167 19 25.5s18 22.333 18 36s-5.33301 23.834 -16 30.501s-19.5 10 -26.5 10h-11.5c-34.667 0 -73.167 -19 -115.5 -57s-75.833 -82.333 -100.5 -133c-20.667 -40 -31 -74.667 -31 -104
c0 -34.667 9 -60.834 27 -78.501s41.667 -26.5 71 -26.5c36.667 0 77.667 12.167 123 36.5s83 55.833 113 94.5c3.33301 4.66699 7.33301 7.66699 12 9s8.5 -1.33398 11.5 -8.00098s1.5 -13 -4.5 -19c-30.667 -40 -69.667 -73.167 -117 -99.5zM680 284
c0 56.667 -17.668 108.667 -53.001 156c-56.667 75.333 -136.667 113 -240 113c-68.667 0 -133 -20.333 -193 -61c-71.333 -49.333 -115.333 -114 -132 -194c-4 -20.667 -6 -41 -6 -61c0 -56.667 17.667 -108.667 53 -156c56.667 -76 136.334 -114 239.001 -114
c68.667 0 133 20.667 193 62c72 49.333 116.333 114 133 194c4 20.667 6 41 6 61zM584.499 28.5c-77 -63.667 -164 -95.5 -261 -95.5s-175.5 31.667 -235.5 95c-50 52.667 -75 114.667 -75 186c0 109.333 45.667 202 137 278c76.667 64 163.5 96 260.5 96
s175.5 -32 235.5 -96c50.667 -53.333 76 -116.666 76 -189.999c0 -13.333 -1 -27.333 -3 -42c-12.667 -90.667 -57.5 -167.834 -134.5 -231.501z" />
    <glyph glyph-name="ordfeminine" unicode="&#xaa;" horiz-adv-x="650" 
d="M303.5 502c-29 -23.333 -55.8291 -34.9971 -80.4961 -34.9971s-45.334 11 -62.001 33c-10 13.333 -15 26.666 -15 39.999c0 36.667 24.667 76.667 74 120c29.333 26 60 48.333 92 67c48 28 89.667 42 125 42c21.333 0 39 -5 53 -15
c11.333 -6.66699 17 -15.334 17 -26.001c0 -4 -0.333008 -6.16699 -1 -6.5s-2.33398 0.166992 -5.00098 1.5c-8.66699 12.667 -25.334 19 -50.001 19s-53 -8.33301 -85 -25s-60.667 -36.667 -86 -60s-46.833 -48.833 -64.5 -76.5s-26.5 -47.834 -26.5 -60.501
c0 -24 7 -36 21 -36s38 13.667 72 41s63.667 54 89 80c61.333 66 94.333 99 99 99c8.66699 0 18.5 -2.16699 29.5 -6.5s14.5 -10.166 10.5 -17.499c-34 -48.667 -54 -97 -60 -145c-0.666992 -6 -1 -13.5 -1 -22.5s2.83301 -16.5 8.5 -22.5s11.667 -9 18 -9
s15.833 3.33301 28.5 10s34.5 24 65.5 52s56.167 55.333 75.5 82c2.66699 4 5.66699 5.16699 9 3.5s5 -3.16699 5 -4.5c0 -10 -15.833 -31.833 -47.5 -65.5s-55.834 -56.5 -72.501 -68.5c-31.333 -23.333 -60 -35 -86 -35s-43.333 12.667 -52 38c-2 8 -3 17 -3 27
c0 29.333 6.33301 60.666 19 93.999c-2.66699 -1.33301 -15 -14.5 -37 -39.5s-47.5 -49.167 -76.5 -72.5z" />
    <glyph glyph-name="guillemotleft" unicode="&#xab;" horiz-adv-x="379" 
d="M380 342c0 -12.667 -38.665 -56 -115.998 -130c28.667 -55.333 46.667 -91.5 54 -108.5s8 -27.833 2 -32.5c-0.666992 -0.666992 -1.66699 -1 -3 -1c-4 0 -8.33301 4 -13 12c-20.667 32.667 -49 67 -85 103c-3.33301 3.33301 -5 6.33301 -5 9s0.666992 4.83398 2 6.50098
s2.33301 3 3 4s5.66699 6 15 15l56.5 54.5c28.333 27.333 49.166 46.666 62.499 57.999s21.166 17 23.499 17s3.5 -2.33301 3.5 -7zM191.502 304l35.501 31.502c10.667 9 17 13.5 19 13.5s3 -2.5 3 -7.5s-4.33301 -12.5 -13 -22.5
c-28.667 -34.667 -62.667 -70.334 -102 -107.001c34.667 -69.333 54.167 -109.333 58.5 -120s3.16602 -17.667 -3.50098 -21c-0.666992 -0.666992 -1.66699 -1 -3 -1c-3.33301 0 -7.33301 4 -12 12c-20 31.333 -46.333 63.333 -79 96
c-7.33301 7.33301 -11 13.166 -11 17.499s0.5 7 1.5 8s7 6.5 18 16.5l42.5 40.5z" />
    <glyph glyph-name="logicalnot" unicode="&#xac;" horiz-adv-x="745" 
d="M658 26c-8 2 -12.332 6.33398 -12.999 13.001c2.66699 92.667 10 162.667 22 210c-270.667 -20 -474 -33.667 -610 -41c-10 -0.666992 -16.667 3 -20 11c-0.666992 1.33301 -1 2.66602 -1 3.99902c0 8 9.66699 12.667 29 14c62 2.66699 161.833 9.16699 299.5 19.5
s243.167 16.5 316.5 18.5c22.667 0 34 -5.33301 34 -16c0 -6 -1.5 -15 -4.5 -27s-5.16699 -21.833 -6.5 -29.5s-6.83301 -32.167 -16.5 -73.5s-15.834 -73 -18.501 -95c-3.33301 -5.33301 -7 -8 -11 -8z" />
    <glyph glyph-name="uni00AD" unicode="&#xad;" horiz-adv-x="377" 
d="M176 194l148 0.999023c36.667 0 55 -4 55 -12c0 -13.333 -71 -21.666 -213 -24.999h-5c-12 0 -18 3 -18 9c0 9.33301 7.33301 17.333 22 24c4 2 7.66699 3 11 3z" />
    <glyph glyph-name="registered" unicode="&#xae;" horiz-adv-x="736" 
d="M150 492c76.667 64 163.5 96 260.5 96s175.5 -32 235.5 -96c50.667 -53.333 76 -116.666 76 -189.999c0 -13.333 -1 -27.333 -3 -42c-12.667 -90.667 -57.5 -167.834 -134.5 -231.501s-164 -95.5 -261 -95.5s-175.5 31.667 -235.5 95c-50 52.667 -75 114.667 -75 186
c0 109.333 45.667 202 137 278zM56 237c0 -56.667 17.666 -108.667 52.999 -156c56.667 -76 136.334 -114 239.001 -114c68.667 0 133 20.667 193 62c72 49.333 116.333 114 133 194c4 20.667 6 41 6 61c0 56.667 -17.667 108.667 -53 156
c-56.667 75.333 -136.667 113 -240 113c-68.667 0 -133 -20.333 -193 -61c-71.333 -49.333 -115.333 -114 -132 -194c-4 -20.667 -6 -41 -6 -61zM522.999 364c8 14.667 12.001 27.3369 12.001 38.0039c0 35.333 -21.667 58 -65 68c-7.33301 3.33301 -16.166 5 -26.499 5
s-24.333 -1.33301 -42 -4s-34 -6 -49 -10s-32.333 -9.5 -52 -16.5s-30.167 -10.5 -31.5 -10.5c-4.66699 -1.33301 -8.83398 1.16699 -12.501 7.5s-5.5 11.166 -5.5 14.499c0 8 7.66699 14 23 18c50.667 13.333 91 20 121 20c68 0 117 -13.333 147 -40
c15.333 -14.667 23 -32 23 -52c0 -25.333 -7.66699 -48.666 -23 -69.999s-34 -38 -56 -50c-43.333 -24 -88 -40.667 -134 -50c16 -31.333 38.333 -61.333 67 -90l24 -23c3.33301 -3.33301 13.166 -12.166 29.499 -26.499s26 -23 29 -26s3.16699 -5.83301 0.5 -8.5
c-3.33301 -4 -8.33301 -6 -15 -6c-17.333 0 -47.5 22.333 -90.5 67s-73.167 80 -90.5 106c-17.333 -2.66699 -27.666 -3.33398 -30.999 -2.00098l-8 4c-26.667 -59.333 -44 -113.333 -52 -162c-4 -2.66699 -9.33301 -4.33398 -16 -5.00098s-11.334 1.66602 -14.001 6.99902
c-1.33301 19.333 18.5 81.166 59.5 185.499s67.833 164.5 80.5 180.5c4 4 12.5 3.5 25.5 -1.5s18.167 -10.5 15.5 -16.5l-45 -84c-20.667 -38 -36 -67 -46 -87c70.667 1.33301 132.667 20 186 56c28 19.333 48.667 40.666 62 63.999z" />
    <glyph glyph-name="macron" unicode="&#xaf;" horiz-adv-x="377" 
d="M246.5 356c-45.667 -2.66699 -76.166 -4 -91.499 -4s-23 3 -23 9c0 10 7.33301 18 22 24l10 3l148 1c35.333 0 53.666 -4 54.999 -12c0 -6.66699 -8.66699 -11.167 -26 -13.5s-48.833 -4.83301 -94.5 -7.5z" />
    <glyph glyph-name="degree" unicode="&#xb0;" horiz-adv-x="354" 
d="M265 548c1.33301 6.66699 1.99902 15.1689 1.99902 25.502s-5.83301 21 -17.5 32s-28.834 16.5 -51.501 16.5c-10.667 0 -19 -4.83301 -25 -14.5s-9 -18.834 -9 -27.501c0 -16.667 7.33301 -29.834 22 -39.501s29.334 -14.5 44.001 -14.5
c20.667 0 32.334 7.33301 35.001 22zM252.999 495.002c-8.66699 -2 -20.335 -3 -35.002 -3s-32.667 6.66699 -54 20c-28.667 18 -43 41.667 -43 71c0 16 6 31.5 18 46.5s24.333 23.667 37 26s23.334 3.5 32.001 3.5c22.667 0 43.834 -6.83301 63.501 -20.5
s29.5 -37.167 29.5 -70.5c0 -40.667 -16 -65 -48 -73z" />
    <glyph glyph-name="plusminus" unicode="&#xb1;" horiz-adv-x="615" 
d="M89 -13l345.996 1c13.333 0 22.333 -2.16699 27 -6.5s4.33398 -8.83301 -0.999023 -13.5s-15.166 -7.66699 -29.499 -9s-74.666 -3 -180.999 -5s-161.666 -3.16699 -165.999 -3.5s-7.16602 -0.5 -8.49902 -0.5c-12.667 0 -19 3.33301 -19 10c0 10 7.33301 18.333 22 25
c3.33301 1.33301 6.66602 2 9.99902 2zM511.996 245c20 0 30 -4.33398 30 -13.001c0 -2 -1.83301 -4.66699 -5.5 -8s-12.5 -5.66602 -26.5 -6.99902s-67.333 -2.66602 -160 -3.99902l-74 -173c-6 -13.333 -17 -20 -33 -20c-12 0 -13.333 9 -4 27l75 165
c-100 -2.66699 -152.333 -4 -157 -4c-15.333 -0.666992 -23 2.66602 -23 9.99902c0 9.33301 6.66699 17.333 20 24c4.66699 2 8.66699 3 12 3h163c40.667 88 63.667 137.333 69 148s11.5 16 18.5 16s10.5 -3.66699 10.5 -11c0 -5.33301 -2 -12.333 -6 -21l-56 -132h147z" />
    <glyph glyph-name="acute" unicode="&#xb4;" horiz-adv-x="181" 
d="M298 404l19.002 -5.99805c8 -4.66699 12 -10.667 12 -18c0 -8.66699 -2.33301 -14 -7 -16c-10.667 -8.66699 -37.834 -23.334 -81.501 -44.001s-69 -31.167 -76 -31.5s-10.5 0.5 -10.5 2.5s0.833008 4 2.5 6s6.16699 5.66699 13.5 11s15.833 11.166 25.5 17.499
s16.667 11.166 21 14.499l23.5 18c25.333 18.667 41.666 33.334 48.999 44.001c4 1.33301 7 2 9 2z" />
    <glyph glyph-name="mu" unicode="&#xb5;" horiz-adv-x="445" 
d="M-73.5 -331c-1.66699 -1.33301 -8.50195 -5.33301 -20.502 -12s-22.833 -10 -32.5 -10s-14.5 2.33301 -14.5 7c0 2 0.666992 4.66699 2 8c23.333 46 56 125.667 98 239c44 118.667 72.667 193 86 223c14 36 23.333 58.167 28 66.5l15 27.5
c10.667 21.333 18.334 32.666 23.001 33.999c10 2.66699 19.5 4 28.5 4s18 -1.66699 27 -5s7.83301 -10.5 -3.5 -21.5s-25.333 -29.167 -42 -54.5s-29.667 -50.5 -39 -75.5s-14 -44.333 -14 -58s3.5 -22.5 10.5 -26.5s13.833 -6 20.5 -6c16 0 37.833 11.167 65.5 33.5
s65.834 68.833 114.501 139.5c6.66699 10 18.334 29.5 35.001 58.5s26.667 46.167 30 51.5c10.667 0 23.167 -2.5 37.5 -7.5s19.166 -11.5 14.499 -19.5c-32 -53.333 -54.5 -92.666 -67.5 -117.999s-21.833 -55 -26.5 -89c-0.666992 -6 -1 -13.667 -1 -23s2.66699 -17 8 -23
c10 -10.667 23.833 -11.167 41.5 -1.5s41.834 28.334 72.501 56.001s55.334 54.834 74.001 81.501c2.66699 3.33301 5.83398 4.16602 9.50098 2.49902s5.5 -3.33398 5.5 -5.00098s-0.666992 -3.5 -2 -5.5c-10 -18 -28 -41 -54 -69c-42.667 -46 -78.334 -74.333 -107.001 -85
c-31.333 -10.667 -53.833 -12 -67.5 -4s-22.167 17.333 -25.5 28s-5 21 -5 31c0 34.667 6.66699 69 20 103c-2 -1.33301 -11.167 -15.5 -27.5 -42.5s-36.333 -52.5 -60 -76.5s-47.5 -36 -71.5 -36c-10 0 -21.833 2.66699 -35.5 8s-23.834 12.333 -30.501 21l-30.5 -82.5
l-35 -94.5c-9 -24.667 -13.667 -44.334 -14 -59.001s-1.83301 -25.167 -4.5 -31.5s-5.5 -13.833 -8.5 -22.5s-5.33301 -15 -7 -19s-3.5 -8.66699 -5.5 -14s-3.66699 -9.16602 -5 -11.499l-4.5 -8c-1.66699 -3 -3.33398 -5.16699 -5.00098 -6.5z" />
    <glyph glyph-name="paragraph" unicode="&#xb6;" horiz-adv-x="529" 
d="M422 538c-69.333 -141.333 -115.334 -238 -138.001 -290c26.667 1.33301 52.334 4.33301 77.001 9c54 147.333 93.333 242.666 118 285.999c-33.333 3.33301 -52.666 5 -57.999 5c3.33301 -3.33301 3.66602 -6.66602 0.999023 -9.99902zM278.999 -72
c-10 0 -15.001 5.33301 -15.001 16c0 30 28.333 123 85 279c-10.667 -0.666992 -22.5 -1 -35.5 -1s-26.833 0.666992 -41.5 2c-47.333 -114 -78.333 -211.333 -93 -292c-2.66699 -2.66699 -5.33398 -4 -8.00098 -4c-10 0 -15.667 4 -17 12c-2.66699 28 26 124 86 288
c-20 2 -42 6.66699 -66 14c-39.333 11.333 -69.666 29.5 -90.999 54.5s-32 51.333 -32 79s9.66699 55.5 29 83.5c42.667 60.667 126 97.334 250 110.001c20.667 2 45.834 3 75.501 3s61.5 -4.66699 95.5 -14c8.66699 0 16.334 -1.66699 23.001 -5s10 -6.33301 10 -9
s-1 -5.83398 -3 -9.50098s-11.5 -22.5 -28.5 -56.5l-33 -66.5l-31 -63.5c-15.667 -32 -26.667 -55.833 -33 -71.5s-15.833 -38 -28.5 -67s-22.334 -53.167 -29.001 -72.5l-23 -67c-15.333 -45.333 -27.333 -91.333 -36 -138c-2.66699 -2.66699 -6 -4 -10 -4zM88.998 354
c0 -4.66699 0.333008 -9.33203 1 -13.999c8 -43.333 47 -72 117 -86c18.667 -2.66699 32.667 -4.33398 42 -5.00098c55.333 152.667 96 252 122 298c-88.667 -8 -162 -37 -220 -87c-41.333 -36 -62 -71.333 -62 -106z" />
    <glyph glyph-name="periodcentered" unicode="&#xb7;" horiz-adv-x="207" 
d="M177 199v-15.001c0 -5.33301 -3.33301 -13.166 -10 -23.499s-12 -15.5 -16 -15.5c-22.667 0 -34 5.66699 -34 17c0 2.66699 5.33301 8.66699 16 18s17.667 15.333 21 18c8 6 13.833 9 17.5 9s5.5 -2.66699 5.5 -8z" />
    <glyph glyph-name="cedilla" unicode="&#xb8;" horiz-adv-x="467" 
d="M232 -110l-58 -8.00195c-6 0 -9.16699 1.33301 -9.5 4s2.33398 7.5 8.00098 14.5s14.334 20.833 26.001 41.5s19.167 36 22.5 46c2.66699 6 7 9 13 9c14 0 21.333 -2 22 -6c0 -2 -9.16699 -15.667 -27.5 -41s-28.166 -39 -29.499 -41c14 2.66699 29.167 4 45.5 4
s31.833 -4.33301 46.5 -13c22.667 -13.333 34 -32.166 34 -56.499s-11.667 -47.166 -35 -68.499c-42 -38 -90.333 -57 -145 -57l-28 2c-30.667 4 -52.334 16.667 -65.001 38c-2.66699 6 -4 10.833 -4 14.5s2.16699 4.66699 6.5 3s8.16602 -5.16699 11.499 -10.5
c13.333 -20 36 -30 68 -30c45.333 0 84.666 17 117.999 51c18 18 27 36 27 54s-5 30.833 -15 38.5s-20.667 11.5 -32 11.5z" />
    <glyph glyph-name="ordmasculine" unicode="&#xba;" horiz-adv-x="577" 
d="M239 544c0 -36 14.998 -54.001 44.998 -54.001c15.333 0 32.5 7.33301 51.5 22s36.167 33.334 51.5 56.001c-1.33301 2.66699 -2 4.66699 -2 6c-2.66699 10.667 -1.5 19.5 3.5 26.5s12.167 9.16699 21.5 6.5c12.667 24.667 19 43.5 19 56.5s-1.16699 22.167 -3.5 27.5
s-3.5 9.66602 -3.5 12.999c0 7.33301 4 12.333 12 15c4 1.33301 8.66699 2 14 2c8 0 13.5 -4.66699 16.5 -14s4.5 -18 4.5 -26c0 -30 -16 -67 -48 -111c0.666992 -8.66699 3.33398 -15.334 8.00098 -20.001s11.167 -7 19.5 -7s18.666 4 30.999 12s21.333 14.833 27 20.5
s13.834 14.5 24.501 26.5c12 12 23.667 26 35 42c2 2.66699 4.33301 4 7 4c4.66699 0 7 -2.33301 7 -7c0 -6.66699 -11.667 -23.667 -35 -51c-40 -46.667 -73.667 -70 -101 -70c-19.333 0 -33.333 8.33301 -42 25c-12.667 -14 -27.667 -28.333 -45 -43
c-22 -19.333 -48.667 -29 -80 -29c-18 0 -33.333 4.66699 -46 14c-22.667 14 -34 38.333 -34 73c0 16 2.66699 34.333 8 55c12.667 47.333 41.667 91.333 87 132c32.667 26.667 63.334 40 92.001 40c7.33301 0 14.333 -1 21 -3c19.333 -7.33301 29 -20.666 29 -39.999
c0 -13.333 -3.66699 -20 -11 -20c-4 0.666992 -6.33301 2.33398 -7 5.00098c2 6.66699 1.5 13 -1.5 19s-8.83301 9 -17.5 9c-23.333 0 -53.333 -21.667 -90 -65c-45.333 -52.667 -68 -102 -68 -148z" />
    <glyph glyph-name="guillemotright" unicode="&#xbb;" horiz-adv-x="379" 
d="M142.5 124c-13.667 -12.667 -25.667 -23.334 -36 -32.001s-16.5 -13 -18.5 -13s-3 2.33301 -3 7s2.83301 10.334 8.5 17.001l19 22.5l17.5 20.5c14.667 16.667 38 40.334 70 71.001c-32.667 61.333 -51.667 99.166 -57 113.499s-5 22.833 1 25.5
c1.33301 0.666992 2.33301 1 3 1c4 0 8.33301 -4 13 -12c18 -29.333 44.333 -61.333 79 -96c8 -10.667 11.667 -17.167 11 -19.5s-6 -8.83301 -16 -19.5l-46.5 -43.5zM382 233l-2 -5c0 -2.66699 -1.16699 -4.83398 -3.5 -6.50098s-8.33301 -7.16699 -18 -16.5l-40.5 -39
c-60.667 -58 -93.667 -87 -99 -87c-2.66699 0 -4 2.33301 -4 7c0 12.667 38.667 56.334 116 131.001c-32 58.667 -51 95.834 -57 111.501s-6 24.834 0 27.501c1.33301 0.666992 2.33301 1 3 1c4 0 8.33301 -4 13 -12c18 -29.333 46 -63 84 -101c2 -2 3.5 -3.83301 4.5 -5.5
s1.83301 -2.83398 2.5 -3.50098s1 -1.33398 1 -2.00098z" />
    <glyph glyph-name="questiondown" unicode="&#xbf;" horiz-adv-x="409" 
d="M326 358v12c0 4.66699 3.33301 12.334 10 23.001s12 16 16 16c22.667 0 34 -5.66699 34 -17c0 -4.66699 -6.66699 -12.334 -20 -23.001s-21.833 -17 -25.5 -19s-6.5 -3.33301 -8.5 -4c-4 -1.33301 -6 2.66699 -6 12zM349 -91
c-11.333 -25.333 -31.002 -40.002 -59.002 -44.002c-7.33301 -0.666992 -19.666 -5.5 -36.999 -14.5s-37.666 -15.833 -60.999 -20.5l-49 -4c-33.333 0 -60.333 8 -81 24c-26.667 20.667 -40 51.667 -40 93c0 54 34 109 102 165c17.333 14.667 37 29.667 59 45s38 27 48 35
s20.5 18.5 31.5 31.5s17.5 25.5 19.5 37.5c1.33301 6 5.5 9 12.5 9s10 -5.16699 9 -15.5s-7.33301 -23.166 -19 -38.499s-22.5 -27.666 -32.5 -36.999l-47 -42c-42.667 -36.667 -73 -68.5 -91 -95.5s-27 -63.833 -27 -110.5c0 -24 6.5 -44 19.5 -60s30.5 -24 52.5 -24
c37.333 0 78 21.333 122 64c6 6 17.5 20.5 34.5 43.5s28.5 34.833 34.5 35.5c4.66699 0 7 -9.16699 7 -27.5s-2.66699 -34.833 -8 -49.5z" />
    <glyph glyph-name="Agrave" unicode="&#xc0;" horiz-adv-x="470" 
d="M704 185c-14 -52.667 -20.9941 -97.5029 -20.9941 -134.503s9.16699 -55.5 27.5 -55.5s45.166 13.333 80.499 40c40.667 30.667 77.667 68.667 111 114c2 2.66699 5 3.16699 9 1.5s4.5 -6.66699 1.5 -15s-21.833 -31.166 -56.5 -68.499
c-19.333 -20.667 -41.666 -41.167 -66.999 -61.5s-56 -30.5 -92 -30.5c-20.667 0 -35.667 9.33301 -45 28s-14 42 -14 70s6 66.667 18 116c-50 4.66699 -89.667 9 -119 13c-93.333 -114.667 -170.333 -194 -231 -238c-52.667 -39.333 -107.334 -59 -164.001 -59
c-36 0 -66.833 9 -92.5 27s-38.5 44.667 -38.5 80c0 6.66699 1.66699 12.834 5 18.501s6.66602 7.16699 9.99902 4.5s5 -10.334 5 -23.001c0 -22.667 8.83301 -39.667 26.5 -51s39.167 -17 64.5 -17c54.667 0 108.5 17.833 161.5 53.5s125.167 105.5 216.5 209.5
c-60.667 7.33301 -106.167 12.166 -136.5 14.499s-49.5 3.5 -57.5 3.5c-84.667 0 -137 -27.667 -157 -83c-2.66699 -7.33301 -4 -14.166 -4 -20.499s1.33301 -12 4 -17s3.16699 -9 1.5 -12s-4.5 -4.33301 -8.5 -4s-7.33301 2.5 -10 6.5c-7.33301 12.667 -11 25 -11 37
s0.333008 20.333 1 25c5.33301 57.333 31 92.333 77 105c22 6 47.333 9 76 9c35.333 0 117.666 -12.667 246.999 -38c36 41.333 127 153.333 273 336c2 2.66699 4.33301 4.66699 7 6c16 9.33301 33.333 14 52 14c6.66699 0 10 -3.33301 10 -10
c0 -0.666992 -0.333008 -1.5 -1 -2.5s-1.33398 -2.33301 -2.00098 -4s-1.33398 -3.16699 -2.00098 -4.5c-64 -106 -113.667 -225.333 -149 -358l-3 -7c3.33301 0 7.66602 -0.166992 12.999 -0.5s10 -0.666016 14 -0.999023s12.833 -0.5 26.5 -0.5s28.167 3.16699 43.5 9.5
s25 13 29 20s8 8.83301 12 5.5s4.33301 -7.66602 1 -12.999c-7.33301 -13.333 -20.333 -23 -39 -29c-16 -6.66699 -31.833 -10 -47.5 -10h-30.5zM757.006 488.997c-83.333 -114 -150.333 -202 -201 -264l105 -17c18.667 72.667 49 162.667 91 270zM929.006 657.997
c3.33301 -1.33301 5.00098 -3.5 5.00098 -6.5s-3.16699 -4.5 -9.5 -4.5s-24.333 6.83301 -54 20.5s-51.5 24.167 -65.5 31.5c-32.667 17.333 -49 32 -49 44c0 6 4.66699 10.667 14 14c2 0.666992 4.33301 1 7 1c11.333 0 28.166 -8.33301 50.499 -25z" />
    <glyph glyph-name="Aacute" unicode="&#xc1;" horiz-adv-x="849" 
d="M697 -25c-20.667 0 -35.6602 9.16992 -44.9932 27.5029s-14 41.666 -14 69.999s6 67.166 18 116.499c-23.333 2 -63 6.66699 -119 14c-92.667 -114.667 -169.667 -194.334 -231 -239.001c-52.667 -39.333 -107.334 -59 -164.001 -59c-36 0 -66.833 9 -92.5 27
s-38.5 44.667 -38.5 80c0 6.66699 1.66699 12.834 5 18.501s6.66602 7.16699 9.99902 4.5s5 -10.334 5 -23.001c0 -22.667 8.83301 -39.667 26.5 -51s39.167 -17 64.5 -17c54.667 0 108.5 17.833 161.5 53.5s125.167 105.5 216.5 209.5c-98 12 -162.667 18 -194 18
c-84.667 0 -137 -27.667 -157 -83c-2.66699 -7.33301 -4 -14.166 -4 -20.499s1.33301 -12 4 -17s3.16699 -9 1.5 -12s-4.5 -4.33301 -8.5 -4s-7.33301 2.5 -10 6.5c-7.33301 12.667 -11 25 -11 37c0 41.333 7.5 71.833 22.5 91.5s32.5 32.167 52.5 37.5
c24 6.66699 52 10 84 10s112.667 -12.667 242 -38c36 41.333 127 153.333 273 336c2 2.66699 4.33301 4.66699 7 6c16 9.33301 33.333 14 52 14c6.66699 0 10 -3.33301 10 -10c0 -0.666992 -0.333008 -1.5 -1 -2.5s-1.33398 -2.33301 -2.00098 -4
s-1.33398 -3.16699 -2.00098 -4.5c-64 -106 -113.667 -225.333 -149 -358l-3 -7l25 -1c5.33301 -0.666992 14.833 -1 28.5 -1s28.167 3.16699 43.5 9.5s25.166 13.166 29.499 20.499s8.16602 9 11.499 5s3.66602 -8.33301 0.999023 -13
c-7.33301 -13.333 -20.333 -23 -39 -29c-16 -6.66699 -31.833 -10 -47.5 -10h-30.5l-27 1c-12.667 -58 -19 -104.167 -19 -138.5s9.33301 -51.5 28 -51.5c18 0 46 14.333 84 43s73.667 65.667 107 111c2 2.66699 5 3.16699 9 1.5s5.16699 -4.83398 3.5 -9.50098
s-7.16699 -13 -16.5 -25c-28 -37.333 -62.333 -72.666 -103 -105.999c-29.333 -23.333 -62 -35 -98 -35zM752.007 478.003c0.666992 1.33301 1.5 3.16797 2.5 5.50098s1.83301 4.16602 2.5 5.49902c-83.333 -114 -150.333 -202 -201 -264l105 -17
c18.667 72.667 49 162.667 91 270zM937.507 689.005c-43.667 -20.667 -69.1641 -31.167 -76.4971 -31.5s-11 0.5 -11 2.5s0.833008 4 2.5 6s6.16699 5.33301 13.5 10c20 12.667 33.833 22.334 41.5 29.001s17.167 13.667 28.5 21c24 17.333 40.333 32 49 44
c5.33301 1.33301 9.16602 2 11.499 2s8.16602 -1.66699 17.499 -5c7.33301 -4.66699 11 -11 11 -19c0 -6 -2 -11 -6 -15c-10.667 -8.66699 -37.834 -23.334 -81.501 -44.001z" />
    <glyph glyph-name="Acircumflex" unicode="&#xc2;" horiz-adv-x="470" 
d="M704 185c-14 -52.667 -20.9941 -97.5029 -20.9941 -134.503s9.16699 -55.5 27.5 -55.5s45.166 13.333 80.499 40c40.667 30.667 77.667 68.667 111 114c2 2.66699 5 3.16699 9 1.5s4.5 -6.66699 1.5 -15s-21.833 -31.166 -56.5 -68.499
c-19.333 -20.667 -41.666 -41.167 -66.999 -61.5s-56 -30.5 -92 -30.5c-20.667 0 -35.667 9.33301 -45 28s-14 42 -14 70s6 66.667 18 116c-50 4.66699 -89.667 9 -119 13c-93.333 -114.667 -170.333 -194 -231 -238c-52.667 -39.333 -107.334 -59 -164.001 -59
c-36 0 -66.833 9 -92.5 27s-38.5 44.667 -38.5 80c0 6.66699 1.66699 12.834 5 18.501s6.66602 7.16699 9.99902 4.5s5 -10.334 5 -23.001c0 -22.667 8.83301 -39.667 26.5 -51s39.167 -17 64.5 -17c54.667 0 108.5 17.833 161.5 53.5s125.167 105.5 216.5 209.5
c-60.667 7.33301 -106.167 12.166 -136.5 14.499s-49.5 3.5 -57.5 3.5c-84.667 0 -137 -27.667 -157 -83c-2.66699 -7.33301 -4 -14.166 -4 -20.499s1.33301 -12 4 -17s3.16699 -9 1.5 -12s-4.5 -4.33301 -8.5 -4s-7.33301 2.5 -10 6.5c-7.33301 12.667 -11 25 -11 37
s0.333008 20.333 1 25c5.33301 57.333 31 92.333 77 105c22 6 47.333 9 76 9c35.333 0 117.666 -12.667 246.999 -38c36 41.333 127 153.333 273 336c2 2.66699 4.33301 4.66699 7 6c16 9.33301 33.333 14 52 14c6.66699 0 10 -3.33301 10 -10
c0 -0.666992 -0.333008 -1.5 -1 -2.5s-1.33398 -2.33301 -2.00098 -4s-1.33398 -3.16699 -2.00098 -4.5c-64 -106 -113.667 -225.333 -149 -358l-3 -7c3.33301 0 7.66602 -0.166992 12.999 -0.5s10 -0.666016 14 -0.999023s12.833 -0.5 26.5 -0.5s28.167 3.16699 43.5 9.5
s25 13 29 20s8 8.83301 12 5.5s4.33301 -7.66602 1 -12.999c-7.33301 -13.333 -20.333 -23 -39 -29c-16 -6.66699 -31.833 -10 -47.5 -10h-30.5zM757.006 488.997c-83.333 -114 -150.333 -202 -201 -264l105 -17c18.667 72.667 49 162.667 91 270zM930.006 706.497
c17.333 -21 29.333 -36.6699 36 -47.0029s10 -17.666 10 -21.999s-1.5 -6.5 -4.5 -6.5s-6.5 1.66699 -10.5 5c-50.667 44 -78 68 -82 72c-12.667 -7.33301 -29 -19.166 -49 -35.499s-33.667 -27.166 -41 -32.499c-12.667 -6.66699 -19 -7.66699 -19 -3
c0 6.66699 2 11.667 6 15s15.333 13.333 34 30c44.667 40.667 71.667 61 81 61c8.66699 -3.33301 21.667 -15.5 39 -36.5z" />
    <glyph glyph-name="Atilde" unicode="&#xc3;" horiz-adv-x="470" 
d="M704 185c-14 -52.667 -20.9941 -97.5029 -20.9941 -134.503s9.16699 -55.5 27.5 -55.5s45.166 13.333 80.499 40c40.667 30.667 77.667 68.667 111 114c2 2.66699 5 3.16699 9 1.5s4.5 -6.66699 1.5 -15s-21.833 -31.166 -56.5 -68.499
c-19.333 -20.667 -41.666 -41.167 -66.999 -61.5s-56 -30.5 -92 -30.5c-20.667 0 -35.667 9.33301 -45 28s-14 42 -14 70s6 66.667 18 116c-50 4.66699 -89.667 9 -119 13c-93.333 -114.667 -170.333 -194 -231 -238c-52.667 -39.333 -107.334 -59 -164.001 -59
c-36 0 -66.833 9 -92.5 27s-38.5 44.667 -38.5 80c0 6.66699 1.66699 12.834 5 18.501s6.66602 7.16699 9.99902 4.5s5 -10.334 5 -23.001c0 -22.667 8.83301 -39.667 26.5 -51s39.167 -17 64.5 -17c54.667 0 108.5 17.833 161.5 53.5s125.167 105.5 216.5 209.5
c-60.667 7.33301 -106.167 12.166 -136.5 14.499s-49.5 3.5 -57.5 3.5c-84.667 0 -137 -27.667 -157 -83c-2.66699 -7.33301 -4 -14.166 -4 -20.499s1.33301 -12 4 -17s3.16699 -9 1.5 -12s-4.5 -4.33301 -8.5 -4s-7.33301 2.5 -10 6.5c-7.33301 12.667 -11 25 -11 37
s0.333008 20.333 1 25c5.33301 57.333 31 92.333 77 105c22 6 47.333 9 76 9c35.333 0 117.666 -12.667 246.999 -38c36 41.333 127 153.333 273 336c0.666992 1.33301 1 2.33301 1 3h1c18.667 11.333 37.667 17 57 17c6.66699 0 10 -3.33301 10 -10
c0 -0.666992 -0.333008 -1.5 -1 -2.5s-1.33398 -2.33301 -2.00098 -4s-1.33398 -3.16699 -2.00098 -4.5c-64 -106 -113.667 -225.333 -149 -358l-3 -7c3.33301 0 7.66602 -0.166992 12.999 -0.5s10 -0.666016 14 -0.999023s12.833 -0.5 26.5 -0.5s28.167 3.16699 43.5 9.5
s25 13 29 20s8 8.83301 12 5.5s4.33301 -7.66602 1 -12.999c-7.33301 -13.333 -20.333 -23 -39 -29c-16 -6.66699 -31.833 -10 -47.5 -10h-30.5zM757.006 488.997c-83.333 -114 -150.333 -202 -201 -264l105 -17c18.667 72.667 49 162.667 91 270zM958.006 657.997
c-12 -8 -22.334 -12.002 -31.001 -12.002s-16 1 -22 3s-15.5 5.83301 -28.5 11.5s-22.167 9.5 -27.5 11.5c-29.333 8.66699 -47.666 10.667 -54.999 6c-21.333 -4.66699 -38 -16.334 -50 -35.001c-1.33301 -2 -3.16602 -3 -5.49902 -3s-4.5 0.666992 -6.5 2s-3 2.33301 -3 3
s3.33301 5.83398 10 15.501s14 19.334 22 29.001s17.833 17.5 29.5 23.5s22.167 9 31.5 9l17 -3c5.33301 -2 17.666 -8 36.999 -18c28 -14.667 50.5 -22 67.5 -22s29.167 11 36.5 33c2.66699 4 6.16699 5 10.5 3s6.5 -3.66699 6.5 -5c0 -15.333 -13 -32.666 -39 -51.999z
" />
    <glyph glyph-name="Adieresis" unicode="&#xc4;" horiz-adv-x="470" 
d="M704 185c-14 -52.667 -20.9941 -97.5029 -20.9941 -134.503s9.16699 -55.5 27.5 -55.5s45.166 13.333 80.499 40c40.667 30.667 77.667 68.667 111 114c2 2.66699 5 3.16699 9 1.5s4.5 -6.66699 1.5 -15s-21.833 -31.166 -56.5 -68.499
c-19.333 -20.667 -41.666 -41.167 -66.999 -61.5s-56 -30.5 -92 -30.5c-20.667 0 -35.667 9.33301 -45 28s-14 42 -14 70s6 66.667 18 116c-50 4.66699 -89.667 9 -119 13c-93.333 -114.667 -170.333 -194 -231 -238c-52.667 -39.333 -107.334 -59 -164.001 -59
c-36 0 -66.833 9 -92.5 27s-38.5 44.667 -38.5 80c0 6.66699 1.66699 12.834 5 18.501s6.66602 7.16699 9.99902 4.5s5 -10.334 5 -23.001c0 -22.667 8.83301 -39.667 26.5 -51s39.167 -17 64.5 -17c54.667 0 108.5 17.833 161.5 53.5s125.167 105.5 216.5 209.5
c-60.667 7.33301 -106.167 12.166 -136.5 14.499s-49.5 3.5 -57.5 3.5c-84.667 0 -137 -27.667 -157 -83c-2.66699 -7.33301 -4 -14.166 -4 -20.499s1.33301 -12 4 -17s3.16699 -9 1.5 -12s-4.5 -4.33301 -8.5 -4s-7.33301 2.5 -10 6.5c-7.33301 12.667 -11 25 -11 37
s0.333008 20.333 1 25c5.33301 57.333 31 92.333 77 105c22 6 47.333 9 76 9c35.333 0 117.666 -12.667 246.999 -38c36 41.333 127 153.333 273 336c0.666992 1.33301 1 2.33301 1 3h1c18.667 11.333 37.667 17 57 17c6.66699 0 10 -3.33301 10 -10
c0 -0.666992 -0.333008 -1.5 -1 -2.5s-1.33398 -2.33301 -2.00098 -4s-1.33398 -3.16699 -2.00098 -4.5c-64 -106 -113.667 -225.333 -149 -358l-3 -7c3.33301 0 7.66602 -0.166992 12.999 -0.5s10 -0.666016 14 -0.999023s12.833 -0.5 26.5 -0.5s28.167 3.16699 43.5 9.5
s25 13 29 20s8 8.83301 12 5.5s4.33301 -7.66602 1 -12.999c-7.33301 -13.333 -20.333 -23 -39 -29c-16 -6.66699 -31.833 -10 -47.5 -10h-30.5zM757.006 488.997c-83.333 -114 -150.333 -202 -201 -264l105 -17c18.667 72.667 49 162.667 91 270zM815.006 713.997
l-6 -27.001c0 -5.33301 -3.5 -13.166 -10.5 -23.499s-12.5 -15.5 -16.5 -15.5c-22 0 -33 5.33301 -33 16c0 1.33301 9.33301 9.5 28 24.5s29.167 23.167 31.5 24.5s4 2 5 2s1.5 -0.333008 1.5 -1zM973.006 712.996l-6 -26.001c0 -5.33301 -3.33301 -13.166 -10 -23.499
s-12 -15.5 -16 -15.5c-22.667 0 -34 5.33301 -34 16c0 1.33301 10.167 10 30.5 26s31.333 24 33 24s2.5 -0.333008 2.5 -1z" />
    <glyph glyph-name="Aring" unicode="&#xc5;" horiz-adv-x="470" 
d="M704 185c-14 -52.667 -20.9941 -97.5029 -20.9941 -134.503s9.16699 -55.5 27.5 -55.5s45.166 13.333 80.499 40c40.667 30.667 77.667 68.667 111 114c2 2.66699 5 3.16699 9 1.5s4.5 -6.66699 1.5 -15s-21.833 -31.166 -56.5 -68.499
c-19.333 -20.667 -41.666 -41.167 -66.999 -61.5s-56 -30.5 -92 -30.5c-20.667 0 -35.667 9.33301 -45 28s-14 42 -14 70s6 66.667 18 116c-50 4.66699 -89.667 9 -119 13c-93.333 -114.667 -170.333 -194 -231 -238c-52.667 -39.333 -107.334 -59 -164.001 -59
c-36 0 -66.833 9 -92.5 27s-38.5 44.667 -38.5 80c0 6.66699 1.66699 12.834 5 18.501s6.66602 7.16699 9.99902 4.5s5 -10.334 5 -23.001c0 -22.667 8.83301 -39.667 26.5 -51s39.167 -17 64.5 -17c54.667 0 108.5 17.833 161.5 53.5s125.167 105.5 216.5 209.5
c-60.667 7.33301 -106.167 12.166 -136.5 14.499s-49.5 3.5 -57.5 3.5c-84.667 0 -137 -27.667 -157 -83c-2.66699 -7.33301 -4 -14.166 -4 -20.499s1.33301 -12 4 -17s3.16699 -9 1.5 -12s-4.5 -4.33301 -8.5 -4s-7.33301 2.5 -10 6.5c-7.33301 12.667 -11 25 -11 37
s0.333008 20.333 1 25c5.33301 57.333 31 92.333 77 105c22 6 47.333 9 76 9c35.333 0 117.666 -12.667 246.999 -38c36 41.333 127 153.333 273 336c0.666992 1.33301 1 2.33301 1 3h1c18.667 11.333 37.667 17 57 17c6.66699 0 10 -3.33301 10 -10
c0 -0.666992 -0.333008 -1.5 -1 -2.5s-1.33398 -2.33301 -2.00098 -4s-1.33398 -3.16699 -2.00098 -4.5c-64 -106 -113.667 -225.333 -149 -358l-3 -7c3.33301 0 7.66602 -0.166992 12.999 -0.5s10 -0.666016 14 -0.999023s12.833 -0.5 26.5 -0.5s28.167 3.16699 43.5 9.5
s25 13 29 20s8 8.83301 12 5.5s4.33301 -7.66602 1 -12.999c-7.33301 -13.333 -20.333 -23 -39 -29c-16 -6.66699 -31.833 -10 -47.5 -10h-30.5zM950.006 672.997c0 -24.667 -14.668 -47.666 -44.001 -68.999c-14.667 -9.33301 -28.667 -14 -42 -14
s-25.666 2.33301 -36.999 7c-21.333 8 -32 22 -32 42c0 3.33301 0.333008 6.66602 1 9.99902c4.66699 20.667 17.667 37.667 39 51c12 10 28.667 15 50 15c43.333 0 65 -14 65 -42zM757.005 488.998c-83.333 -114 -150.333 -202 -201 -264l105 -17
c18.667 72.667 49 162.667 91 270zM922.005 651.998c3.33301 4 4.99805 8.66797 4.99805 14.001c0 24.667 -11.667 37 -35 37c-17.333 0 -33.666 -8.5 -48.999 -25.5s-22.333 -32.833 -21 -47.5c2.66699 -17.333 15 -26 37 -26c14.667 0 27.834 5.16699 39.501 15.5
s19.5 21.166 23.5 32.499z" />
    <glyph glyph-name="AE" unicode="&#xc6;" horiz-adv-x="854" 
d="M737 411c0 44.667 14.333 79.333 43 104c-40 -1.33301 -79.667 -5 -119 -11s-66.666 -13.333 -81.999 -22c-10.667 -6 -32 -37 -64 -93s-58 -104.333 -78 -145c56 -0.666992 104.667 -1 146 -1s64.333 -0.666992 69 -2s6.16699 -4.5 4.5 -9.5s-18.167 -8.5 -49.5 -10.5
h-5l-11 -1c-64.667 -3.33301 -120 -5 -166 -5c-12.667 -35.333 -19 -64.333 -19 -87s0.666992 -40 2 -52c3.33301 -23.333 14.166 -42.333 32.499 -57s43.5 -22 75.5 -22c58 0 117.833 13.333 179.5 40s110.5 61 146.5 103c4.66699 5.33301 8.33398 4.33301 11.001 -3
c0.666992 -2 1 -4.16699 1 -6.5s-1 -4.5 -3 -6.5c-34.667 -42 -84.334 -79.167 -149.001 -111.5s-136.334 -48.5 -215.001 -48.5c-32 0 -58.333 5.33301 -79 16c-38 19.333 -57 54.666 -57 105.999c0 37.333 9.33301 80 28 128c-45.333 0 -73 -0.333008 -83 -1h-171
c-24 -39.333 -45.667 -87.833 -65 -145.5s-30.333 -105.167 -33 -142.5c-2.66699 -5.33301 -4.33398 -8 -5.00098 -8c-3.33301 0 -7.33301 3 -12 9c-6.66699 8.66699 -10 23.834 -10 45.501s8.83301 58.5 26.5 110.5s36.834 94.333 57.501 127h-19
c-13.333 0 -20.166 4.83301 -20.499 14.5s6.5 16.167 20.5 19.5l11 2c8 0 18 1 30 3c33.333 50.667 84.666 110.667 153.999 180c34 34 69.667 62.667 107 86s70 35 98 35c9.33301 0 21 -2 35 -6s22.333 -10 25 -18c32 8.66699 77.5 13 136.5 13s106.833 -1.33301 143.5 -4
c3.33301 0.666992 5.33301 1 6 1c10.667 2 19 0.333008 25 -5s5.33301 -12.333 -2 -21c-0.666992 -0.666992 -6 -4.66699 -16 -12s-18 -14 -24 -20c-27.333 -26 -41 -49 -41 -69c0 -8 1.83301 -15.167 5.5 -21.5s3.33398 -10 -0.999023 -11s-8.83301 1.16699 -13.5 6.5
c-4.66699 3.33301 -7 13 -7 29zM190 244.999l201 -1.00098c7.33301 16 20.333 40.167 39 72.5s33.334 61.5 44.001 87.5c12 30 18 56.833 18 80.5s-7.33301 39.834 -22 48.501c-108.667 -30.667 -218.334 -126.667 -329.001 -288h49z" />
    <glyph glyph-name="Ccedilla" unicode="&#xc7;" horiz-adv-x="480" 
d="M558 504c0 37.333 -19.665 55.998 -58.998 55.998c-34 0 -78.167 -16 -132.5 -48s-110.166 -80.833 -167.499 -146.5s-97.333 -134.5 -120 -206.5c-9.33301 -28.667 -14 -55.167 -14 -79.5s7 -45.5 21 -63.5c24.667 -32 65 -48.333 121 -49h11c62 0 129 15.833 201 47.5
s129.667 78.167 173 139.5c3.33301 4.66699 6.83301 5.66699 10.5 3s5.5 -5 5.5 -7s-0.666992 -3.66699 -2 -5c-49.333 -67.333 -110 -118 -182 -152s-141.667 -51 -209 -51h-8h-13c-4.66699 -7.33301 -13.167 -19 -25.5 -35s-19.5 -25.667 -21.5 -29
c14 2.66699 29.333 4 46 4s32.334 -4.33301 47.001 -13c22.667 -13.333 34 -32.333 34 -57s-11.667 -47.334 -35 -68.001c-42 -38 -90.333 -57 -145 -57l-28 1c-30.667 4.66699 -52.334 17.667 -65.001 39c-2.66699 6 -4 10.833 -4 14.5s2.16699 4.66699 6.5 3
s8.16602 -5.16699 11.499 -10.5c13.333 -20 36 -30 68 -30c44.667 0 83.667 17 117 51c18 18 27 36 27 54s-5 30.833 -15 38.5s-21 11.5 -33 11.5l-56 -8c-6 0 -9 1 -9 3c0 4 5.16699 13.167 15.5 27.5s22.166 35.5 35.499 63.5c-54 9.33301 -94 33.333 -120 72
c-16 24 -24 50.333 -24 79c0 76.667 26.333 155.334 79 236.001c72.667 110.667 160.667 187.334 264 230.001c40 16 78.333 24 115 24c45.333 0 77.666 -10.667 96.999 -32c12.667 -14.667 19 -31.667 19 -51c0 -36.667 -19.333 -74.334 -58 -113.001
s-81.5 -69.5 -128.5 -92.5s-87.833 -36.167 -122.5 -39.5c-14 -1.33301 -20.667 2.33398 -20 11.001c0.666992 12 9 18.667 25 20c53.333 4.66699 102.333 20.834 147 48.501s79 64.5 103 110.5c11.333 18 17 36.667 17 56z" />
    <glyph glyph-name="Egrave" unicode="&#xc8;" horiz-adv-x="525" 
d="M464.5 584.5c4.33301 -1.66699 8.33105 -3.33008 11.998 -4.99707s7.5 -3.83398 11.5 -6.50098s7.33301 -5 10 -7s6 -4.83301 10 -8.5l12 -10.5c4 -3.33301 9 -8 15 -14c10 -12 19.667 -19 29 -21c1.33301 -1.33301 4.33301 -2.16602 9 -2.49902
s8.83398 -2.16602 12.501 -5.49902s9.33398 -14.5 17.001 -33.5s11.5 -34.667 11.5 -47s-1.5 -25.333 -4.5 -39s-7.83301 -20.5 -14.5 -20.5c-10.667 0 -21 16.667 -31 50c-5.33301 20 -9.66602 33.333 -12.999 40c-18.667 39.333 -38.667 68 -60 86
c-19.333 18 -39 27 -59 27c-8.66699 0 -17.334 -1.66699 -26.001 -5c-32 -13.333 -51.667 -39.333 -59 -78c-3.33301 -16 -5 -33.333 -5 -52s4 -42.5 12 -71.5s20.333 -54.5 37 -76.5c3.33301 -4 21 -7.33301 53 -10c16.667 -2 26.334 -7.83301 29.001 -17.5
s-1.33301 -17.167 -12 -22.5c-3.33301 -4.66699 -17.666 -4.66699 -42.999 0c-6.66699 0.666992 -15.334 2.5 -26.001 5.5s-17.667 4.83301 -21 5.5c-36 -0.666992 -76.667 -8.66699 -122 -24s-87 -38.833 -125 -70.5s-57 -66.5 -57 -104.5
c0 -28.667 11.667 -51.834 35 -69.501s60.833 -26.5 112.5 -26.5s109.334 8 173.001 24s113.667 33.333 150 52s72.166 45 107.499 79s53 63.333 53 88c0 4 -0.166992 7.33301 -0.5 10s0.666992 4.83398 3 6.50098s5.16602 0.833984 8.49902 -2.49902
c8.66699 -16.667 13 -34.167 13 -52.5s-10 -39.833 -30 -64.5c-16 -19.333 -32.667 -36 -50 -50c-50.667 -40.667 -122 -71.334 -214 -92.001c-68.667 -15.333 -125.667 -23 -171 -23s-83.833 4 -115.5 12s-59.167 24 -82.5 48s-35 53.5 -35 88.5s8.5 64.667 25.5 89
s37.167 43.166 60.5 56.499c59.333 33.333 143 52.666 251 57.999c-19.333 22 -37.166 50.667 -53.499 86s-24.5 70.666 -24.5 105.999c0 24 5.83301 46.167 17.5 66.5s31.167 34.833 58.5 43.5s47.666 13 60.999 13s23 -0.833008 29 -2.5s11.167 -3.33398 15.5 -5.00098z
M565.998 633.004c0 -3.33301 -3 -5 -9 -5s-24.167 6.83301 -54.5 20.5s-52.166 24.167 -65.499 31.5c-32.667 18 -49 32.667 -49 44c0 6 4.66699 10.667 14 14c2 0.666992 4.33301 1 7 1c12 0 29 -8 51 -24c39.333 -30 66.666 -50.333 81.999 -61c16 -12 24 -19 24 -21z" />
    <glyph glyph-name="Eacute" unicode="&#xc9;" horiz-adv-x="525" 
d="M464.5 584.5c4.33301 -1.66699 8.33105 -3.33008 11.998 -4.99707s7.5 -3.83398 11.5 -6.50098s7.33301 -5 10 -7s6 -4.83301 10 -8.5l12 -10.5c4 -3.33301 9 -8 15 -14c10 -12 19.667 -19 29 -21c1.33301 -1.33301 4.33301 -2.16602 9 -2.49902
s8.83398 -2.16602 12.501 -5.49902s9.33398 -14.5 17.001 -33.5s11.5 -34.667 11.5 -47s-1.5 -25.333 -4.5 -39s-7.83301 -20.5 -14.5 -20.5c-10.667 0 -21 16.667 -31 50c-5.33301 20 -9.66602 33.333 -12.999 40c-18.667 39.333 -38.667 68 -60 86
c-19.333 18 -39 27 -59 27c-8.66699 0 -17.334 -1.66699 -26.001 -5c-32 -13.333 -51.667 -39.333 -59 -78c-3.33301 -16 -5 -33.333 -5 -52s4 -42.5 12 -71.5s20.333 -54.5 37 -76.5c3.33301 -4 21 -7.33301 53 -10c16.667 -2 26.334 -7.83301 29.001 -17.5
s-1.33301 -17.167 -12 -22.5c-3.33301 -4.66699 -17.666 -4.66699 -42.999 0c-6.66699 0.666992 -15.334 2.5 -26.001 5.5s-17.667 4.83301 -21 5.5c-36 -0.666992 -76.667 -8.66699 -122 -24s-87 -38.833 -125 -70.5s-57 -66.5 -57 -104.5
c0 -28.667 11.667 -51.834 35 -69.501s60.833 -26.5 112.5 -26.5s109.334 8 173.001 24s113.667 33.333 150 52s72.166 45 107.499 79s53 63.333 53 88c0 4 -0.166992 7.33301 -0.5 10s0.666992 4.83398 3 6.50098s5.16602 0.833984 8.49902 -2.49902
c8.66699 -16.667 13 -34.167 13 -52.5s-10 -39.833 -30 -64.5c-16 -19.333 -32.667 -36 -50 -50c-50.667 -40.667 -122 -71.334 -214 -92.001c-68.667 -15.333 -125.667 -23 -171 -23s-83.833 4 -115.5 12s-59.167 24 -82.5 48s-35 53.5 -35 88.5s8.5 64.667 25.5 89
s37.167 43.166 60.5 56.499c59.333 33.333 143 52.666 251 57.999c-19.333 22 -37.166 50.667 -53.499 86s-24.5 70.666 -24.5 105.999c0 24 5.83301 46.167 17.5 66.5s31.167 34.833 58.5 43.5s47.666 13 60.999 13s23 -0.833008 29 -2.5s11.167 -3.33398 15.5 -5.00098z
M534.998 674.004c-43.333 -20.667 -68.4971 -31.165 -75.4971 -31.498s-10.5 0.666992 -10.5 3s0.666992 4.33301 2 6s5.66602 5.16699 12.999 10.5c22 14.667 36 24.5 42 29.5s14.667 11.833 26 20.5c25.333 17.333 42 31.666 50 42.999
c5.33301 1.33301 9.16602 2 11.499 2s8.16602 -1.66699 17.499 -5c8 -4.66699 12 -10.667 12 -18c0 -6 -2.33301 -11.333 -7 -16c-10.667 -8.66699 -37.667 -23.334 -81 -44.001z" />
    <glyph glyph-name="Ecircumflex" unicode="&#xca;" horiz-adv-x="525" 
d="M464.5 584.5c4.33301 -1.66699 8.33105 -3.33008 11.998 -4.99707s7.5 -3.83398 11.5 -6.50098s7.33301 -5 10 -7s6 -4.83301 10 -8.5l12 -10.5c4 -3.33301 9 -8 15 -14c10 -12 19.667 -19 29 -21c1.33301 -1.33301 4.33301 -2.16602 9 -2.49902
s8.83398 -2.16602 12.501 -5.49902s9.33398 -14.5 17.001 -33.5s11.5 -34.667 11.5 -47s-1.5 -25.333 -4.5 -39s-7.83301 -20.5 -14.5 -20.5c-10.667 0 -21 16.667 -31 50c-5.33301 20 -9.66602 33.333 -12.999 40c-18.667 39.333 -38.667 68 -60 86
c-19.333 18 -39 27 -59 27c-8.66699 0 -17.334 -1.66699 -26.001 -5c-32 -13.333 -51.667 -39.333 -59 -78c-3.33301 -16 -5 -33.333 -5 -52s4 -42.5 12 -71.5s20.333 -54.5 37 -76.5c3.33301 -4 21 -7.33301 53 -10c16.667 -2 26.334 -7.83301 29.001 -17.5
s-1.33301 -17.167 -12 -22.5c-3.33301 -4.66699 -17.666 -4.66699 -42.999 0c-6.66699 0.666992 -15.334 2.5 -26.001 5.5s-17.667 4.83301 -21 5.5c-36 -0.666992 -76.667 -8.66699 -122 -24s-87 -38.833 -125 -70.5s-57 -66.5 -57 -104.5
c0 -28.667 11.667 -51.834 35 -69.501s60.833 -26.5 112.5 -26.5s109.334 8 173.001 24s113.667 33.333 150 52s72.166 45 107.499 79s53 63.333 53 88c0 4 -0.166992 7.33301 -0.5 10s0.666992 4.83398 3 6.50098s5.16602 0.833984 8.49902 -2.49902
c8.66699 -16.667 13 -34.167 13 -52.5s-10 -39.833 -30 -64.5c-16 -19.333 -32.667 -36 -50 -50c-50.667 -40.667 -122 -71.334 -214 -92.001c-68.667 -15.333 -125.667 -23 -171 -23s-83.833 4 -115.5 12s-59.167 24 -82.5 48s-35 53.5 -35 88.5s8.5 64.667 25.5 89
s37.167 43.166 60.5 56.499c59.333 33.333 143 52.666 251 57.999c-19.333 22 -37.166 50.667 -53.499 86s-24.5 70.666 -24.5 105.999c0 24 5.83301 46.167 17.5 66.5s31.167 34.833 58.5 43.5s47.666 13 60.999 13s23 -0.833008 29 -2.5s11.167 -3.33398 15.5 -5.00098z
M589.998 642.004c2.66699 -4.66699 3.99805 -9.16602 3.99805 -13.499s-1.33301 -6.5 -4 -6.5s-6 1.83301 -10 5.5s-18 15.667 -42 36s-37.667 32.166 -41 35.499c-11.333 -6.66699 -26.666 -17.667 -45.999 -33c-41.333 -34 -62.333 -46.667 -63 -38
c0 6 2.5 11.167 7.5 15.5l33.5 30.5c44.667 40 71.667 60 81 60c16.667 -6 43.334 -36.667 80.001 -92z" />
    <glyph glyph-name="Edieresis" unicode="&#xcb;" horiz-adv-x="525" 
d="M464.5 584.5c4.33301 -1.66699 8.33105 -3.33008 11.998 -4.99707s7.5 -3.83398 11.5 -6.50098s7.33301 -5 10 -7s6 -4.83301 10 -8.5l12 -10.5c4 -3.33301 9 -8 15 -14c10 -12 19.667 -19 29 -21c1.33301 -1.33301 4.33301 -2.16602 9 -2.49902
s8.83398 -2.16602 12.501 -5.49902s9.33398 -14.5 17.001 -33.5s11.5 -34.667 11.5 -47s-1.5 -25.333 -4.5 -39s-7.83301 -20.5 -14.5 -20.5c-10.667 0 -21 16.667 -31 50c-5.33301 20 -9.66602 33.333 -12.999 40c-18.667 39.333 -38.667 68 -60 86
c-19.333 18 -39 27 -59 27c-8.66699 0 -17.334 -1.66699 -26.001 -5c-32 -13.333 -51.667 -39.333 -59 -78c-3.33301 -16 -5 -33.333 -5 -52s4 -42.5 12 -71.5s20.333 -54.5 37 -76.5c3.33301 -4 21 -7.33301 53 -10c16.667 -2 26.334 -7.83301 29.001 -17.5
s-1.33301 -17.167 -12 -22.5c-3.33301 -4.66699 -17.666 -4.66699 -42.999 0c-6.66699 0.666992 -15.334 2.5 -26.001 5.5s-17.667 4.83301 -21 5.5c-36 -0.666992 -76.667 -8.66699 -122 -24s-87 -38.833 -125 -70.5s-57 -66.5 -57 -104.5
c0 -28.667 11.667 -51.834 35 -69.501s60.833 -26.5 112.5 -26.5s109.334 8 173.001 24s113.667 33.333 150 52s72.166 45 107.499 79s53 63.333 53 88c0 4 -0.166992 7.33301 -0.5 10s0.666992 4.83398 3 6.50098s5.16602 0.833984 8.49902 -2.49902
c8.66699 -16.667 13 -34.167 13 -52.5s-10 -39.833 -30 -64.5c-16 -19.333 -32.667 -36 -50 -50c-50.667 -40.667 -122 -71.334 -214 -92.001c-68.667 -15.333 -125.667 -23 -171 -23s-83.833 4 -115.5 12s-59.167 24 -82.5 48s-35 53.5 -35 88.5s8.5 64.667 25.5 89
s37.167 43.166 60.5 56.499c59.333 33.333 143 52.666 251 57.999c-19.333 22 -37.166 50.667 -53.499 86s-24.5 70.666 -24.5 105.999c0 24 5.83301 46.167 17.5 66.5s31.167 34.833 58.5 43.5s47.666 13 60.999 13s23 -0.833008 29 -2.5s11.167 -3.33398 15.5 -5.00098z
M459.998 701.004l-6 -27.001c0 -5.33301 -3.5 -13.166 -10.5 -23.499s-12.5 -15.5 -16.5 -15.5c-22 0 -33 5.66699 -33 17c0 1.33301 9.33301 9.33301 28 24c22 18 33.833 27 35.5 27s2.5 -0.666992 2.5 -2zM585.998 635.003c-22.667 0 -34 5.66504 -34 16.998
c0 1.33301 10.167 10 30.5 26s31.333 24 33 24s2.5 -0.666992 2.5 -2s-0.666992 -4.66602 -2 -9.99902l-4 -16c0 -5.33301 -3.33301 -13.166 -10 -23.499s-12 -15.5 -16 -15.5z" />
    <glyph glyph-name="Igrave" unicode="&#xcc;" horiz-adv-x="312" 
d="M575 510c-26.667 9.33301 -65.0068 14 -115.007 14c-1.33301 -5.33301 -12 -37.333 -32 -96c-2.66699 -9.33301 -8.66699 -27.5 -18 -54.5s-16.666 -47.333 -21.999 -61l-22 -57c-9.33301 -24.333 -17.666 -44.166 -24.999 -59.499l-25 -52
c-9.33301 -19.333 -18.833 -36.5 -28.5 -51.5s-21 -30.333 -34 -46s-23.833 -26.834 -32.5 -33.501h66c32.667 0 61.334 0.833008 86.001 2.5s38.167 1.5 40.5 -0.5s2.5 -4.5 0.5 -7.5s-4.33301 -5.83301 -7 -8.5s-6.5 -5.33398 -11.5 -8.00098
s-53.167 -5.33398 -144.5 -8.00098s-153.166 -4 -185.499 -4s-50.166 2.33301 -53.499 7c-2.66699 3.33301 -4 7.5 -4 12.5s2 12.833 6 23.5c4.66699 10.667 13.834 17.5 27.501 20.5s23.167 1.83301 28.5 -3.5c24 -18 47 -27 69 -27c38.667 0 72.334 18.667 101.001 56
c54 72 110.667 223.667 170 455c-61.333 -5.33301 -112.333 -17.833 -153 -37.5s-61 -45.5 -61 -77.5c0 -10.667 2.83301 -20 8.5 -28s11 -13.667 16 -17s11.833 -7.33301 20.5 -12s14.667 -8.16699 18 -10.5s4.66602 -4.5 3.99902 -6.5s-3.66699 -2.33301 -9 -1
c-16 3.33301 -33 13 -51 29s-27.333 34.333 -28 55c-2 7.33301 -3 13.666 -3 18.999c0 28.667 11.667 53.334 35 74.001c45.333 38.667 116.666 58 213.999 58c0 2.66699 1 6 3 10c0.666992 4.66699 5.83398 8 15.501 10s18.834 2.16699 27.501 0.5
s12.667 -5.16699 12 -10.5c-2.66699 -5.33301 -4.33398 -9.66602 -5.00098 -12.999c48.667 -3.33301 85.334 -12.666 110.001 -27.999c15.333 -9.33301 23 -18.333 23 -27c0 -4 -2.5 -6 -7.5 -6s-13.167 2 -24.5 6zM535.493 637c-6.33301 0 -24.332 6.83301 -53.999 20.5
s-51.5 24.5 -65.5 32.5c-32.667 17.333 -49 31.666 -49 42.999c0 6 4.66699 10.667 14 14c2 0.666992 3.83301 1 5.5 1h5c1.66699 0 3.66699 -0.333008 6 -1s4.16602 -1.16699 5.49902 -1.5s3.16602 -1.16602 5.49902 -2.49902s4.16602 -2.33301 5.49902 -3
s3.5 -1.83398 6.5 -3.50098s4.83301 -2.83398 5.5 -3.50098c7.33301 -4.66699 16.833 -11.667 28.5 -21s29.334 -22.666 53.001 -39.999s35.834 -26.666 36.501 -27.999s1 -2.83301 1 -4.5s-3.16699 -2.5 -9.5 -2.5z" />
    <glyph glyph-name="Iacute" unicode="&#xcd;" horiz-adv-x="312" 
d="M575 510c-26.667 9.33301 -65.0068 14 -115.007 14c-1.33301 -5.33301 -12 -37.333 -32 -96c-2.66699 -9.33301 -8.66699 -27.5 -18 -54.5s-16.666 -47.333 -21.999 -61l-22 -57c-9.33301 -24.333 -17.666 -44.166 -24.999 -59.499l-25 -52
c-9.33301 -19.333 -18.833 -36.5 -28.5 -51.5s-21 -30.333 -34 -46s-23.833 -26.834 -32.5 -33.501h66c32.667 0 61.334 0.833008 86.001 2.5s38.167 1.5 40.5 -0.5s2.5 -4.5 0.5 -7.5s-4.33301 -5.83301 -7 -8.5s-6.5 -5.33398 -11.5 -8.00098
s-53.167 -5.33398 -144.5 -8.00098s-153.166 -4 -185.499 -4s-50.166 2.33301 -53.499 7c-2.66699 3.33301 -4 7.5 -4 12.5s2 12.833 6 23.5c4.66699 10.667 13.834 17.5 27.501 20.5s23.167 1.83301 28.5 -3.5c24 -18 47 -27 69 -27c38.667 0 72.334 18.667 101.001 56
c54 72 110.667 223.667 170 455c-61.333 -5.33301 -112.333 -17.833 -153 -37.5s-61 -45.5 -61 -77.5c0 -10.667 2.83301 -20 8.5 -28s11 -13.667 16 -17s11.833 -7.33301 20.5 -12s14.667 -8.16699 18 -10.5s4.66602 -4.5 3.99902 -6.5s-3.66699 -2.33301 -9 -1
c-16 3.33301 -33 13 -51 29s-27.333 34.333 -28 55c-2 7.33301 -3 13.666 -3 18.999c0 28.667 11.667 53.334 35 74.001c45.333 38.667 116.666 58 213.999 58c0 2.66699 1 6 3 10c0.666992 4.66699 5.83398 8 15.501 10s18.834 2.16699 27.501 0.5
s12.667 -5.16699 12 -10.5c-2.66699 -5.33301 -4.33398 -9.66602 -5.00098 -12.999c48.667 -3.33301 85.334 -12.666 110.001 -27.999c15.333 -9.33301 23 -18.333 23 -27c0 -4 -2.5 -6 -7.5 -6s-13.167 2 -24.5 6zM519.993 669
c-43.333 -20.667 -68.4971 -31.167 -75.4971 -31.5s-10.5 0.666992 -10.5 3s0.666992 4.33301 2 6s5.66602 4.83398 12.999 9.50098c22 15.333 36 25.5 42 30.5s15 11.5 27 19.5c24.667 18 41 32.667 49 44c5.33301 1.33301 9.16602 2 11.499 2s8.16602 -1.66699 17.499 -5
c8 -4.66699 12 -10.667 12 -18c0 -6 -2.33301 -11.333 -7 -16c-10.667 -8.66699 -37.667 -23.334 -81 -44.001z" />
    <glyph glyph-name="Icircumflex" unicode="&#xce;" horiz-adv-x="312" 
d="M575 510c-26.667 9.33301 -65.0068 14 -115.007 14c-1.33301 -5.33301 -12 -37.333 -32 -96c-2.66699 -9.33301 -8.66699 -27.5 -18 -54.5s-16.666 -47.333 -21.999 -61l-22 -57c-9.33301 -24.333 -17.666 -44.166 -24.999 -59.499l-25 -52
c-9.33301 -19.333 -18.833 -36.5 -28.5 -51.5s-21 -30.333 -34 -46s-23.833 -26.834 -32.5 -33.501h66c32.667 0 61.334 0.833008 86.001 2.5s38.167 1.5 40.5 -0.5s2.5 -4.5 0.5 -7.5s-4.33301 -5.83301 -7 -8.5s-6.5 -5.33398 -11.5 -8.00098
s-53.167 -5.33398 -144.5 -8.00098s-153.166 -4 -185.499 -4s-50.166 2.33301 -53.499 7c-2.66699 3.33301 -4 7.5 -4 12.5s2 12.833 6 23.5c4.66699 10.667 13.834 17.5 27.501 20.5s23.167 1.83301 28.5 -3.5c24 -18 47 -27 69 -27c38.667 0 72.334 18.667 101.001 56
c54 72 110.667 223.667 170 455c-61.333 -5.33301 -112.333 -17.833 -153 -37.5s-61 -45.5 -61 -77.5c0 -10.667 2.83301 -20 8.5 -28s11 -13.667 16 -17s11.833 -7.33301 20.5 -12s14.667 -8.16699 18 -10.5s4.66602 -4.5 3.99902 -6.5s-3.66699 -2.33301 -9 -1
c-16 3.33301 -33 13 -51 29s-27.333 34.333 -28 55c-2 7.33301 -3 13.666 -3 18.999c0 28.667 11.667 53.334 35 74.001c45.333 38.667 116.666 58 213.999 58c0 2.66699 1 6 3 10c0.666992 4.66699 5.83398 8 15.501 10s18.834 2.16699 27.501 0.5
s12.667 -5.16699 12 -10.5c-2.66699 -5.33301 -4.33398 -9.66602 -5.00098 -12.999c48.667 -3.33301 85.334 -12.666 110.001 -27.999c15.333 -9.33301 23 -18.333 23 -27c0 -4 -2.5 -6 -7.5 -6s-13.167 2 -24.5 6zM514.993 701.5
c17.333 -21 29.334 -36.6699 36.001 -47.0029s10 -17.666 10 -21.999s-1.5 -6.5 -4.5 -6.5s-6.5 1.33301 -10.5 4c-4 4.66699 -17.667 17 -41 37s-37 32 -41 36c-12.667 -7.33301 -29 -19.166 -49 -35.499s-33.667 -27.166 -41 -32.499c-13.333 -7.33301 -20 -8 -20 -2
s2.16699 10.667 6.5 14s15.5 13.333 33.5 30c45.333 40.667 72.666 61 81.999 61c8.66699 -3.33301 21.667 -15.5 39 -36.5z" />
    <glyph glyph-name="Idieresis" unicode="&#xcf;" horiz-adv-x="312" 
d="M575 510c-26.667 9.33301 -65.0068 14 -115.007 14c-1.33301 -5.33301 -12 -37.333 -32 -96c-2.66699 -9.33301 -8.66699 -27.5 -18 -54.5s-16.666 -47.333 -21.999 -61l-22 -57c-9.33301 -24.333 -17.666 -44.166 -24.999 -59.499l-25 -52
c-9.33301 -19.333 -18.833 -36.5 -28.5 -51.5s-21 -30.333 -34 -46s-23.833 -26.834 -32.5 -33.501h66c32.667 0 61.334 0.833008 86.001 2.5s38.167 1.5 40.5 -0.5s2.5 -4.5 0.5 -7.5s-4.33301 -5.83301 -7 -8.5s-6.5 -5.33398 -11.5 -8.00098
s-53.167 -5.33398 -144.5 -8.00098s-153.166 -4 -185.499 -4s-50.166 2.33301 -53.499 7c-2.66699 3.33301 -4 7.5 -4 12.5s2 12.833 6 23.5c4.66699 10.667 13.834 17.5 27.501 20.5s23.167 1.83301 28.5 -3.5c24 -18 47 -27 69 -27c38.667 0 72.334 18.667 101.001 56
c54 72 110.667 223.667 170 455c-61.333 -5.33301 -112.333 -17.833 -153 -37.5s-61 -45.5 -61 -77.5c0 -10.667 2.83301 -20 8.5 -28s11 -13.667 16 -17s11.833 -7.33301 20.5 -12s14.667 -8.16699 18 -10.5s4.66602 -4.5 3.99902 -6.5s-3.66699 -2.33301 -9 -1
c-16 3.33301 -33 13 -51 29s-27.333 34.333 -28 55c-2 7.33301 -3 13.666 -3 18.999c0 28.667 11.667 53.334 35 74.001c45.333 38.667 116.666 58 213.999 58c0 2.66699 1 6 3 10c0.666992 4.66699 5.83398 8 15.501 10s18.834 2.16699 27.501 0.5
s12.667 -5.16699 12 -10.5c-2.66699 -5.33301 -4.33398 -9.66602 -5.00098 -12.999c48.667 -3.33301 85.334 -12.666 110.001 -27.999c15.333 -9.33301 23 -18.333 23 -27c0 -4 -2.5 -6 -7.5 -6s-13.167 2 -24.5 6zM381.993 679.5l30.5 23.999c6.33301 5 10.5 7.5 12.5 7.5
s1.83301 -3.83301 -0.5 -11.5s-3.5 -13.667 -3.5 -18s-3.33301 -11.666 -10 -21.999s-12 -15.5 -16 -15.5c-22.667 0 -34 5.33301 -34 16c0 2 7 8.5 21 19.5zM585.993 708.999l-6 -26.001c0 -5.33301 -3.5 -13.166 -10.5 -23.499s-12.167 -15.5 -15.5 -15.5
c-22.667 0 -34 5.33301 -34 16c0 2 6.66699 8.66699 20 20c26 20.667 40.167 31 42.5 31s3.5 -0.666992 3.5 -2z" />
    <glyph glyph-name="Eth" unicode="&#xd0;" horiz-adv-x="567" 
d="M32 20c-12 14 -18.001 25.335 -18.001 34.002s1.66699 14.5 5 17.5s7 1.83301 11 -3.5l11 -14l51 146c-24 -1.33301 -39.333 -2 -46 -2c-16 -1.33301 -23.667 2.33398 -23 11.001s7.33398 16.334 20.001 23.001c4.66699 2 8.66699 3 12 3h51
c53.333 136.667 88.666 216 105.999 238c5.33301 2.66699 12.5 3.5 21.5 2.5s17.333 -4 25 -9s10.167 -9.83301 7.5 -14.5l-58.5 -111.5c-25.667 -47.667 -44.167 -82.834 -55.5 -105.501h52c35.333 0 53 -4 53 -12c1.33301 -10 -16 -15 -52 -15l-69 -5
c-27.333 -60.667 -47.666 -119.334 -60.999 -176.001c30.667 -18.667 63.667 -28 99 -28s68.666 4.16699 99.999 12.5s64 22.833 98 43.5s64 44.667 90 72s47 59.166 63 95.499s24 73.5 24 111.5c0 82.667 -38.333 137.667 -115 165c-32 11.333 -72.5 17 -121.5 17
s-110.167 -10.667 -183.5 -32c-6.66699 -2 -14 -0.5 -22 4.5s-12.167 10.833 -12.5 17.5s4.83398 12.667 15.501 18c26 10.667 69 17.667 129 21c14.667 1.33301 29.334 2 44.001 2c59.333 0 113.833 -9.33301 163.5 -28s87 -45.834 112 -81.501s37.5 -77.167 37.5 -124.5
s-12.667 -93 -38 -137c-47.333 -82.667 -124.666 -141.334 -231.999 -176.001c-46.667 -15.333 -92.334 -23 -137.001 -23s-84.667 7 -120 21v-4c-4.66699 -4 -11.834 -6.5 -21.501 -7.5s-15.5 1.5 -17.5 7.5c-0.666992 4.66699 0 13.334 2 26.001z" />
    <glyph glyph-name="Ntilde" unicode="&#xd1;" horiz-adv-x="520" 
d="M826 463c6 0 9.66602 -3.3291 10.999 -9.99609c0 -5.33301 -2.33301 -9.83301 -7 -13.5s-9.66699 -5.83398 -15 -6.50098c-16 0 -37.333 11.667 -64 35c0.666992 -10 1 -20.333 1 -31c0 -53.333 -10.667 -118.333 -32 -195s-53.5 -147.334 -96.5 -212.001
s-86.833 -97 -131.5 -97c-37.333 0 -69.5 14.667 -96.5 44s-47.5 67.666 -61.5 114.999c-25.333 90 -38 187 -38 291c-46 -120.667 -90 -220 -132 -298c-85.333 -150.667 -168.333 -226 -249 -226c-13.333 0 -25 1.33301 -35 4c-27.333 9.33301 -44.333 28 -51 56
c-0.666992 3.33301 -1 6.33301 -1 9s0.333008 6 1 10s2.66699 5.16699 6 3.5s6.66602 -7.83398 9.99902 -18.501c4.66699 -18 16.334 -29.333 35.001 -34c11.333 -3.33301 22.333 -5 33 -5s21 1.66699 31 5c64 20 127.333 87 190 201
c43.333 83.333 87.333 200.666 132 351.999c-36.667 -33.333 -80 -51.666 -130 -54.999c-6.66699 -0.666992 -10.167 1.66602 -10.5 6.99902s3.5 8.66602 11.5 9.99902c28.667 2.66699 58.334 17.667 89.001 45s53.667 58.666 69 93.999
c0.666992 2.66699 4.33398 5.66699 11.001 9s14 5 22 5s15.667 -1 23 -3s10 -6.16699 8 -12.5s-4.66699 -23.5 -8 -51.5s-5 -54 -5 -78c0 -120.667 18.333 -232.667 55 -336c26 -72.667 59 -109 99 -109s77.333 35 112 105s58.5 139.333 71.5 208s19.5 116.834 19.5 144.501
s-1.33301 48.334 -4 62.001s-11.667 42.834 -27 87.501c-0.666992 2 1.66602 5.5 6.99902 10.5s9.33301 7.83301 12 8.5c12.667 0 24.5 -7.66699 35.5 -23s22.167 -33.333 33.5 -54c19.333 -37.333 37.333 -56 54 -56zM436.999 644.004c-2 0 -4.16699 0.666992 -6.5 2
s-3.5 2.33301 -3.5 3s3.16699 5.66699 9.5 15s13.833 19 22.5 29s18.834 18 30.501 24s21.167 9 28.5 9s13.333 -1 18 -3s17 -8 37 -18c30 -15.333 51.333 -23 64 -23c20 0 34 11 42 33c2 4.66699 5.33301 6 10 4s7 -3.66699 7 -5c0 -15.333 -13.333 -32.666 -40 -51.999
c-11.333 -8 -23 -12 -35 -12l-17 3c-6 2 -15.5 5.83301 -28.5 11.5s-22.167 9.5 -27.5 11.5c-28.667 8.66699 -47.334 10.667 -56.001 6c-20 -4.66699 -36.667 -16.334 -50 -35.001c-1.33301 -2 -3 -3 -5 -3z" />
    <glyph glyph-name="Ograve" unicode="&#xd2;" horiz-adv-x="614" 
d="M717 337c0 -99.333 -34.332 -188.332 -102.999 -266.999c-90.667 -102.667 -193 -154 -307 -154c-28.667 0 -57.667 7 -87 21c-58 29.333 -95.667 80.333 -113 153c-5.33301 25.333 -8 50 -8 74c0 50 12.333 99 37 147c42.667 82 111 134 205 156
c17.333 3.33301 33.333 5 48 5c33.333 0 57.666 -7.83301 72.999 -23.5s19.666 -23.5 12.999 -23.5l-16 8c-14 5.33301 -26.167 8 -36.5 8s-19.166 -1 -26.499 -3c-41.333 -10 -79.333 -28.667 -114 -56c-62 -48 -103.667 -111.333 -125 -190
c-8.66699 -30.667 -13 -62.334 -13 -95.001s9.66699 -64 29 -94c28 -43.333 71 -65 129 -65c22 0 46 3 72 9c44.667 10 90 37.833 136 83.5s83.667 99.5 113 161.5s44 120 44 174c0 70.667 -19.667 122 -59 154c-38 30.667 -85.667 46 -143 46
c-8.66699 0 -18 -0.333008 -28 -1c-74 -4.66699 -142.333 -29.667 -205 -75c-46 -32 -84.667 -71.667 -116 -119s-48.666 -94.333 -51.999 -141c-0.666992 -9.33301 -4 -12 -10 -8c-5.33301 4 -8 12.667 -8 26c0 48 14.167 95.167 42.5 141.5s66.166 86.5 113.499 120.5
c33.333 24 71.5 43.167 114.5 57.5s84.167 21.833 123.5 22.5c82 0 148.667 -22.333 200 -67s77 -106.667 77 -186zM570.501 632.001c-6.33301 0 -24.333 6.83203 -54 20.499s-51.5 24.167 -65.5 31.5c-32.667 18 -49 32.667 -49 44c0 6 4.66699 10.667 14 14
c2 0.666992 3.83301 1 5.5 1h5c1.66699 0 3.66699 -0.333008 6 -1s4.16602 -1.16699 5.49902 -1.5s3.16602 -1.16602 5.49902 -2.49902s4.16602 -2.33301 5.49902 -3s3.5 -1.83398 6.5 -3.50098s5.16699 -2.83398 6.5 -3.50098c6.66699 -4.66699 15.834 -11.667 27.501 -21
s29.334 -22.666 53.001 -39.999s35.834 -26.666 36.501 -27.999s1 -2.83301 1 -4.5s-3.16699 -2.5 -9.5 -2.5z" />
    <glyph glyph-name="Oacute" unicode="&#xd3;" horiz-adv-x="614" 
d="M717 337c0 -99.333 -34.332 -188.332 -102.999 -266.999c-90.667 -102.667 -193 -154 -307 -154c-28.667 0 -57.667 7 -87 21c-58 29.333 -95.667 80.333 -113 153c-5.33301 25.333 -8 50 -8 74c0 50 12.333 99 37 147c42.667 82 111 134 205 156
c17.333 3.33301 33.333 5 48 5c33.333 0 57.666 -7.83301 72.999 -23.5s19.666 -23.5 12.999 -23.5l-16 8c-14 5.33301 -26.167 8 -36.5 8s-19.166 -1 -26.499 -3c-41.333 -10 -79.333 -28.667 -114 -56c-62 -48 -103.667 -111.333 -125 -190
c-8.66699 -30.667 -13 -62.334 -13 -95.001s9.66699 -64 29 -94c28 -43.333 71 -65 129 -65c22 0 46 3 72 9c44.667 10 90 37.833 136 83.5s83.667 99.5 113 161.5s44 120 44 174c0 70.667 -19.667 122 -59 154c-38 30.667 -85.667 46 -143 46
c-8.66699 0 -18 -0.333008 -28 -1c-74 -4.66699 -142.333 -29.667 -205 -75c-46 -32 -84.667 -71.667 -116 -119s-48.666 -94.333 -51.999 -141c-0.666992 -9.33301 -4 -12 -10 -8c-5.33301 4 -8 12.667 -8 26c0 48 14.167 95.167 42.5 141.5s66.166 86.5 113.499 120.5
c33.333 24 71.5 43.167 114.5 57.5s84.167 21.833 123.5 22.5c82 0 148.667 -22.333 200 -67s77 -106.667 77 -186zM507.001 651.001c-43.333 -20.667 -68.498 -31.166 -75.498 -31.499s-10.5 0.666992 -10.5 3s0.666992 4.33301 2 6s5.83301 5.16699 13.5 10.5l25.5 17
c9.33301 6 15.666 10.5 18.999 13.5s14.666 11.833 33.999 26.5s32.666 27 39.999 37c4 1.33301 7 2 9 2l20 -6c7.33301 -4.66699 11 -10.667 11 -18s-1.66699 -12 -5 -14l-1 -2c-11.333 -8.66699 -38.666 -23.334 -81.999 -44.001z" />
    <glyph glyph-name="Ocircumflex" unicode="&#xd4;" horiz-adv-x="614" 
d="M717 337c0 -99.333 -34.332 -188.332 -102.999 -266.999c-90.667 -102.667 -193 -154 -307 -154c-28.667 0 -57.667 7 -87 21c-58 29.333 -95.667 80.333 -113 153c-5.33301 25.333 -8 50 -8 74c0 50 12.333 99 37 147c42.667 82 111 134 205 156
c17.333 3.33301 33.333 5 48 5c33.333 0 57.666 -7.83301 72.999 -23.5s19.666 -23.5 12.999 -23.5l-16 8c-14 5.33301 -26.167 8 -36.5 8s-19.166 -1 -26.499 -3c-41.333 -10 -79.333 -28.667 -114 -56c-62 -48 -103.667 -111.333 -125 -190
c-8.66699 -30.667 -13 -62.334 -13 -95.001s9.66699 -64 29 -94c28 -43.333 71 -65 129 -65c22 0 46 3 72 9c44.667 10 90 37.833 136 83.5s83.667 99.5 113 161.5s44 120 44 174c0 70.667 -19.667 122 -59 154c-38 30.667 -85.667 46 -143 46
c-8.66699 0 -18 -0.333008 -28 -1c-74 -4.66699 -142.333 -29.667 -205 -75c-46 -32 -84.667 -71.667 -116 -119s-48.666 -94.333 -51.999 -141c-0.666992 -9.33301 -4 -12 -10 -8c-5.33301 4 -8 12.667 -8 26c0 48 14.167 95.167 42.5 141.5s66.166 86.5 113.499 120.5
c33.333 24 71.5 43.167 114.5 57.5s84.167 21.833 123.5 22.5c82 0 148.667 -22.333 200 -67s77 -106.667 77 -186zM570.001 695.501c17.333 -21 29.167 -36.833 35.5 -47.5s9.5 -18.167 9.5 -22.5s-1.33301 -6.5 -4 -6.5s-6 1.66699 -10 5
c-3.33301 4 -16.833 16.167 -40.5 36.5s-37.5 32.5 -41.5 36.5c-12 -7.33301 -27.833 -19 -47.5 -35s-35 -27.5 -46 -34.5s-16.5 -7.5 -16.5 -1.5s2.16699 10.667 6.5 14s15.833 13.333 34.5 30c42.667 40 69.667 60.667 81 62c8.66699 -3.33301 21.667 -15.5 39 -36.5z" />
    <glyph glyph-name="Otilde" unicode="&#xd5;" horiz-adv-x="614" 
d="M717 337c0 -99.333 -34.332 -188.332 -102.999 -266.999c-90.667 -102.667 -193 -154 -307 -154c-28.667 0 -57.667 7 -87 21c-58 29.333 -95.667 80.333 -113 153c-5.33301 25.333 -8 50 -8 74c0 50 12.333 99 37 147c42.667 82 111 134 205 156
c17.333 3.33301 33.333 5 48 5c33.333 0 57.666 -7.83301 72.999 -23.5s19.666 -23.5 12.999 -23.5l-16 8c-14 5.33301 -26.167 8 -36.5 8s-19.166 -1 -26.499 -3c-41.333 -10 -79.333 -28.667 -114 -56c-62 -48 -103.667 -111.333 -125 -190
c-8.66699 -30.667 -13 -62.334 -13 -95.001s9.66699 -64 29 -94c28 -43.333 71 -65 129 -65c22 0 46 3 72 9c44.667 10 90 37.833 136 83.5s83.667 99.5 113 161.5s44 120 44 174c0 70.667 -19.667 122 -59 154c-38 30.667 -85.667 46 -143 46
c-8.66699 0 -18 -0.333008 -28 -1c-74 -4.66699 -142.333 -29.667 -205 -75c-46 -32 -84.667 -71.667 -116 -119s-48.666 -94.333 -51.999 -141c-0.666992 -9.33301 -4 -12 -10 -8c-5.33301 4 -8 12.667 -8 26c0 48 14.167 95.167 42.5 141.5s66.166 86.5 113.499 120.5
c33.333 24 71.5 43.167 114.5 57.5s84.167 21.833 123.5 22.5c82 0 148.667 -22.333 200 -67s77 -106.667 77 -186zM634.001 662.001c-12 -8 -22.334 -12.001 -31.001 -12.001s-15.834 1 -21.501 3s-15.167 5.83301 -28.5 11.5l-27 11.5
c-28.667 9.33301 -47.334 11.333 -56.001 6c-21.333 -5.33301 -38 -17 -50 -35c-1.33301 -2 -3.16602 -3 -5.49902 -3s-4.5 0.666992 -6.5 2s-3 2.33301 -3 3s3.16699 5.66699 9.5 15s13.833 19 22.5 29s18.834 18 30.501 24s21.167 9 28.5 9s13.5 -1 18.5 -3
s17.5 -8 37.5 -18c29.333 -15.333 50.333 -23 63 -23c19.333 0 33 11 41 33c2.66699 5.33301 6.33398 6.83301 11.001 4.5s7 -4.16602 7 -5.49902c0 -14.667 -13.333 -32 -40 -52z" />
    <glyph glyph-name="Odieresis" unicode="&#xd6;" horiz-adv-x="614" 
d="M717 337c0 -99.333 -34.332 -188.332 -102.999 -266.999c-90.667 -102.667 -193 -154 -307 -154c-28.667 0 -57.667 7 -87 21c-58 29.333 -95.667 80.333 -113 153c-5.33301 25.333 -8 50 -8 74c0 50 12.333 99 37 147c42.667 82 111 134 205 156
c17.333 3.33301 33.333 5 48 5c33.333 0 57.666 -7.83301 72.999 -23.5s19.666 -23.5 12.999 -23.5l-16 8c-14 5.33301 -26.167 8 -36.5 8s-19.166 -1 -26.499 -3c-41.333 -10 -79.333 -28.667 -114 -56c-62 -48 -103.667 -111.333 -125 -190
c-8.66699 -30.667 -13 -62.334 -13 -95.001s9.66699 -64 29 -94c28 -43.333 71 -65 129 -65c22 0 46 3 72 9c44.667 10 90 37.833 136 83.5s83.667 99.5 113 161.5s44 120 44 174c0 70.667 -19.667 122 -59 154c-38 30.667 -85.667 46 -143 46
c-8.66699 0 -18 -0.333008 -28 -1c-74 -4.66699 -142.333 -29.667 -205 -75c-46 -32 -84.667 -71.667 -116 -119s-48.666 -94.333 -51.999 -141c-0.666992 -9.33301 -4 -12 -10 -8c-5.33301 4 -8 12.667 -8 26c0 48 14.167 95.167 42.5 141.5s66.166 86.5 113.499 120.5
c33.333 24 71.5 43.167 114.5 57.5s84.167 21.833 123.5 22.5c82 0 148.667 -22.333 200 -67s77 -106.667 77 -186zM440.001 647.001c-22.667 0 -33.998 5.33301 -33.998 16c0 1.33301 10.167 10 30.5 26s31.166 24 32.499 24c3.33301 0 3.66602 -4 0.999023 -12l-4 -16
c0 -5.33301 -3.33301 -13 -10 -23s-12 -15 -16 -15zM631.003 712.001l-6 -26.999c0 -5.33301 -3.5 -13 -10.5 -23s-12.167 -15 -15.5 -15c-22.667 0 -34 5.33301 -34 16c0 1.33301 9.33301 9.66602 28 24.999c22 17.333 33.833 26 35.5 26s2.5 -0.666992 2.5 -2z" />
    <glyph glyph-name="multiply" unicode="&#xd7;" horiz-adv-x="467" 
d="M56 -2c-8 -8.66699 -15.833 -12.998 -23.5 -12.998s-11.5 3 -11.5 9c0 3.33301 1.33301 7 4 11c20.667 32.667 89 97.667 205 195c-41.333 48.667 -89.666 98 -144.999 148c-9.33301 8 -9.33301 14.667 0 20c4 2 8.16699 3 12.5 3s9.16602 -1.33301 14.499 -4
c24.667 -14 72 -63 142 -147c96.667 82.667 158.334 131 185.001 145c4 2 8.5 3 13.5 3s9.83301 -2 14.5 -6s7 -7.83301 7 -11.5s-2.66699 -7.16699 -8 -10.5c-67.333 -42.667 -132.333 -89.334 -195 -140.001c81.333 -96.667 129.666 -161.667 144.999 -195
c4 -8.66699 -0.666992 -14.334 -14 -17.001c-4 -0.666992 -9.16699 -1 -15.5 -1s-11.833 4 -16.5 12c-46 76.667 -87 137 -123 181c-62 -51.333 -125.667 -112 -191 -182z" />
    <glyph glyph-name="Oslash" unicode="&#xd8;" horiz-adv-x="614" 
d="M171 -18l-16.999 -28c-8.66699 -12.667 -19.334 -19 -32.001 -19c-6.66699 0 -9 3.33301 -7 10c6 13.333 16 31 30 53c-43.333 32 -65 80.667 -65 146c0 32.667 6.66699 65.667 20 99c-26 10.667 -39 34.5 -39 71.5s12.333 71.833 37 104.5c32 42.667 70.667 73 116 91
c50 22 103.333 33 160 33c49.333 0 96 -10.333 140 -31c8 10.667 13.333 16.667 16 18c7.33301 6.66699 14 10 20 10s10.333 -0.333008 13 -1c10.667 -1.33301 12.667 -5.33301 6 -12l-28 -33l1 -1c52.667 -42 79 -99.667 79 -173c0 -40.667 -9.66699 -82.667 -29 -126
c-30 -70 -74.5 -126.167 -133.5 -168.5s-122.167 -63.5 -189.5 -63.5c-36 0 -68.667 6.66699 -98 20zM589.001 360c0 54 -18.332 93.333 -54.999 118l-4 2c-50.667 -62 -110.167 -139.167 -178.5 -231.5s-124.833 -174.5 -169.5 -246.5
c17.333 -6.66699 38.666 -10 63.999 -10c60 0 119.833 22.5 179.5 67.5s103.167 99.5 130.5 163.5c22 50 33 95.667 33 137zM157.002 17c52 80.667 145.001 212.332 279.001 394.999c-10 5.33301 -23 8 -39 8c-38 0 -77.667 -11.333 -119 -34
c-59.333 -33.333 -104 -77.666 -134 -132.999c1.33301 -0.666992 5.16602 -1.33398 11.499 -2.00098s7.5 -3.66699 3.5 -9c-2 -2.66699 -9.66699 -4 -23 -4c-17.333 -34 -26 -70.333 -26 -109c0 -51.333 15.667 -88.666 47 -111.999zM451.003 431.998l50.001 66.001
c-32 15.333 -69.333 23 -112 23c-32 0 -63.667 -4.66699 -95 -14c-82.667 -24.667 -139.334 -62 -170.001 -112c-16.667 -27.333 -25 -52.833 -25 -76.5s4 -40.167 12 -49.5c34.667 75.333 92 128.666 172 159.999c40.667 16.667 76 25 106 25s50.667 -7.33301 62 -22z" />
    <glyph glyph-name="Ugrave" unicode="&#xd9;" horiz-adv-x="474" 
d="M622 570c-9.33301 0 -21.666 -8.33203 -36.999 -24.999c-60.667 -67.333 -105.334 -174.666 -134.001 -321.999c37.333 35.333 74.5 80.666 111.5 135.999s61.5 105.666 73.5 150.999c3.33301 12 5 23 5 33s-2.16699 17 -6.5 21s-8.5 6 -12.5 6zM114 -31.999
c-47.333 0 -71 29.333 -71 88s27.667 144.667 83 258c30 62 47.167 98.167 51.5 108.5s6.5 16.833 6.5 19.5s-1.66699 4 -5 4s-10.666 -4.66699 -21.999 -14c-52 -44 -97.333 -67.333 -136 -70c-6.66699 -0.666992 -10 1 -10 5c0 6.66699 4.33301 10.334 13 11.001
c26 2.66699 64.833 24.834 116.5 66.501s82.834 72.5 93.501 92.5c0.666992 2 3.66699 4.66699 9 8s13.666 5 24.999 5c22.667 0 32.334 -4.33301 29.001 -13c-114.667 -193.333 -179.667 -331.333 -195 -414c-3.33301 -18.667 -5 -35.334 -5 -50.001
c0 -46.667 16.667 -70 50 -70c54.667 0 135.334 51.667 242.001 155c44.667 290.667 115.667 436 213 436c48 0 72 -22 72 -66c0 -10.667 -2.33301 -22 -7 -34c-10.667 -35.333 -28.167 -71.5 -52.5 -108.5s-58.333 -81.333 -102 -133s-69.5 -82.834 -77.5 -93.501
c-9.33301 -47.333 -15.333 -107 -18 -179v-11c0 -63.333 11 -108.333 33 -135c9.33301 -10.667 18.166 -16 26.499 -16s15.833 4 22.5 12c3.33301 5.33301 7.5 10.5 12.5 15.5s9 6.66699 12 5s3.5 -5.83398 1.5 -12.501c-6.66699 -10.667 -11 -17 -13 -19
c-10.667 -13.333 -29.334 -20 -56.001 -20h-7c-38.667 0.666992 -63.334 33.334 -74.001 98.001c-2.66699 20.667 -4 48.5 -4 83.5s4.33301 82.167 13 141.5c-106.667 -102.667 -196.667 -154 -270 -154zM486 600.001c0 -3.33301 -3.00098 -5 -9.00098 -5
c-15.333 0 -59.666 20 -132.999 60c-24 14 -36 26.333 -36 37c0 6 4.66699 10.333 14 13c2.66699 0.666992 5.33398 1 8.00098 1c12 0 28.667 -7.66699 50 -23c39.333 -30 66.666 -50.333 81.999 -61c16 -12.667 24 -20 24 -22z" />
    <glyph glyph-name="Uacute" unicode="&#xda;" horiz-adv-x="474" 
d="M622 570c-9.33301 0 -21.666 -8.33203 -36.999 -24.999c-60.667 -67.333 -105.334 -174.666 -134.001 -321.999c37.333 35.333 74.5 80.666 111.5 135.999s61.5 105.666 73.5 150.999c3.33301 12 5 23 5 33s-2.16699 17 -6.5 21s-8.5 6 -12.5 6zM114 -31.999
c-47.333 0 -71 29.333 -71 88s27.667 144.667 83 258c30 62 47.167 98.167 51.5 108.5s6.5 16.833 6.5 19.5s-1.66699 4 -5 4s-10.666 -4.66699 -21.999 -14c-52 -44 -97.333 -67.333 -136 -70c-6.66699 -0.666992 -10 1 -10 5c0 6.66699 4.33301 10.334 13 11.001
c26 2.66699 64.833 24.834 116.5 66.501s82.834 72.5 93.501 92.5c0.666992 2 3.66699 4.66699 9 8s13.666 5 24.999 5c22.667 0 32.334 -4.33301 29.001 -13c-114.667 -193.333 -179.667 -331.333 -195 -414c-3.33301 -18.667 -5 -35.334 -5 -50.001
c0 -46.667 16.667 -70 50 -70c54.667 0 135.334 51.667 242.001 155c44.667 290.667 115.667 436 213 436c48 0 72 -22 72 -66c0 -10.667 -2.33301 -22 -7 -34c-10.667 -35.333 -28.167 -71.5 -52.5 -108.5s-58.333 -81.333 -102 -133s-69.5 -82.834 -77.5 -93.501
c-9.33301 -47.333 -15.333 -107 -18 -179v-11c0 -63.333 11 -108.333 33 -135c9.33301 -10.667 18.166 -16 26.499 -16s15.833 4 22.5 12c3.33301 5.33301 7.5 10.5 12.5 15.5s9 6.66699 12 5s3.5 -5.83398 1.5 -12.501c-6.66699 -10.667 -11 -17 -13 -19
c-10.667 -13.333 -29.334 -20 -56.001 -20h-7c-38.667 0.666992 -63.334 33.334 -74.001 98.001c-2.66699 20.667 -4 48.5 -4 83.5s4.33301 82.167 13 141.5c-106.667 -102.667 -196.667 -154 -270 -154zM452 626.001c-43.333 -20.667 -68.498 -31.166 -75.498 -31.499
s-10.5 0.666992 -10.5 3s0.666992 4.33301 2 6s5.83301 5.16699 13.5 10.5l25.5 17c9.33301 6 15.666 10.5 18.999 13.5s14.666 11.833 33.999 26.5s32.666 27 39.999 37c4 1.33301 7 2 9 2l20 -6c7.33301 -4.66699 11 -10.667 11 -18s-1.66699 -12 -5 -14l-1 -2
c-11.333 -8.66699 -38.666 -23.334 -81.999 -44.001z" />
    <glyph glyph-name="Ucircumflex" unicode="&#xdb;" horiz-adv-x="474" 
d="M622 570c-9.33301 0 -21.666 -8.33203 -36.999 -24.999c-60.667 -67.333 -105.334 -174.666 -134.001 -321.999c37.333 35.333 74.5 80.666 111.5 135.999s61.5 105.666 73.5 150.999c3.33301 12 5 23 5 33s-2.16699 17 -6.5 21s-8.5 6 -12.5 6zM114 -31.999
c-47.333 0 -71 29.333 -71 88s27.667 144.667 83 258c30 62 47.167 98.167 51.5 108.5s6.5 16.833 6.5 19.5s-1.66699 4 -5 4s-10.666 -4.66699 -21.999 -14c-52 -44 -97.333 -67.333 -136 -70c-6.66699 -0.666992 -10 1 -10 5c0 6.66699 4.33301 10.334 13 11.001
c26 2.66699 64.833 24.834 116.5 66.501s82.834 72.5 93.501 92.5c0.666992 2 3.66699 4.66699 9 8s13.666 5 24.999 5c22.667 0 32.334 -4.33301 29.001 -13c-114.667 -193.333 -179.667 -331.333 -195 -414c-3.33301 -18.667 -5 -35.334 -5 -50.001
c0 -46.667 16.667 -70 50 -70c54.667 0 135.334 51.667 242.001 155c44.667 290.667 115.667 436 213 436c48 0 72 -22 72 -66c0 -10.667 -2.33301 -22 -7 -34c-10.667 -35.333 -28.167 -71.5 -52.5 -108.5s-58.333 -81.333 -102 -133s-69.5 -82.834 -77.5 -93.501
c-9.33301 -47.333 -15.333 -107 -18 -179v-11c0 -63.333 11 -108.333 33 -135c9.33301 -10.667 18.166 -16 26.499 -16s15.833 4 22.5 12c3.33301 5.33301 7.5 10.5 12.5 15.5s9 6.66699 12 5s3.5 -5.83398 1.5 -12.501c-6.66699 -10.667 -11 -17 -13 -19
c-10.667 -13.333 -29.334 -20 -56.001 -20h-7c-38.667 0.666992 -63.334 33.334 -74.001 98.001c-2.66699 20.667 -4 48.5 -4 83.5s4.33301 82.167 13 141.5c-106.667 -102.667 -196.667 -154 -270 -154zM479.5 679.001c17 -20.667 28.833 -36.333 35.5 -47
s10 -18.167 10 -22.5s-1.33301 -6.5 -4 -6.5s-6 1.66699 -10 5c-3.33301 4 -16.833 16 -40.5 36s-37.5 32 -41.5 36c-12 -7.33301 -27.833 -18.833 -47.5 -34.5s-35 -27 -46 -34s-16.5 -7.5 -16.5 -1.5s2 10.667 6 14s15.333 13.333 34 30c44 40.667 71.333 61 82 61
c8.66699 -3.33301 21.5 -15.333 38.5 -36z" />
    <glyph glyph-name="Udieresis" unicode="&#xdc;" horiz-adv-x="474" 
d="M622 570c-9.33301 0 -21.666 -8.33203 -36.999 -24.999c-60.667 -67.333 -105.334 -174.666 -134.001 -321.999c37.333 35.333 74.5 80.666 111.5 135.999s61.5 105.666 73.5 150.999c3.33301 12 5 23 5 33s-2.16699 17 -6.5 21s-8.5 6 -12.5 6zM114 -31.999
c-47.333 0 -71 29.333 -71 88s27.667 144.667 83 258c30 62 47.167 98.167 51.5 108.5s6.5 16.833 6.5 19.5s-1.66699 4 -5 4s-10.666 -4.66699 -21.999 -14c-52 -44 -97.333 -67.333 -136 -70c-6.66699 -0.666992 -10 1 -10 5c0 6.66699 4.33301 10.334 13 11.001
c26 2.66699 64.833 24.834 116.5 66.501s82.834 72.5 93.501 92.5c0.666992 2 3.66699 4.66699 9 8s13.666 5 24.999 5c22.667 0 32.334 -4.33301 29.001 -13c-114.667 -193.333 -179.667 -331.333 -195 -414c-3.33301 -18.667 -5 -35.334 -5 -50.001
c0 -46.667 16.667 -70 50 -70c54.667 0 135.334 51.667 242.001 155c44.667 290.667 115.667 436 213 436c48 0 72 -22 72 -66c0 -10.667 -2.33301 -22 -7 -34c-10.667 -35.333 -28.167 -71.5 -52.5 -108.5s-58.333 -81.333 -102 -133s-69.5 -82.834 -77.5 -93.501
c-9.33301 -47.333 -15.333 -107 -18 -179v-11c0 -63.333 11 -108.333 33 -135c9.33301 -10.667 18.166 -16 26.499 -16s15.833 4 22.5 12c3.33301 5.33301 7.5 10.5 12.5 15.5s9 6.66699 12 5s3.5 -5.83398 1.5 -12.501c-6.66699 -10.667 -11 -17 -13 -19
c-10.667 -13.333 -29.334 -20 -56.001 -20h-7c-38.667 0.666992 -63.334 33.334 -74.001 98.001c-2.66699 20.667 -4 48.5 -4 83.5s4.33301 82.167 13 141.5c-106.667 -102.667 -196.667 -154 -270 -154zM481 711.001l-6 -27.001c0 -5.33301 -3.33301 -13.166 -10 -23.499
s-12 -15.5 -16 -15.5c-22.667 0 -34 5.66699 -34 17c0 1.33301 9.33301 9.33301 28 24c22 18 33.833 27 35.5 27s2.5 -0.666992 2.5 -2zM640 711l-6 -27.001c0 -5.33301 -3.5 -13.166 -10.5 -23.499s-12.5 -15.5 -16.5 -15.5c-22 0 -33 5.66699 -33 17
c0 1.33301 9.33301 9.33301 28 24c22 18 33.833 27 35.5 27s2.5 -0.666992 2.5 -2z" />
    <glyph glyph-name="Yacute" unicode="&#xdd;" horiz-adv-x="526" 
d="M114 -32c-47.333 0 -70.9971 30.666 -70.9971 91.999c0 56 27.667 140.667 83 254c30 62 47.833 99.5 53.5 112.5s5.83398 19.167 0.500977 18.5c-5.33301 -1.33301 -13 -5.66602 -23 -12.999c-52 -44 -97.333 -67.333 -136 -70c-6.66699 -0.666992 -10 1 -10 5
c1.33301 6 5.66602 9.66699 12.999 11c26 2.66699 64.833 24.834 116.5 66.501s82.834 72.5 93.501 92.5c2.66699 8 15.334 12 38.001 12c17.333 -1.33301 25.666 -5.33301 24.999 -12c-114.667 -192.667 -179.667 -330.667 -195 -414
c-3.33301 -18.667 -5 -35.334 -5 -50.001c0 -46.667 16.667 -70 50 -70c27.333 0 58.666 14.167 93.999 42.5s70.333 64.5 105 108.5c82 106.667 145.333 213 190 319c12 28 21.333 44.667 28 50c11.333 18.667 32.666 30 63.999 34c16 2 30.833 1.66699 44.5 -1
s20.834 -4 21.501 -4c7.33301 -1.33301 11 -4.33301 11 -9c0 -0.666992 -0.333008 -1.66699 -1 -3c-2 -5.33301 -5.66699 -7.83301 -11 -7.5s-9.33301 0.5 -12 0.5c-21.333 0 -40 -8.66699 -56 -26s-30 -42.333 -42 -75s-34.667 -102.334 -68 -209.001
s-52 -165.334 -56 -176.001c34.667 8.66699 57.834 13 69.501 13s19.167 -1 22.5 -3c4.66699 -4 5.66699 -7.66699 3 -11s-5.33398 -4.33301 -8.00098 -3s-7.83398 2 -15.501 2s-22.834 -2.83301 -45.501 -8.5s-36 -13.834 -40 -24.501
c-66.667 -168.667 -147.334 -286 -242.001 -352c-42 -29.333 -80 -44 -114 -44c-12.667 0 -24.334 2 -35.001 6c-31.333 11.333 -47 34.333 -47 69c0 40 21 84 63 132c82.667 94.667 193.334 164.334 332.001 209.001c4.66699 10.667 15.667 48.334 33 113.001
s30.333 111.334 39 140.001c-59.333 -90 -121 -165.333 -185 -226s-122.333 -91 -175 -91zM61.0029 -296.001c0 -8 0.998047 -15.334 2.99805 -22.001c6.66699 -26 23.334 -39 50.001 -39c39.333 0 80.333 26.333 123 79c64.667 78 117.667 175 159 291
c-115.333 -38 -207.666 -99.667 -276.999 -185c-38.667 -47.333 -58 -88.666 -58 -123.999zM519.001 647.998c-44 -20.667 -69.666 -31.3311 -76.999 -31.998s-11 0.166016 -11 2.49902s0.833008 4.5 2.5 6.5s6.5 5.66699 14.5 11c20.667 13.333 34 22.333 40 27l38 29
c19.333 14.667 32.666 27 39.999 37c2 0.666992 5.16699 1 9.5 1s10.833 -1.66699 19.5 -5c8 -4.66699 12 -10.667 12 -18c0 -5.33301 -3.66699 -11.333 -11 -18s-33 -20.334 -77 -41.001z" />
    <glyph glyph-name="Thorn" unicode="&#xde;" horiz-adv-x="454" 
d="M497.5 241.5c-19.667 -27.667 -46.833 -49.8311 -81.5 -66.498s-72.5 -28.834 -113.5 -36.501s-71.667 -11.5 -92 -11.5s-36.333 2 -48 6s-15.5 9 -11.5 15c2 3.33301 6.83301 4.16602 14.5 2.49902s18.167 -2.5 31.5 -2.5s25 0.333008 35 1
c66.667 7.33301 126 33 178 77s78 85.333 78 124c0 48.667 -39 80.334 -117 95.001c-22.667 4 -44.5 6 -65.5 6s-40.5 -1 -58.5 -3c-100 -201.333 -159.333 -352.666 -178 -453.999c-6 -5.33301 -13.5 -8 -22.5 -8s-14.5 2.66699 -16.5 8c-1.33301 18 14.5 73.333 47.5 166
s68.833 185 107.5 277c-54.667 -14.667 -108 -35.667 -160 -63c-8.66699 -4.66699 -13 -2 -13 8c0 19.333 17.667 38.166 53 56.499s80.666 30.166 135.999 35.499c30.667 72 49 111.333 55 118c3.33301 2 6.83301 3 10.5 3s8.33398 -0.5 14.001 -1.5
s12.5 -4.16699 20.5 -9.5s11 -10.333 9 -15l-46 -91c49.333 0 95 -6 137 -18s73.5 -30.5 94.5 -55.5s31.5 -51.5 31.5 -79.5s-9.83301 -55.833 -29.5 -83.5z" />
    <glyph glyph-name="germandbls" unicode="&#xdf;" horiz-adv-x="524" 
d="M109 263c14 0 33.001 2.00195 57.001 6.00195h9l21 58c11.333 30.667 25.5 60.667 42.5 90s40.5 57.333 70.5 84c30.667 27.333 64.167 41 100.5 41s62.833 -10.667 79.5 -32c10.667 -12 16 -27.667 16 -47c0 -23.333 -7.66699 -45.333 -23 -66
c-19.333 -28.667 -51.666 -56 -96.999 -82c-29.333 -16 -46.333 -27.333 -51 -34s-8.66699 -13 -12 -19c-5.33301 -12 0.666992 -25 18 -39c68.667 -54 110.334 -92 125.001 -114c9.33301 -16.667 14 -32.834 14 -48.501s-6.66699 -30.834 -20 -45.501
c-23.333 -26.667 -52.333 -47.334 -87 -62.001c-22.667 -10 -54.667 -15 -96 -15c-48 0 -76.333 8.33301 -85 25c-2.66699 5.33301 -1.33398 8 3.99902 8c3.33301 0 7 -1.33301 11 -4c8.66699 -8 18.167 -12 28.5 -12s22.5 0.666992 36.5 2s32.667 6 56 14
s43.833 21.833 61.5 41.5s26.5 39.834 26.5 60.501s-7.16699 39.5 -21.5 56.5s-30.333 31.5 -48 43.5s-33.667 26.333 -48 43s-21.5 32.667 -21.5 48c0 12 14 24.5 42 37.5s48 22.667 60 29s27.167 16.5 45.5 30.5s32.833 29.333 43.5 46s16 31.167 16 43.5
s-2.33301 22.833 -7 31.5c-10.667 22 -31.334 33 -62.001 33h-3c-26 0 -55.167 -14.333 -87.5 -43s-62.5 -73.5 -90.5 -134.5s-50.167 -120.667 -66.5 -179s-36.5 -118.5 -60.5 -180.5s-49.333 -108 -76 -138s-55.667 -45 -87 -45c-12 0 -24.667 2.33301 -38 7
c-37.333 12.667 -56 34.334 -56 65.001c0 9.33301 5.16699 16.5 15.5 21.5s16.5 1.5 18.5 -10.5c0.666992 -2 1 -7.83301 1 -17.5s3.33301 -18.334 10 -26.001s16 -11.5 28 -11.5c26 0 53 18.5 81 55.5s54.833 85.667 80.5 146s53.5 134.833 83.5 223.5h-2
c-47.333 -8.66699 -77.666 -13 -90.999 -13c-22.667 0 -34 6 -34 18c0 6 5.66699 11.167 17 15.5s20.166 6.5 26.499 6.5s11.666 -2 15.999 -6s7.5 -6 9.5 -6z" />
    <glyph glyph-name="agrave" unicode="&#xe0;" horiz-adv-x="457" 
d="M282 137c-2.66699 -1.33301 -15.0039 -14.6641 -37.0039 -39.9971s-47.5 -49.666 -76.5 -72.999s-55.167 -35 -78.5 -35c-10.667 0 -22.167 3.16699 -34.5 9.5s-22.833 15.333 -31.5 27s-13 24.167 -13 37.5s3 26 9 38c13.333 28 34.833 55.167 64.5 81.5
s60.5 48.833 92.5 67.5s57.333 30.334 76 35.001s36.834 7 54.501 7s32.834 -4.5 45.501 -13.5s19 -18.5 19 -28.5c0 -3.33301 -0.333008 -5.33301 -1 -6s-2.33398 -0.333984 -5.00098 0.999023c-8 12.667 -24.5 19 -49.5 19s-53.333 -8.16699 -85 -24.5
s-61.5 -36.833 -89.5 -61.5c-23.333 -22 -43.833 -46.833 -61.5 -74.5s-26.5 -47.834 -26.5 -60.501s2.16699 -22 6.5 -28s9.5 -9 15.5 -9c13.333 0 34.333 11.333 63 34c47.333 40 79.666 69.333 96.999 88c61.333 66 94.333 99 99 99c8 0 17.667 -2.33301 29 -7
s15 -10.334 11 -17.001c-40.667 -58 -61 -114 -61 -168c0 -9.33301 2.83301 -17 8.5 -23s11.834 -9 18.501 -9c16.667 0 48.334 21 95.001 63c30.667 28 55.334 55.333 74.001 82c2.66699 3.33301 5.66699 4.16602 9 2.49902s5 -3.33398 5 -5.00098s-0.666992 -3.5 -2 -5.5
c-9.33301 -17.333 -27.166 -40 -53.499 -68s-50 -49.833 -71 -65.5s-42.5 -25.167 -64.5 -28.5c-8 -0.666992 -15 -1 -21 -1s-14 2.83301 -24 8.5s-16.667 14 -20 25s-5 26.5 -5 46.5s6.33301 46.667 19 80zM364.996 368.002
c0 -3.33301 -3.16602 -4.99805 -9.49902 -4.99805s-24.333 6.83301 -54 20.5s-51.5 24.5 -65.5 32.5c-32.667 17.333 -49 31.666 -49 42.999c0 6 4.66699 10.667 14 14c2 0.666992 3.83301 1 5.5 1h5c1.66699 0 3.66699 -0.333008 6 -1s4.16602 -1.16699 5.49902 -1.5
s3.16602 -1.16602 5.49902 -2.49902s4.16602 -2.33301 5.49902 -3s3.5 -1.83398 6.5 -3.50098s4.83301 -2.83398 5.5 -3.50098c7.33301 -4.66699 16.833 -11.667 28.5 -21s29.334 -22.5 53.001 -39.5s35.834 -26.167 36.501 -27.5s1 -2.33301 1 -3z" />
    <glyph glyph-name="aacute" unicode="&#xe1;" horiz-adv-x="457" 
d="M90 -11c-10.667 0 -22.166 3.16895 -34.499 9.50195s-22.833 15.333 -31.5 27s-13 24.167 -13 37.5s3 26 9 38c13.333 28 34.833 55.167 64.5 81.5s60.5 48.833 92.5 67.5s57.333 30.334 76 35.001s36.834 7 54.501 7s32.834 -4.5 45.501 -13.5s19 -18.5 19 -28.5
c0 -3.33301 -0.333008 -5.33301 -1 -6s-2.33398 -0.333984 -5.00098 0.999023c-8 12.667 -24.5 19 -49.5 19s-53.333 -8.16699 -85 -24.5s-61.5 -36.833 -89.5 -61.5c-23.333 -22 -43.833 -46.833 -61.5 -74.5s-26.5 -47.834 -26.5 -60.501c0 -24.667 7 -37 21 -37
s35.333 11.333 64 34c47.333 40 79.666 69.333 96.999 88c61.333 66 94.333 99 99 99c8 0 17.667 -2.33301 29 -7s15 -10.334 11 -17.001c-34 -48 -54 -96.333 -60 -145c-0.666992 -6 -1 -13.667 -1 -23s2.66699 -17 8 -23c10 -10.667 23.667 -11.334 41 -2.00098
s41.5 28 72.5 56s55.833 55.333 74.5 82c2.66699 3.33301 5.66699 4.16602 9 2.49902s5 -3.16699 5 -4.5c0 -10 -15.833 -31.833 -47.5 -65.5s-55.834 -56.5 -72.501 -68.5c-31.333 -23.333 -60.333 -35 -87 -35c-25.333 0 -42.333 12.667 -51 38c-2 8 -3 17 -3 27
c0 30 6.33301 61.667 19 95c-2.66699 -1.33301 -15 -14.666 -37 -39.999s-47.5 -49.666 -76.5 -72.999s-55.167 -35 -78.5 -35zM377.001 396.002c-43.333 -20.667 -68.498 -31.166 -75.498 -31.499s-10.5 0.666992 -10.5 3s0.666992 4.33301 2 6s5.83301 5.16699 13.5 10.5
l25.5 17c9.33301 6 15.666 10.5 18.999 13.5s14.666 11.833 33.999 26.5s32.666 27 39.999 37c4 1.33301 7 2 9 2l20 -6c7.33301 -4.66699 11 -10.667 11 -18s-1.66699 -12 -5 -14l-1 -2c-11.333 -8.66699 -38.666 -23.334 -81.999 -44.001z" />
    <glyph glyph-name="acircumflex" unicode="&#xe2;" horiz-adv-x="457" 
d="M90 -11c-10.667 0 -22.166 3.16895 -34.499 9.50195s-22.833 15.333 -31.5 27s-13 24.167 -13 37.5s3 26 9 38c13.333 28 34.833 55.167 64.5 81.5s60.5 48.833 92.5 67.5s57.333 30.334 76 35.001s36.834 7 54.501 7s32.834 -4.5 45.501 -13.5s19 -18.5 19 -28.5
c0 -3.33301 -0.333008 -5.33301 -1 -6s-2.33398 -0.333984 -5.00098 0.999023c-8 12.667 -24.5 19 -49.5 19s-53.333 -8.16699 -85 -24.5s-61.5 -36.833 -89.5 -61.5c-23.333 -22 -43.833 -46.833 -61.5 -74.5s-26.5 -47.834 -26.5 -60.501c0 -24.667 7 -37 21 -37
s35.333 11.333 64 34c47.333 40 79.666 69.333 96.999 88c61.333 66 94.333 99 99 99c8 0 17.667 -2.33301 29 -7s15 -10.334 11 -17.001c-34 -48 -54 -96.333 -60 -145c-0.666992 -6 -1 -13.667 -1 -23s2.66699 -17 8 -23c10 -10.667 23.667 -11.334 41 -2.00098
s41.5 28 72.5 56s55.833 55.333 74.5 82c2.66699 3.33301 5.66699 4.16602 9 2.49902s5 -3.16699 5 -4.5c0 -10 -15.833 -31.833 -47.5 -65.5s-55.834 -56.5 -72.501 -68.5c-31.333 -23.333 -60.333 -35 -87 -35c-25.333 0 -42.333 12.667 -51 38c-2 8 -3 17 -3 27
c0 30 6.33301 61.667 19 95c-2.66699 -1.33301 -15 -14.666 -37 -39.999s-47.5 -49.666 -76.5 -72.999s-55.167 -35 -78.5 -35zM374.501 428.002c17 -20.667 28.833 -36.333 35.5 -47s10 -18.167 10 -22.5s-1.33301 -6.5 -4 -6.5s-6 1.83301 -10 5.5s-17.667 15.5 -41 35.5
s-37 32 -41 36c-12 -7.33301 -27.833 -18.833 -47.5 -34.5s-35 -27 -46 -34s-16.5 -7.5 -16.5 -1.5s2.5 11 7.5 15s16.167 14 33.5 30c44.667 40 71.667 60 81 60c8.66699 -3.33301 21.5 -15.333 38.5 -36z" />
    <glyph glyph-name="atilde" unicode="&#xe3;" horiz-adv-x="457" 
d="M90 -11c-10.667 0 -22.166 3.16895 -34.499 9.50195s-22.833 15.333 -31.5 27s-13 24.167 -13 37.5s3 26 9 38c13.333 28 34.833 55.167 64.5 81.5s60.5 48.833 92.5 67.5s57.333 30.334 76 35.001s36.834 7 54.501 7s32.834 -4.5 45.501 -13.5s19 -18.5 19 -28.5
c0 -3.33301 -0.333008 -5.33301 -1 -6s-2.33398 -0.333984 -5.00098 0.999023c-8 12.667 -24.5 19 -49.5 19s-53.333 -8.16699 -85 -24.5s-61.5 -36.833 -89.5 -61.5c-23.333 -22 -43.833 -46.833 -61.5 -74.5s-26.5 -47.834 -26.5 -60.501c0 -24.667 7 -37 21 -37
s35.333 11.333 64 34c47.333 40 79.666 69.333 96.999 88c61.333 66 94.333 99 99 99c8 0 17.667 -2.33301 29 -7s15 -10.334 11 -17.001c-34 -48 -54 -96.333 -60 -145c-0.666992 -6 -1 -13.667 -1 -23s2.66699 -17 8 -23c10 -10.667 23.667 -11.334 41 -2.00098
s41.5 28 72.5 56s55.833 55.333 74.5 82c2.66699 3.33301 5.66699 4.16602 9 2.49902s5 -3.16699 5 -4.5c0 -10 -15.833 -31.833 -47.5 -65.5s-55.834 -56.5 -72.501 -68.5c-31.333 -23.333 -60.333 -35 -87 -35c-25.333 0 -42.333 12.667 -51 38c-2 8 -3 17 -3 27
c0 30 6.33301 61.667 19 95c-2.66699 -1.33301 -15 -14.666 -37 -39.999s-47.5 -49.666 -76.5 -72.999s-55.167 -35 -78.5 -35zM436.001 433.002c1.33301 2 4.66602 3.00098 9.99902 3.00098s8 -1.66699 8 -5c0 -15.333 -13.333 -32.333 -40 -51
c-11.333 -8.66699 -21.5 -13 -30.5 -13s-16.333 1 -22 3s-15 5.83301 -28 11.5s-22.167 9.16699 -27.5 10.5c-30 9.33301 -48.667 11.666 -56 6.99902c-22 -5.33301 -38.667 -17 -50 -35c-1.33301 -2 -3.16602 -3 -5.49902 -3s-4.5 0.666992 -6.5 2s-3 2.5 -3 3.5
s3.33301 6.16699 10 15.5s14.167 18.833 22.5 28.5s18.333 17.5 30 23.5s21 9 28 9s13.5 -1 19.5 -3s18.333 -8 37 -18c30 -14.667 51 -22 63 -22c19.333 0 33 11 41 33z" />
    <glyph glyph-name="adieresis" unicode="&#xe4;" horiz-adv-x="457" 
d="M282 137c-2.66699 -1.33301 -15.0039 -14.6641 -37.0039 -39.9971s-47.5 -49.666 -76.5 -72.999s-55.167 -35 -78.5 -35c-10.667 0 -22.167 3.16699 -34.5 9.5s-22.833 15.333 -31.5 27s-13 24.167 -13 37.5s3 26 9 38c13.333 28 34.833 55.167 64.5 81.5
s60.5 48.833 92.5 67.5s57.333 30.334 76 35.001s36.834 7 54.501 7s32.834 -4.5 45.501 -13.5s19 -18.5 19 -28.5c0 -3.33301 -0.333008 -5.33301 -1 -6s-2.33398 -0.333984 -5.00098 0.999023c-8 12.667 -24.5 19 -49.5 19s-53.333 -8.16699 -85 -24.5
s-61.5 -36.833 -89.5 -61.5c-23.333 -22 -43.833 -46.833 -61.5 -74.5s-26.5 -47.834 -26.5 -60.501s2.16699 -22 6.5 -28s9.5 -9 15.5 -9c13.333 0 34.333 11.333 63 34c47.333 40 79.666 69.333 96.999 88c61.333 66 94.333 99 99 99c8 0 17.667 -2.33301 29 -7
s15 -10.334 11 -17.001c-40.667 -58 -61 -114 -61 -168c0 -9.33301 2.83301 -17 8.5 -23s11.834 -9 18.501 -9c16.667 0 48.334 21 95.001 63c30.667 28 55.334 55.333 74.001 82c2.66699 3.33301 5.66699 4.16602 9 2.49902s5 -3.33398 5 -5.00098s-0.666992 -3.5 -2 -5.5
c-9.33301 -17.333 -27.166 -40 -53.499 -68s-50 -49.833 -71 -65.5s-42.5 -25.167 -64.5 -28.5c-8 -0.666992 -15 -1 -21 -1s-14 2.83301 -24 8.5s-16.667 14 -20 25s-5 26.5 -5 46.5s6.33301 46.667 19 80zM204.996 380.002c0 2.66699 10 11.832 30 27.499
s31.167 23.5 33.5 23.5s2.33301 -3.83301 0 -11.5s-3.5 -13.667 -3.5 -18s-3.33301 -11.666 -10 -21.999s-12 -15.5 -16 -15.5c-22.667 0 -34 5.33301 -34 16zM429.996 429l-6 -26.001c0 -5.33301 -3.5 -13.166 -10.5 -23.499s-12.5 -15.5 -16.5 -15.5
c-22 0 -33 5.33301 -33 16c0 2 6.66699 8.66699 20 20c26 20.667 40.167 31 42.5 31s3.5 -0.666992 3.5 -2z" />
    <glyph glyph-name="aring" unicode="&#xe5;" horiz-adv-x="457" 
d="M282 137c-2.66699 -1.33301 -15.0039 -14.6641 -37.0039 -39.9971s-47.5 -49.666 -76.5 -72.999s-55.167 -35 -78.5 -35c-10.667 0 -22.167 3.16699 -34.5 9.5s-22.833 15.333 -31.5 27s-13 24.167 -13 37.5s3 26 9 38c13.333 28 34.833 55.167 64.5 81.5
s60.5 48.833 92.5 67.5s57.333 30.334 76 35.001s36.834 7 54.501 7s32.834 -4.5 45.501 -13.5s19 -18.5 19 -28.5c0 -3.33301 -0.333008 -5.33301 -1 -6s-2.33398 -0.333984 -5.00098 0.999023c-8 12.667 -24.5 19 -49.5 19s-53.333 -8.16699 -85 -24.5
s-61.5 -36.833 -89.5 -61.5c-23.333 -22 -43.833 -46.833 -61.5 -74.5s-26.5 -47.834 -26.5 -60.501s2.16699 -22 6.5 -28s9.5 -9 15.5 -9c13.333 0 34.333 11.333 63 34c47.333 40 79.666 69.333 96.999 88c61.333 66 94.333 99 99 99c8 0 17.667 -2.33301 29 -7
s15 -10.334 11 -17.001c-40.667 -58 -61 -114 -61 -168c0 -9.33301 2.83301 -17 8.5 -23s11.834 -9 18.501 -9c16.667 0 48.334 21 95.001 63c30.667 28 55.334 55.333 74.001 82c2.66699 3.33301 5.66699 4.16602 9 2.49902s5 -3.33398 5 -5.00098s-0.666992 -3.5 -2 -5.5
c-9.33301 -17.333 -27.166 -40 -53.499 -68s-50 -49.833 -71 -65.5s-42.5 -25.167 -64.5 -28.5c-8 -0.666992 -15 -1 -21 -1s-14 2.83301 -24 8.5s-16.667 14 -20 25s-5 26.5 -5 46.5s6.33301 46.667 19 80zM425.996 443.002c0 23.333 -11.667 35 -35 35
c-17.333 0 -33.333 -8.16699 -48 -24.5s-22 -30.166 -22 -41.499c0 -22 12 -33 36 -33c15.333 0 28.833 5.16699 40.5 15.5s19.5 21.166 23.5 32.499c3.33301 4 5 9.33301 5 16zM448.996 448.002c0 -24.667 -14.668 -47.667 -44.001 -69
c-14.667 -9.33301 -28.667 -14 -42 -14s-25.666 2.33301 -36.999 7c-21.333 8 -32 22 -32 42c0 24 13.333 44.333 40 61c12 10 28.667 15 50 15c43.333 0 65 -14 65 -42z" />
    <glyph glyph-name="ae" unicode="&#xe6;" horiz-adv-x="565" 
d="M624 151c4 0 6.00684 -2.00293 6.00684 -6.00293c0 -2 -1 -4.33301 -3 -7c-18.667 -32.667 -43.334 -62.167 -74.001 -88.5s-61.834 -46 -93.501 -59s-59.334 -19.5 -83.001 -19.5s-45.5 5.33301 -65.5 16c-30 15.333 -45 40.666 -45 75.999
c0 20.667 5.33301 45.334 16 74.001c-2.66699 -1.33301 -15 -14.666 -37 -39.999s-47.5 -49.666 -76.5 -72.999s-55.167 -35 -78.5 -35c-10.667 0 -22.167 3.16699 -34.5 9.5s-22.833 15.333 -31.5 27s-13 24.167 -13 37.5s3 26 9 38c13.333 28 34.833 55.167 64.5 81.5
s60.5 48.833 92.5 67.5s57.333 30.334 76 35.001s36.834 7 54.501 7s32.834 -4.5 45.501 -13.5s19 -18.5 19 -28.5c0 -3.33301 -0.333008 -5.33301 -1 -6s-2.33398 -0.333984 -5.00098 0.999023c-8 12.667 -24.5 19 -49.5 19s-53.333 -8.16699 -85 -24.5
s-61.5 -36.833 -89.5 -61.5c-23.333 -22 -43.833 -46.833 -61.5 -74.5s-26.5 -47.834 -26.5 -60.501c0 -24.667 7 -37 21 -37s35.333 11.333 64 34c47.333 40 79.666 69.333 96.999 88c61.333 66 94.333 99 99 99c12.667 0 24 -3 34 -9c30.667 26 58.834 44.833 84.501 56.5
s46.5 17.5 62.5 17.5c36 0 54 -17.667 54 -53c0 -18 -5 -32.667 -15 -44c-16.667 -24.667 -43.5 -46.167 -80.5 -64.5s-68.833 -28.5 -95.5 -30.5c-9.33301 -0.666992 -14.333 2 -15 8c-0.666992 2.66699 0.166016 4.33398 2.49902 5.00098s4.16602 1 5.49902 1
c33.333 3.33301 75 25 125 65c11.333 8.66699 21.666 19 30.999 31s14 23.5 14 34.5s-5.33301 16.5 -16 16.5c-8.66699 0 -20.334 -3.66699 -35.001 -11c-31.333 -14.667 -64.333 -40.167 -99 -76.5s-57.334 -71.833 -68.001 -106.5c-3.33301 -10.667 -5 -21.167 -5 -31.5
s4.33301 -20.166 13 -29.499s22 -14 40 -14c20 0 43 5.33301 69 16c69.333 28 127.666 74.333 174.999 139c2.66699 2.66699 5.33398 4 8.00098 4z" />
    <glyph glyph-name="ccedilla" unicode="&#xe7;" horiz-adv-x="315" 
d="M291 220l4.99609 20.001c0 13.333 -5 20 -15 20c-27.333 0 -64.666 -21.333 -111.999 -64s-77.333 -85.667 -90 -129c-3.33301 -11.333 -5 -21.5 -5 -30.5s2 -16.5 6 -22.5c8 -12 20.333 -18 37 -18s34.667 2.33301 54 7c42.667 12 78.167 29.167 106.5 51.5
s58.166 53.5 89.499 93.5c2.66699 3.33301 5.83398 4.33301 9.50098 3s5.5 -3.16602 5.5 -5.49902s-1 -5.83301 -3 -10.5c-62.667 -87.333 -132.334 -139.333 -209.001 -156c7.33301 0 10.333 -3 9 -9c-2 -5.33301 -11.667 -19.333 -29 -42s-26.666 -34.667 -27.999 -36
c14 2.66699 29.333 4 46 4s32.334 -4.33301 47.001 -13c22.667 -13.333 34 -32.333 34 -57s-11.667 -47.667 -35 -69c-42 -38 -90.333 -57 -145 -57l-28 2c-30.667 4 -52.334 16.667 -65.001 38c-3.33301 6 -5 10.333 -5 13s1.66699 4.66699 5 6s8 -2.33398 14 -11.001
c13.333 -20.667 36.333 -31 69 -31c44 0 83 17.333 117 52c17.333 18 26 36 26 54s-5 30.667 -15 38s-20.333 11 -31 11l-58 -7c-5.33301 0 -8.5 1.16699 -9.5 3.5s4.33301 11.166 16 26.499s21.334 32.333 29.001 51s12.834 28.334 15.501 29.001
c-9.33301 -1.33301 -18.333 -2 -27 -2c-35.333 0 -62.666 10.333 -81.999 31c-13.333 14 -20 30.333 -20 49s4.66699 39 14 61c16.667 38 52.334 77 107.001 117s98 60 130 60c8 0 15.667 -1 23 -3c18.667 -6.66699 28 -17.334 28 -32.001c0 -10 -3.66699 -21.333 -11 -34
s-12.833 -17.167 -16.5 -13.5s-4.83398 7.5 -3.50098 11.5z" />
    <glyph glyph-name="egrave" unicode="&#xe8;" horiz-adv-x="319" 
d="M325 239c0 -18 -5 -32.6699 -15 -44.0029c-16.667 -24.667 -43.667 -46.167 -81 -64.5s-69 -28.5 -95 -30.5c-7.33301 -0.666992 -12.166 1.33301 -14.499 6s0.166992 7.33398 7.5 8.00098c15.333 1.33301 35 8.5 59 21.5s46 27.5 66 43.5c30 22.667 45 44.334 45 65.001
c0 11.333 -5.33301 17 -16 17c-8.66699 0 -20.334 -3.66699 -35.001 -11c-31.333 -14.667 -64.333 -40 -99 -76c-48.667 -51.333 -73 -97.333 -73 -138c0 -10.667 4.33301 -20.667 13 -30s22.5 -14 41.5 -14s41.5 5.33301 67.5 16c75.333 30.667 133.333 77 174 139
c4 5.33301 7.66699 6.33301 11 3c2.66699 -1.33301 4 -3 4 -5s-1 -4.33301 -3 -7c-20 -33.333 -45.167 -63 -75.5 -89s-62.833 -46.333 -97.5 -61l-68 -16h-10c-74 5.33301 -111 34 -111 86c0 56.667 40.333 114.334 121 173.001c54.667 40 98 60 130 60
c36 0 54 -17.333 54 -52zM347 368.497c0 -3 -3.00195 -4.5 -9.00195 -4.5s-24.167 6.83301 -54.5 20.5s-52.166 24.167 -65.499 31.5c-32.667 19.333 -49 34 -49 44c0 6 5 10.667 15 14c2 0.666992 4.33301 1 7 1c12 0 28.667 -7.66699 50 -23
c8.66699 -7.33301 42.334 -33 101.001 -77c3.33301 -1.33301 5 -3.5 5 -6.5z" />
    </font>
</defs>
</svg>
