<?xml version="1.0" standalone="no"?>
<!DOCTYPE svg PUBLIC "-//W3C//DTD SVG 1.1//EN" "http://www.w3.org/Graphics/SVG/1.1/DTD/svg11.dtd" >
<svg>
<metadata>
Created by FontForge 20090914 at Tue Jan  2 14:05:24 2018
 By www-data
Copyright (c) 2010, Kimberly Geswein (kimberlygeswein.com)
</metadata>
<defs>
<font id="Cedarville-Cursive" horiz-adv-x="551" >
  <font-face 
    font-family="Cedarville Cursive"
    font-weight="400"
    font-stretch="normal"
    units-per-em="1024"
    panose-1="2 0 0 0 0 0 0 0 0 0"
    ascent="819"
    descent="-205"
    x-height="356.002"
    cap-height="750.999"
    bbox="-236 -663 1355 1279"
    underline-thickness="51"
    underline-position="-52"
    unicode-range="U+0020-U+FB02"
  />
<missing-glyph horiz-adv-x="461" 
 />
    <glyph glyph-name=".notdef" horiz-adv-x="461" 
 />
    <glyph glyph-name="space" unicode=" " horiz-adv-x="461" 
 />
    <glyph glyph-name="exclam" unicode="!" horiz-adv-x="116" 
d="M33 25c-1.33301 4 -1.33105 8.16797 0.00195312 12.501s3.66602 8 6.99902 11s7 5.33301 11 7s8 2.5 12 2.5c3.33301 0 7.16602 -1 11.499 -3s8.33301 -4.5 12 -7.5s6.83398 -6.5 9.50098 -10.5s4 -8 4 -12c0 -10 -4.5 -16.667 -13.5 -20s-17.167 -5 -24.5 -5h-4
c-1.33301 1.33301 -3.33301 3.16602 -6 5.49902s-5.33398 4.83301 -8.00098 7.5l-7.5 7.5c-2.33301 2.33301 -3.5 3.83301 -3.5 4.5zM16.002 780.001c0 14 0.166016 26.5 0.499023 37.5s0.833008 22.167 1.5 33.5s1.5 23 2.5 35s2.5 26.667 4.5 44
c3.33301 8 7.33301 13.167 12 15.5s10.334 3.5 17.001 3.5c9.33301 0 16.5 -2.66699 21.5 -8s7.5 -14.666 7.5 -27.999v-506l-16 -150c0 -0.666992 -0.833008 -1 -2.5 -1h-4.5c-7.33301 0 -13.5 11.333 -18.5 34s-9 51.5 -12 86.5s-5.5 73.667 -7.5 116
s-3.33301 82.833 -4 121.5s-1.16699 73.167 -1.5 103.5s-0.5 51.166 -0.5 62.499z" />
    <glyph glyph-name="quotedbl" unicode="&#x22;" horiz-adv-x="356" 
d="M24 738l0.00488281 38.498c0 11.667 0.333008 23 1 34s1.66699 22 3 33s3 23.167 5 36.5c1.33301 4.66699 4.16602 7.33398 8.49902 8.00098s8.5 1 12.5 1s8.16699 -0.333008 12.5 -1s7.16602 -3.33398 8.49902 -8.00098v-9c0 -4 0.166992 -8.5 0.5 -13.5
s0.5 -9.5 0.5 -13.5v-9c0 -21.333 -1.5 -42.666 -4.5 -63.999s-4.5 -43 -4.5 -65c0 -38 4.16699 -67 12.5 -87s17.5 -35.167 27.5 -45.5s19.333 -18.166 28 -23.499s13 -12 13 -20c-30.667 0 -54.334 6.5 -71.001 19.5s-28.834 29.5 -36.501 49.5s-12.334 42.333 -14.001 67
s-2.5 48.667 -2.5 72zM199.005 760.998c0 4.66699 1.16895 13.335 3.50195 26.002s5.83301 26.167 10.5 40.5s10.334 26.833 17.001 37.5s14.667 16 24 16l2 -1h1c2 -0.666992 5 -3 9 -7s6.66699 -7.33301 8 -10c-5.33301 -14 -9.5 -26 -12.5 -36s-5.66699 -19.5 -8 -28.5
s-4 -18.167 -5 -27.5s-1.5 -19.666 -1.5 -30.999c0 -16 1.83301 -29.833 5.5 -41.5s8.5 -22.834 14.5 -33.501s13.167 -21.334 21.5 -32.001l26.5 -35c1.33301 -2 3 -4.16699 5 -6.5s4 -5.16602 6 -8.49902c2 -2.66699 4 -6 6 -10l-9 -8c-4 -4 -9.66699 -4.16699 -17 -0.5
s-15.333 9.66699 -24 18s-17.334 18 -26.001 29l-24 31.5c-7.33301 10 -13.333 18.5 -18 25.5s-7 11.167 -7 12.5c0 2 -0.5 5.83301 -1.5 11.5s-1.83301 12.167 -2.5 19.5s-1.33398 14.166 -2.00098 20.499s-1.33398 11.166 -2.00098 14.499v14z" />
    <glyph glyph-name="numbersign" unicode="#" horiz-adv-x="772" 
d="M332 41c-0.666992 4.66699 -2.16504 12.001 -4.49805 22.001l-7.5 32l-7.5 32.5c-2.33301 10.333 -4.16602 17.5 -5.49902 21.5l-3.5 13.5c-1.66699 6.33301 -3.16699 10.5 -4.5 12.5h-12.5h-19h-19h-11.5c-30.667 0 -60.834 -1.66699 -90.501 -5s-59.834 -5 -90.501 -5
c-6.66699 0 -13.5 0.166992 -20.5 0.5s-13.5 3.5 -19.5 9.5l9 8l240 41c4.66699 -1.33301 9.33398 -0.666016 14.001 2.00098s8.66699 4.66699 12 6v22c0 6 -0.166992 17.5 -0.5 34.5s-1.16602 34.833 -2.49902 53.5s-3 35.167 -5 49.5s-5 22.166 -9 23.499
c-2 0 -7 0.166992 -15 0.5s-12.667 0.5 -14 0.5c-13.333 0 -26.5 -1.33301 -39.5 -4s-26 -5.66699 -39 -9s-26 -6.33301 -39 -9s-26.167 -4 -39.5 -4c0 7.33301 2 13.5 6 18.5s9 8.83301 15 11.5s12.5 4.66699 19.5 6s13.833 3 20.5 5c4.66699 2 13 4.66699 25 8l37.5 10
l37 9.5l25.5 6.5v202c12.667 0 23 -3.83301 31 -11.5s14 -17.334 18 -29.001s6.66699 -24.667 8 -39s2.33301 -28.666 3 -42.999s1.33398 -27.833 2.00098 -40.5s2 -23 4 -31h8h8l24 3.5l35.5 5c12.333 1.66699 23.833 3.5 34.5 5.5s18 3 22 3c6 2 10.5 6.33301 13.5 13
s4.66699 13.667 5 21s0.333008 14.833 0 22.5s-0.5 13.834 -0.5 18.501c0 6 0.333008 16.833 1 32.5s1.5 32.334 2.5 50.001s2 34.334 3 50.001s1.83301 26.834 2.5 33.501l4.5 0.5c3 0.333008 5.16699 0.5 6.5 0.5c12 0 20 -4.16699 24 -12.5s6 -18.5 6 -30.5v-190h157
c5.33301 0 8.16602 -2.33301 8.49902 -7s0.5 -8.33398 0.5 -11.001c0 -4.66699 -1.83301 -8.83398 -5.5 -12.501s-8.16699 -7 -13.5 -10s-11 -5.33301 -17 -7s-10.667 -2.83398 -14 -3.50098c-4 0 -11.667 -0.5 -23 -1.5l-35.5 -3c-12.333 -1 -24 -2 -35 -3
s-18.5 -1.5 -22.5 -1.5l-8 -32v-167h199c1.33301 0 4.16602 -1.83301 8.49902 -5.5s6.83301 -7.16699 7.5 -10.5c2 -6 0.666992 -11 -4 -15s-10 -7.33301 -16 -10s-12 -4.66699 -18 -6s-10 -2 -12 -2c-6 -0.666992 -16.833 -1.33398 -32.5 -2.00098s-32.167 -1.5 -49.5 -2.5
s-34 -1.83301 -50 -2.5s-27 -1 -33 -1v-8c0 -4 -0.166992 -8.16699 -0.5 -12.5s-0.5 -8.5 -0.5 -12.5v-9c0 -18 2.83301 -34.333 8.5 -49s8.5 -30 8.5 -46v-5l-4 -4l-4 -4h-5h-3c-0.666992 0 -2.33398 0.666992 -5.00098 2s-5.5 2.66602 -8.5 3.99902s-5.66699 3 -8 5
s-3.5 3.66699 -3.5 5l-26 134h-112c0 -13.333 1 -26.5 3 -39.5s4.33301 -26 7 -39l8 -37.5c2.66699 -12 4 -24.333 4 -37c0 -6.66699 -0.333008 -12.167 -1 -16.5s-3.33398 -8.83301 -8.00098 -13.5c-5.33301 1.33301 -10.5 3.83301 -15.5 7.5s-9.66699 7.5 -14 11.5
s-8.33301 8.16699 -12 12.5s-6.5 7.5 -8.5 9.5zM339.002 365.001l-0.00292969 -11.999c0 -5.33301 0.166992 -10.833 0.5 -16.5s0.5 -10.5 0.5 -14.5v-7c0 -5.33301 0.5 -12.166 1.5 -20.499l3 -25l2.5 -21l1 -8.5h124l10 183l-10 8h-9c-3.33301 0 -6.5 0.166992 -9.5 0.5
s-5.16699 0.5 -6.5 0.5c-5.33301 0 -13.666 0.333008 -24.999 1s-22.666 0.666992 -33.999 0s-21.666 -2.33398 -30.999 -5.00098s-15 -7 -17 -13v-9.5c0 -4.33301 -0.166992 -9.33301 -0.5 -15s-0.5 -10.834 -0.5 -15.501v-10z" />
    <glyph glyph-name="dollar" unicode="$" horiz-adv-x="631" 
d="M390 191l-7.99512 0.00585938c-4 0 -8.16699 0.166992 -12.5 0.5s-8.5 0.5 -12.5 0.5h-9c-19.333 0 -38.5 -3 -57.5 -9s-36.833 -9 -53.5 -9c-7.33301 0 -11.333 0.166992 -12 0.5s-1 1.16602 -1 2.49902s-1.33301 3 -4 5s-9.66699 5 -21 9
c-18.667 6 -38.334 11.667 -59.001 17s-39.667 12.333 -57 21s-31.833 20.167 -43.5 34.5s-17.5 34.166 -17.5 59.499h11c14 -27.333 32.167 -49.5 54.5 -66.5s49.833 -25.5 82.5 -25.5c4 0 8.16699 0.333008 12.5 1s7.16602 3.33398 8.49902 8.00098
c-2 34.667 -1.83301 69.167 0.5 103.5s5.33301 68.666 9 102.999l10.5 102.5c3.33301 34 5 68.333 5 103v12c-10.667 14.667 -19.5 27.5 -26.5 38.5s-12.333 21.833 -16 32.5s-6 22.167 -7 34.5s-1.5 27.166 -1.5 44.499v9.5c0 5 0.166992 10 0.5 15s0.5 9.83301 0.5 14.5
v10c5.33301 11.333 10.833 21.833 16.5 31.5s11.834 18.667 18.501 27s13.834 16.5 21.501 24.5s16.167 16.333 25.5 25c3.33301 24.667 6 52 8 82s2.33301 58.333 1 85c0 0.666992 1.16699 2.16699 3.5 4.5s3.83301 3.5 4.5 3.5c10 0 16.5 -4 19.5 -12
s5.16699 -15.333 6.5 -22c0.666992 -3.33301 1.83398 -9.66602 3.50098 -18.999s3.33398 -19.333 5.00098 -30l5 -30.5c1.66699 -9.66699 2.5 -16.5 2.5 -20.5l8 -8l83 26v6c0 2 0.166992 3.83301 0.5 5.5s0.5 3.16699 0.5 4.5c0 17.333 -0.5 35.5 -1.5 54.5
s-3.33301 38 -7 57s-8.83398 37.5 -15.501 55.5s-15.667 34.333 -27 49c4 6.66699 7.66699 11.167 11 13.5s8 3.5 14 3.5c11.333 0 21.166 -5.33301 29.499 -16s15.833 -23.834 22.5 -39.501s12.167 -33.5 16.5 -53.5s7.66602 -39.167 9.99902 -57.5s3.83301 -35 4.5 -50
s0.666992 -25.833 0 -32.5c18 -6 36 -13 54 -21s34.167 -18.167 48.5 -30.5s26 -26.5 35 -42.5s13.5 -35 13.5 -57c0 -8 -1.83301 -13.667 -5.5 -17s-10.5 -8.33301 -20.5 -15l-1 -1h-3c-0.666992 0 -1.33398 0.166992 -2.00098 0.5s-1.33398 0.5 -2.00098 0.5
c2.66699 13.333 1.33398 27.333 -3.99902 42s-13 28 -23 40s-21.833 22 -35.5 30s-27.5 12 -41.5 12h-5c-6 -14.667 -10.667 -33.334 -14 -56.001s-5.5 -47.5 -6.5 -74.5s-1.33301 -55.167 -1 -84.5s0.833008 -57.666 1.5 -84.999s1.5 -52.333 2.5 -75
s1.5 -41.334 1.5 -56.001v-41c15.333 -7.33301 30.833 -17.5 46.5 -30.5s30 -27.667 43 -44s23.667 -33.5 32 -51.5s12.5 -36 12.5 -54c0 -16 -3.33301 -28.667 -10 -38s-14.834 -17.333 -24.501 -24s-20.334 -12.334 -32.001 -17.001s-22.5 -10.167 -32.5 -16.5
s-18.333 -14.333 -25 -24s-10 -21.834 -10 -36.501c0 -26.667 2.83301 -53.167 8.5 -79.5s8.5 -52.833 8.5 -79.5c-19.333 0 -34 7.33301 -44 22s-17.167 32 -21.5 52s-6.83301 40.5 -7.5 61.5s-1.33398 38.167 -2.00098 51.5zM265.005 565.006
c-2.66699 -24.667 -5.66504 -50.834 -8.99805 -78.501s-6.33301 -56.167 -9 -85.5s-4.83398 -58.5 -6.50098 -87.5s-2.5 -56.833 -2.5 -83.5c23.333 0 48.666 0.5 75.999 1.5s52.666 6.5 75.999 16.5v18.5c0 8.33301 0.166992 17 0.5 26s0.5 17.667 0.5 26v18.5v22
c0 9.33301 -0.166992 18.5 -0.5 27.5s-0.5 17.167 -0.5 24.5v12c0 6 -0.333008 13.667 -1 23s-1.5 18.5 -2.5 27.5s-2 16.667 -3 23s-1.5 9.83301 -1.5 10.5l-100 91c-5.33301 -3.33301 -9.16602 -8.66602 -11.499 -15.999zM448.007 274.006
c0 -1.33301 0.999023 -3.16797 2.99902 -5.50098s3.66699 -3.5 5 -3.5c9.33301 0 18 2 26 6s15.167 9 21.5 15s11.5 13 15.5 21s6 16 6 24c0 6.66699 -2 16.167 -6 28.5s-9.16699 24.333 -15.5 36s-13.666 21.834 -21.999 30.501s-16.833 13 -25.5 13h-8v-165z
M281.006 664.004c0 -2 0.334961 -4.66797 1.00195 -8.00098l91 -91c0.666992 -0.666992 1.33398 -1 2.00098 -1h3c4 0 7 1.16699 9 3.5s3.16699 5.33301 3.5 9s0.333008 7.5 0 11.5s-0.5 7.33301 -0.5 10c1.33301 66.667 3.16602 129.834 5.49902 189.501
s3.5 121.834 3.5 186.501c-15.333 0 -29.666 -1.16699 -42.999 -3.5s-27 -7.5 -41 -15.5c-0.666992 -6.66699 -1.83398 -16.5 -3.50098 -29.5s-3.83398 -27.667 -6.50098 -44s-5.16699 -33.5 -7.5 -51.5l-6.5 -52l-5.5 -44c-1.66699 -12.667 -2.83398 -22 -3.50098 -28
c0 -1.33301 -0.166992 -5.83301 -0.5 -13.5s-0.5 -12.834 -0.5 -15.501v-13zM198.008 801.003c0 -3.33301 0.327148 -8.33594 0.994141 -15.0029s1.83398 -13.667 3.50098 -21s3.83398 -13.666 6.50098 -18.999s6.33398 -8 11.001 -8
c0.666992 0 1.33398 0.166992 2.00098 0.5s1.33398 0.5 2.00098 0.5l7.5 40c2.33301 12 4 23.5 5 34.5l3 32c1 10.333 1.5 21.833 1.5 34.5c0 2 -0.166992 6.16699 -0.5 12.5s-0.5 10.5 -0.5 12.5c-7.33301 -5.33301 -13.833 -12.166 -19.5 -20.499
s-10.167 -17.166 -13.5 -26.499s-5.66602 -19 -6.99902 -29s-2 -19.333 -2 -28z" />
    <glyph glyph-name="percent" unicode="%" horiz-adv-x="565" 
d="M165 43c0 3.33301 0.166016 8.00293 0.499023 14.0029s0.5 9.33301 0.5 10l207 772c0.666992 1.33301 2.33398 5 5.00098 11s5.5 11.833 8.5 17.5s6.66699 10.667 11 15s8.83301 6.5 13.5 6.5s8.5 -1.66699 11.5 -5s5 -7.16602 6 -11.499s1.83301 -9.16602 2.5 -14.499
s1 -9.33301 1 -12c0 -2 -0.166992 -4.83301 -0.5 -8.5s-0.5 -5.83398 -0.5 -6.50098l-132 -458c-1.33301 -26.667 -5.5 -55.834 -12.5 -87.501s-15.167 -63.5 -24.5 -95.5s-18.833 -62.333 -28.5 -91s-18.5 -53.334 -26.5 -74.001c2 -8.66699 0.333008 -13.834 -5 -15.501
s-10 -2.5 -14 -2.5c-12.667 0 -19.667 3.16699 -21 9.5s-2 15.166 -2 26.499zM372.999 218.003c0 22.667 4.16406 42.335 12.4971 59.002s18.166 32.667 29.499 48l33.5 46c11 15.333 18.833 32.666 23.5 51.999c2 0.666992 5.66699 1.5 11 2.5s9 1.5 11 1.5
c2.66699 0 6.66699 -0.5 12 -1.5s8.33301 -1.83301 9 -2.5c2 -2 4.33301 -4.83301 7 -8.5s4.83398 -7.83398 6.50098 -12.501s3 -9 4 -13s0.833008 -6.33301 -0.5 -7l-17 -17c-4.66699 -4 -7.66699 -12.167 -9 -24.5s-2 -27 -2 -44v-55
c0 -19.667 -0.833008 -39.167 -2.5 -58.5s-4.66699 -37.833 -9 -55.5s-11.166 -32.5 -20.499 -44.5c-0.666992 0 -3.66699 -0.166992 -9 -0.5s-8.66602 -0.5 -9.99902 -0.5c-16 0 -29 4.66699 -39 14s-18.167 20.833 -24.5 34.5s-10.666 28.5 -12.999 44.5
s-3.5 30.333 -3.5 43zM406.996 191.004c0 -4 0.500977 -9.16602 1.50098 -15.499s2.83301 -12.833 5.5 -19.5s5.66699 -12.5 9 -17.5s7.66602 -7.5 12.999 -7.5h1c0.666992 0 1.33398 0.333008 2.00098 1c1.33301 0.666992 3.16602 2 5.49902 4s3.5 3.66699 3.5 5
c4 10.667 7 23.834 9 39.501s3.16699 31.5 3.5 47.5s0.333008 30.667 0 44s-0.5 23 -0.5 29c-12 0 -21.5 -4.33301 -28.5 -13s-12.333 -18.834 -16 -30.501s-6 -23.834 -7 -36.501s-1.5 -22.667 -1.5 -30zM14.9971 639.005c0 23.333 4.33398 46.002 13.001 68.002
s20.5 41.5 35.5 58.5s32.833 30.833 53.5 41.5s43 16 67 16c4.66699 0 9.83398 -0.5 15.501 -1.5s8.5 -5.16699 8.5 -12.5c0 -5.33301 -2.16699 -9.33301 -6.5 -12s-9.33301 -5 -15 -7s-11.334 -4.5 -17.001 -7.5s-9.83398 -6.5 -12.501 -10.5l18 -25
c4.66699 -6.66699 8.16699 -13 10.5 -19s4 -12.167 5 -18.5s1.5 -13.833 1.5 -22.5c0 -14 -2.5 -27.833 -7.5 -41.5s-12 -25.834 -21 -36.501s-19.667 -19.5 -32 -26.5s-25.833 -10.5 -40.5 -10.5c-10 0 -19.5 1.66699 -28.5 5s-17 8 -24 14s-12.667 13.167 -17 21.5
s-6.5 17.166 -6.5 26.499zM48.998 633.007c0 -8.66699 3 -13.999 9 -15.999s13 -3 21 -3c20.667 0 37.5 7 50.5 21s19.5 30.667 19.5 50c0 5.33301 -1 12 -3 20s-4.83301 15.833 -8.5 23.5s-8 14.334 -13 20.001s-10.5 8.5 -16.5 8.5
c-1.33301 0 -2.83301 -0.166992 -4.5 -0.5s-2.83398 -0.5 -3.50098 -0.5l-20.5 -29c-6.33301 -9.33301 -11.666 -18.833 -15.999 -28.5s-7.83301 -19.834 -10.5 -30.501s-4 -22.334 -4 -35.001z" />
    <glyph glyph-name="ampersand" unicode="&#x26;" horiz-adv-x="689" 
d="M15 291c0 21.333 3.84277 37.668 11.5098 49.001s22.834 17 45.501 17c18 0 34.167 -3.83301 48.5 -11.5s27.666 -17.5 39.999 -29.5s23.5 -24.833 33.5 -38.5l29 -38.5c9.33301 -12 18.333 -21.833 27 -29.5s17.667 -11.5 27 -11.5c8 0 14.5 0.666992 19.5 2
s11.167 3.66602 18.5 6.99902v25c0 46 -1.5 92 -4.5 138s-4.5 92.333 -4.5 139c14 0 24.167 -2.16699 30.5 -6.5s10.166 -14.166 11.499 -29.499l25 -257c1.33301 0 4.16602 -0.166992 8.49902 -0.5s7.16602 -0.5 8.49902 -0.5c25.333 0 51 5 77 15s50.667 22.833 74 38.5
s44.833 33.5 64.5 53.5s36.5 40 50.5 60h11c0 -16.667 -5.33301 -33.167 -16 -49.5s-24.334 -32.166 -41.001 -47.499s-35.5 -29.833 -56.5 -43.5s-42 -25.667 -63 -36s-41.167 -19 -60.5 -26s-35.333 -11.5 -48 -13.5c-6 -2.66699 -10 -6.33398 -12 -11.001
s-3.33301 -9.83398 -4 -15.501s-1 -11.334 -1 -17.001v-14.5c-0.666992 -3.33301 -1.33398 -9.5 -2.00098 -18.5s-1.5 -18.333 -2.5 -28s-1.83301 -18.667 -2.5 -27s-1.33398 -14.5 -2.00098 -18.5c-0.666992 -2 -3 -4.83301 -7 -8.5s-7 -6.16699 -9 -7.5
c-0.666992 -0.666992 -1.33398 -1 -2.00098 -1h-1c-10.667 0 -18.334 3.5 -23.001 10.5s-8.83398 15.833 -12.501 26.5s-7.33398 22.334 -11.001 35.001s-9.16699 25 -16.5 37s-17.5 22.5 -30.5 31.5s-30.5 14.833 -52.5 17.5c-20 3.33301 -40.5 7.5 -61.5 12.5
s-39.833 12.5 -56.5 22.5s-30.5 23 -41.5 39s-16.5 36 -16.5 60zM299.01 149.002c0 -0.666992 1 -3.33301 3 -8s3.66699 -7.66699 5 -9c1.33301 0.666992 2.83301 2 4.5 4s2.83398 3.66699 3.50098 5v2c0 0.666992 0.166992 1.16699 0.5 1.5s0.5 0.833008 0.5 1.5l-1 2v1
c-0.666992 1.33301 -1.83398 3 -3.50098 5s-3.16699 3 -4.5 3s-3 -1 -5 -3s-3 -3.66699 -3 -5zM66.0098 283.003c0 -14.667 5.00098 -27.335 15.001 -38.002s22.5 -19.5 37.5 -26.5s30.833 -12.167 47.5 -15.5s31 -5 43 -5c0 10.667 -4.83301 22.834 -14.5 36.501
s-21.334 26.667 -35.001 39s-28 22.5 -43 30.5s-27.5 12 -37.5 12c-4 0 -7 -1.16699 -9 -3.5s-3.16699 -5.16602 -3.5 -8.49902s-0.5 -7 -0.5 -11v-10z" />
    <glyph glyph-name="quotesingle" unicode="'" horiz-adv-x="91" 
d="M41 499l-17.4961 106.504c-5.66699 33.667 -8.5 68.834 -8.5 105.501c0 2 0.166992 6.66699 0.5 14s0.5 12 0.5 14c2 6 5.16699 9 9.5 9h12.5c9.33301 0 16.5 -4 21.5 -12s8.66699 -17.167 11 -27.5s3.66602 -21 3.99902 -32s0.5 -19.833 0.5 -26.5
c0 -8.66699 -0.166992 -22.334 -0.5 -41.001s-1.33301 -37.334 -3 -56.001s-3.83398 -35.334 -6.50098 -50.001s-6.33398 -22 -11.001 -22h-3c-0.666992 0 -1.33398 0.333008 -2.00098 1c-0.666992 1.33301 -2 4.16602 -4 8.49902s-3.33301 7.16602 -4 8.49902z" />
    <glyph glyph-name="parenleft" unicode="(" horiz-adv-x="257" 
d="M15 228c0 31.333 1.66699 62.8291 5 94.4961s10.333 62.5 21 92.5l150 399c1.33301 1.33301 4 5.33301 8 12s6.66699 11 8 13h2c0.666992 0 1.16699 0.166992 1.5 0.5s0.833008 0.5 1.5 0.5l2 -1h2c2.66699 -2 6 -5.16699 10 -9.5s6 -6.83301 6 -7.5v-66
c-3.33301 -9.33301 -8.83301 -23.5 -16.5 -42.5l-25 -64.5l-29 -76l-29 -76l-25 -65l-16.5 -42c-1.33301 -3.33301 -2.83301 -8 -4.5 -14s-3.5 -12.167 -5.5 -18.5s-3.5 -11.833 -4.5 -16.5s-1.5 -7.66699 -1.5 -9v-183c0 -10 1.66699 -20.333 5 -31s8 -21.167 14 -31.5
s12.167 -20.166 18.5 -29.499s12.833 -17.333 19.5 -24c0 -1.33301 0.166992 -3.5 0.5 -6.5l0.5 -4.5c0 -10.667 -2 -17.167 -6 -19.5s-11 -3.5 -21 -3.5c-14 0 -25.667 4.5 -35 13.5s-17.5 20.5 -24.5 34.5s-12.5 29.833 -16.5 47.5s-7.16699 34.834 -9.5 51.501
s-3.83301 32.334 -4.5 47.001s-1 26.334 -1 35.001z" />
    <glyph glyph-name="parenright" unicode=")" horiz-adv-x="382" 
d="M74 41c0 7.33301 0.665039 13.501 1.99805 18.501s6.33301 7.5 15 7.5c6 0 11 -1.5 15 -4.5s9 -4.5 15 -4.5c10.667 0 22.167 4.5 34.5 13.5s24.833 20.667 37.5 35s24.834 30 36.501 47s22.5 33.833 32.5 50.5s18.167 31.834 24.5 45.501s10.5 24.5 12.5 32.5
c0 3.33301 0.166992 9.66602 0.5 18.999s0.5 19.166 0.5 29.499s0.166992 20 0.5 29s0.5 15.167 0.5 18.5c0 19.333 -0.166992 38.833 -0.5 58.5s-1.83301 39.334 -4.5 59.001s-7 38.834 -13 57.501s-14.667 36.667 -26 54c-3.33301 5.33301 -9 13.333 -17 24l-25 33
l-25 31.5c-8 9.66699 -13 16.167 -15 19.5c-6 5.33301 -17.667 12.166 -35 20.499s-35.166 17.5 -53.499 27.5s-34.666 20.833 -48.999 32.5s-21.5 23.5 -21.5 35.5c0 0.666992 2.33301 3 7 7s8 7 10 9h5c24.667 0 49.167 -5.66699 73.5 -17s47.5 -26.5 69.5 -45.5
s42.833 -41 62.5 -66s37.167 -50.667 52.5 -77s28.166 -52.5 38.499 -78.5s17.5 -50.333 21.5 -73v-20c0 -9.33301 0.166992 -19.333 0.5 -30s0.5 -20.667 0.5 -30v-20c0 -34.667 -2.16699 -66.667 -6.5 -96s-12 -57 -23 -83s-25.667 -50.833 -44 -74.5
s-40.833 -46.834 -67.5 -69.501c-4.66699 -4.66699 -11.5 -10.667 -20.5 -18s-19 -14.833 -30 -22.5s-22.333 -14.167 -34 -19.5s-22.5 -8 -32.5 -8c-5.33301 0 -9.66602 1.5 -12.999 4.5s-5.83301 6.66699 -7.5 11s-2.83398 9 -3.50098 14s-1 9.16699 -1 12.5z" />
    <glyph glyph-name="asterisk" unicode="*" horiz-adv-x="482" 
d="M244 299c-25.333 -16 -50.6689 -27.1631 -76.002 -33.4961s-52.666 -9.5 -81.999 -9.5h-9.5c-5 0 -10 0.166992 -15 0.5s-9.83301 0.5 -14.5 0.5h-10c-6 1.33301 -9 5 -9 11v14c0 14 4.5 25.667 13.5 35s20.333 17.166 34 23.499s28.334 11.666 44.001 15.999l44 12.5
c13.667 4 25 8.5 34 13.5s13.5 11.167 13.5 18.5c0 14.667 -2.66699 30.5 -8 47.5s-11.666 34 -18.999 51s-14.833 32.667 -22.5 47s-13.167 25.5 -16.5 33.5v28c9.33301 0 16.166 -2.5 20.499 -7.5s7.66602 -11 9.99902 -18l7 -20.5
c2.33301 -6.66699 6.16602 -11.667 11.499 -15l67 -149c2.66699 -4.66699 5.66699 -7.33398 9 -8.00098s7.66602 -1 12.999 -1c6 0 11.333 0.833008 16 2.5s8.33398 6.83398 11.001 15.501l-18.5 16c-8.33301 7.33301 -16.666 15.5 -24.999 24.5s-15.666 18.333 -21.999 28
s-9.5 18.5 -9.5 26.5c0 6 1.66699 12.5 5 19.5s9 10.5 17 10.5l2 -1h2l58 -59h1h3c5.33301 0 9.83301 2.5 13.5 7.5s7.16699 10.833 10.5 17.5l10 19.5c3.33301 6.33301 7.33301 11.166 12 14.499h2c0.666992 0 1.16699 0.166992 1.5 0.5l0.5 0.5l2 -1h2
c1.33301 -0.666992 4 -1.83398 8 -3.50098s6.66699 -3.16699 8 -4.5c0 -1.33301 0.166992 -5.33301 0.5 -12s0.5 -11 0.5 -13c0 -12.667 -1.66699 -24.667 -5 -36s-5 -23 -5 -35c0 -10.667 4.16699 -19.334 12.5 -26.001s17 -12.834 26 -18.501s17.667 -11.667 26 -18
s12.5 -14.5 12.5 -24.5c0 -8 -2.66699 -14.333 -8 -19s-12 -7 -20 -7c-12.667 0 -25 3.16699 -37 9.5s-24 9.5 -36 9.5c-0.666992 0 -2 -0.166992 -4 -0.5s-3.33301 -0.5 -4 -0.5c-4 -9.33301 -8.16699 -20.166 -12.5 -32.499s-8.66602 -25.333 -12.999 -39
s-8 -27.167 -11 -40.5s-4.83301 -25.666 -5.5 -36.999c-0.666992 -0.666992 -3.16699 -1.16699 -7.5 -1.5s-7.16602 -0.5 -8.49902 -0.5c-10.667 0 -18.834 4.83301 -24.501 14.5s-9.5 20.667 -11.5 33s-3.33301 24.5 -4 36.5s-1.33398 20.667 -2.00098 26zM144.997 306.004
c10.667 0 22.833 1.83301 36.5 5.5s23.5 10.5 29.5 20.5v2v1.5v1.5v1v2l-66 -25v-9z" />
    <glyph glyph-name="plus" unicode="+" horiz-adv-x="499" 
d="M207 291c-1.33301 0 -5.16699 0.169922 -11.5 0.50293s-11.166 0.5 -14.499 0.5c-28 0 -55.167 -3 -81.5 -9s-52.5 -9 -78.5 -9h-5c-1.33301 0 -2.83301 1.16699 -4.5 3.5s-2.83398 3.83301 -3.50098 4.5l8 9c6.66699 1.33301 18.334 4.33301 35.001 9l52.5 15l52.5 15
l35 10c4.66699 1.33301 8.66699 3.33301 12 6c3.33301 1.33301 6.33301 3 9 5s4 3.66699 4 5v159c0 10 4.33301 16.833 13 20.5s17 5.5 25 5.5c4.66699 0 9.5 -0.833008 14.5 -2.5s6.83301 -6.5 5.5 -14.5c0 -4 -0.166992 -10.333 -0.5 -19s-0.5 -17.834 -0.5 -27.501
s0.166992 -19 0.5 -28s0.5 -15.167 0.5 -18.5c0 -6 0.333008 -13.667 1 -23s1.5 -18.5 2.5 -27.5l2.5 -23c0.666992 -6.33301 1.33398 -9.5 2.00098 -9.5l182 -25c0.666992 0 2.16699 -2 4.5 -6s3.83301 -7.33301 4.5 -10v-4c0 -6.66699 -4 -11.834 -12 -15.501
s-15 -5.5 -21 -5.5c-22.667 0 -45.5 3 -68.5 9s-45.833 9 -68.5 9c-1.33301 0 -4.83301 -0.166992 -10.5 -0.5s-9.16699 -0.5 -10.5 -0.5l-17 -291c0 -1.33301 -1 -2.83301 -3 -4.5s-3.66699 -2.83398 -5 -3.50098l-1 -1h-2c-8 0 -14.167 3.83301 -18.5 11.5
s-7.33301 16 -9 25s-2.5 17.5 -2.5 25.5v14c-0.666992 7.33301 -1.33398 20.833 -2.00098 40.5s-1.33398 40.5 -2.00098 62.5s-1.5 42.833 -2.5 62.5s-1.5 33.5 -1.5 41.5z" />
    <glyph glyph-name="comma" unicode="," horiz-adv-x="340" 
d="M199 -183c17.333 34.667 32.833 70.3311 46.5 106.998s20.5 75 20.5 115c0 6.66699 -0.833008 14.667 -2.5 24s-4.5 18.5 -8.5 27.5s-9.16699 16.833 -15.5 23.5s-14.166 10 -23.499 10c-12.667 0 -23 -6 -31 -18s-15.333 -25.333 -22 -40l-19 -40
c-6 -12 -12.667 -18 -20 -18h-75c-0.666992 0 -2.33398 1.5 -5.00098 4.5l-8.5 10c-3 3.66699 -5.5 7.33398 -7.5 11.001s-3 6.16699 -3 7.5c3.33301 17.333 11.666 33.5 24.999 48.5s29 28.333 47 40s37 20.667 57 27s37.667 9.5 53 9.5c16.667 0 31.834 -3 45.501 -9
s25.167 -14.333 34.5 -25s16.5 -23.167 21.5 -37.5s7.5 -29.833 7.5 -46.5c0 -25.333 -4 -50.666 -12 -75.999s-18 -49.333 -30 -72l-15.5 -27.5l-19 -32.5l-16 -27.5c-4.33301 -7.66699 -6.83301 -11.5 -7.5 -11.5h-17v16z" />
    <glyph glyph-name="hyphen" unicode="-" horiz-adv-x="607" 
d="M16 356c2 5.33301 6.83105 10.667 14.498 16s13.834 8.66602 18.501 9.99902c31.333 1.33301 63.5 3.33301 96.5 6l99.5 8c33.333 2.66699 66.333 5.16699 99 7.5s64.334 3.5 95.001 3.5c22.667 0 45.5 -1 68.5 -3s44.833 -6.66699 65.5 -14l-17 -17l-17 -2l-44.5 -5
l-61.5 -7c-22.667 -2.66699 -45.834 -5.16699 -69.501 -7.5l-67.5 -6.5c-21.333 -2 -40 -3.66699 -56 -5c-30 -2.66699 -60.667 -4.66699 -92 -6s-61.666 -2 -90.999 -2c-3.33301 0 -7.33301 0.333008 -12 1s-9.5 1.83398 -14.5 3.50098s-9 4.16699 -12 7.5
s-3.83301 7.33301 -2.5 12z" />
    <glyph glyph-name="period" unicode="." horiz-adv-x="240" 
d="M24 38c0 12.667 4.49805 23 13.498 31s20 14.333 33 19s26.333 8.16699 40 10.5s25.5 3.5 35.5 3.5c6 0 12.5 -0.166992 19.5 -0.5s13.667 -1.66602 20 -3.99902s11.833 -5.66602 16.5 -9.99902s7 -10.833 7 -19.5c0 -12 -2.66699 -22.333 -8 -31
s-12 -15.834 -20 -21.501s-17 -9.83398 -27 -12.501s-20.333 -4 -31 -4c-7.33301 0 -16.666 -0.166992 -27.999 -0.5s-22.166 0.5 -32.499 2.5s-19.333 5.83301 -27 11.5s-11.5 14.167 -11.5 25.5zM131.998 53l-6.50098 0.000976562c-3 0 -6.16699 -0.333008 -9.5 -1
s-6.66602 -1.83398 -9.99902 -3.50098s-5.33301 -4.16699 -6 -7.5h32v12z" />
    <glyph glyph-name="slash" unicode="/" horiz-adv-x="532" 
d="M7 25c0 12 1.33203 23.332 3.99902 33.999s7.33398 21.334 14.001 32.001l282 474c8 9.33301 15 19 21 29l18 31c6 10.667 12.5 20.834 19.5 30.501s15.167 18.167 24.5 25.5l74 133c4 5.33301 9.33301 9.66602 16 12.999s13 5 19 5c8 0 12.667 -3 14 -9s2 -12.333 2 -19
v-15l-415 -657l-67 -132l-2 -1h-4c-9.33301 0 -15 2.33301 -17 7s-3 11 -3 19z" />
    <glyph glyph-name="zero" unicode="0" horiz-adv-x="565" 
d="M24 298c0 28 2.66895 59.3301 8.00195 93.9971s13.666 69.667 24.999 105s25.5 69.5 42.5 102.5s36.833 62.333 59.5 88s48.5 46.334 77.5 62.001s60.833 23.5 95.5 23.5c9.33301 0 22 -0.666992 38 -2s31.5 -4.66602 46.5 -9.99902s28 -12.833 39 -22.5
s16.5 -22.167 16.5 -37.5v-4c0 -1.33301 -1 -4 -3 -8s-3.66699 -6.66699 -5 -8l-1 -1h-2h-3c-0.666992 0 -1.33398 0.333008 -2.00098 1c-1.33301 0.666992 -3.83301 2.66699 -7.5 6s-7.83398 6.83301 -12.501 10.5l-13 10.5c-4 3.33301 -6.66699 5.66602 -8 6.99902h-2h-2
h-2h-2c42 -63.333 73.333 -128.166 94 -194.499s31 -137.5 31 -213.5c0 -36.667 -3.83301 -73.334 -11.5 -110.001s-20.334 -69.667 -38.001 -99s-40.834 -53.166 -69.501 -71.499s-64.667 -27.5 -108 -27.5c-39.333 0 -76.166 8.33301 -110.499 25s-64.166 39 -89.499 67
s-45.166 59.833 -59.499 95.5s-21.5 72.834 -21.5 111.501zM57.002 277.997c0 -35.333 6.50195 -67.834 19.502 -97.501s31.167 -55.167 54.5 -76.5s50.666 -37.5 81.999 -48.5s65.333 -15.833 102 -14.5c31.333 2 57.666 10.833 78.999 26.5s38.5 35.167 51.5 58.5
s22.167 49.166 27.5 77.499s8 55.5 8 81.5c0 21.333 -0.833008 46.666 -2.5 75.999s-5.33398 59.833 -11.001 91.5s-13.334 63.167 -23.001 94.5s-22.5 59.5 -38.5 84.5s-35.167 45.167 -57.5 60.5s-49.166 23 -80.499 23c-22 0 -42.5 -8.66699 -61.5 -26
s-36.333 -39.666 -52 -66.999s-29.667 -57.666 -42 -90.999s-22.666 -66.333 -30.999 -99s-14.5 -62.667 -18.5 -90s-6 -48.666 -6 -63.999z" />
    <glyph glyph-name="one" unicode="1" horiz-adv-x="177" 
d="M161 744c4.66699 -1.33301 8.83594 -2.66797 12.5029 -4.00098s7.16699 -4.33301 10.5 -9c-3.33301 -34.667 -6.33301 -64.667 -9 -90s-5.5 -49.333 -8.5 -72l-9.5 -69.5l-12 -81.5c-1.33301 -6 -3 -14.667 -5 -26l-6 -34c-2 -11.333 -3.66699 -21.5 -5 -30.5
s-2 -14.5 -2 -16.5c-2 -8.66699 -5.16699 -24.5 -9.5 -47.5l-14 -74l-14.5 -74l-10 -48.5c-0.666992 -2 -2 -5.66699 -4 -11s-4.33301 -10.833 -7 -16.5l-8 -17c-2.66699 -5.66699 -4.66699 -9.16699 -6 -10.5c-1.33301 -0.666992 -3 -2 -5 -4s-3.66699 -3.33301 -5 -4l-4 1
h-2c-0.666992 0 -1.33398 0.333008 -2.00098 1l-8.5 5.5c-3.66699 2.33301 -5.5 3.83301 -5.5 4.5l110 707c1.33301 6 5.16602 11.333 11.499 16s12.166 6.33398 17.499 5.00098z" />
    <glyph glyph-name="two" unicode="2" horiz-adv-x="439" 
d="M23 30c0 0.666992 0.332031 2.49707 0.999023 5.49707s1 4.83301 1 5.5l249 483c10.667 19.333 17.667 36.833 21 52.5s5 33.167 5 52.5c0 10 -0.333008 19 -1 27s-3.33398 16.333 -8.00098 25c-2 0 -5.66699 0.166992 -11 0.5s-8.66602 0.5 -9.99902 0.5
c-22.667 0 -43.834 -4 -63.501 -12s-38 -18.5 -55 -31.5s-33.167 -27.5 -48.5 -43.5l-45 -47c-6 2 -11.833 4.83301 -17.5 8.5s-8.5 9.16699 -8.5 16.5c0 12.667 4.33301 25 13 37s19.5 23.5 32.5 34.5s27.833 21 44.5 30s32.834 17.333 48.501 25s30.5 14 44.5 19
s25 9.16699 33 12.5c2 0 4.5 0.166992 7.5 0.5s6.33301 0.5 10 0.5s7 0.166992 10 0.5s5.16699 0.5 6.5 0.5c10.667 0 21.167 -0.5 31.5 -1.5s19.166 -6.5 26.499 -16.5c1.33301 -3.33301 2.83301 -8.66602 4.5 -15.999s3.5 -14.833 5.5 -22.5s3.5 -15.167 4.5 -22.5
s1.5 -12 1.5 -14c0 -4 -0.5 -10.167 -1.5 -18.5s-2.5 -16.833 -4.5 -25.5l-5.5 -24.5c-1.66699 -7.66699 -3.16699 -12.834 -4.5 -15.501l-108 -233c-1.33301 -1.33301 -4 -5.16602 -8 -11.499l-8 -12.5c-6 -10.667 -12.833 -23.667 -20.5 -39l-25 -48l-26 -49l-22.5 -43.5
l-16 -32l-6 -12.5v-8c24 0 49.667 1 77 3s54.833 5.16699 82.5 9.5s54.834 10.833 81.501 19.5s51.334 19.667 74.001 33c0.666992 -1.33301 1.16699 -3.5 1.5 -6.5l0.5 -4.5c0 -12.667 -5.83301 -23.5 -17.5 -32.5s-25.5 -16.667 -41.5 -23s-32 -11.5 -48 -15.5l-36 -9
c-8 -1.33301 -21.833 -4.16602 -41.5 -8.49902s-40.334 -8.66602 -62.001 -12.999l-62.5 -12l-41 -7.5c-1.33301 -0 -3.66602 -0.166992 -6.99902 -0.5s-5.33301 -0.5 -6 -0.5c-9.33301 0 -16.833 2.66699 -22.5 8s-8.5 13 -8.5 23z" />
    <glyph glyph-name="three" unicode="3" horiz-adv-x="515" 
d="M25 67c4 -2.66699 8.66699 -5.50293 14 -8.50293s11.166 -5.66699 17.499 -8s12.5 -4.5 18.5 -6.5s11.333 -3 16 -3c36.667 0 70.667 7.33301 102 22s58.666 34.334 81.999 59.001s41.5 53.167 54.5 85.5s19.5 65.833 19.5 100.5c0 8 0.333008 17.333 1 28
s0.166992 20.5 -1.5 29.5s-5.16699 16.667 -10.5 23s-14.333 9.5 -27 9.5h-4c-5.33301 -1.33301 -12.5 -3.33301 -21.5 -6l-26.5 -7.5c-8.66699 -2.33301 -16.5 -4.66602 -23.5 -6.99902s-10.833 -3.83301 -11.5 -4.5c-6 -2.66699 -16.167 -7.83398 -30.5 -15.501
l-45.5 -24.5l-44.5 -25l-28.5 -17c-0.666992 0 -1 -0.166992 -1 -0.5s-0.333008 -0.5 -1 -0.5h-2c-7.33301 0 -12.833 2.83301 -16.5 8.5s-5.5 11.167 -5.5 16.5c0 8.66699 2.33301 14.667 7 18s11 8.33301 19 15c4 4 12.667 11.333 26 22l46.5 37l56 45.5l56 45.5l46.5 37
l26 21l29.5 26.5c10.333 9.66699 20 20.167 29 31.5s16.333 23.166 22 35.499s8.5 24.833 8.5 37.5c-17.333 0 -32.833 -2.83301 -46.5 -8.5s-27 -12.167 -40 -19.5s-26.333 -13.833 -40 -19.5s-29.167 -8.5 -46.5 -8.5v17c0 10 4.33301 19.333 13 28
s19.834 16.667 33.501 24s28.667 14 45 20s32.333 11.167 48 15.5s29.834 7.5 42.501 9.5s22 3 28 3c7.33301 0 14.5 -1.83301 21.5 -5.5s10.5 -10.167 10.5 -19.5c0 -27.333 -6.66699 -53.333 -20 -78s-29.833 -48 -49.5 -70s-40.5 -42.167 -62.5 -60.5l-59 -49.5v-9
c22.667 -1.33301 41 -5.66602 55 -12.999s25.167 -17.166 33.5 -29.499s13.833 -26.833 16.5 -43.5s4 -35.667 4 -57c0 -36 -6.83301 -72.5 -20.5 -109.5s-32.334 -70.667 -56.001 -101s-52 -55.166 -85 -74.499s-68.833 -29 -107.5 -29c-2 0 -7 0.833008 -15 2.5l-29 6
c-11.333 2.33301 -22.666 5.33301 -33.999 9s-21.333 7.66699 -30 12s-14.667 9 -18 14s-2.33301 10.167 3 15.5z" />
    <glyph glyph-name="four" unicode="4" horiz-adv-x="373" 
d="M240 412c-18 0 -35.5 -1.66309 -52.5 -4.99609l-51 -10.5c-17 -3.66699 -34.167 -7 -51.5 -10s-35 -4.5 -53 -4.5c-6.66699 0 -12.5 2.33301 -17.5 7s-7.5 10.667 -7.5 18v4c0 1.33301 0.333008 2.66602 1 3.99902c2.66699 5.33301 6.16699 14.166 10.5 26.499l15 41.5
l17 48l17 48c5.66699 15.333 10.5 29.166 14.5 41.499l9 27.5c1.33301 2.66699 2.83301 8 4.5 16l5 25l5 25c1.66699 8 2.5 13.667 2.5 17c2.66699 4.66699 6.83398 8.5 12.501 11.5s11.5 4.5 17.5 4.5h3c1.33301 -0.666992 4.16602 -1.83398 8.49902 -3.50098
s6.83301 -3.16699 7.5 -4.5c0 -2 0.166992 -5.5 0.5 -10.5s0.5 -8.5 0.5 -10.5c0 -24.667 -3.66699 -48 -11 -70s-15.666 -43.833 -24.999 -65.5s-17.833 -43.334 -25.5 -65.001s-11.5 -44.167 -11.5 -67.5c27.333 0 54.666 3.16699 81.999 9.5s54.333 10.833 81 13.5
l43 358c0.666992 7.33301 4.5 13.333 11.5 18s13.833 7 20.5 7s12.5 -1.83301 17.5 -5.5s7.5 -8.83398 7.5 -15.501v-4c-6 -53.333 -13.167 -105 -21.5 -155s-12.5 -100.667 -12.5 -152c0 -12 1.5 -22.833 4.5 -32.5s4.5 -19.834 4.5 -30.501v-5
c-0.666992 -2 -3 -7.33301 -7 -16s-7 -14.334 -9 -17.001c-3.33301 -67.333 -5.16602 -135.166 -5.49902 -203.499s-3.83301 -136.166 -10.5 -203.499c-0.666992 -2 -3.16699 -5 -7.5 -9s-7.5 -6.33301 -9.5 -7c-3.33301 -1.33301 -6.83301 -0.666016 -10.5 2.00098
s-7.33398 5.83398 -11.001 9.50098s-6.66699 7.66699 -9 12s-3.5 7.5 -3.5 9.5v379z" />
    <glyph glyph-name="five" unicode="5" horiz-adv-x="473" 
d="M141 58c0.666992 1.33301 1.99707 3.00391 3.99707 5.00391l4 4c5.33301 -8.66699 12.5 -13.834 21.5 -15.501s17.5 -2.5 25.5 -2.5c28.667 0 54.667 8 78 24s42.833 36.167 58.5 60.5s27.834 50.666 36.501 78.999s13 54.5 13 78.5v9.5v15v14.5v10
c-6 13.333 -12.167 25.166 -18.5 35.499s-13.666 19.166 -21.999 26.499s-18 12.833 -29 16.5s-23.833 5.5 -38.5 5.5c-18.667 0 -36 -3.83301 -52 -11.5s-30.833 -17 -44.5 -28s-26 -23.167 -37 -36.5l-29 -36.5c-8.33301 -11 -15.666 -20.167 -21.999 -27.5
s-11.166 -11 -14.499 -11c-5.33301 0 -11 1.16699 -17 3.5s-9 7.16602 -9 14.499v216c0 8 -1.33301 16 -4 24s-5.5 15.667 -8.5 23s-5.83301 14.833 -8.5 22.5s-4 15.167 -4 22.5c0 11.333 4.16699 19 12.5 23s17.5 6.66699 27.5 8s20.167 1.66602 30.5 0.999023
s17.5 -0.666992 21.5 0l49 5.5c14.667 1.66699 28.834 3.66699 42.501 6s27 5.16602 40 8.49902s27.5 7.66602 43.5 12.999c8 3.33301 15.333 8.33301 22 15s14.667 10 24 10c13.333 0 20 -6.66699 20 -20c0 -10 -2.33301 -18.5 -7 -25.5s-10.834 -13 -18.501 -18
s-16 -9 -25 -12s-17.167 -5.16699 -24.5 -6.5c-6.66699 -2 -18.667 -4.66699 -36 -8l-55 -10.5l-55 -10c-17.333 -3 -29.333 -4.83301 -36 -5.5v-175c0.666992 -1.33301 1.66699 -2.66602 3 -3.99902c2 -2 3.66699 -3.33301 5 -4h4h4l35.5 30.5
c12.333 10.333 25.166 19.333 38.499 27s27.333 13.834 42 18.501s30 7 46 7c27.333 0 51 -4.66699 71 -14s36.667 -22 50 -38s23.5 -35.167 30.5 -57.5s10.5 -46.166 10.5 -71.499c0 -18 -2.83301 -37.667 -8.5 -59s-13.667 -43.166 -24 -65.499s-22.5 -44 -36.5 -65
s-29.667 -39.5 -47 -55.5s-36 -28.5 -56 -37.5s-40.333 -12.167 -61 -9.5c-8 0.666992 -15.833 2.16699 -23.5 4.5s-14.667 5.5 -21 9.5s-11.5 9.33301 -15.5 16s-6 14.667 -6 24v4z" />
    <glyph glyph-name="six" unicode="6" horiz-adv-x="532" 
d="M25 146c0 40 6.49805 81.834 19.498 125.501s29 86.667 48 129s39.667 83.333 62 123l61.5 107.5c2 13.333 4.16699 24.833 6.5 34.5s6 17.834 11 24.501s11.5 11.834 19.5 15.501s18.667 5.5 32 5.5c0 -16 -1.5 -33.833 -4.5 -53.5s-8.16699 -36.5 -15.5 -50.5
l-149 -300c-5.33301 -10 -10.166 -21.167 -14.499 -33.5s-8 -25.333 -11 -39s-5.16699 -27.334 -6.5 -41.001s-2 -26.167 -2 -37.5c0 -20 4 -36.333 12 -49s18.5 -22.334 31.5 -29.001s27.333 -11.167 43 -13.5s30.834 -3.5 45.501 -3.5c0 10.667 -1.33301 21.167 -4 31.5
s-5.5 20.666 -8.5 30.999s-5.83301 20.833 -8.5 31.5s-4 22 -4 34c0 23.333 3.16699 48.166 9.5 74.499s16 50.833 29 73.5s30 41.5 51 56.5s46.167 22.5 75.5 22.5c22 0 42.5 -4.66699 61.5 -14s35.167 -21.666 48.5 -36.999s23.833 -32.833 31.5 -52.5
s11.5 -40.5 11.5 -62.5c0 -41.333 -7.33301 -77.166 -22 -107.499s-34.667 -55.5 -60 -75.5s-54.833 -35 -88.5 -45s-69.5 -15 -107.5 -15h-16c-7.33301 0 -15.333 0.166992 -24 0.5s-16.667 0.5 -24 0.5h-16c-14 5.33301 -28.333 12.166 -43 20.499s-28 18.333 -40 30
s-21.833 24.667 -29.5 39s-11.5 30.5 -11.5 48.5zM238.998 213.001c0 -7.33301 0.500977 -19.668 1.50098 -37.001s3.16699 -34.833 6.5 -52.5s8.33301 -33.167 15 -46.5s15.667 -20 27 -20c28 0 52.5 4.83301 73.5 14.5s38.5 22.834 52.5 39.501s24.5 36 31.5 58
s10.5 45.667 10.5 71c0 14.667 -1.5 29.5 -4.5 44.5s-8 28.5 -15 40.5s-16.5 21.667 -28.5 29s-26.667 11 -44 11c-20.667 0 -38.834 -4.66699 -54.501 -14s-28.667 -21.333 -39 -36s-18.333 -31 -24 -49s-8.5 -35.667 -8.5 -53z" />
    <glyph glyph-name="seven" unicode="7" horiz-adv-x="431" 
d="M240 16l0.00195312 12.0059c0 5.33301 -0.166992 11.166 -0.5 17.499s-0.5 12.166 -0.5 17.499v12c0 96 6.66699 190.333 20 283s37.666 183.667 72.999 273v17l-12 2l-30.5 5c-12.333 2 -26 4 -41 6l-43.5 6c-14 2 -27 3.5 -39 4.5s-20.333 1.5 -25 1.5
c-10.667 0 -19.667 -6.5 -27 -19.5s-14.5 -27.333 -21.5 -43s-14.5 -30.167 -22.5 -43.5s-18 -20 -30 -20c-8 0 -14.167 3.16699 -18.5 9.5s-6.5 13.166 -6.5 20.499c0 4 5 14.5 15 31.5s21.667 34.5 35 52.5s26.833 34.333 40.5 49s24.167 22 31.5 22
c17.333 0 37.666 -1.66699 60.999 -5s47 -7 71 -11s46.667 -8 68 -12s39 -6.33301 53 -7c4.66699 1.33301 8.33398 1.16602 11.001 -0.500977s4.66699 -3.83398 6 -6.50098s2 -5.66699 2 -9v-8c0 -2 -0.166992 -5 -0.5 -9s-0.833008 -6.66699 -1.5 -8
c-16.667 -36.667 -31 -73.334 -43 -110.001s-22.333 -73.334 -31 -110.001s-15.667 -74.167 -21 -112.5s-9.66602 -77.166 -12.999 -116.499c-0.666992 -6 -0.833984 -15.333 -0.500977 -28s0.5 -26.667 0.5 -42s-0.333008 -31 -1 -47s-2 -30.667 -4 -44
s-4.83301 -24.333 -8.5 -33s-8.83398 -13 -15.501 -13c-5.33301 0 -10.833 1.5 -16.5 4.5s-10.167 6.83301 -13.5 11.5z" />
    <glyph glyph-name="eight" unicode="8" horiz-adv-x="598" 
d="M99 60c0 18 4 36.8369 12 56.5039s18.333 39.167 31 58.5s26 38.166 40 56.499l40 50.5c12.667 15.333 23 28.666 31 39.999s12 20 12 26v8l-66 51h-8c-4 2 -11 6.16699 -21 12.5l-32 20.5l-33 20.5c-10.667 6.33301 -18 10.5 -22 12.5l-41.5 25.5
c-13 8.33301 -21.5 22.166 -25.5 41.499c-2 14.667 3.16699 27.5 15.5 38.5s28.833 20 49.5 27s43.834 13 69.501 18s50 8.66699 73 11s43.167 4 60.5 5s28.666 1.5 33.999 1.5c19.333 0 36.833 -0.166992 52.5 -0.5s31.167 -1.33301 46.5 -3s31.333 -4.16699 48 -7.5
s36.334 -8.33301 59.001 -15c4 -1.33301 8.33301 -3.33301 13 -6s9.16699 -5.83398 13.5 -9.50098s7.83301 -7.83398 10.5 -12.501s4 -9 4 -13c0 -12.667 -3.33301 -25.5 -10 -38.5s-15.167 -25.333 -25.5 -37s-22 -21 -35 -28s-25.833 -10.5 -38.5 -10.5v13l51 51v41
c0 0.666992 -3.16699 1.83398 -9.5 3.50098s-11.5 3.16699 -15.5 4.5c-24.667 4.66699 -43.5 8.33398 -56.5 11.001s-25 4.33398 -36 5.00098s-23.333 1 -37 1h-57.5h-25c-10 0 -20.167 -0.166992 -30.5 -0.5s-19.333 -0.5 -27 -0.5h-13.5c-4 0 -10.167 -0.666992 -18.5 -2
l-27 -4.5c-9.66699 -1.66699 -18.834 -3.5 -27.501 -5.5s-14.667 -3.33301 -18 -4c-3.33301 -1.33301 -7.33301 -3.16602 -12 -5.49902s-9.16699 -4.83301 -13.5 -7.5s-8 -5.16699 -11 -7.5s-4.5 -3.83301 -4.5 -4.5v-24c0 -1.33301 3.66699 -4.5 11 -9.5
s16.833 -11 28.5 -18l38.5 -23l40 -24l34 -21l21 -13.5l28 -16c10.667 -6 21 -9 31 -9h8c2 2.66699 6.33301 8 13 16l20.5 25.5l20 25c6.33301 7.66699 10.5 13.167 12.5 16.5c4.66699 6 8.16699 12.5 10.5 19.5s4.83301 13.5 7.5 19.5s6.16699 10.833 10.5 14.5
s10.5 5.5 18.5 5.5c8.66699 0 14.167 -2.33301 16.5 -7s3.5 -10.667 3.5 -18c0 -12 -4 -25.333 -12 -40s-17.5 -29.167 -28.5 -43.5s-22.167 -27.5 -33.5 -39.5l-26 -28v-8c12.667 -10.667 25 -22.834 37 -36.501s22.667 -28.334 32 -44.001s16.833 -32 22.5 -49
s8.5 -34.5 8.5 -52.5c0 -23.333 -6 -43.333 -18 -60s-26.833 -31.334 -44.5 -44.001s-36.5 -23.834 -56.5 -33.501s-38.667 -19.167 -56 -28.5h-9.5c-5 0 -10 -0.166992 -15 -0.5s-9.83301 -0.5 -14.5 -0.5h-10c-10 0 -21.833 0.5 -35.5 1.5s-26.5 3.33301 -38.5 7
s-22.167 9.83398 -30.5 18.501s-12.5 20 -12.5 34zM149 67.0039c3.33301 -4.66699 7.16992 -8.33398 11.5029 -11.001s9.16602 -5 14.499 -7h8.5h14h14h8.5c18 0 37.167 2.33301 57.5 7s38.666 12 54.999 22s30.166 22.667 41.499 38s17 33.333 17 54
c0 10.667 -1.5 24.5 -4.5 41.5s-7.83301 33.167 -14.5 48.5s-15 28.5 -25 39.5s-22 16.5 -36 16.5c-0.666992 0 -1 -0.166992 -1 -0.5s-0.333008 -0.5 -1 -0.5h-2c-1.33301 -0.666992 -4.16602 -3.16699 -8.49902 -7.5s-6.83301 -7.16602 -7.5 -8.49902
c-2.66699 -3.33301 -6.83398 -9 -12.501 -17l-20 -28l-24 -34l-24 -35.5l-21 -31.5l-14.5 -21c-3.33301 -3.33301 -6.33301 -8.33301 -9 -15s-5 -13.5 -7 -20.5s-4 -13.333 -6 -19s-3.33301 -9.16699 -4 -10.5z" />
    <glyph glyph-name="nine" unicode="9" horiz-adv-x="373" 
d="M274 25l0.000976562 22.9961v35.5v34.5v23c-0.666992 8 -1.33398 20.167 -2.00098 36.5s-1.5 35 -2.5 56l-3 65.5c-1 22.667 -2.16699 44.334 -3.5 65.001l-3.5 56c-1 16.667 -1.83301 28.667 -2.5 36h-9c-4.66699 -8 -11.167 -20 -19.5 -36s-18 -31.833 -29 -47.5
s-23.333 -29.334 -37 -41.001s-27.834 -17.5 -42.501 -17.5s-28.5 4.16699 -41.5 12.5s-24.167 18.833 -33.5 31.5s-16.666 26.334 -21.999 41.001s-8 28.334 -8 41.001c0 31.333 7.33301 58.5 22 81.5s33.834 42 57.501 57s49.834 26.333 78.501 34s57 11.5 85 11.5
c5.33301 0 11.666 -0.5 18.999 -1.5s14.666 -2.33301 21.999 -4s14 -4.16699 20 -7.5s10.333 -7.66602 13 -12.999v-29c0 -27.333 -1.5 -54.333 -4.5 -81s-4.5 -53.334 -4.5 -80.001c0 -45.333 1.66699 -89.833 5 -133.5s5 -88.167 5 -133.5v-18
c0 -8.66699 -0.166992 -18 -0.5 -28s-0.5 -19.167 -0.5 -27.5v-18.5c0 -2.66699 -0.666992 -6.66699 -2 -12s-3 -10.666 -5 -15.999s-4.83301 -10.166 -8.5 -14.499s-8.16699 -6.5 -13.5 -6.5c-6.66699 -0 -13 2.33301 -19 7s-9.33301 10.667 -10 18zM66.001 442.996
c0 -8.66699 1.50098 -17.5039 4.50098 -26.5039s7.16699 -17.167 12.5 -24.5s11.833 -13.666 19.5 -18.999s16.5 -8 26.5 -8c1.33301 0 5.5 4 12.5 12s15 17.833 24 29.5l28.5 38c10 13.667 19.167 26.834 27.5 39.501s15.166 23.834 20.499 33.501s8 15.5 8 17.5
c0 3.33301 -1.16699 5.83301 -3.5 7.5s-5.16602 3.33398 -8.49902 5.00098s-6.33301 3.83398 -9 6.50098s-4.33398 6.33398 -5.00098 11.001c-18.667 -2 -37.334 -5.5 -56.001 -10.5s-35.667 -12.333 -51 -22s-27.666 -21.834 -36.999 -36.501s-14 -32.334 -14 -53.001z" />
    <glyph glyph-name="colon" unicode=":" horiz-adv-x="299" 
d="M86 133c0 21.333 5.83301 39.998 17.5 55.998s28.834 24 51.501 24c8.66699 0 17 -1.83301 25 -5.5s15.167 -8.66699 21.5 -15s11.166 -13.666 14.499 -21.999s5 -16.5 5 -24.5c0 -22.667 -4.83301 -40.167 -14.5 -52.5s-27.167 -19.833 -52.5 -22.5
c-26.667 -2.66699 -44.667 1.33301 -54 12s-14 27.334 -14 50.001zM65 471.998c0 18.667 5.33203 35.833 15.999 51.5s22 30.834 34 45.501c3.33301 2 7.5 3.5 12.5 4.5l17.5 3.5c17.333 -11.333 34.833 -23.833 52.5 -37.5s30.5 -27.334 38.5 -41.001
s8.83301 -27.5 2.5 -41.5s-25.166 -26.667 -56.499 -38c-23.333 -6.66699 -42.5 -8.16699 -57.5 -4.5s-27 9.5 -36 17.5s-15.167 16.167 -18.5 24.5s-5 13.5 -5 15.5z" />
    <glyph glyph-name="semicolon" unicode=";" horiz-adv-x="232" 
d="M139 27c-4.66699 0 -9 0.998047 -13 2.99805s-4.66699 5.66699 -2 11c-3.33301 0 -10.5 0.333008 -21.5 1s-22.167 2.33398 -33.5 5.00098s-21.5 6.66699 -30.5 12s-13.5 13 -13.5 23c0 14 1.5 26.5 4.5 37.5s7.16699 20.833 12.5 29.5s12.166 16.834 20.499 24.501
l28.5 26.5h21c18 0 32.5 -8.16699 43.5 -24.5s19.833 -35.5 26.5 -57.5s11.167 -44.5 13.5 -67.5s3.5 -41.167 3.5 -54.5c0 -24.667 -2.66699 -47 -8 -67s-13 -38.667 -23 -56s-22.167 -33.833 -36.5 -49.5s-30.5 -31.5 -48.5 -47.5c-4 -3.33301 -9 -7.16602 -15 -11.499
l-18 -13.5c-6 -4.66699 -11.5 -8.66699 -16.5 -12s-7.83301 -5 -8.5 -5h-9c2.66699 11.333 8.83398 19.666 18.501 24.999s17.5 11 23.5 17c20 20 35.5 39 46.5 57s19 36.833 24 56.5s8 40.5 9 62.5s1.5 47 1.5 75zM22 394.998c0 28 7.00195 50.5 21.002 67.5
s35.333 25.5 64 25.5c16.667 0 32.167 -5 46.5 -15s21.5 -23.667 21.5 -41c0 -14.667 -3 -27 -9 -37s-13.833 -18.167 -23.5 -24.5s-20.834 -11 -33.501 -14s-25.334 -4.5 -38.001 -4.5c-4 0 -10 0.166992 -18 0.5s-12.333 0.833008 -13 1.5l-16 17
c-0.666992 1.33301 -1.16699 5 -1.5 11s-0.5 10.333 -0.5 13z" />
    <glyph glyph-name="less" unicode="&#x3c;" horiz-adv-x="664" 
d="M16 91c16 14.667 32.167 30.5039 48.5 47.5039s30.833 34.5 43.5 52.5l315 308c0 6 2.16699 11.167 6.5 15.5s9.5 7.83301 15.5 10.5s12.333 4.5 19 5.5s12.667 1.5 18 1.5s11 -0.5 17 -1.5s8.66699 -6.16699 8 -15.5c0 -2 -0.833008 -4.5 -2.5 -7.5
s-3.33398 -6.33301 -5.00098 -10s-3.5 -7 -5.5 -10s-3.33301 -4.83301 -4 -5.5l-382 -366c-7.33301 -6.66699 -13.5 -13.167 -18.5 -19.5s-7.5 -13.5 -7.5 -21.5c0 -1.33301 0.166992 -3 0.5 -5l0.5 -3c10.667 -3.33301 23.334 -5.83301 38.001 -7.5l44 -5
c14.667 -1.66699 28.667 -3 42 -4s24.333 -1.5 33 -1.5h42.5h64.5h76h76h64.5h43.5c2 0 7.16699 -1 15.5 -3s14.166 -3.66699 17.499 -5c1.33301 -0.666992 3 -1.83398 5 -3.50098s3 -3.16699 3 -4.5c0 -2.66699 -2 -6.83398 -6 -12.501s-7.66699 -9.83398 -11 -12.501
c-19.333 -2.66699 -39.833 -4.83398 -61.5 -6.50098s-43.334 -2.66699 -65.001 -3s-43 -0.333008 -64 0s-40.5 0.5 -58.5 0.5h-133c-45.333 0 -89.666 3 -132.999 9c-7.33301 1.33301 -16.666 2.83301 -27.999 4.5s-22.333 3.5 -33 5.5l-27.5 5l-11.5 2v66z" />
    <glyph glyph-name="equal" unicode="=" horiz-adv-x="556" 
d="M75 141c0 0.666992 5.33496 2.66699 16.002 6l38.5 12c15 4.66699 30.5 9 46.5 13s29.333 7.66699 40 11c22 5.33301 46.5 10.5 73.5 15.5s54.667 9.5 83 13.5s56.166 7.33301 83.499 10s52.666 4 75.999 4v-43l-416 -59l-41 8v9zM464.002 415
c-33.333 -2.66699 -68.499 -5.83398 -105.499 -9.50098l-112.5 -11.5c-38 -4 -75.833 -7.33301 -113.5 -10s-74.167 -4 -109.5 -4c0 4.66699 1.66699 9.16699 5 13.5s7.33301 8 12 11s9.5 5.33301 14.5 7s9.16699 2.83398 12.5 3.50098
c65.333 19.333 131.166 31.833 197.499 37.5s132.833 8.5 199.5 8.5v-46z" />
    <glyph glyph-name="greater" unicode="&#x3e;" horiz-adv-x="607" 
d="M116 16c5.33301 4.66699 13.1631 12.335 23.4961 23.002l34.5 35.5l38.5 41l36 41c11 13 20.5 24.833 28.5 35.5s12.667 18.667 14 24l140 140c1.33301 0.666992 3.83301 2.16699 7.5 4.5l11.5 7.5c4 2.66699 7.5 5.66699 10.5 9s4.5 6.33301 4.5 9
c0 0.666992 -0.166992 1.16699 -0.5 1.5s-0.5 0.833008 -0.5 1.5v1c-0.666992 0.666992 -3 2.16699 -7 4.5s-7 3.5 -9 3.5c-3.33301 0.666992 -12 2.66699 -26 6l-44.5 10.5l-44.5 10.5c-14 3.33301 -22.667 5.33301 -26 6c-6 2 -17.667 5 -35 9
s-37.166 8.83301 -59.499 14.5s-45.666 12.167 -69.999 19.5s-46.5 14.833 -66.5 22.5s-36.5 15.667 -49.5 24s-19.5 16.166 -19.5 23.499c0 8 3.5 13.667 10.5 17s13.833 5 20.5 5c1.33301 0 3.5 -0.166992 6.5 -0.5l4.5 -0.5l108 -41l408 -101
c4.66699 -1.33301 7.33398 -3.5 8.00098 -6.5s1 -5.83301 1 -8.5c0 -6.66699 -0.666992 -12.5 -2 -17.5s-3.66602 -10.833 -6.99902 -17.5c-20.667 -10 -40 -21.333 -58 -34s-35.5 -25.834 -52.5 -39.501s-33.333 -28.334 -49 -44.001l-49.5 -48.5
c-16 -16 -32.5 -35.667 -49.5 -59s-35.167 -45.666 -54.5 -66.999s-40 -39.333 -62 -54s-46.667 -22 -74 -22v11z" />
    <glyph glyph-name="question" unicode="?" horiz-adv-x="515" 
d="M114 46c0 20.667 6.99902 35.3359 20.999 44.0029s30 13 48 13c2.66699 0 8 -0.333008 16 -1s13.667 -1.33398 17 -2.00098s5.83301 -2.83398 7.5 -6.50098s2.5 -7.5 2.5 -11.5s-0.166992 -7.83301 -0.5 -11.5s-0.5 -5.83398 -0.5 -6.50098c0 -8 -1.5 -15.833 -4.5 -23.5
s-7.16699 -14.5 -12.5 -20.5s-11.666 -10.833 -18.999 -14.5s-15 -5.5 -23 -5.5c-34.667 -0 -52 15.333 -52 46zM32.999 473.002c0 2.66699 0.334961 6.49902 1.00195 11.499s1.83398 9.83301 3.50098 14.5s4.16699 8.66699 7.5 12s7.66602 4.66602 12.999 3.99902
c24 -18 48.5 -29.5 73.5 -34.5s51.833 -7.5 80.5 -7.5c35.333 0 66.5 7 93.5 21s49.833 32.333 68.5 55s33 49.167 43 79.5s15 61.833 15 94.5v11c0 5.33301 -0.166992 11.166 -0.5 17.499s-0.5 12.333 -0.5 18v10.5c-2.66699 7.33301 -6.16699 14.5 -10.5 21.5
s-8.83301 13.833 -13.5 20.5h-8c-3.33301 0 -7 0.166992 -11 0.5s-7.66699 0.5 -11 0.5h-7c-28.667 0 -58 -4.16699 -88 -12.5s-59.167 -19.666 -87.5 -33.999s-55 -31.166 -80 -50.499s-46.833 -40 -65.5 -62c-2 0.666992 -5 2 -9 4s-8 4.66699 -12 8
s-7.33301 6.83301 -10 10.5s-3.33398 7.16699 -2.00098 10.5c2.66699 13.333 11.834 27 27.501 41s34.667 27.5 57 40.5s47.333 25.167 75 36.5s55 21.333 82 30s52.5 15.5 76.5 20.5s44 7.5 60 7.5c3.33301 0 9.66602 -0.166992 18.999 -0.5s15.333 -0.5 18 -0.5
c9.33301 -5.33301 17.5 -12.666 24.5 -21.999s13 -19.666 18 -30.999s9 -22.833 12 -34.5s4.5 -22.834 4.5 -33.501c0 -30 -4.16699 -63.333 -12.5 -100s-21.333 -71.334 -39 -104.001s-40.167 -60.167 -67.5 -82.5s-59.666 -33.5 -96.999 -33.5h-158
c2.66699 -4.66699 6.5 -13.167 11.5 -25.5l15.5 -39.5c5.33301 -14 10.166 -27.333 14.499 -40s7.16602 -21.667 8.49902 -27v-4.5v-10.5v-12.5v-9.5c0 -4 0.166992 -8.83301 0.5 -14.5s0.5 -11.5 0.5 -17.5s-0.666992 -11.833 -2 -17.5s-4 -10.167 -8 -13.5
c0 -0.666992 -0.333008 -1 -1 -1h-2c-0.666992 0 -1.5 0.166992 -2.5 0.5s-1.83301 0.5 -2.5 0.5c-4 6.66699 -9.66699 17.834 -17 33.501l-24.5 54c-9 20.333 -17.833 41.333 -26.5 63l-23.5 59.5l-17.5 45c-4.66699 12 -7 18.333 -7 19z" />
    <glyph glyph-name="at" unicode="@" horiz-adv-x="656" 
d="M191 8c-3.33301 6.66699 -8.33496 10.498 -15.002 11.498s-13 2.83301 -19 5.5c-22 12 -41.167 24.833 -57.5 38.5s-30.166 28.667 -41.499 45s-19.833 34.5 -25.5 54.5s-8.5 43 -8.5 69c0 54 11.667 107.5 35 160.5s54.666 100.333 93.999 142
s84.5 75.334 135.5 101.001s104.5 38.5 160.5 38.5c28 0 53.833 -6.5 77.5 -19.5s43.834 -30 60.501 -51s29.667 -44.667 39 -71s14 -52.833 14 -79.5c0 -27.333 -3.83301 -54.666 -11.5 -81.999s-19 -51.833 -34 -73.5s-33.833 -39.5 -56.5 -53.5s-49 -21 -79 -21
c-16.667 0 -27.834 5.66699 -33.501 17s-9.5 23.833 -11.5 37.5s-3.66699 26.167 -5 37.5s-6.33301 17 -15 17c-5.33301 0 -11.333 -2.16699 -18 -6.5s-13 -9.5 -19 -15.5s-11.167 -11.833 -15.5 -17.5s-7.5 -9.16699 -9.5 -10.5c-0.666992 0 -2.66699 -0.166992 -6 -0.5
s-5.66602 -0.5 -6.99902 -0.5c-8 0 -14 2.16699 -18 6.5s-7.33301 10.833 -10 19.5c0 2 -0.166992 6 -0.5 12s-0.5 12.333 -0.5 19s-0.166992 13 -0.5 19s-0.5 10.333 -0.5 13c0 18.667 0.833008 36.667 2.5 54s6 32.666 13 45.999s17 24.166 30 32.499
s30.167 12.5 51.5 12.5c10 0 25.333 -3.5 46 -10.5s41.5 -15.667 62.5 -26s39.333 -21.5 55 -33.5s23.5 -23.333 23.5 -34c0 -4.66699 -1.83301 -10.667 -5.5 -18s-8.83398 -11 -15.501 -11c-5.33301 0 -12 2.5 -20 7.5s-15.667 10.667 -23 17l-19.5 17l-8.5 7.5h-17
c-1.33301 0 -2.66602 -4.5 -3.99902 -13.5s-2.33301 -19 -3 -30s-1 -21.833 -1 -32.5v-20v-20c0 -7.33301 1 -14.166 3 -20.499s4.83301 -11.5 8.5 -15.5s9.83398 -6 18.501 -6c17.333 0 32.666 6.16699 45.999 18.5s24.333 27 33 44s15 35 19 54s6 34.833 6 47.5
c0 23.333 -3 46 -9 68s-15.167 41.667 -27.5 59s-28 31.5 -47 42.5s-41.5 16.5 -67.5 16.5c-2.66699 0 -9.16699 -1.16699 -19.5 -3.5s-17.5 -3.83301 -21.5 -4.5c-42.667 -17.333 -84 -37.5 -124 -60.5s-75.5 -50 -106.5 -81s-55.667 -66.333 -74 -106
s-27.5 -84.834 -27.5 -135.501c0 -33.333 7.16699 -61.666 21.5 -84.999s32.166 -42.833 53.499 -58.5s44.5 -27.834 69.5 -36.501s48.333 -15.5 70 -20.5s39.667 -8.33301 54 -10s21.5 -3.5 21.5 -5.5c-3.33301 -2 -8.16602 -3.83301 -14.499 -5.5
s-12.666 -3.16699 -18.999 -4.5s-12.333 -2.66602 -18 -3.99902s-10.167 -2 -13.5 -2c-4 0 -10.833 0.333008 -20.5 1s-19.834 1.33398 -30.501 2.00098s-20.667 1.5 -30 2.5s-15.666 1.83301 -18.999 2.5zM390.998 464.998c-16 0 -27.668 -3.50098 -35.001 -10.501
s-12.333 -16 -15 -27s-4 -22.833 -4 -35.5v-37c11.333 0 21.333 3.66699 30 11s15.834 16.333 21.501 27s10.167 21.667 13.5 33s5 21.333 5 30c0 4.66699 -2 7.33398 -6 8.00098s-7.33301 1 -10 1z" />
    <glyph glyph-name="A" unicode="A" horiz-adv-x="719" 
d="M20 212c0 28 0.99707 53.9941 2.99707 77.9941s5.33301 47.5 10 70.5s10.167 46.333 16.5 70s14.166 49.167 23.499 76.5c6 18.667 15.5 41.334 28.5 68.001s28.667 51.834 47 75.501s39 43.834 62 60.501s47.167 25 72.5 25h83c0.666992 0 2.83398 -0.5 6.50098 -1.5
s6.5 -1.83301 8.5 -2.5c26 -12.667 46.333 -28.167 61 -46.5s24.667 -41.833 30 -70.5c6 -27.333 12.5 -53.5 19.5 -78.5s10.5 -51.167 10.5 -78.5c0 -32.667 -0.833008 -65 -2.5 -97s-2.5 -64.333 -2.5 -97v-10.5c0 -5 0.166992 -10.5 0.5 -16.5s0.5 -11.667 0.5 -17v-10
c0.666992 -5.33301 1.33398 -13 2.00098 -23s2 -21 4 -33l6 -37c2 -12.667 4.5 -24.167 7.5 -34.5s6.5 -18.833 10.5 -25.5s8.66699 -10 14 -10c18 0 36.833 2.33301 56.5 7s37.5 12 53.5 22c1.33301 1.33301 4.5 3.83301 9.5 7.5l16 12l16 12l11.5 8.5
c4.66699 3.33301 8.5 5.83301 11.5 7.5s6.83301 2.5 11.5 2.5c4 0 7.66699 -1.16699 11 -3.5s5 -5.83301 5 -10.5c0 -15.333 -8.5 -29.666 -25.5 -42.999s-36.833 -25.333 -59.5 -36s-45.5 -19.167 -68.5 -25.5s-40.167 -9.5 -51.5 -9.5c-14.667 0 -27.167 7.5 -37.5 22.5
s-19.333 32.667 -27 53s-14.334 41.333 -20.001 63s-11.167 39.5 -16.5 53.5c-9.33301 -26.667 -23.166 -51.5 -41.499 -74.5s-39.166 -43.167 -62.499 -60.5s-48.666 -31 -75.999 -41s-55 -15 -83 -15c-30.667 0 -56.167 6.16699 -76.5 18.5s-36.333 28.333 -48 48
s-19.667 42.334 -24 68.001s-6.5 51.834 -6.5 78.501zM81.9971 219.994c0 -20 0.500977 -40.167 1.50098 -60.5s4.66699 -38.833 11 -55.5s16.333 -30.167 30 -40.5s33.167 -15.5 58.5 -15.5c33.333 0 63 7.5 89 22.5s48.667 34.667 68 59s35.666 52.333 48.999 84
s24 64 32 97s13.833 65.167 17.5 96.5s5.5 59.333 5.5 84c-17.333 0 -26 8 -26 24c0 10 2 18.833 6 26.5s6 17.5 6 29.5c0 14.667 -2.5 29 -7.5 43s-12.333 26.667 -22 38s-21 20.166 -34 26.499s-27.167 9.5 -42.5 9.5c-31.333 0 -58.833 -8.5 -82.5 -25.5
s-44.5 -39.167 -62.5 -66.5s-33.167 -58.166 -45.5 -92.499s-22.333 -69 -30 -104s-13.167 -68.333 -16.5 -100s-5 -58.167 -5 -79.5z" />
    <glyph glyph-name="B" unicode="B" horiz-adv-x="571" 
d="M53 156c-4 0.666992 -8.16699 1.83496 -12.5 3.50195s-8.16602 3.83398 -11.499 6.50098c1.33301 50.667 0.833008 99.5 -1.5 146.5s-3.5 95.833 -3.5 146.5c0 26.667 1.66699 52 5 76s7.83301 47.667 13.5 71s12.5 46.333 20.5 69l24 71c2 6 3 13.667 3 23
s0.666992 18.5 2 27.5s3.83301 16.667 7.5 23s10.834 9.5 21.501 9.5c6 0 11.167 -1.83301 15.5 -5.5s9.16602 -5.5 14.499 -5.5c6 0 12.5 1.33301 19.5 4l22.5 9c8 3.33301 16.167 6.33301 24.5 9s16.833 4 25.5 4c38 0 67.167 -12 87.5 -36s30.5 -54.333 30.5 -91
c0 -6.66699 -1.16699 -15 -3.5 -25s-3.16602 -18 -2.49902 -24c-5.33301 -30 -13.833 -58.833 -25.5 -86.5s-25.834 -54.167 -42.501 -79.5c37.333 -2.66699 71.666 -11.334 102.999 -26.001s58.666 -33.834 81.999 -57.501s41.5 -51.667 54.5 -84s19.5 -67.5 19.5 -105.5
c0 -32.667 -4.83301 -63.167 -14.5 -91.5s-23.667 -52.666 -42 -72.999s-40.833 -36.333 -67.5 -48s-57 -17.5 -91 -17.5c-32 0 -61 3.5 -87 10.5s-50.167 17.167 -72.5 30.5s-43.166 29.666 -62.499 48.999s-38 41.666 -56 66.999zM99 182.001l1.99805 -4.00098
c0.666992 -1.33301 1.33398 -2.33301 2.00098 -3c0.666992 -2 2.5 -5 5.5 -9l9 -12l8.5 -11c2.66699 -3.33301 4 -5.33301 4 -6c24.667 -28 52.167 -49.667 82.5 -65s64.166 -23 101.499 -23c57.333 0 99.833 16.5 127.5 49.5s41.5 77.167 41.5 132.5
c0 32.667 -4.83301 62.334 -14.5 89.001s-23.834 49.667 -42.501 69s-41 34.166 -67 44.499s-54.333 15.5 -85 15.5c-8 0 -14.833 -1.66699 -20.5 -5s-11 -6.83301 -16 -10.5s-10.167 -7.16699 -15.5 -10.5s-11.333 -5 -18 -5c-8 0 -14 3 -18 9s-6 13 -6 21
c0 10 2.33301 18.167 7 24.5s10.5 12.166 17.5 17.499l21 16c7 5.33301 12.833 12 17.5 20l9.5 17l11 20c3.66699 6.66699 6.83398 12.667 9.50098 18l4 8l6.5 23l9.5 33.5c3.33301 11.667 6.33301 23 9 34s4.33398 18.5 5.00098 22.5v7c0 22 -5.33301 41 -16 57
s-27.667 24 -51 24c-6.66699 0 -14.667 -1.5 -24 -4.5s-18.666 -6.83301 -27.999 -11.5s-17.666 -10.334 -24.999 -17.001s-11.333 -13.667 -12 -21l-39 -282v-10c0 -4 -0.666992 -11.167 -2 -21.5s-2.66602 -22.666 -3.99902 -36.999s-2.83301 -29.166 -4.5 -44.499
s-3.16699 -30.166 -4.5 -44.499l-3.5 -37c-1 -10.333 -1.5 -17.5 -1.5 -21.5v-2c0 -4.66699 2.5 -9.16699 7.5 -13.5s7.5 -9.83301 7.5 -16.5v-6c-0.666992 -1.33301 -2.33398 -3.83301 -5.00098 -7.5s-4.33398 -6.16699 -5.00098 -7.5zM62.998 444
c-2.66699 0 -4 -1.66699 -4 -5s1.33301 -5 4 -5s4 1.66699 4 5s-1.33301 5 -4 5z" />
    <glyph glyph-name="C" unicode="C" horiz-adv-x="616" 
d="M28 392c-6.66699 36 -5.49707 73.8291 3.50293 113.496s23.5 79.167 43.5 118.5s44.667 77.166 74 113.499s60.833 69.166 94.5 98.499s69 54 106 74s73.167 33.667 108.5 41c10.667 0 20.167 -3.33301 28.5 -10s15.5 -15 21.5 -25s10.5 -20.667 13.5 -32
s4.5 -21.666 4.5 -30.999v-97c0 -6.66699 -2.66699 -10.834 -8 -12.501s-10 -2.5 -14 -2.5c-4.66699 0 -10.334 0.666992 -17.001 2s-10 5.66602 -10 12.999c0 2.66699 -0.333008 7 -1 13s-1.33398 12.667 -2.00098 20s-1.16699 14.333 -1.5 21s-0.5 11 -0.5 13
c0 1.33301 -0.166992 5.83301 -0.5 13.5s-1.16602 15.5 -2.49902 23.5s-3.33301 15.333 -6 22s-6 10 -10 10h-35l-9 -4.5l-21 -10.5l-24 -12.5c-8 -4.33301 -14 -8.16602 -18 -11.499c-2 -1.33301 -5.16699 -3.66602 -9.5 -6.99902l-13.5 -10
c-4.66699 -3.33301 -9 -6.66602 -13 -9.99902s-7 -5.66602 -9 -6.99902c-36 -34.667 -67.333 -66.834 -94 -96.501s-49 -60.5 -67 -92.5s-31.5 -66.5 -40.5 -103.5s-13.5 -80.833 -13.5 -131.5c0 -20 1.16699 -42.167 3.5 -66.5s6 -49.166 11 -74.499
s12.167 -50.166 21.5 -74.499s21 -45.833 35 -64.5s31 -33.667 51 -45s43.667 -17 71 -17h22l79.5 27.5c23 8.33301 43.667 16.833 62 25.5s35 18.167 50 28.5s29.667 22.833 44 37.5s29.166 32.334 44.499 53.001l52 73c0.666992 0 1.66699 0.166992 3 0.5
s2.66602 0.5 3.99902 0.5c12 0 18 -6 18 -18c0 -15.333 -3.83301 -32.5 -11.5 -51.5s-21.667 -39.833 -42 -62.5s-48.666 -46.5 -84.999 -71.5s-82.833 -50.167 -139.5 -75.5c-10.667 -4.66699 -20 -8.5 -28 -11.5s-15.667 -5.16699 -23 -6.5
s-14.833 -2.16602 -22.5 -2.49902s-16.167 -0.5 -25.5 -0.5c-34.667 0 -64.834 6 -90.501 18s-47.834 28.167 -66.501 48.5s-34.167 43.666 -46.5 69.999s-22.166 54.333 -29.499 84s-12.5 59.334 -15.5 89.001s-4.5 57.5 -4.5 83.5z" />
    <glyph glyph-name="D" unicode="D" horiz-adv-x="532" 
d="M199 36c0 3.33301 0.165039 6.33301 0.498047 9s1.83301 5.33398 4.5 8.00098c1.33301 0 3.5 0.166992 6.5 0.5s5.16699 0.5 6.5 0.5c12 0 23.5 -1 34.5 -3s22.5 -3 34.5 -3c22 0 43 3 63 9s37.833 14.833 53.5 26.5s28.167 26.334 37.5 44.001s14 38.5 14 62.5
c0 14 -2.16699 28 -6.5 42s-10.166 27.667 -17.499 41s-15.666 25.833 -24.999 37.5s-19.333 21.834 -30 30.501l-224 185c-1.33301 2 -4.5 5.5 -9.5 10.5s-8.83301 8.16699 -11.5 9.5l-1 -2h-2h-1v-393l-5 -73c0 -6 -3 -10.5 -9 -13.5s-11 -5.16699 -15 -6.5
c-8 -0.666992 -13.833 0.666016 -17.5 3.99902s-6.5 8 -8.5 14s-3 12.333 -3 19v17v507c-13.333 20.667 -24.166 41.667 -32.499 63s-12.5 44.333 -12.5 69c0 6 0.333008 14 1 24s2.16699 19.833 4.5 29.5s6.33301 18 12 25s13.5 10.5 23.5 10.5
c6.66699 0 11.5 -2.66699 14.5 -8s4.5 -11 4.5 -17c0 -10 -1 -19.333 -3 -28s-3 -18 -3 -28c0 -6 -0.166992 -13.667 -0.5 -23s1.5 -17.333 5.5 -24c0.666992 8 1.16699 18.667 1.5 32s1.83301 26.333 4.5 39s7.16699 23.667 13.5 33s16.166 14 29.499 14
c5.33301 0 10 -1.16699 14 -3.5s6 -6.5 6 -12.5v-102c-8 -8.66699 -12.5 -18.5 -13.5 -29.5s-1.5 -21.833 -1.5 -32.5v-13c0 -2 0.333008 -4.66699 1 -8c0.666992 -2 2.16699 -4.66699 4.5 -8l8 -11.5l8.5 -12c2.66699 -3.66699 5 -6.5 7 -8.5l225 -184
c34 -28.667 62 -60.834 84 -96.501s33 -75.834 33 -120.501c0 -29.333 -6 -55.5 -18 -78.5s-28 -42.667 -48 -59s-42.833 -28.833 -68.5 -37.5s-52.167 -13 -79.5 -13c-5.33301 -0 -13.333 0.333008 -24 1s-21.167 2 -31.5 4s-19.333 5.33301 -27 10s-11.5 11.667 -11.5 21z
" />
    <glyph glyph-name="E" unicode="E" 
d="M48 39c-1.33301 2 -3.16406 5.83887 -5.49707 11.5059l-7.5 19c-2.66699 7 -5 13.5 -7 19.5s-3.33301 10.667 -4 14l-0.5 9.5c-0.333008 6.33301 -0.5 11.5 -0.5 15.5c0 14 0.666992 28.333 2 43s4.33301 29.334 9 44.001c2 3.33301 5.66699 10.166 11 20.499l17.5 32.5
l17.5 32.5c5.33301 10.333 9.33301 17.166 12 20.499c16.667 29.333 37.834 55.333 63.501 78s51.834 44 78.501 64c2.66699 2 8.5 6.66699 17.5 14s19.167 15 30.5 23l31.5 23c9.66699 7.33301 15.5 11.666 17.5 12.999l3 3c1.33301 1.33301 2.33301 2 3 2v3v2
c-20 4 -39.5 8.5 -58.5 13.5s-35.833 12.333 -50.5 22s-26.334 22 -35.001 37s-13 34.167 -13 57.5c0 28.667 8 53.167 24 73.5s35.833 37.333 59.5 51s49.167 23.667 76.5 30s52.666 9.5 75.999 9.5c12 0 24.5 -0.833008 37.5 -2.5s25 -5 36 -10s20 -12 27 -21
s10.5 -21.167 10.5 -36.5c0 -9.33301 -2.83301 -16.5 -8.5 -21.5s-12.834 -7.5 -21.501 -7.5c-8 0 -13.333 2.16699 -16 6.5l-9.5 15c-3.66699 5.66699 -9.33398 10.834 -17.001 15.501s-20.167 7 -37.5 7c-14.667 0 -29.167 -1.16699 -43.5 -3.5s-28.5 -2.83301 -42.5 -1.5
c-11.333 -3.33301 -22.833 -8.5 -34.5 -15.5s-22.167 -15.167 -31.5 -24.5s-17 -19.833 -23 -31.5s-9 -24.167 -9 -37.5c0 -18.667 4.66699 -32.834 14 -42.501s21.166 -16.667 35.499 -21s29.666 -6.83301 45.999 -7.5s31.666 -1.83398 45.999 -3.50098
s26.166 -5 35.499 -10s14 -13.833 14 -26.5v-9l-30 -29c-3.33301 -3.33301 -9.16602 -7.83301 -17.499 -13.5l-27 -19l-31 -23l-31 -23.5l-27 -20c-8.33301 -6 -14.166 -10.667 -17.499 -14c-18.667 -15.333 -37.667 -32.833 -57 -52.5s-37.166 -41 -53.499 -64
s-29.666 -47 -39.999 -72s-15.5 -50.5 -15.5 -76.5c0 -30.667 6 -52.667 18 -66s32 -20 60 -20c27.333 0 54.833 4 82.5 12s54.834 18.5 81.501 31.5s52.167 27.667 76.5 44s46.833 32.833 67.5 49.5h4c5.33301 0 10.166 -1.5 14.499 -4.5s6.5 -7.16699 6.5 -12.5
c0 -3.33301 -1.83301 -7.5 -5.5 -12.5s-7.66699 -9.5 -12 -13.5l-11.5 -10.5l-5 -4.5c-22 -16.667 -45.5 -32.834 -70.5 -48.501s-50.667 -29.834 -77 -42.501s-53.333 -22.834 -81 -30.501s-55.834 -11.5 -84.501 -11.5h-19h-19c-22 6 -40.333 17.667 -55 35z" />
    <glyph glyph-name="F" unicode="F" horiz-adv-x="649" 
d="M165 22c0 10 1.1709 18.1719 3.50391 24.5049s5.16602 12 8.49902 17s7 10.167 11 15.5s8 11.666 12 18.999l30 65c10 22 18.833 44.5 26.5 67.5s14 46.333 19 70s7.5 47.834 7.5 72.501c0 6 -1.66699 9.5 -5 10.5s-7.66602 1.5 -12.999 1.5
c-31.333 0 -62.5 -0.666992 -93.5 -2s-62.167 -2 -93.5 -2h-15.5c-4.33301 0 -8.66602 0.166992 -12.999 0.5l-13 1c-4.33301 0.333008 -9.83301 1.16602 -16.5 2.49902c-6 2 -9.5 4.66699 -10.5 8s-1.5 7.33301 -1.5 12c0 2.66699 0.5 6 1.5 10s4.5 5.33301 10.5 4
c20 -0.666992 41.667 -0.666992 65 0s46.666 2 69.999 4l69 6c22.667 2 43.667 3.66699 63 5c4 7.33301 7 17 9 29s3.16699 24.5 3.5 37.5s0.166016 25.833 -0.500977 38.5s-1 23.334 -1 32.001c0 9.33301 0.333008 19.833 1 31.5s0.666992 23.334 0 35.001
s-2 23.167 -4 34.5s-6 21.333 -12 30c-4.66699 6 -9.16699 11 -13.5 15s-8.5 7.66699 -12.5 11s-7.33301 7 -10 11s-4 9.66699 -4 17c0 3.33301 0.166992 6.5 0.5 9.5s1.83301 6.16699 4.5 9.5c1.33301 0 3.83301 0.166992 7.5 0.5s6.16699 0.5 7.5 0.5
c8.66699 0 17.5 -1.16699 26.5 -3.5l26.5 -7c8.66699 -2.33301 17.5 -4.5 26.5 -6.5s18.833 -3 29.5 -3c30.667 0 62.167 0.833008 94.5 2.5s63.833 5.5 94.5 11.5c3.33301 0.666992 5.16602 3 5.49902 7s0.333008 8.16699 0 12.5s0.166992 8 1.5 11s5.33301 4.5 12 4.5
c5.33301 0 10.5 -1.66699 15.5 -5s9.66699 -7.33301 14 -12s8 -9 11 -13s5.5 -7 7.5 -9c0 -0.666992 0.166992 -1.83398 0.5 -3.50098s0.5 -2.83398 0.5 -3.50098c0 -8.66699 -4.66699 -16.167 -14 -22.5s-18 -9.83301 -26 -10.5l-243 -20v-7c0 -16 0.833008 -32 2.5 -48
s2.5 -32.333 2.5 -49c0 -26.667 -0.833008 -52.834 -2.5 -78.501s-2.5 -51.834 -2.5 -78.501c0 -2.66699 0.166992 -5.5 0.5 -8.5s3.16602 -3.83301 8.49902 -2.5h162h19c8.66699 0 17.5 -0.833008 26.5 -2.5s16.833 -4.33398 23.5 -8.00098s10 -9.5 10 -17.5
c0 -10 -4.5 -17.667 -13.5 -23s-17.833 -8 -26.5 -8c-26.667 0 -53.834 1.83301 -81.501 5.5s-55.5 5.5 -83.5 5.5c-4 0 -8.83301 -0.166992 -14.5 -0.5s-11.167 -0.5 -16.5 -0.5h-19l-10 -78l-58 -190l-58 -107c-2.66699 -4 -7.5 -6 -14.5 -6h-13.5h-17
c-2.66699 3.33301 -4.16699 6.16602 -4.5 8.49902s-0.5 5.5 -0.5 9.5z" />
    <glyph glyph-name="G" unicode="G" horiz-adv-x="926" 
d="M258 190c-0.666992 0 -1.16797 0.163086 -1.50098 0.496094l-0.5 0.5l-2 -1l-8 -4c-4 -2 -6.66699 -3.66699 -8 -5l-25 -21.5l-38 -32.5l-38 -32.5l-25 -21.5c-1.33301 -1.33301 -4 -4.66602 -8 -9.99902l-13.5 -18c-5 -6.66699 -10.167 -12.5 -15.5 -17.5
s-10 -7.5 -14 -7.5c-7.33301 0 -15.333 2.16699 -24 6.5s-13 10.833 -13 19.5c0 5.33301 4.16699 13 12.5 23s18.666 21 30.999 33s26.333 24.333 42 37l45.5 37l40.5 33.5l28.5 24.5c-19.333 27.333 -37.833 52 -55.5 74l-56.5 73v11c0 11.333 2.33301 18.833 7 22.5
s12.334 5.5 23.001 5.5c7.33301 0 13.333 -0.666992 18 -2s11.334 -4.33301 20.001 -9c32 -5.33301 61.167 -9.83301 87.5 -13.5s53.833 -5.5 82.5 -5.5h25c2 1.33301 4.83301 4 8.5 8l11.5 13l11.5 13.5c3.66699 4.33301 6.16699 7.5 7.5 9.5c3.33301 4 5 9 5 15
c0 4.66699 -1 9.66699 -3 15s-4.33301 10.833 -7 16.5s-5 11.334 -7 17.001s-3 11.5 -3 17.5v7l59 244c3.33301 14.667 10.333 30.167 21 46.5s23 31.166 37 44.499s29.5 24.166 46.5 32.499s33.5 12.5 49.5 12.5c8 0 14.333 -2 19 -6s8.33398 -8.83301 11.001 -14.5
s4.5 -11.834 5.5 -18.501s1.5 -13 1.5 -19c0 -16 -1 -31.667 -3 -47s-6.33301 -30.666 -13 -45.999l-78 -190c-1.33301 -5.33301 -3.83301 -11 -7.5 -17s-7.66699 -12.167 -12 -18.5l-13 -18.5c-4.33301 -6 -8.16602 -11 -11.499 -15h8c11.333 0 21.666 2.33301 30.999 7
s19.333 9 30 13c66.667 27.333 122.5 62.833 167.5 106.5s81.833 99.167 110.5 166.5c2.66699 2.66699 5.83398 4.33398 9.50098 5.00098s7.16699 1 10.5 1c6.66699 0 12.334 -2.16699 17.001 -6.5s7 -9.83301 7 -16.5v-4c0 -2 -0.333008 -3.33301 -1 -4
c-2.66699 -5.33301 -6.5 -14 -11.5 -26l-17 -40.5l-19.5 -47l-19 -47c-6 -15 -11.167 -28.5 -15.5 -40.5s-7.5 -21 -9.5 -27c-2.66699 -8.66699 -5.83398 -19.667 -9.50098 -33l-11.5 -43.5l-12 -48.5c-4 -16.667 -7.5 -31.834 -10.5 -45.501s-5.33301 -25.5 -7 -35.5
s-2.5 -16.333 -2.5 -19v-9c0 -2 -1 -8 -3 -18l-7 -33.5c-2.66699 -12.333 -5.5 -24.666 -8.5 -36.999s-5.16699 -21.833 -6.5 -28.5c-4.66699 -17.333 -10.834 -36.666 -18.501 -57.999s-17.5 -41.166 -29.5 -59.499s-26.333 -33.666 -43 -45.999
s-36.334 -18.5 -59.001 -18.5c-31.333 0 -62.333 5.5 -93 16.5s-60 25.5 -88 43.5s-54 38.5 -78 61.5s-45.333 46.167 -64 69.5zM291.999 228.996l2.50293 -3.5c1.66699 -2.33301 3.83398 -5.16602 6.50098 -8.49902l8 -10c2.66699 -3.33301 5 -5.66602 7 -6.99902
c16 -17.333 34 -34.833 54 -52.5s41.167 -34 63.5 -49s45.666 -27 69.999 -36s49.166 -13.5 74.499 -13.5c17.333 0 31 5.66699 41 17s18 24.833 24 40.5s11.5 31.834 16.5 48.501s11.167 30 18.5 40l38 180v6c2.66699 16.667 5.5 32 8.5 46s6.66699 28 11 42l13.5 44.5
l16 52.5c-7.33301 -6 -16 -12.667 -26 -20l-30 -21c-10 -6.66699 -20 -12.834 -30 -18.501l-26 -14.5c-6.66699 -3.33301 -16.5 -7.5 -29.5 -12.5l-39 -15.5c-13 -5.33301 -24.5 -9.83301 -34.5 -13.5s-16.333 -5.83398 -19 -6.50098l-59 -10l-4 -4
c-2.66699 -2.66699 -4.33398 -4.66699 -5.00098 -6c-1.33301 -1.33301 -3.33301 -4 -6 -8s-5.66699 -7.83301 -9 -11.5s-6.33301 -7.5 -9 -11.5s-4.66699 -6.66699 -6 -8c2 0 6.16699 0.333008 12.5 1s13 0.5 20 -0.5s13.167 -3 18.5 -6s8 -7.5 8 -13.5
c0 -6.66699 -3 -11.5 -9 -14.5s-11.333 -4.83301 -16 -5.5c-2.66699 0 -7.33398 -0.166992 -14.001 -0.5s-14 -0.833008 -22 -1.5s-15.333 -1.33398 -22 -2.00098s-11.667 -1 -15 -1zM260.002 264.996l70.999 72v4c-7.33301 0.666992 -15.666 1.66699 -24.999 3
s-19.333 2.33301 -30 3s-21.167 1.5 -31.5 2.5s-19.5 1.5 -27.5 1.5h-3c-1.33301 -0.666992 -3.83301 -1.5 -7.5 -2.5s-6.16699 -1.83301 -7.5 -2.5zM600.001 839.996c-11.333 0 -21.998 -2.83496 -31.998 -8.50195s-19.167 -12.667 -27.5 -21s-15.5 -17.666 -21.5 -27.999
s-10 -20.833 -12 -31.5l-44 -171c-1.33301 -4 -2.33301 -9.66699 -3 -17s-1.33398 -15.166 -2.00098 -23.499s-1 -16.333 -1 -24v-17.5h6c14.667 26.667 30.167 53.334 46.5 80.001s31.166 54 44.499 82s24.333 56.667 33 86s13 60.666 13 93.999z" />
    <glyph glyph-name="H" unicode="H" horiz-adv-x="752" 
d="M147 278c0 0.666992 0.498047 2.67285 1.49805 6.00586s2.33301 7 4 11s3.16699 8 4.5 12s2.33301 7.33301 3 10v2v2c-8.66699 0.666992 -20.334 2 -35.001 4s-28.667 5.5 -42 10.5s-25 11.5 -35 19.5s-15 19 -15 33c0 13.333 4.66699 24.166 14 32.499
s20.666 15 33.999 20s27 8.5 41 10.5s25.667 3 35 3c12.667 0 23.334 -0.166992 32.001 -0.5s19.667 -1.83301 33 -4.5v14l149 289l-137 -30h-30c-7.33301 0 -17 0.333008 -29 1s-23.667 2.5 -35 5.5s-21.166 7.5 -29.499 13.5s-12.5 15 -12.5 27
c0 15.333 2.16699 29.166 6.5 41.499s15.166 18.5 32.499 18.5c7.33301 0 12.5 -2.66699 15.5 -8s5 -11.333 6 -18s2.5 -13.167 4.5 -19.5s6 -10.833 12 -13.5h8.5c3.66699 0 7.66699 -0.166992 12 -0.5s8.5 -0.5 12.5 -0.5h9c14 0 26.833 0.666992 38.5 2
s23 3.16602 34 5.49902s22 5.5 33 9.5l37.5 14c8.66699 3.33301 17.334 8.83301 26.001 16.5l25.5 23c8.33301 7.66699 16.833 14.334 25.5 20.001s17.667 8.5 27 8.5c12.667 0 19 -7 19 -21c0 -5.33301 -0.333008 -10 -1 -14s-2.33398 -8.66699 -5.00098 -14l-200 -370v-15
c36.667 -12.667 69.334 -30.334 98.001 -53.001h6l164 24l10 4c2 6 5.5 15.333 10.5 28l16.5 40.5l17 41c5.33301 13 8.66602 22.167 9.99902 27.5c1.33301 1.33301 3 4.66602 5 9.99902s3.66699 8.66602 5 9.99902l87 224c2.66699 4.66699 7.16699 9 13.5 13
s11.833 6 16.5 6c8.66699 0 14.167 -3.83301 16.5 -11.5s3.5 -14.5 3.5 -20.5v-7l-103 -263c-2.66699 -5.33301 -5.83398 -12.166 -9.50098 -20.499l-10.5 -24.5c-3.33301 -8 -6.16602 -15.667 -8.49902 -23s-4.16602 -12.333 -5.49902 -15c2 0 5 0.5 9 1.5
s8.33301 1.83301 13 2.5s9.16699 1.66699 13.5 3s6.83301 2.33301 7.5 3c4.66699 1.33301 12.334 4 23.001 8s22 8.5 34 13.5s23.333 9.5 34 13.5s18 7 22 9c3.33301 5.33301 8.16602 10 14.499 14s12.833 6 19.5 6c4 0 7.5 -1.33301 10.5 -4s4.5 -6.33398 4.5 -11.001
c0 -7.33301 -2.66699 -14 -8 -20s-11.666 -11.833 -18.999 -17.5s-15 -10.167 -23 -13.5s-14 -6 -18 -8l-155 -54l-94 -258l-5.5 -27.5c-2.33301 -11.667 -5.66602 -23.167 -9.99902 -34.5s-9.83301 -21 -16.5 -29s-14.667 -12 -24 -12c-10 0 -17.667 6.66699 -23 20
s-9.16602 30.166 -11.499 50.499s-4.33301 42.833 -6 67.5s-4.33398 49 -8.00098 73s-9.16699 45.333 -16.5 64s-17.666 32.667 -30.999 42c-0.666992 0 -3.66699 0.333008 -9 1s-8.33301 1 -9 1c-2.66699 0 -6.5 -0.333008 -11.5 -1s-7.83301 -1 -8.5 -1l-26 -2.5
c-10.667 -1 -20.834 -2 -30.501 -3s-18.167 -1.83301 -25.5 -2.5l-11 -1l-4 -5l-103 -219c-2.66699 -18 -8.66699 -33.333 -18 -46s-18 -27 -26 -43c-2 0 -6.16699 -0.666992 -12.5 -2s-10.166 -2 -11.499 -2c-0.666992 0 -2.83398 0.666992 -6.50098 2s-6.5 2 -8.5 2l-6 3
c-2.66699 1.33301 -4 2.33301 -4 3v24zM414.998 334.006c0 -6.66699 2.33203 -17.1719 6.99902 -31.5049s10.167 -30.166 16.5 -47.499l18 -50.5c5.66699 -16.333 9.5 -29.166 11.5 -38.499c0.666992 2.66699 2.16699 7.83398 4.5 15.501l7.5 24c2.66699 8.33301 5 16 7 23
s3.66699 12.167 5 15.5c0.666992 0.666992 1.66699 2.33398 3 5.00098s2.33301 4.33398 3 5.00098c2 6.66699 5 15 9 25l11.5 30l9.5 26l4 11v10h-5c-2 0 -3.66699 -0.333008 -5 -1c-4 0 -11.167 -1 -21.5 -3l-32.5 -6l-32.5 -6c-10.333 -2 -17.166 -3 -20.499 -3v-3z
M102.997 390.001c9.33301 -7.33301 20.8359 -12.334 34.5029 -15.001s26.5 -4 38.5 -4c5.33301 0 9.66602 3.16699 12.999 9.5s5 11.833 5 16.5v3c-1.33301 0 -6 0.833008 -14 2.5s-12.667 2.5 -14 2.5c-0.666992 0 -4 -0.166992 -10 -0.5s-12.833 -1.16602 -20.5 -2.49902
s-14.834 -3 -21.501 -5s-10.334 -4.33301 -11.001 -7zM260 386c-8.66699 0 -13 -5 -13 -15h40l5 4c-4.66699 3.33301 -9.66699 6 -15 8s-11 3 -17 3z" />
    <glyph glyph-name="I" unicode="I" horiz-adv-x="722" 
d="M454 127c-18 -12 -37.0029 -23.8291 -57.0029 -35.4961s-40.833 -22 -62.5 -31s-43.5 -16.333 -65.5 -22s-44.333 -8.5 -67 -8.5c-26.667 0 -48.334 7 -65.001 21s-30 31.333 -40 52s-18 42.834 -24 66.501s-12.333 45.167 -19 64.5
c-2.66699 8 -6.33398 14.333 -11.001 19l-14.5 14c-5 4.66699 -9.33301 10 -13 16s-5.5 13.333 -5.5 22c0 6.66699 3.83301 12.834 11.5 18.501s14.167 8.5 19.5 8.5c6 0 11.833 -2.66699 17.5 -8s12.5 -11.166 20.5 -17.499s17 -12 27 -17s21.667 -7.5 35 -7.5
c8.66699 0 18.667 0.166992 30 0.5s21 1.83301 29 4.5c6 2.66699 9.33301 4.83398 10 6.50098s0.833984 3.16699 0.500977 4.5s0.166992 2.33301 1.5 3s5.66602 1 12.999 1c5.33301 0 11.5 -0.5 18.5 -1.5s13.5 -3 19.5 -6s10.833 -7 14.5 -12s5.5 -10.833 5.5 -17.5
c0 -12 -4 -19.333 -12 -22s-17 -4.33398 -27 -5.00098h-26c-12.667 0 -26 -0.333008 -40 -1s-27.167 -1.33398 -39.5 -2.00098s-21.166 -1 -26.499 -1l10 -45.5c4 -17.667 9.33301 -34.334 16 -50.001s15.834 -29 27.501 -40s26.167 -16.5 43.5 -16.5
c20.667 0 41 2.5 61 7.5s39.333 11.667 58 20s36.834 17.833 54.501 28.5l51.5 32c2.66699 2.66699 4.16699 4.66699 4.5 6s0.5 3.66602 0.5 6.99902c0 24.667 -2.5 49.667 -7.5 75s-7.5 51.333 -7.5 78c0 17.333 1.33301 39.666 4 66.999s7 56.166 13 86.499
s14 61.166 24 92.499s22.5 59.666 37.5 84.999s32.5 45.666 52.5 60.999s43.333 23 70 23c12 0 21.833 -3.33301 29.5 -10s14 -15.667 19 -27s8.83301 -23.666 11.5 -36.999s4.66699 -26.666 6 -39.999s2 -25.5 2 -36.5v-25.5c0 -28 -2.16699 -56.667 -6.5 -86
s-10.666 -58 -18.999 -86s-19 -55.167 -32 -81.5s-28.167 -50.833 -45.5 -73.5c-13.333 -17.333 -27.5 -32.166 -42.5 -44.499s-30.167 -26.5 -45.5 -42.5c7.33301 -28.667 17.333 -53.5 30 -74.5s30.334 -39.833 53.001 -56.5c2.66699 -2.66699 4.16699 -4.66699 4.5 -6
s0.5 -4 0.5 -8c0 -6.66699 -1.83301 -11.167 -5.5 -13.5s-8.5 -3.5 -14.5 -3.5c-11.333 0 -20.5 1.83301 -27.5 5.5s-13.333 8.16699 -19 13.5s-11.167 11.166 -16.5 17.499s-11.333 12.166 -18 17.499zM476.997 342.004l0.00195312 -28.9971c0 -8.66699 0.333008 -17 1 -25
l2 -25c0.666992 -8.66699 1.66699 -18.334 3 -29.001c0.666992 -3.33301 1.66699 -7.33301 3 -12s2.33301 -7 3 -7h4c0.666992 0 3 1.83301 7 5.5l13.5 13l15.5 16c5.33301 5.66699 9.66602 10.5 12.999 14.5c37.333 42.667 63.833 90.167 79.5 142.5
s23.5 107.166 23.5 164.499v12c0 6 -0.166992 12.5 -0.5 19.5s-0.5 13.5 -0.5 19.5v12c-0.666992 2 -1.5 5.83301 -2.5 11.5s-2.5 11.5 -4.5 17.5s-3.66699 11.833 -5 17.5s-2.33301 9.5 -3 11.5l-2.5 5c-1 2 -1.5 3.66699 -1.5 5c-20 -2 -37.333 -10.167 -52 -24.5
s-27.667 -32.5 -39 -54.5s-20.5 -46.333 -27.5 -73s-12.833 -53 -17.5 -79s-7.83398 -50.333 -9.50098 -73s-2.5 -41.334 -2.5 -56.001z" />
    <glyph glyph-name="J" unicode="J" horiz-adv-x="474" 
d="M136 -363c0 38.667 6.49512 74.6699 19.4951 108.003s29.333 65.333 49 96s40.667 61 63 91s42.5 60.333 60.5 91h-4c-15.333 0 -30.333 -1 -45 -3s-29.667 -3 -45 -3c-31.333 0 -59.333 11.333 -84 34s-45.5 51.167 -62.5 85.5s-30.167 71.166 -39.5 110.499
s-14 75.333 -14 108c2.66699 20 5.83398 41.167 9.50098 63.5s8.5 44.166 14.5 65.499s13.5 41.833 22.5 61.5s20.167 37.167 33.5 52.5s29.333 27.5 48 36.5s41 13.833 67 14.5c12.667 0 24.334 -3.33301 35.001 -10s19.834 -15.167 27.501 -25.5s14 -21.833 19 -34.5
s8.5 -25.334 10.5 -38.001l34 -362c6.66699 4 14.834 5.83301 24.501 5.5s17.167 -0.5 22.5 -0.5h32c4.66699 -4.66699 8.33398 -7.33398 11.001 -8.00098s6.33398 -1 11.001 -1h7l18.5 12c7 4.66699 13.667 8.5 20 11.5s11.5 4.33301 15.5 4s5.5 -3.5 4.5 -9.5
s-5.16699 -15.5 -12.5 -28.5s-19.666 -30.833 -36.999 -53.5c-4 -9.33301 -10.333 -17.666 -19 -24.999l-26 -23c-8.66699 -8 -16.334 -16.167 -23.001 -24.5s-10 -17.5 -10 -27.5c0 -1.33301 0.166992 -3.5 0.5 -6.5s0.5 -4.83301 0.5 -5.5l39 -195l0.5 -11
c0.333008 -7.33301 0.666016 -16 0.999023 -26s0.833008 -20.167 1.5 -30.5s1 -18.833 1 -25.5v-5c0 -23.333 -3.33301 -48.833 -10 -76.5s-16.667 -53.5 -30 -77.5s-30.333 -44.167 -51 -60.5s-45 -24.5 -73 -24.5c-22.667 0 -42.5 5.33301 -59.5 16
s-31.333 24.167 -43 40.5s-20.5 34.5 -26.5 54.5s-9 39.667 -9 59zM184.995 -368.997c0 -11.333 2.00098 -23.666 6.00098 -36.999s9.83301 -25.833 17.5 -37.5s16.667 -21.334 27 -29.001s22.166 -11.5 35.499 -11.5c23.333 0 42 7.5 56 22.5s25.167 33 33.5 54
s13.833 43 16.5 66s4 42.167 4 57.5c0 22.667 -0.833008 43.834 -2.5 63.501s-3.83398 39.167 -6.50098 58.5s-6.16699 38.666 -10.5 57.999s-9.5 40.333 -15.5 63l-4 -4c-2 -2 -6.33301 -7.66699 -13 -17l-23 -32l-25 -36c-8 -12 -13.667 -21.333 -17 -28
c-10 -16 -19.667 -32.333 -29 -49s-17.666 -33.834 -24.999 -51.501s-13.333 -35.667 -18 -54s-7 -37.166 -7 -56.499zM86.9961 367.003c0 -30 2.50098 -62.4971 7.50098 -97.4971s13.167 -67.5 24.5 -97.5s26.666 -55 45.999 -75s44 -30 74 -30
c3.33301 0 9.16602 -0.333008 17.499 -1s17 -0.666992 26 0s17.167 2.16699 24.5 4.5s11 6.5 11 12.5c0 0.666992 -0.166992 1.16699 -0.5 1.5s-0.5 1.16602 -0.5 2.49902v4l-49 440c-1.33301 7.33301 -3.66602 14.666 -6.99902 21.999s-7.33301 14.166 -12 20.499
s-10.167 11.666 -16.5 15.999s-13.166 6.5 -20.499 6.5c-24.667 0 -45 -8.66699 -61 -26s-28.833 -38 -38.5 -62s-16.334 -49.167 -20.001 -75.5s-5.5 -48.166 -5.5 -65.499zM359.997 150.006c0 -0.666992 0.163086 -1.33789 0.496094 -2.00488s0.5 -1.66699 0.5 -3
c0 -2 0.5 -5.16699 1.5 -9.5s2 -9.16602 3 -14.499s2.16699 -10.166 3.5 -14.499s2 -7.5 2 -9.5c0.666992 0 1.5 -0.333008 2.5 -1s1.83301 -1 2.5 -1c2.66699 0 6.16699 1.33301 10.5 4s8.83301 5.83398 13.5 9.50098s8.5 7.66699 11.5 12s4.5 8.16602 4.5 11.499
c0 2.66699 -0.166992 5.33398 -0.5 8.00098s-2.16602 4.33398 -5.49902 5.00098c-1.33301 0.666992 -4.16602 1.33398 -8.49902 2.00098s-8.66602 1 -12.999 1s-8.66602 0.333008 -12.999 1s-7.5 1 -9.5 1h-6z" />
    <glyph glyph-name="K" unicode="K" horiz-adv-x="653" 
d="M234 44c-1.33301 -4.66699 -5.33203 -9.16992 -11.999 -13.5029s-12.667 -6.5 -18 -6.5c-6.66699 0 -12.334 2.33301 -17.001 7s-7 10.334 -7 17.001c0 0.666992 0.166992 2.33398 0.5 5.00098s0.5 4.33398 0.5 5.00098l61 244h-8c-24.667 -10 -48 -19 -70 -27
s-45.667 -12 -71 -12c-10.667 0 -20.5 2.16699 -29.5 6.5s-16.667 10.333 -23 18s-11.333 16.334 -15 26.001s-5.5 19.834 -5.5 30.501c0 20.667 3.66699 40.834 11 60.501s17.833 37.167 31.5 52.5s29.667 27.666 48 36.999s38.5 14 60.5 14
c17.333 0 34.333 -2.16699 51 -6.5s32 -12.166 46 -23.499l9 20l44 282c1.33301 5.33301 5 10.833 11 16.5s11.333 8.5 16 8.5c12 0 20.5 -4.83301 25.5 -14.5s7.5 -19.834 7.5 -30.501v-4l-55 -318v-22c1.33301 0 2.5 -0.333008 3.5 -1s1.83301 -0.666992 2.5 0
c0.666992 0 2.16699 0.833008 4.5 2.5l8 5.5l9 6c3 2 5.16699 3.66699 6.5 5c0.666992 0 1.66699 0.5 3 1.5s2.33301 1.83301 3 2.5l125.5 95c41.667 32.667 80.834 68 117.501 106c4.66699 4.66699 11.667 14.167 21 28.5s19.5 29.166 30.5 44.499s21.5 29 31.5 41
s18.333 18 25 18s12.5 -2.33301 17.5 -7s7.5 -10.667 7.5 -18c0 -1.33301 -0.166992 -2.33301 -0.5 -3s-0.5 -1.33398 -0.5 -2.00098c0 -1.33301 -0.666992 -3.83301 -2 -7.5s-2.33301 -6.16699 -3 -7.5c-2 -4 -5.16699 -9.5 -9.5 -16.5l-13 -20.5l-11.5 -17.5
c-3.33301 -5 -5 -7.83301 -5 -8.5l-126 -127l-230 -170c-2.66699 -2.66699 -4.16699 -4.5 -4.5 -5.5s-0.5 -3.16699 -0.5 -6.5v-5c0 -1.33301 0.333008 -2.33301 1 -3l189 -285c1.33301 -6 3.66602 -11 6.99902 -15l10 -11.5c3.33301 -3.66699 6.16602 -7.66699 8.49902 -12
s3.5 -9.5 3.5 -15.5c0 -7.33301 -1.16699 -11.5 -3.5 -12.5s-7.16602 -1.5 -14.499 -1.5s-14.333 2 -21 6s-13 9.16699 -19 15.5s-11.167 13.333 -15.5 21s-7.5 14.5 -9.5 20.5l-174 217zM68.001 357.997c0 -12 2.66797 -22.8291 8.00098 -32.4961
s14.666 -14.5 27.999 -14.5s26.666 1.66699 39.999 5s26.333 7.66602 39 12.999s25 11.333 37 18l34 19c0 1.33301 0.166992 4.16602 0.5 8.49902s0.5 6.83301 0.5 7.5c0 11.333 -2.83301 21.5 -8.5 30.5s-12.667 16.667 -21 23s-17.666 11 -27.999 14s-20.5 4.5 -30.5 4.5
c-13.333 0 -26 -2.33301 -38 -7s-22.5 -11.334 -31.5 -20.001s-16.167 -18.834 -21.5 -30.501s-8 -24.5 -8 -38.5z" />
    <glyph glyph-name="L" unicode="L" horiz-adv-x="691" 
d="M405 49c-2 4 -5.00586 11.333 -9.00586 22l-13 34l-13.5 34c-4.33301 10.667 -7.5 18 -9.5 22c-1.33301 2.66699 -2.5 5.33398 -3.5 8.00098s-2.83301 4.66699 -5.5 6c-14.667 -14 -30.834 -28.667 -48.501 -44s-36.334 -29.166 -56.001 -41.499
s-40.167 -22.333 -61.5 -30s-42.666 -11.5 -63.999 -11.5c-23.333 0 -41.666 8.16699 -54.999 24.5s-23.666 36 -30.999 59s-12 46.5 -14 70.5s-3 43.667 -3 59c0 30.667 5 58.5 15 83.5s24.167 46.333 42.5 64s40.166 31.167 65.499 40.5s53.666 14 84.999 14
c22 0 41.333 -5.16699 58 -15.5s30.834 -23.666 42.501 -39.999s21.334 -34.166 29.001 -53.499s14.167 -38 19.5 -56c6 3.33301 13.167 11.166 21.5 23.499s17 26 26 41l26 45c8.33301 15 14.833 27.167 19.5 36.5c2 3.33301 6.5 11.833 13.5 25.5l23 44.5l23 45
c7 14 11.5 22.667 13.5 26c0.666992 1.33301 2.33398 3.83301 5.00098 7.5s4.33398 6.16699 5.00098 7.5c-0.666992 0 -1 0.333008 -1 1v2v3c-30.667 0 -60.167 2.33301 -88.5 7s-53.166 13.334 -74.499 26.001s-38.5 30 -51.5 52s-19.5 51 -19.5 87c0 2 0.166992 7 0.5 15
s0.5 13.333 0.5 16c2 6.66699 5.66699 12.167 11 16.5s11.333 7.16602 18 8.49902c6 1.33301 10.5 -2 13.5 -10s5.66699 -18.667 8 -32s5.33301 -27.666 9 -42.999s10 -29.833 19 -43.5s21 -25.5 36 -35.5s35.167 -15.667 60.5 -17c1.33301 0 5.83301 -0.166992 13.5 -0.5
s14.167 -0.5 19.5 -0.5h14.5c6.33301 0 12.666 0.166992 18.999 0.5s12.333 1.33301 18 3s9.83398 4.16699 12.501 7.5l20.5 24.5l29.5 36.5l29 36.5l20 24.5c11.333 11.333 24 22.666 38 33.999s28.667 21.333 44 30s31.333 15.667 48 21s33.667 8 51 8
c12 0 22.167 -2.33301 30.5 -7s14.833 -10.834 19.5 -18.501s7.83398 -16.334 9.50098 -26.001s2.5 -19.5 2.5 -29.5c0 -19.333 -4.83301 -36.333 -14.5 -51s-22.167 -27.667 -37.5 -39s-31.833 -21 -49.5 -29s-34.5 -14.667 -50.5 -20c-5.33301 -2 -15 -5 -29 -9
l-45.5 -13.5l-46 -13.5c-14.333 -4 -24.5 -6.33301 -30.5 -7c-4.66699 -4.66699 -9.83398 -10.334 -15.501 -17.001s-9.83398 -12.667 -12.501 -18l-123 -225c-0.666992 0 -1.5 -0.5 -2.5 -1.5l-2.5 -2.5c0 -1.33301 -1 -3.83301 -3 -7.5s-4 -7.66699 -6 -12l-6 -12.5
c-2 -4 -3 -6.33301 -3 -7c-2 -2.66699 -5.5 -7.83398 -10.5 -15.501s-10.5 -15.667 -16.5 -24l-16.5 -23.5c-5 -7.33301 -8.5 -12.333 -10.5 -15v-3v-2c4.66699 -17.333 8.83398 -32.166 12.501 -44.499l11 -35.5c3.66699 -11.333 8.16699 -23.333 13.5 -36
s12.333 -27.667 21 -45c2.66699 -4.66699 6.33398 -9 11.001 -13l14.5 -12c5 -4 9.33301 -8.16699 13 -12.5s5.5 -8.83301 5.5 -13.5c0 -12 -6 -18 -18 -18c-17.333 0 -32.666 5 -45.999 15s-24.333 21.667 -33 35zM67.9941 271c0 -8 0.666992 -21.1689 2 -39.502
s4.16602 -37 8.49902 -56s11 -35.833 20 -50.5s21.167 -22 36.5 -22c18 0 34.167 4 48.5 12s29.5 15.333 45.5 22l103 97v4c0 12 -2.83301 27.667 -8.5 47s-13.5 38.333 -23.5 57s-21.667 34.5 -35 47.5s-27.666 19.5 -42.999 19.5c-22 0 -42.5 -2.66699 -61.5 -8
s-35.167 -13.666 -48.5 -24.999s-24 -25.666 -32 -42.999s-12 -38 -12 -62zM859.994 823.998c-16 0 -31.9971 -3.33398 -47.9971 -10.001s-31.333 -15.334 -46 -26.001s-28.334 -22.334 -41.001 -35.001s-23.667 -24.667 -33 -36
c-2.66699 -2.66699 -5.83398 -6.66699 -9.50098 -12s-7.33398 -10.166 -11.001 -14.499s-6.83398 -8.33301 -9.50098 -12l-4 -5.5v-5h4c0.666992 0 5.33398 1.33301 14.001 4l30.5 9.5l35.5 11c12 3.66699 21.333 6.83398 28 9.50098c10 3.33301 21.5 7.83301 34.5 13.5
s25.333 12.5 37 20.5s21.5 17 29.5 27s12 21.333 12 34c0 10.667 -1.5 17.834 -4.5 21.501s-9.16699 5.5 -18.5 5.5z" />
    <glyph glyph-name="M" unicode="M" horiz-adv-x="1380" 
d="M594 68c2 7.33301 5.16699 20.498 9.5 39.498l13.5 60.5l13 60c4 18.667 7 32 9 40c2 10 3.16699 22.333 3.5 37l1 44c0.333008 14.667 0.333008 28.334 0 41.001s-0.5 23 -0.5 31v86c0 2 -0.666992 7.33301 -2 16l-4.5 29l-5 31
c-1.66699 10 -2.83398 17.333 -3.50098 22c-1.33301 7.33301 -3.16602 15.666 -5.49902 24.999s-5.5 18.333 -9.5 27s-9.33301 16 -16 22s-15 9 -25 9c-12 0 -27.333 -4.5 -46 -13.5s-37 -20.333 -55 -34s-34 -28.167 -48 -43.5s-22 -29.333 -24 -42l-28 -160v-5
c-1.33301 -6.66699 -3 -15.667 -5 -27s-4.33301 -22.333 -7 -33s-4.66699 -20.167 -6 -28.5s-2.33301 -13.166 -3 -14.499c-1.33301 -4 -3.16602 -10.667 -5.49902 -20s-5.16602 -19.333 -8.49902 -30l-9 -29.5c-2.66699 -9 -4.66699 -14.833 -6 -17.5
c-1.33301 -3.33301 -4.33301 -10.333 -9 -21l-15 -35l-15.5 -35.5c-5 -11 -7.83301 -17.833 -8.5 -20.5c-4 -9.33301 -7.5 -18.166 -10.5 -26.499s-6.66699 -15.666 -11 -21.999s-9.83301 -11.333 -16.5 -15s-15.667 -5.5 -27 -5.5c-2 0 -4.66699 0.166992 -8 0.5
s-5.33301 0.5 -6 0.5l-4 10c0 0.666992 -0.166992 2.33398 -0.5 5.00098s-0.5 5.83398 -0.5 9.50098v10v7.5c0 88.667 15 175.334 45 260.001v5c0 1.33301 1.5 6.66602 4.5 15.999l10.5 31.5l12.5 35.5c4.33301 12 8.16602 21.667 11.499 29
c2 5.33301 6.16699 14.5 12.5 27.5l20.5 41l21 41l14 27.5c3.33301 9.33301 5 19.666 5 30.999v32v8.5v11.5v11.5v7.5c-2 16 -11 24 -27 24h-3c-2.66699 -0.666992 -6.33398 -1.5 -11.001 -2.5s-7.33398 -1.5 -8.00098 -1.5l-185 -88
c-10.667 -5.33301 -18.334 -8.5 -23.001 -9.5s-11.667 -1.5 -21 -1.5c-12.667 0 -23.167 3 -31.5 9s-12.5 16.333 -12.5 31c0 6.66699 3.16699 12.5 9.5 17.5s12.5 7.5 18.5 7.5c7.33301 0 13.166 -1.83301 17.499 -5.5s9.5 -5.5 15.5 -5.5c23.333 0 45.333 5.5 66 16.5
s41.167 22.833 61.5 35.5s41.166 24.334 62.499 35.001s44.333 16 69 16c8.66699 0 16.167 -2.33301 22.5 -7s12 -10.667 17 -18s9 -14.833 12 -22.5s6.16699 -14.5 9.5 -20.5c-1.33301 -5.33301 -1.5 -10.5 -0.5 -15.5s2.5 -9.5 4.5 -13.5l37.5 32.5
c13 11 26.833 20.833 41.5 29.5s30 16 46 22s32 9 48 9c20.667 0 37.834 -5.5 51.501 -16.5s24.667 -25.167 33 -42.5s14.666 -36.833 18.999 -58.5s7.66602 -43.5 9.99902 -65.5s4.16602 -43.167 5.49902 -63.5s3 -37.5 5 -51.5c8.66699 19.333 19.5 40.333 32.5 63
s27.5 45 43.5 67s33.667 43 53 63s39.666 37.667 60.999 53s43.5 27.666 66.5 36.999s46.5 14 70.5 14c28.667 0 50.834 -6.33301 66.501 -19s26.834 -28.834 33.501 -48.501s10.5 -41.334 11.5 -65.001s1.5 -46.5 1.5 -68.5v-62l-35 -371v-7.5v-9.5v-18
c0 -5.33301 1.66699 -11.666 5 -18.999c2 0 6.5 -0.166992 13.5 -0.5s11.5 -0.5 13.5 -0.5c28 0 54.333 4.33301 79 13s49.667 19.667 75 33c4.66699 2.66699 8.33398 5.16699 11.001 7.5s5.33398 4.33301 8.00098 6s5.66699 3.16699 9 4.5s7.66602 2 12.999 2
c6 0 10.333 -0.666992 13 -2s4 -5.33301 4 -12c0 -8.66699 -4.5 -17.167 -13.5 -25.5s-20.667 -16.166 -35 -23.499s-30.166 -14.166 -47.499 -20.499s-34.166 -11.666 -50.499 -15.999s-31.166 -7.83301 -44.499 -10.5s-23 -4 -29 -4c-30.667 0 -52.167 6.16699 -64.5 18.5
s-18.5 34.5 -18.5 66.5v28l34 390v6.5c0 3.66699 0.166992 8 0.5 13s0.5 10 0.5 15v11.5c0 11.333 0.333008 24.666 1 39.999s-0.333008 30 -3 44s-8 26 -16 36s-20 15 -36 15c-6.66699 0 -14.667 -1.5 -24 -4.5s-18.666 -6.33301 -27.999 -10s-18.333 -7.5 -27 -11.5
s-15 -7 -19 -9c-32.667 -16 -61.667 -37.833 -87 -65.5s-47.666 -58.334 -66.999 -92.001s-35.5 -68.5 -48.5 -104.5s-23.5 -70.667 -31.5 -104c-0.666992 -7.33301 -2.16699 -19.833 -4.5 -37.5s-5 -36.667 -8 -57s-6 -39.333 -9 -57l-6.5 -37.5
c-2 -10.667 -3.83301 -21.834 -5.5 -33.501s-4.16699 -22.334 -7.5 -32.001s-8.33301 -17.5 -15 -23.5s-16.334 -9 -29.001 -9c-4.66699 0 -9.5 1 -14.5 3s-7.5 5.66699 -7.5 11v54zM258 199.998c-1.33301 0.666992 -2 -0.167969 -2 -2.50098s0.666992 -3.16602 2 -2.49902
s2 1.5 2 2.5s-0.666992 1.83301 -2 2.5zM311 394.996c-4.66699 -7.33301 -9.83105 -18.668 -15.498 -34.001s-10.834 -32 -15.501 -50s-8.66699 -35.667 -12 -53s-5 -31.666 -5 -42.999v-5c13.333 26.667 24.666 56.167 33.999 88.5s14 63.5 14 93.5v3z" />
    <glyph glyph-name="N" unicode="N" horiz-adv-x="1141" 
d="M726 53l-0.000976562 9.99805c0 4.66699 -0.166992 9.5 -0.5 14.5s-0.5 10 -0.5 15v10.5c0 46 3.5 92 10.5 138s12.167 92.667 15.5 140c2.66699 48 4.83398 96.167 6.50098 144.5s2.5 96.833 2.5 145.5c0 10 0.166992 22.667 0.5 38s-0.833984 30.166 -3.50098 44.499
s-7.83398 26.5 -15.501 36.5s-19.5 15 -35.5 15c-28.667 0 -54.167 -5.5 -76.5 -16.5s-42.5 -25.5 -60.5 -43.5s-34.167 -38.667 -48.5 -62s-27.5 -47 -39.5 -71l-34 -71c-10.667 -23.333 -21.667 -44.333 -33 -63l-29 -157v-4c-1.33301 -5.33301 -3 -12.833 -5 -22.5
l-6 -28.5c-2 -9.33301 -4 -17.666 -6 -24.999s-3 -11.333 -3 -12c-0.666992 -2.66699 -3.5 -11.167 -8.5 -25.5l-17 -47.5l-18.5 -52.5c-6 -17.667 -10.667 -30.834 -14 -39.501c-4.66699 -12 -10 -19.167 -16 -21.5s-14.667 -3.5 -26 -3.5c-5.33301 0 -10.333 0.5 -15 1.5
s-7 4.83301 -7 11.5c0 37.333 4.5 73.166 13.5 107.499s19.5 68 31.5 101l36 99.5c12 33.333 20.667 67.666 26 102.999l44 259v100l-195 -100c-17.333 -9.33301 -37.5 -16.666 -60.5 -21.999s-43.833 -8 -62.5 -8c-17.333 0 -30.333 2.83301 -39 8.5s-13 17.5 -13 35.5
c0 8.66699 2.66699 15 8 19s11.666 6 18.999 6c5.33301 0 9.5 -1 12.5 -3s5.83301 -4.33301 8.5 -7s5.5 -5 8.5 -7s7.16699 -3 12.5 -3c22 0 44.333 3.66699 67 11s44.834 16.5 66.501 27.5s42.834 22.667 63.501 35l60 34.5c9.33301 4.66699 18.5 9.83398 27.5 15.501
s18.833 8.5 29.5 8.5c10 0 18.333 -3.33301 25 -10s12 -14.834 16 -24.501s6.66699 -19.667 8 -30s2 -19.166 2 -26.499v-2c-0.666992 -2.66699 -1.66699 -9 -3 -19s-2.83301 -20.667 -4.5 -32s-3.16699 -22.166 -4.5 -32.499s-2 -16.5 -2 -18.5
c0 -0.666992 -0.166992 -3 -0.5 -7s-0.5 -6.66699 -0.5 -8s0.166992 -3.66602 0.5 -6.99902s0.5 -5.66602 0.5 -6.99902c13.333 25.333 29.333 50.5 48 75.5s39.5 47.5 62.5 67.5s48.333 36.167 76 48.5s57.167 18.5 88.5 18.5c23.333 0 42 -7.16699 56 -21.5
s24.5 -31.5 31.5 -51.5s11.5 -41.167 13.5 -63.5s3 -41.833 3 -58.5c0 -46.667 -2 -93.334 -6 -140.001s-8.5 -93.167 -13.5 -139.5s-9.5 -92.833 -13.5 -139.5s-6 -93 -6 -139c0 -5.33301 -0.166992 -13 -0.5 -23s1.83398 -18.333 6.50098 -25h2h3
c1.33301 0.666992 4.16602 1.5 8.49902 2.5l13 3c4.33301 1 8.66602 1.83301 12.999 2.5s7.5 1.33398 9.5 2.00098c4 2.66699 11.833 7.5 23.5 14.5l37 22l36.5 22c11.333 7 19.333 11.833 24 14.5c5.33301 4 12.333 10.667 21 20s17.834 20 27.501 32l29.5 37.5l27.5 36
c8.33301 11 15.833 19.833 22.5 26.5s11.334 10 14.001 10c6 0 10 -2.16699 12 -6.5s3 -8.83301 3 -13.5c0 -19.333 -6.5 -39.666 -19.5 -60.999s-30 -42.333 -51 -63s-44.5 -40.667 -70.5 -60s-52 -36.333 -78 -51s-50.833 -26.334 -74.5 -35.001s-43.167 -13 -58.5 -13
c-6 0 -11.333 2 -16 6s-8.5 8.66699 -11.5 14s-5.5 11 -7.5 17s-3.33301 11.333 -4 16z" />
    <glyph glyph-name="O" unicode="O" horiz-adv-x="658" 
d="M23 174v7.50195c0 3.66699 0.166992 7.83398 0.5 12.501s0.5 8.83398 0.5 12.501v8.5c8 61.333 17 117.666 27 168.999s23.667 99.833 41 145.5s40 89.5 68 131.5s64 85 108 129c8.66699 8 19.5 11.667 32.5 11s25.167 -1 36.5 -1c21.333 0 43.166 -3.66699 65.499 -11
s42.5 -17 60.5 -29h9c12 0 24 2.5 36 7.5l35.5 15.5c11.667 5.33301 23.334 10.333 35.001 15s23.5 7 35.5 7c6.66699 0 12.5 -1.5 17.5 -4.5s7.5 -8.5 7.5 -16.5c0 -4.66699 -5.5 -9.83398 -16.5 -15.501s-23.833 -11.334 -38.5 -17.001s-28.667 -10.667 -42 -15
s-22 -7.83301 -26 -10.5c12.667 -15.333 23.167 -30.333 31.5 -45s15 -30 20 -46s8.33301 -32.5 10 -49.5s2.5 -35.5 2.5 -55.5c0 -50.667 -6.33301 -99.167 -19 -145.5s-31.167 -89.833 -55.5 -130.5s-54 -78 -89 -112s-74.833 -63.667 -119.5 -89
c-25.333 -13.333 -52 -25.666 -80 -36.999s-56.667 -17 -86 -17c-22.667 0 -41 5.66699 -55 17s-25 25.666 -33 42.999s-13.333 36.166 -16 56.499s-4 39.833 -4 58.5zM82 185.002c0 -12 0.167969 -25.668 0.500977 -41.001s2.33301 -29.666 6 -42.999
s9.83398 -24.666 18.501 -33.999s21.667 -14 39 -14c21.333 0 42.666 4 63.999 12s41.833 18 61.5 30s38.5 25.333 56.5 40s35.333 28 52 40c24.667 22 46.5 47.333 65.5 76s36.167 57.334 51.5 86.001c12 27.333 20 55.5 24 84.5s6 58.167 6 87.5
c0 17.333 -0.166992 35.833 -0.5 55.5s-2.83301 38.5 -7.5 56.5s-12.167 34.5 -22.5 49.5s-24.5 26.833 -42.5 35.5c-4 0 -10.167 -0.666992 -18.5 -2s-17.166 -2.83301 -26.499 -4.5l-26 -4.5l-18 -3c-0.666992 0 -3.5 -0.666992 -8.5 -2s-10.333 -2.83301 -16 -4.5
l-15.5 -4.5c-4.66699 -1.33301 -7.66699 -2.33301 -9 -3h-2c-6.66699 0 -11.667 1.5 -15 4.5s-6.33301 6.16699 -9 9.5s-5.83398 6.5 -9.50098 9.5s-8.83398 4.5 -15.501 4.5h-2c-21.333 -16 -40 -36.333 -56 -61s-30.167 -50.667 -42.5 -78
s-22.666 -55.166 -30.999 -83.499s-15.5 -54.5 -21.5 -78.5c-2 -6.66699 -4.5 -18.834 -7.5 -36.501s-6 -36.334 -9 -56.001l-8.5 -56c-2.66699 -17.667 -4.33398 -29.834 -5.00098 -36.501v-35zM380.001 746.001c-2.66699 0 -4 -1.66699 -4 -5s1.33301 -5 4 -5
s4 1.66699 4 5s-1.33301 5 -4 5z" />
    <glyph glyph-name="P" unicode="P" 
d="M160 605l5.99902 10l24 111c2 8 5.5 12.667 10.5 14s10.167 2 15.5 2c13.333 0 21.333 -3 24 -9s4 -15.333 4 -28c0 -2.66699 -0.166992 -6.16699 -0.5 -10.5l-0.5 -6.5l-83 -317v-9c0 -4 0.833008 -7.33301 2.5 -10s5.83398 -3 12.501 -1c18 0.666992 37.5 1.5 58.5 2.5
s42.833 3 65.5 6s44.667 7.66699 66 14s40.333 15 57 26s30.167 25 40.5 42s15.5 37.833 15.5 62.5c0 31.333 -8.5 62.666 -25.5 93.999s-38.5 60 -64.5 86s-55 47 -87 63s-63.333 24 -94 24c-15.333 0 -28.833 -3.16699 -40.5 -9.5s-22.167 -13 -31.5 -20l-27 -20
c-8.66699 -6.33301 -17 -9.5 -25 -9.5c-13.333 0 -20 6.66699 -20 20c0 0.666992 0.166992 1.33398 0.5 2.00098s0.5 1.33398 0.5 2.00098c5.33301 14 13 26.333 23 37s21.167 20 33.5 28s25.666 13.833 39.999 17.5s28.5 5.5 42.5 5.5h30.5
c9.66699 0 19.834 -1.66699 30.501 -5c32.667 -14.667 65.167 -31.834 97.5 -51.501s61.5 -42.334 87.5 -68.001s47 -55 63 -88s24 -69.167 24 -108.5c0 -31.333 -6.33301 -57.833 -19 -79.5s-29.667 -39.834 -51 -54.501s-45.5 -26 -72.5 -34s-54.833 -13.833 -83.5 -17.5
s-56.834 -5.66699 -84.501 -6s-52.5 -0.166016 -74.5 0.500977l-4 -5l-74 -283c-2 -7.33301 -6.33301 -13.166 -13 -17.499s-13.667 -6.5 -21 -6.5c-4.66699 0 -8.33398 1.66699 -11.001 5s-4.66699 7 -6 11s-2.16602 8.33301 -2.49902 13s-0.166016 8 0.500977 10z" />
    <glyph glyph-name="Q" unicode="Q" horiz-adv-x="634" 
d="M39 147c-0.666992 8.66699 -1.83496 24.833 -3.50195 48.5s-3.16699 48.667 -4.5 75s-2.66602 51.333 -3.99902 75s-2.33301 40.167 -3 49.5v8c0 4.66699 -0.166992 10.167 -0.5 16.5s-0.5 12.666 -0.5 18.999v15.5c0 36 4.5 74 13.5 114s23.5 76.5 43.5 109.5
s45.667 60.167 77 81.5s69.333 32 114 32c10 0 20 -0.666992 30 -2s20 -4.33301 30 -9c8 2.66699 15 4.66699 21 6s11.667 2.33301 17 3s11 1.16699 17 1.5s12.667 0.5 20 0.5c38 0 69.5 -8.83301 94.5 -26.5s45.333 -40.334 61 -68.001s26.834 -58.5 33.501 -92.5
s10 -67 10 -99c0 -58 -9.33301 -112.5 -28 -163.5s-47 -98.167 -85 -141.5c0 -0.666992 -0.166992 -1.16699 -0.5 -1.5s-0.5 -0.833008 -0.5 -1.5l1 -2c1.33301 -1.33301 3.83301 -4.66602 7.5 -9.99902s6.16699 -8.66602 7.5 -9.99902
c1.33301 -2 4.83301 -5.83301 10.5 -11.5l17.5 -18c6 -6.33301 12 -12.166 18 -17.499s10 -9 12 -11v-3c0 -6 -2.33301 -10.333 -7 -13s-9.66699 -4 -15 -4s-10.833 1.5 -16.5 4.5s-11.167 6.5 -16.5 10.5s-10.333 8.16699 -15 12.5l-13 12.5
c-2 1.33301 -4.66699 3.33301 -8 6l-10 8l-10 10l-10 -5l-65.5 -53.5c-22.333 -18.333 -45.666 -35.166 -69.999 -50.499s-49.666 -28 -75.999 -38s-54.5 -15 -84.5 -15c-20.667 0 -37.334 4.66699 -50.001 14s-22.834 21.166 -30.501 35.499s-13.5 30.166 -17.5 47.499
s-7.66699 34.333 -11 51zM76.999 462.999c0 -12 -0.166992 -30.334 -0.5 -55.001s-0.333008 -52.5 0 -83.5s2 -62.667 5 -95s7.66699 -62 14 -89s15.166 -49 26.499 -66s25.666 -25.5 42.999 -25.5c19.333 0 39 3.83301 59 11.5s37.667 16.5 53 26.5
c4.66699 4 13 10.667 25 20l38.5 29.5l39 29.5l25.5 19l5 5c2 2 3.33301 3.66699 4 5l1 2l-1 2v1c0 1.33301 -0.666992 3 -2 5s-2.33301 3.66699 -3 5l-72 97c-4 4.66699 -6.83301 10.167 -8.5 16.5s-2.5 12.5 -2.5 18.5c0 4.66699 1 9 3 13s5.66699 6 11 6
c7.33301 0 14.666 -3 21.999 -9s14.5 -13.5 21.5 -22.5s13.833 -19 20.5 -30l19 -30c6 -9 11.667 -16.5 17 -22.5s10.333 -9 15 -9h3c14.667 12 27 26 37 42s19 32.833 27 50.5s14.667 35.834 20 54.501s9.66602 36.334 12.999 53.001
c-1.33301 14 -0.666016 27.667 2.00098 41s4 27 4 41c0 22 -2.66699 45.667 -8 71s-13.666 49.333 -24.999 72s-26.166 41.5 -44.499 56.5s-40.5 22.5 -66.5 22.5c-1.33301 0 -4.5 -0.166992 -9.5 -0.5s-7.83301 -0.5 -8.5 -0.5c0.666992 -2 1.83398 -4.83301 3.50098 -8.5
s3.33398 -7.66699 5.00098 -12s3.16699 -8.66602 4.5 -12.999s2 -7.83301 2 -10.5c0 -4.66699 -1.33301 -10.334 -4 -17.001s-6.16699 -13 -10.5 -19s-9 -11.167 -14 -15.5s-9.83301 -6.5 -14.5 -6.5c-6.66699 0 -11 1 -13 3s-3 5.33301 -3 10
c0 8.66699 2.66699 16.167 8 22.5s8 13.166 8 20.499c0 5.33301 -2.33301 10 -7 14s-9.83398 7.33301 -15.501 10s-11.667 4.66699 -18 6s-11.166 2 -14.499 2c-12 0 -22 -3 -30 -9s-17.333 -11.333 -28 -16l-54 -53c-3.33301 -4 -8.33301 -6 -15 -6
c-9.33301 0 -14 5 -14 15c0 6 1.66699 12.333 5 19s7.66602 13.167 12.999 19.5s10.833 12.166 16.5 17.499s10.5 9.33301 14.5 12v6c-30 -4.66699 -54.667 -16.667 -74 -36s-34.333 -42.166 -45 -68.499s-18 -54.333 -22 -84s-6 -56.5 -6 -80.5z" />
    <glyph glyph-name="R" unicode="R" horiz-adv-x="624" 
d="M107 24c5.33301 13.333 10.5029 28.167 15.5029 44.5s9.66699 33 14 50s7.83301 33.667 10.5 50s4 31.833 4 46.5v9c-10.667 1.33301 -21.167 3.33301 -31.5 6s-19.166 6.5 -26.499 11.5s-13.5 11.667 -18.5 20s-7.5 18.5 -7.5 30.5c0 13.333 2 24.166 6 32.499
s14 12.5 30 12.5c11.333 0 22.166 -2.5 32.499 -7.5s20.166 -10.833 29.499 -17.5l5 9l54 205c-1.33301 17.333 -0.5 34.833 2.5 52.5s9.83301 32.834 20.5 45.501c-0.666992 0 -2.66699 0.166992 -6 0.5s-5.66602 0.5 -6.99902 0.5c-10.667 0 -21.334 -1.5 -32.001 -4.5
s-20.834 -6.66699 -30.501 -11s-19.5 -8.33301 -29.5 -12s-20 -6.5 -30 -8.5c-1.33301 0 -3.83301 0.666992 -7.5 2s-6.16699 3 -7.5 5c-2 -0.666992 -5.33301 -1.66699 -10 -3s-9.66699 -2.33301 -15 -3s-10.333 -1.5 -15 -2.5s-7.66699 -1.83301 -9 -2.5h-5
c-13.333 0 -20 6.66699 -20 20c0 6.66699 4.33301 12 13 16s19 7.83301 31 11.5s24 7 36 10s21 6.5 27 10.5c15.333 5.33301 28.666 9.33301 39.999 12s22.333 4.66699 33 6s21.167 2.16602 31.5 2.49902s22.5 0.5 36.5 0.5c26.667 0 53.5 -3.16699 80.5 -9.5
s51.333 -16.5 73 -30.5s39.334 -32.333 53.001 -55s20.5 -49.667 20.5 -81c0 -29.333 -6.83301 -55.833 -20.5 -79.5s-30.667 -44.834 -51 -63.501s-42.333 -35.167 -66 -49.5s-45.667 -26.333 -66 -36s-37.333 -17.334 -51 -23.001s-20.5 -8.83398 -20.5 -9.50098v-2
c0 -0.666992 0.333008 -1 1 -1c14 -26 28.5 -49.167 43.5 -69.5s31.667 -37.666 50 -51.999s39.166 -25.333 62.499 -33s50.333 -11.5 81 -11.5c10 0 20 1.33301 30 4s19.833 5.5 29.5 8.5l28.5 8.5c9.33301 2.66699 19 4 29 4c4 0 8.5 -1.16699 13.5 -3.5
s7.5 -6.16602 7.5 -11.499c0 -10.667 -7.5 -19.667 -22.5 -27s-31.833 -13.333 -50.5 -18s-37 -8 -55 -10s-29.667 -3 -35 -3c-48 0 -92.5 11 -133.5 33s-73.833 54.667 -98.5 98h-5c-1.33301 -8 -3.16602 -20.167 -5.49902 -36.5s-6 -32.666 -11 -48.999
s-11.333 -30.666 -19 -42.999s-16.834 -18.5 -27.501 -18.5c-8 0 -14.833 1 -20.5 3s-8.5 7.66699 -8.5 17zM229.003 292.001h5.00195c1.33301 0.666992 3.83301 1.66699 7.5 3s5.5 2.33301 5.5 3c22 10 44.667 21.167 68 33.5s44.666 26.833 63.999 43.5
s35.166 35.5 47.499 56.5s18.5 45.5 18.5 73.5c0 18 -4.83301 34.333 -14.5 49s-22 27.167 -37 37.5s-31.167 18.333 -48.5 24s-34 8.5 -50 8.5h-13c6.66699 -5.33301 10.167 -11 10.5 -17s0.5 -12.667 0.5 -20c0 -2 -0.166992 -5.16699 -0.5 -9.5l-0.5 -6.5l-63 -254v-25z
" />
    <glyph glyph-name="S" unicode="S" horiz-adv-x="751" 
d="M248 166l-194.999 -127.001h-6c-6.66699 0 -13.167 1.66699 -19.5 5s-9.5 9 -9.5 17c0 5.33301 1.5 10.166 4.5 14.499s6.83301 8.16602 11.5 11.499c5.33301 4 15 10 29 18s28.667 16.833 44 26.5s30.166 18.5 44.499 26.5s24.166 13.667 29.499 17
c2.66699 2.66699 6.66699 5.83398 12 9.50098s10.166 7.33398 14.499 11.001l11.5 9.5c3.33301 2.66699 5 4.33398 5 5.00098l-77 156c-3.33301 4.66699 -5.16602 8.5 -5.49902 11.5s-0.5 7.16699 -0.5 12.5c0 20 9.66699 30 29 30c2.66699 0 8.83398 -1.83301 18.501 -5.5
s21.5 -8.66699 35.5 -15l44 -20.5l42 -20l32 -15.5l13 -6.5l89 92c2 8 7.83301 17.667 17.5 29l30.5 36c10.667 12.667 20 25.5 28 38.5s12 24.833 12 35.5v3l-69 161c-6.66699 15.333 -10.834 31.833 -12.501 49.5s-2.5 35.167 -2.5 52.5c0 14.667 2.33301 29.5 7 44.5
s11.5 28.5 20.5 40.5s19.833 21.833 32.5 29.5s27.667 11.5 45 11.5c18 0 32.833 -5.16699 44.5 -15.5s21 -23.166 28 -38.499s11.833 -31.5 14.5 -48.5s4 -32.5 4 -46.5c0 -40 -4.5 -78.167 -13.5 -114.5s-21.167 -73.5 -36.5 -111.5v-14l47 -89
c16 -30.667 30.333 -62.5 43 -95.5s23 -66 31 -99s12 -66.167 12 -99.5c0 -26 -4.16699 -50.167 -12.5 -72.5s-20.166 -41.833 -35.499 -58.5s-33.833 -29.667 -55.5 -39s-45.834 -14 -72.501 -14c-30 0 -58.5 4.5 -85.5 13.5s-53 21 -78 36s-48.667 32.167 -71 51.5
s-43.166 39.666 -62.499 60.999h-6zM298.001 199.999c0 -0.666992 1.83691 -2.99902 5.50391 -6.99902s8 -8.5 13 -13.5l15.5 -15.5c5.33301 -5.33301 10 -9.66602 14 -12.999c2 -2 5.5 -4.83301 10.5 -8.5s10 -7.66699 15 -12l14 -12
c4.33301 -3.66699 7.16602 -5.83398 8.49902 -6.50098c4 -2 10 -5.33301 18 -10l24 -14l23 -13c7.33301 -4 11.666 -6.33301 12.999 -7c15.333 -6.66699 29.5 -10.834 42.5 -12.501s26.167 -2.5 39.5 -2.5c20 0 37.167 3.83301 51.5 11.5s26.166 18 35.499 31
s16.166 28 20.499 45s6.5 34.167 6.5 51.5c0 18.667 -1.5 38 -4.5 58s-7.83301 39 -14.5 57l-87 209l-79 -111l-185 -201v-4zM220.005 332c0 -1.33301 0.500977 -3.83398 1.50098 -7.50098s1.83301 -6.16699 2.5 -7.5l10.5 -19c4.33301 -8 8.66602 -15.5 12.999 -22.5
s8 -13.333 11 -19s4.83301 -8.5 5.5 -8.5h4c2 0 6 2.83301 12 8.5l19 18c6.66699 6.33301 12.667 12.333 18 18s8.33301 8.83398 9 9.50098l-5 5l-87 25h-14zM501.006 834.999c0 -37.333 5.66895 -71.166 17.002 -101.499s25.666 -61.833 42.999 -94.5
c3.33301 2 6.33301 6.16699 9 12.5s5 13.333 7 21s3.66699 14.834 5 21.501s2.33301 10.667 3 12c0 1.33301 0.5 4.66602 1.5 9.99902s1.83301 11.5 2.5 18.5s1.5 13.833 2.5 20.5s1.83301 11.667 2.5 15v3c0 2.66699 -0.166992 11 -0.5 25s-1.5 29.167 -3.5 45.5
s-5.66699 31 -11 44s-13.333 19.5 -24 19.5s-19.667 -2 -27 -6s-12.833 -9.33301 -16.5 -16s-6.33398 -14.334 -8.00098 -23.001s-2.5 -17.667 -2.5 -27z" />
    <glyph glyph-name="T" unicode="T" horiz-adv-x="526" 
d="M238 112l49.001 584.996l6 9l-254 20c-6 0.666992 -11.833 2.83398 -17.5 6.50098s-8.5 8.83398 -8.5 15.501c0 4.66699 0.833008 8.16699 2.5 10.5s4.83398 4.83301 9.50098 7.5h43c89.333 0 178.833 -1.83301 268.5 -5.5s179.167 -6.83398 268.5 -9.50098
c4 -3.33301 7.5 -7.16602 10.5 -11.499s4.5 -8.83301 4.5 -13.5s-2.83301 -9.83398 -8.5 -15.501s-10.834 -8.5 -15.501 -8.5h-257c0 -35.333 -2.33301 -69.166 -7 -101.499s-8.33398 -66.5 -11.001 -102.5c-0.666992 -5.33301 -1.33398 -16.5 -2.00098 -33.5
s-1.66699 -36.667 -3 -59s-2.66602 -46.166 -3.99902 -71.499s-2.66602 -49.166 -3.99902 -71.499s-2.66602 -42 -3.99902 -59s-2 -28.167 -2 -33.5c-0.666992 -5.33301 -0.5 -13.333 0.5 -24s1.83301 -22 2.5 -34s0.5 -24.5 -0.5 -37.5s-3 -25 -6 -36
s-7.83301 -19.667 -14.5 -26s-15.334 -9.5 -26.001 -9.5c-1.33301 0 -3.83301 0.166992 -7.5 0.5s-5.83398 0.5 -6.50098 0.5l-6 10v98z" />
    <glyph glyph-name="U" unicode="U" horiz-adv-x="1081" 
d="M341 68c0 15.333 1.00293 30.8301 3.00293 46.4971s4.16699 31.167 6.5 46.5s4.16602 30.833 5.49902 46.5s1 31.167 -1 46.5l27 191l-84 -113l-215 -211l-17.5 -27c-5 -8 -13.833 -12 -26.5 -12c-8.66699 0 -14 2 -16 6s-3 10 -3 18c0 10.667 1.83301 19.5 5.5 26.5
s9.83398 14.833 18.501 23.5l224 215l83 112l9.5 19c3.66699 7.33301 7.83398 14.5 12.501 21.5l13 19l9 12.5c11.333 39.333 25 78.833 41 118.5s35 76.834 57 111.501c4 7.33301 11 11 21 11c6 0 12.167 -1.66699 18.5 -5s9.5 -8.33301 9.5 -15
c0 -0.666992 -0.166992 -1.66699 -0.5 -3s-0.5 -2.33301 -0.5 -3s-0.666992 -3.66699 -2 -9s-2.33301 -8.66602 -3 -9.99902c-8.66699 -17.333 -17.834 -37.166 -27.501 -59.499s-18.834 -45.5 -27.501 -69.5s-16.334 -48 -23.001 -72s-11 -46.333 -13 -67l-45 -362v-63
c6 2.66699 16 7.83398 30 15.501l44.5 25l43.5 25.5l28 17c4.66699 4 13.334 10.667 26.001 20l40 30.5l39.5 31.5c12.333 10 21.5 17 27.5 21c1.33301 2 5.66602 6.5 12.999 13.5s15.333 15.333 24 25l25.5 28l19.5 21.5c7.33301 8 15 17 23 27s15.5 20.833 22.5 32.5
s13.333 23.167 19 34.5s10.167 22 13.5 32l92 342c0.666992 3.33301 2.16699 8 4.5 14s5 12 8 18s6.66699 11 11 15s9.5 6 15.5 6c8.66699 0 15.167 -3.83301 19.5 -11.5s6.5 -14.834 6.5 -21.501c0 -2 -0.333008 -4.83301 -1 -8.5s-1 -5.83398 -1 -6.50098l-34 -176v-5
l-68 -190l-29 -249c-0.666992 -1.33301 -1 -3 -1 -5v-9c0 -14 0.333008 -27.333 1 -40s3 -23.5 7 -32.5s10.167 -16.5 18.5 -22.5s20.166 -9 35.499 -9c50 34.667 89.833 58.167 119.5 70.5s50.667 17.333 63 15s16.333 -9.66602 12 -21.999s-15.5 -26.166 -33.5 -41.499
s-42.167 -30.333 -72.5 -45s-65.166 -25 -104.499 -31c-20.667 0 -37.667 4.33301 -51 13s-23.833 20 -31.5 34s-13 29.833 -16 47.5s-4.5 35.5 -4.5 53.5c0 24.667 1.5 49 4.5 73s4.5 48.333 4.5 73v14l-2 -1.5c-1.33301 -1 -2.33301 -1.83301 -3 -2.5l-33.5 -41.5
c-10.333 -13 -21.333 -25.667 -33 -38s-24.167 -24.5 -37.5 -36.5s-29 -23.667 -47 -35l-234 -152c-6.66699 -4.66699 -14.667 -8.33398 -24 -11.001s-18.333 -4 -27 -4c-7.33301 0 -13.833 2.33301 -19.5 7s-9.83398 10.667 -12.501 18v44zM819.003 336.997
c-2.66699 0 -4 -1.83301 -4 -5.5s1.33301 -5.5 4 -5.5s4 1.83301 4 5.5s-1.33301 5.5 -4 5.5z" />
    <glyph glyph-name="V" unicode="V" horiz-adv-x="452" 
d="M98 326l-78.0029 371.001c0 0.666992 -0.333008 2.5 -1 5.5s-1 5.16699 -1 6.5c0 8 2.33301 14.5 7 19.5s10.667 7.5 18 7.5c4 0 9 -1.33301 15 -4s9.33301 -6 10 -10l35 -107l67 -381l5 -10c8 13.333 15.167 28 21.5 44s12.333 32.167 18 48.5s11 32.666 16 48.999
s10.833 30.833 17.5 43.5c2 3.33301 7 12.666 15 27.999l28 51.5l31 57c10 19 18 33.5 24 43.5c6 12 15 26.333 27 43s25 32.667 39 48s28.167 28.5 42.5 39.5s27.166 16.5 38.499 16.5c4.66699 0 9.83398 -1.83301 15.501 -5.5s8.5 -8.16699 8.5 -13.5
c0 -1.33301 -0.166992 -4.66602 -0.5 -9.99902s-1.16602 -11 -2.49902 -17s-3.16602 -11.167 -5.49902 -15.5s-5.83301 -6.5 -10.5 -6.5c-1.33301 0 -3.83301 0.5 -7.5 1.5s-6.16699 2.16699 -7.5 3.5c-21.333 -18 -40.833 -37.833 -58.5 -59.5
s-33.834 -44.167 -48.501 -67.5s-28.5 -47.5 -41.5 -72.5s-25.167 -49.5 -36.5 -73.5c-1.33301 -2 -3.66602 -7.33301 -6.99902 -16l-11 -28c-4 -10 -7.5 -19.333 -10.5 -28l-5.5 -16c-0.666992 -1.33301 -1.66699 -3 -3 -5s-2.33301 -3.66699 -3 -5l-58 -190l-10 -98
c0 -3.33301 -1.66699 -6 -5 -8s-7.33301 -3.5 -12 -4.5s-9 -1.66699 -13 -2s-7.33301 -0.5 -10 -0.5c-3.33301 0 -7.16602 0.5 -11.499 1.5s-6.83301 4.16699 -7.5 9.5l-33 307v9z" />
    <glyph glyph-name="W" unicode="W" horiz-adv-x="846" 
d="M390 273c-32.667 -41.333 -68.998 -80.333 -108.998 -117s-80.333 -71 -121 -103c-2 -1.33301 -5.83301 -3.16602 -11.5 -5.49902s-9.5 -3.5 -11.5 -3.5c-6.66699 0 -13.334 1.66699 -20.001 5s-10 9 -10 17v2l63 293v10c3.33301 16.667 6.66602 31.667 9.99902 45
s6.16602 25.833 8.49902 37.5s4 23.5 5 35.5s1.5 24.667 1.5 38c0 8 -0.166992 15.5 -0.5 22.5s-1.83301 14.167 -4.5 21.5h-7.5h-7.5c-14 0 -27 -4.33301 -39 -13s-23.333 -18.167 -34 -28.5l-30 -28.5c-9.33301 -8.66699 -19 -13 -29 -13
c-7.33301 0 -13.333 2.66699 -18 8s-7 11.666 -7 18.999c0 10.667 6.66699 22.667 20 36s29.333 25.833 48 37.5s37.667 21.334 57 29.001s34.666 11.5 45.999 11.5c13.333 0 24.166 -2.83301 32.499 -8.5s14.833 -12.834 19.5 -21.501s8 -18.5 10 -29.5s3 -22.167 3 -33.5
v-19l-79 -380h6c0.666992 0 3.83398 2.16699 9.50098 6.5s12.167 9.66602 19.5 15.999l23.5 19.5l20.5 16l35 34.5c10 10.333 19.333 20.833 28 31.5s17.167 22.334 25.5 35.001l28.5 45c0.666992 2 2.66699 6.16699 6 12.5l11 21l12.5 23
c4.33301 7.66699 7.16602 13.5 8.49902 17.5c4.66699 7.33301 8.66699 14.166 12 20.499s10 9.5 20 9.5c8.66699 0 15.334 -3 20.001 -9s7 -13 7 -21c0 -28.667 -2.5 -57.334 -7.5 -86.001s-7.5 -57.667 -7.5 -87v-14.5c0 -6.33301 0.166992 -12.5 0.5 -18.5
s0.5 -11.333 0.5 -16v-8c0 -0.666992 0.333008 -4 1 -10s1.5 -12.167 2.5 -18.5l3 -19.5c1 -6.66699 1.83301 -12 2.5 -16c0 -0.666992 0.666992 -3.83398 2 -9.50098s3 -11.667 5 -18s4.5 -12.333 7.5 -18s6.5 -8.5 10.5 -8.5h2c0.666992 0 1.33398 0.333008 2.00098 1
c10 2.66699 23.333 11 40 25s34.334 31.333 53.001 52s36.834 43 54.501 67s32.167 47.667 43.5 71c0.666992 1.33301 3.16699 9.66602 7.5 24.999l15.5 53c6 20 11.833 40.5 17.5 61.5s9.83398 37.5 12.501 49.5c0.666992 2 1.66699 7 3 15s2.66602 16.5 3.99902 25.5
s2.83301 18 4.5 27s2.83398 16.167 3.50098 21.5v10v10c0 2.66699 -2 5.33398 -6 8.00098v30c0 7.33301 0.166992 15.5 0.5 24.5s1.66602 17.5 3.99902 25.5s6.16602 14.667 11.499 20s13.333 8 24 8c10 0 17.167 -3.83301 21.5 -11.5s6.83301 -16.667 7.5 -27
s0.666992 -20.666 0 -30.999s-1 -17.833 -1 -22.5c24.667 0 49.667 0.166992 75 0.5s50.333 1.83301 75 4.5s49 7.33398 73 14.001s47.667 16.334 71 29.001h29c0 -12.667 -6.5 -24 -19.5 -34s-29.667 -19.167 -50 -27.5s-43.166 -15.5 -68.499 -21.5s-50.333 -11 -75 -15
s-47.5 -6.83301 -68.5 -8.5s-37.5 -1.83398 -49.5 -0.500977l-5 -10l-55 -229c-10.667 -26 -21.834 -50.833 -33.501 -74.5s-26.167 -47.167 -43.5 -70.5s-38.5 -47.166 -63.5 -71.499s-56.167 -49.833 -93.5 -76.5c-9.33301 -10 -22 -15 -38 -15c-10 0 -19 4.33301 -27 13
s-15 19 -21 31s-10.667 24.5 -14 37.5s-5.33301 23.5 -6 31.5z" />
    <glyph glyph-name="X" unicode="X" horiz-adv-x="766" 
d="M20 24c0.666992 2 1.33887 4.83105 2.00586 8.49805s1.33398 5.83398 2.00098 6.50098l191 244c0.666992 0 1.5 0.5 2.5 1.5l2.5 2.5c0 1.33301 1.83301 4.16602 5.5 8.49902s7.33398 9.16602 11.001 14.499s7.16699 10 10.5 14s5.66602 6.66699 6.99902 8
c2.66699 3.33301 8.16699 9.16602 16.5 17.499l26.5 26.5l26.5 26.5c8.33301 8.33301 14.166 13.833 17.499 16.5l10 15v102c0 2 -1.33301 5 -4 9s-5.33398 6 -8.00098 6h-2c-31.333 -8 -63.5 -18.667 -96.5 -32l-89.5 -36c-14.667 -4 -26.5 -6.83301 -35.5 -8.5
s-19.833 -2.5 -32.5 -2.5c-10 0 -17.5 1.5 -22.5 4.5s-7.5 10.167 -7.5 21.5c0 6.66699 2 12.167 6 16.5s9 7.5 15 9.5s12.333 3 19 3s13 -0.333008 19 -1c8 3.33301 22 8.5 42 15.5l63 22l63 22l41 14.5c1.33301 0.666992 4.66602 1.66699 9.99902 3s8.66602 2 9.99902 2h5
c15.333 0 27.5 -4.16699 36.5 -12.5s15.667 -18.666 20 -30.999s6.66602 -25.666 6.99902 -39.999s0.166016 -27.166 -0.500977 -38.499l234 205c2 0.666992 5.5 2.33398 10.5 5.00098s7.83301 4 8.5 4c8.66699 0 15.167 -2.33301 19.5 -7s6.5 -10.334 6.5 -17.001v-10
c0 -3.33301 -1.66699 -6.66602 -5 -9.99902l-278 -248v-5c0 -19.333 0.5 -41.5 1.5 -66.5s3 -50.167 6 -75.5s7.5 -50 13.5 -74s14 -45 24 -63s22.5 -32.833 37.5 -44.5s33.5 -17.5 55.5 -17.5c31.333 0 58.666 3.83301 81.999 11.5s43.333 16.834 60 27.501
s30.5 22.667 41.5 36s20.5 25.333 28.5 36l20 27.5c5.33301 7.66699 11 11.5 17 11.5c1.33301 0 3.33301 -0.166992 6 -0.5s4.66699 -0.5 6 -0.5c0.666992 -1.33301 1.66699 -3.83301 3 -7.5s2 -6.16699 2 -7.5l-1.5 -4.5c-1 -3 -1.83301 -6 -2.5 -9s-1.66699 -6 -3 -9
s-2.33301 -4.83301 -3 -5.5c-14.667 -32 -29.667 -58.167 -45 -78.5s-33 -36.333 -53 -48s-43 -20 -69 -25s-57.333 -7.5 -94 -7.5c-22.667 0 -42.667 5.66699 -60 17s-32.666 26 -45.999 44s-24.833 39 -34.5 63s-17.667 48.833 -24 74.5s-11.833 51.167 -16.5 76.5
s-8.33398 48.666 -11.001 69.999l-63 -64l-191 -234c-4 -2.66699 -7.83301 -7 -11.5 -13s-7.66699 -12 -12 -18s-8.83301 -11.167 -13.5 -15.5s-10 -6.5 -16 -6.5c-12.667 0 -19 6.66699 -19 20v4z" />
    <glyph glyph-name="Y" unicode="Y" horiz-adv-x="1015" 
d="M375 -386c0 9.33301 0.324219 17.835 0.991211 25.502s1.5 15 2.5 22s2.33301 14.833 4 23.5s4.16699 19.334 7.5 32.001c6.66699 11.333 12.334 22.833 17.001 34.5l13.5 34.5c4.33301 11.333 9 22.666 14 33.999s11.5 22.666 19.5 33.999
c26 38.667 54.833 74.834 86.5 108.501s64.5 65.834 98.5 96.501l41 312l-139 -317c-3.33301 -7.33301 -8.16602 -16.5 -14.499 -27.5s-13.666 -21.833 -21.999 -32.5s-17.333 -19.667 -27 -27s-19.5 -11 -29.5 -11c-8 0 -14.667 4 -20 12s-9.33301 17.5 -12 28.5
s-4.5 22 -5.5 33s-1.5 19.167 -1.5 24.5c0 1.33301 0.166992 3.83301 0.5 7.5s0.5 5.83398 0.5 6.50098c0.666992 11.333 2.16699 26.666 4.5 45.999s4.5 38.333 6.5 57s3.66699 35 5 49s2.33301 22 3 24l103 453v22c0 10.667 -0.5 21.334 -1.5 32.001
s-3.33301 19.834 -7 27.501s-9.16699 14 -16.5 19s-18 7.5 -32 7.5c-11.333 0 -25.166 -3.16699 -41.499 -9.5s-29.166 -12.833 -38.499 -19.5c-5.33301 -4 -13.333 -9.66699 -24 -17s-21 -15 -31 -23l-27 -21.5c-8 -6.33301 -13 -10.5 -15 -12.5l-225 -219
c-4.66699 -4.66699 -9.66699 -7.66699 -15 -9s-11 -2 -17 -2c-8 0 -13.5 1.83301 -16.5 5.5s-4.5 9.83398 -4.5 18.501c0 6 0.333008 13.5 1 22.5s2.5 17.667 5.5 26s6.83301 15.666 11.5 21.999s10.667 9.5 18 9.5c3.33301 0 6.16602 -1 8.49902 -3s4.33301 -4.33301 6 -7
l4.5 -7.5c1.33301 -2.33301 3 -3.5 5 -3.5h2c0.666992 0 1 0.333008 1 1l215 205c12 11.333 25.667 23 41 35s31.5 22.5 48.5 31.5s34.667 16.5 53 22.5s36.5 9 54.5 9c14.667 0 28.334 -3.83301 41.001 -11.5s23.5 -17.334 32.5 -29.001s15.5 -24.667 19.5 -39
s4.33301 -28.833 1 -43.5l-117 -579c-1.33301 -10.667 -2.33301 -19.834 -3 -27.501s-1 -15.167 -1 -22.5s0.333008 -15 1 -23s1 -17.667 1 -29c2.66699 0 3.83398 -0.5 3.50098 -1.5s1.16699 0.833008 4.5 5.5c2 4 5 8.83301 9 14.5l11.5 17l9.5 15l4 6.5l234 537
c3.33301 6 6.5 9.16699 9.5 9.5s6.83301 0.5 11.5 0.5c6.66699 0 13.834 -1.5 21.501 -4.5s11.5 -8.83301 11.5 -17.5v-8l-83 -385c-4.66699 -18.667 -7.66699 -36 -9 -52s-2 -32.667 -2 -50v-25c10.667 8 24 16.667 40 26s33.667 18.5 53 27.5s39.666 17.833 60.999 26.5
s41.833 16.167 61.5 22.5s38.167 11.5 55.5 15.5s32 6 44 6c4 0 9.16699 -0.5 15.5 -1.5s12.333 -2.66699 18 -5s10.5 -5.5 14.5 -9.5s6 -9 6 -15c0 -4 -1.16699 -9 -3.5 -15s-6.16602 -8.33301 -11.499 -7c-1.33301 0 -4.66602 1.5 -9.99902 4.5s-8.66602 4.5 -9.99902 4.5
s-3.83301 -0.333008 -7.5 -1s-7.66699 -1.33398 -12 -2.00098s-8.33301 -1.66699 -12 -3s-6.16699 -2.33301 -7.5 -3c-26.667 -2.66699 -54.667 -7.83398 -84 -15.501s-57.833 -17.5 -85.5 -29.5s-52.834 -26.167 -75.501 -42.5s-40.667 -35.166 -54 -56.499l-5 -14l-1 -22
c-0.666992 -14.667 -1.5 -31.834 -2.5 -51.501s-2.16699 -40 -3.5 -61s-2 -38.167 -2 -51.5v-24l-30 -210c-3.33301 -20 -9.16602 -40.667 -17.499 -62s-19.166 -40.833 -32.499 -58.5s-29.333 -32.334 -48 -44.001s-39.334 -17.5 -62.001 -17.5
c-2.66699 0 -7.66699 0.166992 -15 0.5s-12.333 0.5 -15 0.5c-18 5.33301 -32.833 15 -44.5 29s-21.167 30.167 -28.5 48.5s-12.5 37 -15.5 56s-4.5 36.167 -4.5 51.5zM427.991 -382.998c0 -8.66699 1 -20.667 3 -36s5.5 -30.166 10.5 -44.499s11.667 -26.833 20 -37.5
s19.5 -16 33.5 -16c14.667 0 28 4.5 40 13.5s22.5 20.167 31.5 33.5s16.5 27.666 22.5 42.999s9.66699 29.333 11 42l34 308v57c-24.667 -22 -49.5 -46.667 -74.5 -74s-47.167 -56.5 -66.5 -87.5s-35 -63.333 -47 -97s-18 -68.5 -18 -104.5z" />
    <glyph glyph-name="Z" unicode="Z" horiz-adv-x="729" 
d="M39 -527c0.666992 4 1.99316 10.6709 3.99316 20.0039s4.33301 19 7 29l8 29c2.66699 9.33301 4.66699 16 6 20c16 37.333 35.833 73 59.5 107s49.334 66.5 77.001 97.5s57 60.5 88 88.5l92.5 82c7.33301 4 18 10.833 32 20.5s27.5 20.334 40.5 32.001
s24.333 23.167 34 34.5s14.5 20.666 14.5 27.999c0 16 -1.5 31.333 -4.5 46s-8 27.834 -15 39.501s-16.333 21 -28 28s-26.167 10.5 -43.5 10.5c-23.333 0 -46.5 -2.83301 -69.5 -8.5s-45.333 -13.334 -67 -23.001s-42.5 -21.167 -62.5 -34.5s-38.667 -27.333 -56 -42
c-1.33301 0 -3.33301 -0.166992 -6 -0.5s-4.66699 -0.5 -6 -0.5c-6 0 -12 1.66699 -18 5s-9 8.66602 -9 15.999c0 1.33301 0.666992 3.83301 2 7.5s2 6.16699 2 7.5l190 316c16 25.333 25.833 49.666 29.5 72.999s5.5 49.333 5.5 78c-20 0 -42.5 -4.33301 -67.5 -13
s-49.667 -19.667 -74 -33s-47.333 -28.333 -69 -45s-39.167 -33.334 -52.5 -50.001c-4 -4 -6.66699 -9.33301 -8 -16s-3 -13.167 -5 -19.5s-4.5 -11.666 -7.5 -15.999s-7.83301 -6.5 -14.5 -6.5c-5.33301 0 -9.66602 1.83301 -12.999 5.5s-6.33301 8 -9 13
s-4.66699 10.167 -6 15.5s-2 9.66602 -2 12.999c0 13.333 3.5 24.666 10.5 33.999s15.167 18.333 24.5 27l64 45.5c24 17 49 33 75 48s52.5 27.5 79.5 37.5s53.5 15 79.5 15c21.333 0 36.5 -4.5 45.5 -13.5s13.5 -24.833 13.5 -47.5c0 -12 -0.333008 -23.167 -1 -33.5
s-3.66699 -21.166 -9 -32.499l-113 -234c-1.33301 -2.66699 -3.83301 -7 -7.5 -13l-11.5 -19l-11.5 -19.5c-3.66699 -6.33301 -6.5 -10.5 -8.5 -12.5c-0.666992 -0.666992 -1.5 -2.16699 -2.5 -4.5s-1.83301 -3.83301 -2.5 -4.5c0.666992 0 1.5 -0.166992 2.5 -0.5
s1.83301 -0.5 2.5 -0.5c6 0 11.333 1.66699 16 5c28.667 8.66699 55.834 16.5 81.501 23.5s53.167 10.5 82.5 10.5c28.667 0 49.834 -4.33301 63.501 -13s24.167 -19.667 31.5 -33s13.5 -28.5 18.5 -45.5s13.167 -33.5 24.5 -49.5l190 150l4 7
c1.33301 -6.66699 5 -10.334 11 -11.001s11.333 -1.33398 16 -2.00098s6.66699 -2.66699 6 -6s-7.66699 -11.166 -21 -23.499s-34.333 -30.5 -63 -54.5l-120 -99l-23 -24c3.33301 -80 -1.5 -154.667 -14.5 -224s-35 -133 -66 -191s-71.667 -110.333 -122 -157
s-111.166 -87 -182.499 -121c-2 0 -5 -0.333008 -9 -1s-8.33301 -1.16699 -13 -1.5l-13.5 -1c-4.33301 -0.333008 -7.16602 -0.5 -8.49902 -0.5c-16 0 -30.167 3.5 -42.5 10.5s-22.666 16.167 -30.999 27.5s-14.5 24 -18.5 38s-6 28 -6 42v18zM97.9932 -570.996
c2 -6.66699 4.83203 -13.002 8.49902 -19.002s8.5 -11.333 14.5 -16h23c14 0 28 2.16699 42 6.5s27.667 10 41 17s26 15 38 24s23 17.833 33 26.5c38.667 38 71.334 74.833 98.001 110.5s48.334 72.834 65.001 111.501s28.667 80 36 124s11 93.667 11 149
c0 2 -0.166992 6.5 -0.5 13.5s-0.5 11.5 -0.5 13.5c-114.667 -86.667 -219 -186 -313 -298c-12.667 -16 -24.834 -32.833 -36.501 -50.5s-22 -36 -31 -55s-16.167 -38.667 -21.5 -59s-8 -41.166 -8 -62.499c0 -2.66699 0.166992 -8.66699 0.5 -18s0.5 -15.333 0.5 -18z" />
    <glyph glyph-name="bracketleft" unicode="[" horiz-adv-x="465" 
d="M16 785c0 5.33301 3.50391 9.83008 10.5039 13.4971s11.833 5.83398 14.5 6.50098l349 75c0.666992 0 3 0.166992 7 0.5s7.33301 0.5 10 0.5c8.66699 0 15 -1.16699 19 -3.5s6 -8.5 6 -18.5c0 -3.33301 -0.333008 -7.16602 -1 -11.499
s-3.33398 -7.16602 -8.00098 -8.49902l-332 -75c-5.33301 -1.33301 -8 -3.83301 -8 -7.5v-12.5v-13c0.666992 -7.33301 1.83398 -21.833 3.50098 -43.5l6 -76l7.5 -92.5l7.5 -92.5c2.33301 -29 4.16602 -54.333 5.49902 -76s2.33301 -35.834 3 -42.501
c0.666992 -10 1.16699 -25 1.5 -45s0.5 -42.5 0.5 -67.5v-79v-79c0 -25 -0.166992 -47.5 -0.5 -67.5s-0.833008 -35 -1.5 -45l8 -41h59l398 61v-12l-12.5 -3c-5.66699 -1.33301 -11.834 -3.16602 -18.501 -5.49902s-13.167 -4.83301 -19.5 -7.5
s-11.5 -5.33398 -15.5 -8.00098l-399 -92c-0.666992 0 -1.83398 -0.166992 -3.50098 -0.5s-3.16699 -0.5 -4.5 -0.5c-6.66699 0 -12.334 1.5 -17.001 4.5s-8.66699 7.16699 -12 12.5s-6.16602 11 -8.49902 17s-3.5 12 -3.5 18c-7.33301 56 -11.333 112.333 -12 169
s-0.5 113.334 0.5 170.001s1.66699 113.5 2 170.5s-2.5 113.833 -8.5 170.5c0 3.33301 -0.833008 11 -2.5 23l-6 42c-2.33301 16 -4.66602 33 -6.99902 51s-4.83301 35 -7.5 51s-4.83398 30 -6.50098 42s-2.83398 19.667 -3.50098 23v5z" />
    <glyph glyph-name="backslash" unicode="\" horiz-adv-x="515" 
d="M7 676c0 8 1.66895 13.666 5.00195 16.999s9.33301 5 18 5c10 0 20 -3.5 30 -10.5s17.667 -14.833 23 -23.5l407 -606c5.33301 -7.33301 8.16602 -12.833 8.49902 -16.5s0.5 -9.83398 0.5 -18.501c0 -9.33301 -2 -15.666 -6 -18.999s-10.667 -5 -20 -5
c-4.66699 0 -7.83398 0.333008 -9.50098 1s-4.16699 3.33398 -7.5 8.00098l-389 590c-3.33301 4 -8.33301 9.33301 -15 16l-20 20.5c-6.66699 7 -12.5 14.333 -17.5 22s-7.5 14.167 -7.5 19.5z" />
    <glyph glyph-name="bracketright" unicode="]" horiz-adv-x="697" 
d="M151 -95c0 6.66699 4 12 12 16s14.667 5.33301 20 4c3.33301 0 9.16602 0.333008 17.499 1s17.5 1.16699 27.5 1.5s19.167 0.666016 27.5 0.999023s14.5 0.5 18.5 0.5c6 0 13.833 -0.166992 23.5 -0.5l29 -1c9.66699 -0.333008 18.334 -0.833008 26.001 -1.5
s11.834 -1 12.501 -1c8 -1.33301 22.333 -4.33301 43 -9s42.5 -10.167 65.5 -16.5l65 -18.5c20.333 -6 34.5 -10.333 42.5 -13h22c0 36.667 -1 74.334 -3 113.001s-4.33301 77.5 -7 116.5s-4.33398 77.667 -5.00098 116s-0.333984 75.166 0.999023 110.499l-49 423
c-0.666992 2.66699 -2 7 -4 13l-4 12h-4c-44.667 0 -89.167 -1.33301 -133.5 -4s-89.166 -4 -134.499 -4h-29.5c-15 0 -32.5 0.333008 -52.5 1s-40.5 1.66699 -61.5 3s-40 3.5 -57 6.5s-30.5 7.16699 -40.5 12.5s-13.667 11.333 -11 18
c0.666992 1.33301 2 3.16602 4 5.49902l7 8c2.66699 3 5.33398 5.66699 8.00098 8s4.66699 3.83301 6 4.5h7c44.667 0 89.167 -2.83301 133.5 -8.5s89.166 -8.5 134.499 -8.5c37.333 0 74 1.5 110 4.5s72 4.5 108 4.5h12c6.66699 0 13.667 -0.166992 21 -0.5
s14.166 -1.83301 20.499 -4.5s9.5 -7 9.5 -13l59 -464c-3.33301 -38 -3.66602 -76.667 -0.999023 -116s6 -78.666 10 -117.999l11.5 -118c3.66699 -39.333 5.5 -78.333 5.5 -117v-16c0 -6.66699 -0.166992 -13.5 -0.5 -20.5s-0.5 -13 -0.5 -18v-8.5l-9 -16h-41
c-36.667 14.667 -74.5 28.834 -113.5 42.501s-78.5 25.667 -118.5 36s-80 18.5 -120 24.5s-80 9 -120 9z" />
    <glyph glyph-name="asciicircum" unicode="^" horiz-adv-x="507" 
d="M224 822c-9.33301 0 -19.833 -8.33496 -31.5 -25.002s-23.5 -37.334 -35.5 -62.001s-24 -51.334 -36 -80.001l-32.5 -80c-9.66699 -24.667 -18.334 -45.167 -26.001 -61.5s-13.167 -24.5 -16.5 -24.5c-8.66699 0 -15.834 2.5 -21.501 7.5s-8.5 12.5 -8.5 22.5
c0 0.666992 1.33301 6 4 16s6.5 22.5 11.5 37.5l16.5 48.5c6 17.333 12 33.833 18 49.5s12 28.834 18 39.501s11.333 17.334 16 20.001l107 175l4.5 4.5l7.5 7.5l7.5 7.5l5.5 5.5h5h3c2 -1.33301 4.33301 -3.33301 7 -6s5.33398 -5.16699 8.00098 -7.5
s5 -4.66602 7 -6.99902s3 -3.83301 3 -4.5l217 -490v-4v-4c-0.666992 -1.33301 -2.16699 -3 -4.5 -5s-4.16602 -3.33301 -5.49902 -4c-8.66699 7.33301 -18 16 -28 26s-19.5 20.667 -28.5 32s-17.167 22.833 -24.5 34.5s-13.333 22.5 -18 32.5l-133 290
c-1.33301 4.66699 -3.5 7.33398 -6.5 8.00098s-6.16699 1 -9.5 1z" />
    <glyph glyph-name="underscore" unicode="_" horiz-adv-x="1228" 
d="M16 33c1.33301 2 4.16504 5 8.49805 9s7.16602 6.33301 8.49902 7c94.667 7.33301 189.5 14 284.5 20l284.5 18c94.667 6 189.334 12.667 284.001 20s189.334 15.666 284.001 24.999c13.333 -2 22.333 -5 27 -9s7 -12 7 -24v-9c0 -3.33301 -0.5 -6.33301 -1.5 -9
s-2.66699 -4.66699 -5 -6s-5.83301 -1.33301 -10.5 0c-176.667 -16.667 -353.667 -32.167 -531 -46.5s-354.666 -21.5 -531.999 -21.5h-18c-8.66699 0 -17.834 0.166992 -27.501 0.5s-18.834 0.5 -27.501 0.5h-18c-1.33301 1.33301 -4.16602 4 -8.49902 8
s-7.16602 7 -8.49902 9c-0.666992 0.666992 -1 1.33398 -1 2.00098v3z" />
    <glyph glyph-name="grave" unicode="`" horiz-adv-x="447" 
d="M169 715c0 18 2.33594 28.834 7.00293 32.501s11 2.66699 19 -3s17.333 -14.834 28 -27.501s22.5 -25.667 35.5 -39s26.5 -25.833 40.5 -37.5s28.667 -19.834 44 -24.501c13.333 -4.66699 19.166 -8.83398 17.499 -12.501s-7.5 -6.33398 -17.5 -8.00098
s-23 -1.66699 -39 0s-32.5 5.83398 -49.5 12.501s-32.833 16.834 -47.5 30.501s-25.334 31.5 -32.001 53.5l-1 3c-0.666992 2 -1.33398 4.33301 -2.00098 7l-2 8c-0.666992 2.66699 -1 4.33398 -1 5.00098z" />
    <glyph glyph-name="a" unicode="a" horiz-adv-x="545" 
d="M22 30l-0.00390625 14.9961v16c-11.333 40 -12.833 79.333 -4.5 118s23.333 73.5 45 104.5s49.334 57 83.001 78s70.5 33.833 110.5 38.5h18c14.667 0 26.834 -3.16699 36.501 -9.5s17.334 -14.5 23.001 -24.5s9.66699 -21.333 12 -34s3.5 -25.334 3.5 -38.001
c0 -17.333 -1.83301 -34.166 -5.5 -50.499s-7.66699 -32.833 -12 -49.5s-8.33301 -33.167 -12 -49.5s-5.5 -33.5 -5.5 -51.5v-6c0.666992 -1.33301 1.5 -5.16602 2.5 -11.499s1.83301 -10.166 2.5 -11.499c1.33301 0 4.66602 -0.166992 9.99902 -0.5
s8.66602 -0.5 9.99902 -0.5c6.66699 0 13.167 0.166992 19.5 0.5s12.833 1.83301 19.5 4.5l190 88c0.666992 0 1.83398 0.166992 3.50098 0.5s2.83398 0.5 3.50098 0.5c6.66699 0 12.167 -2 16.5 -6s6.5 -9.33301 6.5 -16c0 -3.33301 -0.166992 -6.5 -0.5 -9.5
s-2.16602 -5.83301 -5.49902 -8.5c-4.66699 -3.33301 -13.167 -8 -25.5 -14l-39.5 -20l-39.5 -21c-12.333 -6.66699 -21.166 -11 -26.499 -13c-9.33301 -5.33301 -19.666 -10.166 -30.999 -14.499s-23 -8.5 -35 -12.5s-23.833 -7.16699 -35.5 -9.5s-22.167 -3.5 -31.5 -3.5
c-14.667 0 -26.667 2.5 -36 7.5s-16.333 11.667 -21 20s-7.83398 18.333 -9.50098 30s-1.83398 23.834 -0.500977 36.501l-43 -34c-15.333 -12 -31.333 -23 -48 -33s-33.667 -18.667 -51 -26s-35 -11 -53 -11c-10 0 -19 2.5 -27 7.5s-13.667 12.833 -17 23.5z
M75.9961 50.9961c15.333 0 32.333 4.50098 51 13.501s37 20.167 55 33.5s34.333 27.5 49 42.5s26 28.5 34 40.5c0.666992 20 3.5 39.167 8.5 57.5s7.5 37.166 7.5 56.499c0 1.33301 -0.166992 3.33301 -0.5 6s-0.5 4.66699 -0.5 6c-8.66699 7.33301 -16 11.666 -22 12.999
s-14 2 -24 2h-8.5c-4.33301 0 -7.16602 -0.333008 -8.49902 -1c-4 -3.33301 -10.667 -9.5 -20 -18.5l-29.5 -29.5l-29 -30l-18.5 -19c-0.666992 0 -2 -1.16699 -4 -3.5s-4.16699 -5.16602 -6.5 -8.49902s-4.33301 -6.5 -6 -9.5s-2.83398 -5.5 -3.50098 -7.5l-24 -117v-27z
" />
    <glyph glyph-name="b" unicode="b" horiz-adv-x="522" 
d="M101 137c-0.666992 0 -1.5 -0.833008 -2.5 -2.5s-2.16699 -2.83398 -3.5 -3.50098c-8 -14 -14.333 -27.667 -19 -41s-9.33398 -28.666 -14.001 -45.999c-4.66699 -6.66699 -9.5 -10.834 -14.5 -12.501s-10.833 -2.5 -17.5 -2.5c-15.333 0 -23 6.66699 -23 20
c7.33301 29.333 13.666 53.166 18.999 71.499l14 47l10.5 34.5l9.5 30.5c3.33301 10.333 6.83301 22.5 10.5 36.5s8 31.5 13 52.5s10.833 46.833 17.5 77.5l24 113l34 84c2.66699 6 5.83398 9.83301 9.50098 11.5s7.83398 2.5 12.501 2.5c6 0 11.667 -1.83301 17 -5.5
s8.66602 -8.83398 9.99902 -15.501v-8c0 -4 0.166992 -8.16699 0.5 -12.5s0.5 -8.33301 0.5 -12v-8.5c0 -35.333 -2.83301 -65.666 -8.5 -90.999s-13.334 -49 -23.001 -71s-20.334 -44 -32.001 -66s-23.167 -47.333 -34.5 -76c18 20.667 38.667 38.334 62 53.001
s49 22 77 22c2.66699 0 7.83398 -0.333008 15.501 -1s12.834 -1 15.501 -1c14 -4 26.167 -11.667 36.5 -23s18.5 -24.166 24.5 -38.499s10.333 -29.333 13 -45s4 -29.834 4 -42.501c0 -13.333 -1.33301 -27.5 -4 -42.5s-6 -29.167 -10 -42.5h10l145 38
c13.333 4 26.833 11 40.5 21s24.834 19.333 33.501 28h2c0.666992 0 1.16699 0.166992 1.5 0.5s0.833008 0.5 1.5 0.5c6 0 10.833 -1.83301 14.5 -5.5s5.5 -8.5 5.5 -14.5c0 -12 -4.83301 -23 -14.5 -33s-21.167 -18.5 -34.5 -25.5s-27 -13 -41 -18s-25 -8.5 -33 -10.5
c-6.66699 -2 -18.167 -5.16699 -34.5 -9.5l-52.5 -13.5l-53.5 -13l-34.5 -8l-28 -14.5c-8.66699 -4.33301 -18.334 -6.5 -29.001 -6.5c-15.333 0 -32.166 3.83301 -50.499 11.5s-35 17.667 -50 30s-27 26.833 -36 43.5s-11.167 34.334 -6.5 53.001zM125 152
c10 0 18.165 -4.16602 24.498 -12.499l21.5 -27.5c8 -10 18.167 -19 30.5 -27s30.166 -12 53.499 -12h21c6 6 10.833 13.667 14.5 23s6.33398 18.833 8.00098 28.5s2.5 19.5 2.5 29.5v28c0 9.33301 -1 19.166 -3 29.499s-5.33301 19.833 -10 28.5s-11.167 15.667 -19.5 21
s-18.166 8 -29.499 8c-13.333 0 -27.166 -4.16699 -41.499 -12.5s-27.5 -18.833 -39.5 -31.5s-22.667 -26 -32 -40s-16 -26.667 -20 -38c3.33301 2.66699 6.5 4.16699 9.5 4.5s6.16699 0.5 9.5 0.5z" />
    <glyph glyph-name="c" unicode="c" horiz-adv-x="522" 
d="M20 137c3.33301 34 11.1689 66.3281 23.502 96.9951s26.666 57 42.999 79s33 39 50 51s31.833 15.667 44.5 11c3.33301 2 6.16602 3.83301 8.49902 5.5s4.33301 3.33398 6 5.00098s3.66699 3 6 4s5.83301 1.5 10.5 1.5c9.33301 0 17.666 -3 24.999 -9
s13.833 -13.333 19.5 -22s10 -17.834 13 -27.501s4.5 -18.5 4.5 -26.5c0 -8.66699 -3.33301 -14.667 -10 -18s-14.334 -5 -23.001 -5c-5.33301 0 -10 1.16699 -14 3.5s-7.5 5.16602 -10.5 8.49902s-6.16699 6.66602 -9.5 9.99902s-7.66602 5.66602 -12.999 6.99902h-1h-3
l-4.5 -4.5c-2.33301 -2.33301 -3.83301 -4.16602 -4.5 -5.49902c-14 -16.667 -27 -31.5 -39 -44.5s-22.5 -26.167 -31.5 -39.5s-16 -27.666 -21 -42.999s-7.5 -33.666 -7.5 -54.999v-9c0 -4 0.166992 -8 0.5 -12s0.5 -8 0.5 -12v-9
c1.33301 -6.66699 5.16602 -11.667 11.499 -15s12.166 -6.66602 17.499 -9.99902c2 0 7 -0.166992 15 -0.5s12.667 -0.5 14 -0.5c24 0 52.333 3.83301 85 11.5s65.5 17.834 98.5 30.501s64.167 27.834 93.5 45.501s52.666 36.167 69.999 55.5
c4 5.33301 7.5 12.666 10.5 21.999s6.33301 18.5 10 27.5s7.83398 16.833 12.501 23.5s11.667 10 21 10c8.66699 0 14.167 -3.5 16.5 -10.5s3.5 -13.833 3.5 -20.5c0 -21.333 -5.16699 -40.666 -15.5 -57.999s-23.166 -33 -38.499 -47s-32.166 -26.333 -50.499 -37
s-35.833 -19.667 -52.5 -27c-4.66699 -1.33301 -14.834 -5 -30.501 -11l-50.5 -19l-52.5 -19.5c-17 -6.33301 -29.5 -11.166 -37.5 -14.499c-10.667 -3.33301 -19.667 -5.83301 -27 -7.5l-20 -4.5c-6 -1.33301 -12.167 -2.16602 -18.5 -2.49902s-13.833 -0.5 -22.5 -0.5
c-24 0 -43.833 3 -59.5 9s-28.167 14.833 -37.5 26.5s-16.166 26 -20.499 43s-7.16602 36.833 -8.49902 59.5z" />
    <glyph glyph-name="d" unicode="d" horiz-adv-x="569" 
d="M258 151c-3.33301 -3.33301 -9.66699 -8.99805 -19 -16.998l-29.5 -25.5l-29.5 -25c-9.33301 -7.66699 -16 -12.834 -20 -15.501c-1.33301 -0.666992 -5.16602 -2.83398 -11.499 -6.50098l-21.5 -13c-8 -5 -16.167 -9.66699 -24.5 -14s-14.833 -7.83301 -19.5 -10.5
l-17 -8.5c-3.33301 -1.66699 -8.33301 -2.5 -15 -2.5c-10.667 0 -21.834 3.5 -33.501 10.5s-17.5 16.833 -17.5 29.5v108l14 73c7.33301 28 15.666 50.833 24.999 68.5s21 32.334 35 44.001s30.833 20.5 50.5 26.5s42.834 11.667 69.501 17
c1.33301 0.666992 5.66602 2.33398 12.999 5.00098s11.666 4.33398 12.999 5.00098h14c10.667 0 20.167 -2.33301 28.5 -7s16.5 -10.667 24.5 -18l50 214c-1.33301 7.33301 -1.33301 17.5 0 30.5s3.83301 26.167 7.5 39.5s8.5 24.666 14.5 33.999s13 14 21 14
c10 0 17.833 -3.66699 23.5 -11s7.5 -16.666 5.5 -27.999l-54 -327c-12 -28.667 -20.833 -57.334 -26.5 -86.001s-8.5 -58.334 -8.5 -89.001c0 -14 1 -28 3 -42s5.83301 -26.667 11.5 -38s13.5 -20.5 23.5 -27.5s23 -10.5 39 -10.5c35.333 0 70.333 6.5 105 19.5
s65.334 30.833 92.001 53.5c1.33301 0 2.33301 0.166992 3 0.5s1.66699 0.5 3 0.5c5.33301 0 10 -1.66699 14 -5c0 -1.33301 0.166992 -3.33301 0.5 -6s0.5 -4.66699 0.5 -6c0 -10.667 -4.33301 -20.667 -13 -30s-19.834 -18 -33.501 -26s-28.667 -15 -45 -21
s-32.666 -11.333 -48.999 -16s-31.5 -8 -45.5 -10s-25 -3 -33 -3c-23.333 0 -42.833 3.83301 -58.5 11.5s-28.667 18.5 -39 32.5s-18.166 30.167 -23.499 48.5s-9.33301 38.166 -12 59.499h-5zM62.999 190.002c0 -4 -0.500977 -10.668 -1.50098 -20.001s-2 -19.5 -3 -30.5
s-2 -21.333 -3 -31s-1.83301 -16.834 -2.5 -21.501c0 -1.33301 -0.166992 -4.66602 -0.5 -9.99902s-0.5 -8.66602 -0.5 -9.99902c9.33301 0 21.333 3.83301 36 11.5s30 17.667 46 30s32.333 26.333 49 42s31.5 31.167 44.5 46.5s23.833 30.5 32.5 45.5s13 27.833 13 38.5
c0 3.33301 -2.5 8 -7.5 14s-10.667 11.667 -17 17s-12.666 10 -18.999 14s-11.833 6 -16.5 6c-14 4.66699 -30.167 3.5 -48.5 -3.5s-35.5 -17.667 -51.5 -32s-29 -30.833 -39 -49.5s-13.667 -37.667 -11 -57z" />
    <glyph glyph-name="e" unicode="e" horiz-adv-x="370" 
d="M16 156c1.33301 4 3.5 11.165 6.5 21.498s6 21.5 9 33.5s5.66699 23.5 8 34.5s4.16602 18.5 5.49902 22.5c4 16 8.83301 33.333 14.5 52s13.5 36 23.5 52s22.833 29.167 38.5 39.5s35.167 15.5 58.5 15.5c8.66699 0 14.834 -3.16699 18.501 -9.5
s6.83398 -13.166 9.50098 -20.499c0 -2.66699 0.166992 -7.5 0.5 -14.5s0.5 -11.833 0.5 -14.5c0 -28.667 -2.83301 -54 -8.5 -76s-14.334 -42.333 -26.001 -61s-25.834 -36.167 -42.501 -52.5s-35.667 -33.5 -57 -51.5c-0.666992 -2 -1.66699 -5.33301 -3 -10s-2 -8 -2 -10
v-2c0 -12 2 -21.667 6 -29s9.5 -13.166 16.5 -17.499s15 -7 24 -8s18.833 -1.5 29.5 -1.5c31.333 0 61.333 4.33301 90 13s55 22.667 79 42c3.33301 3.33301 7.5 8.16602 12.5 14.499l15.5 19.5c5.33301 6.66699 11 12.5 17 17.5s12.333 7.5 19 7.5s10.667 -2.66699 12 -8
s2 -10.666 2 -15.999c0 -14.667 -4.5 -28.5 -13.5 -41.5s-20.667 -24.667 -35 -35s-30.666 -19.5 -48.999 -27.5s-36.5 -14.667 -54.5 -20s-35.167 -9.33301 -51.5 -12s-30.166 -4 -41.499 -4c-35.333 0 -64.833 5.83301 -88.5 17.5s-39.834 35.167 -48.501 70.5z
M159 352.998c-13.333 -12 -23.832 -22.833 -31.499 -32.5s-13.667 -19.667 -18 -30s-8 -21.5 -11 -33.5s-6.16699 -26 -9.5 -42c12.667 10 23.167 20 31.5 30s15.166 20.333 20.499 31s9.33301 22.167 12 34.5s4.66699 26.5 6 42.5z" />
    <glyph glyph-name="f" unicode="f" horiz-adv-x="499" 
d="M-14 -322v9.50195v13v11v5.5l35 313c4.66699 24.667 8.66699 44.167 12 58.5s6 25.166 8 32.499c2.66699 8 5.33398 13.333 8.00098 16l73 234c2.66699 8 7.66699 19.5 15 34.5s15.833 29.833 25.5 44.5s20.167 27.167 31.5 37.5s22.666 15.5 33.999 15.5
c4.66699 0 8.66699 -1.66699 12 -5s6.16602 -7.33301 8.49902 -12s4 -9.66699 5 -15s1.5 -9.66602 1.5 -12.999c0 -30.667 -4.16699 -62 -12.5 -94s-19.166 -63.5 -32.499 -94.5s-29.333 -60.5 -48 -88.5s-38.334 -52.667 -59.001 -74l-15 -54
c75.333 1.33301 148.5 13.666 219.5 36.999s139.167 52 204.5 86h5c6 0 10.167 -2.16699 12.5 -6.5s3.5 -8.83301 3.5 -13.5c0 -5.33301 -1 -10 -3 -14s-6.33301 -7.66699 -13 -11c-52.667 -32.667 -109 -59.334 -169 -80.001s-120.667 -36.334 -182 -47.001l30 -33
c8 -8.66699 14.5 -17.5 19.5 -26.5s8.66699 -19.5 11 -31.5s3.5 -28.333 3.5 -49c0 -52 -12.167 -97.5 -36.5 -136.5s-56.166 -75.167 -95.499 -108.5c-9.33301 -7.33301 -20.833 -15 -34.5 -23s-26.834 -12 -39.501 -12c-11.333 0 -19.666 3.66699 -24.999 11
s-9 15.833 -11 25.5s-2.83301 19.834 -2.5 30.501s0.5 19.667 0.5 27zM68 -38.998l-9 -69.999c-3.33301 -26 -6.33301 -52.667 -9 -80s-5 -54.666 -7 -81.999s-3 -53 -3 -77c18 0 35.5 7.83301 52.5 23.5s32.167 34.667 45.5 57s24.333 45.166 33 68.499
s13.334 42.666 14.001 57.999c1.33301 18.667 0.166016 34.5 -3.50098 47.5s-9.5 24 -17.5 33s-18.333 16.5 -31 22.5s-27.667 12 -45 18h-5c-4.66699 0 -8 -2 -10 -6s-3.66699 -8.33301 -5 -13zM191 390.003c-0.666992 0 -2.00195 -2.50293 -4.00195 -7.50293
s-4.5 -10.5 -7.5 -16.5s-5.66699 -12.333 -8 -19s-4.16602 -11.667 -5.49902 -15c-2 -5.33301 -4.33301 -12.166 -7 -20.499s-5.16699 -16.666 -7.5 -24.999s-4.5 -15.666 -6.5 -21.999s-3 -9.83301 -3 -10.5v-6c12.667 22.667 24.334 46.5 35.001 71.5
s16.667 50.167 18 75.5z" />
    <glyph glyph-name="g" unicode="g" horiz-adv-x="531" 
d="M88 -488c-3.33301 10 -6.16699 19.3311 -8.5 27.998s-3.83301 16.834 -4.5 24.501s-1.16699 15.334 -1.5 23.001s-0.5 16.834 -0.5 27.501v7.5v12c0 4.33301 0.166992 8.33301 0.5 12s0.5 6.16699 0.5 7.5c7.33301 32.667 15.5 64.834 24.5 96.501
s19.833 62.334 32.5 92.001s28 57.667 46 84s40.333 50.833 67 73.5c0.666992 3.33301 1.66699 10 3 20s3 20.333 5 31s3.5 20.834 4.5 30.501s1.83301 16.834 2.5 21.501c0 1.33301 -0.166992 4.5 -0.5 9.5s-0.5 8.16699 -0.5 9.5h-3
c-23.333 -12 -45.666 -22.5 -66.999 -31.5s-44.666 -13.5 -69.999 -13.5c-14 0 -25.833 2.33301 -35.5 7s-17.5 11 -23.5 19s-10.5 17.333 -13.5 28s-4.83301 22.334 -5.5 35.001l24 73c6 16.667 13.5 34.5 22.5 53.5s19.333 37.167 31 54.5s25.167 33.166 40.5 47.499
s32.666 24.5 51.999 30.5c26 4 50.167 3.33301 72.5 -2s41.833 -13 58.5 -23s30.167 -20.833 40.5 -32.5s16.5 -21.834 18.5 -30.501c-1.33301 -10 -4.33301 -20.5 -9 -31.5s-9.83398 -22 -15.501 -33s-11.334 -21 -17.001 -30s-9.83398 -16.5 -12.501 -22.5
c-5.33301 -12 -10 -24.667 -14 -38s-7.5 -27 -10.5 -41s-5.33301 -28.167 -7 -42.5s-2.5 -27.5 -2.5 -39.5v-15c34 20 70.667 35.667 110 47s78.333 17 117 17h18.5c7.66699 0 15 -0.833008 22 -2.5s13.167 -4.66699 18.5 -9s8 -10.5 8 -18.5c0 -12.667 -7 -19 -21 -19
c-2 0 -6.66699 0.5 -14 1.5s-12.333 2.16699 -15 3.5c-4.66699 -0.666992 -12.667 -2 -24 -4s-23.666 -4.33301 -36.999 -7s-25.666 -5.33398 -36.999 -8.00098s-19.333 -4.33398 -24 -5.00098c-2 -0.666992 -5.83301 -2.16699 -11.5 -4.5l-18.5 -7.5l-19.5 -7.5
c-6.33301 -2.33301 -10.5 -4.5 -12.5 -6.5c-5.33301 -1.33301 -11.5 -3.83301 -18.5 -7.5l-20.5 -11l-17.5 -10c-5 -3 -7.5 -4.83301 -7.5 -5.5l-10 -14l-24 -253c-2 -17.333 -6.83301 -38.333 -14.5 -63s-17.834 -48.334 -30.501 -71.001s-28.167 -41.834 -46.5 -57.501
s-39.166 -23.5 -62.499 -23.5c-6.66699 0 -12.5 0.833008 -17.5 2.5s-9.83301 5.5 -14.5 11.5zM121.999 -390.002c0.666992 -6 1.49902 -14.668 2.49902 -26.001s3.16699 -20.666 6.5 -27.999c12.667 3.33301 24.334 12.5 35.001 27.5s19.667 31.833 27 50.5
s13.333 37.167 18 55.5s7.66699 32.5 9 42.5c2.66699 15.333 4.83398 29.833 6.50098 43.5s3.16699 26.667 4.5 39s2.33301 24.5 3 36.5s1 25 1 39c0 2 -0.166992 6.5 -0.5 13.5s-0.5 11.5 -0.5 13.5c-18 -23.333 -33 -47 -45 -71s-22.167 -48.5 -30.5 -73.5
s-15.333 -51 -21 -78s-10.834 -55.167 -15.501 -84.5zM97.998 146.997c2 -5.33301 4.83398 -10.001 8.50098 -14.001s8.83398 -6 15.501 -6c27.333 0 51.833 5.83301 73.5 17.5s40.834 26.834 57.501 45.501s31.167 39 43.5 61s22.833 44 31.5 66v4
c-10.667 22 -22.834 36.167 -36.501 42.5s-28 7.33301 -43 3s-30.167 -13 -45.5 -26s-29.833 -27.667 -43.5 -44s-25.834 -33.5 -36.501 -51.5s-19 -34.5 -25 -49.5s-9.33301 -27.167 -10 -36.5s2.66602 -13.333 9.99902 -12z" />
    <glyph glyph-name="h" unicode="h" horiz-adv-x="504" 
d="M229 225c-1.33301 2.66699 -3.49609 6.5 -6.49609 11.5s-6.5 7.5 -10.5 7.5c-12.667 0 -25.5 -5.5 -38.5 -16.5s-25.333 -24 -37 -39s-21.667 -30.167 -30 -45.5s-13.5 -27.333 -15.5 -36c-2.66699 -8.66699 -4 -19 -4 -31s-0.833008 -23.333 -2.5 -34
s-5.33398 -19.667 -11.001 -27s-15.5 -11 -29.5 -11c-8.66699 0 -14.5 1.83301 -17.5 5.5s-4.5 9.83398 -4.5 18.501c4.66699 32 8.83398 58.333 12.501 79l10 54.5l9 46l10.5 54.5c4 21.333 8.33301 47.5 13 78.5l17 118.5c0 10 0.666992 24.167 2 42.5s3.83301 38 7.5 59
s8.5 42.333 14.5 64s13.5 41.167 22.5 58.5s19.5 31.5 31.5 42.5s26 16.5 42 16.5c11.333 0 20.5 -3.83301 27.5 -11.5s12.333 -16.834 16 -27.501s5.83398 -21.834 6.50098 -33.501s1 -21.167 1 -28.5c0 -16.667 -1.33301 -32.5 -4 -47.5s-6 -30 -10 -45
s-8.33301 -30 -13 -45s-8.66699 -29.833 -12 -44.5l-64 -122l-36 -78l5 -11c14 16.667 28.333 29.5 43 38.5s33 14.167 55 15.5c10 0.666992 18.5 -2.33301 25.5 -9s12.833 -15.167 17.5 -25.5s8.16699 -20.833 10.5 -31.5s3.83301 -19.334 4.5 -26.001
c0 -4 -0.333008 -10.333 -1 -19s-1.33398 -18.667 -2.00098 -30s-1.16699 -23.166 -1.5 -35.499s0.166992 -23.833 1.5 -34.5s4.16602 -19.834 8.49902 -27.501s10.166 -12.167 17.499 -13.5c26 3.33301 49.167 7.83301 69.5 13.5s38.166 13.667 53.499 24
s28.166 23.5 38.499 39.5s18.166 35.667 23.499 59c4.66699 6.66699 11.334 10 20.001 10c10 0 16.5 -3.66699 19.5 -11s4.5 -15.333 4.5 -24c0 -26.667 -8.5 -50.167 -25.5 -70.5s-38.5 -37.166 -64.5 -50.499s-54 -23.5 -84 -30.5s-57.667 -10.5 -83 -10.5
c-16 0 -27 5.5 -33 16.5s-9.5 24.333 -10.5 40s-1.16699 31.5 -0.5 47.5s0.666992 29 0 39c0 3.33301 -0.333008 8.83301 -1 16.5s-1.5 15.834 -2.5 24.501s-2.16699 17 -3.5 25s-2 13.667 -2 17zM147.004 465l-0.00488281 -9.99902c0 -4.66699 0.166992 -9 0.5 -13
s0.5 -7.66699 0.5 -11v-6l5 -5c6.66699 4 12.834 11 18.501 21s10.834 22 15.501 36s8.83398 28.833 12.501 44.5s6.83398 31.167 9.50098 46.5s4.83398 29.333 6.50098 42s2.5 23 2.5 31c0 2.66699 -0.166992 7.66699 -0.5 15s-0.833008 11.666 -1.5 12.999l-5 10
c-16 -12.667 -28.333 -27.667 -37 -45s-15 -35.333 -19 -54s-6.33301 -38 -7 -58s-1 -39 -1 -57z" />
    <glyph glyph-name="i" unicode="i" horiz-adv-x="357" 
d="M22 210c0.666992 3.33301 2.66504 9.3291 5.99805 17.9961l10.5 28l10.5 28l7 18c4 10.667 7.83301 17.667 11.5 21s10.5 5 20.5 5c10.667 0 17.667 -3.66699 21 -11s5 -16 5 -26c0 -17.333 -2.5 -33.166 -7.5 -47.499s-10.5 -28.666 -16.5 -42.999
s-11.5 -29.666 -16.5 -45.999s-7.5 -35.166 -7.5 -56.499v-11.5c0 -5 0.333008 -10 1 -15s2 -9.33301 4 -13s4.66699 -5.5 8 -5.5c17.333 0 34.833 3.5 52.5 10.5s35 15.333 52 25s33.333 20.334 49 32.001l42.5 30.5c4.66699 3.33301 8.16699 6.66602 10.5 9.99902l6.5 9.5
c2 3 4.5 5.66699 7.5 8s7.83301 3.5 14.5 3.5c8.66699 0 15.834 -1.83301 21.501 -5.5s8.5 -10.167 8.5 -19.5c0 -4 -0.166992 -7.66699 -0.5 -11s-2.16602 -6.33301 -5.49902 -9c-0.666992 -2 -3.16699 -4.66699 -7.5 -8l-13.5 -10.5l-13 -10c-4 -3 -7 -4.83301 -9 -5.5
c-0.666992 0 -2.5 -0.833008 -5.5 -2.5s-4.83301 -2.5 -5.5 -2.5l-2.5 -2.5c-1 -1 -1.5 -1.83301 -1.5 -2.5c-14 -10.667 -29.167 -21.5 -45.5 -32.5s-33.5 -21 -51.5 -30s-36.5 -16.5 -55.5 -22.5s-37.833 -9 -56.5 -9c-16 0 -28.167 4.16699 -36.5 12.5
s-14.5 18.833 -18.5 31.5s-6.33301 26 -7 40s-1 26.667 -1 38zM69.998 472.996c0 12 2.33301 20 7 24s13 6 25 6c6 0 12 -1.16699 18 -3.5s9 -7.83301 9 -16.5s-4.16699 -16.667 -12.5 -24s-16.5 -11 -24.5 -11s-13.667 2.5 -17 7.5s-5 10.833 -5 17.5z" />
    <glyph glyph-name="j" unicode="j" horiz-adv-x="277" 
d="M-236 -372c0 40 7.67188 79.4971 23.0049 118.497s35.166 76.167 59.499 111.5s51.666 68 81.999 98s60.166 56 89.499 78c2.66699 10 5.16699 19.833 7.5 29.5l7.5 30.5v4c-4 13.333 -6.16699 29.833 -6.5 49.5s0.666992 39 3 58s5.5 35.167 9.5 48.5s8.33301 20 13 20
c8.66699 0 15.5 -2.66699 20.5 -8s7.5 -12.666 7.5 -21.999c0 -22.667 2.5 -46.834 7.5 -72.501s7.5 -49.5 7.5 -71.5v-13c32.667 17.333 65.334 31.666 98.001 42.999s68 17 106 17c3.33301 0 7.5 -0.166992 12.5 -0.5s9.5 -1.16602 13.5 -2.49902
s7.5 -3.66602 10.5 -6.99902s4.5 -7.66602 4.5 -12.999c0 -8 -3.5 -13.333 -10.5 -16s-13.5 -4.33398 -19.5 -5.00098c-7.33301 -1.33301 -18.333 -3.66602 -33 -6.99902s-30.834 -7.5 -48.501 -12.5s-35.5 -10.667 -53.5 -17s-34.667 -13.833 -50 -22.5
s-28.333 -17.667 -39 -27s-17 -19.666 -19 -30.999c-3.33301 -20 -4.83301 -41.167 -4.5 -63.5s-0.333984 -44.333 -2.00098 -66s-5.33398 -43 -11.001 -64s-16.167 -39.833 -31.5 -56.5l-127 -136c-4 -4.66699 -9.5 -10 -16.5 -16s-14.5 -11.333 -22.5 -16
s-16.5 -8.66699 -25.5 -12s-17.5 -5 -25.5 -5c-8.66699 0 -15.667 3.16699 -21 9.5s-9 13.666 -11 21.999s-3.33301 16.833 -4 25.5s-1 15.334 -1 20.001zM-186.995 -371.003c0.666992 -2 1.5 -4.66895 2.5 -8.00195s1.83301 -5.33301 2.5 -6l2 -1
c3.33301 0 7.66602 1.83301 12.999 5.5s10.5 7.5 15.5 11.5s9.5 8 13.5 12l6 6l56.5 56.5c17 17.667 31.333 35.834 43 54.501s20.667 39.334 27 62.001s9.5 49.334 9.5 80.001v49c-21.333 -12.667 -43.166 -31.834 -65.499 -57.501s-42.833 -53.834 -61.5 -84.501
s-34 -61.667 -46 -93s-18 -59.666 -18 -84.999v-2zM51.0049 357.995c0 8.66699 3.33301 16.333 10 23s14.334 10 23.001 10c6.66699 0 13 -2 19 -6s9 -9.33301 9 -16c0 -8.66699 -3.83301 -17 -11.5 -25s-15.834 -12 -24.501 -12c-8 0 -14.167 2.66699 -18.5 8
s-6.5 11.333 -6.5 18z" />
    <glyph glyph-name="k" unicode="k" horiz-adv-x="465" 
d="M18 4c-0.666992 2 -0.996094 6.33301 -0.996094 13v13c0 21.333 3.83301 42.166 11.5 62.499s17.167 39.833 28.5 58.5l54 141l53 196l44 87c1.33301 3.33301 3.83301 5 7.5 5h10.5c14 0 22.667 -5.16699 26 -15.5s5 -20.833 5 -31.5c0 -40 -6 -77.5 -18 -112.5
s-27.333 -69.5 -46 -103.5c12 7.33301 24.167 13.333 36.5 18s25.5 7 39.5 7c17.333 0 31.333 -3.16699 42 -9.5s22 -16.5 34 -30.5c0.666992 -1.33301 1 -5.66602 1 -12.999v-14c0 -20 -4.66699 -39 -14 -57s-21.333 -34.333 -36 -49s-31 -27.834 -49 -39.501
s-36 -20.5 -54 -26.5v-5c0 -6.66699 2 -12.5 6 -17.5s8.66699 -9.33301 14 -13s11 -6.33398 17 -8.00098s11.667 -2.5 17 -2.5c14.667 0 30 0.666992 46 2s31.833 3.83301 47.5 7.5s30.5 8.33398 44.5 14.001s26.667 13.167 38 22.5c5.33301 4 11 10.333 17 19l17.5 26
c5.66699 8.66699 11 16.334 16 23.001s8.83301 10 11.5 10c8 0 13.833 -3.5 17.5 -10.5s5.5 -13.833 5.5 -20.5c0 -0.666992 -0.166992 -2.16699 -0.5 -4.5s-0.5 -3.83301 -0.5 -4.5c-12.667 -26.667 -27.167 -48.834 -43.5 -66.501s-34.833 -31.667 -55.5 -42
s-43.834 -17.666 -69.501 -21.999s-54.167 -6.5 -85.5 -6.5c-26.667 0 -49.167 4.83301 -67.5 14.5s-33.5 26.167 -45.5 49.5c-0.666992 2.66699 -1.83398 6.16699 -3.50098 10.5l-5 13c-1.66699 4.33301 -3.83398 8.5 -6.50098 12.5s-6 6.66699 -10 8l-48 -102
c-2 -4.66699 -5.83301 -7.66699 -11.5 -9s-10.834 -2 -15.501 -2c-4 0 -7.83301 0.166992 -11.5 0.5s-7.16699 1.83301 -10.5 4.5zM150.004 193c0 -2 1 -5.3291 3 -9.99609s4.33301 -9.33398 7 -14.001s5.5 -8.83398 8.5 -12.501s5.83301 -5.5 8.5 -5.5s6 0.833008 10 2.5
l12.5 5c4.33301 1.66699 8.16602 3.5 11.499 5.5s6 4 8 6c2 2.66699 5.66699 7 11 13l17.5 19l18 19c5.66699 6 9.16699 10.333 10.5 13l3.5 7l5 10c1.66699 3.33301 3.16699 6.66602 4.5 9.99902s2.33301 5.66602 3 6.99902v2.5v2.5c0 2 -0.166992 3.83301 -0.5 5.5
s-2.16602 3.16699 -5.49902 4.5h-19c-8 0 -15.5 -0.5 -22.5 -1.5s-14.167 -3.83301 -21.5 -8.5c-2 -2 -6 -5.5 -12 -10.5s-12 -10.333 -18 -16l-18 -16.5c-6 -5.33301 -9.66699 -8.66602 -11 -9.99902c-1.33301 -2 -4 -6.33301 -8 -13s-6 -11.334 -6 -14.001z" />
    <glyph glyph-name="l" unicode="l" horiz-adv-x="294" 
d="M22 181l1.5 1.49902l2.5 2.5c1.33301 6 4 16.333 8 31l13 47.5l13.5 47.5c4.33301 14.667 7.5 24.667 9.5 30c0.666992 2.66699 2.83398 8.5 6.50098 17.5l12.5 29.5l14 32c4.66699 10.667 8 18.667 10 24c4.66699 9.33301 11.834 21.666 21.501 36.999
s20.667 29.833 33 43.5s25.166 25.667 38.499 36s25.666 15.5 36.999 15.5c6 0 10.833 -1.66699 14.5 -5s6.33398 -7.16602 8.00098 -11.499s2.83398 -9.16602 3.50098 -14.499s1 -10 1 -14c0 -34.667 -4.83301 -69.167 -14.5 -103.5s-22.834 -67.166 -39.501 -98.499
s-36.5 -60.833 -59.5 -88.5s-47.167 -52.5 -72.5 -74.5c-0.666992 -2 -1.5 -6 -2.5 -12s-1.83301 -10.333 -2.5 -13v-2c0 -13.333 3.5 -24 10.5 -32s15.5 -13.833 25.5 -17.5s21.167 -6.16699 33.5 -7.5s24.166 -2 35.499 -2c6 0 14.833 3 26.5 9s23.667 12.833 36 20.5
s24.5 14.5 36.5 20.5s21 9 27 9s10.667 -2 14 -6s5 -9 5 -15c0 -10 -7.66699 -20.667 -23 -32s-33 -21.833 -53 -31.5s-39.167 -17.834 -57.5 -24.501s-30.5 -10 -36.5 -10c-20 -4 -38.667 -4.16699 -56 -0.5s-32.333 10 -45 19s-23.167 20 -31.5 33s-13.5 26.5 -15.5 40.5z
M211 478.999c-6 0 -12.834 -4.8291 -20.501 -14.4961s-15.167 -20.834 -22.5 -33.501s-13.833 -24.834 -19.5 -36.501s-8.83398 -19.5 -9.50098 -23.5c-2 -4.66699 -5 -12.334 -9 -23.001l-12 -33.5l-11.5 -33.5c-3.66699 -10.667 -6.16699 -18.334 -7.5 -23.001h5l6 7.5
l13.5 17.5l16 20.5c5.66699 7 9.83398 12.833 12.501 17.5c2.66699 4 6.33398 10.167 11.001 18.5s7.66699 13.5 9 15.5l11 29.5c4.66699 12.333 9 24.5 13 36.5l10.5 31.5c3 9 4.5 14.167 4.5 15.5v11z" />
    <glyph glyph-name="m" unicode="m" horiz-adv-x="687" 
d="M18 24c2 16.667 4.66699 32.5 8 47.5s7 29.833 11 44.5s8.5 29.834 13.5 45.501l16.5 53.5v5c-26.667 -15.333 -45.5 -23 -56.5 -23s-16.667 4 -17 12s3.33398 18.667 11.001 32s17 25.666 28 36.999s22.333 20.333 34 27s20.834 7.66699 27.501 3
c8 0 14.5 -1.33301 19.5 -4s10.5 -6.66699 16.5 -12c15.333 12 29.666 21.667 42.999 29s29.333 11 48 11c29.333 0 51.5 -6.66699 66.5 -20s25.833 -34.666 32.5 -63.999l31 31.5c9.33301 9.66699 19.5 18 30.5 25s22.833 12.333 35.5 16s27 5.5 43 5.5
c13.333 0 26.333 -5 39 -15s21.667 -21 27 -33v-18v-19c0 -22.667 -2.66699 -44.5 -8 -65.5s-8 -42.5 -8 -64.5c0 -9.33301 1.16699 -18.833 3.5 -28.5s9.5 -14.5 21.5 -14.5c16 0 30.5 3.33301 43.5 10s25 14.834 36 24.501s21 20.167 30 31.5l25 31.5
c7.66699 9.66699 14.834 17.834 21.501 24.501s13.334 10 20.001 10c4.66699 0 9.83398 -1.83301 15.501 -5.5s8.5 -8.16699 8.5 -13.5c0 -0.666992 -0.166992 -1.66699 -0.5 -3s-0.5 -2.33301 -0.5 -3c-6.66699 -20.667 -16.334 -40.334 -29.001 -59.001
s-27.334 -35.167 -44.001 -49.5s-35.167 -25.666 -55.5 -33.999s-41.833 -12.5 -64.5 -12.5c-21.333 0 -39.333 2.83301 -54 8.5s-26 18.834 -34 39.501c0 2 -0.166992 6.5 -0.5 13.5s-0.5 11.167 -0.5 12.5c0 25.333 2.5 49.666 7.5 72.999s7.5 47 7.5 71
c0 2 -0.166992 6.33301 -0.5 13s-0.5 11 -0.5 13c-2.66699 3.33301 -6.83398 5 -12.501 5h-15.5c-14 0 -27.333 -5 -40 -15s-24.334 -22.667 -35.001 -38s-20.167 -32.5 -28.5 -51.5s-15.5 -38 -21.5 -57s-10.833 -36.667 -14.5 -53s-5.83398 -29.833 -6.50098 -40.5
l-11 -10h-34c-6 0 -9.16699 3.16699 -9.5 9.5s-0.5 11.166 -0.5 14.499c0 16 1.16699 32.167 3.5 48.5s5 32.666 8 48.999s5.83301 32.833 8.5 49.5s4.33398 33 5.00098 49c-0.666992 5.33301 -1.33398 11.166 -2.00098 17.499s-2 12.166 -4 17.499s-5 9.83301 -9 13.5
s-9.66699 5.5 -17 5.5c-10.667 0 -21 -2 -31 -6s-19.167 -9.16699 -27.5 -15.5s-15.666 -14 -21.999 -23s-10.833 -18.833 -13.5 -29.5l-60 -194l-9 -10l-6 -0.5c-4 -0.333008 -7 -0.5 -9 -0.5c-7.33301 0 -14.833 0.833008 -22.5 2.5s-11.5 7.83398 -11.5 18.501v4z" />
    <glyph glyph-name="n" unicode="n" horiz-adv-x="461" 
d="M9 20l34.001 199.997v28l20 133c2 2.66699 5.66699 4.16699 11 4.5s9 0.5 11 0.5c5.33301 0 11.5 -1.83301 18.5 -5.5s10.5 -8.5 10.5 -14.5v-68c2.66699 2 7.33398 6 14.001 12l21.5 19l21.5 19c6.66699 6 11 10.333 13 13c7.33301 6.66699 16.166 12.334 26.499 17.001
s20.166 7 29.499 7c19.333 0 34.5 -6 45.5 -18s16.5 -27.333 16.5 -46c0 -1.33301 -0.166992 -2.16602 -0.5 -2.49902s-0.5 -1.16602 -0.5 -2.49902v-4l-38 -171v-81c20.667 0 42.167 4.16699 64.5 12.5s43.833 18.833 64.5 31.5s40 27.167 58 43.5s33.667 32.166 47 47.499
h4c4.66699 0 8.5 -1.5 11.5 -4.5s4.5 -6.83301 4.5 -11.5c0 -14.667 -4.83301 -29.167 -14.5 -43.5s-22 -27.833 -37 -40.5s-32.333 -24.667 -52 -36s-39 -21 -58 -29s-37.5 -14.333 -55.5 -19s-33.333 -7 -46 -7s-22.667 2.33301 -30 7s-12.833 10.834 -16.5 18.501
s-6 16.167 -7 25.5s-1.5 19.333 -1.5 30v13l39 194v33c-16 0 -31.833 -7 -47.5 -21s-29.667 -31 -42 -51s-23 -40.333 -32 -61s-15.5 -37.667 -19.5 -51c-1.33301 -4.66699 -3.33301 -13 -6 -25s-5.16699 -24.667 -7.5 -38l-6.5 -38c-2 -12 -3.33301 -20.667 -4 -26
c0.666992 -4 -0.5 -7 -3.5 -9s-6.5 -3.5 -10.5 -4.5s-8.16699 -1.5 -12.5 -1.5h-10.5c-6 0 -12 1 -18 3s-9 7 -9 15v3z" />
    <glyph glyph-name="o" unicode="o" horiz-adv-x="484" 
d="M16 78c0 0.666992 0.332031 3.00293 0.999023 7.00293l2 12.5c0.666992 4.33301 1.33398 8.33301 2.00098 12s1 6.16699 1 7.5v4v6l14 63c11.333 24 23.166 47 35.499 69s26.5 41.333 42.5 58s34.5 30 55.5 40s46.5 15 76.5 15c6 0 13.5 -1.83301 22.5 -5.5
s18 -8.16699 27 -13.5s17.333 -10.833 25 -16.5s13.5 -10.834 17.5 -15.501c20.667 3.33301 35.667 5.16602 45 5.49902s17.333 0.666016 24 0.999023s13.834 1.5 21.501 3.5s19.5 6.33301 35.5 13c11.333 3.33301 22.333 5 33 5c4.66699 0 9.16699 -2 13.5 -6
s6.5 -8.66699 6.5 -14c0 -6.66699 -2.33301 -12.667 -7 -18s-10.334 -8.66602 -17.001 -9.99902l-125 -28l-11 -5c-0.666992 -36 -8.66699 -70.333 -24 -103s-35.666 -61.334 -60.999 -86.001s-54.666 -44.167 -87.999 -58.5s-68 -21.5 -104 -21.5
c-2.66699 0 -7 0.166992 -13 0.5s-10 0.5 -12 0.5c-14.667 6 -24.834 17 -30.501 33s-8.5 31 -8.5 45zM79.999 58.0029c0.666992 -3.33301 3.33398 -5.00195 8.00098 -5.00195h10c24 0 48.667 6.16699 74 18.5s48.166 28.333 68.499 48s37 42 50 67s19.5 50.167 19.5 75.5
c-21.333 0 -42.666 1.83301 -63.999 5.5s-42 5.5 -62 5.5h-1l-83 -88c-4.66699 -4.66699 -8.33398 -11 -11.001 -19s-4.66699 -16.667 -6 -26s-2.33301 -18.666 -3 -27.999s-1 -17.666 -1 -24.999v-14c0 -7.33301 0.333008 -12.333 1 -15z" />
    <glyph glyph-name="p" unicode="p" horiz-adv-x="418" 
d="M-31 -213c0 19.333 2.33496 40.834 7.00195 64.501s9.66699 47.334 15 71.001l15 69.5c4.66699 22.667 7 44 7 64v8l24 67c8.66699 19.333 18.667 39.333 30 60s24.166 39.834 38.499 57.501s30.833 32.667 49.5 45s39.667 20.166 63 23.499
c8 1.33301 16.667 -0.166992 26 -4.5s18.166 -9.83301 26.499 -16.5s15.166 -14.334 20.499 -23.001s8.66602 -17 9.99902 -25v-8v-13v-13v-9c0 -18.667 -2.66699 -36.667 -8 -54s-8 -34 -8 -50v-3c2 1.33301 6.66699 3.66602 14 6.99902s15.833 7 25.5 11l32 13l33.5 13
c10.667 4 20.167 7.16699 28.5 9.5s14.166 3.5 17.499 3.5c8 0 12.833 -1.16699 14.5 -3.5s2.5 -6.16602 2.5 -11.499c0 -7.33301 -4.33301 -14.666 -13 -21.999s-19.834 -14.333 -33.501 -21s-28.667 -12.834 -45 -18.501s-32 -10.834 -47 -15.501
s-28.167 -9.16699 -39.5 -13.5s-19 -7.5 -23 -9.5c-7.33301 -5.33301 -14.166 -11 -20.499 -17s-12.833 -11.333 -19.5 -16s-13.667 -8.66699 -21 -12s-15.666 -5 -24.999 -5c-14 0 -27.5 3.83301 -40.5 11.5s-24.833 15.5 -35.5 23.5l-5 -4
c0 -0.666992 -2.16699 -9.66699 -6.5 -27l-15 -60.5l-17 -68.5l-13.5 -53c-1.33301 -7.33301 -2.33301 -14.833 -3 -22.5s-2.16699 -15 -4.5 -22s-6.16602 -12.833 -11.499 -17.5s-12.666 -7 -21.999 -7h-13c-4 8 -6.66699 15.167 -8 21.5s-2 13.833 -2 22.5z
M103.002 82.001c7.33301 -4.66699 14.998 -7.33398 22.998 -8.00098s15.833 -0.5 23.5 0.5s15.334 2.5 23.001 4.5s15.167 3 22.5 3c1.33301 0 4.33301 0.166992 9 0.5s7.33398 0.5 8.00098 0.5c8 4 14.333 11.333 19 22s8.16699 22 10.5 34s3.83301 23.833 4.5 35.5
s1 20.834 1 27.501c0 6 -0.333008 12.333 -1 19s-2.16699 12.834 -4.5 18.501s-5.5 10.5 -9.5 14.5s-9.66699 6 -17 6c-1.33301 0 -3.5 -0.166992 -6.5 -0.5s-5.16699 -0.5 -6.5 -0.5c-2.66699 -8 -8.16699 -18.833 -16.5 -32.5l-26 -42.5
c-9 -14.667 -17.167 -28.834 -24.5 -42.501s-11 -24.167 -11 -31.5z" />
    <glyph glyph-name="q" unicode="q" horiz-adv-x="511" 
d="M154 -268c-2.66699 37.333 -4.33301 75.332 -5 113.999s-0.666992 77 0 115c-10.667 8.66699 -18.334 15.834 -23.001 21.501s-7 14.5 -7 26.5c0 14.667 3.33301 23.667 10 27s16.667 5 30 5c0 11.333 0.666992 22.166 2 32.499s2 21.166 2 32.499
c-8 0 -16 -1.83301 -24 -5.5l-25 -11l-26.5 -11c-9 -3.66699 -18.5 -5.5 -28.5 -5.5s-18.167 2.5 -24.5 7.5s-11.166 11.5 -14.499 19.5s-5.33301 16.5 -6 25.5s-1 17.167 -1 24.5c0 10.667 0.666992 22 2 34s2 25.333 2 40c35.333 54 66.5 95 93.5 123
s50.5 46.833 70.5 56.5s36.5 12.334 49.5 8.00098s23.5 -11.833 31.5 -22.5s13.667 -22.334 17 -35.001s5.33301 -22.667 6 -30c0 -25.333 -3.66699 -49.666 -11 -72.999s-15.666 -46.666 -24.999 -69.999s-17.833 -47.5 -25.5 -72.5s-11.5 -51.167 -11.5 -78.5v-6
l82.5 18.5c28.333 6.33301 56.5 14.333 84.5 24s54.667 21.167 80 34.5s47.666 30 66.999 50l1.5 0.5c1 0.333008 1.83301 0.5 2.5 0.5c6 0 10.833 -2.16699 14.5 -6.5s5.5 -9.5 5.5 -15.5c0 -12 -6.66699 -23.5 -20 -34.5s-30.5 -21.667 -51.5 -32
s-44.167 -20.166 -69.5 -29.499l-75 -27l-68 -24.5c-20.667 -7.66699 -36.667 -14.834 -48 -21.501l5.5 -18.5c2.33301 -7.66699 4.16602 -15.667 5.49902 -24s2.33301 -16 3 -23s0.666992 -12.833 0 -17.5l-25 -146c-0.666992 -4.66699 -4.66699 -8.5 -12 -11.5
s-13.666 -4.5 -18.999 -4.5s-10 1.16699 -14 3.5s-6.66699 6.5 -8 12.5zM71.001 125.999c0.666992 -0.666992 2.16797 -1.66797 4.50098 -3.00098s4.16602 -2 5.49902 -2c18.667 0 35.834 6.66699 51.501 20s29.5 29.333 41.5 48s22 38 30 58s14 37 18 51
c0.666992 1.33301 1.16699 3.33301 1.5 6s0.5 4.66699 0.5 6c5.33301 20.667 6.66602 35.334 3.99902 44.001s-12.667 7.66699 -30 -3h-7c-4.66699 0 -6.5 -0.333008 -5.5 -1s-0.5 -3 -4.5 -7l-18 -14.5l-27.5 -23c-9.66699 -8.33301 -19 -16 -28 -23
s-14.833 -11.833 -17.5 -14.5c-5.33301 -7.33301 -9.33301 -15.5 -12 -24.5s-4.66699 -18.333 -6 -28s-2 -19.5 -2 -29.5v-28c0 -2 0.166992 -7.16699 0.5 -15.5s0.5 -13.833 0.5 -16.5z" />
    <glyph glyph-name="r" unicode="r" horiz-adv-x="454" 
d="M-22 119c18.667 14 32.502 27.6689 41.502 41.002s16.167 26.666 21.5 39.999s9.66602 27.5 12.999 42.5s8.66602 31.5 15.999 49.5c-2.66699 4.66699 -4.16699 8.83398 -4.5 12.501s-0.5 8.16699 -0.5 13.5s0.833008 11.666 2.5 18.999s4.16699 14.166 7.5 20.499
s7.33301 11.833 12 16.5s10.334 7 17.001 7c-0.666992 -2.66699 3.16602 -5.66699 11.499 -9s18.666 -7 30.999 -11l39.5 -13c14 -4.66699 26.333 -9.66699 37 -15c12 -6.66699 20.5 -13.834 25.5 -21.501s7.5 -18.5 7.5 -32.5c0 -12.667 -1.5 -27 -4.5 -43l-9 -48.5l-9 -49
c-3 -16.333 -4.5 -31.166 -4.5 -44.499v-26c-0.666992 -6 0.833008 -9.16699 4.5 -9.5s7.16699 -0.5 10.5 -0.5c8 0 15.333 1.33301 22 4s13.5 5.66699 20.5 9l20.5 9.5c6.66699 3 13.667 5.16699 21 6.5l88 54c2.66699 4.66699 6.16699 8.5 10.5 11.5l12.5 8.5
c6.66699 4 14.667 9.66699 24 17c4.66699 4 9.66699 8 15 12h30c2 0 3.33301 -2 4 -6s1 -7 1 -9c0 -8 -5.66699 -18 -17 -30s-26 -24.333 -44 -37s-38 -25.167 -60 -37.5s-43.5 -23.5 -64.5 -33.5s-40.333 -18 -58 -24s-31.167 -9 -40.5 -9c-12 0 -21.667 3 -29 9
s-13.333 13.333 -18 22s-7.83398 18.167 -9.50098 28.5s-2.5 20.5 -2.5 30.5c0 7.33301 2.33301 17.666 7 30.999s10 27 16 41s11.333 27.667 16 41s7 24 7 32c0 0.666992 -4.83301 3.33398 -14.5 8.00098l-31.5 15.5c-11.333 5.66699 -21.833 10.667 -31.5 15
s-14.5 6.83301 -14.5 7.5c-14.667 -15.333 -24.834 -31.666 -30.501 -48.999l-17 -54c-5.66699 -18.667 -14 -37.334 -25 -56.001s-29.5 -37 -55.5 -55c-0.666992 0 -2.16699 0.333008 -4.5 1s-4.66602 2.5 -6.99902 5.5s-4.16602 7.66699 -5.49902 14
s-1.66602 15.5 -0.999023 27.5z" />
    <glyph glyph-name="s" unicode="s" horiz-adv-x="465" 
d="M57 141c-5.33301 -2.66699 -11.0029 -4.16699 -17.0029 -4.5s-12 -0.5 -18 -0.5s-12 -0.166992 -18 -0.5s-12 -1.83301 -18 -4.5c-11.333 -1.33301 -18.666 -0.5 -21.999 2.5s-4.33301 7.16699 -3 12.5s5 11.333 11 18s12.833 12.334 20.5 17.001s16 8 25 10
s17.167 1.66699 24.5 -1c-3.33301 12 -3 22.333 1 31s12 13 24 13c6 0 11.5 -0.5 16.5 -1.5s8.83301 -3.83301 11.5 -8.5c10 6 23.333 16.167 40 30.5l51.5 44l48.5 40c14.667 11.667 24.667 17.5 30 17.5c2 0 4.66699 -0.166992 8 -0.5s6.83301 -1.16602 10.5 -2.49902
s6.66699 -2.83301 9 -4.5s3.5 -4.16699 3.5 -7.5v-43l-13.5 -52.5c-4.33301 -16.333 -8 -32.333 -11 -48s-5.16699 -31.5 -6.5 -47.5s-2 -33 -2 -51c10.667 0 23.5 2.33301 38.5 7s30.167 10.334 45.5 17.001s29.666 13.5 42.999 20.5s24 12.833 32 17.5
c1.33301 0.666992 4.33301 3 9 7l15 12.5c5.33301 4.33301 10.5 8.33301 15.5 12s8.16699 6.16699 9.5 7.5s4.66602 3.16602 9.99902 5.49902s8.33301 3.83301 9 4.5c2.66699 0.666992 5.16699 -0.166016 7.5 -2.49902s4.5 -5 6.5 -8s3.5 -6 4.5 -9s1.5 -4.83301 1.5 -5.5
c0 -6.66699 -2.66699 -13.334 -8 -20.001s-11.666 -12.834 -18.999 -18.501s-14.833 -11 -22.5 -16s-13.5 -9.5 -17.5 -13.5c-5.33301 -2.66699 -14.5 -7 -27.5 -13l-41.5 -19l-41.5 -19c-13 -6 -22.167 -10.333 -27.5 -13c-1.33301 -0.666992 -4.33301 -1.5 -9 -2.5
s-9.66699 -2.5 -15 -4.5s-10.5 -3.5 -15.5 -4.5s-8.16699 -1.83301 -9.5 -2.5c-6 -2 -10.5 -5.33301 -13.5 -10l-9 -14c-3 -4.66699 -6.66699 -8.66699 -11 -12s-11.166 -4.33301 -20.499 -3c-0.666992 0.666992 -3.5 2.16699 -8.5 4.5s-8.16699 4.16602 -9.5 5.49902
c-16 11.333 -29.667 22 -41 32s-21.666 19.833 -30.999 29.5s-18.166 20.167 -26.499 31.5zM119.997 181l13.4971 -29.0039c4.33301 -9.33301 9.5 -18.166 15.5 -26.499s12.833 -15.5 20.5 -21.5s17.167 -9.66699 28.5 -11l5 36c2 14 4.33301 28.667 7 44
s5.83398 30.5 9.50098 45.5s7.83398 28.167 12.501 39.5h-10c-10.667 -7.33301 -20.667 -14.666 -30 -21.999l-26 -19.5c-8.66699 -6.33301 -15.667 -11.833 -21 -16.5l-3 -3c-1.33301 -1.33301 -2.33301 -2 -3 -2c-0.666992 -1.33301 -3.66699 -3.66602 -9 -6.99902
s-8.66602 -5.66602 -9.99902 -6.99902zM231.994 272.996c-2 0 -3 -1.5 -3 -4.5s1 -4.5 3 -4.5c2.66699 0 4 1.5 4 4.5s-1.33301 4.5 -4 4.5z" />
    <glyph glyph-name="t" unicode="t" horiz-adv-x="282" 
d="M31 268c1.33301 2.66699 4.00098 6.83301 8.00098 12.5s6 10.5 6 14.5v3c0 0.666992 -0.666992 1.5 -2 2.5s-2.33301 1.5 -3 1.5h-18c-17.333 -5.33301 -36.833 -9 -58.5 -11s-42.667 -2.66699 -63 -2s-37.833 2.5 -52.5 5.5s-23.334 6.5 -26.001 10.5
s2.33301 8.83301 15 14.5s36.667 11.5 72 17.5c2 0 6.5 0.833008 13.5 2.5s14.667 3.16699 23 4.5s16.166 2.83301 23.499 4.5s12 2.5 14 2.5c2.66699 0.666992 8.33398 1.16699 17.001 1.5s17.5 0.833008 26.5 1.5s17.667 1 26 1h17.5l5 6l78 131
c2.66699 4.66699 7.5 8.33398 14.5 11.001s12.5 4 16.5 4c8.66699 0 14.667 -3.5 18 -10.5s5 -13.833 5 -20.5c0 -0.666992 -0.166992 -1.33398 -0.5 -2.00098s-0.5 -1.33398 -0.5 -2.00098v-4l-44 -107v-6c1.33301 4 3.83301 6 7.5 6h8.5c10 0 19.667 -3.33301 29 -10
s14 -15.667 14 -27c0 -5.33301 -1.66699 -9.66602 -5 -12.999s-7.33301 -6 -12 -8s-9.66699 -3.5 -15 -4.5s-10 -1.5 -14 -1.5c-8 0 -15.5 1 -22.5 3s-14.5 3 -22.5 3c-7.33301 0 -14 -3.83301 -20 -11.5s-11.5 -17.667 -16.5 -30s-9.16699 -26.166 -12.5 -41.499
s-6.33301 -30.333 -9 -45s-4.5 -28.334 -5.5 -41.001s-1.5 -22.334 -1.5 -29.001c0 -2.66699 0.166992 -8 0.5 -16s0.5 -13.333 0.5 -16c0.666992 -4 2.33398 -7.5 5.00098 -10.5s5.33398 -6.16699 8.00098 -9.5h23c26.667 0 53.167 6 79.5 18s51.166 25.667 74.499 41
c1.33301 0.666992 4.5 3.83398 9.5 9.50098s10.5 11.334 16.5 17.001l16.5 15.5c5 4.66699 8.5 7 10.5 7c4.66699 0 9 -2.33301 13 -7s6 -9.66699 6 -15c0 -12.667 -4.5 -25 -13.5 -37s-20.5 -23.167 -34.5 -33.5s-30 -19.833 -48 -28.5s-35.833 -16 -53.5 -22
s-34.334 -10.667 -50.001 -14s-28.5 -5 -38.5 -5c-9.33301 0 -19 1.16699 -29 3.5s-19 6.16602 -27 11.499s-14.667 12 -20 20s-8 18 -8 30v111z" />
    <glyph glyph-name="u" unicode="u" horiz-adv-x="640" 
d="M5 108c2.66699 9.33301 4.50195 18.999 5.50195 28.999s2.33301 20.667 4 32s4.66699 24.166 9 38.499s11.166 30.5 20.499 48.5s21.833 38.833 37.5 62.5s36.167 50.834 61.5 81.501c2.66699 4 6 7.5 10 10.5s8.33301 4.5 13 4.5c8 0 15 -3.16699 21 -9.5
s9 -13.166 9 -20.499c0 -0.666992 -0.5 -2.83398 -1.5 -6.50098s-1.83301 -6.16699 -2.5 -7.5c-7.33301 -15.333 -14.333 -29 -21 -41s-13.667 -23.5 -21 -34.5s-15.5 -22.5 -24.5 -34.5l-31.5 -41c-8 -20 -15 -38.667 -21 -56s-9 -36.666 -9 -57.999
c0 -10.667 0.5 -19.334 1.5 -26.001s4.16699 -15.667 9.5 -27h11c19.333 0 41.5 7.83301 66.5 23.5s49.667 34.334 74 56.001s46.5 43.834 66.5 66.501s34.667 41 44 55c1.33301 1.33301 3.16602 4.5 5.49902 9.5s3.83301 8.16699 4.5 9.5l7 20.5l10.5 30.5l10.5 30.5
l7 20.5c1.33301 6 4 9.33301 8 10s8 1 12 1c12 0 19.667 -2.5 23 -7.5s5 -13.167 5 -24.5v-17c-6.66699 -18 -12.5 -34.667 -17.5 -50s-9.66699 -30.333 -14 -45s-7.5 -29.334 -9.5 -44.001s-3 -30.667 -3 -48c0 -2 -0.166992 -6.66699 -0.5 -14s0 -14.833 1 -22.5
s3 -14.667 6 -21s7.5 -9.5 13.5 -9.5c16 0 32.5 2.16699 49.5 6.5s34.167 10 51.5 17s33.833 14.833 49.5 23.5s30.5 17.334 44.5 26.001c3.33301 1.33301 7.33301 4.33301 12 9s9.66699 9.16699 15 13.5s10.666 8.16602 15.999 11.499s10.333 5 15 5
c13.333 0 20 -6.66699 20 -20c0 -10 -6 -20.5 -18 -31.5s-27.167 -21.833 -45.5 -32.5s-38.833 -20.667 -61.5 -30s-44.5 -17.5 -65.5 -24.5s-39.833 -12.667 -56.5 -17s-28.667 -6.5 -36 -6.5c-2.66699 0 -7.5 0.166992 -14.5 0.5s-11.833 0.5 -14.5 0.5
c-10.667 2.66699 -19 8.66699 -25 18s-10.5 19.833 -13.5 31.5s-4.83301 23.334 -5.5 35.001s-1 21.167 -1 28.5c-2 -1.33301 -4.5 -2.83301 -7.5 -4.5s-4.83301 -3.5 -5.5 -5.5c-5.33301 -4.66699 -14.166 -11.834 -26.499 -21.501l-40 -31l-40 -30.5
c-12.333 -9.33301 -20.833 -16 -25.5 -20c-13.333 -10 -28 -18.333 -44 -25s-32.333 -10 -49 -10c-17.333 0 -31 2.83301 -41 8.5s-17.833 13.334 -23.5 23.001s-9.5 21.167 -11.5 34.5s-3 27.666 -3 42.999z" />
    <glyph glyph-name="v" unicode="v" horiz-adv-x="541" 
d="M21 107l30 137.999c2.66699 22 6.5 43.833 11.5 65.5s11 40.834 18 57.501s14.5 30.334 22.5 41.001s16.333 16 25 16c10 0 17.333 -4.16699 22 -12.5s7 -16.833 7 -25.5v-12l-68 -219c-4 -14 -6.83301 -26.333 -8.5 -37s-2.5 -22.667 -2.5 -36
c0 -2 -0.166992 -4.66699 -0.5 -8s-0.166016 -6.66602 0.500977 -9.99902s1.83398 -6.16602 3.50098 -8.49902s3.83398 -3.5 6.50098 -3.5c6.66699 0 14.167 1.66699 22.5 5s16.833 7.16602 25.5 11.499s16.667 8.66602 24 12.999s13 7.83301 17 10.5
c15.333 9.33301 29.333 19 42 29s24.667 20.333 36 31s22 22.167 32 34.5s20.333 26.166 31 41.499c3.33301 6 7.33301 14.833 12 26.5s9.66699 25 15 40l16 45.5c5.33301 15.333 10.666 29.666 15.999 42.999s10.666 24.166 15.999 32.499s10.666 12.5 15.999 12.5
c6.66699 0 11.5 -1.16699 14.5 -3.5s5.33301 -5.5 7 -9.5s3 -8.33301 4 -13s2.5 -9 4.5 -13c0.666992 -0.666992 2.33398 -1.5 5.00098 -2.5s4.66699 -1.83301 6 -2.5c6.66699 -2 10.167 -3.66699 10.5 -5s0.166016 -2.83301 -0.500977 -4.5s-0.666992 -2.66699 0 -3
s4.33398 -0.5 11.001 -0.5h3c8 0.666992 18.167 1.83398 30.5 3.50098s24.166 3.16699 35.499 4.5s21.166 2.66602 29.499 3.99902l12.5 2l20 -43c-19.333 -5.33301 -35.666 -9.5 -48.999 -12.5s-26.166 -5.16699 -38.499 -6.5s-25.333 -1.66602 -39 -0.999023
s-30.167 1.66699 -49.5 3l-6 -5c-12.667 -31.333 -25.5 -60.166 -38.5 -86.499s-28.167 -50.666 -45.5 -72.999s-36.833 -43.333 -58.5 -63s-47.167 -37.834 -76.5 -54.501c-18.667 -10.667 -37.667 -20.834 -57 -30.501s-39.333 -14.5 -60 -14.5
c-12.667 0 -23.167 2.33301 -31.5 7s-14.833 10.834 -19.5 18.501s-7.83398 16.667 -9.50098 27s-2.5 20.833 -2.5 31.5v24z" />
    <glyph glyph-name="w" unicode="w" horiz-adv-x="757" 
d="M14 57c0 23.333 2.66602 45.998 7.99902 67.998s12.666 43.667 21.999 65c6 22.667 12.667 43.834 20 63.501s14.833 36.667 22.5 51s15.5 25.666 23.5 33.999s16.333 12.5 25 12.5s15.167 -2.5 19.5 -7.5s6.5 -11.833 6.5 -20.5v-6l-49 -117
c-0.666992 -1.33301 -2.33398 -3.83301 -5.00098 -7.5s-4 -6.16699 -4 -7.5v-4c-1.33301 -3.33301 -3.16602 -8.66602 -5.49902 -15.999l-7.5 -23.5l-7.5 -23.5c-2.33301 -7.33301 -3.83301 -12.333 -4.5 -15c-1.33301 -3.33301 -2.33301 -8.66602 -3 -15.999s-1 -12 -1 -14
c0 -1.33301 0.333008 -3.83301 1 -7.5s1.66699 -6.16699 3 -7.5c25.333 10 52.5 25.167 81.5 45.5s56.833 43.166 83.5 68.499s50.5 51.833 71.5 79.5s36.5 54.5 46.5 80.5c1.33301 0.666992 4.66602 1.66699 9.99902 3s8.66602 2 9.99902 2h2.5h2.5
c6.66699 0 12.5 -3 17.5 -9s7.5 -12 7.5 -18c0 -0.666992 -0.166992 -2 -0.5 -4s-0.5 -3.33301 -0.5 -4c-12 -28.667 -22.333 -56 -31 -82s-13 -54 -13 -84c0 -12.667 0.5 -22.834 1.5 -30.501s3.83301 -18.5 8.5 -32.5c0.666992 -3.33301 2.16699 -5 4.5 -5h6.5
c20 0 40 7.66699 60 23s38.167 34.166 54.5 56.499s29.5 45.833 39.5 70.5s15 46.334 15 65.001c0 10 -0.833008 19.5 -2.5 28.5s-2.5 18.167 -2.5 27.5c0 8.66699 2.33301 16.334 7 23.001s11.334 10 20.001 10c6 0 11.667 -1.83301 17 -5.5s10.5 -7.83398 15.5 -12.501
s10.167 -9 15.5 -13s11.333 -7 18 -9h37.5h21c5 0 9.16699 0.5 12.5 1.5s7.33301 2.66699 12 5l19.5 9.5l33.5 16c0.666992 0.666992 2 1 4 1h4c6 0 11.333 -2 16 -6s7 -9.33301 7 -16c0 -7.33301 -1.83301 -13.166 -5.5 -17.499s-8.16699 -8 -13.5 -11
s-11.166 -5.66699 -17.499 -8s-12.166 -4.16602 -17.499 -5.49902c-15.333 -6 -27.166 -10.167 -35.499 -12.5s-14.666 -4 -18.999 -5s-7.83301 -1.66699 -10.5 -2s-6.5 -0.5 -11.5 -0.5s-11.667 -0.166992 -20 -0.5s-20.166 -1.16602 -35.499 -2.49902
c-1.33301 0 -3.16602 -0.666992 -5.49902 -2s-3.83301 -2.33301 -4.5 -3c-4 -30 -13.167 -60.5 -27.5 -91.5s-32.833 -59.333 -55.5 -85s-48.834 -46.5 -78.501 -62.5s-60.5 -24 -92.5 -24c-6.66699 0 -12.834 2.83301 -18.501 8.5s-10.667 12.167 -15 19.5
s-7.83301 14.833 -10.5 22.5s-4.33398 13.5 -5.00098 17.5c-0.666992 2.66699 -1.5 7.66699 -2.5 15s-2 15.333 -3 24s-2 16.5 -3 23.5s-1.5 12.167 -1.5 15.5c-12 -12.667 -27.667 -27.834 -47 -45.501s-40.333 -34.667 -63 -51s-45.5 -30.333 -68.5 -42
s-43.833 -17.5 -62.5 -17.5c-17.333 0 -29.5 6 -36.5 18s-10.5 25 -10.5 39z" />
    <glyph glyph-name="x" unicode="x" horiz-adv-x="588" 
d="M7 20l0.00488281 9.50098c0 3 1.66699 6.16699 5 9.5l47 50.5c14.667 15 29.5 28.667 44.5 41s30.5 24.333 46.5 36l52 37.5c1.33301 0.666992 3.16602 2.33398 5.49902 5.00098s3.83301 4.66699 4.5 6c1.33301 6 3 14.167 5 24.5s3.66699 21.5 5 33.5l4 36.5
c1.33301 12.333 2 23.5 2 33.5c0 4 -0.166992 8.5 -0.5 13.5s-3.5 8.16699 -9.5 9.5c-0.666992 0 -2.33398 -0.666992 -5.00098 -2l-6 -3l-146 -117l-5 -6l5 74c10.667 8 23 18.5 37 31.5s28.833 25.5 44.5 37.5s31.667 22.333 48 31s32.166 13 47.499 13
c11.333 0 20.166 -2.66699 26.499 -8s11 -12.166 14 -20.499s4.83301 -17.333 5.5 -27s1 -18.834 1 -27.501c0 -15.333 -0.833008 -30.333 -2.5 -45s-2.5 -29 -2.5 -43v-6c5.33301 2.66699 14 7.33398 26 14.001l38 20.5l38 20c12 6.33301 20.667 11.166 26 14.499
c1.33301 0.666992 3.83301 2.33398 7.5 5.00098s7.5 5.66699 11.5 9l11.5 9.5c3.66699 3 6.16699 4.83301 7.5 5.5h6c3.33301 0 7 -1.16699 11 -3.5s7.66699 -5.16602 11 -8.49902s6.16602 -6.83301 8.49902 -10.5s3.5 -7.5 3.5 -11.5c0 -2 -0.333008 -4.5 -1 -7.5
s-2 -5.16699 -4 -6.5l-201 -113c-4 -2 -5.83301 -4.16699 -5.5 -6.5s0.5 -5.83301 0.5 -10.5c0 -16.667 2.83301 -30.167 8.5 -40.5s13 -18.5 22 -24.5s20 -10.167 33 -12.5s26.833 -3.5 41.5 -3.5c10 0 21 1.16699 33 3.5s23 3.16602 33 2.49902
c3.33301 0.666992 8.83301 2 16.5 4s16 4.33301 25 7l25.5 7.5c8 2.33301 13.333 4.16602 16 5.49902c5.33301 2.66699 11.666 6.83398 18.999 12.501l22.5 18c7.66699 6.33301 15.334 11.833 23.001 16.5s14.834 7 21.501 7c11.333 0 17 -5.66699 17 -17
c0 -12.667 -5.16699 -24.334 -15.5 -35.001s-23.333 -20.5 -39 -29.5s-33 -16.833 -52 -23.5s-37.833 -12.5 -56.5 -17.5s-35.5 -8.66699 -50.5 -11s-26.5 -3.5 -34.5 -3.5c-21.333 0 -41.5 1.66699 -60.5 5s-36 9.33301 -51 18s-27.667 20.167 -38 34.5
s-17.833 32.833 -22.5 55.5c-34 -18 -66.667 -40.333 -98 -67s-60.333 -53.334 -87 -80.001c-0.666992 -0.666992 -1.33398 -1 -2.00098 -1h-3c-6 0 -10 2.16699 -12 6.5s-3 9.16602 -3 14.499z" />
    <glyph glyph-name="y" unicode="y" horiz-adv-x="513" 
d="M-33 -252c0 43.333 9.50391 83.1729 28.5039 119.506s43.333 69.333 73 99s62.667 56.167 99 79.5s71.833 43.666 106.5 60.999l29 93c-3.33301 -4 -9.83301 -10.667 -19.5 -20l-30.5 -29.5l-31 -29c-10 -9 -17 -15.167 -21 -18.5
c-8 -6.66699 -17.667 -14.334 -29 -23.001s-23.5 -16.834 -36.5 -24.501s-26.167 -14 -39.5 -19s-25.333 -7.5 -36 -7.5c-14.667 0 -24.167 3.5 -28.5 10.5s-6.5 17.167 -6.5 30.5c0 10.667 0.833008 21.667 2.5 33s1.16699 22.666 -1.5 33.999l39 106
c6 6 11.833 15.333 17.5 28l17 38c5.66699 12.667 11.667 23.667 18 33s13.166 14 20.499 14c8 0 14.833 -2.33301 20.5 -7s8.5 -11.334 8.5 -20.001c0 -6.66699 -0.833008 -12.5 -2.5 -17.5s-4.16699 -11.5 -7.5 -19.5l-25.5 -51c-8.33301 -16 -16 -32 -23 -48
s-12.667 -32.5 -17 -49.5s-6.5 -35.833 -6.5 -56.5h4l6 3.5l13.5 8l15.5 9.5l14 9c36.667 24 69 52.167 97 84.5l83 100.5c2.66699 4 5 7 7 9s3.66699 3.5 5 4.5s3 1.5 5 1.5h9c9.33301 0 16.833 -1.83301 22.5 -5.5s9.16699 -11.834 10.5 -24.501
c0.666992 -8.66699 0 -19.167 -2 -31.5s-4.66699 -24.5 -8 -36.5s-6.83301 -23.833 -10.5 -35.5s-6.83398 -20.834 -9.50098 -27.501v-15c1.33301 0.666992 4.5 1.66699 9.5 3s8.5 2.33301 10.5 3c4 0.666992 15 4.33398 33 11.001l58.5 21.5l58.5 21.5
c18 6.66699 29.333 11 34 13h2c4.66699 0 8.83398 -1.66699 12.501 -5s5.5 -7.33301 5.5 -12s-1.5 -8.66699 -4.5 -12s-6.5 -6.16602 -10.5 -8.49902s-8.33301 -4.5 -13 -6.5l-12 -5c-4.66699 -2.66699 -11.334 -5.83398 -20.001 -9.50098l-29.5 -12
c-11 -4.33301 -22.5 -9.16602 -34.5 -14.499l-35 -15l-89 -36l-88 -332c-4 -16 -11.5 -32.667 -22.5 -50s-23.833 -33.333 -38.5 -48s-30.834 -26.5 -48.501 -35.5s-35.5 -13.5 -53.5 -13.5c-18.667 0 -34.667 4.83301 -48 14.5s-24.333 22 -33 37
s-14.834 31.167 -18.501 48.5s-5.5 33.666 -5.5 48.999zM21.0039 -251.993c0 -8.66699 0.833008 -18.334 2.5 -29.001s4.83398 -21 9.50098 -31s10.5 -18.333 17.5 -25s16.167 -10 27.5 -10c14.667 0 28.167 4.5 40.5 13.5s23.333 20 33 33s17.834 26.833 24.501 41.5
s12 27.667 16 39c2 8 5 19.167 9 33.5l11.5 42.5l9.5 37.5c2.66699 11 4 17.5 4 19.5v4l29 126c-26.667 -8.66699 -53.834 -23.334 -81.501 -44.001s-52.834 -44.667 -75.501 -72s-41.167 -56.666 -55.5 -87.999s-21.5 -61.666 -21.5 -90.999z" />
    <glyph glyph-name="z" unicode="z" horiz-adv-x="667" 
d="M151 -468c-0.666992 2.66699 -1.16309 7.49902 -1.49609 14.499s-0.5 12.167 -0.5 15.5c0 16 1.83301 32.5 5.5 49.5s8.66699 34 15 51s13.333 33.333 21 49s15.834 30.834 24.501 45.501l46 77c15.333 24.667 31.5 48.667 48.5 72s34.833 46 53.5 68s39 44 61 66
c0 0.666992 0.166992 2.66699 0.5 6s0.5 5.66602 0.5 6.99902c0 8.66699 -0.833008 18.667 -2.5 30s-4.33398 22 -8.00098 32s-9.16699 18.667 -16.5 26s-16.333 11 -27 11c-16 0 -30.167 -2.16699 -42.5 -6.5s-23.833 -10.5 -34.5 -18.5s-20.834 -17 -30.501 -27l-29.5 -32
c-4.66699 -2 -8.83398 -3.16699 -12.501 -3.5s-7.83398 -0.5 -12.501 -0.5c-8 0 -13.167 2.33301 -15.5 7s-3.5 10.667 -3.5 18v9l93 189c4 8.66699 6.5 17.667 7.5 27s1.5 18.333 1.5 27c-9.33301 0 -20.166 -1.83301 -32.499 -5.5s-20.833 -9.83398 -25.5 -18.501
l-151 -122c-4.66699 -1.33301 -9.16699 -3.5 -13.5 -6.5s-8.33301 -6.16699 -12 -9.5s-7.5 -6.33301 -11.5 -9s-8.33301 -4 -13 -4s-8.33398 1.66699 -11.001 5s-4 7.33301 -4 12c0 9.33301 2.83301 21 8.5 35s13.167 24 22.5 30c5.33301 4.66699 15.166 12.167 29.499 22.5
l45.5 32.5l45.5 32.5c14.333 10.333 24.5 17.166 30.5 20.499c13.333 9.33301 29.833 19 49.5 29s38.834 15 57.501 15c14 0 24.833 -6 32.5 -18s11.5 -24.333 11.5 -37c0 -26 -4.83301 -51 -14.5 -75l-29.5 -70h3h1c2 0 5.83301 0.5 11.5 1.5s12 2 19 3
s13.333 2.16699 19 3.5s9.16699 2 10.5 2h4c17.333 0 31.833 -3.5 43.5 -10.5s21.667 -15.833 30 -26.5s15 -23.167 20 -37.5l14.5 -42.5l44 37c11.333 9.33301 20.833 16.833 28.5 22.5l20.5 15c6 4.33301 13.167 9 21.5 14s18.5 11.667 30.5 20s27.667 19.833 47 34.5
c4.66699 2.66699 10.667 5.83398 18 9.50098s14.666 5.5 21.999 5.5c4.66699 0 8.83398 -3 12.501 -9s5.5 -11.333 5.5 -16c0 -7.33301 -3 -14 -9 -20l-117 -83l-115 -93l-4 -10c-0.666992 -7.33301 -1.66699 -20.666 -3 -39.999s-2.83301 -39.666 -4.5 -60.999
s-3.33398 -41.333 -5.00098 -60l-3.5 -40c-1.33301 -20.667 -5.5 -43 -12.5 -67s-15.833 -48 -26.5 -72s-23.5 -47.333 -38.5 -70s-31.667 -42.667 -50 -60s-38.5 -31.333 -60.5 -42s-45.333 -16 -70 -16c-14.667 0 -27.667 2.83301 -39 8.5s-19.333 16.167 -24 31.5z
M394.004 -73.001l-16.502 -22.002l-23 -30l-21 -28.5c-6.33301 -9 -10.5 -14.5 -12.5 -16.5l-41.5 -68c-14.333 -22.667 -27.166 -46 -38.499 -70s-20.666 -48.5 -27.999 -73.5s-11 -51.167 -11 -78.5c32 0 59 10.667 81 32c52.667 48.667 89.5 103.334 110.5 164.001
s31.5 127.334 31.5 200.001c0 2 -0.166992 5.5 -0.5 10.5s-0.5 8.5 -0.5 10.5z" />
    <glyph glyph-name="braceleft" unicode="{" horiz-adv-x="323" 
d="M40 99c0 26.667 4.50098 51.3379 13.501 74.0049s20.5 43.334 34.5 62.001s29 35.5 45 50.5s30.833 27.833 44.5 38.5l34 27c9 7.33301 13.5 12.333 13.5 15c0 0.666992 -0.166992 2 -0.5 4s-0.5 3.33301 -0.5 4c-2.66699 2 -8.5 5.66699 -17.5 11s-18.5 11.5 -28.5 18.5
s-19 14.333 -27 22s-12 15.5 -12 23.5c0 1.33301 0.166992 4 0.5 8s0.833008 6.66699 1.5 8c16.667 4.66699 32.167 12 46.5 22s26.5 22.333 36.5 37v7.5c0 3.66699 0.166992 7.83398 0.5 12.501s0.5 8.83398 0.5 12.501v8.5c0 27.333 -5.33301 51.333 -16 72
s-23.5 39.5 -38.5 56.5s-31.667 33.333 -50 49s-35.166 32 -50.499 49s-28.333 35.5 -39 55.5s-16 43.333 -16 70c0 22 5.66699 42 17 60s25.666 33.5 42.999 46.5s36.666 23 57.999 30s42 10.5 62 10.5h9c3.33301 0 6.5 -0.333008 9.5 -1s5.66699 -1.83398 8 -3.50098
s3.5 -4.83398 3.5 -9.50098s-3.83301 -9 -11.5 -13s-17.5 -8.16699 -29.5 -12.5s-24.833 -9.33301 -38.5 -15s-26.5 -12.834 -38.5 -21.501s-21.833 -19.5 -29.5 -32.5s-11.5 -28.833 -11.5 -47.5c0 -20.667 5 -39.834 15 -57.501s22.833 -34.334 38.5 -50.001
s32.5 -31.334 50.5 -47.001s34.833 -32.667 50.5 -51s28.5 -38.333 38.5 -60s15 -46.167 15 -73.5v-9.5v-13.5v-13.5v-8.5c-0.666992 -1.33301 -2 -4.33301 -4 -9s-3.66699 -7.33398 -5 -8.00098c-1.33301 -2.66699 -4.33301 -6.66699 -9 -12l-15 -17.5l-15 -17.5
c-4.66699 -5.33301 -8 -9 -10 -11c2 -2.66699 7 -7 15 -13l25.5 -20c9 -7.33301 17.167 -14.666 24.5 -21.999s11 -12.666 11 -15.999c0 -12.667 -4.66699 -24 -14 -34s-21.166 -20 -35.499 -30l-46.5 -33c-16.667 -12 -32.334 -26.667 -47.001 -44
s-27.5 -37.833 -38.5 -61.5s-17.5 -51.834 -19.5 -84.501c-2 -31.333 5.16699 -57.833 21.5 -79.5s36.833 -39.667 61.5 -54s51.334 -26 80.001 -35s54.667 -16.5 78 -22.5v-2c0 -0.666992 0.333008 -1.33398 1 -2.00098c0 -4 -2 -7 -6 -9s-8.33301 -3.33301 -13 -4
s-9.33398 -0.833984 -14.001 -0.500977s-7.66699 0.5 -9 0.5c-32.667 0 -64.167 5 -94.5 15s-57 24.167 -80 42.5s-41.5 40.833 -55.5 67.5s-21 57 -21 91z" />
    <glyph glyph-name="bar" unicode="|" horiz-adv-x="175" 
d="M41 1046c-0.666992 11.333 -3.00293 19.333 -7.00293 24s-11.667 7 -23 7c0 11.333 3 22.666 9 33.999s13 20.333 21 27h2.5h2.5c2.66699 0 5.66699 -1.33301 9 -4s6.33301 -5.66699 9 -9s5 -7 7 -11s3.33301 -7.33301 4 -10s1.83398 -8 3.50098 -16
s3.33398 -16.5 5.00098 -25.5l4.5 -25c1.33301 -7.66699 2.33301 -13.167 3 -16.5l3 -44c1.33301 -20 3 -42.5 5 -67.5s3.83301 -51.5 5.5 -79.5s3.33398 -54.333 5.00098 -79s3 -47 4 -67s1.83301 -34.667 2.5 -44c0 -2.66699 0.166992 -6.66699 0.5 -12
s0.5 -11.166 0.5 -17.499s-0.166992 -12.166 -0.5 -17.499s-0.5 -9.33301 -0.5 -12l41 -597v-84c0 -4.66699 -2 -7.33398 -6 -8.00098s-7.66699 -1 -11 -1c-6.66699 0 -12.167 3.5 -16.5 10.5s-7.5 14.833 -9.5 23.5s-3.5 17 -4.5 25s-1.5 13.667 -1.5 17
c0 4 -0.166992 11.167 -0.5 21.5s-0.5 21.333 -0.5 33s0.166992 22.5 0.5 32.5s0.5 17 0.5 21z" />
    <glyph glyph-name="braceright" unicode="}" horiz-adv-x="548" 
d="M152 -90c28.667 0 57.165 -3.16699 85.498 -9.5s56.833 -9.5 85.5 -9.5h10c4.66699 0 9.66699 0.166992 15 0.5s10.5 0.5 15.5 0.5h9.5c30.667 22 53.5 47.167 68.5 75.5s22.5 61.5 22.5 99.5c0 32.667 -5 60.834 -15 84.501s-22.833 44.5 -38.5 62.5
s-32.334 34 -50.001 48l-50 41c-15.667 13.333 -28.667 27 -39 41s-15.5 30.667 -15.5 50c0 15.333 2 27.666 6 36.999s9.5 17.166 16.5 23.499s15.167 12.166 24.5 17.499s19 11.333 29 18v1c0 0.666992 0.166992 1 0.5 1s0.5 0.333008 0.5 1
c0 5.33301 -3.16699 10.833 -9.5 16.5s-13.166 12.334 -20.499 20.001s-14.166 16.5 -20.499 26.5s-9.5 22 -9.5 36c0 19.333 3.16699 37.5 9.5 54.5s13.166 34 20.499 51s14.166 34 20.499 51s9.5 35.167 9.5 54.5c0 10.667 -0.333008 20 -1 28s-1.83398 16 -3.50098 24
s-4.16699 16.667 -7.5 26s-8 20 -14 32l-48.5 42c-13.667 12 -26.334 22.333 -38.001 31s-23.167 15.5 -34.5 20.5s-24.333 8.83301 -39 11.5s-31.667 4.16699 -51 4.5s-43 -0.166992 -71 -1.5c-1.33301 0.666992 -4.16602 2 -8.49902 4s-7.16602 3.66699 -8.49902 5
c-0.666992 0 -1 0.333008 -1 1v3v2c0 0.666992 0.333008 1.33398 1 2.00098c1.33301 1.33301 4 4.16602 8 8.49902s7 6.83301 9 7.5h12.5c5.66699 0 12 0.166992 19 0.5s13.333 0.5 19 0.5h11.5c39.333 0 77.166 -5.33301 113.499 -16s68.5 -26.5 96.5 -47.5
s50.667 -47.5 68 -79.5s26 -70 26 -114c0 -18.667 -3.16699 -36 -9.5 -52s-13.166 -31.667 -20.499 -47s-14.166 -30.666 -20.499 -45.999s-9.5 -32 -9.5 -50c0 -16.667 5.33301 -30.5 16 -41.5s22.167 -21 34.5 -30s23.666 -18.167 33.999 -27.5s15.5 -21 15.5 -35v-4
c0 -1.33301 -1 -3 -3 -5s-3.66699 -3 -5 -3l-83 -17c-3.33301 -1.33301 -7.16602 -3.83301 -11.499 -7.5s-8.16602 -7.83398 -11.499 -12.501s-6 -9.66699 -8 -15s-3 -10 -3 -14v-5c0 -1.33301 0.333008 -2.66602 1 -3.99902c22 -26 45.833 -49.167 71.5 -69.5
s49.167 -41.666 70.5 -63.999s39.166 -47.333 53.499 -75s21.5 -61.167 21.5 -100.5c0 -20 -2.33301 -41.5 -7 -64.5s-12 -45.167 -22 -66.5s-23 -40.333 -39 -57s-35.333 -28 -58 -34h-11c-5.33301 0 -11.166 -0.166992 -17.499 -0.5s-12.166 -0.5 -17.499 -0.5h-12h-47
c-20.667 0 -41.5 1.66699 -62.5 5s-39.333 9.16602 -55 17.499s-23.5 20.833 -23.5 37.5z" />
    <glyph glyph-name="asciitilde" unicode="~" horiz-adv-x="648" 
d="M95 553c0 3.33301 0.333008 8.50391 1 15.5039s2 13.833 4 20.5s4.33301 12.667 7 18s6 8 10 8l4 -1l4 -4c2 -2 3.66699 -3.33301 5 -4c1.33301 -16 4.16602 -32 8.49902 -48s10.833 -30.5 19.5 -43.5s19.667 -23.667 33 -32s29.666 -12.5 48.999 -12.5
c16.667 -0.666992 29.834 2.66602 39.501 9.99902s17.834 16.666 24.501 27.999s12.834 23.666 18.501 36.999s12.5 25.666 20.5 36.999s18 21 30 29s28.333 12.333 49 13c10.667 0 23.334 -2.16699 38.001 -6.5s28.667 -10.333 42 -18s24.666 -17 33.999 -28
s14 -22.833 14 -35.5c0 -0.666992 -0.166992 -1 -0.5 -1s-0.5 -0.333008 -0.5 -1v-2l-25 -25c-7.33301 7.33301 -14.333 15.166 -21 23.499s-13.5 15.666 -20.5 21.999s-14.667 11.5 -23 15.5s-17.833 6 -28.5 6c-14 -2 -25.5 -6.16699 -34.5 -12.5s-17 -14.166 -24 -23.499
s-13.833 -19.666 -20.5 -30.999s-14.5 -21.833 -23.5 -31.5s-19.833 -18.667 -32.5 -27s-28.667 -14.833 -48 -19.5c-18.667 0 -37.167 3 -55.5 9s-34.833 14.5 -49.5 25.5s-26.334 24.167 -35.001 39.5s-13 32 -13 50z" />
    <glyph glyph-name="nonbreakingspace" unicode="&#xa0;" horiz-adv-x="461" 
 />
    <glyph glyph-name="exclamdown" unicode="&#xa1;" horiz-adv-x="184" 
d="M91.7676 554.664c-1.52637 -3.09375 -1.52734 -6.31641 -0.000976562 -9.66797s4.19727 -6.1875 8.0127 -8.50781c3.81445 -2.32031 8.01074 -4.125 12.5889 -5.41406c4.57715 -1.28906 9.15527 -1.93359 13.7334 -1.93359c3.81543 0 8.20215 0.773438 13.1611 2.32031
c4.95996 1.54688 9.53809 3.48047 13.7344 5.80078s7.82031 5.02734 10.8721 8.12109s4.57812 6.1875 4.57812 9.28125c0 7.73438 -5.15039 12.8906 -15.4502 15.4688c-10.3008 2.57812 -19.6475 3.86719 -28.04 3.86719h-4.57812
c-1.52637 -1.03125 -3.81543 -2.44922 -6.86719 -4.25391s-6.10352 -3.73828 -9.15527 -5.80078l-8.58301 -5.80078c-2.6709 -1.80469 -4.00586 -2.96484 -4.00586 -3.48047zM72.3105 -29.2812c0 -10.8281 0.19043 -20.4961 0.572266 -29.0039
s0.954102 -17.1445 1.7168 -25.9102s1.7168 -17.7891 2.86133 -27.0703s2.86133 -20.625 5.14941 -34.0312c3.81543 -6.1875 8.39355 -10.1836 13.7344 -11.9883s11.8262 -2.70703 19.4561 -2.70703c10.6816 0 18.8838 2.0625 24.6055 6.1875
c5.72266 4.125 8.58398 11.3438 8.58398 21.6562v391.359l-18.3115 116.016c0 0.515625 -0.954102 0.773438 -2.86133 0.773438h-5.15039c-8.39258 0 -15.4502 -8.76562 -21.1729 -26.2969c-5.72168 -17.5312 -10.2998 -39.832 -13.7334 -66.9023
s-6.29492 -56.9766 -8.58301 -89.7188c-2.28906 -32.7422 -3.81543 -64.0664 -4.57812 -93.9727s-1.33496 -56.5898 -1.7168 -80.0508s-0.572266 -39.5742 -0.572266 -48.3398z" />
    <glyph glyph-name="cent" unicode="&#xa2;" horiz-adv-x="565" 
d="M32 220c0 20.667 1.33496 43.8311 4.00195 69.498s7.16699 51.834 13.5 78.501s14.666 52.167 24.999 76.5s23.5 46.166 39.5 65.499s34.667 34.666 56 45.999s46 17 74 17c7.33301 0 15.333 -0.666992 24 -2v1c4 52 10.667 90.333 20 115s17.666 38.334 24.999 41.001
s11.833 -4 13.5 -20s-2.5 -38.667 -12.5 -68c0 -2.66699 0.166992 -6.66699 0.5 -12s0.5 -11.166 0.5 -17.499s-0.166992 -12.166 -0.5 -17.499s-0.5 -9.33301 -0.5 -12l1 -20c12.667 -4 24.667 -8.66699 36 -14c18.667 -8 34.5 -17.833 47.5 -29.5s19.5 -24.5 19.5 -38.5
c0 -8 -2.66699 -12.667 -8 -14s-12 -2 -20 -2s-18.667 4 -32 12c-12.667 7.33301 -25.667 15.333 -39 24l31 -434c21.333 5.33301 42.5 12.5 63.5 21.5s40 19.667 57 32s31 26.5 42 42.5s17.5 34.333 19.5 55h2l1 1l1 -1h4l4 -5c2 -1.33301 3.33301 -2.66602 4 -3.99902v-3
c0 -23.333 -5.16699 -44.666 -15.5 -63.999s-24 -36.5 -41 -51.5s-36.5 -28.333 -58.5 -40s-45 -20.834 -69 -27.501l-11 -4l2 -33v-84c0 -4.66699 -2 -7.33398 -6 -8.00098s-7.66699 -1 -11 -1c-6.66699 0 -12.167 3.5 -16.5 10.5s-7.5 14.833 -9.5 23.5s-3.5 17 -4.5 25
s-1.5 13.667 -1.5 17c0 4 -0.333008 11.333 -1 22v17l-11 -2c-22.667 -3.33301 -43.667 -5 -63 -5c-35.333 0 -65.5 5.16699 -90.5 15.5s-45.5 25 -61.5 44s-27.833 42.167 -35.5 69.5s-11.5 58 -11.5 92zM306.002 74.9971c-20.667 116.667 -33.333 215.995 -38 297.995
c-2.66699 60.667 -3.66699 113.334 -3 158.001c-8.66699 4 -16 6 -22 6c-22 0 -41.333 -5.5 -58 -16.5s-31 -25.667 -43 -44s-21.833 -38.833 -29.5 -61.5s-13.834 -45.667 -18.501 -69s-7.83398 -45.666 -9.50098 -66.999s-2.5 -39.666 -2.5 -54.999
c0 -26.667 2.5 -50.667 7.5 -72s13.333 -39.666 25 -54.999s27.334 -27.166 47.001 -35.499s43.834 -12.5 72.501 -12.5c15.333 0 33.333 1 54 3c5.33301 1.33301 11 2.33301 17 3c0.666992 9.33301 1 16 1 20z" />
    <glyph glyph-name="sterling" unicode="&#xa3;" horiz-adv-x="423" 
d="M303 311c-28.667 -2 -58.6729 -4.49707 -90.0059 -7.49707s-63.666 -6.5 -96.999 -10.5c0.666992 -18.667 1 -36.334 1 -53.001s0.5 -33.5 1.5 -50.5s3.16699 -35.167 6.5 -54.5s9 -41 17 -65l249 32l-7 -94c-2 -0.666992 -2.5 0 -1.5 2s0.5 4 -1.5 6s-6.83301 4 -14.5 6
s-21 2.83301 -40 2.5s-45.333 -2 -79 -5s-77.5 -8.16699 -131.5 -15.5h-3.5h-4.5c-6.66699 0 -12.334 1.5 -17.001 4.5s-8.66699 7 -12 12s-6.16602 10.5 -8.49902 16.5s-3.5 12 -3.5 18c-3.33301 22.667 -5.83301 41 -7.5 55s-3 25.667 -4 35s-1.5 17.666 -1.5 24.999
s0.166992 15.833 0.5 25.5s0.666016 21.5 0.999023 35.5s0.833008 32.667 1.5 56c-17.333 -2 -29.666 -4.5 -36.999 -7.5s-13.666 -6 -18.999 -9s-11.5 -5.5 -18.5 -7.5s-17.833 -3 -32.5 -3c0 4.66699 -1.66699 9.66699 -5 15s-6.66602 10.333 -9.99902 15
s-5.83301 8.5 -7.5 11.5s-0.833984 4.83301 2.49902 5.5c12.667 3.33301 23.834 6.83301 33.501 10.5l29 10.5c9.66699 3.33301 19.667 6.16602 30 8.49902s21.833 4.5 34.5 6.5c0 16.667 0.166992 31 0.5 43s0.5 23.333 0.5 34v33.5c0 11.667 -1 26.167 -3 43.5
c-5.33301 13.333 -9.16602 27.833 -11.499 43.5s-1.16602 30.667 3.50098 45s12.667 27 24 38s28 18.167 50 21.5s49.333 2 82 -4s72.334 -19 119.001 -39c16 -2.66699 26.667 -6 32 -10s7.16602 -8.5 5.49902 -13.5s-5.5 -9.66699 -11.5 -14s-12.333 -8 -19 -11
s-12.834 -4.83301 -18.501 -5.5s-8.5 0.666016 -8.5 3.99902c0 2.66699 -4 6.5 -12 11.5s-18.333 9.83301 -31 14.5s-26.667 8 -42 10s-30.5 1.5 -45.5 -1.5s-28.667 -9.16699 -41 -18.5s-21.666 -23.166 -27.999 -41.499s-9.16602 -42 -8.49902 -71s7 -64.5 19 -106.5
c32 3.33301 63.833 5.5 95.5 6.5s63.167 1.5 94.5 1.5v-46z" />
    <glyph glyph-name="currency" unicode="&#xa4;" horiz-adv-x="683" 
d="M223 200c0.666992 -4 3.33594 -6.00098 8.00293 -6.00098h10c24 0 48.667 6.16699 74 18.5s48.166 28.5 68.499 48.5s37 42.333 50 67s19.5 49.667 19.5 75l-47.5 24c-15.667 8 -32.167 11.167 -49.5 9.5s-35.333 -10.5 -54 -26.5s-38.334 -43.667 -59.001 -83
c-4.66699 -5.33301 -8.33398 -12 -11.001 -20s-4.66699 -16.667 -6 -26s-2.33301 -18.666 -3 -27.999s-1 -17.333 -1 -24v-15c0 -7.33301 0.333008 -12 1 -14zM69.002 147.999l0.00488281 10.5029c0 3 1.66699 5.83301 5 8.5c19.333 23.333 37.666 43.166 54.999 59.499
s35.333 31.833 54 46.5c0.666992 6.66699 2.16699 14.5 4.5 23.5l7.5 28.5l18.5 37.5c6.33301 12.333 12.833 23.833 19.5 34.5c-26.667 37.333 -45.5 69 -56.5 95s-17 47.333 -18 64s1.5 29.5 7.5 38.5s12.167 14.833 18.5 17.5s11.833 2.5 16.5 -0.5
s5.33398 -7.5 2.00098 -13.5l8.5 -12l22 -31l29 -42l30.5 -46c14.667 10.667 31 19 49 25s38.667 9 62 9c16.667 -2.66699 31.5 -8.16699 44.5 -16.5s24.167 -18.5 33.5 -30.5c9.33301 5.33301 21.5 12.833 36.5 22.5l45 28.5l39.5 25.5
c11.333 7.66699 17.666 12.167 18.999 13.5h5c4 0 7.83301 -1.33301 11.5 -4s7.16699 -5.66699 10.5 -9s6.16602 -6.83301 8.49902 -10.5s3.5 -7.5 3.5 -11.5c0 -2 -0.166992 -4.5 -0.5 -7.5s-1.83301 -5.16699 -4.5 -6.5l-150 -86
c4.66699 -15.333 7.33398 -31.333 8.00098 -48s-1.33301 -33.5 -6 -50.5s-11.834 -33.5 -21.501 -49.5s-21.834 -31.333 -36.501 -46c8 -0.666992 17.5 -4.66699 28.5 -12s22 -15.5 33 -24.5l30.5 -25c9.33301 -7.66699 16.333 -11.834 21 -12.501
c-4 -24.667 -7.5 -43.167 -10.5 -55.5s-5.83301 -20.166 -8.5 -23.499s-5.5 -3.33301 -8.5 0s-7 8.83301 -12 16.5s-11.333 16.5 -19 26.5s-17.167 19.667 -28.5 29s-24.833 17.166 -40.5 23.499s-33.834 10.166 -54.501 11.499c-19.333 -8.66699 -40.5 -16 -63.5 -22
s-49.167 -10.333 -78.5 -13c-2 0 -6 0.166992 -12 0.5s-10.333 0.5 -13 0.5c-14 5.33301 -23.833 15.333 -29.5 30s-8.83398 29 -9.50098 43c-15.333 -12.667 -30.166 -25.667 -44.499 -39l-41.5 -40c-0.666992 -0.666992 -1.33398 -1 -2.00098 -1h-2
c-6 0 -10.167 2 -12.5 6s-3.5 8.66699 -3.5 14z" />
    <glyph glyph-name="yen" unicode="&#xa5;" horiz-adv-x="427" 
d="M346 277c-14.667 -0.666992 -26.5 -0.835938 -35.5 -0.50293l-26 1c-8.33301 0.333008 -17.5 0.333008 -27.5 0s-23 -1.16602 -39 -2.49902l-2 -65l47.5 5c13 1.33301 25.333 2.16602 37 2.49902s23.334 0.333008 35.001 0s25.167 -0.5 40.5 -0.5v-33l-162 -12l-3 -155
c0 -2.66699 -1.66699 -4.83398 -5 -6.50098s-7.33301 -2.83398 -12 -3.50098s-9 -1.16699 -13 -1.5s-7 -0.5 -9 -0.5c-4 0 -8 0.333008 -12 1s-6.33301 3 -7 7l6 153l-71 -5l-40 5v8c0 0.666992 7.66699 3.33398 23 8.00098s33.333 9 54 13c5.33301 1.33301 11 2.5 17 3.5
s12.333 2.16699 19 3.5l3 69c-16.667 -1.33301 -30 -2 -40 -2s-19.333 0.166992 -28 0.5s-17.667 0.833008 -27 1.5s-21.666 1 -36.999 1c0 3.33301 1.66699 6.66602 5 9.99902s7.33301 6 12 8s9.33398 3.83301 14.001 5.5s8.66699 2.83398 12 3.50098
c12.667 2.66699 22 4.83398 28 6.50098s11.5 2.83398 16.5 3.50098s10.833 1.33398 17.5 2.00098l29 3l1 33l-9 17.5l-22 42.5l-28.5 54.5l-28.5 55l-22 42.5c-6 11.333 -9 17.333 -9 18c0 6 2.16699 11 6.5 15s10.166 6 17.499 6c4 0 8.66699 -1.16699 14 -3.5
s8.66602 -4.83301 9.99902 -7.5l93 -159l5 -8c6.66699 2.66699 12.667 9 18 19s12.666 22.833 21.999 38.5s22 33.834 38 54.501s38 43.334 66 68.001c10 -18 17.333 -30.333 22 -37s6.66699 -11.5 6 -14.5s-4.16699 -6.66699 -10.5 -11s-15.5 -12.833 -27.5 -25.5
s-27 -31.334 -45 -56.001s-39 -59.334 -63 -104.001v-33c14.667 0.666992 26.834 0.833984 36.501 0.500977s18.5 -1 26.5 -2s16.667 -2.16699 26 -3.5s21.666 -2 36.999 -2v-35z" />
    <glyph glyph-name="brokenbar" unicode="&#xa6;" horiz-adv-x="175" 
d="M73 497l-32.0029 548.999c-0.666992 11.333 -3 19.333 -7 24s-11.667 7 -23 7c0 11.333 3 22.666 9 33.999s13 20.333 21 27h2.5h2.5c2.66699 0 5.66699 -1.33301 9 -4s6.33301 -5.66699 9 -9s5 -7 7 -11s3.33301 -7.33301 4 -10s1.83398 -8 3.50098 -16
s3.33398 -16.5 5.00098 -25.5l4.5 -25c1.33301 -7.66699 2.33301 -13.167 3 -16.5l3 -44c1.33301 -20 3 -42.5 5 -67.5s3.83301 -51.5 5.5 -79.5s3.33398 -54.333 5.00098 -79s3 -47 4 -67s1.83301 -34.667 2.5 -44c0 -2.66699 0.166992 -6.66699 0.5 -12
s0.5 -11.166 0.5 -17.499s-0.166992 -12.166 -0.5 -17.499s-0.5 -9.33301 -0.5 -12v-80zM131.997 410.999l25 -426.999v-84c0 -4.66699 -2 -7.33398 -6 -8.00098s-7.66699 -1 -11 -1c-6.66699 0 -12.167 3.5 -16.5 10.5s-7.5 14.833 -9.5 23.5s-3.5 17 -4.5 25
s-1.5 13.667 -1.5 17c0 4 -0.166992 11.167 -0.5 21.5s-0.5 21.333 -0.5 33s0.166992 22.5 0.5 32.5s0.5 17 0.5 21l-26 329z" />
    <glyph glyph-name="section" unicode="&#xa7;" horiz-adv-x="602" 
d="M427 416c42 -44 69.832 -79.1592 83.499 -105.492s17.5 -46.833 11.5 -61.5s-19.833 -24.667 -41.5 -30s-46.667 -8.83301 -75 -10.5s-58.5 -2.66699 -90.5 -3s-61 -2.5 -87 -6.5l-6 -1c-1.33301 -0.666992 -5 -1.66699 -11 -3s-9.66699 -2.66602 -11 -3.99902v-10
c0 -5.33301 0.333008 -8.66602 1 -9.99902c2 -8.66699 3.83301 -17.5 5.5 -26.5s4.83398 -18 9.50098 -27s12.5 -17.333 23.5 -25s27.833 -14.334 50.5 -20.001s52.167 -9.83398 88.5 -12.501s82.5 -3.33398 138.5 -2.00098l0.5 -3c0.333008 -2 0.5 -3.33301 0.5 -4
c0.666992 -6.66699 -0.833008 -12.334 -4.5 -17.001s-8.5 -7.33398 -14.5 -8.00098c-20.667 -2.66699 -43.5 -5.33398 -68.5 -8.00098s-50.5 -3.83398 -76.5 -3.50098s-51.333 2.83301 -76 7.5s-46.667 13.167 -66 25.5s-35 29 -47 50s-18.333 47.833 -19 80.5
c-2.66699 22.667 1.5 39.667 12.5 51s25.833 18.666 44.5 21.999c-20.667 12 -39.5 26.333 -56.5 43s-31.5 36 -43.5 58c-0.666992 2 -1.66699 4 -3 6s-2.33301 3.66699 -3 5l-2 4c-6 15.333 -6.66699 29.166 -2 41.499s12.5 23.5 23.5 33.5s24.167 18.667 39.5 26
s31 13 47 17s31.167 6.83301 45.5 8.5s25.833 1.5 34.5 -0.5c16 2.66699 29.333 7.16699 40 13.5s23.667 12.833 39 19.5h3c0.666992 0 1.33398 0.333008 2.00098 1c1.33301 1.33301 4.66602 3.66602 9.99902 6.99902s8.66602 6 9.99902 8
c-1.33301 1.33301 -2.66602 4.5 -3.99902 9.5s-2.33301 8.16699 -3 9.5c-4.66699 12.667 -9.16699 23 -13.5 31s-10.166 14.667 -17.499 20s-16.833 9.66602 -28.5 12.999s-27.5 6 -47.5 8s-45.333 3.83301 -76 5.5s-68 3.5 -112 5.5c0 0.666992 -0.333008 2 -1 4
s-1 3.33301 -1 4c-3.33301 5.33301 -4 11 -2 17s6 10 12 12c3.33301 1.33301 6.5 2.33301 9.5 3s6.16699 0.333984 9.5 -0.999023c34.667 0 68 0.666992 100 2s61.833 -0.833984 89.5 -6.50098s52.667 -16.334 75 -32.001s41.5 -40.834 57.5 -75.501
c5.33301 -12.667 6.5 -24.334 3.5 -35.001s-8.5 -20.167 -16.5 -28.5s-17.833 -15.666 -29.5 -21.999s-23.167 -11.5 -34.5 -15.5c5.33301 -2.66699 11.166 -6.16699 17.499 -10.5s12.666 -9.16602 18.999 -14.499s12.333 -10.666 18 -15.999
s10.834 -9.66602 15.501 -12.999zM228.999 437.008c-10 -2.66699 -19.999 -5.16602 -29.999 -7.49902s-19.333 -6.16602 -28 -11.499c-1.33301 0 -3.33301 -0.833008 -6 -2.5s-4.33398 -2.83398 -5.00098 -3.50098c-2.66699 -4.66699 -4 -9 -4 -13
c9.33301 -23.333 19.333 -41.5 30 -54.5s22.5 -23.5 35.5 -31.5s27.5 -14.833 43.5 -20.5s34.333 -12.834 55 -21.501c0.666992 -0.666992 2.66699 -1.5 6 -2.5s7.33301 -2 12 -3s9 -1.83301 13 -2.5s7.33301 -1 10 -1c42 -4.66699 71 -4 87 2s23.667 14.833 23 26.5
s-8 25.167 -22 40.5s-29.667 29.833 -47 43.5s-34.5 25.5 -51.5 35.5s-29.5 15.667 -37.5 17z" />
    <glyph glyph-name="dieresis" unicode="&#xa8;" horiz-adv-x="768" 
d="M188 645c0 12.667 3.33398 22.833 10.001 30.5s15 13.667 25 18s20.667 7.33301 32 9s21.666 2.5 30.999 2.5c25.333 0 38 -16 38 -48c0 -24 -4.83301 -39 -14.5 -45s-24.5 -9 -44.5 -9h-24.5c-9 0 -17.5 1.16699 -25.5 3.5s-14.5 6.5 -19.5 12.5s-7.5 14.667 -7.5 26z
M274.001 656.999l-7 0.000976562c-3.33301 0 -6.83301 -0.333008 -10.5 -1s-7.16699 -1.83398 -10.5 -3.50098s-5.33301 -4.16699 -6 -7.5h34v12zM436.001 644c0 12.667 3.00195 22.998 9.00195 30.998s13.5 14.167 22.5 18.5s18.833 7.33301 29.5 9s20.667 2.5 30 2.5
c6 0 12.667 -0.166992 20 -0.5s14.166 -1.66602 20.499 -3.99902s11.666 -5.66602 15.999 -9.99902s6.5 -10.833 6.5 -19.5c0 -12 -2.5 -22.333 -7.5 -31s-11.5 -15.667 -19.5 -21s-17.167 -9.33301 -27.5 -12s-20.5 -4 -30.5 -4h-23c-8 0 -15.5 1.16699 -22.5 3.5
s-12.667 6.33301 -17 12s-6.5 14.167 -6.5 25.5zM514.003 656.998l-6.5 0.000976562c-3 0 -6.33301 -0.333008 -10 -1s-7.16699 -1.83398 -10.5 -3.50098s-5.33301 -4.16699 -6 -7.5h33v12z" />
    <glyph glyph-name="copyright" unicode="&#xa9;" horiz-adv-x="700" 
d="M151 300c4 34 11.9951 66.333 23.9951 97s26.167 57 42.5 79s33 38.833 50 50.5s31.833 15.5 44.5 11.5c4 2 7 3.83301 9 5.5s3.83301 3.33398 5.5 5.00098s3.83398 2.83398 6.50098 3.50098s6.33398 1 11.001 1c8.66699 0 16.834 -2.83301 24.501 -8.5
s14.167 -12.834 19.5 -21.501s9.5 -17.834 12.5 -27.501s4.5 -18.5 4.5 -26.5c0 -8.66699 -3.33301 -14.834 -10 -18.501s-14 -5.5 -22 -5.5c-6 0 -10.833 1.33301 -14.5 4s-7 5.66699 -10 9s-6.33301 6.5 -10 9.5s-7.83398 5.5 -12.501 7.5h-2h-3l-4.5 -4.5
c-2.33301 -2.33301 -3.83301 -4.16602 -4.5 -5.49902c-13.333 -16.667 -26 -31.5 -38 -44.5s-22.5 -26.167 -31.5 -39.5s-16.167 -27.666 -21.5 -42.999s-8 -33.666 -8 -54.999v-9c0 -4 0.166992 -8 0.5 -12s0.5 -8 0.5 -12v-9c1.33301 -6.66699 5.33301 -11.834 12 -15.501
s12.667 -6.83398 18 -9.50098c2 0 6.83301 -0.166992 14.5 -0.5s12.5 -0.5 14.5 -0.5c22 -4 46.167 -2.33301 72.5 5s52 16.666 77 27.999s48.167 22.5 69.5 33.5s38 18.167 50 21.5s18.333 0.833008 19 -7.5s-7.66602 -26.5 -24.999 -54.5
c-4.66699 -2 -14.834 -6 -30.501 -12l-50.5 -18.5l-52.5 -19c-17 -6.33301 -29.5 -11.166 -37.5 -14.499c-10.667 -3.33301 -19.5 -6 -26.5 -8s-13.5 -3.5 -19.5 -4.5s-12.167 -1.66699 -18.5 -2s-14.166 -0.5 -23.499 -0.5c-24 0 -43.833 3 -59.5 9
s-28.167 14.833 -37.5 26.5s-16.166 26 -20.499 43s-7.16602 36.833 -8.49902 59.5zM42.9951 281c-6 29.333 -8.99414 61.8311 -8.99414 97.498s4 71.334 12 107.001s20.667 70 38 103s40.5 61.667 69.5 86s64.167 42.833 105.5 55.5s90.333 16.667 147 12
c9.33301 0 22 -0.833008 38 -2.5s31.5 -5 46.5 -10s28 -12.333 39 -22s16.5 -22.167 16.5 -37.5v-4c0 -2 -1 -4.83301 -3 -8.5s-3.66699 -6.16699 -5 -7.5c-0.666992 -0.666992 -1.33398 -1 -2.00098 -1h-1h-3c-0.666992 0 -1.33398 0.333008 -2.00098 1
c-1.33301 0.666992 -3.83301 2.66699 -7.5 6s-7.83398 6.66602 -12.501 9.99902l-13.5 10c-4.33301 3.33301 -6.83301 5.66602 -7.5 6.99902h-2c-0.666992 0 -1.33398 0.333008 -2.00098 1c-0.666992 0 -1.5 -0.166992 -2.5 -0.5l-1.5 -0.5
c20.667 -31.333 41.667 -61.333 63 -90s40.5 -57.667 57.5 -87s31 -60.166 42 -92.499s16.5 -67.166 16.5 -104.499c0 -36.667 -3.83301 -73.334 -11.5 -110.001s-20.334 -69.667 -38.001 -99s-40.834 -53.166 -69.501 -71.499s-64.667 -27.5 -108 -27.5
c-26.667 0 -54.667 3.33301 -84 10s-58.5 16.167 -87.5 28.5s-56.667 27 -83 44s-49.5 35.833 -69.5 56.5s-36 42.834 -48 66.501s-18 48.5 -18 74.5zM76.001 260.998c12 -30.667 32.1719 -59.165 60.5049 -85.498s60.166 -49.333 95.499 -69s71.833 -35 109.5 -46
s71.5 -16.833 101.5 -17.5c31.333 2 57.5 10.833 78.5 26.5s38.167 35.167 51.5 58.5s22.666 49 27.999 77s8 55.333 8 82c0 21.333 -3.5 46 -10.5 74s-17.333 57.333 -31 88s-30 60.834 -49 90.501s-40.5 56.334 -64.5 80.001s-50 42.667 -78 57s-57.667 21.5 -89 21.5
c-27.333 -2.66699 -52.5 -13.667 -75.5 -33s-43.167 -42.833 -60.5 -70.5s-31.833 -58.334 -43.5 -92.001s-20.834 -66.334 -27.501 -98.001s-10.334 -60.334 -11.001 -86.001s1.66602 -44.834 6.99902 -57.501z" />
    <glyph glyph-name="ordfeminine" unicode="&#xaa;" horiz-adv-x="334" 
d="M20.8242 199.999l-0.000976562 8.99805v9.59961c-5.57617 23.999 -6.31445 47.5977 -2.21387 70.7969c4.09961 23.1992 11.4795 44.0986 22.1396 62.6973c10.6602 18.5996 24.2725 34.1992 40.8369 46.7988c16.5635 12.5986 34.6855 20.2979 54.3662 23.0977h8.85645
c7.21582 0 13.2021 -1.90039 17.959 -5.7002c4.75586 -3.7998 8.52734 -8.69922 11.3154 -14.6992c2.78809 -5.99902 4.75586 -12.7988 5.90332 -20.3994c1.14844 -7.59961 1.72266 -15.1992 1.72266 -22.7988c0 -10.3994 -0.902344 -20.499 -2.70605 -30.2988
s-3.77148 -19.6992 -5.90332 -29.6982c-2.13184 -10 -4.09961 -19.8994 -5.90332 -29.6992s-2.70605 -20.0996 -2.70605 -30.8994v-3.59961c0.328125 -0.799805 0.738281 -3.09961 1.23047 -6.89941c0.491211 -3.7998 0.901367 -6.09961 1.22949 -6.89941
c0.65625 0 2.2959 -0.0996094 4.91992 -0.299805s4.26367 -0.299805 4.91895 -0.299805c3.28027 0 6.47852 0.0996094 9.59473 0.299805s6.31445 1.10059 9.59473 2.70117l93.4814 52.7969c0.327148 0 0.901367 0.100586 1.72168 0.300781
c0.819336 0.200195 1.39355 0.299805 1.72168 0.299805c3.28027 0 5.98633 -1.2002 8.11816 -3.59961c2.13184 -2.40039 3.19824 -5.60059 3.19824 -9.59961c0 -2 -0.0820312 -3.90039 -0.246094 -5.7002s-1.06641 -3.5 -2.70605 -5.09961
c-2.2959 -2 -6.47754 -4.7998 -12.5449 -8.39941l-19.4346 -12l-19.4336 -12.5996c-6.06836 -3.99902 -10.4141 -6.59863 -13.0381 -7.79883c-4.59277 -3.2002 -9.67676 -6.09961 -15.2529 -8.69922c-5.5752 -2.60059 -11.3154 -5.10059 -17.2197 -7.5
s-11.7266 -4.29883 -17.4658 -5.69824c-5.74023 -1.40039 -10.9062 -2.10059 -15.499 -2.10059c-7.21582 0 -13.1201 1.5 -17.7129 4.5c-4.5918 3 -8.03613 7 -10.332 12c-2.2959 4.99902 -3.85352 10.999 -4.67285 17.999c-0.820312 7 -0.902344 14.2998 -0.246094 21.8994
l-21.1562 -20.3994c-7.54395 -7.2002 -15.416 -13.7998 -23.6162 -19.7988c-8.2002 -6 -16.5645 -11.2002 -25.0928 -15.5996s-17.2207 -6.59961 -26.0771 -6.59961c-4.9209 0 -9.34863 1.5 -13.2842 4.49902c-3.93652 3 -6.72461 7.7002 -8.36426 14.0996zM47.3916 212.597
c7.54395 0 15.9062 2.70117 25.0908 8.10059s18.2051 12.0996 27.0615 20.0996c8.85645 7.99902 16.8926 16.499 24.1084 25.499c7.21582 8.99902 12.792 17.0986 16.7275 24.2988c0.328125 11.999 1.72266 23.498 4.18262 34.4971
c2.45996 11 3.68945 22.2998 3.68945 33.8994c0 0.799805 -0.0820312 2 -0.246094 3.60059c-0.163086 1.59961 -0.245117 2.7998 -0.245117 3.59961c-4.26465 4.39941 -7.87305 6.99902 -10.8252 7.79883s-6.88867 1.2002 -11.8086 1.2002h-4.18164
c-2.13184 0 -3.52637 -0.200195 -4.18262 -0.600586c-1.96777 -2 -5.24805 -5.7002 -9.83984 -11.0996l-14.5137 -17.6992l-14.2686 -17.999l-9.10156 -11.3994c-0.328125 0 -0.984375 -0.700195 -1.96875 -2.09961c-0.983398 -1.40039 -2.0498 -3.10059 -3.19824 -5.09961
c-1.14746 -2 -2.13086 -3.90039 -2.9502 -5.7002c-0.820312 -1.7998 -1.39453 -3.2998 -1.72266 -4.5l-11.8076 -70.1973v-16.1992z" />
    <glyph glyph-name="guillemotleft" unicode="&#xab;" horiz-adv-x="990" 
d="M31 252c-11.333 10 -12.668 22.168 -4.00098 36.501s25 29.666 49 45.999s55.167 33.833 93.5 52.5s81.833 37.834 130.5 57.501s102.167 39.834 160.5 60.501l182.5 62c2.66699 -1.33301 5.33398 -2.5 8.00098 -3.5s5.16699 -2.33301 7.5 -4
s3.83301 -3.83398 4.5 -6.50098s0 -6 -2 -10c-1.33301 -1.33301 -3.16602 -3.33301 -5.49902 -6s-5 -5.33398 -8 -8.00098l-8.5 -7.5c-2.66699 -2.33301 -4.33398 -3.83301 -5.00098 -4.5l-216.5 -94.5l-146 -63l-89.5 -39c-21.333 -9.66699 -37.166 -17.5 -47.499 -23.5
s-17 -11 -20 -15s-5.16699 -8.66699 -6.5 -14c30.667 -20 66.334 -38.667 107.001 -56s83 -33.833 127 -49.5l131 -46c43.333 -15 83.333 -30.167 120 -45.5c2.66699 -1.33301 7.5 -4.33301 14.5 -9s11.833 -8 14.5 -10c1.33301 -0.666992 2.5 -2.16699 3.5 -4.5
s1.16699 -4.16602 0.5 -5.49902c-0.666992 -2.66699 -3.83398 -6 -9.50098 -10s-10.5 -6.66699 -14.5 -8l-147 46c-48.667 15.333 -97 32 -145 50s-95.333 37.667 -142 59s-92.334 45.666 -137.001 72.999zM318.998 247.001c-11.333 11.333 -12.667 23.8311 -4 37.498
s25 28.834 49 45.501s55.167 34.167 93.5 52.5s81.833 37.5 130.5 57.5s102.167 40.333 160.5 61s119.166 41 182.499 61c2.66699 -0.666992 5.33398 -1.5 8.00098 -2.5s5.16699 -2.33301 7.5 -4s3.83301 -4 4.5 -7s0 -6.5 -2 -10.5
c-1.33301 -1.33301 -3.16602 -3.33301 -5.49902 -6s-5 -5.33398 -8 -8.00098s-5.83301 -5 -8.5 -7s-4.33398 -3.33301 -5.00098 -4l-216.5 -95l-146 -63l-89.5 -39.5c-21.333 -9.66699 -37.166 -17.5 -47.499 -23.5s-17 -10.833 -20 -14.5s-5.16699 -8.16699 -6.5 -13.5
c30.667 -20 66.334 -38.667 107.001 -56s83 -34 127 -50l131 -46.5c43.333 -15 83.333 -29.833 120 -44.5c2.66699 -1.33301 7.5 -4.5 14.5 -9.5s11.833 -8.16699 14.5 -9.5c1.33301 -0.666992 2.5 -2.16699 3.5 -4.5s1.16699 -4.16602 0.5 -5.49902
c-0.666992 -3.33301 -3.83398 -6.83301 -9.50098 -10.5s-10.5 -6.16699 -14.5 -7.5l-147 45c-48.667 15.333 -97 32 -145 50s-95.333 37.833 -142 59.5s-92.334 45.834 -137.001 72.501z" />
    <glyph glyph-name="logicalnot" unicode="&#xac;" horiz-adv-x="547" 
d="M74 350c-3.33301 2.66699 -6.33398 7.66504 -9.00098 14.998s-4 12.666 -4 15.999c34.667 6.66699 70.667 9.66699 108 9s73.166 -2.5 107.499 -5.5s66.166 -5.66699 95.499 -8s53.666 -1.16602 72.999 3.50098c0.666992 0.666992 2.66699 0.666992 6 0s6 -1 8 -1
c2.66699 -0.666992 6.83398 -1.83398 12.501 -3.50098s7.16699 -4.83398 4.5 -9.50098c-0.666992 -5.33301 -1 -14.666 -1 -27.999s0.166992 -29 0.5 -47s0.5 -37.167 0.5 -57.5v-58c0 -18.333 -0.166992 -34.666 -0.5 -48.999s-1.16602 -24.833 -2.49902 -31.5
c-14.667 -4.66699 -24.834 -3.83398 -30.501 2.49902s-9 16.333 -10 30s-0.5 29.834 1.5 48.501l6.5 58c2.33301 20 3.33301 39.333 3 58s-3.83301 34.667 -10.5 48l-13 2c-30 -1.33301 -55.333 -2.16602 -76 -2.49902s-38.5 -0.333008 -53.5 0
s-28.333 0.666016 -40 0.999023s-23.667 0.833008 -36 1.5s-26.166 1 -41.499 1s-33.666 -0.333008 -54.999 -1c-2 0.666992 -5 1.33398 -9 2.00098s-8.33301 1.33398 -13 2.00098s-9.16699 1.5 -13.5 2.5s-7.16602 1.5 -8.49902 1.5z" />
    <glyph glyph-name="hyphen_" unicode="&#xad;" horiz-adv-x="607" 
d="M16 356c2 5.33301 6.83105 10.667 14.498 16s13.834 8.66602 18.501 9.99902c31.333 1.33301 63.5 3.33301 96.5 6l99.5 8c33.333 2.66699 66.333 5.16699 99 7.5s64.334 3.5 95.001 3.5c22.667 0 45.5 -1 68.5 -3s44.833 -6.66699 65.5 -14l-17 -17l-17 -2l-44.5 -5
l-61.5 -7c-22.667 -2.66699 -45.834 -5.16699 -69.501 -7.5l-67.5 -6.5c-21.333 -2 -40 -3.66699 -56 -5c-30 -2.66699 -60.667 -4.66699 -92 -6s-61.666 -2 -90.999 -2c-3.33301 0 -7.33301 0.333008 -12 1s-9.5 1.83398 -14.5 3.50098s-9 4.16699 -12 7.5
s-3.83301 7.33301 -2.5 12z" />
    <glyph glyph-name="registered" unicode="&#xae;" horiz-adv-x="768" 
d="M73 299c-6 29.333 -8.99805 61.8301 -8.99805 97.4971s4 71.334 12 107.001s20.5 70 37.5 103s40.167 61.667 69.5 86s64.666 42.833 105.999 55.5s90.333 16.667 147 12c9.33301 0 22 -0.833008 38 -2.5s31.5 -5 46.5 -10s28 -12.333 39 -22s16.5 -22.167 16.5 -37.5v-4
c0 -2 -1 -4.83301 -3 -8.5s-3.66699 -6.16699 -5 -7.5c-0.666992 -0.666992 -1.33398 -1 -2.00098 -1h-2h-2c-0.666992 0 -1.33398 0.333008 -2.00098 1c-1.33301 0.666992 -4 2.66699 -8 6l-12.5 10l-13 10c-4.33301 3.33301 -7.16602 5.66602 -8.49902 6.99902h-1
c-0.666992 0 -1.33398 0.333008 -2.00098 1c-0.666992 0 -1.5 -0.166992 -2.5 -0.5s-1.83301 -0.5 -2.5 -0.5l64 -90c21.333 -28.667 40.5 -57.667 57.5 -87s30.833 -60.166 41.5 -92.499s16 -67.166 16 -104.499c0 -36.667 -3.66699 -73.334 -11 -110.001
s-19.833 -69.667 -37.5 -99s-41 -53.166 -70 -71.499s-64.833 -27.5 -107.5 -27.5c-26.667 0 -54.667 3.33301 -84 10s-58.666 16.167 -87.999 28.5s-57 27 -83 44s-49 35.833 -69 56.5s-36 42.834 -48 66.501s-18 48.5 -18 74.5zM105.002 278.997
c12 -30.667 32.3359 -59.165 61.0029 -85.498s60.667 -49.333 96 -69s71.666 -35 108.999 -46s71 -16.833 101 -17.5c31.333 2 57.666 10.833 78.999 26.5s38.666 35.167 51.999 58.5s22.666 49 27.999 77s8 55.333 8 82c0 21.333 -3.66699 46 -11 74
s-17.666 57.333 -30.999 88s-29.666 60.834 -48.999 90.501s-41 56.334 -65 80.001s-49.833 42.667 -77.5 57s-57.167 21.5 -88.5 21.5c-28.667 -2.66699 -54.167 -13.667 -76.5 -33s-42.166 -42.833 -59.499 -70.5s-31.833 -58.334 -43.5 -92.001
s-20.834 -66.334 -27.501 -98.001s-10.334 -60.334 -11.001 -86.001s1.33301 -44.834 6 -57.501zM231.005 200.999c4.66699 8 10.1641 16.1758 16.4971 24.5088l19 25c6.33301 8.33301 11.833 17.333 16.5 27s7.33398 20.167 8.00098 31.5c-8 0.666992 -17 2.16699 -27 4.5
s-19.5 5.33301 -28.5 9s-16.667 8.16699 -23 13.5s-9.5 11.666 -9.5 18.999c0 8 1.5 14.5 4.5 19.5s10.167 7.5 21.5 7.5c7.33301 0 15.666 -1.83301 24.999 -5.5s21 -6.83398 35 -9.50098l36 114c-1.33301 9.33301 -1 19.166 1 29.499s7 18.833 15 25.5
c-0.666992 0 -2.16699 0.166992 -4.5 0.5s-3.83301 0.5 -4.5 0.5c-8 0 -14.667 -0.666992 -20 -2s-10.5 -3 -15.5 -5l-15 -6c-5 -2 -11.167 -3.33301 -18.5 -4c-1.33301 0 -3.16602 0.333008 -5.49902 1s-3.83301 1.66699 -4.5 3
c-2 -0.666992 -4.66699 -1.33398 -8 -2.00098l-10.5 -2c-3.66699 -0.666992 -7 -1.33398 -10 -2.00098s-5.16699 -1 -6.5 -1h-4c-8.66699 0 -13 3.66699 -13 11c0 4 3.16699 9 9.5 15s14 12 23 18s18 11.5 27 16.5l20.5 11.5c10.667 2 19.834 4 27.501 6
s15.167 3.16699 22.5 3.5l22 1c7.33301 0.333008 16 0.5 26 0.5c19.333 0 39 -3.5 59 -10.5s38.333 -16.667 55 -29s30.334 -26.833 41.001 -43.5s16 -34.334 16 -53.001c0 -16 -4.16699 -31.167 -12.5 -45.5s-19.166 -27.333 -32.499 -39s-28 -22 -44 -31
s-31.667 -16.333 -47 -22s-29.5 -9.66699 -42.5 -12s-22.833 -2.5 -29.5 -0.5c9.33301 -14.667 19.333 -28 30 -40s22.5 -22 35.5 -30s27.667 -14.167 44 -18.5s35.166 -6.5 56.499 -6.5c14 0 27.833 2.33301 41.5 7s27.167 7 40.5 7c16.667 0 22 -3.5 16 -10.5
s-17 -14.833 -33 -23.5s-33.333 -16.334 -52 -23.001s-32.334 -10 -41.001 -10c-17.333 0 -33.333 3 -48 9s-28.167 13.5 -40.5 22.5s-24 19.5 -35 31.5s-20.5 24.333 -28.5 37h-4c-0.666992 -4.66699 -2.5 -11.834 -5.5 -21.501s-6.66699 -19.167 -11 -28.5
s-9.66602 -17.5 -15.999 -24.5s-13.5 -10.5 -21.5 -10.5c-3.33301 0 -7 0.5 -11 1.5s-8.16699 2.33301 -12.5 4s-8 3.66699 -11 6s-4.5 5.16602 -4.5 8.49902zM345.002 348.008l3.99902 0.00195312c1.33301 0 3 0.5 5 1.5s3.33301 1.5 4 1.5
c15.333 6 31.166 12.667 47.499 20s31.333 15.5 45 24.5s24.834 19.667 33.501 32s13 26.833 13 43.5c0 10 -3.5 19.167 -10.5 27.5s-15.667 15.5 -26 21.5s-21.666 10.667 -33.999 14s-24.166 5 -35.499 5h-9c5.33301 -2.66699 8.16602 -5.66699 8.49902 -9
s0.5 -7.33301 0.5 -12c0 -0.666992 -0.166992 -2.33398 -0.5 -5.00098s-0.5 -4.33398 -0.5 -5.00098l-45 -146v-14z" />
    <glyph glyph-name="macron" unicode="&#xaf;" horiz-adv-x="471" 
d="M21 620c1.33301 4.66699 5.99902 9.66504 13.999 14.998s14.333 8.66602 19 9.99902c31.333 2 55.333 3.33301 72 4s31.834 0.833984 45.501 0.500977s28.667 -0.666016 45 -0.999023s39.833 -0.5 70.5 -0.5c22.667 0 45.5 -0.833008 68.5 -2.5s44.833 -6.5 65.5 -14.5
l-17 -16c-1.33301 -1.33301 -16.5 -2.5 -45.5 -3.5s-66.833 -3.5 -113.5 -7.5c-30 -3.33301 -60.833 -5.5 -92.5 -6.5s-62.167 -1.5 -91.5 -1.5c-2.66699 0 -6.5 0.333008 -11.5 1s-9.83301 1.83398 -14.5 3.50098s-8.5 4.16699 -11.5 7.5s-3.83301 7.33301 -2.5 12z" />
    <glyph glyph-name="degree" unicode="&#xb0;" horiz-adv-x="342" 
d="M38 418c0 37.333 7.83203 69.501 23.499 96.501s39.5 53.167 71.5 78.5c0.666992 0.666992 2.5 2 5.5 4s6.5 4.16699 10.5 6.5s7.83301 4.33301 11.5 6s6.83398 2.5 9.50098 2.5c4.66699 0 9 -1.83301 13 -5.5s6 -7.5 6 -11.5v-2
c0 -1.33301 -0.833008 -3.16602 -2.5 -5.49902s-2.5 -3.83301 -2.5 -4.5v-3c0 -2 3 -4.16699 9 -6.5s13.333 -4.83301 22 -7.5s16.834 -5.5 24.501 -8.5s13.167 -5.5 16.5 -7.5c15.333 -13.333 26.666 -28.5 33.999 -45.5s11 -34.167 11 -51.5
c0 -20 -5.33301 -37.833 -16 -53.5s-24.334 -28.834 -41.001 -39.501s-35.5 -18.834 -56.5 -24.501s-41.833 -8.5 -62.5 -8.5c-2.66699 0 -8.66699 0.166992 -18 0.5s-15.666 0.5 -18.999 0.5c-12 2 -21.333 6.5 -28 13.5s-11.667 14.833 -15 23.5s-5.33301 17.667 -6 27
s-1 18 -1 26zM87.999 447.001c6 -12 9.83301 -21.3311 11.5 -27.998s3.16699 -12.167 4.5 -16.5s4.16602 -8.33301 8.49902 -12s11.833 -7.83398 22.5 -12.501c33.333 0 57.333 5.66699 72 17s22 32.333 22 63c0 15.333 -0.5 26.666 -1.5 33.999s-4 13.166 -9 17.499
s-12 7.83301 -21 10.5s-21.833 7 -38.5 13c-15.333 -3.33301 -27.666 -7.66602 -36.999 -12.999s-16.5 -11.833 -21.5 -19.5s-8.33301 -16 -10 -25s-2.5 -18.5 -2.5 -28.5z" />
    <glyph glyph-name="plusminus" unicode="&#xb1;" horiz-adv-x="499" 
d="M91 22c2 5.33301 6.83008 10.668 14.4971 16.001s13.834 8.66602 18.501 9.99902c22 0.666992 38.333 1.33398 49 2.00098s18.834 1 24.501 1s10 -0.166992 13 -0.5s7.83301 -0.5 14.5 -0.5c-0.666992 6.66699 -1 12.167 -1 16.5v8.5
c-0.666992 7.33301 -1.33398 20.833 -2.00098 40.5s-1.33398 40.5 -2.00098 62.5s-1.5 42.833 -2.5 62.5s-1.5 33.5 -1.5 41.5l-9 9c-1.33301 0 -5.16602 0.166992 -11.499 0.5s-11.166 0.5 -14.499 0.5c-28 0 -55.167 -3 -81.5 -9s-52.5 -9 -78.5 -9h-5
c-1.33301 0 -2.83301 1.16699 -4.5 3.5s-2.83398 3.83301 -3.50098 4.5l8 9c6.66699 1.33301 18.334 4.33301 35.001 9l52.5 15l52.5 15l35 10c4.66699 1.33301 8.66699 3.33301 12 6c3.33301 1.33301 6.33301 3 9 5s4 3.66699 4 5v159c0 10 4.33301 16.833 13 20.5
s17 5.5 25 5.5c4.66699 0 9.5 -0.833008 14.5 -2.5s6.83301 -6.5 5.5 -14.5c0 -4 -0.166992 -10.333 -0.5 -19s-0.5 -17.834 -0.5 -27.501s0.166992 -19 0.5 -28s0.5 -15.167 0.5 -18.5c0 -6 0.333008 -13.667 1 -23s1.5 -18.5 2.5 -27.5l2.5 -23
c0.666992 -6.33301 1.33398 -9.5 2.00098 -9.5l182 -25c0.666992 0 2.16699 -2 4.5 -6s3.83301 -7.33301 4.5 -10v-4c0 -6.66699 -4 -11.834 -12 -15.501s-15 -5.5 -21 -5.5c-22.667 0 -45.5 3 -68.5 9s-45.833 9 -68.5 9c-1.33301 0 -4.83301 -0.166992 -10.5 -0.5
s-9.16699 -0.5 -10.5 -0.5l-15 -249h25c22.667 0 45.334 -0.833008 68.001 -2.5s44.667 -6.5 66 -14.5l-17 -16c-0.666992 -0.666992 -1.5 -1.16699 -2.5 -1.5s-4.33301 -0.833008 -10 -1.5s-14.834 -1.66699 -27.501 -3s-30.667 -3 -54 -5
c-9.33301 -1.33301 -18.5 -2 -27.5 -2s-17.833 -0.666992 -26.5 -2l-4 -2l-1 -1h-2c-2.66699 0 -5.66699 0.666992 -9 2c-39.333 -2 -77.333 -3 -114 -3c-2.66699 0 -6.5 0.333008 -11.5 1s-9.83301 1.83398 -14.5 3.50098s-8.5 4.16699 -11.5 7.5s-3.83301 7.33301 -2.5 12
z" />
    <glyph glyph-name="twosuperior" unicode="&#xb2;" horiz-adv-x="367" 
d="M22.8223 195.458c0 0.299805 0.289062 1.12207 0.863281 2.46777s0.861328 2.16797 0.861328 2.4668l214.593 216.678c9.19238 8.67285 15.2256 16.5234 18.0986 23.5518c2.87207 7.02832 4.30859 14.8789 4.30859 23.5518
c0 4.48633 -0.287109 8.52344 -0.861328 12.1123c-0.575195 3.58887 -2.87305 7.32715 -6.89453 11.2148c-1.72363 0 -4.88379 0.0751953 -9.48047 0.224609s-7.46973 0.224609 -8.61914 0.224609c-19.5342 0 -37.7764 -1.79492 -54.7256 -5.38379
s-32.749 -8.29883 -47.3994 -14.1309c-14.6514 -5.83203 -28.584 -12.3369 -41.7979 -19.5146l-38.7822 -21.084c-5.1709 0.897461 -10.1982 2.16797 -15.082 3.8125c-4.88379 1.64551 -7.3252 4.11328 -7.3252 7.40332c0 5.68262 3.73438 11.2158 11.2031 16.5996
c7.46973 5.38379 16.8066 10.543 28.0107 15.4775c11.2031 4.93457 23.9863 9.4209 38.3506 13.458c14.3643 4.03809 28.2969 7.77637 41.7979 11.2158c13.502 3.43945 26.2861 6.28027 38.3516 8.52344s21.5449 4.1123 28.4395 5.60742
c1.72363 0 3.87793 0.0751953 6.46289 0.224609s5.45801 0.223633 8.61816 0.223633s6.0332 0.0751953 8.61816 0.224609s4.45215 0.224609 5.60156 0.224609c9.19238 0 18.2412 -0.224609 27.1465 -0.672852s16.5176 -2.91602 22.8379 -7.40234
c1.14941 -1.49512 2.44238 -3.8877 3.87891 -7.17773s3.0166 -6.6543 4.74023 -10.0938s3.0166 -6.80371 3.87891 -10.0938s1.29297 -5.38379 1.29297 -6.28125c0 -1.79395 -0.430664 -4.56055 -1.29297 -8.29883c-0.862305 -3.73926 -2.15527 -7.55273 -3.87891 -11.4404
l-4.74023 -10.9912c-1.43652 -3.43945 -2.72949 -5.75781 -3.87891 -6.9541l-93.0762 -104.525c-1.14941 -0.598633 -3.44727 -2.31836 -6.89453 -5.15918l-6.89453 -5.60742c-5.1709 -4.78516 -11.0596 -10.6172 -17.667 -17.4951l-21.5459 -21.5332l-22.4072 -21.9824
l-19.3906 -19.5146l-13.7891 -14.3555l-5.1709 -5.60742v-3.58887c20.6836 0 42.8037 0.448242 66.3594 1.3457c23.5566 0.897461 47.2568 2.31836 71.1006 4.2627c23.8428 1.94434 47.2549 4.86035 70.2363 8.74805s44.2402 8.82227 63.7754 14.8037
c0.574219 -0.598633 1.00488 -1.57031 1.29199 -2.91602l0.430664 -2.01953c0 -5.68262 -5.02734 -10.542 -15.0811 -14.5791c-10.0547 -4.03809 -21.9766 -7.47754 -35.7656 -10.3184s-27.5781 -5.1582 -41.3672 -6.95215l-31.0254 -4.03809
c-6.89453 -0.597656 -18.8164 -1.86816 -35.7656 -3.8125c-16.9482 -1.94434 -34.7588 -3.88867 -53.4316 -5.83301l-53.8633 -5.38379l-35.334 -3.36426c-1.14941 0 -3.16016 -0.0751953 -6.03223 -0.224609s-4.5957 -0.223633 -5.1709 -0.223633
c-8.04395 0 -14.5078 1.19629 -19.3916 3.58887s-7.3252 5.83203 -7.3252 10.3174z" />
    </font>
</defs>
</svg>
