<?xml version="1.0" standalone="no"?>
<!DOCTYPE svg PUBLIC "-//W3C//DTD SVG 1.1//EN" "http://www.w3.org/Graphics/SVG/1.1/DTD/svg11.dtd" >
<svg>
<metadata>
Created by FontForge 20090914 at Tue Jan  2 14:07:40 2018
 By www-data
Copyright (c) 2006 Alejandro Paul (sudtipos@sudtipos.com),with Reserved Font Name "Mr De Haviland"
</metadata>
<defs>
<font id="MrDeHaviland-Regular" horiz-adv-x="500" >
  <font-face 
    font-family="Mr De Haviland"
    font-weight="400"
    font-stretch="normal"
    units-per-em="1000"
    panose-1="2 0 0 0 0 0 0 0 0 0"
    ascent="800"
    descent="-200"
    x-height="200"
    cap-height="759"
    bbox="-306 -441.997 1174 891.003"
    underline-thickness="50"
    underline-position="-50"
    unicode-range="U+0020-U+FB02"
  />
<missing-glyph horiz-adv-x="175" 
 />
    <glyph glyph-name=".notdef" horiz-adv-x="175" 
 />
    <glyph glyph-name="space" unicode=" " horiz-adv-x="175" 
 />
    <glyph glyph-name="exclam" unicode="!" horiz-adv-x="327" 
d="M434 639c0 -2 -19.334 -37.667 -58.001 -107c-119.333 -214 -194.666 -351.333 -225.999 -412c-17.333 -22 -29.333 -33 -36 -33c-4 0 -6 2.16699 -6 6.5s22.667 49.666 68 135.999l135.5 258c45 85.667 66.833 128.834 65.5 129.501c4 6.66699 10.667 11.667 20 15
l32 11zM105.499 5c-6.33301 -6.66699 -13.332 -10 -20.999 -10s-13.334 1.66699 -17.001 5s-5.66699 9 -6 17s3.16699 14.667 10.5 20s14.333 8 21 8c14.667 0 22 -6.33301 22 -19c0 -7.33301 -3.16699 -14.333 -9.5 -21z" />
    <glyph glyph-name="quotedbl" unicode="&#x22;" horiz-adv-x="273" 
d="M207 505l-60.999 -79c-4.66699 -6.66699 -9.33398 -10 -14.001 -10c-3.33301 0 -5 1.83301 -5 5.5s1 7.5 3 11.5l53 88c4 6.66699 9 10 15 10c8 0 12 -5.33301 12 -16c0 -2.66699 -1 -6 -3 -10zM287.001 505l-60.999 -79c-4.66699 -6.66699 -9.33398 -10 -14.001 -10
c-3.33301 0 -5 1.83301 -5 5.5s1 7.5 3 11.5l53 88c4 6.66699 9 10 15 10c8 0 12 -5.33301 12 -16c0 -2.66699 -1 -6 -3 -10z" />
    <glyph glyph-name="numbersign" unicode="#" horiz-adv-x="444" 
d="M254 288l-44 -125c-1.33301 -4.66699 -4 -7 -8 -7s-7.83301 1.83301 -11.5 5.5s-5.5 7.83398 -5.5 12.501l37 114c-18.667 -0.666992 -46 -1 -82 -1l-44 -124c-1.33301 -4.66699 -4 -7 -8 -7s-7.83301 1.83301 -11.5 5.5s-5.5 7.83398 -5.5 12.501
c18 58 30 95.667 36 113h-95c-15.333 0 -25 0.666992 -29 2s-6 4 -6 8c0 13.333 5 20.333 15 21h126l24 71h-89c-15.333 0 -25 0.666992 -29 2s-6 4 -6 8c0 13.333 5 20.333 15 21h120l39 108c7.33301 20.667 13.5 31 18.5 31s9.33301 -2 13 -6s5.5 -8.33301 5.5 -13
l-42 -120h81c4 12 16.667 48 38 108c7.33301 20.667 13.5 31 18.5 31s9.33301 -2 13 -6s5.5 -8.33301 5.5 -13l-42 -119h139c4 0 6 -1.33301 6 -4c0 -14 -5 -21.333 -15 -22c-54 -2.66699 -101 -4.33398 -141 -5.00098l-25 -71h134c4 0 6 -1.33301 6 -4
c0 -14 -5 -21.333 -15 -22c-52 -2.66699 -97.333 -4.33398 -136 -5.00098zM232 319l25 71c-18.667 -0.666992 -45.667 -1 -81 -1l-25 -70h81z" />
    <glyph glyph-name="dollar" unicode="$" horiz-adv-x="530" 
d="M357 678l62 115c7.33301 13.333 14.5 20 21.5 20s10.5 -1.66699 10.5 -5c0 -5.33301 -20.667 -48.333 -62 -129c42 -1.33301 73.667 -10.333 95 -27c56 23.333 101.333 35 136 35c5.33301 0 8.5 -0.5 9.5 -1.5s1.5 -4.83301 1.5 -11.5s-3 -11 -9 -13
c-40 -1.33301 -81 -9.33301 -123 -24c8.66699 -12 13 -26.333 13 -43c0 -48 -13.667 -85.167 -41 -111.5s-57.333 -39.5 -90 -39.5c-17.333 0 -31.833 4.16699 -43.5 12.5s-17.5 20.166 -17.5 35.499c0 27.333 12 53.333 36 78s55 46.667 93 66
c-16.667 14.667 -40.334 22.334 -71.001 23.001l-137 -259c55.333 -55.333 90 -93 104 -113c19.333 -23.333 29 -55.333 29 -96s-17 -79.5 -51 -116.5s-75.667 -65.167 -125 -84.5s-98.666 -29 -147.999 -29c-13.333 0 -30 1.33301 -50 4l-38 -68
c-2.66699 -5.33301 -6.83398 -10.833 -12.501 -16.5s-10.167 -8.5 -13.5 -8.5c-6 0 -9 3.33301 -9 10c0 4 1.33301 8.66699 4 14l42 75c-36 10.667 -62.167 28 -78.5 52s-24.5 47.667 -24.5 71s6.33301 35 19 35c6.66699 0 13 -3.66699 19 -11s9 -15.666 9 -24.999
c0 -49.333 22.333 -83 67 -101l214 394l-18 16c-48 42.667 -72 79.334 -72 110.001c0 39.333 23.833 76.166 71.5 110.499s106.834 53.166 177.501 56.499zM11 -17c16.667 -3.33301 31.832 -5 45.499 -5s27.5 1 41.5 3s34.5 6.5 61.5 13.5s53.667 20.167 80 39.5
s47.833 42.833 64.5 70.5s25 53.167 25 76.5s-3.83301 43.833 -11.5 61.5s-15.5 30.5 -23.5 38.5l-12 12c-21.333 27.333 -41.666 50.333 -60.999 69zM152.998 525c0 -29.333 17.334 -59.667 52.001 -91l13 -13c83.333 154.667 125.666 233 126.999 235
c-48 -4.66699 -92 -18.5 -132 -41.5s-60 -52.833 -60 -89.5zM382.499 565.499c-20.333 -21.667 -30.5 -43 -30.5 -64s8.33301 -31.5 25 -31.5c26.667 0 49.667 11.333 69 34s29 45 29 67s-4.33301 38.667 -13 50c-32.667 -15.333 -59.167 -33.833 -79.5 -55.5z" />
    <glyph glyph-name="percent" unicode="%" horiz-adv-x="712" 
d="M342.5 312.5l211.501 372.5c6 10.667 12.5 16 19.5 16s10.5 -1.5 10.5 -4.5s-140.667 -254.5 -422 -754.5c-2.66699 -5.33301 -6.83398 -10.833 -12.501 -16.5s-10.167 -8.5 -13.5 -8.5c-6 0 -9 3.33301 -9 10c0 4 2.16699 9.83301 6.5 17.5zM124.001 272
c-26.667 0 -46.001 7.5 -58.001 22.5s-18 36 -18 63s9.33301 61.5 28 103.5s47.5 80.5 86.5 115.5s81.5 52.5 127.5 52.5c49.333 0 74 -29.333 74 -88s-26.667 -118.167 -80 -178.5s-106.666 -90.5 -159.999 -90.5zM286 617c-30.667 0 -62.5 -16.167 -95.5 -48.5
s-59.667 -69.833 -80 -112.5s-30.5 -80 -30.5 -112c0 -39.333 16.667 -59 50 -59c44 0 89.167 33.167 135.5 99.5s69.5 124.833 69.5 175.5c0 38 -16.333 57 -49 57zM434 -18c-26.667 0 -46.001 7.5 -58.001 22.5s-18 36 -18 63s9.33301 61.5 28 103.5s47.5 80.5 86.5 115.5
s81.5 52.5 127.5 52.5c49.333 0 74 -29.333 74 -88s-26.667 -118.167 -80 -178.5s-106.666 -90.5 -159.999 -90.5zM595.999 327c-30.667 0 -62.5 -16.167 -95.5 -48.5s-59.667 -69.833 -80 -112.5s-30.5 -80 -30.5 -112c0 -39.333 16.667 -59 50 -59
c44 0 89.167 33.167 135.5 99.5s69.5 124.833 69.5 175.5c0 38 -16.333 57 -49 57z" />
    <glyph glyph-name="ampersand" unicode="&#x26;" horiz-adv-x="552" 
d="M519 -12c12 -6.66699 17.999 -12.6689 17.999 -18.002c0 -9.33301 -4.33301 -14.666 -13 -15.999h-5c-37.333 6 -77.333 34.667 -120 86c-84.667 -61.333 -170 -92 -256 -92c-52 0 -93.667 13 -125 39s-47 62.667 -47 110c0 60 23.667 116 71 168
c38.667 42.667 90.334 85.667 155.001 129l58 38c2.66699 50.667 10.334 92 23.001 124l7 16c11.333 24 24.833 44.167 40.5 60.5s31.167 27.5 46.5 33.5c25.333 10.667 46 16 62 16c18 0 30.667 -8.33301 38 -25c3.33301 -6.66699 5 -17 5 -31s-4.83301 -30.333 -14.5 -49
s-25 -38 -46 -58s-40.5 -36.833 -58.5 -50.5l-75 -55.5c1.33301 -42.667 9.66602 -86 24.999 -130c0.666992 -4 2 -9 4 -15c54 31.333 102.333 47 145 47c10.667 0 23 -2.33301 37 -7c27.333 -9.33301 41 -29.666 41 -60.999c0 -64 -36 -125.667 -108 -185
c29.333 -34 60 -58.667 92 -74zM321.999 158.998c-14.667 28 -24.999 50.3359 -30.999 67.0029c-36 -30.667 -57.667 -63.667 -65 -99c-2 -9.33301 -6.66699 -14 -14 -14c-9.33301 0 -14 7.66699 -14 23c0 36 28.333 73.667 85 113c-16.667 49.333 -26 97.666 -28 144.999
c-36.667 -26 -66.334 -48.333 -89.001 -67s-46.667 -41.334 -72 -68.001c-51.333 -52.667 -77 -109.667 -77 -171c0 -78.667 46.333 -118 139 -118c27.333 0 63.5 7.66699 108.5 23s86.167 35.666 123.5 60.999c-22.667 29.333 -42 59.333 -58 90zM499 227.001
c0 6 -0.667969 12.499 -2.00098 19.499s-7.5 15.5 -18.5 25.5s-26.5 15 -46.5 15c-31.333 0 -68.666 -13.333 -111.999 -40c24 -62.667 56.333 -120 97 -172c54.667 46.667 82 97.334 82 152.001zM450.999 628c0 8 -2.16895 14.665 -6.50195 19.998
s-11.166 9.33301 -20.499 12c-40.667 0 -75 -23.333 -103 -70c-21.333 -36 -33.666 -82.667 -36.999 -140c55.333 36.667 97 68.334 125 95.001s42 54.334 42 83.001z" />
    <glyph glyph-name="quotesingle" unicode="'" horiz-adv-x="190" 
d="M207 505l-60.999 -79c-4.66699 -6.66699 -9.33398 -10 -14.001 -10c-3.33301 0 -5 1.83301 -5 5.5s1 7.5 3 11.5l53 88c4 6.66699 9 10 15 10c8 0 12 -5.33301 12 -16c0 -2.66699 -1 -6 -3 -10z" />
    <glyph glyph-name="parenleft" unicode="(" horiz-adv-x="317" 
d="M103 47c0 70.667 9.66699 138.333 29 203s44.5 120.5 75.5 167.5s65.167 90.667 102.5 131s74.666 73.5 111.999 99.5c76 53.333 135 89.333 177 108l29 12c1.33301 0 2 -0.666992 2 -2l-6 -9c-141.333 -65.333 -258.166 -163.833 -350.499 -295.5
s-138.5 -279.5 -138.5 -443.5c0 -64.667 13.333 -122.667 40 -174c0 -5.33301 -0.833008 -8 -2.5 -8s-3.5 1.33301 -5.5 4c-16.667 26.667 -31.5 59.667 -44.5 99s-19.5 75.333 -19.5 108z" />
    <glyph glyph-name="parenright" unicode=")" horiz-adv-x="415" 
d="M414.5 665c13 -39.333 19.5 -81.001 19.5 -125.001s-6 -92 -18 -144s-28.167 -98.5 -48.5 -139.5s-43.5 -80 -69.5 -117s-53.667 -69.333 -83 -97s-58.5 -53.167 -87.5 -76.5s-56.5 -42.666 -82.5 -57.999c-53.333 -32.667 -92.666 -54 -117.999 -64l-18 -8
c-1.33301 0 -2 0.666992 -2 2l6 9c141.333 65.333 258.166 163.833 350.499 295.5s138.5 279.5 138.5 443.5c0 64.667 -13.333 122.667 -40 174c0 5.33301 0.833008 8 2.5 8s3.5 -1.33301 5.5 -4c16.667 -26.667 31.5 -59.667 44.5 -99z" />
    <glyph glyph-name="asterisk" unicode="*" horiz-adv-x="295" 
d="M230 435l-42.999 -54.001l69 -5c10.667 -2 16 -6.33301 16 -13c0 -10.667 -6 -16 -18 -16c-2 0 -24 5.33301 -66 16l31 -56c2 -3.33301 3 -7 3 -11c0 -8.66699 -5.33301 -13 -16 -13c-6.66699 0 -11.334 4.33301 -14.001 13l-21 59l-31 -57c-4 -6.66699 -9 -10 -15 -10
c-8 0 -12 5.33301 -12 16c0 2.66699 1 6 3 10l43 54l-70 6c-6 0 -10.167 1.83301 -12.5 5.5s-3.5 6.5 -3.5 8.5c0 9.33301 5.66699 14 17 14l66 -16l-32 59c-1.33301 2.66699 -2 5.66699 -2 9c0 7.33301 4.16699 11.333 12.5 12s13.833 -2.66602 16.5 -9.99902l23 -64l32 59
c4 6.66699 9 10 15 10c8 0 12 -5.33301 12 -16c0 -2.66699 -1 -6 -3 -10z" />
    <glyph glyph-name="plus" unicode="+" horiz-adv-x="356" 
d="M140 288l-44 -125.001c-1.33301 -4.66699 -4 -7 -8 -7s-7.83301 1.83301 -11.5 5.5s-5.5 7.83398 -5.5 12.501c16.667 54 28.667 91.667 36 113h-95c-15.333 0 -25 0.666992 -29 2s-6 4 -6 8c0 13.333 5 20.333 15 21h126l36 103c7.33301 20.667 13.5 31 18.5 31
s9.33301 -2 13 -6s5.5 -8.33301 5.5 -13l-40 -114h126c4 0 6 -1.33301 6 -4c0 -14 -5 -21.333 -15 -22c-34 -2 -76.667 -3.66699 -128 -5z" />
    <glyph glyph-name="comma" unicode="," horiz-adv-x="191" 
d="M63 -14l-7 30.999c0 6 2 11.167 6 15.5s9 6.5 15 6.5s11.333 -2.16699 16 -6.5s7.33398 -11.166 8.00098 -20.499c-2 -18 -7.33301 -34 -16 -48s-18.334 -24.667 -29.001 -32c-23.333 -14 -44 -22.667 -62 -26l-11 -2c-3.33301 0 -5 2 -5 6
c0 1.33301 7.16699 4.5 21.5 9.5s28.5 13.167 42.5 24.5s21 25.333 21 42z" />
    <glyph glyph-name="hyphen" unicode="-" horiz-adv-x="435" 
d="M357 103c0 -10 -7.66699 -18.667 -23 -26s-31.833 -11 -49.5 -11s-41.834 6.16699 -72.501 18.5s-52.167 18.5 -64.5 18.5s-25.166 -3.16699 -38.499 -9.5s-21.666 -9.5 -24.999 -9.5l-2 1c0 2.66699 3.5 7.16699 10.5 13.5s17.333 12.5 31 18.5s28.167 9 43.5 9
s39.333 -6.83301 72 -20.5s54.167 -20.5 64.5 -20.5s19.166 1.83301 26.499 5.5s13 7.16699 17 10.5s6.66699 5 8 5s2 -1 2 -3z" />
    <glyph glyph-name="period" unicode="." horiz-adv-x="217" 
d="M85.5 -6c-6.33301 -6.66699 -13.332 -10 -20.999 -10s-13.334 1.66699 -17.001 5s-5.66699 9 -6 17s3.16699 14.667 10.5 20s14.333 8 21 8c14.667 0 22 -6.33301 22 -19c0 -7.33301 -3.16699 -14.333 -9.5 -21z" />
    <glyph glyph-name="slash" unicode="/" horiz-adv-x="312" 
d="M234.5 281.5l211.501 372.5c6 10.667 12.5 16 19.5 16s10.5 -1.5 10.5 -4.5s-140.667 -254.5 -422 -754.5c-2.66699 -5.33301 -6.83398 -10.833 -12.501 -16.5s-10.167 -8.5 -13.5 -8.5c-6 0 -9 3.33301 -9 10c0 4 2.16699 9.83301 6.5 17.5z" />
    <glyph glyph-name="zero" unicode="0" horiz-adv-x="561" 
d="M242.5 27c-56.333 -33.333 -110.334 -49.999 -162.001 -49.999s-89 14.5 -112 43.5s-34.5 63.5 -34.5 103.5s6.83301 83 20.5 129s34.167 93.667 61.5 143s59.333 94.833 96 136.5s80.834 76 132.501 103s105.5 40.5 161.5 40.5c96 0 144 -54.667 144 -164
c0 -58.667 -14.667 -120.334 -44 -185.001s-66.5 -122.5 -111.5 -173.5s-95.667 -93.167 -152 -126.5zM513.999 537.001c0 26 -5.00195 48.0029 -15.002 66.0029s-22.333 30.333 -37 37c-24.667 10.667 -45 16 -61 16c-38 0 -75.667 -9.33301 -113 -28
s-71.166 -43.334 -101.499 -74.001s-58.666 -65.334 -84.999 -104.001s-48.5 -78 -66.5 -118c-38 -85.333 -57 -157.333 -57 -216c0 -59.333 16.667 -96 50 -110c16 -6 36 -9 60 -9c58 0 121 30.5 189 91.5s124.5 134.167 169.5 219.5s67.5 161.666 67.5 228.999z" />
    <glyph glyph-name="one" unicode="1" horiz-adv-x="327" 
d="M434 663c-64 -78.667 -131.167 -172.832 -201.5 -282.499s-124.5 -199.5 -162.5 -269.5l-58 -105c-7.33301 -12.667 -17.666 -19 -30.999 -19s-20 3.66699 -20 11l3 10c28 58.667 73.167 137.334 135.5 236.001l166.5 254l73 107c0 2 -1.66699 3 -5 3l-6 -1
c-32 -24.667 -71.333 -50.5 -118 -77.5s-85.334 -48.167 -116.001 -63.5l-46 -22c-7.33301 -2.66699 -13.333 -4 -18 -4s-7 2 -7 6c2 8.66699 6 16.167 12 22.5s14.833 11.666 26.5 15.999s29.167 11.5 52.5 21.5s65.333 31.667 126 65s114 68 160 104
c4.66699 6 12.5 9 23.5 9s16.5 -2.33301 16.5 -7s-2 -9.33398 -6 -14.001z" />
    <glyph glyph-name="two" unicode="2" horiz-adv-x="524" 
d="M372 524c0 -20 -24.8379 -41.999 -74.5049 -65.999s-97.167 -36 -142.5 -36s-68 15.667 -68 47c0 27.333 17 56.5 51 87.5s78.167 57.167 132.5 78.5s107.833 32 160.5 32c30.667 0 55.834 -6.33301 75.501 -19s29.5 -31 29.5 -55s-5.66699 -46.833 -17 -68.5
s-24.666 -41 -39.999 -58s-37.333 -36.833 -66 -59.5s-53.167 -40.834 -73.5 -54.501l-86.5 -57l-74 -49l-32 -23l-52.5 -40c-25.667 -19.667 -48.5 -38.167 -68.5 -55.5c-54 -45.333 -86.667 -81 -98 -107c-1.33301 -3.33301 -2 -6.33301 -2 -9c0 -4.66699 2.33301 -7 7 -7
c0.666992 0 7.83398 1.5 21.501 4.5s31.334 6.5 53.001 10.5s45.167 8 70.5 12c62 10 111.333 15 148 15s66.5 -3.83301 89.5 -11.5s34.5 -17.5 34.5 -29.5s-3.66699 -18 -11 -18l-18 5c-36 12 -81.667 18 -137 18c-98.667 0 -182.667 -8.33301 -252 -25l-36 -8
c-6 -2 -11 -3 -15 -3c-10.667 0 -16 5.33301 -16 16c0 19.333 26.333 52.333 79 99c40.667 36.667 79 68 115 94l100 71l10 7c58.667 38 109.5 74.167 152.5 108.5s71.167 58.833 84.5 73.5l20 23c41.333 44 62 82.333 62 115c0 42.667 -28.833 64 -86.5 64
s-117 -19.5 -178 -58.5s-91.5 -75.5 -91.5 -109.5c0 -22 14.833 -33 44.5 -33s60.834 7 93.501 21s61 34 85 60c4.66699 4 8.66699 6 12 6s5 -2.66699 5 -8z" />
    <glyph glyph-name="three" unicode="3" 
d="M168 358l-17.998 -0.995117c-4.66699 0 -7 1.66699 -7 5c0 5.33301 3.66699 12.333 11 21l10 5c100.667 22 180.667 56.667 240 104c14 11.333 23.333 20.333 28 27l8 10c16 21.333 24 40 24 56c0 42 -39 63 -117 63c-55.333 0 -107.5 -14 -156.5 -42
s-73.5 -56.333 -73.5 -85c0 -18.667 15 -28 45 -28c48 0 89.333 13.333 124 40c2 2 4.5 3 7.5 3s4.5 -1.66699 4.5 -5c0 -16 -18.333 -31 -55 -45s-66.834 -21 -90.501 -21s-41 3.16699 -52 9.5s-17.333 12.166 -19 17.499s-2.5 10.333 -2.5 15
c0 36.667 30.5 72.667 91.5 108s127.833 53 200.5 53c29.333 0 54.666 -3.33301 75.999 -10c41.333 -14 62 -36.333 62 -67c0 -14.667 -3.16699 -27.167 -9.5 -37.5s-15.5 -22.333 -27.5 -36s-26.333 -26.834 -43 -39.501s-41.167 -27.167 -73.5 -43.5
s-68.5 -30.833 -108.5 -43.5c-7.33301 -2.66699 -11 -5 -11 -7s2.83301 -3.16699 8.5 -3.5s12.167 -1 19.5 -2s20.333 -4.16699 39 -9.5s35.334 -12.333 50.001 -21s27.834 -21.834 39.501 -39.501s17.5 -37.834 17.5 -60.501c0 -54.667 -20.667 -104.834 -62 -150.501
s-90 -80 -146 -103s-105.167 -34.5 -147.5 -34.5s-74.5 4.33301 -96.5 13s-37.333 19.667 -46 33c-14 21.333 -21 41 -21 59c2 24.667 9.33301 46.667 22 66s26.667 34 42 44s31.666 18.333 48.999 25c26 10 45.167 15 57.5 15s18.5 -2.66699 18.5 -8
c0 -2.66699 -4 -5.33398 -12 -8.00098c-26 -5.33301 -48.667 -13.333 -68 -24s-33.333 -22 -42 -34c-18 -25.333 -27.333 -46.333 -28 -63l-1 -11c0 -19.333 4.66699 -35.5 14 -48.5s21.666 -22.167 36.999 -27.5c24 -8.66699 51.333 -13 82 -13s62.834 6.5 96.501 19.5
s62.5 29.833 86.5 50.5s45 43.334 63 68.001c36 48 54 92.333 54 133c0 22.667 -6.33301 42 -19 58s-29.334 27.333 -50.001 34c-35.333 11.333 -72 17 -110 17h-15z" />
    <glyph glyph-name="four" unicode="4" horiz-adv-x="563" 
d="M159 -48c-6 -11.333 -16.666 -17 -31.999 -17s-23 4.66699 -23 14l6 19c14 28.667 53.667 92 119 190h-13l-286 -10c-19.333 0 -29 6 -29 18l6 20c98 105.333 220.667 208 368 308c173.333 116 279.666 174 318.999 174c10.667 0 17.334 -4.33301 20.001 -13v-1
c0 -12.667 -12.333 -34.667 -37 -66c-100.667 -132.667 -194.667 -267 -282 -403c67.333 3.33301 130.666 8.33301 189.999 15h5c10.667 0 16 -2.33301 16 -7c0 -2.66699 -1.66699 -5 -5 -7c-20.667 -15.333 -95 -24.666 -223 -27.999
c-49.333 -76.667 -89 -145.334 -119 -206.001zM20.001 179c86.667 0 162.331 1.33301 226.998 4l251 366l46 65c3.33301 5.33301 5 8.66602 5 9.99902s-1.66699 2 -5 2l-13 -3c-21.333 -10 -59.166 -31.333 -113.499 -64s-102.666 -64 -144.999 -94
s-90.5 -68.667 -144.5 -116s-102 -95.666 -144 -144.999c-4.66699 -6.66699 -7 -12.5 -7 -17.5s4 -7.5 12 -7.5h31z" />
    <glyph glyph-name="five" unicode="5" horiz-adv-x="472" 
d="M-135 5.5c-3.33301 9.66699 -5.00195 19.4961 -5.00195 29.4961s2.66699 19 8 27c9.33301 14 18.166 21 26.499 21s12.5 -3.33301 12.5 -10c0 -2.66699 -2 -7 -6 -13s-6 -13 -6 -21c0 -59.333 37.333 -89 112 -89c50.667 0 97.667 15.333 141 46
c37.333 26.667 63.333 50 78 70l10 14c49.333 64.667 74 126 74 184c0 18.667 -2.66699 36.334 -8 53.001s-10.666 28.334 -15.999 35.001l-8 11c-21.333 22 -48 33 -80 33c-27.333 0 -52.666 -5.33301 -75.999 -16l-11 -6c-16 -10.667 -31 -16.667 -45 -18
c-7.33301 2 -11 5.33301 -11 10l4 11c32 37.333 78.667 107 140 209l30 50c4.66699 5.33301 11.667 8 21 8c59.333 -2.66699 113.5 -4 162.5 -4s85.833 1.33301 110.5 4c12.667 0 19 -1.66699 19 -5c0 -7.33301 -4 -13 -12 -17c-22 -10 -109.333 -17 -262 -21
c-16.667 0 -27.667 -2.33301 -33 -7c-46.667 -73.333 -85.667 -131.666 -117 -174.999c-1.33301 -3.33301 -2 -6.33301 -2 -9c0 -4.66699 2 -7 6 -7c1.33301 0 8.5 2.16699 21.5 6.5s33.167 6.5 60.5 6.5c73.333 0 119.333 -32.333 138 -97c6 -16 9 -37 9 -63
c0 -84 -39 -162.333 -117 -235c-4.66699 -4.66699 -15.167 -13 -31.5 -25s-33 -22.5 -50 -31.5s-38.5 -17.167 -64.5 -24.5s-53.167 -11 -81.5 -11s-53.5 4 -75.5 12s-37.667 18.333 -47 31s-15.666 23.834 -18.999 33.501z" />
    <glyph glyph-name="six" unicode="6" horiz-adv-x="539" 
d="M339 375c62 0 93.002 -28.334 93.002 -85.001c0 -44 -16.333 -91.333 -49 -142s-76.667 -94.334 -132 -131.001s-111.666 -55 -168.999 -55c-34.667 0 -58.667 10.667 -72 32c-9.33301 16 -14 32.333 -14 49s3.33301 33 10 49s14.667 29.667 24 41
c17.333 22 34.333 38.333 51 49l10 7c6.66699 4 13 6 19 6s9 -2 9 -6c0 -3.33301 -2.33301 -6.66602 -7 -9.99902c-59.333 -38 -89 -83 -89 -135c0 -22 6.66699 -38 20 -48s28.333 -15 45 -15c34 0 70.167 12.333 108.5 37s71.666 54 99.999 88s52 68.833 71 104.5
s28.5 64.167 28.5 85.5c0 39.333 -22 59 -66 59c-34 0 -70.833 -9.66699 -110.5 -29s-74.667 -42 -105 -68s-55.833 -49.667 -76.5 -71s-33.334 -36 -38.001 -44c-8.66699 -15.333 -14.834 -23.833 -18.501 -25.5s-6.83398 -2.5 -9.50098 -2.5
c-11.333 0 -18.666 10 -21.999 30c0 16 8 40.667 24 74s32 63 48 89l24 38c45.333 74 113.666 148 204.999 222c43.333 34.667 89.833 63.5 139.5 86.5s95.5 34.5 137.5 34.5l13 -1c16 -1.33301 24 -5.16602 24 -11.499s-5.66699 -9.5 -17 -9.5l-24 1
c-65.333 -0.666992 -143.666 -37.667 -234.999 -111s-164.666 -155.666 -219.999 -246.999c-21.333 -34.667 -38.333 -66.334 -51 -95.001c0 -6.66699 0.666992 -10 2 -10s3.83301 1.83301 7.5 5.5s9.5 9.16699 17.5 16.5s24.167 20.5 48.5 39.5s48.333 35.833 72 50.5
s51.667 28 84 40s62.166 18 89.499 18z" />
    <glyph glyph-name="seven" unicode="7" horiz-adv-x="433" 
d="M-100 -29c-6.66699 0 -10.002 3.99902 -10.002 11.999c8 54.667 69.333 141.667 184 261c46 48.667 84.667 87.334 116 116.001l46 43c138.667 128 208 195.833 208 203.5s-23.667 11.5 -71 11.5c-143.333 0 -227 -10.333 -251 -31l-24 -14c-6.66699 0 -10 2.33301 -10 7
l4 12c8.66699 15.333 20.334 29.5 35.001 42.5s26.334 19.5 35.001 19.5c76 5.33301 142.667 8 200 8s98.833 -0.5 124.5 -1.5s38.5 -4.5 38.5 -10.5c0 -9.33301 -12 -25 -36 -47l-268 -241c-66 -62.667 -125.333 -128 -178 -196s-86 -126.333 -100 -175
c-3.33301 -8 -7.33301 -13.333 -12 -16s-15 -4 -31 -4z" />
    <glyph glyph-name="eight" unicode="8" horiz-adv-x="530" 
d="M378 286c19.333 -23.333 28.9961 -55.333 28.9961 -96s-17 -79.5 -51 -116.5s-75.667 -65.167 -125 -84.5s-102.166 -29 -158.499 -29s-98.666 14.167 -126.999 42.5s-42.5 57.666 -42.5 87.999s8 58.666 24 84.999s31.833 47.5 47.5 63.5s42.5 35 80.5 57s63 36 75 42
c45.333 22.667 75 36.334 89 41.001l12 5l-18 17c-48 38.667 -72 75.334 -72 110.001c0 42 26.167 80.5 78.5 115.5s116.5 52.5 192.5 52.5c28 0 52.333 -3.66699 73 -11c40 -14 60 -38.667 60 -74c0 -15.333 -5.66699 -31 -17 -47s-23.666 -29.667 -36.999 -41
s-32.666 -24.666 -57.999 -39.999c-34.667 -20.667 -73.667 -41.334 -117 -62.001l-32 -15c54 -56 85.333 -90.333 94 -103zM272.496 34c26.333 19.333 47.833 42.832 64.5 70.499s25 52.667 25 75s-4 43 -12 62s-17.667 35.833 -29 50.5c-22.667 29.333 -44 52.333 -64 69
l-12 10c-196.667 -93.333 -295 -186.333 -295 -279c0 -23.333 7.33301 -46.666 22 -69.999c20 -29.333 61.333 -44 124 -44c22 0 50.333 4.5 85 13.5s65.167 23.167 91.5 42.5zM237.996 433.999l32 -32c89.333 42 150.166 77.5 182.499 106.5s48.5 58.833 48.5 89.5
c0 40 -32 60 -96 60c-28.667 0 -59.167 -4.5 -91.5 -13.5s-61.666 -24.167 -87.999 -45.5s-39.5 -46.333 -39.5 -75s17.333 -58.667 52 -90z" />
    <glyph glyph-name="nine" unicode="9" 
d="M444 413c-20.667 -54 -50.002 -110.17 -88.002 -168.503s-71 -103.166 -99 -134.499l-42 -47c-78 -81.333 -152.333 -129.666 -223 -144.999c-14 -3.33301 -26.667 -5 -38 -5l-12 1c-22.667 2.66699 -34 10 -34 22l3 12c1.33301 1.33301 3 2 5 2l14 -5
c11.333 -4.66699 26.333 -7 45 -7s41.834 6.83301 69.501 20.5s49.5 27.5 65.5 41.5l23 20c40.667 38.667 82.667 89.667 126 153s76.333 117 99 161l34 67c2 4 3 7 3 9s-1 3 -3 3l-10 -5c-69.333 -64 -129 -108 -179 -132s-86 -36 -108 -36s-38.5 3.33301 -49.5 10
s-18.833 15.334 -23.5 26.001c-8.66699 20 -13 38 -13 54c0 46 19.5 96.5 58.5 151.5s89 102 150 141s119.167 58.5 174.5 58.5s83 -20.667 83 -62c0 -38 -21.167 -78.333 -63.5 -121s-84.833 -71.667 -127.5 -87c-6 -2.66699 -11.167 -4 -15.5 -4s-6.5 2 -6.5 6
c0 4.66699 4.33301 9.33398 13 14.001c46 17.333 84.667 46.5 116 87.5s47 74.833 47 101.5c0 31.333 -17 47 -51 47c-42.667 0 -91.167 -20.667 -145.5 -62s-100.333 -89.833 -138 -145.5s-56.5 -103.167 -56.5 -142.5c0 -32.667 16 -49 48 -49
c28 0 68.833 14.5 122.5 43.5s112.834 74.833 177.501 137.5c11.333 14.667 22 22 32 22c2 0 3.66699 -0.333008 5 -1c11.333 -3.33301 17 -10.833 17 -22.5s-1.66699 -21.834 -5 -30.501z" />
    <glyph glyph-name="colon" unicode=":" horiz-adv-x="217" 
d="M154.5 182c-6.33301 -6.66699 -13.332 -10 -20.999 -10s-13.334 1.66699 -17.001 5s-5.66699 9 -6 17s3.16699 14.667 10.5 20s14.333 8 21 8c14.667 0 22 -6.33301 22 -19c0 -7.33301 -3.16699 -14.333 -9.5 -21zM84.501 -6c-6.33301 -6.66699 -13.332 -10 -20.999 -10
s-13.334 1.66699 -17.001 5s-5.66699 9 -6 17s3.16699 14.667 10.5 20s14.333 8 21 8c14.667 0 22 -6.33301 22 -19c0 -7.33301 -3.16699 -14.333 -9.5 -21z" />
    <glyph glyph-name="semicolon" unicode=";" horiz-adv-x="191" 
d="M63 -14l-7 30.999c0 6 2 11.167 6 15.5s9 6.5 15 6.5s11.333 -2.16699 16 -6.5s7.33398 -11.166 8.00098 -20.499c-2 -18 -7.33301 -34 -16 -48s-18.334 -24.667 -29.001 -32c-23.333 -14 -44 -22.667 -62 -26l-11 -2c-3.33301 0 -5 2 -5 6
c0 1.33301 7.16699 4.5 21.5 9.5s28.5 13.167 42.5 24.5s21 25.333 21 42zM134.5 171.999c-6.33301 -6.66699 -13.332 -10 -20.999 -10s-13.334 1.66699 -17.001 5s-5.66699 9 -6 17s3.16699 14.667 10.5 20s14.333 8 21 8c14.667 0 22 -6.33301 22 -19
c0 -7.33301 -3.16699 -14.333 -9.5 -21z" />
    <glyph glyph-name="less" unicode="&#x3c;" horiz-adv-x="376" 
d="M26 306l287 137.999v-14c0 -10.667 -5.66699 -18.667 -17 -24l-245 -119l145 -131c10 -10 15 -16.667 15 -20c0 -8 -4.33301 -13.333 -13 -16l-179 156c-4 4 -6 8.33301 -6 13s4.33301 10.334 13 17.001z" />
    <glyph glyph-name="equal" unicode="=" horiz-adv-x="402" 
d="M-8 266l282 2c6 0 9 -1.66699 9 -5c0 -14 -5 -21.333 -15 -22c-80 -4 -146.5 -6 -199.5 -6s-81.5 0.666992 -85.5 2s-6 4 -6 8c0 13.333 5 20.333 15 21zM38 342l282 2c6 0 9 -1.66699 9 -5c0 -14 -5 -21.333 -15 -22c-80 -4 -146.5 -6 -199.5 -6s-81.5 0.666992 -85.5 2
s-6 4 -6 8c0 13.333 5 20.333 15 21z" />
    <glyph glyph-name="greater" unicode="&#x3e;" horiz-adv-x="376" 
d="M302 258l-287 -137.999v14c0 10.667 5.66699 18.667 17 24l245 119l-145 131c-10 10 -15 16.667 -15 20c0 8 4.33301 13.333 13 16l179 -156c4 -4 6 -8.33301 6 -13s-4.33301 -10.334 -13 -17.001z" />
    <glyph glyph-name="question" unicode="?" horiz-adv-x="327" 
d="M150 174c-2.66699 -7.33301 -7.3291 -11.667 -13.9961 -13c-6.66699 4.66699 -10 13 -10 25c0 40 42 92 126 156l106 78.5c35.333 26.333 65.333 54 90 83s37 55.833 37 80.5c0 15.333 -5.33301 28 -16 38s-24.334 16.667 -41.001 20c-27.333 5.33301 -49 8 -65 8
c-66 0 -124.333 -17.333 -175 -52s-76 -67 -76 -97c0 -27.333 21.167 -41 63.5 -41s85.5 13.333 129.5 40c4.66699 3.33301 8.66699 5 12 5s5 -1.66699 5 -5c0 -12.667 -21.833 -27 -65.5 -43s-82.834 -24 -117.501 -24c-48 0 -72 16.333 -72 49
c0 45.333 33.5 88.333 100.5 129s138.5 61 214.5 61c21.333 0 45.333 -3.66699 72 -11c52.667 -14 79 -40.667 79 -80s-38.333 -87.333 -115 -144l-102 -76c-34.667 -26 -67.834 -55.5 -99.501 -88.5s-53.834 -65.833 -66.501 -98.5zM105.505 4.99902
c-6.33301 -6.66699 -13.332 -10 -20.999 -10s-13.334 1.66699 -17.001 5s-5.66699 9 -6 17s3.16699 14.667 10.5 20s14.333 8 21 8c14.667 0 22 -6.33301 22 -19c0 -7.33301 -3.16699 -14.333 -9.5 -21z" />
    <glyph glyph-name="at" unicode="@" horiz-adv-x="521" 
d="M428.5 16c-38.333 -52 -81.832 -77.9961 -130.499 -77.9961c-30 0 -45 16.667 -45 50c0 18.667 4 38 12 58l-6 -2c-40 -33.333 -73 -50 -99 -50c-21.333 0 -32 12 -32 36c0 36.667 23.833 75.167 71.5 115.5s90.167 60.5 127.5 60.5c10 0 17.667 -2 23 -6
c7.33301 -6 11 -12.667 11 -20c0 -14.667 -6.33301 -27.334 -19 -38.001c-16 -13.333 -27.667 -20 -35 -20s-11 1.33301 -11 4l2 4c18.667 17.333 28 32 28 44c0 8.66699 -6 13 -18 13c-28.667 0 -59.167 -19.5 -91.5 -58.5s-48.5 -67.833 -48.5 -86.5
c0 -11.333 6.16699 -17 18.5 -17s27 6 44 18s30.833 24 41.5 36l17 18c2.66699 3.33301 6.16699 5 10.5 5s7.83301 -2.16699 10.5 -6.5s4 -8.16602 4 -11.499l-1 -6c-17.333 -31.333 -26 -58.833 -26 -82.5s10.333 -35.5 31 -35.5c30.667 0 61.667 21 93 63s47 86 47 132
c0 22 -4.33301 41.167 -13 57.5s-19.334 28.166 -32.001 35.499c-26.667 15.333 -49.667 23.333 -69 24l-13 1c-83.333 0 -154.5 -29.5 -213.5 -88.5s-88.5 -121.833 -88.5 -188.5c0 -21.333 6 -42.5 18 -63.5s32 -31.5 60 -31.5c10.667 0 20.667 1.66699 30 5
c20.667 4.66699 39.334 18.667 56.001 42c3.33301 3.33301 6.33301 5 9 5l3 -4c0 -12.667 -11.5 -27.834 -34.5 -45.501s-48.833 -26.5 -77.5 -26.5c-22.667 0 -43 7.66699 -61 23c-23.333 19.333 -35 50.166 -35 92.499s14.667 86.666 44 132.999s70.5 85.833 123.5 118.5
s109.167 49 168.5 49c47.333 0 85.666 -12.333 114.999 -37c25.333 -22 38 -54.5 38 -97.5s-19.167 -90.5 -57.5 -142.5z" />
    <glyph glyph-name="A" unicode="A" horiz-adv-x="515" 
d="M-41 -68c-15.333 0 -25.6631 5.00195 -30.9961 15.002c-2 3.33301 -3 6 -3 8s0.666992 3.66699 2 5c60.667 44.667 132.667 114.667 216 210c-41.333 22.667 -73.333 49.834 -96 81.501s-34 61 -34 88s8.33301 48.167 25 63.5s41 23 73 23
c60.667 0 112.334 -35 155.001 -105l89.5 114l89.5 113.5l69 81.5c50.667 56 89 84 115 84c20 -0.666992 30 -11.334 30 -32.001c0 -22 -7.5 -52.167 -22.5 -90.5l-36 -91c-9 -22.333 -22.333 -52 -40 -89l-41.5 -88l-46 -96l-43 -88.5c51.333 3.33301 92 12.333 122 27
c5.33301 2.66699 8.66602 5.66699 9.99902 9s3.16602 5 5.49902 5s4.66602 -1.33301 6.99902 -4s3.5 -5.33398 3.5 -8.00098c0 -22.667 -52 -38.334 -156 -47.001c-26 -54 -44 -93 -54 -117c-2.66699 -5.33301 -6.66699 -8 -12 -8c-14 0 -21 13.333 -21 40
c-2.66699 20.667 -7.33398 49 -14.001 85c-52.667 4 -102 15.667 -148 35v-1c-28.667 -35.333 -60.834 -71.5 -96.501 -108.5s-64.167 -65.167 -85.5 -84.5zM393.003 138.002c152.667 317.333 228.999 494.333 228.999 531c0 11.333 -4 17 -12 17
c-12 0 -28.833 -12 -50.5 -36l-52.5 -60l-53 -66.5l-54.5 -70.5l-60.5 -80.5l-58 -77.5c20.667 -38.667 39.334 -89.667 56.001 -153c16 -2.66699 34.667 -4 56 -4zM255.002 306.002c-39.333 68 -86 102 -140 102c-24 0 -42 -5 -54 -15s-18 -24.833 -18 -44.5
s11.167 -44 33.5 -73s52.5 -54.5 90.5 -76.5zM269.002 279.002l-74 -95.999c39.333 -18.667 79.333 -31.334 120 -38.001c-14 56 -29.333 100.667 -46 134zM384.002 119.003h-42l12 -63z" />
    <glyph glyph-name="B" unicode="B" horiz-adv-x="731" 
d="M711 84c0 -26 -17.666 -43.3311 -52.999 -51.998c-2 0 -3 1.33301 -3 4s2.33301 5.66699 7 9c13.333 10 20 21 20 33c0 23.333 -18.667 40.333 -56 51c-49.333 -60.667 -117.833 -111 -205.5 -151s-165.5 -60 -233.5 -60s-102 14 -102 42
c0 23.333 23.167 51.166 69.5 83.499s106 60.666 179 84.999s141.833 36.5 206.5 36.5c32 0 59.333 -2.33301 82 -7c20.667 36.667 31 75 31 115c0 23.333 -10.333 42.833 -31 58.5s-48.334 23.5 -83.001 23.5s-67.667 -7 -99 -21c-6.66699 -4.66699 -12 -7 -16 -7
c-7.33301 0 -11 1.83301 -11 5.5s5 8.16699 15 13.5c14.667 4.66699 42.834 22.667 84.501 54s82.334 69.5 122.001 114.5s59.5 82.833 59.5 113.5c0 50 -54 75 -162 75c-76 0 -156.833 -15.5 -242.5 -46.5s-157.834 -71.333 -216.501 -121s-88 -98.167 -88 -145.5
c0 -25.333 15.667 -38 47 -38c44.667 0 88.667 11.167 132 33.5s100 62.833 170 121.5c8.66699 10 14.667 15 18 15c7.33301 0 11 -2.33301 11 -7c0 -1.33301 -2.33301 -6 -7 -14c-17.333 -17.333 -41.666 -38.333 -72.999 -63s-60.333 -45.334 -87 -62.001
s-56.834 -31.667 -90.501 -45s-64.167 -20 -91.5 -20c-47.333 0 -71 21 -71 63c0 54.667 35.667 110.834 107 168.501s155.166 104.334 251.499 140.001s182.5 53.5 258.5 53.5c120.667 0 181 -29.667 181 -89c0 -43.333 -28.833 -94.5 -86.5 -153.5
s-109.5 -99.5 -155.5 -121.5c20.667 4 40 6 58 6c42 0 74.333 -8 97 -24s34 -37.667 34 -65c0 -46.667 -15 -92.334 -45 -137.001c45.333 -13.333 68 -36 68 -68zM529.001 141.002c-50.667 0 -108.001 -10.668 -172.001 -32.001s-117.5 -45.666 -160.5 -72.999
s-64.5 -49.5 -64.5 -66.5s20.5 -25.5 61.5 -25.5s86 6.5 135 19.5s100.333 34.667 154 65s94.834 65.5 123.501 105.5c-25.333 4.66699 -51 7 -77 7zM540 639.001c0 -2 -38.832 -69.999 -116.499 -203.999l-171.5 -293c-4 -8.66699 -11.333 -15.334 -22 -20.001
s-18.834 -7 -24.501 -7s-8.5 1.5 -8.5 4.5s24.667 46 74 129l147.5 247.5c49 82 72.833 123.333 71.5 124c4 6.66699 10.667 11.667 20 15l25 8z" />
    <glyph glyph-name="C" unicode="C" horiz-adv-x="459" 
d="M449 108c5.33301 0 8.00293 -3.99707 8.00293 -11.9971c0 -10 -15.5 -25.333 -46.5 -46s-71 -39.834 -120 -57.501s-93.833 -26.5 -134.5 -26.5c-104 0 -156 57.667 -156 173c0 58.667 13.167 117.667 39.5 177s60.333 112.166 102 158.499s87 87.833 136 124.5
s97.667 64.834 146 84.501s90.833 29.5 127.5 29.5c76 0 114 -29.333 114 -88c0 -44 -20.333 -96.333 -61 -157s-90.334 -113.334 -149.001 -158.001s-111.334 -67 -158.001 -67c-36 0 -54 17 -54 51c0 43.333 28.167 96.833 84.5 160.5s104.5 95.5 144.5 95.5
c5.33301 0 8 -2 8 -6l-5 -13c-24 0 -52.333 -13.667 -85 -41s-60.334 -59 -83.001 -95s-34 -66 -34 -90c0 -26.667 13.667 -40 41 -40c34 0 75.833 20.667 125.5 62s92.667 90.166 129 146.499s54.5 103.833 54.5 142.5c0 48.667 -30.667 73 -92 73
c-32 0 -69.667 -9.16699 -113 -27.5s-87 -44.833 -131 -79.5s-84.833 -73.667 -122.5 -117s-68.334 -92.833 -92.001 -148.5s-35.5 -111.167 -35.5 -166.5c0 -105.333 46.667 -158 140 -158c48.667 0 101.334 13.167 158.001 39.5s94.667 51.833 114 76.5z" />
    <glyph glyph-name="D" unicode="D" horiz-adv-x="584" 
d="M558 84c0 -26 -17.6621 -43.3311 -52.9951 -51.998c-2 0 -3 1.33301 -3 4s2.33301 5.66699 7 9c13.333 10 20 21 20 33c0 23.333 -19.333 40.666 -58 51.999c-64.667 -58.667 -132.334 -105.5 -203.001 -140.5s-137 -52.5 -199 -52.5c-47.333 0 -71 16.5 -71 49.5
s21.333 63.667 64 92s93.667 49.833 153 64.5s110.666 22 153.999 22s75.666 -2.33301 96.999 -7c65.333 63.333 118.666 129.5 159.999 198.5s62 129.667 62 182s-19.5 92.833 -58.5 121.5s-97.833 43 -176.5 43s-160.167 -14.167 -244.5 -42.5
s-155.833 -65.5 -214.5 -111.5s-88 -91.333 -88 -136c0 -25.333 15.667 -38 47 -38c44.667 0 88.667 11.167 132 33.5s100 62.833 170 121.5c8.66699 10 15 15 19 15c6.66699 0 10 -2.33301 10 -7c0 -1.33301 -2.33301 -6 -7 -14
c-17.333 -17.333 -41.666 -38.333 -72.999 -63s-60.333 -45.334 -87 -62.001s-56.834 -31.667 -90.501 -45s-64.167 -20 -91.5 -20c-47.333 0 -71 21 -71 63c0 47.333 33.833 98 101.5 152s150.167 98.833 247.5 134.5s187.666 53.5 270.999 53.5s145 -15.667 185 -47
s60 -75 60 -131s-21.833 -121.333 -65.5 -196s-100.167 -145.334 -169.5 -212.001c42.667 -13.333 64 -35.666 64 -66.999zM442.005 136.002c-22 3.33301 -50.832 5 -86.499 5s-78.167 -5.66699 -127.5 -17s-91.833 -29 -127.5 -53s-53.5 -51 -53.5 -81
c0 -22 14.333 -33 43 -33c50.667 0 107.167 16.333 169.5 49s123.166 76 182.499 130zM442.006 646.002c0 -3.33301 -39.332 -74.333 -117.999 -213l-153 -267c-4 -8.66699 -11.333 -15.334 -22 -20.001s-18.834 -7 -24.501 -7s-8.5 1.5 -8.5 4.5s23.333 44.5 70 124.5
c139.333 238.667 208 358.334 206 359.001c4 6.66699 10.667 11.667 20 15l25 8z" />
    <glyph glyph-name="E" unicode="E" horiz-adv-x="400" 
d="M378 495c-18 0 -27 5.33008 -27 15.9971c0 16.667 19.5 40.834 58.5 72.501s82.167 56.834 129.5 75.501c0.666992 1.33301 1 3.66602 1 6.99902c0 30 -20.667 45 -62 45s-92.166 -17.833 -152.499 -53.5s-113.166 -77.667 -158.499 -126s-68 -89.166 -68 -122.499
c0 -42 38.667 -63 116 -63c45.333 0 84.333 10.667 117 32c2 2.66699 4.33301 4 7 4c4.66699 0 7 -3.5 7 -10.5s-2.33301 -11.5 -7 -13.5c-83.333 -38 -152.333 -81.333 -207 -130c-23.333 -20.667 -44.5 -46.5 -63.5 -77.5s-28.5 -59.667 -28.5 -86s6.83301 -48 20.5 -65
s39.167 -25.5 76.5 -25.5c12.667 0.666992 27 2.66699 43 6s43 14.666 81 33.999s74.333 45 109 77c5.33301 6.66699 9.66602 10 12.999 10c4 -0.666992 6 -3.33398 6 -8.00098c0 -11.333 -15.667 -28.666 -47 -51.999s-70.5 -45 -117.5 -65s-88.167 -30 -123.5 -30
c-50.667 0 -85.334 17.333 -104.001 52c-7.33301 14 -11 30 -11 48c0 44 25.5 93.5 76.5 148.5s117.167 101.167 198.5 138.5c-31.333 -6.66699 -60.333 -10 -87 -10c-84 0 -126 23.333 -126 70c0 28.667 15.667 63.167 47 103.5s69.166 77.833 113.499 112.5
s92.333 64.5 144 89.5s95.834 37.5 132.501 37.5c56.667 0 85 -19.333 85 -58c0 -4 -0.333008 -7 -1 -9c29.333 9.33301 51.333 14 66 14s24 -0.5 28 -1.5s6 -5.16699 6 -12.5s-2.66699 -11.666 -8 -12.999c-30.667 0 -64 -5.66699 -100 -17
c-14.667 -35.333 -40.5 -68.166 -77.5 -98.499s-72.167 -45.5 -105.5 -45.5zM384 522.997c0 -6 5.33301 -8.99805 16 -8.99805c20 0 43.667 12.167 71 36.5s47 50.166 59 77.499c-38.667 -16 -72.667 -34.833 -102 -56.5s-44 -37.834 -44 -48.501z" />
    <glyph glyph-name="F" unicode="F" horiz-adv-x="410" 
d="M527 662l-88.999 1.00195h-10c-70.667 0 -140.167 -10 -208.5 -30s-125.666 -44.5 -171.999 -73.5s-83.666 -58.833 -111.999 -89.5s-42.5 -57 -42.5 -79c0 -30 22.833 -45 68.5 -45s101 15.5 166 46.5s119.5 70.167 163.5 117.5c7.33301 7.33301 12.333 11 15 11
c1.33301 0 2 -1 2 -3s-0.333008 -3.66699 -1 -5c-18.667 -44 -63.834 -89.167 -135.501 -135.5s-141.834 -69.5 -210.501 -69.5c-29.333 0 -51.5 6 -66.5 18s-22.5 30.5 -22.5 55.5s13.833 55.667 41.5 92s65.5 71.5 113.5 105.5s110.5 62.667 187.5 86s158.5 35 244.5 35
c282.667 0 428.667 0.666992 438 2s17.166 2 23.499 2s9.5 -1.33301 9.5 -4s-3.5 -6.83398 -10.5 -12.501s-19 -11.334 -36 -17.001s-36.167 -8.5 -57.5 -8.5h-299zM491.001 618.002c0 -1.33301 -0.665039 -3.33105 -1.99805 -5.99805l-199 -386c54.667 1.33301 94 2 118 2
h38c43.333 -0.666992 65 -3.16699 65 -7.5s-4.83301 -10 -14.5 -17s-18.834 -10.5 -27.501 -10.5c-18.667 1.33301 -63 2 -133 2h-62l-98 -191c-4 -8.66699 -11.333 -15.334 -22 -20.001s-18.834 -7 -24.501 -7s-8.5 1.66699 -8.5 5s36.333 74 109 212
c-82.667 -2.66699 -146 -6.66699 -190 -12c-5.33301 0 -8 1.33301 -8 4c0 3.33301 6.33301 10.666 19 21.999c10.667 6.66699 75.667 12 195 16c131.333 248.667 196.333 373.667 195 375c4 6.66699 10.667 11.667 20 15l25 8z" />
    <glyph glyph-name="G" unicode="G" horiz-adv-x="495" 
d="M471 273c-58 -64.667 -116.002 -119.002 -174.002 -163.002c-28.667 -21.333 -61.667 -41 -99 -59s-71 -27 -101 -27c-68.667 0 -103 32.333 -103 97c0 60.667 14.667 122.5 44 185.5s66.833 119.167 112.5 168.5s94.834 93.833 147.501 133.5s103.5 70.167 152.5 91.5
s90.167 32 123.5 32c43.333 0 66 -19 68 -57c23.333 10 41 15 53 15c8 -2 12 -5.66699 12 -11s-1.66699 -10.333 -5 -15s-9 -7 -17 -7s-23.333 -4 -46 -12c-9.33301 -53.333 -40.666 -103.666 -93.999 -150.999s-97 -71 -131 -71c-17.333 0 -26 8 -26 24
c0 30.667 24.333 67.5 73 110.5s100.334 78.167 155.001 105.5v1c0 30 -17.667 45 -53 45c-28.667 0 -65 -9.83301 -109 -29.5s-89.833 -48 -137.5 -85s-92.334 -78.667 -134.001 -125s-76 -99.666 -103 -159.999s-40.5 -120.166 -40.5 -179.499
c0 -51.333 24.333 -77 73 -77c106 0 251.333 110.333 436 331c11.333 13.333 21.333 20 30 20s13 -0.833008 13 -2.5s-2 -6.33398 -6 -14.001s-26.833 -44.834 -68.5 -111.501l-134.5 -215c-124 -200 -191.333 -308 -202 -324c-2 -4 -3 -7.33301 -3 -10s3 -4 9 -4l25 2
c5.33301 0 8 -1 8 -3c0 -3.33301 -9.66699 -10.666 -29 -21.999s-33 -17 -41 -17s-12 5 -12 15s3.5 24.833 10.5 44.5s38 72.667 93 159l158 245c50.333 77 75.5 117.333 75.5 121s-1 5.5 -3 5.5zM439.998 449.998c24.667 0 57.333 19 98 57s65.667 80.333 75 127
c-46 -21.333 -88.833 -49 -128.5 -83s-59.5 -63 -59.5 -87c0 -9.33301 5 -14 15 -14z" />
    <glyph glyph-name="H" unicode="H" horiz-adv-x="468" 
d="M558 176c4.66699 0 7 -2.33105 7 -6.99805s-3.66699 -8.66699 -11 -12c-45.333 -22.667 -98.666 -35 -159.999 -37c-32 -61.333 -48.333 -92.833 -49 -94.5s-2.16699 -5 -4.5 -10s-4.5 -8.83301 -6.5 -11.5c-4 -6.66699 -8.33301 -10 -13 -10c-12 0 -18 8.33301 -18 25
c0 35.333 -4.33301 71.333 -13 108c-36.667 5.33301 -70.334 13.666 -101.001 24.999l-135 -241l-21 -15c-8 -4 -14.333 -6 -19 -6c-6 0 -9 3.33301 -9 10c0 4 1.33301 8.66699 4 14l144 253c-48.667 22 -87.667 50.167 -117 84.5s-44 72.5 -44 114.5c0 55.333 20 83 60 83
c26 0 55.833 -12.667 89.5 -38s64.834 -59 93.501 -101l195 344c7.33301 10.667 20.333 16 39 16c4.66699 0 7 -1.5 7 -4.5s-73 -134.167 -219 -393.5c23.333 -42 40.333 -85.667 51 -131c19.333 -2.66699 42 -4 68 -4c75.333 146.667 177.666 335.667 306.999 567
c7.33301 13.333 21 20.666 41 21.999c5.33301 0 8 -1.83301 8 -5.5s-2.33301 -9.5 -7 -17.5l-61 -107l-260 -459c56 3.33301 107.333 16.333 154 39zM163 184.002l57 100c-25.333 38 -53 68.667 -83 92s-55.333 35 -76 35c-22.667 0 -34 -13.667 -34 -41
c0 -39.333 12.167 -75 36.5 -107s57.5 -58.333 99.5 -79zM199 169.002c26.667 -10.667 55.334 -18.667 86.001 -24c-11.333 36.667 -25.333 70.667 -42 102c-28.667 -50.667 -43.334 -76.667 -44.001 -78zM311 124.002c6 -29.333 9 -58.668 9 -88.001l1 -11
c4.66699 10.667 20 42.334 46 95.001c-12 0 -30.667 1.33301 -56 4z" />
    <glyph glyph-name="I" unicode="I" horiz-adv-x="574" 
d="M-119 1c0 34.667 26.502 69.665 79.502 104.998s118.333 63.833 196 85.5s152.5 32.5 224.5 32.5c18 0 37.667 -1 59 -3c146.667 137.333 220 279 220 425c0 39.333 -13 59 -39 59c-16 0 -34.333 -8.16699 -55 -24.5s-40.5 -37.833 -59.5 -64.5s-35 -59.667 -48 -99
s-19.5 -80.833 -19.5 -124.5s6 -69.167 18 -76.5c3.33301 -2 5 -4.33301 5 -7c-5.33301 -11.333 -12.833 -17 -22.5 -17s-17.334 2.83301 -23.001 8.5s-8.5 13.834 -8.5 24.501c0 58.667 8.5 115.834 25.5 171.501s37.833 102 62.5 139s50.667 66.833 78 89.5
s51.666 34 72.999 34c36 0 54 -28.333 54 -85c0 -163.333 -76.667 -315.666 -230 -456.999c71.333 -12.667 107 -37.667 107 -75c0 -13.333 -8.5 -27.166 -25.5 -41.499s-30.667 -21.833 -41 -22.5s-15.833 0.333008 -16.5 3c0 2 3.66699 5.33301 11 10
c28 17.333 42 32 42 44c0 27.333 -37.667 44 -113 50c-83.333 -70.667 -173.333 -128.334 -270 -173.001s-166.334 -67 -209.001 -67c-21.333 0 -38.166 4.66699 -50.499 14s-19.5 18.666 -21.5 27.999zM374.002 187.998c-66 0 -133.832 -8 -203.499 -24
s-128.667 -37.667 -177 -65s-72.833 -55.333 -73.5 -84c2 -24.667 20.667 -37 56 -37c47.333 0 111.666 19.333 192.999 58s159 89 233 151c-6.66699 0.666992 -16 1 -28 1z" />
    <glyph glyph-name="J" unicode="J" horiz-adv-x="525" 
d="M439 76c-35.333 0 -71.667 -5.33398 -109 -16.001c-86.667 -135.333 -168.5 -249.5 -245.5 -342.5s-132.833 -139.5 -167.5 -139.5c-23.333 0 -35 12.833 -35 38.5s11.333 59.834 34 102.501s52.5 86.5 89.5 131.5s82.333 88.333 136 130s108.167 72.834 163.5 93.501
c68.667 117.333 127.667 228 177 332s74 171 74 201c0 39.333 -15.167 59 -45.5 59s-71.5 -18.333 -123.5 -55s-102.333 -80.334 -151 -131.001s-90.834 -105 -126.501 -163s-53.5 -104.667 -53.5 -140s17 -53 51 -53c36 0 76.5 21.333 121.5 64s71.167 79 78.5 109
c1.33301 4.66699 4.5 7 9.5 7s7.5 -2.33301 7.5 -7c0 -35.333 -31 -78.166 -93 -128.499s-114.667 -75.5 -158 -75.5c-34.667 0 -52 21.167 -52 63.5s19.833 95.5 59.5 159.5s86.667 123.667 141 179s111.333 102.666 171 141.999s108.167 59 145.5 59
c44.667 0 67 -29 67 -87c0 -34.667 -24.667 -101.334 -74 -200.001s-110.333 -205.667 -183 -321c38 10 67.833 15 89.5 15s38.334 -3.16699 50.001 -9.5s17.5 -14.5 17.5 -24.5c0 -21.333 -6.83301 -41 -20.5 -59s-29.5 -27 -47.5 -27c-2.66699 0 -4 1 -4 3
c0 6.66699 4.66699 12.334 14 17.001c12.667 11.333 19 26.333 19 45s-9 28 -27 28zM-77.001 -354.001c0 -15.333 6.00098 -22.998 18.001 -22.998c32 0 79.167 39.667 141.5 119s130.5 180 204.5 302c-64.667 -26 -126.334 -66.833 -185.001 -122.5
s-103.167 -108.834 -133.5 -159.501s-45.5 -89.334 -45.5 -116.001z" />
    <glyph glyph-name="K" unicode="K" horiz-adv-x="527" 
d="M469 694c-3.33301 -9.33301 -64.6641 -123.668 -183.997 -343.001c25.333 -2.66699 49.666 -8.66699 72.999 -18c86.667 54 167.167 115.5 241.5 184.5s128.166 136.833 161.499 203.5c0.666992 6.66699 3.83398 10 9.50098 10s12 -1.66699 19 -5s10.5 -7.33301 10.5 -12
c-26 -64 -78 -131.167 -156 -201.5s-165.333 -134.166 -262 -191.499c72 -38.667 108 -107 108 -205c0 -28.667 -3.66699 -55 -11 -79s-14.333 -40.667 -21 -50l-11 -14c-5.33301 0 -8 3.33301 -8 10l6 19c9.33301 28.667 14 56 14 82c0 101.333 -38 173.333 -114 216
c-36.667 -20 -76.667 -40 -120 -60l-125 -222c-4.66699 -11.333 -10.834 -18.666 -18.501 -21.999s-15.5 -5 -23.5 -5s-12 1.33301 -12 4l121 222c-44 -16 -80.667 -24 -110 -24c-38 0 -57 14.667 -57 44s25.167 56.166 75.5 80.499s105.833 36.5 166.5 36.5l177 325
c2 5.33301 8.16699 9.83301 18.5 13.5s18.166 5.5 23.499 5.5s8 -1.33301 8 -4zM212.002 331.998c-46.667 0 -87.667 -8.66699 -123 -26s-53 -38 -53 -62c0 -20.667 13.167 -31 39.5 -31s60.833 8.66699 103.5 26l50 92c-4 0.666992 -9.66699 1 -17 1zM272.002 325.998
l-33.001 -61c20.667 10 48.334 25.333 83.001 46c-16 6.66699 -32.667 11.667 -50 15z" />
    <glyph glyph-name="L" unicode="L" 
d="M880 628l-36 1.99902h-12c-11.333 -34.667 -36.166 -66.834 -74.499 -96.501s-77.5 -44.5 -117.5 -44.5c-22 0 -33 8.66699 -33 26c0 24.667 20.333 52.834 61 84.501s89.334 50.167 146.001 55.5v4c0 34 -29 51 -87 51c-89.333 0 -169 -52.667 -239 -158
c-32.667 -50 -63.334 -101.333 -92.001 -154c-89.333 -167.333 -158.666 -283 -207.999 -347c22 0 39 -0.333008 51 -1l164 -5c40.667 0 64.5 -0.5 71.5 -1.5s10.5 -2.83301 10.5 -5.5c0 -19.333 -16 -30 -48 -32c-88 2.66699 -181.667 4.66699 -281 6
c-110 -126 -239 -189 -387 -189c-22.667 0 -40.834 5.5 -54.501 16.5s-20.5 25.167 -20.5 42.5s8.16699 35 24.5 53s41 35.667 74 53s79.833 31.833 140.5 43.5s130.667 18.167 210 19.5c52.667 71.333 111 168.333 175 291c23.333 46 51 93.667 83 143
s63.167 90.833 93.5 124.5s66.666 61.334 108.999 83.001s87.5 32.5 135.5 32.5c66 0 99 -21.667 99 -65v-3c17.333 0 32.333 -1.33301 45 -4c4 -1.33301 6 -5.83301 6 -13.5s-3 -11.5 -9 -11.5zM-264 -74.001c-15.333 -14 -23.002 -27.5 -23.002 -40.5
s6.33301 -23.5 19 -31.5s30.334 -12 53.001 -12c122.667 0 231.667 56.667 327 170c-191.333 -2 -316.666 -30.667 -375.999 -86zM636.998 520.999c0 -10.667 6.66699 -16.001 20 -16.001c24 0 52 13.333 84 40s54 54.334 66 83.001
c-48.667 -6 -89.167 -20.833 -121.5 -44.5s-48.5 -44.5 -48.5 -62.5z" />
    <glyph glyph-name="M" unicode="M" horiz-adv-x="617" 
d="M464 25c0 -6.66699 5.50098 -10.002 16.501 -10.002s30.5 6.5 58.5 19.5s52.667 26.167 74 39.5l32 20c0.666992 -1.33301 1 -4 1 -8s-3 -7.33301 -9 -10c-90 -61.333 -152.667 -92 -188 -92c-17.333 0 -26 8.66699 -26 26s14.333 50.333 43 99l176 306
c0 2 -1.16699 3 -3.5 3s-6.83301 -3.16699 -13.5 -9.5s-67.5 -68.166 -182.5 -185.499l-202.5 -207c-11.333 -13.333 -21.333 -20 -30 -20c-7.33301 0 -11 4.33301 -11 13c0 20 43.833 96.5 131.5 229.5s133.167 207.5 136.5 223.5c0 2 -0.833008 3 -2.5 3
s-7.33398 -4.83301 -17.001 -14.5l-207.5 -215.5c-128.667 -134 -203.334 -212.667 -224.001 -236c-5.33301 -4 -11.166 -6 -17.499 -6s-9.5 3 -9.5 9c0 4.66699 3 12 9 22l25.5 43c11 18.667 30.667 54 59 106s53.333 101 75 147s41.334 95.333 59.001 148
s26.5 95.667 26.5 129c0 55.333 -24 83 -72 83c-55.333 0 -113.833 -15.833 -175.5 -47.5s-111.834 -68.167 -150.501 -109.5s-58 -77 -58 -107c0 -34.667 28.167 -52 84.5 -52s110 17.5 161 52.5s87.167 72.5 108.5 112.5c3.33301 4 6 6 8 6s3 -4.5 3 -13.5
s-7.33301 -24.5 -22 -46.5s-33.834 -44.167 -57.501 -66.5s-53.667 -41.5 -90 -57.5s-73.5 -24 -111.5 -24c-76 0 -114 25 -114 75c0 27.333 12 57.833 36 91.5s55.333 65.5 94 95.5s85.5 55.167 140.5 75.5s109.833 30.5 164.5 30.5c62 0 93 -32.333 93 -97
c0 -33.333 -8.16699 -74.666 -24.5 -123.999s-35.833 -97.333 -58.5 -144c-46 -91.333 -89.333 -168.666 -130 -231.999l-24 -39c2.66699 1.33301 35.334 34.666 98.001 99.999l338 349c12.667 0 20.334 -1.66699 23.001 -5s4 -5.66602 4 -6.99902v-1
c0 -18 -60.333 -121.667 -181 -311c-46.667 -72.667 -72 -112.334 -76 -119.001l-9 -20c5.33301 0 39.666 33.5 102.999 100.5l192.5 201c65 67 102.167 100.5 111.5 100.5c4 0 8.33301 -1.83301 13 -5.5s7 -7.5 7 -11.5s-1 -8 -3 -12l-179 -324
c-17.333 -32 -26 -55 -26 -69z" />
    <glyph glyph-name="N" unicode="N" horiz-adv-x="521" 
d="M368 25c0 -6.66699 5.49512 -9.99805 16.4951 -9.99805s30.5 6.5 58.5 19.5s52.667 26.167 74 39.5l32 20c0.666992 -1.33301 1 -4 1 -8s-3 -7.33301 -9 -10c-90 -61.333 -152.667 -92 -188 -92c-17.333 0 -26 8.33301 -26 25s20.5 66.667 61.5 150s82.167 163 123.5 239
l61 113l-13 -14c-9.33301 -9.33301 -150 -167 -422 -473c-9.33301 -4 -17.166 -6 -23.499 -6s-9.5 3 -9.5 9s3 13.667 9 23s14.5 23.333 25.5 42s30.667 54 59 106s53.333 101 75 147s41.334 95.333 59.001 148s26.5 95.667 26.5 129c0 55.333 -24 83 -72 83
c-56 0 -115.167 -15.667 -177.5 -47s-113.166 -67.5 -152.499 -108.5s-59 -76.5 -59 -106.5c0 -36 29 -54 87 -54s112.5 17.5 163.5 52.5s87.167 72.5 108.5 112.5c3.33301 4 6 6 8 6s3 -4.16699 3 -12.5s-8 -23.333 -24 -45s-36.333 -43.834 -61 -66.501
s-55 -42.334 -91 -59.001s-71 -25 -105 -25c-84.667 0 -127 24.667 -127 74c0 26.667 13.167 57 39.5 91s60 66 101 96s89.333 55.333 145 76s109.834 31 162.501 31c62 0 93 -32.333 93 -97c0 -52.667 -19.833 -124 -59.5 -214s-79.167 -166.667 -118.5 -230l-59 -95
c2.66699 1.33301 34 36 94 104c190 215.333 297.333 335.333 322 360c4.66699 0 10.834 -1.83301 18.501 -5.5s11.5 -7.5 11.5 -11.5s-1 -8 -3 -12c-159.333 -310 -239 -474.667 -239 -494z" />
    <glyph glyph-name="O" unicode="O" horiz-adv-x="434" 
d="M418 704c3.33301 0 5.66895 -2.00098 7.00195 -6.00098c0 -5.33301 -4 -8.66602 -12 -9.99902c-37.333 -12.667 -77.166 -35.667 -119.499 -69s-82.333 -73.5 -120 -120.5s-69 -102.5 -94 -166.5s-37.5 -128.667 -37.5 -194c0 -88.667 31.333 -133 94 -133
c36.667 0 79.5 16.167 128.5 48.5s95 73 138 122s79.5 106.5 109.5 172.5s45 129.5 45 190.5s-21 91.5 -63 91.5c-34 0 -74 -18.167 -120 -54.5s-86.167 -82.333 -120.5 -138s-51.5 -108 -51.5 -157s17 -73.5 51 -73.5c21.333 0 45.5 10.167 72.5 30.5
s51.167 47.5 72.5 81.5c2.66699 5.33301 5.83398 8 9.50098 8s5.5 -2 5.5 -6c0 -18.667 -23.167 -48 -69.5 -88s-86.166 -60 -119.499 -60c-39.333 0 -59 31.667 -59 95c0 49.333 20.667 105.5 62 168.5s90 116.167 146 159.5s104.333 65 145 65
c53.333 0 80 -39.667 80 -119c0 -60 -17.333 -124.5 -52 -193.5s-76.834 -130.333 -126.501 -184s-102.834 -98.5 -159.501 -134.5s-106.334 -54 -149.001 -54c-74 0 -111 52.667 -111 158c0 64 12.667 127.167 38 189.5s56.166 115.5 92.499 159.5
s74.666 83.333 114.999 118s76 60.5 107 77.5s52.833 25.5 65.5 25.5z" />
    <glyph glyph-name="P" unicode="P" horiz-adv-x="263" 
d="M436 615c0 -1.33301 -2.33301 -7.16602 -7 -17.499s-66.667 -121.833 -186 -334.5c98.667 40.667 186.667 96.5 264 167.5s116 132.833 116 185.5c0 63.333 -59.333 95 -178 95c-69.333 0 -147.666 -16 -234.999 -48s-162.333 -72.667 -225 -122s-94 -96 -94 -140
c0 -37.333 23.333 -56 70 -56c39.333 0 85.833 13.833 139.5 41.5s101.834 64.5 144.501 110.5c5.33301 8.66699 10.166 13 14.499 13s6.5 -2.33301 6.5 -7c0 -15.333 -19.667 -38.833 -59 -70.5s-86.666 -60.667 -141.999 -87s-101.666 -39.5 -138.999 -39.5
c-51.333 0 -77 26.333 -77 79c0 46 36.167 97.667 108.5 155s158.833 105.833 259.5 145.5s189 59.5 265 59.5c126.667 0 190 -35 190 -105c0 -60.667 -44.833 -132 -134.5 -214s-192.834 -145.333 -309.501 -190l-133 -235c-4 -8.66699 -11.333 -15.334 -22 -20.001
s-18.834 -7 -24.501 -7s-8.5 1.66699 -8.5 5l133 238c-42 -12.667 -81 -21 -117 -25c-4 0 -6 4.16699 -6 12.5s3.66699 12.833 11 13.5c39.333 2 81.666 10.333 126.999 25l200 357c2 5.33301 8 9.83301 18 13.5s18.333 5.5 25 5.5z" />
    <glyph glyph-name="Q" unicode="Q" horiz-adv-x="470" 
d="M402 681c10.667 -0.666992 16 -2.16309 16 -4.49609s-3.33301 -4.83301 -10 -7.5c-100 -45.333 -186.167 -118.333 -258.5 -219s-108.5 -191 -108.5 -271c0 -40.667 11.333 -72.834 34 -96.501s55.334 -35.5 98.001 -35.5s89 14.667 139 44
c-2.66699 23.333 -4 52.666 -4 87.999v18c-25.333 -12.667 -48.666 -19 -69.999 -19c-58.667 0 -88 25 -88 75c0 34.667 14.5 77.167 43.5 127.5s64.833 98.166 107.5 143.499s91 84 145 116s103.667 48 149 48c54.667 0 82 -29 82 -87c0 -66 -32.5 -150.5 -97.5 -253.5
s-139.833 -185.833 -224.5 -248.5c10 -78.667 15 -132.834 15 -162.501s-6.83301 -62.667 -20.5 -99s-26.834 -54.833 -39.501 -55.5c-3.33301 0 -5 2.33301 -5 7s2 9.33398 6 14.001c18 12.667 27 44 27 94c0 26 -3.5 57.5 -10.5 94.5s-11.5 63.833 -13.5 80.5
c-60 -37.333 -115.333 -56 -166 -56s-88 12.667 -112 38s-36 59.666 -36 102.999c0 88 40.167 186.833 120.5 296.5s174.166 185.5 281.499 227.5zM646 579.004c0 54 -25.667 80.999 -77 80.999s-107.5 -23.833 -168.5 -71.5s-111.833 -102.5 -152.5 -164.5
s-61 -114 -61 -156s24 -63 72 -63c14.667 0 31.667 4 51 12c6 57.333 22.333 107 49 149s58 63 94 63c20 0 30 -10.167 30 -30.5s-14.333 -49.333 -43 -87s-61.667 -69.5 -99 -95.5c2 -27.333 5.66699 -60 11 -98c76 56.667 144 132.334 204 227.001s90 172.667 90 234z
M416 312.503c21.333 31.667 32 54.501 32 68.501s-4.33301 21 -13 21c-19.333 -0.666992 -39.833 -19.834 -61.5 -57.501s-32.5 -71.5 -32.5 -101.5v-8c28.667 20 53.667 45.833 75 77.5z" />
    <glyph glyph-name="R" unicode="R" horiz-adv-x="564" 
d="M435 623c0 -1.33301 -0.500977 -2.83008 -1.50098 -4.49707s-10.833 -20.5 -29.5 -56.5l-163 -303c98.667 36.667 187 91.5 265 164.5s117 137.167 117 192.5c0 30 -14.667 54.667 -44 74s-73.666 29 -132.999 29s-123.166 -12.5 -191.499 -37.5
s-128.5 -54.833 -180.5 -89.5s-95.5 -70.334 -130.5 -107.001s-52.5 -66.667 -52.5 -90c0 -26 20.833 -39 62.5 -39s89.334 13.833 143.001 41.5s101.834 64.5 144.501 110.5c7.33301 8.66699 12 13 14 13c4.66699 0 7 -2.33301 7 -7c0 -1.33301 -2.33301 -6 -7 -14
c-22 -33.333 -70.833 -72.5 -146.5 -117.5s-138.334 -67.5 -188.001 -67.5s-74.5 15.667 -74.5 47c0 28 19.833 64.167 59.5 108.5s89.167 87.5 148.5 129.5s128.333 78 207 108s151.167 45 217.5 45s115.166 -10.5 146.499 -31.5s47 -48.167 47 -81.5
c0 -58 -36.833 -124 -110.5 -198s-162.5 -133.333 -266.5 -178c67.333 -0.666992 123.333 -29.834 168 -87.501s67.334 -124.5 68.001 -200.5c0 -9.33301 -1.66699 -14 -5 -14c-5.33301 0 -9 5.83301 -11 17.5s-4.33301 23.167 -7 34.5s-10.834 31.333 -24.501 60
s-29.667 54 -48 76s-44.833 42 -79.5 60s-73.667 27 -117 27h-11l-121 -217c-4 -8.66699 -11.333 -15.334 -22 -20.001s-18.834 -7 -24.501 -7s-8.5 1.66699 -8.5 5l123 224c-26.667 -6.66699 -54 -11.667 -82 -15c-12 0 -18 2 -18 6c0 7.33301 3.66699 11.333 11 12
c30.667 2 64 7.66699 100 17l201 366c2 5.33301 8 9.83301 18 13.5s18.333 5.5 25 5.5z" />
    <glyph glyph-name="S" unicode="S" horiz-adv-x="455" 
d="M466 470c-26 0 -39.0049 11.334 -39.0049 34.001c0 34.667 19.333 67.334 58 98.001s84.667 55.667 138 75c-4.66699 19.333 -16.667 34.166 -36 44.499s-43.166 15.5 -71.499 15.5s-57.666 -5.33301 -87.999 -16s-59 -25.834 -86 -45.501s-49 -45.667 -66 -78
s-25.5 -67.833 -25.5 -106.5c0 -13.333 10 -52.333 30 -117s30 -118.334 30 -161.001c0 -10.667 -1.33301 -26 -4 -46c25.333 2.66699 43.666 4 54.999 4c64.667 0 97 -17 97 -51c0 -12 -3.66699 -22 -11 -30s-19.666 -17.333 -36.999 -28c-5.33301 3.33301 -8 6.33301 -8 9
s1.33301 5 4 7c20 11.333 30 22.666 30 33.999c0 22.667 -26.333 34 -79 34c-19.333 0 -38 -1.33301 -56 -4c-11.333 -42.667 -32.5 -82.5 -63.5 -119.5s-65.5 -67 -103.5 -90s-76.167 -40.833 -114.5 -53.5s-72.166 -19 -101.499 -19c-45.333 0 -68 13.333 -68 40
c0 37.333 23.333 75 70 113s102.167 69.833 166.5 95.5s127.5 43.834 189.5 54.501c2.66699 18.667 4 33.667 4 45c0 28.667 -10.5 73.5 -31.5 134.5s-31.5 113.5 -31.5 157.5s17.333 87.833 52 131.5s75.834 77.167 123.501 100.5s92.834 35 135.501 35
c67.333 0 104.333 -28.333 111 -85c37.333 12 62.666 18 75.999 18s20.5 -0.5 21.5 -1.5s1.5 -4.83301 1.5 -11.5s-3 -11 -9 -13c-30 -1.33301 -59.667 -5.66602 -89 -12.999c-1.33301 -54 -21.666 -99.333 -60.999 -136s-77 -55 -113 -55zM-111.005 -74.999
c0 -19.333 19.333 -28.999 58 -28.999c54 0 114.333 19.333 181 58c32.667 18.667 62.167 44.167 88.5 76.5s44.5 68.166 54.5 107.499c-56.667 -9.33301 -113.5 -24.333 -170.5 -45s-106.5 -46.167 -148.5 -76.5s-63 -60.833 -63 -91.5zM458.995 510.002
c0 -12.667 6.66602 -18.999 19.999 -18.999c25.333 0 55.833 17.167 91.5 51.5s53.834 72.166 54.501 113.499c-46.667 -14.667 -86 -35 -118 -61s-48 -54.333 -48 -85z" />
    <glyph glyph-name="T" unicode="T" horiz-adv-x="265" 
d="M470 688c213.333 0 324.669 0.667969 334.002 2.00098s17.166 2 23.499 2s9.5 -1.33301 9.5 -4s-3.5 -6.83398 -10.5 -12.501s-19 -11.334 -36 -17.001s-36.167 -8.5 -57.5 -8.5l-295 1c-86 -1.33301 -168.167 -13 -246.5 -35s-142.5 -48.333 -192.5 -79
s-89.667 -62 -119 -94s-44 -59.333 -44 -82c0 -27.333 20.333 -41 61 -41s93.5 17.5 158.5 52.5s120.167 76.833 165.5 125.5c7.33301 7.33301 12.333 11 15 11c1.33301 0 2 -1 2 -3s-0.333008 -3.66699 -1 -5c-19.333 -45.333 -65 -93.166 -137 -143.499
s-141 -75.5 -207 -75.5s-99 19 -99 57c0 28.667 18.667 62.667 56 102s85.666 77.5 144.999 114.5s131.833 68.333 217.5 94s171.5 38.5 257.5 38.5zM425.003 615.001c0 -2 -23.332 -46.332 -69.999 -132.999l-262 -490c-4 -8.66699 -11.333 -15.334 -22 -20.001
s-18.834 -7 -24.501 -7s-8.5 1.5 -8.5 4.5s28.333 56.5 85 160.5l169.5 310.5c56.333 103 83.833 154.833 82.5 155.5c4 6.66699 10.667 11.667 20 15l25 8z" />
    <glyph glyph-name="U" unicode="U" 
d="M362 15c13.333 0 33.998 6.50195 61.998 19.502s52.667 26.167 74 39.5l32 20c0.666992 -1.33301 1 -4 1 -8s-3 -7.33301 -9 -10c-90 -61.333 -152.667 -92 -188 -92c-23.333 0 -35 14.667 -35 44c0 52.667 33.667 128 101 226
c-25.333 -30.667 -61 -68.334 -107 -113.001c-92 -89.333 -158.667 -134 -200 -134c-16 0 -28.333 5.5 -37 16.5s-13 23.167 -13 36.5c0 28.667 13.833 69.167 41.5 121.5s58.334 102.666 92.001 150.999s64.334 97.833 92.001 148.5s41.5 89.334 41.5 116.001
s-10.667 47.334 -32 62.001s-50.333 22 -87 22s-79.667 -9.83301 -129 -29.5s-92.5 -43.667 -129.5 -72s-67.833 -57.833 -92.5 -88.5s-37 -57 -37 -79c0 -31.333 25.333 -47 76 -47s103 19 157 57s101.333 85 142 141c3.33301 5.33301 6.66602 8 9.99902 8h1
c3.33301 -2 5 -4.66699 5 -8c0 -16 -17.333 -43 -52 -81s-78.667 -74 -132 -108s-100.666 -51 -141.999 -51c-63.333 0 -95 21.667 -95 65c0 26.667 12.5 57.667 37.5 93s57.167 68.833 96.5 100.5s86.333 58.5 141 80.5s105.167 33 151.5 33s83.5 -8.5 111.5 -25.5
s42 -45.833 42 -86.5c0 -41.333 -44 -126.333 -132 -255c-32.667 -47.333 -62.667 -96.333 -90 -147s-41 -87.834 -41 -111.501s8.66699 -35.5 26 -35.5c15.333 0 36.666 9.83301 63.999 29.5s55.333 43.167 84 70.5c57.333 56.667 105.333 108.667 144 156l25 29l89 122
c4.66699 7.33301 11.334 11 20.001 11l17 -1c4 0 6 -1.33301 6 -4s-36.5 -60.834 -109.5 -174.501s-109.5 -191.5 -109.5 -233.5c0 -7.33301 1.33301 -13 4 -17s6.66699 -6.33301 12 -7z" />
    <glyph glyph-name="V" unicode="V" horiz-adv-x="467" 
d="M309.5 477c28.333 52.667 42.501 92.5 42.501 119.5s-10.667 47.833 -32 62.5s-50.333 22 -87 22s-79.667 -9.83301 -129 -29.5s-92.5 -43.667 -129.5 -72s-67.833 -57.833 -92.5 -88.5s-37 -57 -37 -79c0 -31.333 25.333 -47 76 -47s103 19 157 57s101.333 85 142 141
c3.33301 5.33301 6.83301 8 10.5 8s5.5 -2.66699 5.5 -8c0 -16 -17.333 -43 -52 -81s-78.667 -74 -132 -108s-100.666 -51 -141.999 -51c-63.333 0 -95 21.667 -95 65c0 26.667 12.5 57.667 37.5 93s57.167 68.833 96.5 100.5s86.333 58.5 141 80.5s105.167 33 151.5 33
s83.5 -8.5 111.5 -25.5s42 -45.833 42 -86.5c0 -29.333 -22 -80.166 -66 -152.499l-131.5 -215.5c-43.667 -71.333 -65.5 -121.5 -65.5 -150.5s12.333 -43.5 37 -43.5c34 0 78.667 23 134 69s107 98 155 156s89.833 112.667 125.5 164s53.5 82.666 53.5 93.999
c0 1.33301 -1.33301 2.16602 -4 2.49902s-7 -2 -13 -7s-12.5 -11 -19.5 -18s-11.833 -11.667 -14.5 -14s-6.33398 -3.5 -11.001 -3.5c-12 0 -18 4.33301 -18 13c0 5.33301 6.33301 13.333 19 24s29.167 27.667 49.5 51l48.5 56c12 14 19.833 21 23.5 21s6.66699 -1 9 -3
s3.5 -5.5 3.5 -10.5s-6.33301 -21.833 -19 -50.5c-42 -95.333 -102.333 -193 -181 -293c-58.667 -74 -122.834 -138.667 -192.501 -194s-130.167 -83 -181.5 -83c-22 0 -36.833 5 -44.5 15s-11.5 26.833 -11.5 50.5s14.167 61 42.5 112s59.5 101.333 93.5 151
s65.167 100.834 93.5 153.501z" />
    <glyph glyph-name="W" unicode="W" horiz-adv-x="621" 
d="M204 678c-44 0 -89.9941 -9.66797 -137.994 -29.001s-89.833 -42.5 -125.5 -69.5s-65.167 -55.667 -88.5 -86s-35 -56.5 -35 -78.5c0 -40 18.333 -60 55 -60c44.667 0 101 23.333 169 70s112 86 132 118c3.33301 5.33301 6.83301 8 10.5 8s5.5 -2.66699 5.5 -8
c-6 -25.333 -28.167 -55.833 -66.5 -91.5s-83 -67 -134 -94s-94.833 -40.5 -131.5 -40.5c-47.333 0 -71 24.667 -71 74c0 26.667 12 57.334 36 92.001s55 67.5 93 98.5s83.5 57.167 136.5 78.5s105.5 32 157.5 32c100.667 0 151 -31 151 -93c0 -32 -13.5 -74.333 -40.5 -127
s-56.667 -102.334 -89 -149.001s-62 -94.334 -89 -143.001s-40.5 -85 -40.5 -109s10.333 -36 31 -36c45.333 0 97 18.667 155 56c6.66699 42.667 28.667 93.834 66 153.501s76.166 110.334 116.499 152.001s70.166 62.667 89.499 63s29 -9.16699 29 -28.5
c0 -34.667 -27.833 -87.167 -83.5 -157.5s-118.167 -130.5 -187.5 -180.5v-7c0 -45.333 25 -68 75 -68c41.333 0 100.666 36.667 177.999 110c37.333 35.333 78.166 83.5 122.499 144.5s86.166 128.833 125.499 203.5c-36 -24 -56 -36 -60 -36
c-7.33301 0 -11 3.83301 -11 11.5s1.33301 12.5 4 14.5s9 6.33301 19 13c29.333 19.333 48.666 34.666 57.999 45.999l32 39c2 5.33301 5 8 9 8c8.66699 -1.33301 13 -4.66602 13 -9.99902c0 -2.66699 -0.333008 -4.66699 -1 -6l-49 -95c-21.333 -44 -55 -98 -101 -162
s-87 -116.167 -123 -156.5s-75.5 -75 -118.5 -104s-82.167 -43.5 -117.5 -43.5c-58 0 -87 24.333 -87 73v3c-64.667 -40 -119.667 -60 -165 -60s-68 18 -68 54c0 28.667 14.167 68.667 42.5 120s59.5 100.5 93.5 147.5s65.167 96.5 93.5 148.5s42.5 92.667 42.5 122
c0 50 -40 75 -120 75zM559.006 413.999c0 12 -6.83398 17.999 -20.501 17.999s-36.667 -17.667 -69 -53s-63.666 -78.666 -93.999 -129.999s-48.833 -96.333 -55.5 -135c61.333 46 116.5 100.5 165.5 163.5s73.5 108.5 73.5 136.5z" />
    <glyph glyph-name="X" unicode="X" horiz-adv-x="473" 
d="M334 15c13.333 0 34.0059 6.5 62.0059 19.5s52.667 26.167 74 39.5l32 20c0.666992 -1.33301 1 -4 1 -8s-3 -7.33301 -9 -10c-90 -61.333 -152.667 -92 -188 -92c-66.667 0 -100 44 -100 132c0 47.333 10 102.333 30 165
c-238.667 -185.333 -375.334 -288.333 -410.001 -309c-6.66699 -6.66699 -12.334 -10 -17.001 -10s-7 2.5 -7 7.5s4 9.83301 12 14.5c58 36 135.333 93.333 232 172l101 83l101 82c4 14 10.5 35.333 19.5 64l21 67.5l16.5 55.5c11.333 39.333 17 68 17 86
c0 38 -9.16699 65.667 -27.5 83s-48.833 26 -91.5 26s-87.5 -9.83301 -134.5 -29.5s-87.333 -43.667 -121 -72s-61.167 -57.666 -82.5 -87.999s-32 -56.5 -32 -78.5c0 -30.667 20 -46 60 -46c98 0 192.667 61.333 284 184c3.33301 6.66699 6.5 10 9.5 10s4.5 -4 4.5 -12
s-9.83301 -24.333 -29.5 -49s-43.834 -50.334 -72.501 -77.001s-62.334 -50 -101.001 -70s-74.334 -30 -107.001 -30c-57.333 0 -86 21.667 -86 65c0 27.333 12 58.666 36 93.999s55.333 69 94 101s85.834 59.167 141.501 81.5s111.834 33.5 168.501 33.5
c24 0 44.833 -3.5 62.5 -10.5s30.5 -15.5 38.5 -25.5c16.667 -18 25.667 -36 27 -54l1 -10c0 -45.333 -18.667 -128.666 -56 -249.999c115.333 94 191.666 155 228.999 183s62.166 47 74.499 57s27.166 21 44.499 33l48 33c36 22.667 61.667 34 77 34
c4 0 7.83301 -2 11.5 -6s5.5 -8 5.5 -12s-1.66699 -7 -5 -9c-14.667 -4 -45.5 -20.667 -92.5 -50s-87.833 -57.333 -122.5 -84l-284 -223c-27.333 -82 -41 -149.333 -41 -202c0 -72.667 27 -109 81 -109z" />
    <glyph glyph-name="Y" unicode="Y" horiz-adv-x="465" 
d="M359 620c0 -35.333 -8.83301 -73.667 -26.5 -115s-39.167 -80.166 -64.5 -116.499l-76 -106.5c-60.667 -82 -91 -142.667 -91 -182c0 -12 3.5 -21.833 10.5 -29.5s16.833 -11.5 29.5 -11.5c63.333 0 174 86.333 332 259c23.333 24.667 41 46.667 53 66l6 8
c4.66699 7.33301 9.33398 11 14.001 11c16 -2 24 -7 24 -15c0 -2.66699 -1 -5.66699 -3 -9l-46 -74l-84 -137l-122 -197c36 8.66699 72.333 13 109 13s55.667 -10.333 57 -31c0 -11.333 -4.66699 -20.666 -14 -27.999c-15.333 -12 -27.333 -18 -36 -18s-13 1 -13 3
s2.66699 4.33301 8 7s9.16602 4.83398 11.499 6.50098l7.5 5.5c6 4.66699 9 9 9 13c0 9.33301 -16.667 14 -50 14s-69.666 -5.33301 -108.999 -16c-162.667 -254.667 -274 -382 -334 -382c-17.333 0 -26 10.667 -26 32c0 47.333 32.5 111.166 97.5 191.499
s142.833 138.166 233.5 173.499l100.5 173.5l79.5 137.5c-48 -54 -100.667 -104 -158 -150c-24.667 -20.667 -52.5 -39.334 -83.5 -56.001s-57.833 -25 -80.5 -25c-8.66699 0 -16.834 1 -24.501 3s-15.667 7.83301 -24 17.5s-12.5 26 -12.5 49s8.66699 52.667 26 89
s38.5 71.666 63.5 105.999l75.5 102.5c59.333 80 89 144 89 192c0 38 -9.16699 65.667 -27.5 83s-48.833 26 -91.5 26s-87.5 -9.83301 -134.5 -29.5s-87.333 -43.667 -121 -72s-61.167 -57.666 -82.5 -87.999s-32 -56.5 -32 -78.5c0 -30.667 20 -46 60 -46
c98 0 192.667 61.333 284 184c3.33301 6.66699 6.5 10 9.5 10s4.5 -4 4.5 -12s-9.83301 -24.333 -29.5 -49s-43.834 -50.334 -72.501 -77.001s-62.334 -50 -101.001 -70s-74.334 -30 -107.001 -30c-57.333 0 -86 21.667 -86 65c0 27.333 12 58.833 36 94.5
s55.333 69.834 94 102.501s85.834 60.167 141.501 82.5s111.834 33.5 168.501 33.5c24 0 44.833 -3.5 62.5 -10.5s30.834 -15.5 39.501 -25.5c15.333 -19.333 24 -38.333 26 -57zM-30 -376.001c0 -14 5 -21 15 -21c46 0 133.333 106.667 262 320
c-79.333 -32 -145.333 -80.667 -198 -146s-79 -116.333 -79 -153z" />
    <glyph glyph-name="Z" unicode="Z" horiz-adv-x="633" 
d="M631 -10c0 12 -19.5 18.0039 -58.5 18.0039s-80.833 -8.33301 -125.5 -25c-23.333 -63.333 -62.5 -128.833 -117.5 -196.5s-110.167 -122.334 -165.5 -164.001s-98.333 -62.5 -129 -62.5c-23.333 0 -35 14 -35 42c0 44 44.167 108.833 132.5 194.5
s182.5 151.167 282.5 196.5c8 32 12 60.667 12 86c0 47.333 -21.333 77.666 -64 90.999c-104 -89.333 -189 -134 -255 -134c-36.667 0 -55 8 -55 24s14.167 35.167 42.5 57.5s65.333 42 111 59s89.5 25.5 131.5 25.5c8.66699 0 19 -0.666992 31 -2
c67.333 62.667 124.833 132 172.5 208s71.5 140.667 71.5 194c0 74 -49 111 -147 111c-58 0 -119.167 -16.833 -183.5 -50.5s-116.833 -72 -157.5 -115s-61 -79.167 -61 -108.5c0 -38.667 17.667 -58 53 -58c30 0 68.333 12.667 115 38s88 53.833 124 85.5
s56.333 56.5 61 74.5c1.33301 7.33301 3.5 11 6.5 11s4.5 -2.66699 4.5 -8c0 -24 -19.5 -55.5 -58.5 -94.5s-85.167 -73.5 -138.5 -103.5s-98 -45 -134 -45c-44.667 0 -67 25 -67 75c0 28 13.667 60.667 41 98s62.333 72.833 105 106.5s93.5 62.167 152.5 85.5
s116.833 35 173.5 35c106 0 159 -38.667 159 -116c0 -56 -26.167 -124.167 -78.5 -204.5s-115.833 -154.833 -190.5 -223.5c50.667 -14.667 76 -50 76 -106c0 -26 -4 -52.333 -12 -79c52.667 19.333 99 29 139 29s60 -11.333 60 -34c0 -16 -6.5 -29.5 -19.5 -40.5
s-23.833 -16.5 -32.5 -16.5s-13 1.83301 -13 5.5s2.33301 6.16699 7 7.5s11.5 5.16602 20.5 11.499s13.5 12.166 13.5 17.499zM38 -383.996c0 -13.333 6.66602 -19.999 19.999 -19.999c23.333 0 57.833 16.667 103.5 50s92.834 80 141.501 140s83.334 120.333 104.001 181
c-90.667 -40 -174.834 -98.833 -252.501 -176.5s-116.5 -135.834 -116.5 -174.501zM341.999 175.005c-10.667 2 -26.332 3.00098 -46.999 3.00098s-48 -6.16699 -82 -18.5s-62.167 -26.333 -84.5 -42s-33.5 -28.834 -33.5 -39.501s13 -16 39 -16
c53.333 0 122.666 37.667 207.999 113z" />
    <glyph glyph-name="bracketleft" unicode="[" horiz-adv-x="408" 
d="M89 -118h222c10 0 15 -3 15 -9s-10 -13.667 -30 -23h-239c-9.33301 0 -14 4 -14 12l329 866c6 13.333 11.667 20 17 20h241c10.667 0 16 -3 16 -9s-10.333 -14 -31 -24h-217z" />
    <glyph glyph-name="backslash" unicode="\" horiz-adv-x="247" 
d="M32 695c1.33301 -10.667 25.168 -151.5 71.501 -422.5s70.166 -409.833 71.499 -416.5c0 -14.667 -3 -22 -9 -22c-8 0 -15 11 -21 33c-92 560 -138 842.833 -138 848.5s1.66699 8.5 5 8.5c8 0 14.667 -9.66699 20 -29z" />
    <glyph glyph-name="bracketright" unicode="]" horiz-adv-x="364" 
d="M483 716h-222c-10 0 -15 3 -15 9s10 13.667 30 23h239c9.33301 0 14 -4 14 -12l-329 -866c-6 -13.333 -11.667 -20 -17 -20h-241c-10.667 0 -16 3 -16 9s10.333 14 31 24h217z" />
    <glyph glyph-name="asciicircum" unicode="^" horiz-adv-x="340" 
d="M199 116c-74.667 -36.667 -115 -55 -121 -55s-9 1.5 -9 4.5s22.333 17.833 67 44.5s69.667 40 75 40s13.5 -14 24.5 -42s17.833 -45 20.5 -51c-2 -4 -4.66699 -6 -8 -6c-5.33301 0 -18.333 16.333 -39 49z" />
    <glyph glyph-name="underscore" unicode="_" horiz-adv-x="356" 
d="M37 -12l235 1c5.33301 0 8 -1.33301 8 -4c0 -11.333 -4.33301 -17.333 -13 -18c-66.667 -3.33301 -137.667 -5 -213 -5c-19.333 0 -29 2.66699 -29 8c0 11.333 4 17.333 12 18z" />
    <glyph glyph-name="grave" unicode="`" horiz-adv-x="380" 
d="M267 236c-2.66699 0 -7.99902 2 -15.999 6l-85 54c-4 4 -6 8.33301 -6 13c0 9.33301 4.66699 14 14 14c4 0 7.33301 -1.33301 10 -4l79 -65c9.33301 -9.33301 10.666 -15.333 3.99902 -18z" />
    <glyph glyph-name="a" unicode="a" horiz-adv-x="303" 
d="M189 119c-4 0 -6.00098 2.33301 -6.00098 7l3 7c12 11.333 18 21 18 29c0 10 -5.33301 15 -16 15c-23.333 0 -54.833 -16.167 -94.5 -48.5s-59.5 -61.166 -59.5 -86.499c0 -10.667 7 -16 21 -16s30.167 5.83301 48.5 17.5s34 23.334 47 35.001s20.167 17.5 21.5 17.5
c6.66699 -0.666992 10 -4 10 -10c0 -2.66699 -5.16699 -11.334 -15.5 -26.001s-15.5 -26.334 -15.5 -35.001c0 -6.66699 5.5 -10 16.5 -10s30.5 6.5 58.5 19.5s52.667 26.167 74 39.5l32 20c0.666992 -1.33301 1 -4 1 -8s-3 -7.33301 -9 -10
c-90 -61.333 -152.667 -92 -188 -92c-17.333 0 -26 8.66699 -26 26c0 7.33301 1.33301 15 4 23c-4.66699 -5.33301 -18.5 -13.5 -41.5 -24.5s-43.5 -16.5 -61.5 -16.5s-27 8.33301 -27 25c0 39.333 27.333 79.5 82 120.5s100.667 61.5 138 61.5c22 0 33 -9.33301 33 -28
c0 -10.667 -6.66699 -22 -20 -34s-22.666 -18 -27.999 -18z" />
    <glyph glyph-name="b" unicode="b" horiz-adv-x="233" 
d="M266 156c2 2 4.66699 3.00098 8 3.00098s5 -1.16699 5 -3.5s-2.33301 -5.5 -7 -9.5c-30 -20 -68.333 -33.667 -115 -41c-4 -32.667 -17.5 -62 -40.5 -88s-48.167 -39 -75.5 -39c-22.667 0 -34 16 -34 48c0 16 9.66699 44 29 84c-36.667 12 -55 34.333 -55 67
c0 12.667 6 23.167 18 31.5s27.167 12.5 45.5 12.5s34.833 -2.66699 49.5 -8c54 87.333 112.333 166.166 175 236.499s111 105.5 145 105.5c12.667 0 19 -9 19 -27c0 -32 -29.833 -83.5 -89.5 -154.5s-125.167 -139.5 -196.5 -205.5c7.33301 -13.333 11 -28.333 11 -45v-3
c46.667 6.66699 82.667 18.667 108 36zM138 182.001c64 60 122.334 120.833 175.001 182.5s80.667 108.167 84 139.5c-0.666992 14.667 -5 22 -13 22c-18 0 -55.833 -35.167 -113.5 -105.5s-108.834 -143.5 -153.501 -219.5c6.66699 -4 13.667 -10.333 21 -19z
M103.001 101.001c-14.667 0 -25.667 0.668945 -33 2.00195c-2.66699 -2.66699 -4.66699 -4.33398 -6 -5.00098c-12.667 -30.667 -19 -51.334 -19 -62.001c0 -16.667 6 -25 18 -25c18 0 34.333 9.16699 49 27.5s22.667 39.5 24 63.5c-7.33301 -0.666992 -18.333 -1 -33 -1z
M81.001 191.003c-15.333 8 -29.667 12.001 -43 12.001c-21.333 0 -32 -7 -32 -21c0 -26.667 13 -45.334 39 -56.001c10.667 22 22.667 43.667 36 65zM87 117.004c4.66699 -0.666992 12.332 -0.999023 22.999 -0.999023s19 0.333008 25 1
c-1.33301 12 -4.66602 22.667 -9.99902 32c-13.333 -12.667 -26 -23.334 -38 -32.001zM115.998 162.005l-12.999 14c-0.666992 -2 -4.33398 -8.83301 -11.001 -20.5s-11.334 -20.5 -14.001 -26.5c8.66699 6.66699 21.334 17.667 38.001 33z" />
    <glyph glyph-name="c" unicode="c" horiz-adv-x="226" 
d="M133 28c32 13.333 66.3311 31.334 102.998 54.001l19 12c0.666992 -1.33301 1 -4 1 -8s-3 -7.33301 -9 -10c-35.333 -24 -70.666 -45 -105.999 -63s-68 -27 -98 -27c-38 0 -57 13.667 -57 41c0 32.667 22.833 69.5 68.5 110.5s90.834 61.5 135.501 61.5
c18.667 0 28 -8 28 -24c0 -9.33301 -8.33301 -21 -25 -35c-23.333 -19.333 -38 -29 -44 -29s-9 2.66699 -9 8c0 2 1.33301 4 4 6c6.66699 4 14.167 10.167 22.5 18.5s12.5 15.5 12.5 21.5c0 9.33301 -4.33301 14 -13 14c-18.667 0 -46 -16.833 -82 -50.5
s-54 -60.834 -54 -81.501c0 -23.333 12.667 -35 38 -35c16.667 0 35 4 55 12z" />
    <glyph glyph-name="d" unicode="d" horiz-adv-x="275" 
d="M174 94c-4.66699 -18 -7 -37.334 -7 -58.001s8.66699 -31 26 -31c4.66699 0 12.5 2.5 23.5 7.5s17.333 7.5 19 7.5s2.5 -0.666992 2.5 -2c0 -8 -7 -16.333 -21 -25s-28 -13 -42 -13c-28 0 -42 18.667 -42 56c0 8.66699 0.333008 15.334 1 20.001
c-53.333 -46.667 -94.166 -70 -122.499 -70s-42.5 9.66699 -42.5 29c0 28.667 24.5 64.5 73.5 107.5s95.5 67.5 139.5 73.5c38 78 84.833 151 140.5 219s98.5 102 128.5 102c5.33301 0 9.66602 -2.83301 12.999 -8.5s5 -11.167 5 -16.5c0 -22 -32.5 -77.333 -97.5 -166
s-130.833 -166 -197.5 -232zM432 476.999c0 5.33301 -1.99805 8 -5.99805 8c-11.333 0 -32.833 -18.667 -64.5 -56s-64.834 -84.833 -99.501 -142.5s-60.334 -110.5 -77.001 -158.5c62 65.333 118.667 133 170 203s77 118.667 77 146zM17.002 22.999
c0 -10 5.66797 -15 17.001 -15c18 0 53 25 105 75c8.66699 30.667 19 59 31 85c-32.667 -8 -66.334 -29.333 -101.001 -64s-52 -61.667 -52 -81z" />
    <glyph glyph-name="e" unicode="e" horiz-adv-x="228" 
d="M56 97c-40 0 -60.001 8.66699 -60.001 26c0 20.667 23.667 45.167 71 73.5s90 42.5 128 42.5c19.333 0 29 -6 29 -18c0 -6.66699 -5 -14 -15 -22s-19.667 -14.333 -29 -19s-14.666 -7 -15.999 -7c-4 0 -6.66699 1.66699 -8 5c-1.33301 4.66699 2.16699 9.5 10.5 14.5
s12.5 10.5 12.5 16.5s-7.5 9 -22.5 9s-38.5 -10.5 -70.5 -31.5s-48 -38.167 -48 -51.5c0 -10 11.667 -15 35 -15c4 0 11.333 0.333008 22 1s16 -0.666016 16 -3.99902s-16.5 -15.333 -49.5 -36s-49.5 -38.334 -49.5 -53.001c0 -16.667 10.833 -25 32.5 -25
s46.167 5.66699 73.5 17c44 19.333 84 40 120 62l19 12c0.666992 -1.33301 1 -4 1 -8s-3 -7.33301 -9 -10c-35.333 -24 -74 -46.833 -116 -68.5s-79.833 -32.5 -113.5 -32.5s-50.5 11.167 -50.5 33.5s29 51.833 87 88.5z" />
    <glyph glyph-name="f" unicode="f" horiz-adv-x="196" 
d="M-2 26c30 -0.666992 51.001 -9.66895 63.001 -27.002c62.667 32.667 118.334 64.667 167.001 96c0.666992 -2 1 -5 1 -9s-3 -7.33301 -9 -10c-23.333 -16 -47.333 -31.333 -72 -46l-80 -46c2 -6.66699 3 -14.667 3 -24c0 -35.333 -15.5 -79.166 -46.5 -131.499
s-67.333 -97.666 -109 -135.999s-76.5 -57.5 -104.5 -57.5c-12.667 0 -19 10 -19 30s35 97.667 105 233c-14.667 -5.33301 -26.334 -8 -35.001 -8c-24 0 -36 7 -36 21c0 16.667 14.5 37 43.5 61s59.833 40.333 92.5 49c74.667 135.333 147 251.5 217 348.5
s123.333 145.5 160 145.5c14.667 0 22 -7.33301 22 -22c0 -22 -8.16699 -48.333 -24.5 -79s-36.5 -60.834 -60.5 -90.501s-50.833 -60.167 -80.5 -91.5s-56.5 -58.166 -80.5 -80.499l-64 -59c-18.667 -17 -28.334 -25.833 -29.001 -26.5l-13.5 -22.5
c-5.66699 -9.66699 -9.16699 -15.5 -10.5 -17.5zM-165.999 -317.002c0 -7.33301 2.33301 -11 7 -11c18.667 0 44.167 17.167 76.5 51.5s61.333 74.5 87 120.5s38.5 84 38.5 114c0 5.33301 -0.333008 9.33301 -1 12c-37.333 -21.333 -73 -40 -107 -56
c-67.333 -123.333 -101 -200.333 -101 -231zM325.001 467.998c0 8 -3.66699 12.001 -11 12.001c-12.667 -0.666992 -45 -37.834 -97 -111.501s-109 -161.167 -171 -262.5c41.333 36.667 86.333 81.667 135 135c96 104 144 179.667 144 227zM-132.999 -60.001
c0 -9.33301 8.66602 -14 25.999 -14c2.66699 0 9.33398 1.33301 20.001 4l39 72c-22 -6 -41.667 -15.5 -59 -28.5s-26 -24.167 -26 -33.5zM-48 -54.001c16.667 6.66699 45.001 20.333 85.001 41c-8.66699 14 -24.334 21 -47.001 21h-2l-19 -33
c-8 -14 -13.667 -23.667 -17 -29z" />
    <glyph glyph-name="g" unicode="g" horiz-adv-x="254" 
d="M254 200c0 -13.333 -8.66895 -27.6709 -26.002 -43.0039s-29.833 -23 -37.5 -23s-11.5 2 -11.5 6l7 9c16.667 15.333 25 26.666 25 33.999c0 9.33301 -5 14 -15 14c-24 -0.666992 -57.333 -22 -100 -64s-64 -73 -64 -93c0 -8.66699 4.83301 -13 14.5 -13
s23.167 4.5 40.5 13.5s32.333 18.167 45 27.5l20 14c2 1.33301 5.66699 5.33301 11 12c14.667 18 24.334 27 29.001 27c10.667 -1.33301 16 -6 16 -14c-17.333 -25.333 -49.666 -77.666 -96.999 -156.999c14 2 27.667 3 41 3c32 0 48 -8.33301 48 -25
c0 -9.33301 -6.16699 -21.166 -18.5 -35.499s-21.833 -21.5 -28.5 -21.5s-10 2.33301 -10 7c0 2.66699 3.66699 6.83398 11 12.501s11 12.5 11 20.5c0 10.667 -7 16 -21 16s-30.333 -1.66699 -49 -5l-69.5 -118.5c-17 -28.333 -38.167 -60.166 -63.5 -95.499
c-48 -67.333 -90.333 -101 -127 -101c-22.667 0 -34 11.667 -34 35c0 41.333 28.167 95.333 84.5 162s118.833 111.667 187.5 135l56 106c-8 -5.33301 -21.667 -12.666 -41 -21.999c-37.333 -18 -63.333 -27 -78 -27c-18 0 -27 9.33301 -27 28s14.333 44 43 76
s62.667 60.5 102 85.5s72 37.5 98 37.5c8 0 14.333 -1.83301 19 -5.5s7.66699 -9.5 9 -17.5zM-165.002 -343.005c0 -14 5.33398 -20.999 16.001 -20.999c34 0 102.667 91.667 206 275c-60.667 -22.667 -112.834 -62.334 -156.501 -119.001s-65.5 -101.667 -65.5 -135z" />
    <glyph glyph-name="h" unicode="h" horiz-adv-x="314" 
d="M16 13c6 0 39.502 26.499 100.502 79.499s96.833 79.5 107.5 79.5s16 -4.66699 16 -14c0 -7.33301 -6.66699 -18.666 -20 -33.999s-26.5 -32 -39.5 -50s-19.5 -34 -19.5 -48c0 -7.33301 5.5 -11 16.5 -11s30.5 6.5 58.5 19.5s52.667 26.167 74 39.5l32 20
c0.666992 -1.33301 1 -4 1 -8s-3 -7.33301 -9 -10c-90 -61.333 -152.667 -92 -188 -92c-17.333 0 -26 9.33301 -26 28c0 12.667 4.66699 28 14 46s18.666 33 27.999 45l13 18c-30 -22.667 -61 -48.167 -93 -76.5l-73 -64c-16.667 -14.333 -28.334 -21.5 -35.001 -21.5
s-10 4.83301 -10 14.5s15.667 43.167 47 100.5s67.5 119.166 108.5 185.499s84 126.5 129 180.5s79.167 81 102.5 81c10 0 17 -4.66699 21 -14c2 -3.33301 3 -7.33301 3 -12c0 -46 -69 -134.333 -207 -265c-26 -25.333 -51.333 -48.666 -76 -69.999
c-50.667 -85.333 -76 -134.333 -76 -147zM342.002 483.999c0 6.66699 -1.66699 10 -5 10c-13.333 0 -41.333 -29.333 -84 -88s-88 -127 -136 -205c150 136.667 225 231 225 283z" />
    <glyph glyph-name="i" unicode="i" horiz-adv-x="183" 
d="M179 305c10 0 14.999 -5 14.999 -15s-4.66699 -20.167 -14 -30.5s-19.666 -15.5 -30.999 -15.5c-9.33301 0 -14 6.5 -14 19.5s5.33301 23.167 16 30.5s20 11 28 11zM84.999 173c3.33301 5.33301 8.00098 7.99902 14.001 7.99902s12 -3 18 -9
c0 -2.66699 -4.33301 -8.66699 -13 -18s-23.334 -30.166 -44.001 -62.499s-31 -53.833 -31 -64.5c0 -6.66699 5 -10.667 15 -12c13.333 0 34 6.5 62 19.5s52.667 26.167 74 39.5l32 20c0.666992 -1.33301 1 -4 1 -8s-3 -7.33301 -9 -10c-90 -61.333 -152.667 -92 -188 -92
c-17.333 0 -26 8.66699 -26 26s9.5 41.5 28.5 72.5s41.167 61.167 66.5 90.5z" />
    <glyph glyph-name="j" unicode="j" horiz-adv-x="168" 
d="M3 64c-4 -1.33301 -7.66797 -2.00293 -11.001 -2.00293s-5.33301 1.66699 -6 5c47.333 29.333 79 51.333 95 66s27 25 33 31l16 16c8 8.66699 14 13 18 13c9.33301 -1.33301 14 -5 14 -11c0 -2.66699 -3.66699 -10.167 -11 -22.5s-27.166 -48.5 -59.499 -108.5
l-73.5 -134c13.333 2 26 3 38 3c32 0 48 -8.33301 48 -25c0 -9.33301 -6.16699 -21.166 -18.5 -35.499s-21.833 -21.5 -28.5 -21.5s-10 2.33301 -10 7c0 2.66699 3.66699 6.83398 11 12.501s11 12.5 11 20.5c0 10.667 -6.83301 16 -20.5 16s-28.834 -1.66699 -45.501 -5
c-121.333 -218 -209.666 -327 -264.999 -327c-22.667 0 -34 11.667 -34 35c0 42 28.667 98.167 86 168.5s120.333 117.5 189 141.5c41.333 76 80 150.667 116 224c-6 -7.33301 -36.667 -29.666 -92 -66.999zM-246.001 -409.003c34 0 103.666 95.333 208.999 286
c-61.333 -23.333 -114.166 -64.833 -158.499 -124.5s-66.5 -106.5 -66.5 -140.5c0 -14 5.33301 -21 16 -21zM200.998 302.997c10 0 14.999 -5 14.999 -15s-4.66699 -20.167 -14 -30.5s-19.666 -15.5 -30.999 -15.5c-9.33301 0 -14 6.5 -14 19.5s5.33301 23.167 16 30.5
s20 11 28 11z" />
    <glyph glyph-name="k" unicode="k" horiz-adv-x="291" 
d="M238 46l82 47.999c0.666992 -1.33301 1 -4 1 -8s-3 -7.33301 -9 -10c-90.667 -60.667 -155.334 -91 -194.001 -91c-33.333 0 -50 22 -50 66c0 18 3 34.5 9 49.5s15.667 22.5 29 22.5c46 0 81.833 7 107.5 21s38.5 28.5 38.5 43.5s-10.667 22.5 -32 22.5
c-48 0 -109 -43.333 -183 -130l-51 -98c-3.33301 -6 -8 -9 -14 -9c-13.333 0 -20 4.66699 -20 14c0 4 1.33301 8.66699 4 14l89 156c56.667 100 114.667 190 174 270s104 120 134 120c10 0 17 -4.66699 21 -14c2 -3.33301 3 -7.33301 3 -12c0 -24 -20.667 -61.667 -62 -113
s-80 -94.666 -116 -129.999l-110 -103l-28 -50c72 73.333 134.667 110 188 110c30.667 0 46 -10 46 -30c0 -22 -17.167 -44 -51.5 -66s-77.166 -33 -128.499 -33c-7.33301 -10.667 -11 -22.667 -11 -36c0 -37.333 14.667 -56 44 -56c21.333 0 50.333 10 87 30
c1.33301 1.33301 2.33301 2 3 2zM344 509.999c0 6.66699 -1.66797 10 -5.00098 10c-36.667 0 -113 -102 -229 -306c58.667 54 112.334 109.167 161.001 165.5s73 99.833 73 130.5z" />
    <glyph glyph-name="l" unicode="l" horiz-adv-x="193" 
d="M27 -16c-30 0 -45.001 16.334 -45.001 49.001c0 43.333 23.5 105.5 70.5 186.5s100.667 153.667 161 218s107.833 96.5 142.5 96.5c12.667 0 19 -9 19 -27c0 -28 -23.5 -73.667 -70.5 -137s-97.5 -122.666 -151.5 -177.999s-95.667 -93.333 -125 -114
c-1.33301 -10.667 -2 -17.834 -2 -21.501s0.333008 -7.83398 1 -12.501s3.33398 -10.667 8.00098 -18s12.5 -11 23.5 -11s30.5 6.5 58.5 19.5s52.667 26.167 74 39.5l32 20c0.666992 -1.33301 1 -4 1 -8s-3 -7.33301 -9 -10c-90 -61.333 -152.667 -92 -188 -92z
M338.999 483.001c-0.666992 14.667 -5.00098 22 -13.001 22c-20.667 0 -52 -23.333 -94 -70s-82.667 -102.5 -122 -167.5s-65 -120.833 -77 -167.5c28 22.667 64 56 108 100s87.333 94.333 130 151s65.334 100.667 68.001 132z" />
    <glyph glyph-name="m" unicode="m" horiz-adv-x="488" 
d="M32 83l-24.999 -16.0029c-2.66699 -1.33301 -5.16699 -2 -7.5 -2s-3.5 1.33301 -3.5 4s1 5 3 7c5.33301 2.66699 22.166 14.834 50.499 36.501s46.666 32.5 54.999 32.5s12.5 -4.83301 12.5 -14.5s-10.167 -29.5 -30.5 -59.5s-30.5 -46.167 -30.5 -48.5
s0.666992 -3.5 2 -3.5c6 0 40.667 26.333 104 79s97.666 79 102.999 79c10 0 15 -4.66699 15 -14c0 -6 -11.5 -26.5 -34.5 -61.5s-38.167 -58.833 -45.5 -71.5c0.666992 -0.666992 2.16699 -1 4.5 -1s15.833 8.83301 40.5 26.5l77 56.5c26.667 20 42.334 31.5 47.001 34.5
s9 4.5 13 4.5c8 -0.666992 12 -5.33398 12 -14.001c0 -3.33301 -11.5 -20.833 -34.5 -52.5s-34.5 -51.834 -34.5 -60.501c0 -6 7.16699 -9 21.5 -9s35.5 6.5 63.5 19.5s52.667 26.167 74 39.5l32 20c0.666992 -1.33301 1 -4 1 -8s-3 -7.33301 -9 -10
c-90 -61.333 -152.667 -92 -188 -92c-20.667 0 -31 8 -31 24c0 15.333 4.5 30 13.5 44l23.5 35.5c6.66699 9.66699 10 14.834 10 15.501c-89.333 -65.333 -140.833 -101.166 -154.5 -107.499s-23.5 -9.5 -29.5 -9.5s-9 6.66699 -9 20l72 112
c-8 -3.33301 -34 -21.666 -78 -54.999s-78.333 -61 -103 -83c-9.33301 -11.333 -18.333 -17 -27 -17c-8.66699 2 -13 7.66699 -13 17c0 2.66699 12.167 22.334 36.5 59.001s36.5 56.5 36.5 59.5s-0.833008 4.5 -2.5 4.5s-4.5 -1.16699 -8.5 -3.5s-8.66699 -5.5 -14 -9.5
s-8.66602 -6.33301 -9.99902 -7z" />
    <glyph glyph-name="n" unicode="n" horiz-adv-x="357" 
d="M0 76c12.667 7.33301 29.3311 19 49.998 35c50.667 40 77.667 60 81 60c10 0 15 -4.33301 15 -13s-5.16699 -22 -15.5 -40s-22 -36.667 -35 -56s-20.5 -31 -22.5 -35c0.666992 -0.666992 2.16699 -1 4.5 -1s15.5 8.83301 39.5 26.5l75 56c26 19.667 41.333 31 46 34
s9 4.5 13 4.5c8 -0.666992 12 -5.33398 12 -14.001c0 -3.33301 -11.333 -20.166 -34 -50.499s-34 -49.833 -34 -58.5c0 -6 7.16699 -9 21.5 -9s35.5 6.5 63.5 19.5s52.667 26.167 74 39.5l32 20c0.666992 -1.33301 1 -4 1 -8s-3 -7.33301 -9 -10
c-90 -61.333 -152.667 -92 -188 -92c-20.667 0 -31 8 -31 24c0 15.333 4.5 30 13.5 44l23.5 35.5c6.66699 9.66699 10 14.834 10 15.501l-109 -79c-42 -30.667 -65.667 -46 -71 -46c-4 0 -6 4.66699 -6 14s13.167 33.666 39.5 72.999s39.5 60.333 39.5 63s-0.666992 4 -2 4
l-10 -5l-50 -40c-3.33301 -2.66699 -9.66602 -7 -18.999 -13s-15.166 -9 -17.499 -9s-3.5 1.5 -3.5 4.5s1 5.16699 3 6.5z" />
    <glyph glyph-name="o" unicode="o" horiz-adv-x="207" 
d="M220 70c-20.667 -12.667 -44.665 -19 -71.998 -19h-12c-18 -20.667 -37.167 -37.5 -57.5 -50.5s-37.833 -19.5 -52.5 -19.5c-20.667 0 -31 13.333 -31 40s14.333 57.667 43 93c-2.66699 7.33301 -4 16.333 -4 27c0 23.333 10.167 43.5 30.5 60.5s40.166 25.5 59.499 25.5
c40.667 0 61 -22 61 -66c0 -29.333 -12.667 -61.333 -38 -96h12c21.333 0 39.666 5 54.999 15c2 2 4.66699 3 8 3s5 -1.16699 5 -3.5s-2.33301 -5.5 -7 -9.5zM124.002 185c3.33301 1.33301 5.99902 1.99902 7.99902 1.99902s3 -1.5 3 -4.5s-3.66699 -7.16699 -11 -12.5
c-26.667 -20.667 -46.667 -39.334 -60 -56.001c14.667 -23.333 37 -38.666 67 -45.999c26 30.667 39 59.334 39 86.001c0 15.333 -5 27 -15 35s-22.833 12 -38.5 12s-30.167 -4.5 -43.5 -13.5s-20 -18.667 -20 -29s1 -18.5 3 -24.5c20.667 21.333 43.334 38.333 68.001 51z
M50.001 91.999c-10.667 -18 -16 -38 -16 -60c0 -12 5.33301 -18 16 -18c18 0 40.333 13.333 67 40c-30 5.33301 -52.333 18 -67 38z" />
    <glyph glyph-name="p" unicode="p" horiz-adv-x="281" 
d="M119 160c44 24.667 81.501 37.002 112.501 37.002s46.5 -13 46.5 -39c0 -35.333 -22.167 -72.166 -66.5 -110.499s-88.5 -57.5 -132.5 -57.5c-4 0 -9 2 -15 6s-9 10.667 -9 20s7.5 20.333 22.5 33s24 19 27 19s6 -0.5 9 -1.5s6 -2.83301 9 -5.5s4.5 -5 4.5 -7
s-1.66699 -4.66699 -5 -8c-6.66699 -4.66699 -13.834 -10.834 -21.501 -18.501s-11.5 -13 -11.5 -16s3.33301 -4.5 10 -4.5s20.667 4.83301 42 14.5s42.666 25.667 63.999 48s32 46.833 32 73.5c0 16.667 -9.66699 25 -29 25c-29.333 0 -64 -11.333 -104 -34
c-57.333 -96 -93.333 -157.333 -108 -184c-58 -106.667 -109.667 -189.834 -155 -249.501s-86 -89.5 -122 -89.5c-12 0 -18 7.33301 -18 22c0 58.667 38.833 139.5 116.5 242.5s160.167 186.167 247.5 249.5c67.333 111.333 108 181 122 209
c-7.33301 -8.66699 -19.666 -19 -36.999 -31l-57 -39c-4 -1.33301 -7.66699 -2 -11 -2s-5.33301 1.66699 -6 5c62.667 39.333 109 75.333 139 108c7.33301 8 11.333 13 12 15c2 2 6.66699 2.66699 14 2s11 -4 11 -10c0 -2.66699 -4.83301 -11.834 -14.5 -27.501z
M-32.999 -41.998l81 138c-76.667 -58 -149 -135.5 -217 -232.5s-102 -168.5 -102 -214.5c0 -6 2 -9 6 -9c42 0 119.333 106 232 318z" />
    <glyph glyph-name="q" unicode="q" horiz-adv-x="274" 
d="M266 12c1.33301 1.33301 2.49902 2.00098 3.49902 2.00098s1.5 -1 1.5 -3c0 -10.667 -5.33301 -20.667 -16 -30c-34.667 -28.667 -74 -56.667 -118 -84c3.33301 -8.66699 5 -17.667 5 -27c0 -31.333 -12.5 -69.5 -37.5 -114.5s-53.333 -83.5 -85 -115.5
s-56.5 -48 -74.5 -48c-14.667 0 -22 9 -22 27c0 51.333 27.333 121.666 82 210.999c-31.333 -12.667 -57.5 -19 -78.5 -19s-31.5 7.33301 -31.5 22c0 21.333 16.5 44 49.5 68s72.167 36 117.5 36c6.66699 0 11.667 -0.333008 15 -1c5.33301 8.66699 13 20 23 34
c18 25.333 34.667 50 50 74c-44 -34.667 -87 -52 -129 -52c-28 0 -42 10 -42 30c0 21.333 14.5 48.5 43.5 81.5s66 62.333 111 88s87.167 38.5 126.5 38.5c18 0 27 -7.66699 27 -23c0 -11.333 -10.5 -25.666 -31.5 -42.999s-35.5 -26 -43.5 -26s-12 2 -12 6
c0 2.66699 8 9.66699 24 21s24 21.166 24 29.499s-6.66699 12.5 -20 12.5c-28 0 -68.167 -21.333 -120.5 -64s-78.5 -76 -78.5 -100c0 -13.333 9.5 -20 28.5 -20s39.833 6.16699 62.5 18.5s41.334 24.833 56.001 37.5l22 19c4 3.33301 8 5 12 5c8 0 12 -3.66699 12 -11
c0 -4 -2.66699 -9.66699 -8 -17l-107 -146c9.33301 -4 17 -10 23 -18c48.667 29.333 94 63 136 101zM53.999 -149.999c-64 -99.333 -95.999 -168 -95.999 -206c0 -10.667 4 -16 12 -16c12 0 30.167 13.5 54.5 40.5s46.666 59.667 66.999 98s30.5 70.833 30.5 97.5
c0 8 -1 15.333 -3 22c-19.333 -11.333 -41 -23.333 -65 -36zM66 -78.999l-10.002 -0.00195312c-20.667 0 -42.167 -4.66699 -64.5 -14s-40.166 -24.666 -53.499 -45.999c0 -12.667 8 -19 24 -19s36 4.66699 60 14c2.66699 4.66699 17.334 26.334 44.001 65.001z
M95.998 -87.001l-23 -33.999l39 21c-4.66699 5.33301 -10 9.66602 -16 12.999z" />
    <glyph glyph-name="r" unicode="r" horiz-adv-x="245" 
d="M7 67c-2.66699 -1.33301 -5.16992 -2.00195 -7.50293 -2.00195s-3.5 1.33301 -3.5 4s1 5 3 7c27.333 15.333 57.333 40.333 90 75c-30 9.33301 -45 22.5 -45 39.5s11.333 36 34 57s44 31.5 64 31.5c13.333 0 20 -8 20 -24c0 -24.667 -12.333 -51 -37 -79
c32 -5.33301 48 -13 48 -23c0 -13.333 -5.83301 -23.5 -17.5 -30.5s-25.167 -19.5 -40.5 -37.5s-23 -36 -23 -54c0 -4 1.33301 -7.66699 4 -11s8.33398 -5 17.001 -5s27 6.5 55 19.5s52.667 26.167 74 39.5l32 20c0.666992 -1.33301 1 -4 1 -8s-3 -7.33301 -9 -10
c-90 -61.333 -152.667 -92 -188 -92c-17.333 0 -26 8.66699 -26 26c0 14 4.83301 28.667 14.5 44s20.334 28 32.001 38l32 28.5c9.66699 9 14.5 14.833 14.5 17.5s-4.16699 4.33398 -12.5 5.00098s-19.166 2.33398 -32.499 5.00098c-36.667 -39.333 -67.667 -66.333 -93 -81
zM68.9971 205.998c0 -13.333 14.667 -22.666 44 -27.999c17.333 21.333 26 39.833 26 55.5s-5 23.5 -15 23.5s-21.667 -5.83301 -35 -17.5s-20 -22.834 -20 -33.501z" />
    <glyph glyph-name="s" unicode="s" horiz-adv-x="197" 
d="M61 109c-32 -29.333 -52.333 -44.0039 -61 -44.0039c-2.66699 0 -4 1.33301 -4 4s1 5 3 7c16 8.66699 34.667 22.667 56 42c-3.33301 8 -5 16.667 -5 26c0 22.667 11.667 44.334 35 65.001s43 31 59 31c8.66699 0 13 -4.16699 13 -12.5s-13.333 -28.5 -40 -60.5
c-2.66699 -3.33301 -5.66699 -6.66602 -9 -9.99902s-6.83301 -7.16602 -10.5 -11.499s-6.5 -7.5 -8.5 -9.5l18 -17.5l21 -20.5c14.667 -14.667 22 -33 22 -55s-13.667 -41.167 -41 -57.5s-55.833 -24.5 -85.5 -24.5s-44.5 8.83301 -44.5 26.5s13.667 33.834 41 48.501
s56 24.667 86 30c-4 5.33301 -11.5 12.333 -22.5 21s-18.5 16 -22.5 22zM49 35.4961c-20 -9.66699 -29.999 -21 -29.999 -34s9.16699 -19.5 27.5 -19.5s34.666 4.33301 48.999 13s21.5 18.334 21.5 29.001s-1.33301 20.667 -4 30c-22.667 -2.66699 -44 -8.83398 -64 -18.501
zM82.001 143.996l26 27.999c17.333 20.667 26 33.167 26 37.5s-2 6.5 -6 6.5c-11.333 0 -23 -5.5 -35 -16.5s-18 -21.667 -18 -32s2.33301 -18.166 7 -23.499z" />
    <glyph glyph-name="t" unicode="t" horiz-adv-x="199" 
d="M22 330c45.333 0 89.9971 0.333984 133.997 1.00098c71.333 91.333 120 137 146 137c9.33301 0 14 -5 14 -15c0 -32 -23.333 -72 -70 -120l76 1c50.667 2 81.667 3 93 3s17 -1.33301 17 -4c0 -12.667 -8.66699 -19.334 -26 -20.001l-188 -8
c-32.667 -30.667 -73 -63 -121 -97c-50.667 -83.333 -76 -140 -76 -170c0 -15.333 9.83301 -23 29.5 -23s50.834 10.667 93.501 32l81 47c0.666992 -1.33301 1 -4 1 -8s-3 -7.33301 -9 -10c-21.333 -14.667 -44.666 -29.334 -69.999 -44.001
c-54 -27.333 -95.333 -41 -124 -41c-13.333 0 -23.666 2.66699 -30.999 8s-11.333 10.666 -12 15.999l-2 8c0 22.667 15.333 60.834 46 114.501s67 108.5 109 164.5c-32 -1.33301 -62.333 -2 -91 -2s-43 3.33301 -43 10c0 12.667 7.66699 19.334 23 20.001zM284.997 432.001
c0 3.33301 -1.33301 5 -4 5c-15.333 0 -49.333 -35 -102 -105h50c37.333 40.667 56 74 56 100zM200.997 304.001c-21.333 0 -35.667 -0.332031 -43 -0.999023l-25 -38l-22 -34c34.667 25.333 64.667 49.666 90 72.999z" />
    <glyph glyph-name="u" unicode="u" horiz-adv-x="318" 
d="M125 10c0 7.33301 5.5 19.6689 16.5 37.002s18.333 28.333 22 33l16.5 22c-79.333 -72 -134 -108 -164 -108c-16.667 0 -25 7 -25 21c0 20 33.667 76.333 101 169c3.33301 5.33301 7.66602 8 12.999 8c15.333 -4.66699 23 -8 23 -10s-2 -6 -6 -12
c-57.333 -77.333 -86 -120.833 -86 -130.5s3.33301 -14.5 10 -14.5c18.667 0 51.834 21.5 99.501 64.5s82.167 78.5 103.5 106.5c2.66699 4.66699 7 7 13 7c13.333 -2.66699 20 -5.33398 20 -8.00098l-30 -42l-31 -42.5l-25 -35.5
c-16.667 -22.667 -26.667 -39.334 -30 -50.001c0 -6.66699 5.5 -10 16.5 -10s30.5 6.5 58.5 19.5s52.667 26.167 74 39.5l32 20c0.666992 -1.33301 1 -4 1 -8s-3 -7.33301 -9 -10c-90 -61.333 -152.667 -92 -188 -92c-17.333 0 -26 8.66699 -26 26z" />
    <glyph glyph-name="v" unicode="v" horiz-adv-x="213" 
d="M16 162l-25.001 -7c-1.33301 0 -2 1 -2 3c0 6 7.5 13.333 22.5 22s27.167 13 36.5 13s14 -20 14 -60l-6 -97c0.666992 0.666992 23 25.167 67 73.5s82.167 85.5 114.5 111.5s59.833 39 82.5 39c10 -0.666992 15 -4.16699 15 -10.5s-6 -14.5 -18 -24.5
s-21.167 -15 -27.5 -15s-10.166 1.33301 -11.499 4s-4.5 4 -9.5 4s-13 -3.5 -24 -10.5s-24.667 -18.5 -41 -34.5l-46.5 -47.5l-60.5 -65l-67.5 -71.5c-5.33301 -4.66699 -9.83301 -7 -13.5 -7s-5.5 1.33301 -5.5 4c10 51.333 15 102 15 152v19c-2 3.33301 -5 5 -9 5z" />
    <glyph glyph-name="w" unicode="w" horiz-adv-x="337" 
d="M26 172l-30.999 -12.999c-1.33301 0 -2 1 -2 3c0 6 7.5 13.333 22.5 22s27.333 13 37 13s14.5 -6.66699 14.5 -20c0 -22.667 -7.33301 -62 -22 -118c0.666992 -0.666992 1.33398 -1 2.00098 -1c58 47.333 96.667 80.666 116 99.999s32.5 29 39.5 29
s10.5 -3.66699 10.5 -11s-7.66699 -33.166 -23 -77.499s-23 -69.5 -23 -75.5l15 13c30 27.333 59 55.666 87 84.999c-14.667 2 -22 10.333 -22 25c0 24 13.5 48.5 40.5 73.5s49.167 37.5 66.5 37.5c8.66699 0 13 -4.33301 13 -13c0 -21.333 -21.667 -56.666 -65 -105.999h7
c14 0 39.333 12.667 76 38l18 13c1.33301 0 2 -1.66699 2 -5s-1.66699 -6.33301 -5 -9c-41.333 -33.333 -79.333 -51.666 -114 -54.999c-31.333 -34 -64.333 -65.5 -99 -94.5s-55.834 -43.5 -63.501 -43.5s-11.5 3.33301 -11.5 10c0 2.66699 1.33301 6.83398 4 12.501
s9.66699 26.5 21 62.5s16.833 54.833 16.5 56.5s-0.833008 2.5 -1.5 2.5c-2 0 -4.66699 -1.66699 -8 -5l-129 -107c-14 -13.333 -24 -20 -30 -20c-6 2 -9 4.16699 -9 6.5s2.66699 8.66602 8 18.999s14.166 33.666 26.499 69.999s18.5 59.166 18.5 68.499s-1 14 -3 14z
M333.001 221.001c0 4 -3.33301 6 -10 6s-16.667 -7.16699 -30 -21.5s-20 -30.166 -20 -47.499c0 -8.66699 5 -14.334 15 -17.001c30 36 45 62.667 45 80z" />
    <glyph glyph-name="x" unicode="x" horiz-adv-x="250" 
d="M238 219c3.33301 0 7 -1.50098 11 -4.50098s6 -6.33301 6 -10s-3 -7.16699 -9 -10.5c-50.667 -33.333 -103 -70.333 -157 -111v-15c0 -35.333 7.66699 -53 23 -53c13.333 0 34 6.5 62 19.5s52.667 26.167 74 39.5l32 20c0.666992 -1.33301 1 -4 1 -8s-3 -7.33301 -9 -10
c-90 -61.333 -152.667 -92 -188 -92c-20.667 0 -31 17.333 -31 52c0 8.66699 0.333008 15.334 1 20.001c-46.667 -36 -82.5 -64.5 -107.5 -85.5s-39.333 -31.5 -43 -31.5s-5.5 1.5 -5.5 4.5s2.33301 7.16699 7 12.5l151 125c6.66699 48 10 75.167 10 81.5s-2.5 9.5 -7.5 9.5
s-11.167 -2.66699 -18.5 -8c-3.33301 0 -5 1 -5 3c0 4.66699 8 13 24 25c11.333 10.667 21 16 29 16c1.33301 0 4 -1.16699 8 -3.5s6 -6.33301 6 -12s-0.666992 -12.5 -2 -20.5c-1.33301 -8.66699 -4.33301 -29.667 -9 -63c91.333 73.333 140.333 110 147 110z" />
    <glyph glyph-name="y" unicode="y" horiz-adv-x="249" 
d="M232.5 151.5l-35 -52.5029c-8.33301 -12 -43.166 -68 -104.499 -168c5.33301 0.666992 14 1 26 1c32 0 48 -8.33301 48 -25c0 -9.33301 -6 -20.333 -18 -33s-21.333 -19 -28 -19s-10 2.33301 -10 7c0 2.66699 3.66699 6.83398 11 12.501s11 12.334 11 20.001
s-6.5 11.5 -19.5 11.5s-25.5 -1 -37.5 -3c-60.667 -99.333 -113 -177 -157 -233s-81.667 -84 -113 -84c-22.667 0 -34 11.667 -34 35c0 40 30.167 95.5 90.5 166.5s125.833 116.5 196.5 136.5l96 166c-28 -25.333 -56.833 -47.666 -86.5 -66.999s-52.167 -29 -67.5 -29
s-23 7 -23 21c0 21.333 35 80.333 105 177c3.33301 5.33301 7.66602 8 12.999 8c15.333 -4.66699 23 -8 23 -10s-2 -6 -6 -12c-60 -81.333 -90 -128.333 -90 -141c0 -8 4.5 -12 13.5 -12s27.667 10.667 56 32s52.5 43 72.5 65l56 68c4 4.66699 9 7 15 7
c12.667 -2 19 -5.33301 19 -10c0 -0.666992 -7.5 -12.5 -22.5 -35.5zM-177 -308.503c-11.333 -23.667 -17.001 -42.334 -17.001 -56.001s5.33301 -20.5 16 -20.5c33.333 0 106.333 93.333 219 280c-33.333 -10.667 -65.5 -28.167 -96.5 -52.5s-56.167 -49.666 -75.5 -75.999
s-34.666 -51.333 -45.999 -75z" />
    <glyph glyph-name="z" unicode="z" horiz-adv-x="242" 
d="M197 163c0 -14 -15.666 -35.1689 -46.999 -63.502s-52.666 -45.833 -63.999 -52.5c6 2 17.167 3 33.5 3s32.333 -5.5 48 -16.5s23.5 -23.667 23.5 -38s-1.33301 -26.5 -4 -36.5c12.667 2.66699 27 4 43 4c32 0 48 -8.33301 48 -25
c0 -9.33301 -6.16699 -21.166 -18.5 -35.499s-21.833 -21.5 -28.5 -21.5s-10 2.33301 -10 7c0 2.66699 3.66699 6.83398 11 12.501s11 12.5 11 20.5c0 10.667 -6.33301 16 -19 16s-27.334 -1.66699 -44.001 -5c-23.333 -69.333 -69.5 -144.833 -138.5 -226.5
s-121.833 -122.5 -158.5 -122.5c-22.667 0 -34 11.667 -34 35c0 41.333 31.833 99.666 95.5 174.999s131.167 126.666 202.5 153.999c6 16.667 9 31.167 9 43.5s-5.5 22.166 -16.5 29.499s-22.833 11 -35.5 11c-30.667 0 -55.334 -7.66699 -74.001 -23
c-6.66699 -5.33301 -12.167 -8 -16.5 -8s-6.5 1.5 -6.5 4.5s2.33301 6.33301 7 10s13.834 10.334 27.501 20.001s26.667 19.334 39 29.001s25.5 20.834 39.5 33.501c32 28 48 50.333 48 67c-4.66699 -4.66699 -17.5 -9.66699 -38.5 -15s-40.833 -8 -59.5 -8
c-38 0 -57 9 -57 27c0 6.66699 5 14 15 22s19.667 14.333 29 19s14.666 7 15.999 7c4 0 6.33301 -1.66699 7 -5c1.33301 -4 -2 -8.66699 -10 -14s-12 -11 -12 -17s7.66699 -9 23 -9s31.833 2.16699 49.5 6.5s30.167 6.5 37.5 6.5c19.333 0 29 -7 29 -21zM-84.499 -281.002
c-21.667 -37.333 -32.5 -64.5 -32.5 -81.5s5.33301 -25.5 16 -25.5c26.667 0 67 35.5 121 106.5s93.333 138.167 118 201.5c-44.667 -16.667 -87.5 -45 -128.5 -85s-72.333 -78.667 -94 -116z" />
    <glyph glyph-name="braceleft" unicode="{" horiz-adv-x="312" 
d="M161 332l-3 6.99902c0 2 3 4 9 6c12.667 3.33301 27.5 16.333 44.5 39s30 56.334 39 101.001l27 133c9 44 22.5 76.667 40.5 98s42 32 72 32s66 -8.66699 108 -26c4.66699 -9.33301 7 -15.5 7 -18.5s-1.66699 -4.5 -5 -4.5c-32 14 -62.167 21 -90.5 21
s-50.833 -10.167 -67.5 -30.5s-29 -52.833 -37 -97.5l-23.5 -133c-7.66699 -44 -18.167 -73.833 -31.5 -89.5s-33.333 -29.167 -60 -40.5c12.667 -25.333 19 -48.166 19 -68.499s-10.833 -49.833 -32.5 -88.5l-65 -117.5c-21.667 -39.667 -32.5 -72.5 -32.5 -98.5
c0 -50.667 37 -87 111 -109c1.33301 0 2 -0.833008 2 -2.5s-2.33301 -4.33398 -7 -8.00098s-8.66699 -5.5 -12 -5.5c-89.333 26.667 -134 67 -134 121c0 33.333 21.333 87 64 161s65 126.667 67 158c0 30 -3 50.333 -9 61z" />
    <glyph glyph-name="bar" unicode="|" horiz-adv-x="312" 
d="M99 -142c0.666992 5.33301 26.168 144.831 76.501 418.498s76 412.667 77 417s2 7.83301 3 10.5s2.16699 5.33398 3.5 8.00098c3.33301 6.66699 7.33301 10 12 10s7 -1.33301 7 -4c0 -5.33301 -51 -288.666 -153 -849.999c-1.33301 -6 -4.33301 -13 -9 -21
s-8.33398 -12 -11.001 -12c-4 0 -6 7.66699 -6 23z" />
    <glyph glyph-name="braceright" unicode="}" horiz-adv-x="273" 
d="M252 248l3 -6.99902c0 -2 -3 -4 -9 -6c-12.667 -3.33301 -27.5 -16.333 -44.5 -39s-30 -56.334 -39 -101.001l-27 -133c-9 -44 -22.5 -76.667 -40.5 -98s-42 -32 -72 -32s-66 8.66699 -108 26c-4.66699 9.33301 -7 15.5 -7 18.5s1.66699 4.5 5 4.5
c32 -14 62.167 -21 90.5 -21s50.833 10.167 67.5 30.5s29 52.833 37 97.5l23.5 133c7.66699 44 18.167 73.833 31.5 89.5s33.333 29.167 60 40.5c-12.667 25.333 -19 48.166 -19 68.499s10.833 49.833 32.5 88.5l65 117.5c21.667 39.667 32.5 72.5 32.5 98.5
c0 50.667 -37 87 -111 109c-1.33301 0 -2 0.833008 -2 2.5s2.33301 4.33398 7 8.00098s8.66699 5.5 12 5.5c89.333 -26.667 134 -67 134 -121c0 -33.333 -21.333 -87 -64 -161s-65 -126.667 -67 -158c0 -30 3 -50.333 9 -61z" />
    <glyph glyph-name="asciitilde" unicode="~" horiz-adv-x="435" 
d="M357 103c0 -10 -7.66699 -18.667 -23 -26s-31.833 -11 -49.5 -11s-41.834 6.16699 -72.501 18.5s-52.167 18.5 -64.5 18.5s-25.166 -3.16699 -38.499 -9.5s-21.666 -9.5 -24.999 -9.5l-2 1c0 2.66699 3.5 7.16699 10.5 13.5s17.333 12.5 31 18.5s28.167 9 43.5 9
s39.333 -6.83301 72 -20.5s54.167 -20.5 64.5 -20.5s19.166 1.83301 26.499 5.5s13 7.16699 17 10.5s6.66699 5 8 5s2 -1 2 -3z" />
    <glyph glyph-name="exclamdown" unicode="&#xa1;" horiz-adv-x="339" 
d="M-98 -349c-1.33301 -2.66699 -2.00391 -5 -2.00391 -7s1.66699 -3 5 -3c24.667 8 38.834 13.5 42.501 16.5s6.83398 6.16699 9.50098 9.5c-1.33301 0.666992 20.334 43.667 65.001 129c136 258.667 204 390.167 204 394.5s-2.66699 6.5 -8 6.5s-16.666 -11 -33.999 -33
c-31.333 -60.667 -85.833 -160.667 -163.5 -300s-117.167 -210.333 -118.5 -213zM264.496 249c-6.33301 -6.66699 -13.332 -10 -20.999 -10s-13.334 1.66699 -17.001 5s-5.66699 9 -6 17s3.16699 14.667 10.5 20s14.333 8 21 8c14.667 0 22 -6.33301 22 -19
c0 -7.33301 -3.16699 -14.333 -9.5 -21z" />
    <glyph glyph-name="cent" unicode="&#xa2;" horiz-adv-x="286" 
d="M235 505l-63 -111.997c14.667 -2 22 -10 22 -24c0 -9.33301 -8.33301 -21 -25 -35c-23.333 -19.333 -38 -29 -44 -29s-9 2.66699 -9 8c0 2 1.33301 4 4 6c6.66699 4 14.167 10.167 22.5 18.5s12.5 15.5 12.5 21.5c0 9.33301 -4.33301 14 -13 14
c-18.667 0 -46 -16.833 -82 -50.5s-54 -60.834 -54 -81.501c0 -23.333 12.667 -35 38 -35c16.667 0 35 4 55 12l10 4c32 13.333 66.333 31.333 103 54l19 12c0.666992 -1.33301 1 -4 1 -8s-3 -7.33301 -9 -10c-35.333 -24 -69 -44.333 -101 -61s-62 -26.334 -90 -29.001
c-35.333 -60.667 -56.333 -97.334 -63 -110.001c-12.667 -23.333 -23.334 -35 -32.001 -35c-6 0 -9 3.33301 -9 10c0 4 1.33301 8.66699 4 14c7.33301 9.33301 31.333 50 72 122c-28 2.66699 -42 16 -42 40c0 30 19.833 64.167 59.5 102.5s80.834 60.833 123.501 67.5
l44.5 76.5c8.33301 13.667 12.833 21.167 13.5 22.5c7.33301 13.333 14.5 20 21.5 20s10.5 -1.66699 10.5 -5z" />
    <glyph glyph-name="sterling" unicode="&#xa3;" horiz-adv-x="749" 
d="M813 597l-35.998 1.99707h-12c-12 -34.667 -37 -66.834 -75 -96.501s-77 -44.5 -117 -44.5c-22 0 -33 8.66699 -33 26c0 25.333 20.167 53.833 60.5 85.5s89.166 50.167 146.499 55.5v2c0 34.667 -29 52 -87 52c-71.333 0 -131.666 -29.333 -180.999 -88
c-25.333 -30 -46.833 -59.667 -64.5 -89s-38.167 -67 -61.5 -113h63c32 0 48 -1.66699 48 -5s-3.5 -7.66602 -10.5 -12.999s-15.167 -7.66602 -24.5 -6.99902s-38.666 1 -87.999 1l-18 -35h64c32 0 48 -1.66699 48 -5s-3.5 -7.66602 -10.5 -12.999
s-15.167 -7.66602 -24.5 -6.99902s-39 1 -89 1c-42 -84 -80 -150 -114 -198c24 0 48.833 -0.5 74.5 -1.5s64.667 -2.16699 117 -3.5s83.666 -2.33301 93.999 -3s15.5 -2.33398 15.5 -5.00098c0 -19.333 -16 -30 -48 -32c-87.333 2.66699 -181.333 4.66699 -282 6
c-102 -126 -230.667 -189 -386 -189c-37.333 0 -56 13.333 -56 40c0 16.667 8.66699 34.834 26 54.501s42.5 39.167 75.5 58.5s77.833 35.833 134.5 49.5s119.667 21.834 189 24.501c30 44.667 67.333 111 112 199c-34 -0.666992 -71.333 -3.66699 -112 -9
c-3.33301 0 -5 1 -5 3l14 17c12.667 5.33301 50.667 9 114 11c2.66699 4.66699 6 11.167 10 19.5s7 14.166 9 17.499c-34.667 -0.666992 -72.334 -3.66699 -113.001 -9c-3.33301 0 -5 1 -5 3l14 17c12.667 5.33301 51 9 115 11c24.667 47.333 47.667 87 69 119
s47 63.333 77 94c59.333 62.667 133.333 94 222 94c65.333 0 98 -21.333 98 -64v-4h6c14 0 27.333 -1.33301 40 -4c4 -4 5.66699 -9.16699 5 -15.5s-3.33398 -9.5 -8.00098 -9.5zM-201.998 -101.003c128 0 236.333 56.332 325 168.999
c-51.333 -0.666992 -101 -6.66699 -149 -18s-87.667 -24.666 -119 -39.999s-56.5 -31 -75.5 -47s-28.5 -29.667 -28.5 -41c0 -15.333 15.667 -23 47 -23zM590.002 473.996c23.333 0 51.167 13.332 83.5 39.999s54.5 54.334 66.5 83.001
c-48.667 -6 -89.167 -20.833 -121.5 -44.5s-48.5 -44.5 -48.5 -62.5c0 -10.667 6.66699 -16 20 -16z" />
    <glyph glyph-name="currency" unicode="&#xa4;" horiz-adv-x="468" 
d="M262 177c-21.333 -10.667 -43.8311 -16.002 -67.498 -16.002s-45.834 6.66699 -66.501 20c-42 -39.333 -70.333 -59 -85 -59c-5.33301 0 -8 2.66699 -8 8s3.16699 10.333 9.5 15s27.5 22 63.5 52c-17.333 18.667 -26 40.334 -26 65.001s6.16699 47.334 18.5 68.001
s28.833 37.667 49.5 51l-38 68c0 3.33301 2 5 6 5c9.33301 0 17.333 -6 24 -18l26 -45c21.333 10.667 43.333 16 66 16c36.667 0 65.667 -10 87 -30l41 34c8.66699 8 16.834 12 24.501 12s11.5 -2 11.5 -6c0 -1.33301 -1.33301 -3.33301 -4 -6l-60 -50
c10.667 -15.333 16 -33 16 -53s-6 -41 -18 -63s-28.333 -40.333 -49 -55c9.33301 -16 21.666 -35.667 36.999 -59c2.66699 -5.33301 4 -10 4 -14c0 -6.66699 -3 -10 -9 -10c-10.667 0 -28.334 23.333 -53.001 70zM152.002 345.498
c-20.667 -25.667 -30.999 -51.665 -30.999 -77.998s7 -47 21 -62s32.333 -22.5 55 -22.5c32 0 58.667 13.167 80 39.5s32 52.666 32 78.999s-6.66699 46.666 -20 60.999s-34.333 21.5 -63 21.5s-53.334 -12.833 -74.001 -38.5z" />
    <glyph glyph-name="yen" unicode="&#xa5;" horiz-adv-x="514" 
d="M161 246c12.667 5.33301 50.6699 8.99512 114.003 10.9951l49 87c39.333 69.333 66.333 115.333 81 138c-48 -54 -100.333 -104 -157 -150c-25.333 -20.667 -53.5 -39.334 -84.5 -56.001s-57.833 -25 -80.5 -25c-8.66699 0 -16.834 1 -24.501 3s-15.667 7.83301 -24 17.5
s-12.5 26 -12.5 49s6.33301 49.333 19 79s28.167 56.667 46.5 81l54.5 72.5c44 57.333 66 107.5 66 150.5s-9.16699 73.167 -27.5 90.5s-47.5 26 -87.5 26c-6 4 -9 7.66699 -9 11c0 6 12.167 9 36.5 9s45.333 -3.5 63 -10.5s30.5 -15.5 38.5 -25.5
c16.667 -20 25.667 -38.667 27 -56l1 -11c0 -35.333 -6.5 -70.333 -19.5 -105s-28.833 -65.334 -47.5 -92.001s-37.334 -52 -56.001 -76c-44.667 -58.667 -67 -108 -67 -148c0 -12 3.5 -21.833 10.5 -29.5s16.833 -11.5 29.5 -11.5c63.333 0 174 86.333 332 259
c23.333 24.667 41.333 46.667 54 66l5 8c4.66699 7.33301 9.33398 11 14.001 11c16 -2 24 -7 24 -15c0 -3.33301 -12.333 -24.5 -37 -63.5l-91.5 -149l-81.5 -133.5c8.66699 0.666992 30.334 0.833984 65.001 0.500977s52 -2 52 -5s-3.5 -7.16699 -10.5 -12.5
s-15.167 -7.66602 -24.5 -6.99902s-40.333 1 -93 1h-3c-10.667 -16 -18.334 -28 -23.001 -36c10.667 0.666992 34.167 0.833984 70.5 0.500977s54.5 -2 54.5 -5s-3.5 -7.16699 -10.5 -12.5s-15.167 -7.66602 -24.5 -6.99902s-44.333 1 -105 1l-42 -66
c30.667 5.33301 64 8 100 8s54.667 -10.333 56 -31c0 -11.333 -4.66699 -20.666 -14 -27.999c-15.333 -12 -27.333 -18 -36 -18s-13 1 -13 3s2.66699 4.33301 8 7s9.16602 4.83398 11.499 6.50098l7.5 5.5c6 4.66699 9 9 9 13c0 9.33301 -15.667 14 -47 14
s-65.333 -3.33301 -102 -10c-136.667 -204 -231.667 -306 -285 -306c-17.333 0 -26 10.833 -26 32.5s5.83301 46.334 17.5 74.001s28.5 56 50.5 85s52.333 56 91 81s82 43.5 130 55.5c20 30.667 35 55 45 73c-29.333 -0.666992 -64.333 -3.33398 -105 -8.00098
c-3.33301 0 -5 1 -5 3l14 17c12 4.66699 48.333 8.33398 109 11.001c9.33301 14 16.666 26.333 21.999 37c-34 -0.666992 -71 -3.66699 -111 -9c-3.33301 0 -5 1 -5 3zM-55.9971 -181.005c40 0 113.001 83.667 219.001 251c-74.667 -22 -132.334 -56.5 -173.001 -103.5
s-61 -89.167 -61 -126.5c0 -14 5 -21 15 -21z" />
    <glyph glyph-name="brokenbar" unicode="&#xa6;" horiz-adv-x="312" 
d="M105 -165c-4 0 -5.99805 6.16797 -5.99805 18.501s23.667 146.166 71 401.499c0 5.33301 2 8 6 8l18 -8c-6.66699 -35.333 -17.334 -95 -32.001 -179l-37 -208c-1.33301 -6 -4.33301 -13 -9 -21s-8.33398 -12 -11.001 -12zM185.002 330.001
c45.333 244 68.668 368 70.001 372s2.66602 7.33301 3.99902 10c3.33301 6.66699 7.33301 10 12 10s7 -1.33301 7 -4c0 -4.66699 -23 -134 -69 -388c0 -5.33301 -2 -8 -6 -8z" />
    <glyph glyph-name="section" unicode="&#xa7;" horiz-adv-x="246" 
d="M59.5 111c-6.33301 8.66699 -9.50098 20.9961 -9.50098 36.9961s8 32.667 24 50s33 29.666 51 36.999c0.666992 22.667 12.5 44.167 35.5 64.5s42.5 30.5 58.5 30.5c8.66699 0 13 -4.16699 13 -12.5s-13.333 -28.5 -40 -60.5
c-2.66699 -3.33301 -5.66699 -6.66602 -9 -9.99902s-6.83301 -7.16602 -10.5 -11.499s-6.5 -7.5 -8.5 -9.5l18 -17.5l21 -20.5c14.667 -14.667 22 -31.167 22 -49.5s-7.33301 -34.333 -22 -48s-32.667 -24.167 -54 -31.5c0.666992 -2 1 -5.66699 1 -11
c0 -25.333 -13.667 -46.166 -41 -62.499s-55.833 -24.5 -85.5 -24.5s-44.5 8.83301 -44.5 26.5s13.667 33.834 41 48.501s56 24.667 86 30c-4 6 -11.167 12.833 -21.5 20.5s-18.666 15.834 -24.999 24.501zM92.499 198.996
c-11.667 -10.667 -17.498 -21.8311 -17.498 -33.498s10.167 -26.834 30.5 -45.501s33.166 -34 38.499 -46c13.333 2.66699 24.666 8 33.999 16s14 18 14 30s-2.83301 22.667 -8.5 32s-12.167 16.333 -19.5 21c-20 12.667 -32.333 27 -37 43
c-11.333 -0.666992 -22.833 -6.33398 -34.5 -17.001zM95.501 -5.00098c14.333 8.66699 21.501 18.334 21.501 29.001s-1.33301 20.667 -4 30c-22.667 -2.66699 -44 -8.83398 -64 -18.501s-30 -21 -30 -34s9.16699 -19.5 27.5 -19.5s34.666 4.33301 48.999 13z
M157.002 233.999c34.667 34.667 52 57.334 52 68.001c0 2.66699 -3.83301 4 -11.5 4s-17.5 -5.5 -29.5 -16.5s-18 -21.333 -18 -31s2.33301 -17.834 7 -24.501z" />
    <glyph glyph-name="dieresis" unicode="&#xa8;" horiz-adv-x="394" 
d="M184 305c10 0 14.999 -5 14.999 -15s-4.66699 -20.167 -14 -30.5s-19.666 -15.5 -30.999 -15.5c-9.33301 0 -14 6.5 -14 19.5s5.33301 23.167 16 30.5s20 11 28 11zM288.999 295c10 0 14.999 -5 14.999 -15s-4.66699 -20.167 -14 -30.5s-19.666 -15.5 -30.999 -15.5
c-9.33301 0 -14 6.5 -14 19.5s5.33301 23.167 16 30.5s20 11 28 11z" />
    <glyph glyph-name="copyright" unicode="&#xa9;" horiz-adv-x="612" 
d="M361 358c56.667 0 107.501 -15.834 152.501 -47.501s67.5 -76.667 67.5 -135s-30.833 -112.666 -92.5 -162.999s-132 -75.5 -211 -75.5s-136.833 15 -173.5 45s-55 68.667 -55 116c0 64 29.667 123.333 89 178s133.666 82 222.999 82zM357.001 337.999
c-80.667 0 -147.667 -24.667 -201 -74s-80 -103.333 -80 -162c0 -42 16.5 -76.5 49.5 -103.5s85 -40.5 156 -40.5s134.167 22.5 189.5 67.5s83 93.833 83 146.5s-19.5 93 -58.5 121s-85.167 43 -138.5 45zM444.001 144.999c-45.333 -29.333 -82.999 -50.333 -112.999 -63
s-54.667 -19 -74 -19c-25.333 0 -38 11.667 -38 35c0 20.667 18 47.834 54 81.501s63.333 50.5 82 50.5c8.66699 0 13 -4.66699 13 -14c0 -6 -4.16699 -13.167 -12.5 -21.5s-15.833 -14.5 -22.5 -18.5c-2.66699 -2 -4 -4 -4 -6c0 -5.33301 3 -8 9 -8s19 8.33301 39 25
s30 29.667 30 39c0 16 -9.33301 24 -28 24c-44.667 0 -89.834 -20.5 -135.501 -61.5s-68.5 -77.833 -68.5 -110.5c0 -27.333 19 -41 57 -41c30 0 63 9 99 27c28.667 15.333 59 33.333 91 54l14 9c6 3.33301 9 7.66602 9 12.999z" />
    <glyph glyph-name="ordfeminine" unicode="&#xaa;" horiz-adv-x="346" 
d="M213 467c-4 0 -6.00098 2.33301 -6.00098 7l3 7c12 10.667 18 20.667 18 30s-5.33301 14 -16 14c-23.333 0 -54.833 -16.167 -94.5 -48.5s-59.5 -61.166 -59.5 -86.499c0 -10.667 7 -16 21 -16s30.167 5.83301 48.5 17.5s34 23.334 47 35.001s20.167 17.5 21.5 17.5
c6.66699 -0.666992 10 -4 10 -10c0 -2.66699 -5.16699 -11.334 -15.5 -26.001s-15.5 -26.334 -15.5 -35.001c0 -6.66699 5.5 -10 16.5 -10s30.5 6.5 58.5 19.5s52.667 26.167 74 39.5l32 20c0.666992 -1.33301 1 -4 1 -8s-3 -7.33301 -9 -10
c-90 -61.333 -152.667 -92 -188 -92c-17.333 0 -26 8.66699 -26 26c0 7.33301 1.33301 15 4 23c-4.66699 -5.33301 -18.5 -13.5 -41.5 -24.5s-43.5 -16.5 -61.5 -16.5s-27 8.33301 -27 25c0 39.333 27.333 79.5 82 120.5s100.667 61.5 138 61.5c22 0 33 -9.33301 33 -28
c0 -10.667 -6.66699 -22 -20 -34s-22.666 -18 -27.999 -18zM-0.000976562 279l235 1c5.33301 0 8 -1.33301 8 -4c0 -11.333 -4.33301 -17.333 -13 -18c-66.667 -3.33301 -137.667 -5 -213 -5c-19.333 0 -29 2.66699 -29 8c0 11.333 4 17.333 12 18z" />
    <glyph glyph-name="guillemotleft" unicode="&#xab;" horiz-adv-x="397" 
d="M71 120l166 80.001c1.33301 -5.33301 2 -10 2 -14s-3.33301 -7.66699 -10 -11l-118 -69l66 -70c5.33301 -5.33301 8 -9.33301 8 -12c0 -4.66699 -5 -8.33398 -15 -11.001l-103 90c-2 2 -3 4.66699 -3 8s2.33301 6.33301 7 9zM183 110.001l166 70.001
c1.33301 -5.33301 2 -10 2 -14s-3.33301 -7.66699 -10 -11l-118 -59l66 -70c5.33301 -5.33301 8 -9.33301 8 -12c0 -4.66699 -5 -8.33398 -15 -11.001l-103 90c-2 2 -3 4.66699 -3 8s2.33301 6.33301 7 9z" />
    <glyph glyph-name="logicalnot" unicode="&#xac;" horiz-adv-x="356" 
d="M283 315l-43.998 -125.001c-1.33301 -4.66699 -4 -7 -8 -7s-7.83301 1.83301 -11.5 5.5s-5.5 7.83398 -5.5 12.501c11.333 39.333 20.666 69.333 27.999 90c-68 -2.66699 -127.167 -4 -177.5 -4s-77.5 0.666992 -81.5 2s-6 4 -6 8c0 13.333 5 20.333 15 21h282
c1.33301 0.666992 3.16602 1 5.49902 1s3.5 -1.33301 3.5 -4z" />
    <glyph glyph-name="registered" unicode="&#xae;" horiz-adv-x="612" 
d="M236.5 223.5c42.333 26.333 82.001 39.498 119.001 39.498s55.5 -9.66699 55.5 -29c0 -16.667 -11.333 -36 -34 -58s-49.334 -40 -80.001 -54l61 114c0 4 -3.83301 6 -11.5 6s-12.834 -3.33301 -15.501 -10h1l-67 -121c-10 -3.33301 -19 -5.16602 -27 -5.49902
s-12 -3 -12 -8s4 -7.5 12 -7.5c2.66699 0 5.83398 0.5 9.50098 1.5s6.16699 1.5 7.5 1.5l-37 -68c0 -4.66699 2.66699 -7 8 -7c3.33301 0 7.33301 1.33301 12 4s7 5 7 7l39 71l3 1c22 0 40.167 -6.83301 54.5 -20.5s23.166 -27.167 26.499 -40.5l6 -20
c2 -8.66699 5.16699 -13 9.5 -13s6.5 3.33301 6.5 10c-0.666992 23.333 -7.16699 44.5 -19.5 63.5s-28.166 30.833 -47.499 35.5c32.667 17.333 60 38 82 62s33 44 33 60c0 31.333 -23.167 47 -69.5 47s-94.666 -17.5 -144.999 -52.5s-75.5 -63.5 -75.5 -85.5
c0 -14 9.5 -21 28.5 -21s41.333 7.5 67 22.5s41.334 26.5 47.001 34.5s8.5 13 8.5 15c0 5.33301 -2.33301 8 -7 8l-9 -5c-14.667 -15.333 -30.834 -27.666 -48.501 -36.999s-32.334 -14 -44.001 -14s-17.5 3.33301 -17.5 10c0 16 21.167 37.167 63.5 63.5zM361.001 357.998
c56.667 0 107.501 -15.834 152.501 -47.501s67.5 -76.667 67.5 -135s-30.833 -112.666 -92.5 -162.999s-132 -75.5 -211 -75.5s-136.833 15 -173.5 45s-55 68.667 -55 116c0 64 29.667 123.333 89 178s133.666 82 222.999 82zM357.002 337.997
c-80.667 0 -147.667 -24.666 -201 -73.999s-80 -103.333 -80 -162c0 -42 16.5 -76.5 49.5 -103.5s85 -40.5 156 -40.5s134.167 22.5 189.5 67.5s83 93.667 83 146s-19.833 93.166 -59.5 122.499s-85.5 44 -137.5 44z" />
    <glyph glyph-name="macron" unicode="&#xaf;" horiz-adv-x="376" 
d="M107 271l186 -2c4.66699 0 7 -1.33301 7 -4c0 -10 -3.66699 -15.333 -11 -16c-41.333 -2 -97 -3 -167 -3c-17.333 0 -26 3 -26 9c0 10 3.66699 15.333 11 16z" />
    <glyph glyph-name="degree" unicode="&#xb0;" horiz-adv-x="262" 
d="M82.5 513.5c-9.66699 10.333 -14.5 23.832 -14.5 40.499s9 37.334 27 62.001s41 37 69 37c16.667 0 30.167 -5.83301 40.5 -17.5s15.5 -27.167 15.5 -46.5s-10.833 -39.333 -32.5 -60s-42.167 -31 -61.5 -31s-33.833 5.16699 -43.5 15.5zM195 587.999
c0 26.667 -14.001 39.999 -42.001 39.999c-15.333 0 -29.166 -8 -41.499 -24s-18.5 -30.167 -18.5 -42.5s3.33301 -22.166 10 -29.499s17 -11 31 -11s27.667 7.16699 41 21.5s20 29.5 20 45.5z" />
    <glyph glyph-name="plusminus" unicode="&#xb1;" horiz-adv-x="356" 
d="M-47 187l282 2c6 0 9 -1.66699 9 -5c0 -14 -5 -21.333 -15 -22c-80 -4 -146.5 -6 -199.5 -6s-81.5 0.666992 -85.5 2s-6 4 -6 8c0 13.333 5 20.333 15 21zM149 317l-35 -101.001c-1.33301 -4.66699 -4 -7 -8 -7s-7.83301 1.83301 -11.5 5.5s-5.5 7.83398 -5.5 12.501
l10 35c5.33301 19.333 11 37.333 17 54h-95c-15.333 0 -25 0.666992 -29 2s-6 4 -6 8c0 13.333 5 20.333 15 21h126c4 12 8.5 24.333 13.5 37s10.333 27.167 16 43.5s11 24.5 16 24.5s9.33301 -2 13 -6s5.5 -8.33301 5.5 -13l-31 -85h126c4 0 6 -1.33301 6 -4
c0 -14 -5 -21.333 -15 -22c-34 -2 -76.667 -3.66699 -128 -5z" />
    <glyph glyph-name="twosuperior" unicode="&#xb2;" horiz-adv-x="371" 
d="M263 566c0 -12 -14.832 -25.1641 -44.499 -39.4971s-57.834 -21.5 -84.501 -21.5s-40 8 -40 24c0 23.333 21.833 49.666 65.5 78.999s90.167 44 139.5 44c18.667 0 34.667 -4 48 -12s20 -19.5 20 -34.5s-4.33301 -30.333 -13 -46s-18 -29.334 -28 -41.001
s-25 -25.334 -45 -41.001s-35.167 -27.167 -45.5 -34.5s-26.5 -18 -48.5 -32c-119.333 -76 -179 -123.667 -179 -143c0 -3.33301 0.833008 -5 2.5 -5s6.5 0.833008 14.5 2.5s18.5 3.66699 31.5 6s26.833 4.5 41.5 6.5c36.667 6 66.334 9 89.001 9s40.834 -2.5 54.501 -7.5
s20.5 -11.167 20.5 -18.5c0 -3.33301 -2.33301 -7 -7 -11s-8.33398 -6 -11.001 -6l-11 3c-22 7.33301 -49.667 11 -83 11c-57.333 0 -107.333 -5 -150 -15l-22 -5c-5.33301 -1.33301 -8.33301 -2 -9 -2c-6.66699 0 -10 3.33301 -10 10c0 12 15.333 31.5 46 58.5
s61 51.167 91 72.5l46 32c127.333 81.333 191 145.333 191 192c0 25.333 -15.667 38 -47 38s-65.333 -12.167 -102 -36.5s-55 -44.5 -55 -60.5c0 -9.33301 8.33301 -14 25 -14c39.333 0 71.666 14.333 96.999 43c2 2 4.5 3 7.5 3s4.5 -2.66699 4.5 -8z" />
    <glyph glyph-name="threesuperior" unicode="&#xb3;" horiz-adv-x="354" 
d="M349 605c0 -43.333 -52.3301 -83.334 -156.997 -120.001c-4 -1.33301 -6 -2.66602 -6 -3.99902s1.66699 -2 5 -2s7.16602 -0.333008 11.499 -1s12.166 -2.66699 23.499 -6s21.333 -7.5 30 -12.5s16.5 -12.833 23.5 -23.5s10.5 -23 10.5 -37
c0 -48.667 -24.5 -89.5 -73.5 -122.5s-98.5 -49.5 -148.5 -49.5c-40 0 -65.333 9 -76 27c-8.66699 14 -13 26 -13 36c2 23.333 11.667 42.666 29 57.999c26 21.333 50.667 32 74 32c6 0 9 -1.33301 9 -4s-1.66699 -5.66699 -5 -9
c-24.667 -5.33301 -44.334 -15.666 -59.001 -30.999s-22 -30.833 -22 -46.5s6 -28.334 18 -38.001s29.667 -14.5 53 -14.5c44 0 84.167 17.667 120.5 53s54.5 70.666 54.5 105.999c0 20.667 -8 37.334 -24 50.001s-40.333 19 -73 19h-20c-2.66699 0 -4 1 -4 3l6 14l6 3
c18.667 4.66699 38.334 10.5 59.001 17.5s44 22.5 70 46.5s39 44.333 39 61c0 19.333 -17.833 29 -53.5 29s-66.834 -8 -93.501 -24s-40 -32.667 -40 -50c0 -11.333 6.66699 -17 20 -17c22.667 0 48 8.66699 76 26h1c2 0 3 -1.66699 3 -5
c0 -9.33301 -11 -18.166 -33 -26.499s-41.333 -12.5 -58 -12.5c-27.333 0 -41 8.33301 -41 25c0 22 18.5 43.5 55.5 64.5s77.167 31.5 120.5 31.5c27.333 0 47.833 -4.66699 61.5 -14s20.5 -20 20.5 -32z" />
    <glyph glyph-name="acute" unicode="&#xb4;" horiz-adv-x="380" 
d="M165 236c-3.33301 1.33301 -5 3.33301 -5 6c0.666992 2.66699 3.66699 6.66699 9 12l79 65c2.66699 2.66699 6 4 10 4c9.33301 0 14 -4.66699 14 -14c0 -4.66699 -2 -9 -6 -13l-85 -54c-8 -4 -13.333 -6 -16 -6z" />
    <glyph glyph-name="mu" unicode="&#xb5;" horiz-adv-x="318" 
d="M125 10c0 7.33301 5.5 19.6699 16.5 37.0029s18.333 28.333 22 33l16.5 22c-79.333 -72 -134 -108 -164 -108c-4.66699 0 -8 0.333008 -10 1c-36.667 -56 -56.667 -87.333 -60 -94s-9.16602 -12.834 -17.499 -18.501s-15.833 -8.5 -22.5 -8.5s-10 1 -10 3
s4.33301 9.66699 13 23c35.333 52.667 65 99 89 139c11.333 24.667 42.666 73 93.999 145c3.33301 5.33301 7.66602 8 12.999 8c15.333 -4.66699 23 -8 23 -10s-2 -6 -6 -12c-57.333 -77.333 -86 -120.833 -86 -130.5s3.33301 -14.5 10 -14.5
c18.667 0 51.834 21.5 99.501 64.5s82.167 78.5 103.5 106.5c2.66699 4.66699 7 7 13 7c13.333 -2.66699 20 -5.33398 20 -8.00098l-30 -42l-31 -42.5l-25 -35.5c-16.667 -22.667 -26.667 -39.334 -30 -50.001c0 -6.66699 5.5 -10 16.5 -10s30.5 6.5 58.5 19.5
s52.667 26.167 74 39.5l32 20c0.666992 -1.33301 1 -4 1 -8s-3 -7.33301 -9 -10c-90 -61.333 -152.667 -92 -188 -92c-17.333 0 -26 8.66699 -26 26z" />
    <glyph glyph-name="paragraph" unicode="&#xb6;" horiz-adv-x="515" 
d="M382 472h42.001c1.33301 0 2 -0.666992 2 -2c0 -14 -123.667 -240.667 -371 -680c-2.66699 -5.33301 -6.83398 -10.833 -12.501 -16.5s-10.167 -8.5 -13.5 -8.5c-6 0 -9 3.33301 -9 10c0 4 1.33301 8.66699 4 14l283 510c-76 -43.333 -129.333 -65 -160 -65
s-46 10 -46 30c0 21.333 14.5 48.5 43.5 81.5s66 62.333 111 88s87.167 38.5 126.5 38.5zM293.501 118l186.501 335.5c6 11 12.833 16.5 20.5 16.5s11.5 -1.33301 11.5 -4v-1c6 0 -117.667 -225 -371 -675c-2.66699 -5.33301 -6.83398 -10.833 -12.501 -16.5
s-10.167 -8.5 -13.5 -8.5c-6 0 -9 3.33301 -9 10c0 4 1.66699 9 5 15z" />
    <glyph glyph-name="periodcentered" unicode="&#xb7;" horiz-adv-x="228" 
d="M137.5 114c-6.33301 -6.66699 -13.332 -10 -20.999 -10s-13.334 1.66699 -17.001 5s-5.66699 9 -6 17s3.16699 14.667 10.5 20s14.333 8 21 8c14.667 0 22 -6.33301 22 -19c0 -7.33301 -3.16699 -14.333 -9.5 -21z" />
    <glyph glyph-name="cedilla" unicode="&#xb8;" horiz-adv-x="243" 
d="M159 3l-18.001 -26.001c13.333 -3.33301 20 -11 20 -23c-1.33301 -18.667 -11.666 -32.667 -30.999 -42s-39 -14 -59 -14c-4.66699 0 -7 1.5 -7 4.5s1.33301 4.5 4 4.5c16 0 31.5 3.83301 46.5 11.5s22.833 17.834 23.5 30.501c0 12.667 -7.33301 19 -22 19l24 32
c2 3.33301 4.66699 5 8 5s7 -0.666992 11 -2z" />
    <glyph glyph-name="onesuperior" unicode="&#xb9;" horiz-adv-x="264" 
d="M313 626c-38.667 -47.333 -79.1641 -103.832 -121.497 -169.499s-74.833 -119.5 -97.5 -161.5l-35 -63c-4.66699 -8 -11.834 -12 -21.501 -12s-14.5 2.33301 -14.5 7c13.333 40 68 130.333 164 271l45 67l18 26c0 1.33301 -1 2 -3 2l-4 -1
c-36 -27.333 -83 -55.333 -141 -84l-27 -13c-4.66699 -2 -8.33398 -3 -11.001 -3s-3.66699 2 -3 6c1.33301 8.66699 7 16.667 17 24c74.667 28.667 143 67 205 115c5.33301 2.66699 12.166 4 20.499 4s12.5 -2.33301 12.5 -7c0 -2.66699 -1 -5.33398 -3 -8.00098z" />
    <glyph glyph-name="ordmasculine" unicode="&#xba;" horiz-adv-x="247" 
d="M244 422c-20.667 -12.667 -44.665 -19 -71.998 -19h-12c-18 -20.667 -37.167 -37.5 -57.5 -50.5s-37.833 -19.5 -52.5 -19.5c-20.667 0 -31 13.333 -31 40s14.333 57.667 43 93c-2.66699 7.33301 -4 16.333 -4 27c0 23.333 10.167 43.5 30.5 60.5
s40.166 25.5 59.499 25.5c40.667 0 61 -22 61 -66c0 -29.333 -12.667 -61.333 -38 -96c29.333 0 51.666 5 66.999 15c2 2 4.66699 3 8 3s5 -1.16699 5 -3.5s-2.33301 -5.5 -7 -9.5zM148.002 537c3.33301 1.33301 5.99902 1.99902 7.99902 1.99902s3 -1.5 3 -4.5
s-3.66699 -7.16699 -11 -12.5c-26.667 -20.667 -46.667 -39.334 -60 -56.001c14.667 -23.333 37 -38.666 67 -45.999c26 30.667 39 59.334 39 86.001c0 15.333 -5 27 -15 35s-22.833 12 -38.5 12s-30.167 -4.5 -43.5 -13.5s-20 -18.667 -20 -29s1 -18.5 3 -24.5
c20.667 21.333 43.334 38.333 68.001 51zM-39.999 288.999l235 1c5.33301 0 8 -1.33301 8 -4c0 -11.333 -4.33301 -17.333 -13 -18c-66.667 -3.33301 -137.667 -5 -213 -5c-19.333 0 -29 2.66699 -29 8c0 11.333 4 17.333 12 18zM74.001 443.999
c-10.667 -18 -16 -38 -16 -60c0 -12 5.33301 -18 16 -18c18 0 40.333 13.333 67 40c-30 5.33301 -52.333 18 -67 38z" />
    <glyph glyph-name="guillemotright" unicode="&#xbb;" horiz-adv-x="424" 
d="M345 84l-166 -80.001c-1.33301 5.33301 -2 10 -2 14s3.33301 7.66699 10 11l118 69l-66 70c-5.33301 5.33301 -8 9.33301 -8 12c0 4.66699 5 8.33398 15 11.001l103 -90c2 -2 3 -4.66699 3 -8s-2.33301 -6.33301 -7 -9zM233 93.999l-166 -70.001
c-1.33301 5.33301 -2 10 -2 14s3.33301 7.66699 10 11l118 59l-66 70c-5.33301 5.33301 -8 9.33301 -8 12c0 4.66699 5 8.33398 15 11.001l103 -90c2 -2 3 -4.66699 3 -8s-2.33301 -6.33301 -7 -9z" />
    <glyph glyph-name="onequarter" unicode="&#xbc;" horiz-adv-x="670" 
d="M313 626c-38.667 -47.333 -79.1641 -103.832 -121.497 -169.499s-74.833 -119.5 -97.5 -161.5l-35 -63c-4.66699 -8 -11.834 -12 -21.501 -12s-14.5 2.33301 -14.5 7c13.333 40 68 130.333 164 271l45 67l18 26c0 1.33301 -1 2 -3 2l-4 -1
c-36 -27.333 -83 -55.333 -141 -84l-27 -13c-4.66699 -2 -8.33398 -3 -11.001 -3s-3.66699 2 -3 6c1.33301 8.66699 7 16.667 17 24c74.667 28.667 143 67 205 115c5.33301 2.66699 12.166 4 20.499 4s12.5 -2.33301 12.5 -7c0 -2.66699 -1 -5.33398 -3 -8.00098z
M184.503 295.501l211.501 372.5c6 10.667 12.5 16 19.5 16s10.5 -1.5 10.5 -4.5s-140.667 -254.5 -422 -754.5c-2.66699 -5.33301 -6.83398 -10.833 -12.501 -16.5s-10.167 -8.5 -13.5 -8.5c-6 0 -9 3.33301 -9 10c0 4 2.16699 9.83301 6.5 17.5zM344.004 16.001
c-2.66699 -6.66699 -10.332 -10.001 -22.999 -10.001s-19 2.66699 -19 8l4 11c10 20 33.667 58 71 114h-7l-172 -6c-11.333 0 -17 3.66699 -17 11l3 12c58 62.667 135.167 126.5 231.5 191.5s156.5 97.5 180.5 97.5c13.333 0 20.333 -2.33301 21 -7v-1
c0 -8 -7.33301 -21.333 -22 -40c-58.667 -77.333 -114.334 -156.666 -167.001 -237.999c32 0.666992 67 3.66699 105 9h3c5.33301 0 8 -2.66699 8 -8c0 -10 -42.667 -17 -128 -21c-28 -42.667 -52 -83.667 -72 -123zM263.006 155c46 0 88.333 0.666016 127 1.99902l176 256
l3 5c0 1.33301 -1 2 -3 2l-7 -2c-14.667 -8 -33.667 -19.167 -57 -33.5s-63.333 -43.166 -120 -86.499s-103.667 -86 -141 -128c-2.66699 -4 -4 -7.5 -4 -10.5s2.33301 -4.5 7 -4.5h19z" />
    <glyph glyph-name="onehalf" unicode="&#xbd;" horiz-adv-x="616" 
d="M313 626c-38.667 -47.333 -79.1641 -103.832 -121.497 -169.499s-74.833 -119.5 -97.5 -161.5l-35 -63c-4.66699 -8 -11.834 -12 -21.501 -12s-14.5 2.33301 -14.5 7c13.333 40 68 130.333 164 271l45 67l18 26c0 1.33301 -1 2 -3 2l-4 -1
c-36 -27.333 -83 -55.333 -141 -84l-27 -13c-4.66699 -2 -8.33398 -3 -11.001 -3s-3.66699 2 -3 6c1.33301 8.66699 7 16.667 17 24c74.667 28.667 143 67 205 115c5.33301 2.66699 12.166 4 20.499 4s12.5 -2.33301 12.5 -7c0 -2.66699 -1 -5.33398 -3 -8.00098z
M452.003 338.001c0 -12 -14.832 -25.1641 -44.499 -39.4971s-57.834 -21.5 -84.501 -21.5s-40 8 -40 24c0 23.333 21.833 49.666 65.5 78.999s90.167 44 139.5 44c18.667 0 34.667 -4 48 -12s20 -19.5 20 -34.5s-4.33301 -30.333 -13 -46s-18 -29.334 -28 -41.001
s-25 -25.334 -45 -41.001s-35.167 -27.167 -45.5 -34.5s-26.5 -18 -48.5 -32c-119.333 -76 -179 -123.667 -179 -143c0 -3.33301 0.833008 -5 2.5 -5s6.5 0.833008 14.5 2.5s18.5 3.66699 31.5 6s27.167 4.5 42.5 6.5c36 6 65.333 9 88 9s40.834 -2.5 54.501 -7.5
s20.5 -11.167 20.5 -18.5c0 -3.33301 -2.33301 -7 -7 -11s-8.33398 -6 -11.001 -6l-11 3c-22 7.33301 -49.333 11 -82 11c-58 0 -108.667 -5 -152 -15l-21 -5c-5.33301 -1.33301 -8.33301 -2 -9 -2c-6.66699 0 -10 3.33301 -10 10c0 12 15.333 31.5 46 58.5
s61.334 51.167 92.001 72.5l45 32c127.333 81.333 191 145.333 191 192c0 25.333 -15.667 38 -47 38s-65.333 -12.167 -102 -36.5s-55 -44.5 -55 -60.5c0 -9.33301 8.33301 -14 25 -14c39.333 0 71.666 14.333 96.999 43c2 2 4.5 3 7.5 3s4.5 -2.66699 4.5 -8z
M184.504 295.504l211.501 372.5c6 10.667 12.5 16 19.5 16s10.5 -1.5 10.5 -4.5s-140.667 -254.5 -422 -754.5c-2.66699 -5.33301 -6.83398 -10.833 -12.501 -16.5s-10.167 -8.5 -13.5 -8.5c-6 0 -9 3.33301 -9 10c0 4 2.16699 9.83301 6.5 17.5z" />
    <glyph glyph-name="threequarters" unicode="&#xbe;" horiz-adv-x="772" 
d="M446 16c-2.66699 -6.66699 -10.332 -10.001 -22.999 -10.001s-19 2.66699 -19 8l4 11c10 20 33.667 58 71 114h-7l-172 -6c-11.333 0 -17 3.66699 -17 11l3 12c58 62.667 135.167 126.5 231.5 191.5s156.5 97.5 180.5 97.5c13.333 0 20.333 -2.33301 21 -7v-1
c0 -8 -7.33301 -21.333 -22 -40c-58.667 -77.333 -114.334 -156.666 -167.001 -237.999c32 0.666992 67 3.66699 105 9h3c5.33301 0 8 -2.66699 8 -8c0 -10 -42.667 -17 -128 -21c-28 -42.667 -52 -83.667 -72 -123zM349.002 604.999
c0 -43.333 -52.3301 -83.334 -156.997 -120.001c-4 -1.33301 -6 -2.66602 -6 -3.99902s1.66699 -2 5 -2s7.16602 -0.333008 11.499 -1s12.166 -2.66699 23.499 -6s21.333 -7.5 30 -12.5s16.5 -12.833 23.5 -23.5s10.5 -23 10.5 -37c0 -48.667 -24.5 -89.5 -73.5 -122.5
s-98.5 -49.5 -148.5 -49.5c-40 0 -65.333 9 -76 27c-8.66699 14 -13 26 -13 36c2 23.333 11.667 42.666 29 57.999c26 21.333 50.667 32 74 32c6 0 9 -1.33301 9 -4s-1.66699 -5.66699 -5 -9c-24.667 -5.33301 -44.334 -15.666 -59.001 -30.999s-22 -30.833 -22 -46.5
s6 -28.334 18 -38.001s29.667 -14.5 53 -14.5c44 0 84.167 17.667 120.5 53s54.5 70.666 54.5 105.999c0 20.667 -8 37.334 -24 50.001s-40.333 19 -73 19h-20c-2.66699 0 -4 1 -4 3l6 14l6 3c18.667 4.66699 38.334 10.5 59.001 17.5s44 22.5 70 46.5s39 44.333 39 61
c0 19.333 -17.833 29 -53.5 29s-66.834 -8 -93.501 -24s-40 -32.667 -40 -50c0 -11.333 6.66699 -17 20 -17c22.667 0 48 8.66699 76 26h1c2 0 3 -1.66699 3 -5c0 -9.33301 -11 -18.166 -33 -26.499s-41.333 -12.5 -58 -12.5c-27.333 0 -41 8.33301 -41 25
c0 22 18.5 43.5 55.5 64.5s77.167 31.5 120.5 31.5c27.333 0 47.833 -4.66699 61.5 -14s20.5 -20 20.5 -32zM365.005 154.998c46 0 88.333 0.666016 127 1.99902l176 256l3 5c0 1.33301 -1 2 -3 2l-7 -2c-14.667 -8 -33.667 -19.167 -57 -33.5s-63.333 -43.166 -120 -86.499
s-103.667 -86 -141 -128c-2.66699 -4 -4 -7.5 -4 -10.5s2.33301 -4.5 7 -4.5h19zM286.505 295.497l211.501 372.5c6 10.667 12.5 16 19.5 16s10.5 -1.5 10.5 -4.5s-140.667 -254.5 -422 -754.5c-2.66699 -5.33301 -6.83398 -10.833 -12.501 -16.5s-10.167 -8.5 -13.5 -8.5
c-6 0 -9 3.33301 -9 10c0 4 2.16699 9.83301 6.5 17.5z" />
    <glyph glyph-name="questiondown" unicode="&#xbf;" horiz-adv-x="327" 
d="M148 121c-12.667 -32.667 -34.8311 -65.502 -66.498 -98.502s-64.834 -62.5 -99.501 -88.5l-102 -76c-76.667 -56.667 -115 -104.667 -115 -144c0 -19.333 6.33301 -35.666 19 -48.999s28.667 -22.666 48 -27.999c34.667 -9.33301 62.667 -14 84 -14
c76 0 147.5 20.333 214.5 61s100.5 83.667 100.5 129c0 32.667 -24 49 -72 49c-34.667 0 -73.834 -8 -117.501 -24s-65.5 -30.333 -65.5 -43c0 -3.33301 1.66699 -5 5 -5l12 5c44 26.667 87.167 40 129.5 40s63.5 -13.667 63.5 -41c0 -30 -25.333 -62.333 -76 -97
s-109 -52 -175 -52c-16 0 -35 2.33301 -57 7c-43.333 8 -65 27.667 -65 59c0 24.667 12.333 51.5 37 80.5s54.5 56.667 89.5 83l105.5 79.5c84.667 62.667 127 114.334 127 155.001c0 11.333 -3.33301 19.666 -10 24.999c-6 -0.666992 -10.667 -5 -14 -13zM228.503 259.998
c-6.33301 -6.66699 -13.332 -10 -20.999 -10s-13.334 1.66699 -17.001 5s-5.66699 9 -6 17s3.16699 14.667 10.5 20s14.333 8 21 8c14.667 0 22 -6.33301 22 -19c0 -7.33301 -3.16699 -14.333 -9.5 -21z" />
    <glyph glyph-name="Agrave" unicode="&#xc0;" horiz-adv-x="515" 
d="M-41 -68c-15.333 0 -25.6631 5.00195 -30.9961 15.002c-2 3.33301 -3 6 -3 8s0.666992 3.66699 2 5c60.667 44.667 132.667 114.667 216 210c-41.333 22.667 -73.333 49.834 -96 81.501s-34 61 -34 88s8.33301 48.167 25 63.5s41 23 73 23
c60.667 0 112.334 -35 155.001 -105l89.5 114l89.5 113.5l69 81.5c50.667 56 89 84 115 84c20 -0.666992 30 -11.334 30 -32.001c0 -22 -7.5 -52.167 -22.5 -90.5l-36 -91c-9 -22.333 -22.333 -52 -40 -89l-41.5 -88l-46 -96l-43 -88.5c51.333 3.33301 92 12.333 122 27
c5.33301 2.66699 8.66602 5.66699 9.99902 9s3.16602 5 5.49902 5s4.66602 -1.33301 6.99902 -4s3.5 -5.33398 3.5 -8.00098c0 -22.667 -52 -38.334 -156 -47.001c-26 -54 -44 -93 -54 -117c-2.66699 -5.33301 -6.66699 -8 -12 -8c-14 0 -21 13.333 -21 40
c-2.66699 20.667 -7.33398 49 -14.001 85c-52.667 4 -102 15.667 -148 35v-1c-28.667 -35.333 -60.834 -71.5 -96.501 -108.5s-64.167 -65.167 -85.5 -84.5zM393.003 138.002c152.667 317.333 228.999 494.333 228.999 531c0 11.333 -4 17 -12 17
c-12 0 -28.833 -12 -50.5 -36l-52.5 -60l-53 -66.5l-54.5 -70.5l-60.5 -80.5l-58 -77.5c20.667 -38.667 39.334 -89.667 56.001 -153c16 -2.66699 34.667 -4 56 -4zM255.002 306.002c-39.333 68 -86 102 -140 102c-24 0 -42 -5 -54 -15s-18 -24.833 -18 -44.5
s11.167 -44 33.5 -73s52.5 -54.5 90.5 -76.5zM269.002 279.002l-74 -95.999c39.333 -18.667 79.333 -31.334 120 -38.001c-14 56 -29.333 100.667 -46 134zM694.002 737.003c-2.66699 0 -7.99902 2 -15.999 6l-85 54c-4 4 -6 8.33301 -6 13c0 9.33301 4.66699 14 14 14
c4 0 7.33301 -1.33301 10 -4l79 -65c9.33301 -9.33301 10.666 -15.333 3.99902 -18zM384.003 119.003h-42l12 -63z" />
    <glyph glyph-name="Aacute" unicode="&#xc1;" horiz-adv-x="515" 
d="M-41 -68c78 69.333 149.333 143.666 214 222.999v1c46 -19.333 95.333 -31 148 -35c6.66699 -36 11.334 -64.333 14.001 -85c0 -26.667 7 -40 21 -40c5.33301 0 9.33301 2.66699 12 8c10 24 28 63 54 117c104 8.66699 156 24.334 156 47.001
c0 2.66699 -1.16699 5.33398 -3.5 8.00098s-4.66602 4 -6.99902 4s-3.83301 -0.666992 -4.5 -2c-2 -5.33301 -5.66699 -9.33301 -11 -12c-30 -14.667 -70.667 -23.667 -122 -27l43 88.5l46 96l41.5 88c17.667 37 31 66.667 40 89l29.5 73.5c19.333 50 29 85.667 29 107
s-10 32.333 -30 33c-26 0 -64.333 -28 -115 -84c-39.333 -44.667 -85.833 -101.5 -139.5 -170.5l-108.5 -138.5c-42.667 70 -94.334 105 -155.001 105c-32 0 -56.333 -7.66699 -73 -23s-25 -36.5 -25 -63.5s11.333 -56.333 34 -88s54.667 -58.834 96 -81.501
c-83.333 -95.333 -155.333 -165.333 -216 -210c-1.33301 -1.33301 -2 -3 -2 -5s1 -4.66699 3 -8c5.33301 -10 15.666 -15 30.999 -15zM393 138c-21.333 0 -39.998 1.33301 -55.998 4c-16.667 63.333 -35.334 114.333 -56.001 153l58 77.5l60.5 80.5l54.5 70.5l53 66.5
c13.333 16 27.666 32.333 42.999 49c28 31.333 48 47 60 47c8 0 12 -5.66699 12 -17c0 -36.667 -76.333 -213.667 -229 -531zM255.002 306l-88 -107c-38 22 -68.167 47.5 -90.5 76.5s-33.5 53.167 -33.5 72.5c0 40 25.5 60 76.5 60s96.167 -34 135.5 -102zM269.002 279
c16.667 -33.333 32 -78.001 46 -134.001c-40.667 6.66699 -80.667 19.334 -120 38.001zM657.002 739.999c-3.33301 1.33301 -5 3.33301 -5 6c0.666992 2.66699 3.66699 6.66699 9 12l79 65c2.66699 2.66699 6 4 10 4c9.33301 0 14 -4.66699 14 -14c0 -4.66699 -2 -9 -6 -13
l-85 -54c-8 -4 -13.333 -6 -16 -6zM384.002 118.999l-30 -63c-2 17.333 -6 38.333 -12 63h42z" />
    <glyph glyph-name="Acircumflex" unicode="&#xc2;" horiz-adv-x="515" 
d="M-41 -68c-15.333 0 -25.6631 5.00195 -30.9961 15.002c-2 3.33301 -3 6 -3 8s0.666992 3.66699 2 5c60.667 44.667 132.667 114.667 216 210c-41.333 22.667 -73.333 49.834 -96 81.501s-34 61 -34 88s8.33301 48.167 25 63.5s41 23 73 23
c60.667 0 112.334 -35 155.001 -105l89.5 114l89.5 113.5l69 81.5c50.667 56 89 84 115 84c20 -0.666992 30 -11.334 30 -32.001c0 -22 -7.5 -52.167 -22.5 -90.5l-36 -91c-9 -22.333 -22.333 -52 -40 -89l-41.5 -88l-46 -96l-43 -88.5c51.333 3.33301 92 12.333 122 27
c5.33301 2.66699 8.66602 5.66699 9.99902 9s3.16602 5 5.49902 5s4.66602 -1.33301 6.99902 -4s3.5 -5.33398 3.5 -8.00098c0 -22.667 -52 -38.334 -156 -47.001c-26 -54 -44 -93 -54 -117c-2.66699 -5.33301 -6.66699 -8 -12 -8c-14 0 -21 13.333 -21 40
c-2.66699 20.667 -7.33398 49 -14.001 85c-52.667 4 -102 15.667 -148 35v-1c-28.667 -35.333 -60.834 -71.5 -96.501 -108.5s-64.167 -65.167 -85.5 -84.5zM393.003 138.002c152.667 317.333 228.999 494.333 228.999 531c0 11.333 -4 17 -12 17
c-12 0 -28.833 -12 -50.5 -36l-52.5 -60l-53 -66.5l-54.5 -70.5l-60.5 -80.5l-58 -77.5c20.667 -38.667 39.334 -89.667 56.001 -153c16 -2.66699 34.667 -4 56 -4zM255.002 306.002c-39.333 68 -86 102 -140 102c-24 0 -42 -5 -54 -15s-18 -24.833 -18 -44.5
s11.167 -44 33.5 -73s52.5 -54.5 90.5 -76.5zM269.002 279.002l-74 -95.999c39.333 -18.667 79.333 -31.334 120 -38.001c-14 56 -29.333 100.667 -46 134zM668.002 790.003c-74.667 -36.667 -115 -55 -121 -55s-9 1.5 -9 4.5s22.333 17.833 67 44.5s69.667 40 75 40
s13.5 -14 24.5 -42s17.833 -45 20.5 -51c-2 -4 -4.66699 -6 -8 -6c-5.33301 0 -18.333 16.333 -39 49zM384.002 119.003h-42l12 -63z" />
    <glyph glyph-name="Atilde" unicode="&#xc3;" horiz-adv-x="515" 
d="M-41 -68c78 69.333 149.333 143.666 214 222.999v1c46 -19.333 95.333 -31 148 -35c6.66699 -36 11.334 -64.333 14.001 -85c0 -26.667 7 -40 21 -40c5.33301 0 9.33301 2.66699 12 8c10 24 28 63 54 117c104 8.66699 156 24.334 156 47.001
c0 2.66699 -1.16699 5.33398 -3.5 8.00098s-4.66602 4 -6.99902 4s-3.83301 -0.666992 -4.5 -2c-2 -5.33301 -5.66699 -9.33301 -11 -12c-30 -14.667 -70.667 -23.667 -122 -27l43 88.5l46 96l41.5 88c17.667 37 31 66.667 40 89l29.5 73.5c19.333 50 29 85.667 29 107
s-10 32.333 -30 33c-26 0 -64.333 -28 -115 -84c-39.333 -44.667 -85.833 -101.5 -139.5 -170.5l-108.5 -138.5c-42.667 70 -94.334 105 -155.001 105c-32 0 -56.333 -7.66699 -73 -23s-25 -36.5 -25 -63.5s11.333 -56.333 34 -88s54.667 -58.834 96 -81.501
c-83.333 -95.333 -155.333 -165.333 -216 -210c-1.33301 -1.33301 -2 -3 -2 -5s1 -4.66699 3 -8c5.33301 -10 15.666 -15 30.999 -15zM393 138c-21.333 0 -39.998 1.33301 -55.998 4c-16.667 63.333 -35.334 114.333 -56.001 153l58 77.5l60.5 80.5l54.5 70.5l53 66.5
c13.333 16 27.666 32.333 42.999 49c28 31.333 48 47 60 47c8 0 12 -5.66699 12 -17c0 -36.667 -76.333 -213.667 -229 -531zM255.002 306l-88 -107c-38 22 -68.167 47.5 -90.5 76.5s-33.5 53.167 -33.5 72.5c0 40 25.5 60 76.5 60s96.167 -34 135.5 -102zM269.002 279
c16.667 -33.333 32 -78.001 46 -134.001c-40.667 6.66699 -80.667 19.334 -120 38.001zM762.002 795.999c0 -10 -5.16895 -18.667 -15.502 -26s-21.833 -11 -34.5 -11s-29.667 6.16699 -51 18.5s-36.166 18.5 -44.499 18.5s-16.833 -3.16699 -25.5 -9.5
s-14.667 -9.5 -18 -9.5l-2 1c0 4.66699 6.16699 12.667 18.5 24s24.833 17 37.5 17s30.334 -6.83301 53.001 -20.5s38.167 -20.5 46.5 -20.5s15.833 3.5 22.5 10.5s10.5 10.5 11.5 10.5s1.5 -1 1.5 -3zM384 118.999l-30 -63c-2 17.333 -6 38.333 -12 63h42z" />
    <glyph glyph-name="Adieresis" unicode="&#xc4;" horiz-adv-x="515" 
d="M-41 -68c-15.333 0 -25.6631 5.00195 -30.9961 15.002c-2 3.33301 -3 6 -3 8s0.666992 3.66699 2 5c60.667 44.667 132.667 114.667 216 210c-41.333 22.667 -73.333 49.834 -96 81.501s-34 61 -34 88s8.33301 48.167 25 63.5s41 23 73 23
c60.667 0 112.334 -35 155.001 -105l89.5 114l89.5 113.5l69 81.5c50.667 56 89 84 115 84c20 -0.666992 30 -11.334 30 -32.001c0 -22 -7.5 -52.167 -22.5 -90.5l-36 -91c-9 -22.333 -22.333 -52 -40 -89l-41.5 -88l-46 -96l-43 -88.5c51.333 3.33301 92 12.333 122 27
c5.33301 2.66699 8.66602 5.66699 9.99902 9s3.16602 5 5.49902 5s4.66602 -1.33301 6.99902 -4s3.5 -5.33398 3.5 -8.00098c0 -22.667 -52 -38.334 -156 -47.001c-26 -54 -44 -93 -54 -117c-2.66699 -5.33301 -6.66699 -8 -12 -8c-14 0 -21 13.333 -21 40
c-2.66699 20.667 -7.33398 49 -14.001 85c-52.667 4 -102 15.667 -148 35v-1c-28.667 -35.333 -60.834 -71.5 -96.501 -108.5s-64.167 -65.167 -85.5 -84.5zM393.003 138.002c152.667 317.333 228.999 494.333 228.999 531c0 11.333 -4 17 -12 17
c-12 0 -28.833 -12 -50.5 -36l-52.5 -60l-53 -66.5l-54.5 -70.5l-60.5 -80.5l-58 -77.5c20.667 -38.667 39.334 -89.667 56.001 -153c16 -2.66699 34.667 -4 56 -4zM255.002 306.002c-39.333 68 -86 102 -140 102c-24 0 -42 -5 -54 -15s-18 -24.833 -18 -44.5
s11.167 -44 33.5 -73s52.5 -54.5 90.5 -76.5zM269.002 279.002l-74 -95.999c39.333 -18.667 79.333 -31.334 120 -38.001c-14 56 -29.333 100.667 -46 134zM716.002 811.003c10 0 14.999 -5 14.999 -15s-4.66699 -20.167 -14 -30.5s-19.666 -15.5 -30.999 -15.5
c-9.33301 0 -14 6.5 -14 19.5s5.33301 23.167 16 30.5s20 11 28 11zM611.001 821.003c10 0 14.999 -5 14.999 -15s-4.66699 -20.167 -14 -30.5s-19.666 -15.5 -30.999 -15.5c-9.33301 0 -14 6.5 -14 19.5s5.33301 23.167 16 30.5s20 11 28 11zM384 119.003h-42l12 -63z" />
    <glyph glyph-name="Aring" unicode="&#xc5;" horiz-adv-x="515" 
d="M-41 -68c78 69.333 149.333 143.666 214 222.999v1c46 -19.333 95.333 -31 148 -35c6.66699 -36 11.334 -64.333 14.001 -85c0 -26.667 7 -40 21 -40c5.33301 0 9.33301 2.66699 12 8c10 24 28 63 54 117c104 8.66699 156 24.334 156 47.001
c0 2.66699 -1.16699 5.33398 -3.5 8.00098s-4.66602 4 -6.99902 4s-3.83301 -0.666992 -4.5 -2c-2 -5.33301 -5.66699 -9.33301 -11 -12c-30 -14.667 -70.667 -23.667 -122 -27l43 88.5l46 96l41.5 88c17.667 37 31 66.667 40 89l29.5 73.5c19.333 50 29 85.667 29 107
s-10 32.333 -30 33c-26 0 -64.333 -28 -115 -84c-39.333 -44.667 -85.833 -101.5 -139.5 -170.5l-108.5 -138.5c-42.667 70 -94.334 105 -155.001 105c-32 0 -56.333 -7.66699 -73 -23s-25 -36.5 -25 -63.5s11.333 -56.333 34 -88s54.667 -58.834 96 -81.501
c-83.333 -95.333 -155.333 -165.333 -216 -210c-1.33301 -1.33301 -2 -3 -2 -5s1 -4.66699 3 -8c5.33301 -10 15.666 -15 30.999 -15zM393 138c-21.333 0 -39.998 1.33301 -55.998 4c-16.667 63.333 -35.334 114.333 -56.001 153l58 77.5l60.5 80.5l54.5 70.5l53 66.5
c13.333 16 27.666 32.333 42.999 49c28 31.333 48 47 60 47c8 0 12 -5.66699 12 -17c0 -36.667 -76.333 -213.667 -229 -531zM255.002 306l-88 -107c-38 22 -68.167 47.5 -90.5 76.5s-33.5 53.167 -33.5 72.5c0 40 25.5 60 76.5 60s96.167 -34 135.5 -102zM269.002 279
c16.667 -33.333 32 -78.001 46 -134.001c-40.667 6.66699 -80.667 19.334 -120 38.001zM640.502 741.999c-5.66699 6 -8.5 13.833 -8.5 23.5s5 21.5 15 35.5s21.667 21 35 21c24.667 0 37 -11.333 37 -34c0 -12.667 -6.16699 -25 -18.5 -37s-24 -18 -35 -18s-19.333 3 -25 9
zM683.002 802.999c-9.33301 0 -17 -3.83301 -23 -11.5s-9 -14.5 -9 -20.5s1.66699 -10.833 5 -14.5s8.33301 -5.5 15 -5.5s13.167 3.5 19.5 10.5s9.5 14.5 9.5 22.5c0 12.667 -5.66699 19 -17 19zM384.002 118.999l-30 -63c-2 17.333 -6 38.333 -12 63h42z" />
    <glyph glyph-name="AE" unicode="&#xc6;" horiz-adv-x="905" 
d="M883 495c-18 0 -27 5.33105 -27 15.998c0 17.333 19.333 41.5 58 72.5s82 55.833 130 74.5v7c0 30.667 -20.5 46 -61.5 46s-91.667 -17.833 -152 -53.5s-113.166 -77.667 -158.499 -126s-68 -89.166 -68 -122.499c0 -42 38.667 -63 116 -63
c45.333 0 84.333 10.667 117 32c2 2.66699 4.33301 4 7 4c4.66699 0 7 -3.5 7 -10.5s-2.33301 -11.5 -7 -13.5c-83.333 -38 -152 -81.333 -206 -130c-24 -20.667 -45.5 -46.5 -64.5 -77.5s-28.5 -59.667 -28.5 -86s6.83301 -48 20.5 -65s39.167 -25.5 76.5 -25.5
c12.667 0.666992 27 2.66699 43 6s43 14.666 81 33.999s74.333 45 109 77c5.33301 6.66699 9.66602 10 12.999 10c4 -0.666992 6 -3.33398 6 -8.00098c0 -11.333 -15.667 -28.666 -47 -51.999s-70.5 -45 -117.5 -65s-88.167 -30 -123.5 -30
c-50.667 0 -85.334 17.333 -104.001 52c-7.33301 14 -11 32.167 -11 54.5s10.333 50.166 31 83.499c-27.333 -6.66699 -60.666 -11.667 -99.999 -15c-26 -54 -44 -93 -54 -117c-2.66699 -5.33301 -6.66699 -8 -12 -8c-14 0 -21 13.333 -21 40
c-2.66699 22 -7.33398 50 -14.001 84c-54 4.66699 -103 16.667 -147 36l-1 -1c-28.667 -35.333 -60.834 -71.5 -96.501 -108.5s-64.167 -65.167 -85.5 -84.5l-32 -30c-15.333 0 -25.666 5 -30.999 15c-2 3.33301 -3 6 -3 8s0.666992 3.66699 2 5c64 48 136 118.333 216 211
c-41.333 22.667 -73.333 49.834 -96 81.501s-34 60.834 -34 87.501s8.33301 47.667 25 63s41 23 73 23c60.667 0 112.334 -35 155.001 -105l89.5 114l89.5 113.5l69 81.5c50.667 56 89 84 115 84c20 -0.666992 30 -11.334 30 -32.001c0 -30 -21 -93.333 -63 -190
c44 59.333 106.5 114.833 187.5 166.5s149.667 77.5 206 77.5s84.5 -19.667 84.5 -59v-8c31.333 9.33301 53.833 14 67.5 14s22.5 -0.5 26.5 -1.5s6 -5.16699 6 -12.5s-2.66699 -11.666 -8 -12.999c-30.667 0 -64 -5.66699 -100 -17
c-14.667 -35.333 -40.5 -68.166 -77.5 -98.499s-72.167 -45.5 -105.5 -45.5zM393 137.998c152.667 317.333 228.999 494.333 228.999 531c0 11.333 -4 17 -12 17c-12 0 -28.833 -12 -50.5 -36l-52.5 -60l-53 -66.5l-54.5 -70.5l-60.5 -80.5l-58 -77.5
c20.667 -38.667 39.334 -89.667 56.001 -153c16 -2.66699 34.667 -4 56 -4zM429.999 138.998c42.667 2 78.667 8.99902 108 20.999c52 68.667 128 126.334 228 173.001c-31.333 -6.66699 -60.333 -10 -87 -10c-84 0 -126 24.667 -126 74zM254.999 305.997
c-39.333 68 -84.5 102 -135.5 102s-76.5 -18 -76.5 -54c0 -23.333 11.167 -49.5 33.5 -78.5s52.5 -54.5 90.5 -76.5zM268.999 278.997l-73.001 -95.999c38.667 -18.667 78.334 -31.334 119.001 -38.001c-14 56 -29.333 100.667 -46 134zM904.998 513.998
c20.667 0 44.5 12.168 71.5 36.501s46.5 50.166 58.5 77.499c-38.667 -15.333 -72.667 -33.833 -102 -55.5s-44 -38.167 -44 -49.5c0 -6 5.33301 -9 16 -9zM383.998 118.999h-42l12 -63z" />
    <glyph glyph-name="Ccedilla" unicode="&#xc7;" horiz-adv-x="459" 
d="M449 108c5.33301 0 8.00098 -3.99805 8.00098 -11.998c0 -10 -15.5 -25.333 -46.5 -46s-71 -39.834 -120 -57.501s-93.833 -26.5 -134.5 -26.5c-16 0 -29.667 1.33301 -41 4l-10 -15c13.333 -3.33301 20 -11 20 -23c-1.33301 -18.667 -11.666 -32.667 -30.999 -42
s-39 -14 -59 -14c-4.66699 0 -7 1.5 -7 4.5s1.33301 4.5 4 4.5c16 0 31.5 3.83301 46.5 11.5s22.833 17.834 23.5 30.501c0 12.667 -7.33301 19 -22 19c0.666992 2.66699 7.33398 12 20.001 28c-66.667 19.333 -100 74.333 -100 165c0 58.667 13.167 117.667 39.5 177
s60.333 112.166 102 158.499s87 87.833 136 124.5s97.667 64.834 146 84.501s90.833 29.5 127.5 29.5c76 0 114 -29.333 114 -88c0 -44 -20.333 -96.333 -61 -157s-90.334 -113.334 -149.001 -158.001s-111.334 -67 -158.001 -67c-36 0 -54 17 -54 51
c0 43.333 28.167 96.833 84.5 160.5s104.5 95.5 144.5 95.5c5.33301 0 8 -2 8 -6l-5 -13c-24 0 -52.333 -13.667 -85 -41s-60.334 -59 -83.001 -95s-34 -66 -34 -90c0 -26.667 13.667 -40 41 -40c34 0 75.833 20.667 125.5 62s92.667 90.166 129 146.499
s54.5 103.833 54.5 142.5c0 48.667 -30.667 73 -92 73c-32 0 -69.667 -9.16699 -113 -27.5s-87 -44.833 -131 -79.5s-84.833 -73.667 -122.5 -117s-68.334 -92.833 -92.001 -148.5s-35.5 -111.167 -35.5 -166.5c0 -105.333 46.667 -158 140 -158
c48.667 0 101.334 13.167 158.001 39.5s94.667 51.833 114 76.5z" />
    <glyph glyph-name="Egrave" unicode="&#xc8;" horiz-adv-x="400" 
d="M378 495c-18 0 -27 5.33008 -27 15.9971c0 16.667 19.5 40.834 58.5 72.501s82.167 56.834 129.5 75.501c0.666992 1.33301 1 3.66602 1 6.99902c0 30 -20.667 45 -62 45s-92.166 -17.833 -152.499 -53.5s-113.166 -77.667 -158.499 -126s-68 -89.166 -68 -122.499
c0 -42 38.667 -63 116 -63c45.333 0 84.333 10.667 117 32c2 2.66699 4.33301 4 7 4c4.66699 0 7 -3.5 7 -10.5s-2.33301 -11.5 -7 -13.5c-83.333 -38 -152.333 -81.333 -207 -130c-23.333 -20.667 -44.5 -46.5 -63.5 -77.5s-28.5 -59.667 -28.5 -86s6.83301 -48 20.5 -65
s39.167 -25.5 76.5 -25.5c12.667 0.666992 27 2.66699 43 6s43 14.666 81 33.999s74.333 45 109 77c5.33301 6.66699 9.66602 10 12.999 10c4 -0.666992 6 -3.33398 6 -8.00098c0 -11.333 -15.667 -28.666 -47 -51.999s-70.5 -45 -117.5 -65s-88.167 -30 -123.5 -30
c-50.667 0 -85.334 17.333 -104.001 52c-7.33301 14 -11 30 -11 48c0 44 25.5 93.5 76.5 148.5s117.167 101.167 198.5 138.5c-31.333 -6.66699 -60.333 -10 -87 -10c-84 0 -126 23.333 -126 70c0 28.667 15.667 63.167 47 103.5s69.166 77.833 113.499 112.5
s92.333 64.5 144 89.5s95.834 37.5 132.501 37.5c56.667 0 85 -19.333 85 -58c0 -4 -0.333008 -7 -1 -9c29.333 9.33301 51.333 14 66 14s24 -0.5 28 -1.5s6 -5.16699 6 -12.5s-2.66699 -11.666 -8 -12.999c-30.667 0 -64 -5.66699 -100 -17
c-14.667 -35.333 -40.5 -68.166 -77.5 -98.499s-72.167 -45.5 -105.5 -45.5zM384 522.997c0 -6 5.33301 -8.99805 16 -8.99805c20 0 43.667 12.167 71 36.5s47 50.166 59 77.499c-38.667 -16 -72.667 -34.833 -102 -56.5s-44 -37.834 -44 -48.501zM589 769.999
c-2.66699 0 -7.99902 2 -15.999 6l-85 54c-4 4 -6 8.33301 -6 13c0 9.33301 4.66699 14 14 14c4 0 7.33301 -1.33301 10 -4l79 -65c9.33301 -9.33301 10.666 -15.333 3.99902 -18z" />
    <glyph glyph-name="Eacute" unicode="&#xc9;" horiz-adv-x="400" 
d="M378 495c33.333 0 68.5029 15.1699 105.503 45.5029s62.833 63.166 77.5 98.499c36 11.333 69.333 17 100 17c5.33301 1.33301 8 5.66602 8 12.999s-2 11.5 -6 12.5s-13.333 1.5 -28 1.5s-36.667 -4.66699 -66 -14c0.666992 2 1 5 1 9c0 38.667 -28.333 58 -85 58
c-36.667 0 -80.834 -12.5 -132.501 -37.5s-99.667 -54.833 -144 -89.5s-82.166 -72.167 -113.499 -112.5s-47 -74.833 -47 -103.5c0 -46.667 42 -70 126 -70c23.333 0 48 2.33301 74 7l13 3c-81.333 -37.333 -147.5 -83.5 -198.5 -138.5s-76.5 -104.5 -76.5 -148.5
c0 -18 3.66699 -33.833 11 -47.5s15.5 -23.667 24.5 -30s19.833 -11.166 32.5 -14.499c17.333 -5.33301 33 -8 47 -8c35.333 0 76.5 10 123.5 30s86.167 41.667 117.5 65s47 40.666 47 51.999c0 4.66699 -1.33301 7 -4 7c-4.66699 0.666992 -9.66699 -2.33301 -15 -9
c-34.667 -32 -71 -57.667 -109 -77s-65 -30.666 -81 -33.999s-30.333 -5.33301 -43 -6c-37.333 0 -62.833 8.5 -76.5 25.5s-20.5 38.667 -20.5 65s9.5 55 28.5 86s40.333 57 64 78s52.167 42.167 85.5 63.5c41.333 26 81.666 48 120.999 66c4.66699 2 7 6.5 7 13.5
s-2.33301 10.5 -7 10.5l-7 -4c-32.667 -21.333 -71.667 -32 -117 -32c-77.333 0 -116 21 -116 63c0 33.333 22.667 74.166 68 122.499s98.166 90.333 158.499 126s111.166 53.5 152.499 53.5s62 -15 62 -45c0 -3.33301 -0.333008 -5.66602 -1 -6.99902
c-47.333 -18.667 -90.5 -43.834 -129.5 -75.501s-58.5 -55.834 -58.5 -72.501c0 -10.667 9 -16 27 -16zM384.003 523.003c0 10.667 14.667 26.832 44 48.499s63.333 40.5 102 56.5c-12 -27.333 -31.667 -53.166 -59 -77.499s-51 -36.5 -71 -36.5c-10.667 0 -16 3 -16 9z
M508.003 779.001c-3.33301 1.33301 -5 3.33301 -5 6c0.666992 2.66699 3.66699 6.66699 9 12l79 65c2.66699 2.66699 6 4 10 4c9.33301 0 14 -4.66699 14 -14c0 -4.66699 -2 -9 -6 -13l-85 -54c-8 -4 -13.333 -6 -16 -6z" />
    <glyph glyph-name="Ecircumflex" unicode="&#xca;" horiz-adv-x="400" 
d="M378 495c-18 0 -27 5.33008 -27 15.9971c0 16.667 19.5 40.834 58.5 72.501s82.167 56.834 129.5 75.501c0.666992 1.33301 1 3.66602 1 6.99902c0 30 -20.667 45 -62 45s-92.166 -17.833 -152.499 -53.5s-113.166 -77.667 -158.499 -126s-68 -89.166 -68 -122.499
c0 -42 38.667 -63 116 -63c45.333 0 84.333 10.667 117 32c2 2.66699 4.33301 4 7 4c4.66699 0 7 -3.5 7 -10.5s-2.33301 -11.5 -7 -13.5c-83.333 -38 -152.333 -81.333 -207 -130c-23.333 -20.667 -44.5 -46.5 -63.5 -77.5s-28.5 -59.667 -28.5 -86s6.83301 -48 20.5 -65
s39.167 -25.5 76.5 -25.5c12.667 0.666992 27 2.66699 43 6s43 14.666 81 33.999s74.333 45 109 77c5.33301 6.66699 9.66602 10 12.999 10c4 -0.666992 6 -3.33398 6 -8.00098c0 -11.333 -15.667 -28.666 -47 -51.999s-70.5 -45 -117.5 -65s-88.167 -30 -123.5 -30
c-50.667 0 -85.334 17.333 -104.001 52c-7.33301 14 -11 30 -11 48c0 44 25.5 93.5 76.5 148.5s117.167 101.167 198.5 138.5c-31.333 -6.66699 -60.333 -10 -87 -10c-84 0 -126 23.333 -126 70c0 28.667 15.667 63.167 47 103.5s69.166 77.833 113.499 112.5
s92.333 64.5 144 89.5s95.834 37.5 132.501 37.5c56.667 0 85 -19.333 85 -58c0 -4 -0.333008 -7 -1 -9c29.333 9.33301 51.333 14 66 14s24 -0.5 28 -1.5s6 -5.16699 6 -12.5s-2.66699 -11.666 -8 -12.999c-30.667 0 -64 -5.66699 -100 -17
c-14.667 -35.333 -40.5 -68.166 -77.5 -98.499s-72.167 -45.5 -105.5 -45.5zM384 522.997c0 -6 5.33301 -8.99805 16 -8.99805c20 0 43.667 12.167 71 36.5s47 50.166 59 77.499c-38.667 -16 -72.667 -34.833 -102 -56.5s-44 -37.834 -44 -48.501zM500 819.999
c-74.667 -36.667 -115 -55 -121 -55s-9 1.5 -9 4.5s22.333 17.833 67 44.5s69.667 40 75 40s13.5 -14 24.5 -42s17.833 -45 20.5 -51c-2 -4 -4.66699 -6 -8 -6c-5.33301 0 -18.333 16.333 -39 49z" />
    <glyph glyph-name="Edieresis" unicode="&#xcb;" horiz-adv-x="400" 
d="M378 495c-18 0 -27 5.33008 -27 15.9971c0 16.667 19.5 40.834 58.5 72.501s82.167 56.834 129.5 75.501c0.666992 1.33301 1 3.66602 1 6.99902c0 30 -20.667 45 -62 45s-92.166 -17.833 -152.499 -53.5s-113.166 -77.667 -158.499 -126s-68 -89.166 -68 -122.499
c0 -42 38.667 -63 116 -63c45.333 0 84.333 10.667 117 32c2 2.66699 4.33301 4 7 4c4.66699 0 7 -3.5 7 -10.5s-2.33301 -11.5 -7 -13.5c-83.333 -38 -152.333 -81.333 -207 -130c-23.333 -20.667 -44.5 -46.5 -63.5 -77.5s-28.5 -59.667 -28.5 -86s6.83301 -48 20.5 -65
s39.167 -25.5 76.5 -25.5c12.667 0.666992 27 2.66699 43 6s43 14.666 81 33.999s74.333 45 109 77c5.33301 6.66699 9.66602 10 12.999 10c4 -0.666992 6 -3.33398 6 -8.00098c0 -11.333 -15.667 -28.666 -47 -51.999s-70.5 -45 -117.5 -65s-88.167 -30 -123.5 -30
c-50.667 0 -85.334 17.333 -104.001 52c-7.33301 14 -11 30 -11 48c0 44 25.5 93.5 76.5 148.5s117.167 101.167 198.5 138.5c-31.333 -6.66699 -60.333 -10 -87 -10c-84 0 -126 23.333 -126 70c0 28.667 15.667 63.167 47 103.5s69.166 77.833 113.499 112.5
s92.333 64.5 144 89.5s95.834 37.5 132.501 37.5c56.667 0 85 -19.333 85 -58c0 -4 -0.333008 -7 -1 -9c29.333 9.33301 51.333 14 66 14s24 -0.5 28 -1.5s6 -5.16699 6 -12.5s-2.66699 -11.666 -8 -12.999c-30.667 0 -64 -5.66699 -100 -17
c-14.667 -35.333 -40.5 -68.166 -77.5 -98.499s-72.167 -45.5 -105.5 -45.5zM384 522.997c0 -6 5.33301 -8.99805 16 -8.99805c20 0 43.667 12.167 71 36.5s47 50.166 59 77.499c-38.667 -16 -72.667 -34.833 -102 -56.5s-44 -37.834 -44 -48.501zM468 850.999
c10 0 14.999 -5 14.999 -15s-4.66699 -20.167 -14 -30.5s-19.666 -15.5 -30.999 -15.5c-9.33301 0 -14 6.5 -14 19.5s5.33301 23.167 16 30.5s20 11 28 11zM572.999 840.999c10 0 14.999 -5 14.999 -15s-4.66699 -20.167 -14 -30.5s-19.666 -15.5 -30.999 -15.5
c-9.33301 0 -14 6.5 -14 19.5s5.33301 23.167 16 30.5s20 11 28 11z" />
    <glyph glyph-name="Igrave" unicode="&#xcc;" horiz-adv-x="574" 
d="M-119 1c0 34.667 26.502 69.665 79.502 104.998s118.333 63.833 196 85.5s152.5 32.5 224.5 32.5c18 0 37.667 -1 59 -3c146.667 137.333 220 279 220 425c0 39.333 -13 59 -39 59c-16 0 -34.333 -8.16699 -55 -24.5s-40.5 -37.833 -59.5 -64.5s-35 -59.667 -48 -99
s-19.5 -80.833 -19.5 -124.5s6 -69.167 18 -76.5c3.33301 -2 5 -4.33301 5 -7c-5.33301 -11.333 -12.833 -17 -22.5 -17s-17.334 2.83301 -23.001 8.5s-8.5 13.834 -8.5 24.501c0 58.667 8.5 115.834 25.5 171.501s37.833 102 62.5 139s50.667 66.833 78 89.5
s51.666 34 72.999 34c36 0 54 -28.333 54 -85c0 -163.333 -76.667 -315.666 -230 -456.999c71.333 -12.667 107 -37.667 107 -75c0 -13.333 -8.5 -27.166 -25.5 -41.499s-30.667 -21.833 -41 -22.5s-15.833 0.333008 -16.5 3c0 2 3.66699 5.33301 11 10
c28 17.333 42 32 42 44c0 27.333 -37.667 44 -113 50c-83.333 -70.667 -173.333 -128.334 -270 -173.001s-166.334 -67 -209.001 -67c-21.333 0 -38.166 4.66699 -50.499 14s-19.5 18.666 -21.5 27.999zM374.002 187.998c-66 0 -133.832 -8 -203.499 -24
s-128.667 -37.667 -177 -65s-72.833 -55.333 -73.5 -84c2 -24.667 20.667 -37 56 -37c47.333 0 111.666 19.333 192.999 58s159 89 233 151c-6.66699 0.666992 -16 1 -28 1zM724.003 786.998c-2.66699 0 -7.99902 2 -15.999 6l-85 54c-4 4 -6 8.33301 -6 13
c0 9.33301 4.66699 14 14 14c4 0 7.33301 -1.33301 10 -4l79 -65c9.33301 -9.33301 10.666 -15.333 3.99902 -18z" />
    <glyph glyph-name="Iacute" unicode="&#xcd;" horiz-adv-x="574" 
d="M-119 1c0 -4 1.83008 -9.83008 5.49707 -17.4971s7.83398 -14.167 12.501 -19.5c12 -12.667 31 -19 57 -19c42.667 0 112.334 22.333 209.001 67s186.667 102.334 270 173.001c75.333 -6 113 -22.667 113 -50c0 -12 -14 -26.667 -42 -44
c-7.33301 -4.66699 -11 -8 -11 -10c0.666992 -2.66699 6.16699 -3.66699 16.5 -3s24 8.16699 41 22.5s25.5 28.166 25.5 41.499c0 37.333 -35.667 62.333 -107 75c153.333 141.333 230 293.666 230 456.999c0 56.667 -18 85 -54 85c-21.333 0 -45.666 -11.333 -72.999 -34
s-53.333 -52.5 -78 -89.5s-45.5 -83.333 -62.5 -139s-25.5 -112.834 -25.5 -171.501c0 -10.667 2.83301 -18.834 8.5 -24.501s13.334 -8.5 23.001 -8.5s17.167 5.66699 22.5 17c0 2.66699 -1.66699 5 -5 7c-12 7.33301 -18 32.833 -18 76.5s6.5 85.167 19.5 124.5
s29 72.333 48 99s38.833 48.167 59.5 64.5s39 24.5 55 24.5c26 0 39 -19.667 39 -59c0 -146 -73.333 -287.667 -220 -425c-20.667 2 -40.334 3 -59.001 3c-72 0 -146.833 -10.833 -224.5 -32.5s-143 -50.167 -196 -85.5s-79.5 -70.333 -79.5 -105zM373.997 188.003
c12 0 21.332 -0.333008 27.999 -1c-74 -62 -151.667 -112.333 -233 -151s-145.666 -58 -192.999 -58c-35.333 0 -54 12.333 -56 37c0.666992 28.667 25.167 56.667 73.5 84s107.333 49 177 65s137.5 24 203.5 24zM674.996 788.003c-3.33301 1.33301 -5 3.33301 -5 6
c0.666992 2.66699 3.66699 6.66699 9 12l79 65c2.66699 2.66699 6 4 10 4c9.33301 0 14 -4.66699 14 -14c0 -4.66699 -2 -9 -6 -13l-85 -54c-8 -4 -13.333 -6 -16 -6z" />
    <glyph glyph-name="Icircumflex" unicode="&#xce;" horiz-adv-x="574" 
d="M-119 1c0 34.667 26.502 69.665 79.502 104.998s118.333 63.833 196 85.5s152.5 32.5 224.5 32.5c18 0 37.667 -1 59 -3c146.667 137.333 220 279 220 425c0 39.333 -13 59 -39 59c-16 0 -34.333 -8.16699 -55 -24.5s-40.5 -37.833 -59.5 -64.5s-35 -59.667 -48 -99
s-19.5 -80.833 -19.5 -124.5s6 -69.167 18 -76.5c3.33301 -2 5 -4.33301 5 -7c-5.33301 -11.333 -12.833 -17 -22.5 -17s-17.334 2.83301 -23.001 8.5s-8.5 13.834 -8.5 24.501c0 58.667 8.5 115.834 25.5 171.501s37.833 102 62.5 139s50.667 66.833 78 89.5
s51.666 34 72.999 34c36 0 54 -28.333 54 -85c0 -163.333 -76.667 -315.666 -230 -456.999c71.333 -12.667 107 -37.667 107 -75c0 -13.333 -8.5 -27.166 -25.5 -41.499s-30.667 -21.833 -41 -22.5s-15.833 0.333008 -16.5 3c0 2 3.66699 5.33301 11 10
c28 17.333 42 32 42 44c0 27.333 -37.667 44 -113 50c-83.333 -70.667 -173.333 -128.334 -270 -173.001s-166.334 -67 -209.001 -67c-21.333 0 -38.166 4.66699 -50.499 14s-19.5 18.666 -21.5 27.999zM374.002 187.998c-66 0 -133.832 -8 -203.499 -24
s-128.667 -37.667 -177 -65s-72.833 -55.333 -73.5 -84c2 -24.667 20.667 -37 56 -37c47.333 0 111.666 19.333 192.999 58s159 89 233 151c-6.66699 0.666992 -16 1 -28 1zM694.003 831.998c-74.667 -36.667 -115 -55 -121 -55s-9 1.5 -9 4.5s22.333 17.833 67 44.5
s69.667 40 75 40s13.5 -14 24.5 -42s17.833 -45 20.5 -51c-2 -4 -4.66699 -6 -8 -6c-5.33301 0 -18.333 16.333 -39 49z" />
    <glyph glyph-name="Idieresis" unicode="&#xcf;" horiz-adv-x="574" 
d="M-119 1c0 34.667 26.502 69.665 79.502 104.998s118.333 63.833 196 85.5s152.5 32.5 224.5 32.5c18 0 37.667 -1 59 -3c146.667 137.333 220 279 220 425c0 39.333 -13 59 -39 59c-16 0 -34.333 -8.16699 -55 -24.5s-40.5 -37.833 -59.5 -64.5s-35 -59.667 -48 -99
s-19.5 -80.833 -19.5 -124.5s6 -69.167 18 -76.5c3.33301 -2 5 -4.33301 5 -7c-5.33301 -11.333 -12.833 -17 -22.5 -17s-17.334 2.83301 -23.001 8.5s-8.5 13.834 -8.5 24.501c0 58.667 8.5 115.834 25.5 171.501s37.833 102 62.5 139s50.667 66.833 78 89.5
s51.666 34 72.999 34c36 0 54 -28.333 54 -85c0 -163.333 -76.667 -315.666 -230 -456.999c71.333 -12.667 107 -37.667 107 -75c0 -13.333 -8.5 -27.166 -25.5 -41.499s-30.667 -21.833 -41 -22.5s-15.833 0.333008 -16.5 3c0 2 3.66699 5.33301 11 10
c28 17.333 42 32 42 44c0 27.333 -37.667 44 -113 50c-83.333 -70.667 -173.333 -128.334 -270 -173.001s-166.334 -67 -209.001 -67c-21.333 0 -38.166 4.66699 -50.499 14s-19.5 18.666 -21.5 27.999zM374.002 187.998c-66 0 -133.832 -8 -203.499 -24
s-128.667 -37.667 -177 -65s-72.833 -55.333 -73.5 -84c2 -24.667 20.667 -37 56 -37c47.333 0 111.666 19.333 192.999 58s159 89 233 151c-6.66699 0.666992 -16 1 -28 1zM638.003 867.998c10 0 14.999 -5 14.999 -15s-4.66699 -20.167 -14 -30.5
s-19.666 -15.5 -30.999 -15.5c-9.33301 0 -14 6.5 -14 19.5s5.33301 23.167 16 30.5s20 11 28 11zM743.002 857.998c10 0 14.999 -5 14.999 -15s-4.66699 -20.167 -14 -30.5s-19.666 -15.5 -30.999 -15.5c-9.33301 0 -14 6.5 -14 19.5s5.33301 23.167 16 30.5s20 11 28 11z
" />
    <glyph glyph-name="Eth" unicode="&#xd0;" horiz-adv-x="584" 
d="M558 84c0 -26 -17.6621 -43.3311 -52.9951 -51.998c-2 0 -3 1.33301 -3 4s2.33301 5.66699 7 9c13.333 10 20 21 20 33c0 23.333 -19.333 40.666 -58 51.999c-64.667 -58.667 -132.334 -105.5 -203.001 -140.5s-137 -52.5 -199 -52.5c-47.333 0 -71 16.5 -71 49.5
s21.333 63.667 64 92s93.667 49.833 153 64.5s110.666 22 153.999 22s75.666 -2.33301 96.999 -7c65.333 63.333 118.666 129.5 159.999 198.5s62 129.667 62 182s-19.5 92.833 -58.5 121.5s-97.833 43 -176.5 43s-160.167 -14.167 -244.5 -42.5
s-155.833 -65.5 -214.5 -111.5s-88 -91.333 -88 -136c0 -25.333 15.667 -38 47 -38c44.667 0 88.667 11.167 132 33.5s100 62.833 170 121.5c8.66699 10 15 15 19 15c6.66699 0 10 -2.33301 10 -7c0 -1.33301 -2.33301 -6 -7 -14
c-17.333 -17.333 -41.666 -38.333 -72.999 -63s-60.333 -45.334 -87 -62.001s-56.834 -31.667 -90.501 -45s-64.167 -20 -91.5 -20c-47.333 0 -71 21 -71 63c0 47.333 33.833 98 101.5 152s150.167 98.833 247.5 134.5s187.666 53.5 270.999 53.5s145 -15.667 185 -47
s60 -75 60 -131s-21.833 -121.333 -65.5 -196s-100.167 -145.334 -169.5 -212.001c42.667 -13.333 64 -35.666 64 -66.999zM442.005 136.002c-22 3.33301 -50.832 5 -86.499 5s-78.167 -5.66699 -127.5 -17s-91.833 -29 -127.5 -53s-53.5 -51 -53.5 -81
c0 -22 14.333 -33 43 -33c50.667 0 107.167 16.333 169.5 49s123.166 76 182.499 130zM442.006 646.002c0 -5.33301 -60.666 -113.669 -181.999 -325.002h37c50.667 -0.666992 76 -2.5 76 -5.5s-3.5 -7.16699 -10.5 -12.5s-15.167 -7.66602 -24.5 -6.99902
s-39.666 1 -90.999 1l-76 -131c-4 -8.66699 -11.333 -15.334 -22 -20.001s-18.834 -7 -24.501 -7s-8.5 1.5 -8.5 4.5s28.667 54.167 86 153.5c-34.667 -0.666992 -72.334 -3.66699 -113.001 -9c-3.33301 0 -5 1 -5 3l14 17c12 4.66699 51 8.33398 117 11.001
c118.667 204.667 177.667 307.334 177 308.001c4 6.66699 10.667 11.667 20 15l25 8z" />
    <glyph glyph-name="Ntilde" unicode="&#xd1;" horiz-adv-x="521" 
d="M368 25c0 19.333 79.6719 183.999 239.005 493.999c2 4 3 8 3 12s-3.83301 7.83301 -11.5 11.5s-13.834 5.5 -18.501 5.5c-24.667 -24.667 -99.5 -107.834 -224.5 -249.501s-188.833 -213.167 -191.5 -214.5c52 78 103.333 169.333 154 274
c21.333 42.667 40.5 89.167 57.5 139.5s25.5 92.166 25.5 125.499c0 64.667 -31 97 -93 97c-52.667 0 -106.834 -10.333 -162.501 -31s-104 -46 -145 -76s-74.667 -62 -101 -96s-39.5 -64.333 -39.5 -91c0 -49.333 42.333 -74 127 -74c34 0 69 8.33301 105 25
s66.333 36.334 91 59.001s45 44.834 61 66.501s24 36.667 24 45s-1 12.5 -3 12.5l-8 -6c-21.333 -40 -57.5 -77.5 -108.5 -112.5s-105.5 -52.5 -163.5 -52.5s-87 18 -87 54c0 30 19.667 65.5 59 106.5s90.166 77.167 152.499 108.5s121.5 47 177.5 47
c48 0 72 -27.667 72 -83c0 -33.333 -8.5 -75.666 -25.5 -126.999s-37.5 -102 -61.5 -152c-50.667 -105.333 -95.334 -189.666 -134.001 -252.999l-25 -42c-5.33301 -8 -8 -15 -8 -21s3.66699 -9 11 -9l22 6c272 306 412.667 463.667 422 473l13 14
c-164 -298 -246 -465 -246 -501c0 -17.333 8.33301 -26 25 -26s40.667 7.66699 72 23s58.666 30.666 81.999 45.999l35 23c6 2.66699 9 7 9 13l-1 5c-81.333 -52.667 -137.333 -79 -168 -79c-8.66699 0 -13 3.33301 -13 10zM644.005 741.999
c0 -10 -5.16895 -18.667 -15.502 -26s-21.833 -11 -34.5 -11s-29.667 6.16699 -51 18.5s-36.166 18.5 -44.499 18.5s-16.833 -3.16699 -25.5 -9.5s-14.667 -9.5 -18 -9.5l-2 1c0 4.66699 6.16699 12.667 18.5 24s24.833 17 37.5 17s30.334 -6.83301 53.001 -20.5
s38.167 -20.5 46.5 -20.5s15.833 3.5 22.5 10.5s10.5 10.5 11.5 10.5s1.5 -1 1.5 -3z" />
    <glyph glyph-name="Ograve" unicode="&#xd2;" horiz-adv-x="434" 
d="M418 704c3.33301 0 5.66895 -2.00098 7.00195 -6.00098c0 -5.33301 -4 -8.66602 -12 -9.99902c-37.333 -12.667 -77.166 -35.667 -119.499 -69s-82.333 -73.5 -120 -120.5s-69 -102.5 -94 -166.5s-37.5 -128.667 -37.5 -194c0 -88.667 31.333 -133 94 -133
c36.667 0 79.5 16.167 128.5 48.5s95 73 138 122s79.5 106.5 109.5 172.5s45 129.5 45 190.5s-21 91.5 -63 91.5c-34 0 -74 -18.167 -120 -54.5s-86.167 -82.333 -120.5 -138s-51.5 -108 -51.5 -157s17 -73.5 51 -73.5c21.333 0 45.5 10.167 72.5 30.5
s51.167 47.5 72.5 81.5c2.66699 5.33301 5.83398 8 9.50098 8s5.5 -2 5.5 -6c0 -18.667 -23.167 -48 -69.5 -88s-86.166 -60 -119.499 -60c-39.333 0 -59 31.667 -59 95c0 49.333 20.667 105.5 62 168.5s90 116.167 146 159.5s104.333 65 145 65
c53.333 0 80 -39.667 80 -119c0 -60 -17.333 -124.5 -52 -193.5s-76.834 -130.333 -126.501 -184s-102.834 -98.5 -159.501 -134.5s-106.334 -54 -149.001 -54c-74 0 -111 52.667 -111 158c0 64 12.667 127.167 38 189.5s56.166 115.5 92.499 159.5
s74.666 83.333 114.999 118s76 60.5 107 77.5s52.833 25.5 65.5 25.5zM616.003 695.999c-2.66699 0 -7.99902 2 -15.999 6l-85 54c-4 4 -6 8.33301 -6 13c0 9.33301 4.66699 14 14 14c4 0 7.33301 -1.33301 10 -4l79 -65c9.33301 -9.33301 10.666 -15.333 3.99902 -18z" />
    <glyph glyph-name="Oacute" unicode="&#xd3;" horiz-adv-x="434" 
d="M413 321c0 4 -2.00293 6.00098 -6.00293 6.00098c-3.33301 0 -6.33301 -2.66699 -9 -8c-21.333 -34 -45.5 -61.167 -72.5 -81.5s-51.167 -30.5 -72.5 -30.5c-34 0 -51 24.5 -51 73.5s17.167 101.333 51.5 157s74.5 101.667 120.5 138s86 54.5 120 54.5
c42 0 63 -30.5 63 -91.5s-15 -124.5 -45 -190.5s-66.5 -123.5 -109.5 -172.5s-89 -89.667 -138 -122s-91.833 -48.5 -128.5 -48.5c-62.667 0 -94 44.333 -94 133c0 65.333 12.5 130 37.5 194s56.333 119.5 94 166.5s77.667 87.167 120 120.5s82.166 56.333 119.499 69
c8 1.33301 12 4.66602 12 9.99902c-0.666992 4 -5.16699 6 -13.5 6s-28 -8.5 -59 -25.5s-66.667 -42.833 -107 -77.5s-78.666 -74 -114.999 -118s-67.166 -97.167 -92.499 -159.5s-38 -125.5 -38 -189.5c0 -105.333 37 -158 111 -158c42.667 0 92.334 18 149.001 54
s109.834 80.833 159.501 134.5s91.834 115 126.501 184s52 133.5 52 193.5c0 79.333 -26.667 119 -80 119c-40.667 0 -89 -21.667 -145 -65s-104.667 -96.5 -146 -159.5s-62 -119.167 -62 -168.5c0 -63.333 19.667 -95 59 -95c33.333 0 73.166 20 119.499 60
s69.5 69.333 69.5 88zM528.997 705.001c-3.33301 1.33301 -5 3.33301 -5 6c0.666992 2.66699 3.66699 6.66699 9 12l79 65c2.66699 2.66699 6 4 10 4c9.33301 0 14 -4.66699 14 -14c0 -4.66699 -2 -9 -6 -13l-85 -54c-8 -4 -13.333 -6 -16 -6z" />
    <glyph glyph-name="Ocircumflex" unicode="&#xd4;" horiz-adv-x="434" 
d="M418 704c3.33301 0 5.66895 -2.00098 7.00195 -6.00098c0 -5.33301 -4 -8.66602 -12 -9.99902c-37.333 -12.667 -77.166 -35.667 -119.499 -69s-82.333 -73.5 -120 -120.5s-69 -102.5 -94 -166.5s-37.5 -128.667 -37.5 -194c0 -88.667 31.333 -133 94 -133
c36.667 0 79.5 16.167 128.5 48.5s95 73 138 122s79.5 106.5 109.5 172.5s45 129.5 45 190.5s-21 91.5 -63 91.5c-34 0 -74 -18.167 -120 -54.5s-86.167 -82.333 -120.5 -138s-51.5 -108 -51.5 -157s17 -73.5 51 -73.5c21.333 0 45.5 10.167 72.5 30.5
s51.167 47.5 72.5 81.5c2.66699 5.33301 5.83398 8 9.50098 8s5.5 -2 5.5 -6c0 -18.667 -23.167 -48 -69.5 -88s-86.166 -60 -119.499 -60c-39.333 0 -59 31.667 -59 95c0 49.333 20.667 105.5 62 168.5s90 116.167 146 159.5s104.333 65 145 65
c53.333 0 80 -39.667 80 -119c0 -60 -17.333 -124.5 -52 -193.5s-76.834 -130.333 -126.501 -184s-102.834 -98.5 -159.501 -134.5s-106.334 -54 -149.001 -54c-74 0 -111 52.667 -111 158c0 64 12.667 127.167 38 189.5s56.166 115.5 92.499 159.5
s74.666 83.333 114.999 118s76 60.5 107 77.5s52.833 25.5 65.5 25.5zM564.003 783.999c-74.667 -36.667 -115 -55 -121 -55s-9 1.5 -9 4.5s22.333 17.833 67 44.5s69.667 40 75 40s13.5 -14 24.5 -42s17.833 -45 20.5 -51c-2 -4 -4.66699 -6 -8 -6
c-5.33301 0 -18.333 16.333 -39 49z" />
    <glyph glyph-name="Otilde" unicode="&#xd5;" horiz-adv-x="434" 
d="M413 321c0 4 -2.00293 6.00098 -6.00293 6.00098c-3.33301 0 -6.33301 -2.66699 -9 -8c-21.333 -34 -45.5 -61.167 -72.5 -81.5s-51.167 -30.5 -72.5 -30.5c-34 0 -51 24.5 -51 73.5s17.167 101.333 51.5 157s74.5 101.667 120.5 138s86 54.5 120 54.5
c42 0 63 -30.5 63 -91.5s-15 -124.5 -45 -190.5s-66.5 -123.5 -109.5 -172.5s-89 -89.667 -138 -122s-91.833 -48.5 -128.5 -48.5c-62.667 0 -94 44.333 -94 133c0 65.333 12.5 130 37.5 194s56.333 119.5 94 166.5s77.667 87.167 120 120.5s82.166 56.333 119.499 69
c8 1.33301 12 4.66602 12 9.99902c-0.666992 4 -5.16699 6 -13.5 6s-28 -8.5 -59 -25.5s-66.667 -42.833 -107 -77.5s-78.666 -74 -114.999 -118s-67.166 -97.167 -92.499 -159.5s-38 -125.5 -38 -189.5c0 -105.333 37 -158 111 -158c42.667 0 92.334 18 149.001 54
s109.834 80.833 159.501 134.5s91.834 115 126.501 184s52 133.5 52 193.5c0 79.333 -26.667 119 -80 119c-40.667 0 -89 -21.667 -145 -65s-104.667 -96.5 -146 -159.5s-62 -119.167 -62 -168.5c0 -63.333 19.667 -95 59 -95c33.333 0 73.166 20 119.499 60
s69.5 69.333 69.5 88zM651.997 784.001c0 -10 -5.16895 -18.667 -15.502 -26s-21.833 -11 -34.5 -11s-29.667 6.16699 -51 18.5s-36.166 18.5 -44.499 18.5s-16.833 -3.16699 -25.5 -9.5s-14.667 -9.5 -18 -9.5l-2 1c0 4.66699 6.16699 12.667 18.5 24s24.833 17 37.5 17
s30.334 -6.83301 53.001 -20.5s38.167 -20.5 46.5 -20.5s15.833 3.5 22.5 10.5s10.5 10.5 11.5 10.5s1.5 -1 1.5 -3z" />
    <glyph glyph-name="Odieresis" unicode="&#xd6;" horiz-adv-x="434" 
d="M418 704c3.33301 0 5.66895 -2.00098 7.00195 -6.00098c0 -5.33301 -4 -8.66602 -12 -9.99902c-37.333 -12.667 -77.166 -35.667 -119.499 -69s-82.333 -73.5 -120 -120.5s-69 -102.5 -94 -166.5s-37.5 -128.667 -37.5 -194c0 -88.667 31.333 -133 94 -133
c36.667 0 79.5 16.167 128.5 48.5s95 73 138 122s79.5 106.5 109.5 172.5s45 129.5 45 190.5s-21 91.5 -63 91.5c-34 0 -74 -18.167 -120 -54.5s-86.167 -82.333 -120.5 -138s-51.5 -108 -51.5 -157s17 -73.5 51 -73.5c21.333 0 45.5 10.167 72.5 30.5
s51.167 47.5 72.5 81.5c2.66699 5.33301 5.83398 8 9.50098 8s5.5 -2 5.5 -6c0 -18.667 -23.167 -48 -69.5 -88s-86.166 -60 -119.499 -60c-39.333 0 -59 31.667 -59 95c0 49.333 20.667 105.5 62 168.5s90 116.167 146 159.5s104.333 65 145 65
c53.333 0 80 -39.667 80 -119c0 -60 -17.333 -124.5 -52 -193.5s-76.834 -130.333 -126.501 -184s-102.834 -98.5 -159.501 -134.5s-106.334 -54 -149.001 -54c-74 0 -111 52.667 -111 158c0 64 12.667 127.167 38 189.5s56.166 115.5 92.499 159.5
s74.666 83.333 114.999 118s76 60.5 107 77.5s52.833 25.5 65.5 25.5zM498.003 817.999c10 0 14.999 -5 14.999 -15s-4.66699 -20.167 -14 -30.5s-19.666 -15.5 -30.999 -15.5c-9.33301 0 -14 6.5 -14 19.5s5.33301 23.167 16 30.5s20 11 28 11zM603.002 807.999
c10 0 14.999 -5 14.999 -15s-4.66699 -20.167 -14 -30.5s-19.666 -15.5 -30.999 -15.5c-9.33301 0 -14 6.5 -14 19.5s5.33301 23.167 16 30.5s20 11 28 11z" />
    <glyph glyph-name="multiply" unicode="&#xd7;" horiz-adv-x="400" 
d="M313 424c-0.666992 -2 -0.999023 -3.33203 -0.999023 -3.99902l-143 -115l108 -126c2 -3.33301 3 -5.33301 3 -6c0 -4.66699 -3.66699 -7 -11 -7s-13 2.66699 -17 8c-6 3.33301 -40.333 41.666 -103 114.999l-143 -115c-2.66699 -2 -5.33398 -3 -8.00098 -3
c-5.33301 0 -8 3.5 -8 10.5s2.33301 12.833 7 17.5l135 109c-47.333 53.333 -76 87.333 -86 102c-5.33301 6 -8 12.5 -8 19.5s3.66699 10.5 11 10.5l5 -1l98 -115l117 95c12.667 9.33301 23.167 14 31.5 14s12.5 -3 12.5 -9z" />
    <glyph glyph-name="Oslash" unicode="&#xd8;" horiz-adv-x="434" 
d="M418 704c3.33301 0 5.67188 -2 7.00488 -6c0 -5.33301 -4 -8.66602 -12 -9.99902c-37.333 -12.667 -77.166 -35.667 -119.499 -69s-82.333 -73.5 -120 -120.5s-69 -102.5 -94 -166.5s-37.5 -127.667 -37.5 -191s15.667 -104.666 47 -123.999l97 171
c-14 16 -21 42.667 -21 80c0 61.333 30.167 130.666 90.5 207.999s122.833 132 187.5 164l64 113c7.33301 13.333 14.5 20 21.5 20s10.5 -1 10.5 -3s-20.667 -40.667 -62 -116c13.333 4.66699 27 7 41 7c53.333 0 80 -39.667 80 -119c0 -60 -17.333 -124.5 -52 -193.5
s-76.834 -130.333 -126.501 -184s-102.834 -98.334 -159.501 -134.001s-106.334 -53.5 -149.001 -53.5c-6.66699 0 -11.667 0.333008 -15 1l-37 -67c-2.66699 -5.33301 -6.83398 -10.833 -12.501 -16.5s-10.167 -8.5 -13.5 -8.5c-6 0 -9 3.33301 -9 10
c0 4 1.33301 8.66699 4 14l42 74c-46.667 17.333 -70 67.333 -70 150c0 64 12.667 127.167 38 189.5s56.166 115.5 92.499 159.5s74.666 83.333 114.999 118s76 60.5 107 77.5s52.833 25.5 65.5 25.5zM398.006 319c2.66699 5.33301 5.83203 8 9.49902 8s5.5 -2 5.5 -6
c0 -18.667 -23.167 -48 -69.5 -88s-86.166 -60 -119.499 -60c-4 0 -9.33301 0.666992 -16 2c-5.33301 -8.66699 -37 -64.667 -95 -168c4.66699 -1.33301 12 -2 22 -2c36.667 0 79.5 16 128.5 48s95.167 72.667 138.5 122s80 107 110 173s45 129.5 45 190.5
s-21.333 91.5 -64 91.5c-10 0 -21 -2 -33 -6l-231 -411c7.33301 -4 15.333 -6 24 -6c21.333 0 45.5 10.167 72.5 30.5s51.167 47.5 72.5 81.5zM202.004 281c0 -20.667 3 -37 9 -49l214 377c-54 -29.333 -104.667 -76.833 -152 -142.5s-71 -127.5 -71 -185.5z" />
    <glyph glyph-name="Ugrave" unicode="&#xd9;" 
d="M362 15c13.333 0 33.998 6.50195 61.998 19.502s52.667 26.167 74 39.5l32 20c0.666992 -1.33301 1 -4 1 -8s-3 -7.33301 -9 -10c-90 -61.333 -152.667 -92 -188 -92c-23.333 0 -35 14.667 -35 44c0 52.667 33.667 128 101 226
c-25.333 -30.667 -61 -68.334 -107 -113.001c-92 -89.333 -158.667 -134 -200 -134c-16 0 -28.333 5.5 -37 16.5s-13 23.167 -13 36.5c0 28.667 13.833 69.167 41.5 121.5s58.334 102.666 92.001 150.999s64.334 97.833 92.001 148.5s41.5 89.334 41.5 116.001
s-10.667 47.334 -32 62.001s-50.333 22 -87 22s-79.667 -9.83301 -129 -29.5s-92.5 -43.667 -129.5 -72s-67.833 -57.833 -92.5 -88.5s-37 -57 -37 -79c0 -31.333 25.333 -47 76 -47s103 19 157 57s101.333 85 142 141c3.33301 5.33301 6.66602 8 9.99902 8h1
c3.33301 -2 5 -4.66699 5 -8c0 -16 -17.333 -43 -52 -81s-78.667 -74 -132 -108s-100.666 -51 -141.999 -51c-63.333 0 -95 21.667 -95 65c0 26.667 12.5 57.667 37.5 93s57.167 68.833 96.5 100.5s86.333 58.5 141 80.5s105.167 33 151.5 33s83.5 -8.5 111.5 -25.5
s42 -45.833 42 -86.5c0 -41.333 -44 -126.333 -132 -255c-32.667 -47.333 -62.667 -96.333 -90 -147s-41 -87.834 -41 -111.501s8.66699 -35.5 26 -35.5c15.333 0 36.666 9.83301 63.999 29.5s55.333 43.167 84 70.5c57.333 56.667 105.333 108.667 144 156l25 29l89 122
c4.66699 7.33301 11.334 11 20.001 11l17 -1c4 0 6 -1.33301 6 -4s-36.5 -60.834 -109.5 -174.501s-109.5 -191.5 -109.5 -233.5c0 -7.33301 1.33301 -13 4 -17s6.66699 -6.33301 12 -7zM549.998 572.002c-2.66699 0 -7.99902 2 -15.999 6l-85 54c-4 4 -6 8.33301 -6 13
c0 9.33301 4.66699 14 14 14c4 0 7.33301 -1.33301 10 -4l79 -65c9.33301 -9.33301 10.666 -15.333 3.99902 -18z" />
    <glyph glyph-name="Uacute" unicode="&#xda;" 
d="M362 15c13.333 0 33.998 6.50195 61.998 19.502s52.667 26.167 74 39.5l32 20c0.666992 -1.33301 1 -4 1 -8s-3 -7.33301 -9 -10c-90 -61.333 -152.667 -92 -188 -92c-23.333 0 -35 14.667 -35 44c0 52.667 33.667 128 101 226
c-25.333 -30.667 -61 -68.334 -107 -113.001c-92 -89.333 -158.667 -134 -200 -134c-16 0 -28.333 5.5 -37 16.5s-13 23.167 -13 36.5c0 28.667 13.833 69.167 41.5 121.5s58.334 102.666 92.001 150.999s64.334 97.833 92.001 148.5s41.5 89.334 41.5 116.001
s-10.667 47.334 -32 62.001s-50.333 22 -87 22s-79.667 -9.83301 -129 -29.5s-92.5 -43.667 -129.5 -72s-67.833 -57.833 -92.5 -88.5s-37 -57 -37 -79c0 -31.333 25.333 -47 76 -47s103 19 157 57s101.333 85 142 141c3.33301 5.33301 6.66602 8 9.99902 8h1
c3.33301 -2 5 -4.66699 5 -8c0 -16 -17.333 -43 -52 -81s-78.667 -74 -132 -108s-100.666 -51 -141.999 -51c-63.333 0 -95 21.667 -95 65c0 26.667 12.5 57.667 37.5 93s57.167 68.833 96.5 100.5s86.333 58.5 141 80.5s105.167 33 151.5 33s83.5 -8.5 111.5 -25.5
s42 -45.833 42 -86.5c0 -41.333 -44 -126.333 -132 -255c-32.667 -47.333 -62.667 -96.333 -90 -147s-41 -87.834 -41 -111.501s8.66699 -35.5 26 -35.5c15.333 0 36.666 9.83301 63.999 29.5s55.333 43.167 84 70.5c57.333 56.667 105.333 108.667 144 156l25 29l89 122
c4.66699 7.33301 11.334 11 20.001 11l17 -1c4 0 6 -1.33301 6 -4s-36.5 -60.834 -109.5 -174.501s-109.5 -191.5 -109.5 -233.5c0 -7.33301 1.33301 -13 4 -17s6.66699 -6.33301 12 -7zM489.998 601.002c-3.33301 1.33301 -5 3.33301 -5 6
c0.666992 2.66699 3.66699 6.66699 9 12l79 65c2.66699 2.66699 6 4 10 4c9.33301 0 14 -4.66699 14 -14c0 -4.66699 -2 -9 -6 -13l-85 -54c-8 -4 -13.333 -6 -16 -6z" />
    <glyph glyph-name="Ucircumflex" unicode="&#xdb;" 
d="M362 15c13.333 0 33.998 6.50195 61.998 19.502s52.667 26.167 74 39.5l32 20c0.666992 -1.33301 1 -4 1 -8s-3 -7.33301 -9 -10c-90 -61.333 -152.667 -92 -188 -92c-23.333 0 -35 14.667 -35 44c0 52.667 33.667 128 101 226
c-25.333 -30.667 -61 -68.334 -107 -113.001c-92 -89.333 -158.667 -134 -200 -134c-16 0 -28.333 5.5 -37 16.5s-13 23.167 -13 36.5c0 28.667 13.833 69.167 41.5 121.5s58.334 102.666 92.001 150.999s64.334 97.833 92.001 148.5s41.5 89.334 41.5 116.001
s-10.667 47.334 -32 62.001s-50.333 22 -87 22s-79.667 -9.83301 -129 -29.5s-92.5 -43.667 -129.5 -72s-67.833 -57.833 -92.5 -88.5s-37 -57 -37 -79c0 -31.333 25.333 -47 76 -47s103 19 157 57s101.333 85 142 141c3.33301 5.33301 6.66602 8 9.99902 8h1
c3.33301 -2 5 -4.66699 5 -8c0 -16 -17.333 -43 -52 -81s-78.667 -74 -132 -108s-100.666 -51 -141.999 -51c-63.333 0 -95 21.667 -95 65c0 26.667 12.5 57.667 37.5 93s57.167 68.833 96.5 100.5s86.333 58.5 141 80.5s105.167 33 151.5 33s83.5 -8.5 111.5 -25.5
s42 -45.833 42 -86.5c0 -41.333 -44 -126.333 -132 -255c-32.667 -47.333 -62.667 -96.333 -90 -147s-41 -87.834 -41 -111.501s8.66699 -35.5 26 -35.5c15.333 0 36.666 9.83301 63.999 29.5s55.333 43.167 84 70.5c57.333 56.667 105.333 108.667 144 156l25 29l89 122
c4.66699 7.33301 11.334 11 20.001 11l17 -1c4 0 6 -1.33301 6 -4s-36.5 -60.834 -109.5 -174.501s-109.5 -191.5 -109.5 -233.5c0 -7.33301 1.33301 -13 4 -17s6.66699 -6.33301 12 -7zM534.998 659.002c-74.667 -36.667 -115 -55 -121 -55s-9 1.5 -9 4.5
s22.333 17.833 67 44.5s69.667 40 75 40s13.5 -14 24.5 -42s17.833 -45 20.5 -51c-2 -4 -4.66699 -6 -8 -6c-6.66699 0 -19.667 16 -39 48z" />
    <glyph glyph-name="Udieresis" unicode="&#xdc;" 
d="M362 15c13.333 0 33.998 6.50195 61.998 19.502s52.667 26.167 74 39.5l32 20c0.666992 -1.33301 1 -4 1 -8s-3 -7.33301 -9 -10c-90 -61.333 -152.667 -92 -188 -92c-23.333 0 -35 14.667 -35 44c0 52.667 33.667 128 101 226
c-25.333 -30.667 -61 -68.334 -107 -113.001c-92 -89.333 -158.667 -134 -200 -134c-16 0 -28.333 5.5 -37 16.5s-13 23.167 -13 36.5c0 28.667 13.833 69.167 41.5 121.5s58.334 102.666 92.001 150.999s64.334 97.833 92.001 148.5s41.5 89.334 41.5 116.001
s-10.667 47.334 -32 62.001s-50.333 22 -87 22s-79.667 -9.83301 -129 -29.5s-92.5 -43.667 -129.5 -72s-67.833 -57.833 -92.5 -88.5s-37 -57 -37 -79c0 -31.333 25.333 -47 76 -47s103 19 157 57s101.333 85 142 141c3.33301 5.33301 6.66602 8 9.99902 8h1
c3.33301 -2 5 -4.66699 5 -8c0 -16 -17.333 -43 -52 -81s-78.667 -74 -132 -108s-100.666 -51 -141.999 -51c-63.333 0 -95 21.667 -95 65c0 26.667 12.5 57.667 37.5 93s57.167 68.833 96.5 100.5s86.333 58.5 141 80.5s105.167 33 151.5 33s83.5 -8.5 111.5 -25.5
s42 -45.833 42 -86.5c0 -41.333 -44 -126.333 -132 -255c-32.667 -47.333 -62.667 -96.333 -90 -147s-41 -87.834 -41 -111.501s8.66699 -35.5 26 -35.5c15.333 0 36.666 9.83301 63.999 29.5s55.333 43.167 84 70.5c57.333 56.667 105.333 108.667 144 156l25 29l89 122
c4.66699 7.33301 11.334 11 20.001 11l17 -1c4 0 6 -1.33301 6 -4s-36.5 -60.834 -109.5 -174.501s-109.5 -191.5 -109.5 -233.5c0 -7.33301 1.33301 -13 4 -17s6.66699 -6.33301 12 -7zM583.998 689.002c10 0 14.999 -5 14.999 -15s-4.66699 -20.167 -14 -30.5
s-19.666 -15.5 -30.999 -15.5c-9.33301 0 -14 6.5 -14 19.5s5.33301 23.167 16 30.5s20 11 28 11zM478.997 699.002c10 0 14.999 -5 14.999 -15s-4.66699 -20.167 -14 -30.5s-19.666 -15.5 -30.999 -15.5c-9.33301 0 -14 6.5 -14 19.5s5.33301 23.167 16 30.5s20 11 28 11z
" />
    <glyph glyph-name="Yacute" unicode="&#xdd;" horiz-adv-x="465" 
d="M361 620c0 -35.333 -8.83301 -73.667 -26.5 -115s-39.167 -80.166 -64.5 -116.499l-76 -106.5c-60.667 -82 -91 -142.667 -91 -182c0 -12 3.5 -21.833 10.5 -29.5s16.833 -11.5 29.5 -11.5c63.333 0 174 86.333 332 259c23.333 24.667 41 46.667 53 66l6 8
c4.66699 7.33301 9.33398 11 14.001 11c16 -2 24 -7 24 -15c0 -2.66699 -1 -5.66699 -3 -9l-46 -74l-84 -137l-122 -197c36 8.66699 72.333 13 109 13s55.667 -10.333 57 -31c0 -11.333 -4.66699 -20.666 -14 -27.999c-15.333 -12 -27.333 -18 -36 -18s-13 1 -13 3
s2.66699 4.33301 8 7s9.16602 4.83398 11.499 6.50098l7.5 5.5c6 4.66699 9 9 9 13c0 9.33301 -16.667 14 -50 14s-69.666 -5.33301 -108.999 -16c-162.667 -254.667 -274 -382 -334 -382c-17.333 0 -26 10.667 -26 32c0 47.333 32.5 111.166 97.5 191.499
s142.833 138.166 233.5 173.499l100.5 173.5l79.5 137.5c-48 -54 -100.667 -104 -158 -150c-24.667 -20.667 -52.5 -39.334 -83.5 -56.001s-57.833 -25 -80.5 -25c-8.66699 0 -16.834 1 -24.501 3s-15.667 7.83301 -24 17.5s-12.5 26 -12.5 49s8.66699 52.667 26 89
s38.5 71.666 63.5 105.999l75.5 102.5c59.333 80 89 144 89 192c0 38 -9.16699 65.667 -27.5 83s-48.833 26 -91.5 26s-87.5 -9.83301 -134.5 -29.5s-87.333 -43.667 -121 -72s-61.167 -57.666 -82.5 -87.999s-32 -56.5 -32 -78.5c0 -30.667 20 -46 60 -46
c98 0 192.667 61.333 284 184c3.33301 6.66699 6.5 10 9.5 10s4.5 -4 4.5 -12s-9.83301 -24.333 -29.5 -49s-43.834 -50.334 -72.501 -77.001s-62.334 -50 -101.001 -70s-74.334 -30 -107.001 -30c-57.333 0 -86 21.667 -86 65c0 27.333 12 58.833 36 94.5
s55.333 69.834 94 102.501s85.834 60.167 141.501 82.5s111.834 33.5 168.501 33.5c24 0 44.833 -3.5 62.5 -10.5s30.834 -15.5 39.501 -25.5c15.333 -19.333 24 -38.333 26 -57zM-28 -376.001c0 -14 5 -21 15 -21c46 0 133.333 106.667 262 320
c-79.333 -32 -145.333 -80.667 -198 -146s-79 -116.333 -79 -153zM489 561.999c-3.33301 1.33301 -5 3.33301 -5 6c0.666992 2.66699 3.66699 6.66699 9 12l79 65c2.66699 2.66699 6 4 10 4c9.33301 0 14 -4.66699 14 -14c0 -4.66699 -2 -9 -6 -13l-85 -54
c-8 -4 -13.333 -6 -16 -6z" />
    <glyph glyph-name="Thorn" unicode="&#xde;" horiz-adv-x="331" 
d="M514 750c0 -2.66699 -17.6689 -35.333 -53.002 -98h1c126.667 0 190 -34.667 190 -104c0 -42 -22.667 -90.667 -68 -146s-105.666 -108 -180.999 -158s-153.333 -88.333 -234 -115l-71 -124.5c-6 -11 -14.333 -18.833 -25 -23.5s-18.834 -7 -24.501 -7
s-8.5 1.66699 -8.5 5l76 135c-26.667 -6.66699 -53.334 -11.667 -80.001 -15c-4 0 -6 4.16699 -6 12.5s3.66699 12.833 11 13.5c27.333 2 57 6.66699 89 14l269 478c-70 -4 -146.333 -22.167 -229 -54.5s-153.167 -72.333 -211.5 -120s-87.5 -92.5 -87.5 -134.5
c0 -37.333 23.333 -56 70 -56c39.333 0 85.833 13.833 139.5 41.5s101.834 64.5 144.501 110.5c5.33301 8.66699 10.166 13 14.499 13s6.5 -2.33301 6.5 -7c0 -15.333 -19.667 -38.833 -59 -70.5s-86.666 -60.667 -141.999 -87s-101.666 -39.5 -138.999 -39.5
c-51.333 0 -77 26.333 -77 79c0 43.333 32.333 91.833 97 145.5s143.334 100.5 236.001 140.5s178 63.667 256 71l48 86c2 5.33301 8 9.83301 18 13.5s18.333 5.5 25 5.5zM182.998 155.001c105.333 36 201.667 92.167 289 168.5s131 142.833 131 199.5
c0 60 -53.667 91.333 -161 94z" />
    <glyph glyph-name="germandbls" unicode="&#xdf;" horiz-adv-x="315" 
d="M-143 -328c-4 -16 -13.165 -24 -27.498 -24s-21.5 4.66699 -21.5 14c0 16.667 22.167 70 66.5 160s95.666 186.5 153.999 289.5s119.333 196 183 279s111.5 124.5 143.5 124.5c5.33301 0 9.83301 -2.66699 13.5 -8s5.5 -11 5.5 -17c0 -16 -14.5 -46.5 -43.5 -91.5
s-68.167 -96.833 -117.5 -155.5c16.667 3.33301 30 5 40 5c41.333 0 62 -18.333 62 -55c0 -38.667 -21 -89.167 -63 -151.5s-92.5 -117.833 -151.5 -166.5s-110.167 -73.667 -153.5 -75c-5.33301 0 -9.83301 1.5 -13.5 4.5s-5.5 6.16699 -5.5 9.5c0 8 8 12 24 12
c36.667 0.666992 81.5 23.334 134.5 68.001s98.667 95.167 137 151.5s57.5 101.166 57.5 134.499c0 28 -15.333 42 -46 42c-12 0 -26 -2 -42 -6c-6.66699 -4.66699 -12.334 -7 -17.001 -7c-6.66699 0 -10 1.83301 -10 5.5s5 8.16699 15 13.5c104 124 156 206.333 156 247
c0 3.33301 -2.33301 5 -7 5c-16.667 0 -64.5 -59 -143.5 -177s-154.833 -242.667 -227.5 -374s-109 -213.333 -109 -246c0 -2.66699 1.16699 -4.66699 3.5 -6s3.5 -3 3.5 -5z" />
    <glyph glyph-name="agrave" unicode="&#xe0;" horiz-adv-x="303" 
d="M189 119c-4 0 -6.00098 2.33301 -6.00098 7l3 7c12 11.333 18 21 18 29c0 10 -5.33301 15 -16 15c-23.333 0 -54.833 -16.167 -94.5 -48.5s-59.5 -61.166 -59.5 -86.499c0 -10.667 7 -16 21 -16s30.167 5.83301 48.5 17.5s34 23.334 47 35.001s20.167 17.5 21.5 17.5
c6.66699 -0.666992 10 -4 10 -10c0 -2.66699 -5.16699 -11.334 -15.5 -26.001s-15.5 -26.334 -15.5 -35.001c0 -6.66699 5.5 -10 16.5 -10s30.5 6.5 58.5 19.5s52.667 26.167 74 39.5l32 20c0.666992 -1.33301 1 -4 1 -8s-3 -7.33301 -9 -10
c-90 -61.333 -152.667 -92 -188 -92c-17.333 0 -26 8.66699 -26 26c0 7.33301 1.33301 15 4 23c-4.66699 -5.33301 -18.5 -13.5 -41.5 -24.5s-43.5 -16.5 -61.5 -16.5s-27 8.33301 -27 25c0 39.333 27.333 79.5 82 120.5s100.667 61.5 138 61.5c22 0 33 -9.33301 33 -28
c0 -10.667 -6.66699 -22 -20 -34s-22.666 -18 -27.999 -18zM269.999 215c-2.66699 0 -7.99902 2 -15.999 6l-85 54c-4 4 -6 8.33301 -6 13c0 9.33301 4.66699 14 14 14c4 0 7.33301 -1.33301 10 -4l79 -65c9.33301 -9.33301 10.666 -15.333 3.99902 -18z" />
    <glyph glyph-name="aacute" unicode="&#xe1;" horiz-adv-x="303" 
d="M189 119c5.33301 0 14.667 6 28 18s20 23.333 20 34c0 18.667 -11 28 -33 28c-37.333 0 -83.333 -20.5 -138 -61.5s-82 -81.167 -82 -120.5c0 -16.667 9 -25 27 -25s38.5 5.5 61.5 16.5s36.833 19.167 41.5 24.5c-2.66699 -8 -4 -15.667 -4 -23
c0 -17.333 8.33301 -26 25 -26s40.667 7.66699 72 23s58.666 30.666 81.999 45.999l35 23c6 2.66699 9 7 9 13l-1 5c-81.333 -52.667 -137.333 -79 -168 -79c-8.66699 0 -13 3.33301 -13 10c0 8.66699 5.16699 20.334 15.5 35.001s15.5 23.334 15.5 26.001
c0 6 -3.33301 9.33301 -10 10c-1.33301 0 -8.66602 -6 -21.999 -18c-38.667 -34.667 -70.667 -52 -96 -52c-13.333 0 -20 5.33301 -20 16c0 25.333 19.833 54.166 59.5 86.499s71.167 48.5 94.5 48.5c10.667 0 16 -5 16 -15c0 -8 -6 -17.667 -18 -29
c-2 -2 -3 -4.33301 -3 -7c0 -4.66699 2 -7 6 -7zM215.001 236c-3.33301 1.33301 -5 3.33301 -5 6c0.666992 2.66699 3.66699 6.66699 9 12l79 65c2.66699 2.66699 6 4 10 4c9.33301 0 14 -4.66699 14 -14c0 -4.66699 -2 -9 -6 -13l-85 -54c-8 -4 -13.333 -6 -16 -6z" />
    <glyph glyph-name="acircumflex" unicode="&#xe2;" horiz-adv-x="303" 
d="M189 119c-4 0 -6.00098 2.33301 -6.00098 7l3 7c12 11.333 18 21 18 29c0 10 -5.33301 15 -16 15c-23.333 0 -54.833 -16.167 -94.5 -48.5s-59.5 -61.166 -59.5 -86.499c0 -10.667 7 -16 21 -16s30.167 5.83301 48.5 17.5s34 23.334 47 35.001s20.167 17.5 21.5 17.5
c6.66699 -0.666992 10 -4 10 -10c0 -2.66699 -5.16699 -11.334 -15.5 -26.001s-15.5 -26.334 -15.5 -35.001c0 -6.66699 5.5 -10 16.5 -10s30.5 6.5 58.5 19.5s52.667 26.167 74 39.5l32 20c0.666992 -1.33301 1 -4 1 -8s-3 -7.33301 -9 -10
c-90 -61.333 -152.667 -92 -188 -92c-17.333 0 -26 8.66699 -26 26c0 7.33301 1.33301 15 4 23c-4.66699 -5.33301 -18.5 -13.5 -41.5 -24.5s-43.5 -16.5 -61.5 -16.5s-27 8.33301 -27 25c0 39.333 27.333 79.5 82 120.5s100.667 61.5 138 61.5c22 0 33 -9.33301 33 -28
c0 -10.667 -6.66699 -22 -20 -34s-22.666 -18 -27.999 -18zM228.999 272c-74.667 -36.667 -115 -55 -121 -55s-9 1.5 -9 4.5s22.333 17.833 67 44.5s69.667 40 75 40s13.5 -14 24.5 -42s17.833 -45 20.5 -51c-2 -4 -4.66699 -6 -8 -6c-5.33301 0 -18.333 16.333 -39 49z" />
    <glyph glyph-name="atilde" unicode="&#xe3;" horiz-adv-x="303" 
d="M189 119c5.33301 0 14.667 6 28 18s20 23.333 20 34c0 18.667 -11 28 -33 28c-37.333 0 -83.333 -20.5 -138 -61.5s-82 -81.167 -82 -120.5c0 -16.667 9 -25 27 -25s38.5 5.5 61.5 16.5s36.833 19.167 41.5 24.5c-2.66699 -8 -4 -15.667 -4 -23
c0 -17.333 8.33301 -26 25 -26s40.667 7.66699 72 23s58.666 30.666 81.999 45.999l35 23c6 2.66699 9 7 9 13l-1 5c-81.333 -52.667 -137.333 -79 -168 -79c-8.66699 0 -13 3.33301 -13 10c0 8.66699 5.16699 20.334 15.5 35.001s15.5 23.334 15.5 26.001
c0 6 -3.33301 9.33301 -10 10c-1.33301 0 -8.66602 -6 -21.999 -18c-38.667 -34.667 -70.667 -52 -96 -52c-13.333 0 -20 5.33301 -20 16c0 25.333 19.833 54.166 59.5 86.499s71.167 48.5 94.5 48.5c10.667 0 16 -5 16 -15c0 -8 -6 -17.667 -18 -29
c-2 -2 -3 -4.33301 -3 -7c0 -4.66699 2 -7 6 -7zM288.001 279c0 -10 -5.16895 -18.667 -15.502 -26s-21.833 -11 -34.5 -11s-29.667 6.16699 -51 18.5s-36.166 18.5 -44.499 18.5s-16.833 -3.16699 -25.5 -9.5s-14.667 -9.5 -18 -9.5l-2 1c0 4.66699 6.16699 12.667 18.5 24
s24.833 17 37.5 17s30.334 -6.83301 53.001 -20.5s38.167 -20.5 46.5 -20.5s15.833 3.5 22.5 10.5s10.5 10.5 11.5 10.5s1.5 -1 1.5 -3z" />
    <glyph glyph-name="adieresis" unicode="&#xe4;" horiz-adv-x="303" 
d="M189 119c-4 0 -6.00098 2.33301 -6.00098 7l3 7c12 11.333 18 21 18 29c0 10 -5.33301 15 -16 15c-23.333 0 -54.833 -16.167 -94.5 -48.5s-59.5 -61.166 -59.5 -86.499c0 -10.667 7 -16 21 -16s30.167 5.83301 48.5 17.5s34 23.334 47 35.001s20.167 17.5 21.5 17.5
c6.66699 -0.666992 10 -4 10 -10c0 -2.66699 -5.16699 -11.334 -15.5 -26.001s-15.5 -26.334 -15.5 -35.001c0 -6.66699 5.5 -10 16.5 -10s30.5 6.5 58.5 19.5s52.667 26.167 74 39.5l32 20c0.666992 -1.33301 1 -4 1 -8s-3 -7.33301 -9 -10
c-90 -61.333 -152.667 -92 -188 -92c-17.333 0 -26 8.66699 -26 26c0 7.33301 1.33301 15 4 23c-4.66699 -5.33301 -18.5 -13.5 -41.5 -24.5s-43.5 -16.5 -61.5 -16.5s-27 8.33301 -27 25c0 39.333 27.333 79.5 82 120.5s100.667 61.5 138 61.5c22 0 33 -9.33301 33 -28
c0 -10.667 -6.66699 -22 -20 -34s-22.666 -18 -27.999 -18zM283.999 295c10 0 14.999 -5 14.999 -15s-4.66699 -20.167 -14 -30.5s-19.666 -15.5 -30.999 -15.5c-9.33301 0 -14 6.5 -14 19.5s5.33301 23.167 16 30.5s20 11 28 11zM178.998 305c10 0 14.999 -5 14.999 -15
s-4.66699 -20.167 -14 -30.5s-19.666 -15.5 -30.999 -15.5c-9.33301 0 -14 6.5 -14 19.5s5.33301 23.167 16 30.5s20 11 28 11z" />
    <glyph glyph-name="aring" unicode="&#xe5;" horiz-adv-x="303" 
d="M189 119c5.33301 0 14.667 6 28 18s20 23.333 20 34c0 18.667 -11 28 -33 28c-37.333 0 -83.333 -20.5 -138 -61.5s-82 -81.167 -82 -120.5c0 -16.667 9 -25 27 -25s38.5 5.5 61.5 16.5s36.833 19.167 41.5 24.5c-2.66699 -8 -4 -15.667 -4 -23
c0 -17.333 8.33301 -26 25 -26s40.667 7.66699 72 23s58.666 30.666 81.999 45.999l35 23c6 2.66699 9 7 9 13l-1 5c-81.333 -52.667 -137.333 -79 -168 -79c-8.66699 0 -13 3.33301 -13 10c0 8.66699 5.16699 20.334 15.5 35.001s15.5 23.334 15.5 26.001
c0 6 -3.33301 9.33301 -10 10c-1.33301 0 -8.66602 -6 -21.999 -18c-38.667 -34.667 -70.667 -52 -96 -52c-13.333 0 -20 5.33301 -20 16c0 25.333 19.833 54.166 59.5 86.499s71.167 48.5 94.5 48.5c10.667 0 16 -5 16 -15c0 -8 -6 -17.667 -18 -29
c-2 -2 -3 -4.33301 -3 -7c0 -4.66699 2 -7 6 -7zM224.501 232c-5.66699 6 -8.5 13.833 -8.5 23.5s5 21.5 15 35.5s21.667 21 35 21c24.667 0 37 -11.333 37 -34c0 -12.667 -6.16699 -25 -18.5 -37s-24 -18 -35 -18s-19.333 3 -25 9zM267.001 293
c-9.33301 0 -17 -3.83301 -23 -11.5s-9 -14.5 -9 -20.5s1.66699 -10.833 5 -14.5s8.33301 -5.5 15 -5.5s13.167 3.5 19.5 10.5s9.5 14.5 9.5 22.5c0 12.667 -5.66699 19 -17 19z" />
    <glyph glyph-name="ae" unicode="&#xe6;" horiz-adv-x="418" 
d="M136 -16c-17.333 0 -26.002 8.66699 -26.002 26c0 7.33301 1.33301 15 4 23c-4.66699 -5.33301 -18.5 -13.5 -41.5 -24.5s-43.5 -16.5 -61.5 -16.5s-27 8.33301 -27 25c0 39.333 27.333 79.5 82 120.5s100.667 61.5 138 61.5c16 0 26.333 -5.66699 31 -17
c53.333 38 103.333 57 150 57c19.333 0 29 -6 29 -18c0 -6.66699 -5 -14 -15 -22s-19.667 -14.333 -29 -19s-14.666 -7 -15.999 -7c-4 0 -6.66699 1.66699 -8 5c-1.33301 4.66699 2.16699 9.5 10.5 14.5s12.5 10.5 12.5 16.5s-7.5 9 -22.5 9s-38.5 -10.5 -70.5 -31.5
s-48 -38.167 -48 -51.5c0 -10 11.667 -15 35 -15c4 0 11.333 0.333008 22 1s16 -0.666016 16 -3.99902s-16.5 -15.333 -49.5 -36s-49.5 -38.334 -49.5 -53.001c0 -16.667 10.833 -25 32.5 -25s46.167 5.66699 73.5 17c44 19.333 84 40 120 62l19 12
c0.666992 -1.33301 1 -4 1 -8s-3 -7.33301 -9 -10c-35.333 -24 -74 -46.833 -116 -68.5s-81.667 -32.5 -119 -32.5c-19.333 0 -32.666 5 -39.999 15c-10.667 -4 -20 -6 -28 -6zM245.998 97c-40 0 -60.001 8.66699 -60.001 26c0 8.66699 5.66699 19.334 17 32.001
c0.666992 1.33301 1 3.66602 1 6.99902c0 10 -5.33301 15 -16 15c-23.333 0 -54.833 -16.167 -94.5 -48.5s-59.5 -61.166 -59.5 -86.499c0 -10.667 7 -16 21 -16s30.167 5.83301 48.5 17.5s34 23.334 47 35.001s20.167 17.5 21.5 17.5c6.66699 -0.666992 10 -4 10 -10
c0 -2.66699 -5.16699 -11.334 -15.5 -26.001s-15.5 -25.834 -15.5 -33.501s3 -11.5 9 -11.5c4.66699 22 33.334 49.333 86.001 82z" />
    <glyph glyph-name="ccedilla" unicode="&#xe7;" horiz-adv-x="240" 
d="M147 28c32 13.333 66.3291 31.334 102.996 54.001l19 12c0.666992 -1.33301 1 -4 1 -8s-3 -7.33301 -9 -10c-35.333 -24 -70.166 -44.833 -104.499 -62.5s-67.166 -26.834 -98.499 -27.501l-13 -19c13.333 -3.33301 20 -11 20 -23
c-1.33301 -18.667 -11.666 -32.667 -30.999 -42s-39 -14 -59 -14c-4.66699 0 -7 1.5 -7 4.5s1.33301 4.5 4 4.5c16 0 31.5 3.83301 46.5 11.5s22.833 17.834 23.5 30.501c0 12.667 -7.33301 19 -22 19c0.666992 1.33301 7.66699 11 21 29c-27.333 4 -41 17.333 -41 40
c0 32.667 22.833 69.5 68.5 110.5s90.834 61.5 135.501 61.5c18.667 0 28 -8 28 -24c0 -9.33301 -8.33301 -21 -25 -35c-23.333 -19.333 -38 -29 -44 -29s-9 2.66699 -9 8c0 2 1.33301 4 4 6c6.66699 4 14.167 10.167 22.5 18.5s12.5 15.5 12.5 21.5
c0 9.33301 -4.33301 14 -13 14c-18.667 0 -46 -16.833 -82 -50.5s-54 -60.834 -54 -81.501c0 -23.333 12.667 -35 38 -35c16.667 0 35 4 55 12z" />
    <glyph glyph-name="egrave" unicode="&#xe8;" horiz-adv-x="228" 
d="M56 97c-40 0 -60.001 8.66699 -60.001 26c0 20.667 23.667 45.167 71 73.5s90 42.5 128 42.5c19.333 0 29 -6 29 -18c0 -6.66699 -5 -14 -15 -22s-19.667 -14.333 -29 -19s-14.666 -7 -15.999 -7c-4 0 -6.66699 1.66699 -8 5c-1.33301 4.66699 2.16699 9.5 10.5 14.5
s12.5 10.5 12.5 16.5s-7.5 9 -22.5 9s-38.5 -10.5 -70.5 -31.5s-48 -38.167 -48 -51.5c0 -10 11.667 -15 35 -15c4 0 11.333 0.333008 22 1s16 -0.666016 16 -3.99902s-16.5 -15.333 -49.5 -36s-49.5 -38.334 -49.5 -53.001c0 -16.667 10.833 -25 32.5 -25
s46.167 5.66699 73.5 17c44 19.333 84 40 120 62l19 12c0.666992 -1.33301 1 -4 1 -8s-3 -7.33301 -9 -10c-35.333 -24 -74 -46.833 -116 -68.5s-79.833 -32.5 -113.5 -32.5s-50.5 11.167 -50.5 33.5s29 51.833 87 88.5zM214.999 283c-2.66699 0 -7.99902 2 -15.999 6
l-85 54c-4 4 -6 8.33301 -6 13c0 9.33301 4.66699 14 14 14c4 0 7.33301 -1.33301 10 -4l79 -65c9.33301 -9.33301 10.666 -15.333 3.99902 -18z" />
    <glyph glyph-name="eacute" unicode="&#xe9;" horiz-adv-x="228" 
d="M56 97c-58 -36.667 -87 -66.167 -87 -88.5s17 -33.5 51 -33.5c50 0 121.333 30.333 214 91l15 10c6 2.66699 9 7 9 13l-1 5c-45.333 -29.333 -86.666 -51.833 -123.999 -67.5s-66.833 -23.5 -88.5 -23.5s-32.5 8.33301 -32.5 25c0 14.667 16.5 32.334 49.5 53.001
s49.5 32.667 49.5 36s-5.33301 4.66602 -16 3.99902s-18 -1 -22 -1c-23.333 0 -35 5 -35 15c0 13.333 16 30.5 48 51.5s55.5 31.5 70.5 31.5s22.5 -3.33301 22.5 -10c0 -4 -5.66699 -10.333 -17 -19c-4.66699 -2 -7 -4.66699 -7 -8c2 -5.33301 5 -8 9 -8
c1.33301 0 6.66602 2.33301 15.999 7s19 11 29 19s15 15.333 15 22c0 12 -9.66699 18 -29 18c-38 0 -80.667 -14.167 -128 -42.5s-71 -52.833 -71 -73.5c0 -17.333 20 -26 60 -26zM144 277c-3.33301 1.33301 -5 3.33301 -5 6c0.666992 2.66699 3.66699 6.66699 9 12l79 65
c2.66699 2.66699 6 4 10 4c9.33301 0 14 -4.66699 14 -14c0 -4.66699 -2 -9 -6 -13l-85 -54c-8 -4 -13.333 -6 -16 -6z" />
    <glyph glyph-name="ecircumflex" unicode="&#xea;" horiz-adv-x="228" 
d="M56 97c-40 0 -60.001 8.66699 -60.001 26c0 20.667 23.667 45.167 71 73.5s90 42.5 128 42.5c19.333 0 29 -6 29 -18c0 -6.66699 -5 -14 -15 -22s-19.667 -14.333 -29 -19s-14.666 -7 -15.999 -7c-4 0 -6.66699 1.66699 -8 5c-1.33301 4.66699 2.16699 9.5 10.5 14.5
s12.5 10.5 12.5 16.5s-7.5 9 -22.5 9s-38.5 -10.5 -70.5 -31.5s-48 -38.167 -48 -51.5c0 -10 11.667 -15 35 -15c4 0 11.333 0.333008 22 1s16 -0.666016 16 -3.99902s-16.5 -15.333 -49.5 -36s-49.5 -38.334 -49.5 -53.001c0 -16.667 10.833 -25 32.5 -25
s46.167 5.66699 73.5 17c44 19.333 84 40 120 62l19 12c0.666992 -1.33301 1 -4 1 -8s-3 -7.33301 -9 -10c-35.333 -24 -74 -46.833 -116 -68.5s-79.833 -32.5 -113.5 -32.5s-50.5 11.167 -50.5 33.5s29 51.833 87 88.5zM189.999 321c-74.667 -36.667 -115 -55 -121 -55
s-9 1.5 -9 4.5s22.333 17.833 67 44.5s69.667 40 75 40s13.5 -14 24.5 -42s17.833 -45 20.5 -51c-2 -4 -4.66699 -6 -8 -6c-6.66699 0 -19.667 16 -39 48z" />
    <glyph glyph-name="edieresis" unicode="&#xeb;" horiz-adv-x="228" 
d="M56 97c-40 0 -60.001 8.66699 -60.001 26c0 20.667 23.667 45.167 71 73.5s90 42.5 128 42.5c19.333 0 29 -6 29 -18c0 -6.66699 -5 -14 -15 -22s-19.667 -14.333 -29 -19s-14.666 -7 -15.999 -7c-4 0 -6.66699 1.66699 -8 5c-1.33301 4.66699 2.16699 9.5 10.5 14.5
s12.5 10.5 12.5 16.5s-7.5 9 -22.5 9s-38.5 -10.5 -70.5 -31.5s-48 -38.167 -48 -51.5c0 -10 11.667 -15 35 -15c4 0 11.333 0.333008 22 1s16 -0.666016 16 -3.99902s-16.5 -15.333 -49.5 -36s-49.5 -38.334 -49.5 -53.001c0 -16.667 10.833 -25 32.5 -25
s46.167 5.66699 73.5 17c44 19.333 84 40 120 62l19 12c0.666992 -1.33301 1 -4 1 -8s-3 -7.33301 -9 -10c-35.333 -24 -74 -46.833 -116 -68.5s-79.833 -32.5 -113.5 -32.5s-50.5 11.167 -50.5 33.5s29 51.833 87 88.5zM128.999 352c10 0 14.999 -5 14.999 -15
s-4.66699 -20.167 -14 -30.5s-19.666 -15.5 -30.999 -15.5c-9.33301 0 -14 6.5 -14 19.5s5.33301 23.167 16 30.5s20 11 28 11zM233.998 342c10 0 14.999 -5 14.999 -15s-4.66699 -20.167 -14 -30.5s-19.666 -15.5 -30.999 -15.5c-9.33301 0 -14 6.5 -14 19.5
s5.33301 23.167 16 30.5s20 11 28 11z" />
    <glyph glyph-name="igrave" unicode="&#xec;" horiz-adv-x="183" 
d="M85 173c3.33301 5.33301 8.00098 7.99902 14.001 7.99902s12 -3 18 -9c0 -2.66699 -4.33301 -8.66699 -13 -18s-23.334 -30.166 -44.001 -62.499s-31 -53.833 -31 -64.5c0 -6.66699 5 -10.667 15 -12c13.333 0 34 6.5 62 19.5s52.667 26.167 74 39.5l32 20
c0.666992 -1.33301 1 -4 1 -8s-3 -7.33301 -9 -10c-90 -61.333 -152.667 -92 -188 -92c-17.333 0 -26 8.66699 -26 26s9.5 41.5 28.5 72.5s41.167 61.167 66.5 90.5zM158.001 208.999c-2.66699 0 -7.99902 2 -15.999 6l-85 54c-4 4 -6 8.33301 -6 13
c0 9.33301 4.66699 14 14 14c4 0 7.33301 -1.33301 10 -4l79 -65c9.33301 -9.33301 10.666 -15.333 3.99902 -18z" />
    <glyph glyph-name="iacute" unicode="&#xed;" horiz-adv-x="183" 
d="M29 27c0 10.667 10.333 32.1689 31 64.502s35.334 53.166 44.001 62.499s13 15.333 13 18c-4.66699 6 -9.66699 9 -15 9c-7.33301 0 -13 -2.66699 -17 -8c-25.333 -29.333 -47.5 -59.5 -66.5 -90.5s-28.5 -55.167 -28.5 -72.5s8.33301 -26 25 -26s40.667 7.66699 72 23
s58.666 30.666 81.999 45.999l35 23c6 2.66699 9 7 9 13l-1 5c-81.333 -52.667 -137.333 -79 -168 -79c-10 0 -15 4 -15 12zM130 224.002c-3.33301 1.33301 -5 3.33301 -5 6c0.666992 2.66699 3.66699 6.66699 9 12l79 65c2.66699 2.66699 6 4 10 4
c9.33301 0 14 -4.66699 14 -14c0 -4.66699 -2 -9 -6 -13l-85 -54c-8 -4 -13.333 -6 -16 -6z" />
    <glyph glyph-name="icircumflex" unicode="&#xee;" horiz-adv-x="183" 
d="M85 173c3.33301 5.33301 8.00098 7.99902 14.001 7.99902s12 -3 18 -9c0 -2.66699 -4.33301 -8.66699 -13 -18s-23.334 -30.166 -44.001 -62.499s-31 -53.833 -31 -64.5c0 -6.66699 5 -10.667 15 -12c13.333 0 34 6.5 62 19.5s52.667 26.167 74 39.5l32 20
c0.666992 -1.33301 1 -4 1 -8s-3 -7.33301 -9 -10c-90 -61.333 -152.667 -92 -188 -92c-17.333 0 -26 8.66699 -26 26s9.5 41.5 28.5 72.5s41.167 61.167 66.5 90.5zM149.001 262.999c-74.667 -36.667 -115 -55 -121 -55s-9 1.5 -9 4.5s22.333 17.833 67 44.5
s69.667 40 75 40s13.5 -14 24.5 -42s17.833 -45 20.5 -51c-2 -4 -4.66699 -6 -8 -6c-6.66699 0 -19.667 16 -39 48z" />
    <glyph glyph-name="idieresis" unicode="&#xef;" horiz-adv-x="183" 
d="M85 173c3.33301 5.33301 8.00098 7.99902 14.001 7.99902s12 -3 18 -9c0 -2.66699 -4.33301 -8.66699 -13 -18s-23.334 -30.166 -44.001 -62.499s-31 -53.833 -31 -64.5c0 -6.66699 5 -10.667 15 -12c13.333 0 34 6.5 62 19.5s52.667 26.167 74 39.5l32 20
c0.666992 -1.33301 1 -4 1 -8s-3 -7.33301 -9 -10c-90 -61.333 -152.667 -92 -188 -92c-17.333 0 -26 8.66699 -26 26s9.5 41.5 28.5 72.5s41.167 61.167 66.5 90.5zM115.001 304.999c10 0 14.999 -5 14.999 -15s-4.66699 -20.167 -14 -30.5s-19.666 -15.5 -30.999 -15.5
c-9.33301 0 -14 6.5 -14 19.5s5.33301 23.167 16 30.5s20 11 28 11zM220 294.999c10 0 14.999 -5 14.999 -15s-4.66699 -20.167 -14 -30.5s-19.666 -15.5 -30.999 -15.5c-9.33301 0 -14 6.5 -14 19.5s5.33301 23.167 16 30.5s20 11 28 11z" />
    <glyph glyph-name="eth" unicode="&#xf0;" horiz-adv-x="275" 
d="M165 291l85.002 24c37.333 57.333 74.666 105.333 111.999 144s67 58 89 58c5.33301 0 9.66602 -2.83301 12.999 -8.5s5 -11.167 5 -16.5c0 -20 -28 -69.333 -84 -148c18.667 3.33301 31.667 5 39 5s11 -0.666992 11 -2c0 -4.66699 -2.83301 -10 -8.5 -16
s-11.834 -9.33301 -18.501 -10l-45 -7c-62.667 -84 -125.667 -157.333 -189 -220c-4.66699 -18 -7 -37.333 -7 -58s8.66699 -31 26 -31c4.66699 0 12.5 2.5 23.5 7.5s17.333 7.5 19 7.5s2.5 -0.666992 2.5 -2c0 -8 -7 -16.333 -21 -25s-28 -13 -42 -13
c-28 0 -42 18.667 -42 56c0 8.66699 0.333008 15.334 1 20.001c-53.333 -46.667 -94.166 -70 -122.499 -70s-42.5 9.66699 -42.5 29c0 28.667 24.5 64.5 73.5 107.5s95.5 67.5 139.5 73.5c15.333 29.333 33 61 53 95c-8 -2 -33 -9 -75 -21c-3.33301 0 -5 0.666992 -5 2
s1 3.66602 3 6.99902c4 8 6.33301 12 7 12zM17.002 23c0 -10 5.66797 -15 17.001 -15c18 0 53 25 105 75c8.66699 30.667 19 59 31 85c-32.667 -8 -66.334 -29.333 -101.001 -64s-52 -61.667 -52 -81zM432.003 477c0 5.33301 -2 8.00098 -6 8.00098
c-10 0 -28.833 -15.833 -56.5 -47.5s-55.834 -69.834 -84.501 -114.501c28.667 8 54.334 13.667 77.001 17c46.667 67.333 70 113 70 137zM340.003 310.001l-71.001 -12c-40.667 -66.667 -68.667 -123.334 -84 -170.001c54.667 56.667 106.334 117.334 155.001 182.001z" />
    <glyph glyph-name="ntilde" unicode="&#xf1;" horiz-adv-x="357" 
d="M0 76c12.667 7.33301 29.3311 19 49.998 35c50.667 40 77.667 60 81 60c10 0 15 -4.33301 15 -13s-5.16699 -22 -15.5 -40s-22 -36.667 -35 -56s-20.5 -31 -22.5 -35c0.666992 -0.666992 2.16699 -1 4.5 -1s15.5 8.83301 39.5 26.5l75 56c26 19.667 41.333 31 46 34
s9 4.5 13 4.5c8 -0.666992 12 -5.33398 12 -14.001c0 -3.33301 -11.333 -20.166 -34 -50.499s-34 -49.833 -34 -58.5c0 -6 7.16699 -9 21.5 -9s35.5 6.5 63.5 19.5s52.667 26.167 74 39.5l32 20c0.666992 -1.33301 1 -4 1 -8s-3 -7.33301 -9 -10
c-90 -61.333 -152.667 -92 -188 -92c-20.667 0 -31 8 -31 24c0 15.333 4.5 30 13.5 44l23.5 35.5c6.66699 9.66699 10 14.834 10 15.501l-109 -79c-42 -30.667 -65.667 -46 -71 -46c-4 0 -6 4.66699 -6 14s13.167 33.666 39.5 72.999s39.5 60.333 39.5 63s-0.666992 4 -2 4
l-10 -5l-50 -40c-3.33301 -2.66699 -9.66602 -7 -18.999 -13s-15.166 -9 -17.499 -9s-3.5 1.5 -3.5 4.5s1 5.16699 3 6.5zM312.997 226c0 -10 -5.16895 -18.667 -15.502 -26s-21.833 -11 -34.5 -11s-29.667 6.16699 -51 18.5s-36.166 18.5 -44.499 18.5
s-16.833 -3.16699 -25.5 -9.5s-14.667 -9.5 -18 -9.5l-2 1c0 4.66699 6.16699 12.667 18.5 24s24.833 17 37.5 17s30.334 -6.83301 53.001 -20.5s38.167 -20.5 46.5 -20.5s15.833 3.5 22.5 10.5s10.5 10.5 11.5 10.5s1.5 -1 1.5 -3z" />
    <glyph glyph-name="ograve" unicode="&#xf2;" horiz-adv-x="207" 
d="M220 70c-20.667 -12.667 -44.665 -19 -71.998 -19h-12c-18 -20.667 -37.167 -37.5 -57.5 -50.5s-37.833 -19.5 -52.5 -19.5c-20.667 0 -31 13.333 -31 40s14.333 57.667 43 93c-2.66699 7.33301 -4 16.333 -4 27c0 23.333 10.167 43.5 30.5 60.5s40.166 25.5 59.499 25.5
c40.667 0 61 -22 61 -66c0 -29.333 -12.667 -61.333 -38 -96h12c21.333 0 39.666 5 54.999 15c2 2 4.66699 3 8 3s5 -1.16699 5 -3.5s-2.33301 -5.5 -7 -9.5zM124.002 185c3.33301 1.33301 5.99902 1.99902 7.99902 1.99902s3 -1.5 3 -4.5s-3.66699 -7.16699 -11 -12.5
c-26.667 -20.667 -46.667 -39.334 -60 -56.001c14.667 -23.333 37 -38.666 67 -45.999c26 30.667 39 59.334 39 86.001c0 15.333 -5 27 -15 35s-22.833 12 -38.5 12s-30.167 -4.5 -43.5 -13.5s-20 -18.667 -20 -29s1 -18.5 3 -24.5c20.667 21.333 43.334 38.333 68.001 51z
M50.001 91.999c-10.667 -18 -16 -38 -16 -60c0 -12 5.33301 -18 16 -18c18 0 40.333 13.333 67 40c-30 5.33301 -52.333 18 -67 38zM227.001 241.999c-2.66699 0 -7.99902 2 -15.999 6l-85 54c-4 4 -6 8.33301 -6 13c0 9.33301 4.66699 14 14 14c4 0 7.33301 -1.33301 10 -4
l79 -65c9.33301 -9.33301 10.666 -15.333 3.99902 -18z" />
    <glyph glyph-name="oacute" unicode="&#xf3;" horiz-adv-x="207" 
d="M220 70c4.66699 4 6.99805 7.16602 6.99805 9.49902s-1.66699 3.5 -5 3.5s-6 -1 -8 -3c-15.333 -10 -33.666 -15 -54.999 -15h-12c25.333 34.667 38 64.834 38 90.501s-5.33301 44 -16 55s-25.667 16.5 -45 16.5s-39.166 -8.5 -59.499 -25.5s-30.5 -37.167 -30.5 -60.5
c0 -10.667 1.33301 -19.667 4 -27c-28.667 -35.333 -43 -66.333 -43 -93s10.333 -40 31 -40c14.667 0 32.167 6.5 52.5 19.5s39.5 29.833 57.5 50.5h12c27.333 0 51.333 6.33301 72 19zM123.998 184.999c-24.667 -12.667 -47.333 -29.665 -68 -50.998
c-2 6 -3 14.167 -3 24.5s6.66699 20 20 29s27.833 13.5 43.5 13.5s28.5 -4 38.5 -12s15 -19.667 15 -35c0 -26.667 -13 -55.334 -39 -86.001c-30 7.33301 -52.333 22.666 -67 45.999c13.333 16.667 28.5 31.5 45.5 44.5s25.5 21 25.5 24s-1 4.5 -3 4.5zM49.999 92.001
c14.667 -20 37 -32.667 67 -38c-26.667 -26.667 -49 -40 -67 -40c-10.667 0 -16 6 -16 18c0 22 5.33301 42 16 60zM180.999 237.001c-3.33301 1.33301 -5 3.33301 -5 6c0.666992 2.66699 3.66699 6.66699 9 12l79 65c2.66699 2.66699 6 4 10 4c9.33301 0 14 -4.66699 14 -14
c0 -4.66699 -2 -9 -6 -13l-85 -54c-8 -4 -13.333 -6 -16 -6z" />
    <glyph glyph-name="ocircumflex" unicode="&#xf4;" horiz-adv-x="207" 
d="M220 70c-20.667 -12.667 -44.665 -19 -71.998 -19h-12c-18 -20.667 -37.167 -37.5 -57.5 -50.5s-37.833 -19.5 -52.5 -19.5c-20.667 0 -31 13.333 -31 40s14.333 57.667 43 93c-2.66699 7.33301 -4 16.333 -4 27c0 23.333 10.167 43.5 30.5 60.5s40.166 25.5 59.499 25.5
c40.667 0 61 -22 61 -66c0 -29.333 -12.667 -61.333 -38 -96h12c21.333 0 39.666 5 54.999 15c2 2 4.66699 3 8 3s5 -1.16699 5 -3.5s-2.33301 -5.5 -7 -9.5zM124.002 185c3.33301 1.33301 5.99902 1.99902 7.99902 1.99902s3 -1.5 3 -4.5s-3.66699 -7.16699 -11 -12.5
c-26.667 -20.667 -46.667 -39.334 -60 -56.001c14.667 -23.333 37 -38.666 67 -45.999c26 30.667 39 59.334 39 86.001c0 15.333 -5 27 -15 35s-22.833 12 -38.5 12s-30.167 -4.5 -43.5 -13.5s-20 -18.667 -20 -29s1 -18.5 3 -24.5c20.667 21.333 43.334 38.333 68.001 51z
M50.001 91.999c-10.667 -18 -16 -38 -16 -60c0 -12 5.33301 -18 16 -18c18 0 40.333 13.333 67 40c-30 5.33301 -52.333 18 -67 38zM171.001 291.999c-74.667 -36.667 -115 -55 -121 -55s-9 1.5 -9 4.5s22.333 17.833 67 44.5s69.667 40 75 40s13.5 -14 24.5 -42
s17.833 -45 20.5 -51c-2 -4 -4.66699 -6 -8 -6c-5.33301 0 -18.333 16.333 -39 49z" />
    <glyph glyph-name="otilde" unicode="&#xf5;" horiz-adv-x="207" 
d="M220 70c4.66699 4 6.99805 7.16602 6.99805 9.49902s-1.66699 3.5 -5 3.5s-6 -1 -8 -3c-15.333 -10 -33.666 -15 -54.999 -15h-12c25.333 34.667 38 64.834 38 90.501s-5.33301 44 -16 55s-25.667 16.5 -45 16.5s-39.166 -8.5 -59.499 -25.5s-30.5 -37.167 -30.5 -60.5
c0 -10.667 1.33301 -19.667 4 -27c-28.667 -35.333 -43 -66.333 -43 -93s10.333 -40 31 -40c14.667 0 32.167 6.5 52.5 19.5s39.5 29.833 57.5 50.5h12c27.333 0 51.333 6.33301 72 19zM123.998 184.999c-24.667 -12.667 -47.333 -29.665 -68 -50.998
c-2 6 -3 14.167 -3 24.5s6.66699 20 20 29s27.833 13.5 43.5 13.5s28.5 -4 38.5 -12s15 -19.667 15 -35c0 -26.667 -13 -55.334 -39 -86.001c-30 7.33301 -52.333 22.666 -67 45.999c13.333 16.667 28.5 31.5 45.5 44.5s25.5 21 25.5 24s-1 4.5 -3 4.5zM49.999 92.001
c14.667 -20 37 -32.667 67 -38c-26.667 -26.667 -49 -40 -67 -40c-10.667 0 -16 6 -16 18c0 22 5.33301 42 16 60zM264.999 289.001c0 -10 -5.16895 -18.667 -15.502 -26s-21.833 -11 -34.5 -11s-29.667 6.16699 -51 18.5s-36.166 18.5 -44.499 18.5
s-16.833 -3.16699 -25.5 -9.5s-14.667 -9.5 -18 -9.5l-2 1c0 4.66699 6.16699 12.667 18.5 24s24.833 17 37.5 17s30.334 -6.83301 53.001 -20.5s38.167 -20.5 46.5 -20.5s15.833 3.5 22.5 10.5s10.5 10.5 11.5 10.5s1.5 -1 1.5 -3z" />
    <glyph glyph-name="odieresis" unicode="&#xf6;" horiz-adv-x="207" 
d="M220 70c-20.667 -12.667 -44.665 -19 -71.998 -19h-12c-18 -20.667 -37.167 -37.5 -57.5 -50.5s-37.833 -19.5 -52.5 -19.5c-20.667 0 -31 13.333 -31 40s14.333 57.667 43 93c-2.66699 7.33301 -4 16.333 -4 27c0 23.333 10.167 43.5 30.5 60.5s40.166 25.5 59.499 25.5
c40.667 0 61 -22 61 -66c0 -29.333 -12.667 -61.333 -38 -96h12c21.333 0 39.666 5 54.999 15c2 2 4.66699 3 8 3s5 -1.16699 5 -3.5s-2.33301 -5.5 -7 -9.5zM124.002 185c3.33301 1.33301 5.99902 1.99902 7.99902 1.99902s3 -1.5 3 -4.5s-3.66699 -7.16699 -11 -12.5
c-26.667 -20.667 -46.667 -39.334 -60 -56.001c14.667 -23.333 37 -38.666 67 -45.999c26 30.667 39 59.334 39 86.001c0 15.333 -5 27 -15 35s-22.833 12 -38.5 12s-30.167 -4.5 -43.5 -13.5s-20 -18.667 -20 -29s1 -18.5 3 -24.5c20.667 21.333 43.334 38.333 68.001 51z
M50.001 91.999c-10.667 -18 -16 -38 -16 -60c0 -12 5.33301 -18 16 -18c18 0 40.333 13.333 67 40c-30 5.33301 -52.333 18 -67 38zM114.001 325.999c10 0 14.999 -5 14.999 -15s-4.66699 -20.167 -14 -30.5s-19.666 -15.5 -30.999 -15.5c-9.33301 0 -14 6.5 -14 19.5
s5.33301 23.167 16 30.5s20 11 28 11zM219 315.999c10 0 14.999 -5 14.999 -15s-4.66699 -20.167 -14 -30.5s-19.666 -15.5 -30.999 -15.5c-9.33301 0 -14 6.5 -14 19.5s5.33301 23.167 16 30.5s20 11 28 11z" />
    <glyph glyph-name="divide" unicode="&#xf7;" horiz-adv-x="356" 
d="M274 320l-282 -2c-10 -0.666992 -15 -7.66699 -15 -21c0 -4 2 -6.66699 6 -8s32.5 -2 85.5 -2s119.5 2 199.5 6c10 0.666992 15 8 15 22c0 3.33301 -3 5 -9 5zM109.5 189c-6.33301 -6.66699 -13.332 -10 -20.999 -10s-13.334 1.66699 -17.001 5s-5.66699 9 -6 17
s3.16699 14.667 10.5 20s14.333 8 21 8c14.667 0 22 -6.33301 22 -19c0 -7.33301 -3.16699 -14.333 -9.5 -21zM184.501 383c-6.33301 -6.66699 -13.332 -10 -20.999 -10s-13.334 1.66699 -17.001 5s-5.66699 9 -6 17s3.16699 14.667 10.5 20s14.333 8 21 8
c14.667 0 22 -6.33301 22 -19c0 -7.33301 -3.16699 -14.333 -9.5 -21z" />
    <glyph glyph-name="oslash" unicode="&#xf8;" horiz-adv-x="207" 
d="M220 70c-20.667 -12.667 -44.665 -18.999 -71.998 -18.999h-12c-32 -36 -63.333 -58.333 -94 -67l-28 -49c-8 -15.333 -14.5 -23 -19.5 -23s-7.5 2.5 -7.5 7.5s1.33301 9.5 4 13.5l28 49c-16 2 -24 15.667 -24 41s14.333 55.666 43 90.999
c-2.66699 7.33301 -4 16.333 -4 27c0 23.333 10.167 43.5 30.5 60.5s41.833 25.5 64.5 25.5c11.333 0 21.666 -3 30.999 -9l17 31c6.66699 12 13.167 18 19.5 18s9.5 -1.33301 9.5 -4l-34 -57c8.66699 -12 13 -27 13 -45c0 -29.333 -12.667 -61.333 -38 -96h12
c21.333 0 39.666 5 54.999 15c2 2 4.66699 3 8 3s5 -1.16699 5 -3.5s-2.33301 -5.5 -7 -9.5zM124.002 185.001c3.33301 1.33301 5.99902 1.99902 7.99902 1.99902s3 -1.5 3 -4.5s-3.66699 -7.16699 -11 -12.5c-26.667 -20.667 -46.667 -39.334 -60 -56.001
c14.667 -23.333 37 -38.666 67 -45.999c26 30.667 39 59.334 39 86.001c0 15.333 -5 27 -15 35s-22.833 12 -38.5 12s-30.167 -4.5 -43.5 -13.5s-20 -18.667 -20 -29s1 -18.5 3 -24.5c20.667 21.333 43.334 38.333 68.001 51zM50.001 92c-10.667 -18 -16 -38 -16 -60
c0 -12 5.33301 -18 16 -18c18 0 40.333 13.333 67 40c-30 5.33301 -52.333 18 -67 38z" />
    <glyph glyph-name="ugrave" unicode="&#xf9;" horiz-adv-x="318" 
d="M125 10c0 7.33301 5.5 19.6689 16.5 37.002s18.333 28.333 22 33l16.5 22c-79.333 -72 -134 -108 -164 -108c-16.667 0 -25 7 -25 21c0 20 33.667 76.333 101 169c3.33301 5.33301 7.66602 8 12.999 8c15.333 -4.66699 23 -8 23 -10s-2 -6 -6 -12
c-57.333 -77.333 -86 -120.833 -86 -130.5s3.33301 -14.5 10 -14.5c18.667 0 51.834 21.5 99.501 64.5s82.167 78.5 103.5 106.5c2.66699 4.66699 7 7 13 7c13.333 -2.66699 20 -5.33398 20 -8.00098l-30 -42l-31 -42.5l-25 -35.5
c-16.667 -22.667 -26.667 -39.334 -30 -50.001c0 -6.66699 5.5 -10 16.5 -10s30.5 6.5 58.5 19.5s52.667 26.167 74 39.5l32 20c0.666992 -1.33301 1 -4 1 -8s-3 -7.33301 -9 -10c-90 -61.333 -152.667 -92 -188 -92c-17.333 0 -26 8.66699 -26 26zM224 233.003
c-2.66699 0 -7.99902 2 -15.999 6l-85 54c-4 4 -6 8.33301 -6 13c0 9.33301 4.66699 14 14 14c4 0 7.33301 -1.33301 10 -4l79 -65c9.33301 -9.33301 10.666 -15.333 3.99902 -18z" />
    <glyph glyph-name="uacute" unicode="&#xfa;" horiz-adv-x="318" 
d="M180 102c-36.667 -50 -54.998 -80.666 -54.998 -91.999c0 -17.333 8.33301 -26 25 -26s40.667 7.66699 72 23s58.666 30.666 81.999 45.999l35 23c6 2.66699 9 7 9 13l-1 5c-81.333 -52.667 -137.333 -79 -168 -79c-8.66699 0 -13 3.33301 -13 10c4 12 16.167 32 36.5 60
l49.5 68l30 42c0 2.66699 -4 4.66699 -12 6c-10 2 -17 0.333008 -21 -5c-21.333 -28 -55.833 -63.5 -103.5 -106.5s-80.834 -64.5 -99.501 -64.5c-6.66699 0 -10 4.83301 -10 14.5s28.667 53.167 86 130.5c4 6 6 10 6 12s-7.66699 5.33301 -23 10
c-4.66699 0 -9 -2.66699 -13 -8c-67.333 -92.667 -101 -149 -101 -169c0 -14 8.33301 -21 25 -21c30 0 84.667 36 164 108zM185.002 224.001c-3.33301 1.33301 -5 3.33301 -5 6c0.666992 2.66699 3.66699 6.66699 9 12l79 65c2.66699 2.66699 6 4 10 4
c9.33301 0 14 -4.66699 14 -14c0 -4.66699 -2 -9 -6 -13l-85 -54c-8 -4 -13.333 -6 -16 -6z" />
    <glyph glyph-name="ucircumflex" unicode="&#xfb;" horiz-adv-x="318" 
d="M125 10c0 7.33301 5.5 19.6689 16.5 37.002s18.333 28.333 22 33l16.5 22c-79.333 -72 -134 -108 -164 -108c-16.667 0 -25 7 -25 21c0 20 33.667 76.333 101 169c3.33301 5.33301 7.66602 8 12.999 8c15.333 -4.66699 23 -8 23 -10s-2 -6 -6 -12
c-57.333 -77.333 -86 -120.833 -86 -130.5s3.33301 -14.5 10 -14.5c18.667 0 51.834 21.5 99.501 64.5s82.167 78.5 103.5 106.5c2.66699 4.66699 7 7 13 7c13.333 -2.66699 20 -5.33398 20 -8.00098l-30 -42l-31 -42.5l-25 -35.5
c-16.667 -22.667 -26.667 -39.334 -30 -50.001c0 -6.66699 5.5 -10 16.5 -10s30.5 6.5 58.5 19.5s52.667 26.167 74 39.5l32 20c0.666992 -1.33301 1 -4 1 -8s-3 -7.33301 -9 -10c-90 -61.333 -152.667 -92 -188 -92c-17.333 0 -26 8.66699 -26 26zM234 289.003
c-74.667 -36.667 -115 -55 -121 -55s-9 1.5 -9 4.5s22.333 17.833 67 44.5s69.667 40 75 40s13.5 -14 24.5 -42s17.833 -45 20.5 -51c-2 -4 -4.66699 -6 -8 -6c-6.66699 0 -19.667 16 -39 48z" />
    <glyph glyph-name="udieresis" unicode="&#xfc;" horiz-adv-x="318" 
d="M125 10c0 7.33301 5.5 19.6689 16.5 37.002s18.333 28.333 22 33l16.5 22c-79.333 -72 -134 -108 -164 -108c-16.667 0 -25 7 -25 21c0 20 33.667 76.333 101 169c3.33301 5.33301 7.66602 8 12.999 8c15.333 -4.66699 23 -8 23 -10s-2 -6 -6 -12
c-57.333 -77.333 -86 -120.833 -86 -130.5s3.33301 -14.5 10 -14.5c18.667 0 51.834 21.5 99.501 64.5s82.167 78.5 103.5 106.5c2.66699 4.66699 7 7 13 7c13.333 -2.66699 20 -5.33398 20 -8.00098l-30 -42l-31 -42.5l-25 -35.5
c-16.667 -22.667 -26.667 -39.334 -30 -50.001c0 -6.66699 5.5 -10 16.5 -10s30.5 6.5 58.5 19.5s52.667 26.167 74 39.5l32 20c0.666992 -1.33301 1 -4 1 -8s-3 -7.33301 -9 -10c-90 -61.333 -152.667 -92 -188 -92c-17.333 0 -26 8.66699 -26 26zM292 307.003
c10 0 14.999 -5 14.999 -15s-4.66699 -20.167 -14 -30.5s-19.666 -15.5 -30.999 -15.5c-9.33301 0 -14 6.5 -14 19.5s5.33301 23.167 16 30.5s20 11 28 11zM186.999 317.003c10 0 14.999 -5 14.999 -15s-4.66699 -20.167 -14 -30.5s-19.666 -15.5 -30.999 -15.5
c-9.33301 0 -14 6.5 -14 19.5s5.33301 23.167 16 30.5s20 11 28 11z" />
    <glyph glyph-name="yacute" unicode="&#xfd;" horiz-adv-x="249" 
d="M93 -69c61.333 100 96.168 156.002 104.501 168.002l35 52.5c15 23 22.5 34.833 22.5 35.5c0 4.66699 -6.33301 8 -19 10l-15 -7c-38 -52.667 -81 -97 -129 -133c-28 -21.333 -46.5 -32 -55.5 -32s-13.5 4 -13.5 12c0 12.667 30 59.667 90 141c4 6 6 10 6 12
s-7.66699 5.33301 -23 10c-4.66699 0 -9 -2.66699 -13 -8c-70 -96.667 -105 -155.667 -105 -177c0 -14 7.66699 -21 23 -21s35.666 8 60.999 24s47.333 32 66 48l27 24l-96 -166c-70.667 -20 -136.167 -65.5 -196.5 -136.5s-90.5 -126.5 -90.5 -166.5
c0 -23.333 11.333 -35 34 -35c31.333 0 69 28 113 84s96.333 133.667 157 233c12 2 24.5 3 37.5 3s19.5 -3.83301 19.5 -11.5s-3.66699 -14.334 -11 -20.001s-11 -9.83398 -11 -12.501c0 -4.66699 3.33301 -7 10 -7s16 6.33301 28 19s18 23.667 18 33
c0 16.667 -16 25 -48 25c-12 0 -20.667 -0.333008 -26 -1zM-177.998 -384.998c-10.667 0 -15.999 6.83301 -15.999 20.5s5.66699 32.334 17 56.001s26.666 48.667 45.999 75s44.5 51.666 75.5 75.999s63.167 41.833 96.5 52.5c-112.667 -186.667 -185.667 -280 -219 -280z
M177.003 233.002c-3.33301 1.33301 -5 3.33301 -5 6c0.666992 2.66699 3.66699 6.66699 9 12l79 65c2.66699 2.66699 6 4 10 4c9.33301 0 14 -4.66699 14 -14c0 -4.66699 -2 -9 -6 -13l-85 -54c-8 -4 -13.333 -6 -16 -6z" />
    </font>
</defs>
</svg>
