<?xml version="1.0" standalone="no"?>
<!DOCTYPE svg PUBLIC "-//W3C//DTD SVG 1.1//EN" "http://www.w3.org/Graphics/SVG/1.1/DTD/svg11.dtd" >
<svg>
<metadata>
Created by FontForge 20090914 at Fri Feb 24 15:40:10 2012
 By root
Copyright (c) 2011 TypeSETit, LLC (typesetit@att.net),with Reserved Font Name "Playball"
</metadata>
<defs>
<font id="Playball-Regular" horiz-adv-x="449" >
  <font-face 
    font-family="Playball"
    font-weight="400"
    font-stretch="normal"
    units-per-em="1000"
    panose-1="2 0 0 0 0 0 0 0 0 0"
    ascent="800"
    descent="-200"
    x-height="390"
    cap-height="698"
    bbox="-328 -300 1252 949"
    underline-thickness="50"
    underline-position="-50"
    unicode-range="U+0002-U+2122"
  />
<missing-glyph horiz-adv-x="0" 
 />
    <glyph glyph-name=".notdef" horiz-adv-x="0" 
 />
    <glyph glyph-name="b" unicode="b" horiz-adv-x="443" 
d="M516 202c-34 -55 -92 -169 -164 -169c-23 0 -47 13 -56 39c-51 -51 -102 -82 -181 -82c-61 0 -91 16 -91 77c0 22 4 49 12 82c35 148 158 484 219 500c23 6 70 2 89 5c-52 -38 -160 -265 -206 -441c59 104 132 191 204 191c38 0 68 -24 68 -92c0 -71 -34 -145 -82 -204
c1 -22 14 -37 33 -37c30 0 58 37 82 67c25 32 72 118 77 118c4 0 6 -6 6 -16c0 -11 -3 -26 -10 -38zM298 319c-3 1 -7 1 -10 1c-14 1 -29 -8 -45 -20c-49 -37 -134 -156 -134 -232c0 -23 7 -42 29 -42c77 0 175 195 175 264c0 15 -5 26 -15 29z" />
    <glyph glyph-name="c" unicode="c" horiz-adv-x="358" 
d="M430 201c-64 -105 -125 -211 -266 -211c-95 0 -130 58 -130 128c0 135 111 280 250 280c62 0 99 -38 99 -80c0 -40 -25 -80 -64 -80c-21 0 -40 12 -40 37c0 24 51 15 51 67c0 15 -8 26 -28 26c-82 0 -178 -151 -178 -254c0 -48 21 -83 71 -83c62 0 119 50 163 108
c28 36 72 117 76 117s6 -7 6 -17c0 -11 -3 -26 -10 -38z" />
    <glyph glyph-name="d" unicode="d" horiz-adv-x="476" 
d="M601 654c-68 -50 -222 -431 -222 -545c0 -23 7 -32 18 -32c24 0 68 46 79 61c24 31 72 119 76 119s7 -8 7 -19c-1 -32 -46 -96 -83 -146c-28 -37 -87 -98 -134 -98c-40 0 -53 34 -53 79c0 42 5 74 29 149c-51 -102 -137 -225 -223 -225c-37 0 -67 24 -67 92
c0 138 101 315 243 315c29 0 71 -10 90 -44c6 11 10 22 14 30c100 220 94 248 136 259c24 6 72 2 90 5zM356 348c-9 13 -24 18 -40 18c-95 0 -191 -167 -191 -255c0 -21 7 -31 24 -31c59 0 129 102 207 268z" />
    <glyph glyph-name="e" unicode="e" horiz-adv-x="358" 
d="M431 203c-56 -96 -130 -213 -262 -213c-69 0 -135 37 -135 132c0 131 113 276 250 276c62 0 99 -38 99 -80c0 -77 -86 -124 -178 -124c-26 0 -49 4 -62 11c-12 -32 -19 -63 -19 -90c0 -49 21 -84 71 -84c62 0 127 60 163 107c27 34 40 56 71 115c3 5 5 7 7 7
c3 0 6 -7 6 -16c0 -12 -3 -28 -11 -41zM330 339c0 15 -7 29 -28 29c-25 0 -57 -18 -83 -44c-10 -10 -52 -56 -52 -82c0 -15 17 -20 32 -20c59 0 126 59 131 117z" />
    <glyph glyph-name="f" unicode="f" horiz-adv-x="339" 
d="M57 177c-3 -5 -6 -7 -7 -7c-3 0 -5 6 -5 14c0 11 3 25 6 31c29 50 62 124 74 160c5 16 9 22 26 22h8l88 -7c54 142 108 352 282 352c49 0 104 -15 104 -77c0 -37 -23 -75 -60 -75c-17 0 -32 9 -32 26c0 16 30 38 30 64c0 24 -21 37 -42 37c-90 0 -165 -230 -201 -331
c81 0 166 5 180 14c-18 -45 -79 -52 -194 -54l-29 -84c-55 -160 -180 -510 -362 -510c-70 0 -96 40 -96 78c0 33 19 63 46 63c15 0 28 -10 28 -27c0 -12 -21 -32 -21 -55c0 -18 11 -31 25 -31c71 0 130 118 158 174c61 123 117 263 166 391h-28c-24 0 -54 -5 -68 -32
c-22 -42 -46 -90 -76 -136z" />
    <glyph glyph-name="g" unicode="g" horiz-adv-x="436" 
d="M472 400h40c-45 -29 -90 -153 -134 -278c-25 -72 -62 -178 -113 -243c-54 -68 -136 -115 -214 -115c-44 0 -89 16 -89 63c0 29 20 69 56 69c16 0 31 -9 36 -21c-14 -9 -21 -35 -21 -47c0 -21 15 -34 38 -34c71 0 125 94 153 161c34 83 65 178 96 264
c-63 -119 -143 -222 -222 -222c-38 0 -68 23 -68 92c0 138 101 315 243 315c34 0 84 -13 96 -60c19 40 37 56 103 56zM365 335c-7 23 -25 32 -47 32c-94 0 -191 -169 -191 -257c0 -20 7 -30 24 -30c37 0 90 56 124 109c60 93 90 142 90 146z" />
    <glyph glyph-name="h" unicode="h" horiz-adv-x="438" 
d="M510 201c-38 -64 -125 -207 -208 -207c-46 0 -59 32 -59 68c0 56 32 153 63 225c6 16 14 36 14 51c0 12 -5 20 -18 20c-8 0 -20 -4 -37 -12c-114 -57 -143 -214 -165 -276c-8 -23 -16 -47 -23 -70h-97c92 235 212 744 404 744c40 0 53 -20 53 -47c0 -29 -16 -65 -27 -87
c-43 -85 -103 -164 -194 -264c79 58 114 63 146 63c36 0 57 -17 57 -50c0 -14 -4 -30 -12 -50c-17 -43 -66 -157 -66 -205c0 -15 3 -28 17 -28c57 0 123 122 150 174c2 5 5 7 7 7c3 0 5 -7 5 -17c0 -12 -3 -26 -10 -39zM389 719c-51 0 -143 -207 -202 -366
c67 79 141 170 187 264c4 9 28 58 28 85c0 10 -4 17 -13 17z" />
    <glyph glyph-name="i" unicode="i" horiz-adv-x="217" 
d="M322 532h-4c-29 0 -56 -33 -65 -52c-16 6 -26 18 -26 32c0 39 38 83 75 83c23 0 39 -16 39 -33c0 -11 -6 -22 -19 -30zM289 201c-19 -32 -45 -73 -72 -109c-28 -38 -88 -98 -136 -98c-31 0 -56 22 -56 84c0 48 15 110 40 172c18 45 59 150 121 150c11 0 35 -1 50 -1h10
c-12 -9 -33 -46 -40 -60c-39 -77 -88 -171 -88 -232c0 -18 6 -30 19 -30c16 0 52 25 80 61c24 32 72 117 76 117s6 -6 6 -16c0 -11 -3 -26 -10 -38z" />
    <glyph glyph-name="j" unicode="j" horiz-adv-x="215" 
d="M206 390h40c-48 -31 -81 -140 -127 -269c-48 -133 -126 -357 -327 -357c-43 0 -90 15 -90 62c0 29 19 70 57 70c16 0 31 -9 36 -21c-14 -9 -21 -35 -21 -47c0 -22 16 -35 39 -35c71 1 123 94 151 161c46 111 79 233 122 338c29 71 35 98 120 98zM322 532h-4
c-29 0 -56 -33 -65 -52c-16 6 -26 18 -26 32c0 39 38 83 75 83c23 0 39 -16 39 -33c0 -11 -6 -22 -19 -30z" />
    <glyph glyph-name="k" unicode="k" horiz-adv-x="411" 
d="M482 199c-19 -32 -44 -71 -71 -107c-30 -39 -85 -100 -152 -100c-59 0 -82 69 -82 143c0 48 11 89 30 89c57 0 127 28 127 78c0 15 -9 28 -32 28c-62 0 -121 -93 -153 -150c-35 -62 -74 -180 -117 -180h-61c59 111 120 345 181 471c38 78 123 272 230 272
c42 0 55 -23 55 -50c0 -102 -157 -289 -275 -404l-18 -50c56 72 147 155 221 155c39 0 62 -21 62 -52c0 -80 -89 -121 -160 -132c7 -68 15 -138 53 -138c19 0 59 24 91 66c24 31 72 117 76 117c3 0 6 -7 6 -17c0 -11 -3 -27 -11 -39zM384 717c-48 0 -143 -224 -196 -360
c66 77 135 163 180 253c5 9 30 61 30 89c0 11 -4 18 -14 18z" />
    <glyph glyph-name="l" unicode="l" horiz-adv-x="246" 
d="M415 610c-53 -106 -176 -250 -243 -314l-16 -46c-15 -44 -34 -127 -33 -156c0 -21 9 -30 22 -30c34 0 84 52 101 74c25 32 71 117 76 117c4 0 6 -6 6 -16c0 -11 -3 -26 -10 -38c-35 -59 -114 -207 -231 -207c-37 0 -56 29 -56 76c0 50 22 127 48 207
c39 119 149 467 304 467c42 0 55 -24 55 -52c0 -29 -12 -62 -23 -82zM394 719h-7c-56 0 -137 -208 -195 -366c67 79 141 170 187 264c4 9 28 58 28 85c0 10 -4 17 -13 17z" />
    <glyph glyph-name="m" unicode="m" horiz-adv-x="665" 
d="M737 201c-19 -32 -45 -73 -72 -109c-28 -38 -88 -98 -136 -98c-46 0 -59 32 -59 68c0 56 32 153 63 225c6 16 14 36 14 51c0 12 -5 20 -18 20c-8 0 -20 -4 -37 -12c-116 -58 -153 -232 -188 -346h-98l70 190c21 56 45 110 45 145c0 14 -4 23 -19 23c-9 0 -22 -3 -39 -12
c-114 -57 -143 -214 -165 -276c-8 -23 -16 -47 -23 -70h-97s11 42 24 75l65 166c8 20 40 110 40 146c0 6 0 10 -2 13h42c48 0 54 -10 54 -29c0 -17 -9 -36 -12 -46c21 19 92 80 176 80c35 0 53 -14 53 -44c0 -13 -4 -29 -11 -47c48 48 115 91 187 91c34 0 52 -15 52 -44
c0 -14 -4 -31 -12 -52c-17 -44 -66 -159 -66 -205c0 -15 3 -28 17 -28c25 0 69 48 80 62c25 32 72 117 76 117s6 -7 6 -17c0 -11 -3 -25 -10 -37z" />
    <glyph glyph-name="n" unicode="n" horiz-adv-x="436" 
d="M508 201c-19 -32 -45 -73 -72 -109c-28 -38 -88 -98 -136 -98c-46 0 -59 32 -59 68c0 65 47 185 75 258c3 7 4 13 4 19c0 15 -11 21 -25 21c-135 0 -204 -311 -219 -360h-97c-1 22 63 173 88 241c7 20 36 106 36 144c0 6 -1 12 -3 15h42c50 0 55 -11 55 -31
c0 -16 -8 -34 -11 -44c20 19 84 80 169 80c37 0 57 -17 57 -52c0 -12 -3 -27 -8 -44c-15 -44 -66 -162 -66 -208c0 -15 6 -24 18 -24c18 0 54 28 80 61c25 32 72 117 76 117s6 -7 6 -17c0 -11 -3 -25 -10 -37z" />
    <glyph glyph-name="o" unicode="o" 
d="M517 246c2 4 4 6 6 6c4 0 6 -6 6 -15c0 -70 -73 -111 -112 -111c-20 0 -41 7 -56 19c-41 -82 -100 -153 -213 -153c-62 0 -113 36 -113 122c0 124 93 293 243 293c92 0 119 -60 119 -126c0 -34 -8 -68 -21 -101c10 -14 26 -21 43 -21c43 0 74 42 98 87zM350 308
c-2 30 -15 53 -48 53c-61 0 -112 -87 -135 -134c-17 -35 -36 -89 -36 -131c0 -36 14 -64 52 -66c64 0 117 92 141 146c-21 18 -34 44 -34 73c0 36 21 59 54 59h6z" />
    <glyph glyph-name="p" unicode="p" horiz-adv-x="394" 
d="M473 214c-70 -128 -155 -232 -301 -232c-39 0 -92 4 -103 49l-56 -175c-22 -70 -32 -104 -87 -104h-48c39 57 143 387 210 550c29 71 35 98 120 98h30c-19 -13 -53 -68 -79 -120c51 68 108 124 164 124c37 0 67 -24 67 -92c0 -104 -77 -224 -161 -280h8
c61 0 125 64 157 106c25 32 76 127 81 127c4 0 8 -7 8 -17c0 -9 -3 -22 -10 -34zM278 319c-3 1 -6 1 -9 1c-14 0 -30 -7 -46 -20c-48 -37 -133 -157 -133 -233c0 -23 6 -41 29 -41c76 0 174 197 174 264c0 15 -5 26 -15 29z" />
    <glyph glyph-name="q" unicode="q" horiz-adv-x="463" 
d="M536 202c-34 -56 -93 -169 -164 -169c-16 0 -30 8 -36 23l-65 -221c-15 -48 -46 -80 -138 -80c54 74 113 271 178 452c-63 -114 -140 -210 -216 -210c-38 0 -67 23 -67 92c0 138 101 315 243 315c33 0 80 -12 95 -56c18 37 38 52 101 52h30c-55 -34 -113 -198 -142 -284
v-5c0 -23 9 -40 27 -40c28 0 58 38 81 67c24 30 73 120 78 120c3 0 5 -7 5 -17c0 -12 -3 -26 -10 -39zM354 321l7 16c-8 21 -25 30 -46 30c-94 0 -190 -168 -190 -256c0 -21 7 -31 24 -31c78 0 198 224 205 241z" />
    <glyph glyph-name="r" unicode="r" horiz-adv-x="336" 
d="M409 203c-20 -33 -46 -75 -73 -112c-27 -36 -89 -98 -137 -98c-39 0 -57 30 -57 84c0 70 26 173 87 268c-20 -16 -46 -28 -70 -28c-8 0 -16 2 -23 5c-11 -22 -34 -72 -74 -137c-1 -2 -2 -3 -3 -3c-3 0 -5 8 -5 19c0 32 51 118 55 130c-24 12 -36 36 -36 58
c0 25 16 52 47 52c14 0 28 -6 36 -14c-2 -6 -2 -12 -2 -18c0 -37 32 -58 67 -58c4 0 8 0 12 1c19 27 43 50 71 50c11 0 36 -1 51 -1h10c-12 -9 -33 -47 -40 -61c-40 -78 -90 -173 -90 -234c0 -18 7 -30 20 -30c17 1 52 26 81 62c24 31 71 119 76 119c4 0 7 -8 7 -18
s-3 -24 -10 -36z" />
    <glyph glyph-name="s" unicode="s" horiz-adv-x="378" 
d="M451 203c-95 -158 -159 -223 -294 -223c-68 0 -132 26 -132 85c0 28 18 64 52 64c14 0 28 -8 32 -18c-14 -14 -19 -34 -19 -48c0 -27 21 -46 56 -46c44 0 82 35 82 77c0 87 -116 107 -116 199c0 71 53 124 144 124c49 0 100 -15 100 -64c0 -35 -25 -75 -68 -75
c-19 0 -35 9 -35 30c0 17 46 23 46 50c0 22 -23 30 -39 30c-41 0 -75 -22 -75 -59c0 -77 140 -91 140 -195c0 -40 -24 -75 -49 -93c44 19 88 73 119 120c15 22 55 96 60 96c4 0 6 -7 6 -17c0 -11 -3 -25 -10 -37z" />
    <glyph glyph-name="t" unicode="t" horiz-adv-x="249" 
d="M346 573c-28 -19 -66 -72 -110 -174h101c1 0 1 -1 1 -1c0 -6 -19 -30 -30 -30h-86c-33 -82 -79 -193 -79 -252c0 -27 10 -38 24 -38c21 0 53 23 82 60c26 32 72 118 77 118c4 0 6 -7 6 -16c-1 -35 -45 -97 -83 -148c-28 -37 -88 -98 -134 -98c-42 0 -57 36 -57 80
c0 52 17 113 32 154v1c-21 -39 -45 -69 -48 -69s-4 3 -4 9c0 37 51 105 89 199h-67c-2 0 -3 1 -3 3c0 8 14 28 19 28h76c29 70 78 173 146 173c14 0 43 0 48 1z" />
    <glyph glyph-name="u" unicode="u" 
d="M521 201c-19 -32 -45 -72 -72 -109c-28 -37 -88 -98 -135 -98c-32 0 -56 21 -56 83c0 16 1 32 4 50c-80 -113 -142 -133 -179 -133c-32 0 -56 26 -56 82c0 45 38 202 100 292c14 20 24 22 65 22h48c-35 -49 -79 -143 -96 -191c-5 -14 -24 -66 -24 -102
c0 -22 7 -38 27 -38c63 0 158 222 198 286c20 31 41 58 71 58c10 0 31 -1 48 -1c8 0 15 0 19 1c-35 -24 -133 -227 -133 -296c0 -18 6 -30 20 -30c17 0 50 24 79 61c25 32 73 118 77 118s6 -7 6 -16c0 -11 -3 -27 -11 -39z" />
    <glyph glyph-name="v" unicode="v" horiz-adv-x="404" 
d="M474 198c-27 -48 -66 -73 -103 -73c-31 0 -59 18 -73 56c-73 -110 -123 -188 -218 -188c-32 0 -55 33 -55 86c0 51 36 184 82 257c35 55 74 65 140 65c3 0 4 -1 4 -4c0 -2 -2 -6 -6 -10c-53 -45 -127 -228 -127 -288c0 -24 9 -40 33 -40c40 0 97 99 127 178
c-3 14 -5 30 -5 47c0 59 23 118 65 118c25 0 32 -22 32 -46c0 -62 -25 -94 -45 -132c2 -42 24 -65 51 -65c16 0 33 7 50 22c16 14 48 70 51 70c2 0 4 -7 4 -17c0 -12 -2 -28 -7 -36z" />
    <glyph glyph-name="w" unicode="w" horiz-adv-x="677" 
d="M745 246c2 3 3 5 5 5s3 -6 3 -14c0 -80 -73 -112 -111 -112c-31 0 -59 17 -71 56l-3 10c-77 -134 -131 -198 -222 -198c-68 0 -84 47 -84 95c0 15 2 28 4 39c-81 -113 -145 -133 -186 -133c-32 0 -58 29 -58 82s42 186 88 259c35 55 73 65 140 65c2 0 3 -1 3 -4
c0 10 -70 -105 -99 -186c-5 -15 -28 -75 -28 -115c0 -21 6 -36 25 -36c63 0 161 221 186 260c20 32 41 59 71 59c11 0 36 -1 54 -1c9 0 17 0 20 1c-32 -19 -63 -96 -88 -168c-6 -16 -29 -74 -29 -114c0 -32 12 -44 30 -44c77 0 142 146 156 185c-3 15 -5 32 -5 50
c0 61 27 115 65 115c25 0 32 -21 32 -45c0 -63 -26 -94 -44 -133c0 -40 26 -65 51 -65c37 0 70 42 95 87z" />
    <glyph glyph-name="x" unicode="x" horiz-adv-x="448" 
d="M520 201c-23 -39 -45 -75 -72 -108c-33 -40 -98 -102 -151 -102c-59 0 -91 50 -116 138c-42 -44 -84 -84 -120 -129h-74l180 171c-14 39 -29 88 -40 134c-12 -24 -28 -61 -61 -114c-1 -1 -1 -2 -2 -2c-3 0 -5 12 -5 24c0 9 1 18 4 24c43 80 48 162 89 162h52
c7 -40 22 -99 40 -155c36 36 82 92 130 146c7 8 26 10 44 10c13 0 24 -1 30 -1c-69 -61 -130 -123 -196 -192c19 -59 48 -150 91 -150c39 0 84 55 105 81c23 29 73 120 78 120c3 0 5 -6 5 -16c0 -11 -3 -27 -11 -41z" />
    <glyph glyph-name="y" unicode="y" horiz-adv-x="425" 
d="M440 390h41c-47 -30 -85 -146 -128 -268c-26 -72 -52 -172 -100 -232c-45 -56 -114 -91 -186 -91c-51 0 -117 20 -117 81c0 28 18 57 48 57c19 0 37 -13 43 -26c-13 -4 -18 -31 -18 -42c0 -25 20 -42 48 -42c74 0 116 92 136 145l57 152c-98 -123 -136 -130 -183 -130
c-32 0 -57 29 -57 82c1 53 34 177 80 249c35 55 73 65 139 65c3 0 4 -1 4 -4c0 -2 -2 -6 -6 -10c-53 -46 -126 -198 -126 -286c0 -20 5 -34 19 -34c52 0 142 131 178 216c36 86 36 118 128 118z" />
    <glyph glyph-name="z" unicode="z" horiz-adv-x="426" 
d="M498 201c-84 -140 -151 -220 -219 -220c-49 0 -122 60 -160 60c-5 0 -8 -1 -11 -3c-25 -30 -48 -49 -65 -49c-11 0 -17 8 -17 20c0 34 39 56 70 81c97 78 226 203 226 203c0 -1 -74 14 -114 14s-63 -9 -81 -26c-7 -7 -65 -100 -68 -100c-2 0 -4 9 -4 19c0 12 2 26 7 34
c50 96 60 153 137 153c16 0 33 -3 52 -6l12 -2c50 -9 81 -15 104 -15c28 0 43 10 64 34c4 5 11 7 18 7c10 0 21 -4 30 -7l-325 -312c32 -26 68 -37 103 -37c64 -1 128 36 169 89c25 32 74 122 79 122c3 0 5 -6 5 -15c0 -13 -4 -30 -12 -44z" />
    <glyph glyph-name="A" unicode="A" horiz-adv-x="750" 
d="M526 698h166c-57 -56 -249 -53 -329 -71c-72 -17 -107 -64 -107 -128c-22 23 -31 46 -31 69c0 114 147 130 243 130h58zM743 698h72c-35 -33 -70 -144 -87 -216c-24 -98 -54 -227 -54 -328c0 -33 6 -118 59 -118c11 0 23 4 37 13l6 -9c-19 -27 -75 -49 -121 -49
c-77 0 -90 69 -93 136c0 38 9 107 13 132h-229c-85 -90 -161 -172 -234 -259h-100c103 94 437 420 600 601c40 44 66 97 131 97zM640 557c-82 -77 -167 -162 -250 -248h192c16 88 40 181 58 248z" />
    <glyph glyph-name="B" unicode="B" horiz-adv-x="580" 
d="M614 548c-10 -112 -122 -163 -193 -178c112 -21 156 -76 156 -148c0 -134 -161 -239 -374 -239c-91 0 -182 24 -182 106c0 109 166 453 211 541c5 10 10 20 15 28l-36 -5c-90 -13 -199 -45 -232 -102c-1 -2 -2 -3 -4 -3s-5 4 -5 8c0 2 0 3 1 5c49 131 155 137 262 137h34
h163c129 0 184 -64 184 -137v-13zM510 574c-7 70 -69 91 -139 94c-37 -48 -78 -129 -104 -186c-56 -122 -139 -297 -139 -400c0 -52 33 -60 95 -60c112 0 237 58 237 205c0 63 -30 119 -96 128c-22 -6 -86 -17 -120 -17c-12 0 -17 3 -17 7c0 35 70 40 90 40
c17 0 35 -1 55 -4c92 28 138 111 138 180v13z" />
    <glyph glyph-name="C" unicode="C" horiz-adv-x="680" 
d="M716 556c-22 -55 -87 -97 -150 -97c-28 0 -50 13 -50 36c0 9 4 19 12 30c8 -3 16 -4 25 -4c49 0 105 39 105 92c0 46 -38 58 -77 58c-209 0 -415 -243 -415 -478c0 -114 52 -178 162 -178c137 0 315 127 364 247c13 -9 19 -21 19 -35c0 -38 -39 -86 -58 -106
c-95 -97 -232 -151 -365 -151c-164 0 -235 83 -235 219c0 219 202 519 494 519c107 0 177 -47 177 -112c0 -13 -3 -26 -8 -40z" />
    <glyph glyph-name="D" unicode="D" horiz-adv-x="710" 
d="M723 358c-40 -243 -245 -378 -476 -378c-100 0 -217 17 -217 111c0 127 173 462 212 539c5 10 10 20 15 28c-91 -7 -231 -44 -268 -107c-1 -2 -2 -3 -4 -3s-5 4 -5 8c0 2 0 3 1 5c49 131 155 137 262 137h34h171c201 0 280 -128 280 -273c0 -22 -2 -44 -5 -67zM618 350
c7 29 11 59 11 88c0 59 -17 116 -57 161c-47 52 -140 68 -191 68c-36 -48 -78 -129 -104 -185c-45 -97 -86 -194 -118 -295c-10 -30 -21 -70 -21 -102c0 -53 27 -62 91 -62c189 0 347 144 389 327z" />
    <glyph glyph-name="E" unicode="E" horiz-adv-x="570" 
d="M586 688c1 -5 2 -10 2 -16c0 -51 -47 -142 -59 -142c-6 0 -11 0 -11 8c0 13 8 42 8 60c0 42 -39 67 -89 67c-37 0 -60 -3 -75 -26c-53 -79 -96 -162 -133 -248h261l1 -1c0 -8 -24 -48 -37 -48h-247c-33 -80 -79 -218 -79 -257c0 -34 18 -51 70 -51c130 0 301 19 346 114
c1 2 3 3 6 3s7 -3 7 -11c0 -3 -1 -6 -2 -11c-38 -120 -113 -129 -203 -129h-41h-261c-22 0 -31 18 -31 47c0 76 59 223 89 295h-55c-6 0 -8 2 -8 5c0 13 33 44 50 44h34c33 79 58 142 102 220c10 18 19 35 31 49c-108 -14 -238 -49 -273 -109c-1 -2 -2 -3 -4 -3s-5 4 -5 8
c0 2 0 3 1 5c49 131 155 137 262 137h34h164c47 0 84 5 109 5c20 0 32 -3 36 -15z" />
    <glyph glyph-name="F" unicode="F" horiz-adv-x="380" 
d="M616 688c1 -5 2 -10 2 -16c0 -51 -47 -142 -59 -142c-6 0 -11 0 -11 8c0 13 8 42 8 60c0 42 -46 67 -96 67c-37 0 -59 -3 -75 -26c-41 -58 -85 -156 -124 -248h222l1 -1c0 -8 -24 -48 -37 -48h-207c-30 -73 -97 -248 -97 -320c0 -9 1 -17 4 -22h-129
c22 94 68 215 120 342h-55c-6 0 -8 2 -8 5c0 13 33 44 50 44h34c43 102 84 200 131 269c-107 -15 -236 -49 -271 -109c-1 -2 -2 -3 -4 -3s-5 4 -5 8c0 2 0 3 1 5c49 131 155 137 262 137h34h164c47 0 84 5 109 5c20 0 32 -3 36 -15z" />
    <glyph glyph-name="G" unicode="G" horiz-adv-x="740" 
d="M792 313c-10 -51 -34 -69 -70 -75c-69 -187 -210 -276 -399 -276c-176 0 -272 87 -272 234c0 223 216 512 496 512c107 0 177 -47 177 -112c0 -73 -80 -137 -158 -137c-28 0 -50 13 -50 36c0 9 4 19 12 30c8 -3 16 -4 25 -4c49 0 105 39 105 92c0 46 -38 58 -77 58
c-203 0 -407 -266 -407 -497c0 -123 70 -169 161 -169c131 0 284 88 307 230c-61 0 -172 1 -215 -5c0 0 42 83 72 83h293z" />
    <glyph glyph-name="H" unicode="H" horiz-adv-x="680" 
d="M793 698h64c-36 -28 -91 -127 -125 -200c-54 -115 -135 -306 -135 -403c0 -30 9 -59 37 -59c10 0 23 4 39 13h1c2 0 3 -3 3 -6c0 -28 -99 -52 -132 -52c-48 0 -61 28 -61 65c0 69 31 162 81 286h-283c-31 -72 -99 -248 -99 -320c0 -9 1 -17 4 -22h-129
c23 100 78 240 134 373c37 88 68 166 114 249c9 16 16 29 25 39c-105 -2 -254 -49 -274 -112c-1 -2 -2 -3 -4 -3c-4 0 -9 5 -9 13c0 3 1 6 2 10c40 116 126 129 211 129h47h179c-59 -45 -139 -212 -181 -307h283c44 104 91 202 111 239c22 43 34 68 97 68z" />
    <glyph glyph-name="I" unicode="I" horiz-adv-x="280" 
d="M284 698h179c-63 -48 -151 -239 -190 -328c-23 -52 -110 -268 -110 -349c0 -9 1 -16 4 -21h-129c23 100 78 240 134 373c37 88 68 166 114 249c9 16 16 29 25 39c-105 -2 -254 -49 -274 -112c-1 -2 -2 -3 -4 -3c-4 0 -9 5 -9 13c0 3 1 6 2 10c40 116 126 129 211 129h47z
" />
    <glyph glyph-name="J" unicode="J" horiz-adv-x="390" 
d="M363 698l225 -1c-102 -78 -119 -90 -193 -298c-48 -136 -159 -569 -376 -569c-63 0 -104 38 -104 97c0 19 9 66 46 70c0 -2 -1 -4 -1 -6c0 -41 26 -55 50 -55c126 0 262 350 298 439c32 80 117 254 183 277c-22 6 -59 8 -92 8c-102 0 -261 -44 -283 -111
c-1 -2 -2 -3 -4 -3c-4 0 -9 5 -9 13c0 3 1 6 2 10c40 116 126 129 211 129h47z" />
    <glyph glyph-name="K" unicode="K" horiz-adv-x="640" 
d="M871 687c-90 0 -329 -159 -473 -289c47 -156 191 -344 269 -396c-10 -2 -29 -3 -48 -3c-40 0 -85 3 -85 3c-61 0 -188 243 -203 333c-37 -37 -71 -77 -96 -113c-20 -28 -59 -143 -59 -200c0 -9 1 -17 4 -22h-129c32 122 161 501 257 637c2 4 12 17 17 24
c-104 -2 -254 -49 -274 -112c-1 -2 -2 -3 -4 -3c-3 0 -8 5 -8 13c0 3 1 6 2 10c40 117 125 129 211 129h46h180c-75 -57 -188 -302 -229 -406c105 151 394 414 562 414c22 0 65 -4 65 -14c0 -3 -2 -5 -5 -5z" />
    <glyph glyph-name="L" unicode="L" horiz-adv-x="570" 
d="M564 129c-38 -121 -112 -129 -202 -129h-42h-261c-28 0 -40 21 -40 56c0 131 143 401 239 574c3 5 13 24 19 31c-105 -2 -254 -49 -274 -112c-1 -2 -2 -3 -4 -3c-4 0 -9 5 -9 13c0 3 1 6 2 10c43 117 125 129 211 129h47h180c-30 -23 -72 -87 -114 -162
c-50 -90 -179 -347 -179 -437c0 -37 16 -65 71 -65c126 0 298 17 346 114c1 2 3 3 5 3c3 0 7 -3 7 -10c0 -3 -1 -7 -2 -12z" />
    <glyph glyph-name="M" unicode="M" horiz-adv-x="840" 
d="M966 698h62c-43 -33 -100 -144 -136 -216c-57 -115 -135 -293 -135 -391c0 -29 8 -55 35 -55c10 0 23 4 39 13h1c2 0 3 -3 3 -5c0 -29 -100 -53 -133 -53c-52 0 -67 32 -67 73c0 19 3 41 8 63c25 114 137 338 196 450c-17 -16 -36 -33 -54 -54
c-116 -130 -195 -236 -286 -354c-51 -65 -61 -77 -94 -77c-17 0 -36 5 -57 15c18 23 25 105 25 201c0 97 -8 209 -20 289c-25 -47 -224 -496 -224 -588c0 -4 0 -7 1 -9h-92c87 224 273 632 292 669c-119 0 -258 -55 -279 -120c-1 -2 -2 -3 -4 -3c-3 0 -8 5 -8 13
c0 3 1 6 2 10c40 117 125 129 210 129h47h50h30c33 0 62 -5 71 -51c11 -64 21 -305 21 -384c0 -19 0 -41 -2 -61l370 449c30 35 81 47 128 47z" />
    <glyph glyph-name="N" unicode="N" horiz-adv-x="640" 
d="M858 697c-84 -55 -298 -555 -298 -679c0 -7 0 -13 2 -18h-63c-3 80 -28 119 -117 328c-39 91 -55 158 -59 206c-62 -138 -194 -450 -194 -525c0 -4 0 -7 1 -9h-92c87 224 273 632 292 669c-119 0 -258 -55 -279 -120c-1 -2 -2 -3 -4 -3c-3 0 -8 5 -8 13c0 3 1 6 2 10
c40 117 125 129 210 129h47h122c-3 -5 -14 -19 -14 -56c0 -40 12 -102 57 -208c87 -209 74 -213 79 -250c39 99 168 388 223 514c1 3 10 5 21 5c24 0 61 -6 72 -6z" />
    <glyph glyph-name="O" unicode="O" horiz-adv-x="763" 
d="M778 303c-84 -191 -251 -335 -467 -335c-148 0 -248 59 -248 219c0 269 237 521 502 521c178 0 254 -99 254 -227c0 -56 -14 -117 -41 -178zM731 551c-15 81 -74 111 -141 111c-221 0 -410 -256 -410 -476c0 -97 39 -177 145 -177c216 0 411 273 411 490
c0 18 -2 36 -5 52z" />
    <glyph glyph-name="P" unicode="P" horiz-adv-x="490" 
d="M664 548c-16 -183 -211 -246 -382 -246c-16 0 -32 1 -46 3c-34 -86 -83 -223 -83 -283c0 -10 1 -17 4 -22h-129c23 100 78 240 134 373c37 88 68 166 114 249c9 16 16 29 25 39c-105 -2 -254 -49 -274 -112c-1 -2 -2 -3 -4 -3c-4 0 -9 5 -9 13c0 3 1 6 2 10
c40 116 126 129 211 129h47h206c129 0 184 -64 184 -137v-13zM512 420c31 34 49 82 49 125c0 73 -41 117 -138 123c-58 -72 -127 -222 -160 -298l-21 -49h12c89 0 197 30 258 99z" />
    <glyph glyph-name="Q" unicode="Q" horiz-adv-x="763" 
d="M798 303c-50 -113 -129 -210 -230 -270c29 -63 28 -222 108 -222c11 0 25 6 35 16c5 -10 8 -20 8 -30c0 -45 -46 -77 -94 -77c-137 0 -117 182 -133 277c-50 -19 -104 -29 -161 -29c-148 0 -248 59 -248 219c0 269 237 521 502 521c179 0 254 -99 254 -227
c0 -56 -14 -117 -41 -178zM751 551c-15 81 -70 111 -135 111c-216 0 -413 -266 -413 -483c0 -93 39 -169 142 -169c38 0 87 10 136 34c-14 37 -41 55 -65 55c-10 0 -21 -4 -27 -4s-9 2 -9 6c0 20 39 26 60 26c40 0 73 -19 98 -47c132 99 218 276 218 419c0 18 -2 36 -5 52z
" />
    <glyph glyph-name="R" unicode="R" horiz-adv-x="610" 
d="M645 562c0 -124 -118 -190 -226 -210l-32 -6c47 -163 145 -275 210 -344c-10 -2 -28 -3 -46 -3c-36 0 -77 3 -77 3c-88 0 -181 302 -181 347c0 8 3 15 14 16c113 14 236 58 242 184c0 71 -37 113 -139 119c-60 -81 -131 -234 -173 -336c-22 -55 -94 -237 -94 -310
c0 -9 1 -17 4 -22h-129c23 100 78 240 134 373c37 88 68 166 114 249c9 16 16 29 25 39c-105 -2 -254 -49 -274 -112c-1 -2 -2 -3 -4 -3c-4 0 -9 5 -9 13c0 3 1 6 2 10c40 116 126 129 211 129h47h196c130 0 185 -63 185 -136z" />
    <glyph glyph-name="S" unicode="S" horiz-adv-x="523" 
d="M524 499c-6 -1 -12 -1 -17 -1c-29 0 -55 12 -55 43c0 5 1 10 2 16c37 0 67 35 67 66c0 36 -38 58 -82 58c-79 0 -134 -56 -134 -117c0 -71 96 -142 151 -196c54 -54 76 -110 76 -163c0 -123 -124 -225 -275 -225c-114 0 -205 34 -205 124c0 41 28 93 88 93
c27 0 50 -14 58 -30c-25 -20 -35 -51 -35 -73c0 -45 38 -77 96 -77c78 0 151 63 151 148c0 73 -53 125 -93 168c-54 57 -107 107 -107 190c0 120 107 193 235 193c123 0 166 -51 166 -106c0 -52 -40 -104 -87 -111z" />
    <glyph glyph-name="T" unicode="T" horiz-adv-x="400" 
d="M373 638h-13c-29 0 -65 2 -103 2c-101 0 -226 -21 -226 -114c0 -14 8 -29 8 -42c0 -6 -5 -10 -10 -10c-20 0 -29 53 -29 70c0 130 132 162 255 162c147 0 218 -21 370 -21c58 0 109 6 130 28c2 -5 3 -9 3 -14c0 -44 -61 -72 -153 -72c-57 0 -121 6 -141 6
c-9 0 -53 -93 -73 -136c-52 -110 -131 -301 -131 -380c0 -25 10 -46 31 -46c18 0 45 18 80 65c3 4 6 6 9 6c4 0 6 -3 6 -10c0 -18 -72 -154 -178 -154c-44 0 -55 37 -55 76c0 26 5 54 9 72c27 128 147 393 211 512z" />
    <glyph glyph-name="U" unicode="U" horiz-adv-x="710" 
d="M308 630c3 5 13 24 19 31c-105 -2 -254 -49 -274 -112c-1 -2 -2 -3 -4 -3c-4 0 -9 5 -9 13c0 3 1 6 2 10c43 117 125 129 211 129h47h180c-70 -53 -185 -300 -220 -386c-13 -30 -55 -127 -55 -193c0 -36 13 -63 51 -63c124 0 376 389 447 521c45 85 80 121 127 121h62
c-43 -33 -101 -144 -137 -216c-57 -115 -135 -293 -135 -391c0 -29 8 -55 35 -55c10 0 24 4 40 13h1c2 0 3 -3 3 -6c0 -28 -99 -51 -131 -51c-49 0 -64 31 -64 74c0 49 38 170 92 287c-120 -180 -245 -360 -372 -360c-72 0 -115 30 -115 111c0 118 107 360 199 526z" />
    <glyph glyph-name="V" unicode="V" horiz-adv-x="450" 
d="M580 698h90l-389 -601c-28 -43 -54 -97 -99 -97h-64c24 46 22 135 26 209c2 46 4 96 4 146c0 108 -7 265 -60 265c-12 0 -27 -10 -43 -35l-1 -1c-2 0 -4 3 -4 6v1c15 48 87 120 130 120c73 0 81 -147 81 -302c0 -123 -8 -252 -12 -298c112 157 296 484 341 587z" />
    <glyph glyph-name="W" unicode="W" horiz-adv-x="1000" 
d="M1103 607v-16c0 -139 -97 -331 -211 -457c-54 -59 -147 -128 -243 -128c-90 0 -124 71 -124 186c0 49 7 103 18 158c-40 -79 -93 -174 -155 -246c-78 -90 -147 -108 -197 -108c-55 0 -108 36 -108 147c0 130 106 365 242 486c14 13 29 21 45 27
c-76 -15 -170 -19 -222 -31c-72 -16 -107 -64 -107 -128c-22 23 -31 46 -31 69c0 117 158 132 254 132h47h158c2 0 2 -1 2 -2c0 -7 -22 -31 -36 -40c-55 -33 -139 -150 -197 -295c-20 -48 -50 -141 -50 -211c0 -50 15 -87 63 -87c54 0 143 107 222 224c54 81 83 181 123 257
c24 46 85 101 144 101c19 0 28 -5 28 -10c-59 -80 -147 -265 -147 -430c0 -86 27 -139 81 -142c110 0 199 167 252 313c19 51 51 150 51 220c0 45 -13 79 -53 79c-11 0 -22 -2 -36 -7c3 24 38 41 77 41c50 0 106 -28 110 -102z" />
    <glyph glyph-name="X" unicode="X" horiz-adv-x="560" 
d="M790 695c-116 -100 -232 -209 -344 -322c65 -248 114 -360 125 -373h-141l-75 280c-87 -92 -170 -186 -247 -280h-108c117 107 232 215 343 327l-67 261c-5 20 -17 43 -46 43c-17 0 -47 -8 -78 -39c-1 -1 -2 -1 -3 -1c-3 0 -7 7 -7 13c0 3 1 5 3 7c37 35 110 86 174 86
c52 0 61 -42 74 -101c12 -55 28 -123 41 -177c83 85 163 171 241 260c13 14 38 17 63 17c19 0 37 -1 52 -1z" />
    <glyph glyph-name="Y" unicode="Y" horiz-adv-x="684" 
d="M756 698c-128 -89 -360 -316 -424 -618c-5 -23 -8 -42 -8 -57c0 -10 1 -18 4 -23h-129c17 75 75 200 75 276c0 95 -81 343 -159 343c-28 0 -62 -22 -104 -78c-1 -1 -1 -1 -2 -1c-3 0 -5 7 -5 12c0 2 0 4 1 5c42 84 84 138 179 138c77 0 103 -46 130 -136
c20 -69 43 -154 60 -222c75 104 174 251 243 341c14 18 48 21 82 21c21 0 42 -1 57 -1z" />
    <glyph glyph-name="Z" unicode="Z" horiz-adv-x="683" 
d="M800 698c-216 -188 -415 -381 -607 -570c18 -9 48 -18 82 -25c35 -8 133 -31 214 -31c68 0 125 16 125 72c0 12 -4 22 -14 29v0c0 3 6 10 9 10c37 -1 71 -31 71 -69c0 -58 -65 -127 -181 -127c-140 0 -268 101 -323 101c-49 0 -88 -99 -140 -99c-21 0 -36 18 -36 40
c0 17 10 36 31 49c108 67 239 186 346 288l271 262c-48 -22 -130 -40 -178 -40c-54 0 -139 13 -180 13c-37 0 -88 -37 -92 -85c0 -3 -5 -6 -10 -6c-7 0 -7 12 -7 20c0 59 59 133 92 153c22 13 52 18 83 18c34 0 69 -6 96 -12c66 -15 129 -24 174 -24c71 0 83 37 145 37
c12 0 22 -1 29 -4z" />
    <glyph glyph-name="ampersand" unicode="&#x26;" horiz-adv-x="789" 
d="M745 427c2 -4 3 -11 3 -19c0 -126 -172 -89 -290 -148l-2 -1c13 4 25 7 36 7c49 0 74 -36 74 -75c0 -146 -205 -223 -324 -223c-93 0 -229 32 -229 149c0 141 138 245 276 251c-48 24 -77 66 -77 112c0 130 154 195 267 195c74 0 133 -43 133 -100c0 -50 -43 -87 -83 -87
c-7 0 -14 1 -19 5c31 17 45 46 45 72c0 41 -35 59 -84 59c-104 0 -184 -88 -184 -159c0 -62 48 -86 84 -88h20c19 0 27 -3 27 -11c0 -11 -18 -27 -31 -27c-14 0 -28 7 -44 7c-130 0 -219 -125 -219 -209c0 -69 46 -129 137 -129c154 0 235 101 235 180c0 38 -17 58 -55 58
c-25 0 -43 -42 -44 -58c-11 13 -16 27 -16 40c0 38 42 74 99 92l151 46c50 15 104 38 114 61z" />
    <glyph glyph-name="zero" unicode="0" horiz-adv-x="610" 
d="M596 340c-51 -174 -193 -352 -385 -352c-131 0 -186 102 -186 226c0 205 156 481 401 481c134 0 190 -99 190 -221c0 -43 -7 -89 -20 -134zM490 289c20 61 31 123 31 178c0 105 -40 185 -131 185c-144 0 -260 -243 -260 -430c0 -109 39 -186 128 -186
c101 0 188 117 232 253z" />
    <glyph glyph-name="one" unicode="1" horiz-adv-x="349" 
d="M264 708h126c-70 -162 -226 -607 -245 -708h-121c35 82 242 632 242 632l-142 -132h-35z" />
    <glyph glyph-name="two" unicode="2" horiz-adv-x="568" 
d="M600 547c-17 -108 -124 -185 -214 -231c-81 -41 -240 -120 -273 -182h9c32 0 86 -16 104 -22c57 -19 171 -35 204 -35c51 0 99 15 100 73h27c-3 -87 -58 -167 -164 -167c-41 0 -89 13 -121 37c-23 17 -87 71 -130 71c-63 0 -21 -103 -82 -103c-15 0 -30 11 -30 38
c-1 183 280 281 424 465c24 31 37 68 37 100c0 51 -32 92 -100 92c-76 0 -156 -85 -156 -159c0 -10 1 -19 4 -28c-16 -11 -31 -16 -44 -16c-26 0 -45 20 -45 57c0 135 174 179 262 179c92 0 190 -31 190 -141c0 -9 -1 -18 -2 -28z" />
    <glyph glyph-name="three" unicode="3" horiz-adv-x="600" 
d="M389 380c112 -18 164 -90 164 -162c0 -143 -169 -231 -317 -231c-108 0 -216 39 -216 146c0 50 35 110 92 110c13 0 27 -4 39 -10c-24 -35 -38 -69 -38 -101c0 -79 62 -113 136 -113c103 0 186 82 186 184c0 85 -63 153 -149 153c-24 0 -51 -6 -78 -18
c-4 -2 -8 -3 -12 -3c-15 0 -24 14 -24 28c0 20 16 40 56 40c24 0 52 -6 76 -17c99 25 174 106 174 199c0 56 -32 105 -114 105c-81 0 -147 -74 -147 -153c0 -13 2 -26 6 -39c-8 -3 -15 -5 -23 -5c-27 0 -50 24 -50 67c0 110 141 157 240 157c102 0 203 -28 203 -139
c0 -77 -72 -162 -204 -198z" />
    <glyph glyph-name="four" unicode="4" horiz-adv-x="687" 
d="M545 221c-15 -2 -30 -4 -46 -4c-12 0 -24 1 -37 3c-32 -100 -55 -180 -65 -220h-119c17 38 51 127 90 233c-85 19 -165 54 -233 54c-112 0 -52 -90 -104 -90c-14 0 -27 14 -27 42c0 31 17 54 43 67l469 402h124c-40 -95 -101 -258 -154 -418c72 5 137 26 137 83
c0 10 -3 21 -9 29c8 6 15 8 23 8c28 0 47 -37 47 -62c0 -49 -44 -112 -139 -127zM527 659l-402 -339c151 -8 124 -23 265 -28z" />
    <glyph glyph-name="five" unicode="5" horiz-adv-x="583" 
d="M572 602l-28 -72h-20l5 17c4 11 6 23 6 29c-4 69 -80 67 -184 67h-76c0 0 -64 -137 -89 -197c60 19 80 20 117 20c152 0 250 -90 250 -202c0 -194 -185 -272 -332 -272c-106 0 -207 48 -207 161c0 58 37 123 98 123c16 0 32 -5 45 -14c-32 -35 -45 -84 -45 -120
c0 -85 61 -120 132 -120c101 0 187 96 187 219c0 112 -85 183 -187 183c-38 0 -86 -20 -109 -20c-8 0 -13 3 -13 11c0 5 2 12 6 22c36 87 93 209 122 271h190c45 0 81 4 106 5c35 0 48 -5 48 -32c0 -22 -10 -52 -22 -79z" />
    <glyph glyph-name="six" unicode="6" horiz-adv-x="583" 
d="M566 532c-11 -7 -23 -12 -35 -12c-17 0 -33 9 -43 33c18 12 26 35 26 53c0 48 -35 68 -81 68c-107 0 -209 -121 -266 -282c57 47 129 64 193 64c118 0 186 -72 186 -176c0 -191 -157 -286 -312 -286c-158 0 -203 84 -203 202c0 222 164 517 401 517
c75 0 157 -35 157 -125c0 -25 -8 -47 -23 -56zM310 413c-125 -6 -178 -117 -178 -238c0 -81 36 -147 114 -147c116 0 194 125 194 233c0 86 -45 152 -130 152z" />
    <glyph glyph-name="seven" unicode="7" horiz-adv-x="539" 
d="M523 637c-87 -112 -240 -294 -306 -416c-14 -25 -36 -73 -36 -109c0 -23 11 -49 41 -49c6 0 13 1 20 3c-13 -59 -64 -77 -101 -77c-47 0 -89 31 -89 88c0 200 395 443 395 543c0 5 -1 9 -2 14h-212c-183 0 -105 -140 -172 -140c-7 1 -10 4 -10 7c0 1 0 2 1 3
c11 30 18 72 27 109c20 84 32 100 86 100c27 0 64 -5 111 -5h253c13 0 15 -18 15 -26c0 -9 -3 -22 -21 -45z" />
    <glyph glyph-name="eight" unicode="8" horiz-adv-x="587" 
d="M440 394c67 -38 100 -94 100 -155c0 -136 -153 -250 -317 -250c-125 0 -219 72 -219 172c0 103 90 193 218 235c-48 32 -73 69 -73 123c0 112 93 201 257 201c120 0 195 -58 195 -144c0 -83 -61 -145 -161 -182zM397 684c-83 0 -161 -53 -161 -118
c0 -57 72 -121 150 -139c76 29 143 76 146 145c0 62 -67 112 -135 112zM284 343c-98 -39 -181 -101 -181 -190c0 -66 55 -118 145 -118c89 0 200 53 200 173c0 84 -80 113 -164 135z" />
    <glyph glyph-name="nine" unicode="9" horiz-adv-x="614" 
d="M467 126c-70 -88 -168 -139 -287 -139c-73 0 -160 19 -160 120c0 40 26 87 74 87c13 0 25 -3 37 -9c-17 -25 -20 -59 -20 -83c0 -59 41 -83 87 -83c27 0 55 8 80 22c102 57 143 145 190 269c-54 -39 -119 -57 -172 -57c-132 0 -216 85 -216 202c0 170 129 259 280 259
c179 0 236 -91 236 -217c0 -123 -54 -277 -129 -371zM359 678c-107 -1 -175 -113 -175 -214c0 -89 53 -169 142 -169c125 0 167 101 167 216c0 93 -45 167 -134 167z" />
    <glyph glyph-name="period" unicode="." horiz-adv-x="271" 
d="M222 49c-16 -3 -53 -42 -61 -57c-9 3 -49 17 -49 41c0 23 32 52 71 52c22 0 41 -7 41 -25c0 -4 -1 -7 -2 -11z" />
    <glyph glyph-name="periodcentered" unicode="&#xb7;" horiz-adv-x="271" 
d="M263 323c-13 -13 -46 -61 -54 -61c-19 0 -55 26 -55 44c0 29 50 60 95 60c15 0 24 -7 24 -22c0 -8 -3 -16 -10 -21z" />
    <glyph glyph-name="comma" unicode="," horiz-adv-x="271" 
d="M246 64c-34 -79 -112 -198 -148 -198c-4 0 -9 1 -14 4c48 72 70 151 77 196c1 9 21 13 41 13c22 0 44 -5 44 -13v-2z" />
    <glyph glyph-name="colon" unicode=":" horiz-adv-x="284" 
d="M222 49c-16 -3 -53 -42 -61 -57c-9 3 -49 17 -49 41c0 23 32 52 71 52c22 0 41 -7 41 -25c0 -4 -1 -7 -2 -11zM326 354c-16 -3 -53 -42 -61 -57c-9 3 -49 17 -49 41c0 23 32 52 71 52c22 0 41 -7 41 -25c0 -4 -1 -7 -2 -11z" />
    <glyph glyph-name="semicolon" unicode=";" horiz-adv-x="342" 
d="M353 337c-16 -3 -53 -42 -61 -57c-9 3 -49 17 -49 41c0 23 32 52 71 52c22 0 41 -7 41 -25c0 -4 -1 -7 -2 -11zM246 64c-34 -79 -112 -198 -148 -198c-4 0 -9 1 -14 4c48 72 70 151 77 196c1 9 21 13 41 13c22 0 44 -5 44 -13v-2z" />
    <glyph glyph-name="exclam" unicode="!" horiz-adv-x="351" 
d="M401 651c-84 -121 -216 -390 -226 -419l-41 -8c17 37 94 263 146 406c7 19 28 24 52 24c20 0 43 -4 58 -4c4 0 8 0 11 1zM159 49c-16 -3 -53 -42 -61 -57c-9 3 -49 17 -49 41c0 23 32 52 71 52c22 0 41 -7 41 -25c0 -4 -1 -7 -2 -11z" />
    <glyph glyph-name="exclamdown" unicode="&#xa1;" horiz-adv-x="375" 
d="M374 490c-16 -3 -53 -42 -61 -57c-9 3 -49 17 -49 41c0 23 32 52 71 52c22 0 41 -7 41 -25c0 -4 -1 -7 -2 -11zM15 -109c84 121 216 390 226 419l41 8c-17 -37 -94 -263 -146 -406c-7 -19 -28 -24 -52 -24c-20 0 -43 4 -59 4c-4 0 -7 -1 -10 -1z" />
    <glyph glyph-name="question" unicode="?" horiz-adv-x="551" 
d="M553 539c-10 -86 -82 -120 -159 -152c-76 -32 -183 -80 -183 -152c0 -4 1 -9 1 -14c0 -16 -21 -29 -38 -29c-15 0 -23 8 -23 27c0 41 33 79 65 103c3 4 224 133 224 225c0 60 -35 94 -86 94c-23 0 -131 -26 -131 -124c0 -10 2 -21 7 -31c-9 -5 -19 -8 -28 -8
c-29 0 -56 25 -56 66c0 96 139 131 220 131c95 0 188 -25 188 -119c0 -5 0 -11 -1 -17zM195 49c-16 -3 -53 -42 -61 -57c-9 3 -49 17 -49 41c0 23 32 52 71 52c22 0 41 -7 41 -25c0 -4 -1 -7 -2 -11z" />
    <glyph glyph-name="questiondown" unicode="&#xbf;" horiz-adv-x="508" 
d="M434 -22c-13 -84 -140 -117 -219 -117c-93 0 -188 24 -188 119c0 98 80 135 161 169c75 31 183 79 183 151c0 5 -2 10 -2 15c0 16 21 29 38 29c15 0 23 -8 23 -28c0 -41 -32 -78 -64 -102c-4 -4 -224 -133 -224 -225c0 -60 37 -94 86 -94c23 0 130 26 130 123
c0 10 -2 21 -7 32c9 5 19 8 28 8c30 0 56 -25 56 -66c0 -4 0 -9 -1 -14zM506 494c-16 -3 -53 -42 -61 -57c-9 3 -49 17 -49 41c0 23 32 52 71 52c22 0 41 -7 41 -25c0 -4 -1 -7 -2 -11z" />
    <glyph glyph-name="quotesingle" unicode="'" horiz-adv-x="143" 
d="M256 650c-34 -79 -112 -198 -148 -198c-4 0 -9 1 -14 4c48 72 70 151 77 196c1 9 21 13 41 13c22 0 44 -5 44 -13v-2z" />
    <glyph glyph-name="quotedbl" unicode="&#x22;" horiz-adv-x="373" 
d="M357 688c-58 -75 -120 -171 -130 -192c-2 -3 -12 -4 -21 -4c-8 0 -16 1 -16 3c12 17 51 125 78 194c4 9 25 12 46 12c22 0 44 -4 44 -11c0 0 0 -1 -1 -2zM219 688c-57 -75 -120 -171 -130 -192c-1 -3 -11 -4 -20 -4s-16 1 -16 3c11 17 51 125 78 194c4 9 25 12 45 12
c22 0 44 -4 44 -10c0 -1 0 -2 -1 -3z" />
    <glyph glyph-name="guillemotleft" unicode="&#xab;" horiz-adv-x="671" 
d="M656 521c1 1 2 1 2 1c2 0 2 -2 2 -4c0 -37 -179 -162 -271 -218c59 -41 158 -120 191 -176c1 -1 1 -3 1 -4c0 -16 -35 -44 -47 -44c-1 0 -2 0 -2 1c-68 77 -123 132 -201 188c-13 9 -21 16 -21 22c0 7 8 14 25 24c111 62 220 132 321 210zM414 521c1 1 2 1 3 1s1 -1 1 -3
c0 -38 -179 -163 -270 -219c58 -41 158 -120 190 -176c1 -2 1 -3 1 -5c0 -16 -35 -43 -47 -43c-1 0 -2 0 -2 1c-68 77 -123 132 -201 188c-12 9 -20 16 -20 22c0 7 8 14 25 24c110 62 218 133 320 210z" />
    <glyph glyph-name="guillemotright" unicode="&#xbb;" horiz-adv-x="693" 
d="M696 333c12 -9 20 -15 20 -22c0 -6 -8 -13 -25 -23c-110 -62 -218 -133 -320 -211c-1 -1 -2 -1 -3 -1s-2 1 -2 4c0 39 181 163 271 218c-58 41 -157 120 -190 177c-1 1 -1 3 -1 4c0 16 34 43 46 43c1 0 2 0 3 -1c68 -77 123 -132 201 -188zM454 333c13 -9 20 -15 20 -22
c0 -6 -7 -13 -24 -23c-111 -62 -219 -133 -321 -211c-1 -1 -2 -1 -3 -1s-2 1 -2 4c0 38 179 163 271 218c-58 41 -157 120 -190 177c-1 1 -1 3 -1 4c0 16 34 43 46 43c1 0 2 0 3 -1c68 -77 123 -132 201 -188z" />
    <glyph glyph-name="onesuperior" unicode="&#xb9;" horiz-adv-x="291" 
d="M194 706h108c-58 -135 -180 -488 -196 -572h-106c29 68 188 499 188 499l-111 -100h-48z" />
    <glyph glyph-name="twosuperior" unicode="&#xb2;" horiz-adv-x="491" 
d="M474 571c-29 -175 -269 -168 -384 -318c83 -29 175 -55 243 -55c41 0 75 11 75 61h19c0 -74 -32 -138 -121 -138s-164 92 -208 92c-57 0 -20 -88 -70 -88c-15 0 -25 12 -25 40c0 78 68 142 133 190c87 64 226 143 226 247c0 36 -20 64 -67 64c-57 0 -112 -59 -112 -118
c0 -10 2 -19 5 -28c-11 -7 -21 -10 -31 -10c-27 0 -49 24 -49 61c0 101 134 136 205 136c82 0 163 -24 163 -111c0 -8 -1 -16 -2 -25z" />
    <glyph glyph-name="threesuperior" unicode="&#xb3;" horiz-adv-x="473" 
d="M474 569c-7 -61 -62 -111 -134 -137c65 -14 103 -64 103 -121c0 -132 -137 -201 -264 -201c-88 0 -175 36 -175 124c0 45 32 98 83 98c16 0 31 -6 44 -15c-22 -30 -36 -60 -36 -86c0 -56 41 -83 96 -83c79 0 139 69 139 145c0 68 -44 116 -106 116c-21 0 -44 -12 -59 -12
c-14 0 -26 11 -26 24c0 16 16 29 45 29c19 0 39 -4 53 -9c72 17 129 88 129 154c0 40 -22 74 -79 74c-61 0 -108 -56 -108 -115c0 -12 2 -25 7 -37c-11 -7 -21 -9 -30 -9c-28 0 -49 25 -49 64c0 98 125 133 198 133c85 0 170 -26 170 -119c0 -6 0 -11 -1 -17z" />
    <glyph glyph-name="onequarter" unicode="&#xbc;" horiz-adv-x="993" 
d="M989 297c1 -5 2 -11 2 -17c0 -50 -51 -108 -156 -108c-7 0 -15 0 -22 1c-25 -78 -44 -143 -50 -173h-106c11 25 40 101 72 186c-60 14 -129 41 -180 41c-82 0 -36 -71 -79 -71c-14 0 -29 11 -29 34c0 29 14 48 37 61l373 321h108c-32 -73 -82 -209 -123 -332
c51 4 97 20 97 60c0 9 -4 19 -10 23c9 8 18 11 26 11c20 0 35 -21 40 -37zM661 694l-556 -752c-2 -3 -9 -3 -17 -3c-16 0 -35 3 -35 7v1l556 752c2 2 9 3 17 3c15 0 35 -3 35 -7v-1zM195 706h108c-58 -135 -180 -488 -196 -572h-106c29 68 188 499 188 499l-111 -100h-48z
M850 512l-295 -249c103 -6 94 -17 194 -22z" />
    <glyph glyph-name="onehalf" unicode="&#xbd;" horiz-adv-x="950" 
d="M926 439c-29 -175 -269 -168 -384 -318c83 -29 175 -55 243 -55c41 0 75 11 75 61h19c0 -74 -32 -138 -121 -138s-164 92 -208 92c-57 0 -20 -88 -70 -88c-15 0 -25 12 -25 40c0 78 68 142 133 190c87 64 226 143 226 247c0 36 -20 64 -67 64c-57 0 -112 -59 -112 -118
c0 -10 2 -19 5 -28c-11 -7 -21 -10 -31 -10c-27 0 -49 24 -49 61c0 101 134 136 205 136c82 0 163 -24 163 -111c0 -8 -1 -16 -2 -25zM622 694l-556 -752c-2 -3 -9 -3 -17 -3c-16 0 -35 3 -35 7v1l556 752c2 2 9 3 17 3c15 0 35 -3 35 -7v-1zM194 742h108
c-58 -135 -180 -488 -196 -572h-106c29 68 188 499 188 499l-111 -100h-48z" />
    <glyph glyph-name="threequarters" unicode="&#xbe;" horiz-adv-x="1220" 
d="M1220 297c1 -5 2 -11 2 -17c0 -50 -51 -108 -156 -108c-7 0 -15 0 -22 1c-25 -78 -44 -143 -50 -173h-106c11 25 40 101 72 186c-60 14 -129 41 -180 41c-82 0 -36 -71 -79 -71c-14 0 -29 11 -29 34c0 29 14 48 37 61l373 321h108c-32 -73 -82 -209 -123 -332
c51 4 97 20 97 60c0 9 -4 19 -10 23c9 8 18 11 26 11c20 0 35 -21 40 -37zM923 694l-556 -752c-2 -3 -9 -3 -17 -3c-16 0 -35 3 -35 7v1l556 752c2 2 9 3 17 3c15 0 35 -3 35 -7v-1zM474 569c-7 -61 -62 -111 -134 -137c65 -14 103 -64 103 -121c0 -132 -137 -201 -264 -201
c-88 0 -175 36 -175 124c0 45 32 98 83 98c16 0 31 -6 44 -15c-22 -30 -36 -60 -36 -86c0 -56 41 -83 96 -83c79 0 139 69 139 145c0 68 -44 116 -106 116c-21 0 -44 -12 -59 -12c-14 0 -26 11 -26 24c0 16 16 29 45 29c19 0 39 -4 53 -9c72 17 129 88 129 154
c0 40 -22 74 -79 74c-61 0 -108 -56 -108 -115c0 -12 2 -25 7 -37c-11 -7 -21 -9 -30 -9c-28 0 -49 25 -49 64c0 98 125 133 198 133c85 0 170 -26 170 -119c0 -6 0 -11 -1 -17zM1081 512l-295 -249c103 -6 94 -17 194 -22z" />
    <glyph glyph-name="ordfeminine" unicode="&#xaa;" horiz-adv-x="473" 
d="M545 504c-19 -32 -45 -73 -72 -110c-28 -37 -87 -98 -134 -98c-41 0 -54 36 -54 83c0 37 6 79 21 122c-62 -110 -136 -202 -211 -202c-38 0 -67 23 -67 92c0 138 101 315 243 315c34 0 84 -13 97 -61c15 31 50 57 77 57c11 0 35 -1 50 -1h10c-44 -36 -129 -229 -129 -296
c0 -17 6 -26 18 -26c17 -1 51 25 79 61c25 32 73 118 77 118s6 -6 6 -15c0 -12 -3 -27 -11 -39zM362 636c-7 23 -25 32 -47 32c-94 0 -190 -167 -190 -255c0 -21 7 -31 24 -31c37 0 90 56 124 109c59 93 85 138 89 145z" />
    <glyph glyph-name="ordmasculine" unicode="&#xba;" horiz-adv-x="436" 
d="M475 498c-47 -75 -108 -179 -175 -179c-17 0 -32 7 -44 21c-34 -31 -80 -52 -140 -52c-62 0 -114 35 -114 122c0 124 93 293 243 293c90 0 119 -59 119 -123c0 -77 -34 -143 -70 -197c5 -10 14 -16 26 -16c30 0 61 38 83 67c25 32 72 118 76 118s6 -6 6 -16
c0 -11 -3 -26 -10 -38zM287 464l7 15c9 21 24 69 24 110c0 37 -11 68 -49 68c-61 0 -112 -87 -135 -134c-17 -35 -36 -89 -36 -131c0 -36 14 -64 52 -66c33 0 61 22 87 54l-2 13c-1 6 -2 12 -2 18c0 40 21 64 38 64c6 0 12 -4 16 -11z" />
    <glyph glyph-name="degree" unicode="&#xb0;" horiz-adv-x="833" 
d="M526 588c-20 -60 -79 -115 -164 -115c-64 0 -93 38 -93 84c0 71 66 152 169 152c66 0 94 -38 94 -83c0 -12 -2 -25 -6 -38zM448 678c-5 1 -9 1 -13 1c-64 0 -111 -73 -111 -125c0 -31 15 -53 52 -53c64 0 113 73 113 125c0 26 -12 47 -41 52z" />
    <glyph glyph-name="less" unicode="&#x3c;" horiz-adv-x="479" 
d="M457 577c1 1 2 1 3 1c2 0 2 -1 2 -4c0 -8 -8 -28 -15 -38c-41 -49 -250 -191 -323 -235c73 -52 197 -150 238 -221c1 -2 1 -4 1 -6c0 -20 -44 -53 -58 -53c-1 0 -2 0 -3 1c-85 96 -154 165 -251 235c-16 11 -25 19 -25 27c0 9 9 17 30 29c138 78 273 167 401 264z" />
    <glyph glyph-name="greater" unicode="&#x3e;" horiz-adv-x="479" 
d="M492 342c16 -11 25 -20 25 -28c0 -9 -9 -17 -30 -29c-138 -78 -273 -166 -401 -263c-1 -1 -2 -2 -3 -2c-2 0 -3 2 -3 5c0 9 8 29 16 37c40 50 250 191 323 236c-73 51 -197 150 -238 221c-1 2 -2 4 -2 6c0 20 45 53 59 53c1 0 2 0 3 -1c85 -96 154 -165 251 -235z" />
    <glyph glyph-name="plus" unicode="+" horiz-adv-x="722" 
d="M700 373c1 0 1 -1 1 -2c0 -10 -44 -63 -63 -63c-37 0 -164 8 -248 9l-3 -6c-33 -66 -80 -194 -90 -237c-4 -17 -79 -40 -97 -40c-2 0 -3 0 -3 1v1c42 78 94 198 129 282c-85 0 -201 -1 -279 -7c-1 0 -2 0 -2 1c0 10 44 64 63 64c39 0 166 -8 238 -8c29 72 65 168 77 206
c5 17 77 40 95 40c3 0 4 0 4 -1v-1l-110 -244c103 1 244 3 288 5z" />
    <glyph glyph-name="plusminus" unicode="&#xb1;" horiz-adv-x="722" 
d="M700 373c1 0 1 -1 1 -2c0 -10 -44 -63 -63 -63c-37 0 -164 8 -248 9l-3 -6c-33 -66 -80 -194 -90 -237c-4 -17 -79 -40 -97 -40c-2 0 -3 0 -3 1v1c42 78 94 198 129 282c-85 0 -201 -1 -279 -7c-1 0 -2 0 -2 1c0 10 44 64 63 64c39 0 166 -8 238 -8c29 72 65 168 77 206
c5 17 77 40 95 40c3 0 4 0 4 -1v-1l-110 -244c103 1 244 3 288 5zM11 -39h483c1 0 1 0 1 -1c0 -9 -33 -57 -47 -57h-483c-1 0 -1 0 -1 1c0 9 33 57 47 57z" />
    <glyph glyph-name="hyphen" unicode="-" horiz-adv-x="490" 
d="M200 288h279c1 0 1 -1 1 -2c0 -9 -33 -63 -47 -63h-279c-1 0 -1 0 -1 1c0 10 34 64 47 64z" />
    <glyph glyph-name="equal" unicode="=" horiz-adv-x="531" 
d="M194 425h319c1 0 1 -1 1 -2c0 -9 -31 -56 -44 -56h-319c-1 0 -1 0 -1 1c0 10 30 57 44 57zM140 238h319c1 0 1 -1 1 -2c0 -9 -31 -56 -44 -56h-319c-1 0 -1 0 -1 1c0 10 30 57 44 57z" />
    <glyph glyph-name="logicalnot" unicode="&#xac;" horiz-adv-x="811" 
d="M710 321c-12 -55 -54 -303 -69 -303c-6 0 -14 5 -16 13l21 292l-643 -9v45l666 10c12 0 42 -19 42 -42c0 -2 -1 -4 -1 -6z" />
    <glyph glyph-name="mu" unicode="&#xb5;" horiz-adv-x="453" 
d="M525 202c-19 -32 -45 -73 -72 -110c-28 -37 -88 -98 -135 -98c-32 0 -56 21 -56 83c0 16 1 32 4 50c-81 -113 -145 -133 -186 -133c-3 0 -7 0 -10 1c-50 -111 -134 -231 -278 -231c-43 0 -90 15 -90 62c0 29 19 70 57 70c16 0 31 -9 36 -21c-14 -9 -21 -35 -21 -47
c0 -22 16 -35 39 -35c71 0 123 94 151 161c29 70 53 144 77 217c20 62 44 137 83 197c13 20 31 22 72 22h45c-35 -49 -70 -132 -87 -180c-5 -15 -28 -75 -28 -115c0 -21 6 -36 25 -36c63 0 155 219 195 283c20 31 41 58 71 58c10 0 31 -1 48 -1c8 0 15 0 19 1
c-37 -24 -130 -224 -130 -293c0 -18 6 -30 20 -30c17 0 50 24 79 61c25 32 73 118 77 118s6 -6 6 -15c0 -12 -3 -27 -11 -39z" />
    <glyph glyph-name="percent" unicode="%" horiz-adv-x="670" 
d="M577 672c-14 -21 -37 -51 -85 -87l-332 -585c-2 -4 -17 -5 -31 -5c-13 0 -25 1 -25 4v1l328 575c-7 -2 -17 -4 -28 -4c-22 0 -47 6 -66 25c1 -8 1 -17 1 -26c0 -84 -57 -200 -161 -200c-64 0 -92 51 -92 112c0 89 60 198 160 198c72 0 77 -68 135 -68c44 0 95 34 118 73
c7 12 25 17 43 17c20 0 39 -7 39 -20c0 -3 -2 -6 -4 -10zM586 146c-18 -74 -73 -151 -156 -151c-64 0 -92 51 -92 113c0 89 60 198 160 198c68 0 94 -53 94 -111c0 -16 -2 -33 -6 -49zM283 513c7 22 10 43 10 61c0 38 -14 62 -42 62c-46 0 -92 -79 -92 -150
c0 -38 15 -63 41 -63c33 0 65 39 83 90zM535 138c7 22 10 43 10 61c0 38 -14 62 -42 62c-46 0 -92 -79 -92 -149c0 -39 15 -63 41 -63c33 0 66 38 83 89z" />
    <glyph glyph-name="numbersign" unicode="#" horiz-adv-x="781" 
d="M603 468h145c1 0 1 -1 1 -2c0 -9 -33 -63 -47 -63h-124l-57 -147h155c1 0 1 -1 1 -2c0 -9 -33 -63 -47 -63h-134l-70 -182c0 -1 -1 -1 -1 -1c-7 0 -44 48 -44 64c0 1 1 2 1 3l45 116h-158l-70 -182c0 -1 -1 -1 -1 -1c-7 0 -44 48 -44 64c0 1 1 2 1 3l45 116h-138
c-1 0 -1 0 -1 1c0 10 33 64 46 64h118l57 147h-149c-1 0 -1 0 -1 1c0 10 33 64 47 64h128l53 137s0 1 1 1c7 0 43 -48 43 -65v-2l-27 -71h157l53 137s0 1 1 1c6 0 43 -48 43 -65v-2zM452 256l56 147h-157l-56 -147h157z" />
    <glyph glyph-name="asterisk" unicode="*" horiz-adv-x="652" 
d="M598 586l24 -74l-269 -99l-1 -3l210 -96l-69 -75l-165 143l-7 -3l-43 -240h-91l102 240l-4 3l-253 -143l-24 74l269 96l1 4l-210 98l69 74l166 -144l6 2l44 243h90l-102 -243l4 -2z" />
    <glyph glyph-name="slash" unicode="/" horiz-adv-x="455" 
d="M678 694l-556 -752c-2 -3 -9 -3 -17 -3c-16 0 -35 3 -35 7v1l556 752c2 2 9 3 17 3c15 0 35 -3 35 -7v-1z" />
    <glyph glyph-name="backslash" unicode="\" horiz-adv-x="455" 
d="M170 699l254 -752c1 -5 -35 -8 -60 -8c-13 0 -23 0 -24 3l-254 752c-1 5 35 8 60 8c13 0 23 -1 24 -3z" />
    <glyph glyph-name="bar" unicode="|" horiz-adv-x="457" 
d="M279 697h69l-106 -750h-70z" />
    <glyph glyph-name="brokenbar" unicode="&#xa6;" horiz-adv-x="457" 
d="M401 691l-46 -317c0 -3 -6 -3 -13 -3c-13 0 -33 3 -32 8l46 317c0 2 6 3 13 3c13 0 33 -3 32 -8zM340 259l-46 -317c0 -3 -6 -3 -13 -3c-13 0 -33 3 -32 8l46 317c0 2 6 3 13 3c13 0 33 -3 32 -8z" />
    <glyph glyph-name="paragraph" unicode="&#xb6;" horiz-adv-x="558" 
d="M309 698h362c-54 -41 -138 -204 -165 -260c-73 -148 -151 -358 -151 -440c0 -31 8 -54 28 -61h-71c-29 0 -41 21 -41 56c0 75 74 270 153 436c46 97 101 214 136 249h-53c-53 -58 -121 -190 -146 -240c-43 -88 -134 -315 -156 -400c-10 -36 -16 -72 -16 -101
c0 -32 8 -55 28 -62h-57c-29 0 -41 21 -41 56c0 73 45 192 134 407c-11 -1 -22 -1 -32 -1c-123 0 -178 66 -178 142c0 101 98 219 266 219zM431 678h-67c-155 0 -221 -93 -221 -178c0 -70 45 -133 122 -133c47 103 126 280 166 311z" />
    <glyph glyph-name="braceleft" unicode="{" horiz-adv-x="457" 
d="M500 712l-9 -31c-189 0 -175 -117 -212 -214c-27 -69 -117 -124 -197 -127c58 -1 124 -42 124 -98c0 -78 -46 -147 -46 -221c0 -59 55 -72 106 -72c14 0 28 1 39 1l-12 -29c-7 0 -45 -2 -52 -2c-94 0 -186 1 -186 87c0 76 57 164 57 242c0 70 -70 81 -103 81l10 31
c79 6 128 7 164 103c28 75 11 156 124 212c35 18 73 37 167 37h26z" />
    <glyph glyph-name="braceright" unicode="}" horiz-adv-x="572" 
d="M500 302l-10 -31c-79 -6 -128 -7 -164 -103c-28 -76 -11 -156 -124 -212c-36 -18 -73 -38 -167 -38c-8 0 -17 1 -26 1l10 31c187 0 174 117 211 214c26 68 115 124 197 127c-59 1 -124 42 -124 98c0 78 46 147 46 221c0 59 -55 72 -106 72c-15 0 -28 -1 -39 -1l12 29
c7 0 45 2 52 2c94 0 186 -1 186 -87c0 -76 -57 -164 -57 -242c0 -70 70 -81 103 -81z" />
    <glyph glyph-name="parenleft" unicode="(" horiz-adv-x="620" 
d="M612 706l-8 -27c-236 -59 -463 -318 -463 -564c0 -67 21 -124 95 -124c14 0 25 1 33 2l-7 -30c-21 -8 -64 -16 -93 -16c-92 0 -119 77 -119 150c0 267 289 564 562 609z" />
    <glyph glyph-name="parenright" unicode=")" horiz-adv-x="574" 
d="M547 443c-61 -231 -315 -456 -546 -495l8 27c236 60 462 318 462 564c0 67 -21 124 -94 124c-13 0 -26 -1 -33 -2l7 30c21 8 64 16 93 16c92 0 119 -78 119 -150c0 -39 -7 -79 -16 -114z" />
    <glyph glyph-name="bracketleft" unicode="[" horiz-adv-x="455" 
d="M280 712h243l-16 -48h-153l-235 -693h153l-16 -48h-243z" />
    <glyph glyph-name="bracketright" unicode="]" horiz-adv-x="455" 
d="M280 712h243l-267 -789h-243l16 48h153l235 693h-153z" />
    <glyph glyph-name="currency" unicode="&#xa4;" horiz-adv-x="833" 
d="M565 489l146 104h1c2 0 3 -6 3 -16c0 -25 -7 -71 -18 -79l-90 -64c9 -20 14 -43 14 -67c0 -43 -18 -86 -45 -119l68 -65c2 -2 3 -6 3 -13c0 -26 -17 -82 -22 -82h-1l-111 106c-36 -21 -77 -33 -120 -33c-46 0 -86 14 -117 37l-155 -110h-1c-2 0 -3 6 -3 15
c0 26 7 73 17 80l97 68c-12 21 -18 46 -18 71c0 45 16 85 42 119l-59 57c-2 2 -3 6 -3 12c0 27 18 83 24 83h1l100 -96c36 22 79 35 123 35c50 0 92 -16 124 -43zM549 347c1 6 1 11 1 17c0 67 -50 119 -117 119c-79 0 -148 -70 -148 -153c0 -67 49 -119 117 -119
c72 0 138 61 147 136z" />
    <glyph glyph-name="dollar" unicode="$" horiz-adv-x="455" 
d="M445 559c5 -8 7 -18 7 -27c0 -23 -13 -45 -41 -45h-6c0 26 -22 49 -45 62l-56 -147l19 -13c45 -31 85 -71 85 -127c0 -83 -91 -178 -223 -178h-4l-55 -142c-1 -3 -7 -3 -14 -3c-14 0 -30 3 -30 8l55 142c-51 11 -92 42 -92 95c0 39 24 88 68 88c3 0 7 0 11 -1
c-17 -12 -22 -25 -22 -40c0 -29 18 -63 60 -77l74 193c-37 33 -74 77 -74 122c0 54 55 128 172 132l38 98c1 2 7 3 14 3c13 0 30 -3 30 -7v-1l-37 -96c28 -5 53 -17 66 -39zM269 431l50 131h-8c-39 0 -73 -27 -73 -66c0 -28 13 -48 31 -65zM288 306l-17 12l-65 -168
c73 4 119 48 119 93c0 22 -12 45 -37 63z" />
    <glyph glyph-name="cent" unicode="&#xa2;" horiz-adv-x="481" 
d="M458 476c-10 -29 -27 -40 -42 -40c-17 0 -32 14 -32 33c0 20 25 36 25 61c0 17 -13 27 -31 30l-160 -415c25 0 56 4 97 17c44 14 112 88 119 88c4 0 6 -4 6 -11c0 -11 -5 -28 -15 -42c-58 -79 -157 -108 -229 -108l-56 -147c-1 -3 -7 -3 -14 -3c-12 0 -29 3 -29 7v1
l56 146c-1 0 -1 1 -2 1c-72 15 -102 71 -102 140c0 161 150 352 298 364l39 101c1 2 7 3 14 3c13 0 30 -3 30 -7v-1l-38 -99c44 -8 73 -35 73 -78c0 -12 -2 -26 -7 -41zM177 155l154 401c-107 -37 -194 -195 -194 -317c0 -38 11 -69 40 -84z" />
    <glyph glyph-name="sterling" unicode="&#xa3;" horiz-adv-x="643" 
d="M630 125c2 -6 3 -12 3 -18c0 -52 -58 -116 -163 -116c-127 0 -240 91 -292 91c-62 0 -84 -91 -134 -91c-15 0 -24 13 -24 31c0 44 44 83 98 90c35 58 61 133 89 211h-92c-1 0 -1 1 -1 2c0 9 19 45 31 45h79c49 137 129 319 258 319c50 0 74 -30 74 -74
c0 -25 -12 -57 -22 -57c-1 0 -2 1 -2 2c-6 38 -21 52 -38 52c-61 0 -134 -150 -177 -242h118c1 0 1 -1 1 -3c0 -9 -19 -44 -30 -44h-111l-15 -34c-26 -59 -55 -126 -97 -177c25 -3 52 -9 80 -15c33 -7 120 -29 194 -29c61 0 116 15 116 65c0 11 -3 21 -13 28v1c0 2 5 8 8 8
c27 -1 54 -19 62 -45z" />
    <glyph glyph-name="yen" unicode="&#xa5;" horiz-adv-x="655" 
d="M727 698c-99 -69 -218 -184 -318 -356h88c1 0 1 -1 1 -2c0 -9 -31 -56 -44 -56h-76c-17 -33 -32 -67 -45 -101h120c1 0 1 -1 1 -2c0 -9 -31 -56 -44 -56h-96c-10 -37 -19 -78 -19 -102c0 -10 1 -18 4 -23h-129c8 37 21 79 37 125h-116c-1 0 -1 0 -1 1c0 10 30 57 44 57
h93c11 33 18 64 18 91v10h-110c-1 0 -1 0 -1 1c0 10 30 57 44 57h57c-18 79 -55 175 -82 241c-12 29 -28 46 -51 46c-18 0 -42 -12 -72 -37c-1 -1 -2 -1 -2 -1c-3 0 -6 7 -6 12c0 2 1 4 2 5c41 44 116 88 172 88c45 0 54 -28 76 -96c23 -73 52 -181 73 -263
c75 104 174 251 243 341c14 18 48 21 82 21c21 0 42 -1 57 -1z" />
    <glyph glyph-name="at" unicode="@" horiz-adv-x="917" 
d="M812 190c-40 -62 -127 -108 -199 -108c-59 0 -106 31 -106 110c0 23 4 49 12 79c-55 -87 -112 -149 -167 -149c-37 0 -70 34 -70 92c0 136 96 302 234 302c44 0 65 -17 84 -72l3 6c17 34 29 52 76 52h56c-78 -61 -149 -270 -149 -330c0 -46 21 -65 48 -65
c101 0 171 155 171 272c0 147 -89 283 -272 283c-215 0 -367 -203 -367 -400c0 -215 148 -294 294 -294c149 0 317 93 371 182c2 4 4 6 6 6c3 0 5 -7 5 -17c0 -155 -270 -204 -399 -204c-196 0 -355 89 -355 310c0 213 167 437 442 437c215 0 345 -131 345 -293
c0 -64 -20 -132 -63 -199zM574 393l22 43c-4 28 -32 42 -61 42c-105 0 -164 -138 -164 -223c0 -42 16 -64 35 -64c48 0 137 142 168 202z" />
    <glyph glyph-name="copyright" unicode="&#xa9;" horiz-adv-x="674" 
d="M790 343c-25 -189 -212 -342 -418 -342c-191 0 -331 131 -331 300c0 208 200 384 421 384c191 0 331 -131 331 -301c0 -13 -1 -27 -3 -41zM714 344c1 12 2 24 2 36c0 152 -112 270 -263 270c-176 0 -334 -158 -334 -343c0 -152 111 -269 263 -269c163 0 312 137 332 306z
M588 244c-51 -64 -128 -119 -228 -119s-146 77 -146 165c0 134 108 293 261 293c67 0 104 -42 104 -90c0 -42 -25 -86 -68 -86c-23 0 -44 14 -44 43c0 19 48 10 48 63c0 21 -12 39 -38 39c-80 0 -177 -150 -177 -268c0 -68 31 -119 90 -119c67 0 135 49 183 111c3 4 6 5 8 5
c7 0 12 -9 12 -20c0 -6 -1 -12 -5 -17z" />
    <glyph glyph-name="registered" unicode="&#xae;" horiz-adv-x="831" 
d="M790 343c-25 -189 -212 -342 -418 -342c-191 0 -331 131 -331 300c0 208 200 384 421 384c191 0 331 -131 331 -301c0 -13 -1 -27 -3 -41zM714 344c1 12 2 24 2 36c0 152 -112 270 -263 270c-176 0 -334 -158 -334 -343c0 -152 111 -269 263 -269c163 0 312 137 332 306z
M613 504c0 -83 -80 -129 -152 -142l-22 -4c32 -110 98 -186 142 -232c-7 -2 -19 -2 -31 -2c-24 0 -52 2 -52 2c-60 0 -122 203 -122 234c0 5 2 10 9 11c79 7 163 43 163 129c0 43 -29 75 -94 75c-40 -54 -88 -157 -116 -226c-15 -37 -64 -160 -64 -209c0 -6 1 -12 3 -15h-87
c15 67 52 161 90 251c14 35 72 173 103 220h105c88 0 125 -43 125 -92z" />
    <glyph glyph-name="asciicircum" unicode="^" horiz-adv-x="531" 
d="M527 491v-1c0 -8 -25 -29 -39 -29c-31 0 -94 129 -110 164c-55 -55 -183 -166 -210 -166c-4 0 -6 0 -6 2c0 0 0 1 1 2c77 63 150 131 216 202c9 10 15 15 20 15c6 0 10 -7 16 -18c30 -64 64 -111 112 -171z" />
    <glyph glyph-name="underscore" unicode="_" horiz-adv-x="758" 
d="M0 -100h758c1 0 1 -1 1 -2c0 -9 -34 -63 -47 -63h-758c-1 0 -1 0 -1 1c0 10 33 64 47 64z" />
    <glyph glyph-name="section" unicode="&#xa7;" horiz-adv-x="857" 
d="M759 499c-6 -1 -12 -1 -17 -1c-30 0 -55 12 -55 43c0 5 1 10 2 16c36 0 66 34 66 65c0 37 -37 59 -81 59c-79 0 -134 -56 -134 -117c0 -71 96 -141 151 -196c53 -54 76 -110 76 -163c0 -117 -114 -216 -255 -224c-10 -116 -131 -211 -276 -211c-114 0 -204 35 -204 124
c0 41 28 93 88 93c27 0 50 -14 58 -30c-25 -20 -35 -51 -35 -73c0 -42 35 -74 89 -77c80 0 158 58 158 148c0 73 -53 125 -93 168c-54 57 -107 107 -107 190c0 120 107 193 235 193h21c-1 5 -1 11 -1 17c0 120 107 193 235 193c123 0 166 -51 166 -106
c0 -52 -40 -104 -87 -111zM552 333c-42 44 -83 84 -100 139c-9 -1 -20 -1 -33 -1c-79 0 -134 -56 -134 -117c0 -71 96 -142 151 -196c46 -46 69 -95 75 -141c71 9 134 69 134 148c0 74 -54 125 -93 168z" />
    <glyph glyph-name="acute" unicode="&#xb4;" horiz-adv-x="531" 
d="M480 610c-71 -30 -169 -84 -174 -84c-6 0 -23 9 -23 12c14 7 91 66 140 101c2 1 4 2 7 2c18 0 52 -20 52 -28c0 -1 0 -2 -2 -3z" />
    <glyph glyph-name="grave" unicode="`" horiz-adv-x="531" 
d="M330 615c-2 1 -3 2 -3 3c0 8 35 28 52 28c3 0 6 -1 8 -2c49 -35 125 -94 140 -101c1 -3 -17 -12 -23 -12s-103 54 -174 84z" />
    <glyph glyph-name="asciitilde" unicode="~" horiz-adv-x="514" 
d="M609 688c-24 -34 -60 -79 -111 -79c-65 0 -117 43 -181 43c-43 0 -63 -11 -75 -29c-2 -3 -4 -4 -7 -4c-4 0 -9 4 -9 8c0 15 57 74 106 74c68 0 117 -43 182 -43c53 0 80 43 88 43c4 0 8 -4 8 -9c0 -1 0 -3 -1 -4z" />
    <glyph glyph-name="dieresis" unicode="&#xa8;" horiz-adv-x="580" 
d="M553 609c-38 -10 -50 -50 -74 -50c-11 0 -21 6 -21 17c0 19 39 87 70 87c15 0 31 -27 31 -43c0 -6 -1 -10 -6 -11zM366 609c-38 -10 -50 -50 -74 -50c-11 0 -21 6 -21 17c0 19 39 87 70 87c15 0 31 -27 31 -43c0 -6 -1 -10 -6 -11z" />
    <glyph glyph-name="cedilla" unicode="&#xb8;" horiz-adv-x="674" 
d="M234 -9l-19 -63c-1 -3 -3 -4 -6 -4c-1 0 -9 2 -18 2c-48 0 -99 -79 -99 -137c0 -27 12 -47 40 -47c27 0 52 16 73 38c2 2 3 2 4 2c2 0 3 -3 3 -7c0 -34 -55 -57 -98 -57c-54 0 -74 34 -74 74c0 86 64 152 148 152h4l20 46c1 3 6 4 11 4c6 0 11 -1 11 -3z" />
    <glyph glyph-name="macron" unicode="&#xaf;" horiz-adv-x="514" 
d="M315 685h241c1 0 1 -1 1 -1c0 -7 -25 -40 -35 -40h-241c-1 0 -1 0 -1 1c0 6 25 40 35 40z" />
    <glyph glyph-name="a" unicode="a" horiz-adv-x="473" 
d="M545 201c-38 -64 -125 -207 -206 -207c-41 0 -54 36 -54 83c0 37 6 79 21 122c-62 -110 -136 -202 -211 -202c-38 0 -67 23 -67 92c0 138 101 315 243 315c34 0 84 -13 97 -61c15 31 50 57 77 57c11 0 35 -1 50 -1h10c-44 -36 -129 -229 -129 -296c0 -17 6 -26 18 -26
c51 0 116 110 148 171c3 5 5 7 7 7c4 0 6 -7 6 -17c0 -11 -3 -25 -10 -37zM362 334c-7 23 -25 32 -47 32c-94 0 -190 -167 -190 -255c0 -21 7 -31 24 -31c37 0 90 56 124 109c59 93 85 138 89 145z" />
    <glyph glyph-name="NULL" horiz-adv-x="0" 
 />
    <glyph glyph-name="NULL" horiz-adv-x="0" 
 />
    <glyph glyph-name="uni0002" horiz-adv-x="0" 
 />
    <glyph glyph-name="space" unicode=" " horiz-adv-x="300" 
 />
    <glyph glyph-name="Euro" unicode="&#x20ac;" horiz-adv-x="646" 
d="M664 521c0 -49 -40 -89 -81 -89c-24 0 -46 10 -46 35c0 4 1 8 2 13c30 0 52 28 52 50c0 32 -38 45 -68 45c-112 0 -210 -105 -258 -197h225c1 0 2 -1 2 -3c0 -8 -14 -33 -28 -33h-216l-9 -21c-8 -18 -13 -36 -17 -54h213c1 0 2 -1 2 -3c0 -8 -14 -33 -28 -33h-195
c-3 -17 -4 -34 -4 -50c0 -79 35 -142 129 -142c76 0 203 56 257 121c4 4 6 6 8 6c1 0 2 -2 2 -6c0 -11 -7 -35 -13 -42c-77 -97 -207 -133 -307 -133c-143 0 -201 74 -201 177c0 22 3 45 8 69h-71c-4 0 -6 3 -6 7c0 11 9 29 15 29h72c7 25 18 50 30 75h-56c-4 0 -6 3 -6 7
c0 11 9 29 15 29h67l9 13c80 115 213 218 359 218c109 0 143 -43 143 -88z" />
    <glyph glyph-name="quotesinglbase" unicode="&#x201a;" horiz-adv-x="282" 
d="M234 107c15 -9 22 -24 22 -43c0 -21 -8 -45 -20 -68c-15 -28 -68 -114 -114 -114c-4 0 -8 1 -11 2c16 18 72 99 74 116h-6c-23 0 -34 17 -34 38c0 39 32 75 67 75c7 0 15 -2 22 -6z" />
    <glyph glyph-name="florin" unicode="&#x192;" horiz-adv-x="299" 
d="M492 644c2 -6 3 -14 3 -21c0 -37 -23 -75 -60 -75c-17 0 -32 9 -32 26c0 16 30 38 30 64c0 18 -12 34 -34 34c-67 0 -116 -114 -154 -204h160c1 0 2 -1 2 -3c0 -8 -14 -33 -28 -33h-144c-69 -147 -128 -368 -228 -537c-51 -87 -107 -150 -213 -150c-88 0 -122 43 -122 86
c0 35 24 67 57 67c18 0 34 -10 34 -28c0 -14 -27 -36 -27 -61c0 -20 14 -29 36 -29c39 0 116 36 164 132c83 167 143 359 208 520h-50c-4 0 -6 3 -6 7c0 11 9 29 15 29h54c43 105 108 232 240 232c49 0 79 -11 95 -56z" />
    <glyph glyph-name="quotedblbase" unicode="&#x201e;" horiz-adv-x="441" 
d="M234 107c15 -9 22 -24 22 -43c0 -21 -8 -45 -20 -68c-15 -28 -68 -114 -114 -114c-4 0 -8 1 -11 2c16 18 72 99 74 116h-6c-23 0 -34 17 -34 38c0 39 32 75 67 75c7 0 15 -2 22 -6zM388 107c15 -9 22 -24 22 -43c0 -21 -8 -45 -20 -68c-15 -28 -68 -114 -114 -114
c-4 0 -8 1 -11 2c16 18 72 99 74 116h-6c-23 0 -34 17 -34 38c0 39 32 75 67 75c7 0 15 -2 22 -6z" />
    <glyph glyph-name="ellipsis" unicode="&#x2026;" horiz-adv-x="648" 
d="M222 49c-16 -3 -53 -42 -61 -57c-9 3 -49 17 -49 41c0 23 32 52 71 52c22 0 41 -7 41 -25c0 -4 -1 -7 -2 -11zM608 49c-16 -3 -53 -42 -61 -57c-9 3 -49 17 -49 41c0 23 32 52 71 52c22 0 41 -7 41 -25c0 -4 -1 -7 -2 -11zM415 49c-16 -3 -53 -42 -61 -57
c-9 3 -49 17 -49 41c0 23 32 52 71 52c22 0 41 -7 41 -25c0 -4 -1 -7 -2 -11z" />
    <glyph glyph-name="dagger" unicode="&#x2020;" horiz-adv-x="383" 
d="M219 515h148c1 0 1 -1 1 -2c0 -9 -33 -63 -47 -63h-111l-72 -508c0 -3 -9 -3 -19 -3c-21 0 -50 3 -49 8l71 503h-139c-1 0 -1 0 -1 1c0 10 34 64 47 64h103l26 184c0 2 8 3 18 3c20 0 50 -3 49 -8z" />
    <glyph glyph-name="daggerdbl" unicode="&#x2021;" horiz-adv-x="414" 
d="M245 515h149c1 0 1 -1 1 -2c0 -9 -33 -63 -47 -63h-112l-14 -98h140c1 0 1 -1 1 -2c0 -9 -33 -63 -47 -63h-103l-48 -345c-1 -2 -9 -4 -19 -4c-4 0 -7 1 -11 1h-4c-13 0 -35 4 -34 8l48 340h-148c-1 0 -1 0 -1 1c0 10 34 64 47 64h111l14 98h-139c-1 0 -1 0 -1 1
c0 10 34 64 47 64h103l26 184c1 2 9 3 19 3c20 0 48 -4 48 -8z" />
    <glyph glyph-name="circumflex" unicode="&#x2c6;" horiz-adv-x="531" 
d="M487 505v-1c0 -4 -25 -19 -37 -19c-22 0 -64 74 -75 99c-35 -34 -107 -95 -128 -95c-9 0 -18 1 -18 3v1c53 43 100 82 146 130c6 7 13 9 18 9c15 0 62 -88 94 -127z" />
    <glyph glyph-name="perthousand" unicode="&#x2030;" horiz-adv-x="901" 
d="M870 146c-18 -74 -73 -151 -156 -151c-64 0 -92 51 -92 113c0 89 60 198 160 198c68 0 94 -53 94 -111c0 -16 -2 -33 -6 -49zM577 672c-14 -21 -37 -51 -85 -87l-332 -585c-2 -4 -17 -5 -31 -5c-13 0 -25 1 -25 4v1l328 575c-7 -2 -17 -4 -28 -4c-22 0 -47 6 -66 25
c1 -8 1 -17 1 -26c0 -84 -57 -200 -161 -200c-64 0 -92 51 -92 112c0 89 60 198 160 198c72 0 77 -68 135 -68c44 0 95 34 118 73c7 12 25 17 43 17c20 0 39 -7 39 -20c0 -3 -2 -6 -4 -10zM586 146c-18 -74 -73 -151 -156 -151c-64 0 -92 51 -92 113c0 89 60 198 160 198
c68 0 94 -53 94 -111c0 -16 -2 -33 -6 -49zM819 138c7 22 10 43 10 61c0 38 -14 62 -42 62c-46 0 -92 -79 -92 -149c0 -39 15 -63 41 -63c33 0 66 38 83 89zM283 513c7 22 10 43 10 61c0 38 -14 62 -42 62c-46 0 -92 -79 -92 -150c0 -38 15 -63 41 -63c33 0 65 39 83 90z
M535 138c7 22 10 43 10 61c0 38 -14 62 -42 62c-46 0 -92 -79 -92 -149c0 -39 15 -63 41 -63c33 0 66 38 83 89z" />
    <glyph glyph-name="Scaron" unicode="&#x160;" horiz-adv-x="544" 
d="M484 499c-6 -1 -12 -1 -17 -1c-29 0 -55 12 -55 43c0 5 1 10 2 16c37 0 67 35 67 66c0 36 -38 58 -82 58c-79 0 -134 -56 -134 -117c0 -71 96 -142 151 -196c54 -54 76 -110 76 -163c0 -123 -124 -225 -275 -225c-114 0 -205 34 -205 124c0 41 28 93 88 93
c27 0 50 -14 58 -30c-25 -20 -35 -51 -35 -73c0 -45 38 -77 96 -77c78 0 151 63 151 148c0 73 -53 125 -93 168c-54 57 -107 107 -107 190c0 120 107 193 235 193c123 0 166 -51 166 -106c0 -52 -40 -104 -87 -111zM363 929v0c0 5 25 20 37 20c22 0 63 -75 75 -99
c35 33 106 95 128 95c9 0 18 -1 18 -3v-1c-53 -43 -100 -82 -146 -130c-6 -7 -13 -10 -19 -10c-15 0 -61 88 -93 128z" />
    <glyph glyph-name="guilsinglleft" unicode="&#x2039;" horiz-adv-x="432" 
d="M414 521c1 1 2 1 3 1s1 -1 1 -3c0 -38 -179 -163 -270 -219c58 -41 158 -120 190 -176c1 -2 1 -3 1 -5c0 -16 -35 -43 -47 -43c-1 0 -2 0 -2 1c-68 77 -123 132 -201 188c-12 9 -20 16 -20 22c0 7 8 14 25 24c110 62 218 133 320 210z" />
    <glyph glyph-name="OE" unicode="&#x152;" horiz-adv-x="1118" 
d="M1142 688c1 -5 2 -10 2 -16c0 -51 -47 -142 -59 -142c-6 0 -11 0 -11 8c0 13 8 42 8 60c0 42 -39 67 -89 67c-37 0 -60 -3 -75 -26c-53 -79 -96 -162 -133 -248h261l1 -1c0 -8 -24 -48 -37 -48h-247c-33 -80 -79 -218 -79 -257c0 -34 18 -51 70 -51c130 0 298 18 346 114
c1 2 3 3 5 3c4 0 8 -3 8 -11c0 -3 -1 -7 -2 -11c-38 -120 -113 -129 -203 -129h-41h-261c-23 0 -31 18 -31 48c0 16 3 35 7 57c-87 -84 -200 -137 -331 -137c-148 0 -248 59 -248 219c0 269 237 521 502 521c145 0 223 -66 246 -160c16 36 34 74 50 100c5 31 -6 50 18 50
h178c47 0 84 5 109 5c20 0 32 -3 36 -15zM671 551c-15 81 -74 111 -141 111c-221 0 -410 -256 -410 -476c0 -97 39 -177 145 -177c216 0 411 273 411 490c0 18 -2 36 -5 52z" />
    <glyph glyph-name="Zcaron" unicode="&#x17d;" horiz-adv-x="596" 
d="M188 55c41 -5 117 -6 174 -6c70 0 168 -2 204 54c1 2 4 4 6 4c3 0 4 -2 4 -4c-16 -62 -57 -103 -81 -103h-476c-17 0 -25 6 -25 19c0 11 14 60 38 87c146 166 293 333 431 505c10 13 15 21 15 27c0 15 -70 10 -118 10c-87 0 -194 7 -233 -53c-2 -3 -5 -4 -7 -4s-4 1 -4 4
c16 62 58 103 81 103h392c14 0 33 3 47 2c15 0 27 -2 27 -11c0 -7 -7 -18 -22 -35c-164 -177 -319 -366 -473 -553c-13 -16 -19 -25 -19 -32c0 -9 13 -11 39 -14zM356 885v0c0 5 25 20 37 20c22 0 63 -75 75 -99c35 33 106 95 128 95c9 0 18 -1 18 -3v-1
c-53 -43 -100 -82 -146 -130c-6 -7 -13 -10 -19 -10c-15 0 -61 88 -93 128z" />
    <glyph glyph-name="quoteleft" unicode="&#x2018;" horiz-adv-x="217" 
d="M73 476c-16 9 -22 24 -22 43c0 20 8 45 20 68c15 28 68 114 114 114c4 0 7 -1 11 -2c-16 -18 -72 -99 -74 -116h6c23 0 34 -17 34 -38c0 -40 -33 -75 -67 -75c-8 0 -15 2 -22 6z" />
    <glyph glyph-name="quoteright" unicode="&#x2019;" horiz-adv-x="159" 
d="M209 701c15 -9 22 -24 22 -43c0 -21 -8 -45 -20 -68c-15 -28 -68 -114 -114 -114c-4 0 -8 1 -11 2c16 18 72 99 74 116h-6c-23 0 -34 17 -34 38c0 39 32 75 67 75c7 0 15 -2 22 -6z" />
    <glyph glyph-name="quotedblleft" unicode="&#x201c;" horiz-adv-x="373" 
d="M72 476c-16 9 -22 24 -22 43c0 20 8 45 20 68c15 28 68 114 114 114c4 0 7 -1 11 -2c-16 -18 -72 -99 -74 -116h6c23 0 34 -17 34 -38c0 -40 -33 -75 -67 -75c-8 0 -15 2 -22 6zM229 476c-16 9 -22 24 -22 43c0 20 8 45 20 68c15 28 68 114 114 114c4 0 7 -1 11 -2
c-16 -18 -72 -99 -74 -116h6c23 0 34 -17 34 -38c0 -40 -33 -75 -67 -75c-8 0 -15 2 -22 6z" />
    <glyph glyph-name="quotedblright" unicode="&#x201d;" horiz-adv-x="373" 
d="M184 701c15 -9 22 -24 22 -43c0 -21 -8 -45 -20 -68c-15 -28 -68 -114 -114 -114c-4 0 -8 1 -11 2c16 18 72 99 74 116h-6c-23 0 -34 17 -34 38c0 39 32 75 67 75c7 0 15 -2 22 -6zM338 701c15 -9 22 -24 22 -43c0 -21 -8 -45 -20 -68c-15 -28 -68 -114 -114 -114
c-4 0 -8 1 -11 2c16 18 72 99 74 116h-6c-23 0 -34 17 -34 38c0 39 32 75 67 75c7 0 15 -2 22 -6z" />
    <glyph glyph-name="bullet" unicode="&#x2022;" horiz-adv-x="511" 
d="M128 358c41 50 99 77 157 77c102 0 177 -85 177 -180c0 -112 -99 -206 -204 -206c-101 0 -177 84 -177 180c0 44 16 90 47 129z" />
    <glyph glyph-name="endash" unicode="&#x2013;" horiz-adv-x="781" 
d="M200 288h569c1 0 1 -1 1 -2c0 -9 -33 -63 -47 -63h-569c-1 0 -1 0 -1 1c0 10 33 64 47 64z" />
    <glyph glyph-name="emdash" unicode="&#x2014;" horiz-adv-x="1263" 
d="M200 288h1051c1 0 1 -1 1 -2c0 -9 -33 -63 -47 -63h-1051c-1 0 -1 0 -1 1c0 10 33 64 47 64z" />
    <glyph glyph-name="tilde" unicode="&#x2dc;" horiz-adv-x="514" 
d="M556 683c-17 -29 -43 -72 -80 -72c-46 0 -84 36 -130 36c-43 0 -53 -30 -63 -30c-5 0 -11 4 -11 9c0 7 38 68 77 68c48 0 92 -37 139 -37c41 0 45 41 61 41c5 0 9 -3 9 -8c0 -2 -1 -5 -2 -7z" />
    <glyph glyph-name="trademark" unicode="&#x2122;" horiz-adv-x="507" 
d="M525 692h19c-28 -21 -84 -135 -84 -187c0 -9 3 -17 11 -17c3 0 7 4 12 4c1 0 1 -1 1 -2c0 -8 -30 -15 -41 -15c-16 0 -20 9 -20 22c0 31 39 113 63 158c-46 -38 -117 -149 -141 -149c-4 0 -10 2 -14 4c6 9 9 42 9 78c0 26 -1 52 -4 73c-33 -49 -66 -124 -66 -166
c0 -10 2 -16 8 -18h-16c-9 0 -12 6 -12 17c0 25 18 72 39 115c4 9 41 83 45 83c36 0 36 -34 36 -108c0 -11 2 -5 -1 -42c61 75 124 150 156 150zM298 689v-4c0 -16 -15 -45 -18 -45c-2 0 -4 0 -4 2c0 4 3 12 3 18c0 18 -19 21 -42 21c-43 -52 -80 -141 -80 -186
c0 -10 2 -16 8 -18h-30c-9 0 -13 6 -13 17c0 36 54 163 78 187h-7c-8 0 -31 -2 -44 -6c-11 -4 -37 -34 -37 -34c-2 0 -3 2 -3 4c0 27 20 47 45 47h99c15 0 26 2 34 2c6 0 10 -1 11 -5z" />
    <glyph glyph-name="scaron" unicode="&#x161;" horiz-adv-x="401" 
d="M461 203c-80 -136 -150 -220 -299 -220c-66 0 -126 27 -126 81c0 28 17 65 52 65c14 0 28 -8 32 -18c-14 -14 -19 -34 -19 -48c0 -27 21 -46 56 -46c44 0 82 35 82 77c0 88 -116 107 -116 201c0 71 54 122 144 122c49 0 100 -15 100 -64c0 -35 -25 -75 -68 -75
c-19 0 -35 9 -35 30c0 17 46 23 46 50c0 22 -23 30 -39 30c-41 0 -75 -22 -75 -59c0 -77 140 -91 140 -195c0 -40 -24 -75 -49 -93c101 42 166 219 180 219c3 0 5 -6 5 -15c0 -12 -3 -29 -11 -42zM216 606v0c0 5 25 20 37 20c22 0 63 -75 75 -99c35 33 106 95 128 95
c9 0 18 -1 18 -3v-1c-53 -43 -100 -82 -146 -130c-6 -7 -13 -10 -19 -10c-15 0 -61 88 -93 128z" />
    <glyph glyph-name="guilsinglright" unicode="&#x203a;" horiz-adv-x="443" 
d="M454 333c12 -9 20 -15 20 -22c0 -6 -8 -13 -25 -23c-110 -62 -218 -133 -320 -211c-1 -1 -2 -1 -3 -1s-2 1 -2 4c0 38 179 163 271 218c-58 41 -157 120 -190 177c-1 1 -1 3 -1 4c0 16 34 43 46 43c1 0 2 0 3 -1c68 -77 123 -132 201 -188z" />
    <glyph glyph-name="oe" unicode="&#x153;" horiz-adv-x="648" 
d="M721 202c-71 -113 -136 -212 -268 -212c-78 0 -118 38 -128 89l-1 4c-39 -52 -93 -91 -176 -91c-62 0 -113 35 -113 122c0 124 93 293 243 293c80 0 112 -47 118 -102c47 56 112 96 186 96c43 0 85 -15 85 -63c0 -98 -166 -179 -251 -185c-3 -14 -4 -27 -4 -40
c0 -48 21 -82 71 -82c64 0 128 61 165 107c26 32 72 118 77 118c4 0 6 -7 6 -17c0 -11 -3 -25 -10 -37zM610 303c8 12 12 26 12 37c0 16 -9 28 -29 28c-63 0 -147 -95 -170 -187c48 10 139 44 187 122zM318 164c17 35 36 89 36 132c0 36 -14 64 -52 64
c-61 0 -112 -86 -135 -133c-17 -35 -36 -89 -36 -132c0 -36 14 -65 52 -65c61 0 112 85 135 134z" />
    <glyph glyph-name="zcaron" unicode="&#x17e;" horiz-adv-x="426" 
d="M498 201c-76 -139 -156 -220 -219 -220c-49 0 -122 60 -160 60c-5 0 -8 -1 -11 -3c-25 -30 -48 -49 -65 -49c-11 0 -17 8 -17 20c0 34 39 56 70 81c97 78 226 203 226 203c0 -1 -74 14 -114 14c-76 0 -94 -34 -126 -89c-16 -26 -48 -86 -57 -86c-3 0 -5 5 -5 13
c1 11 4 27 13 41c57 86 75 201 166 201c16 0 33 -3 52 -6l12 -2c50 -9 81 -15 104 -15c28 0 43 10 64 34c4 5 11 7 18 7c10 0 21 -4 30 -7l-325 -312c32 -26 68 -37 103 -37c64 -1 128 36 169 89c25 32 72 119 76 119s6 -7 6 -17c0 -11 -3 -26 -10 -39zM245 606v0
c0 5 25 20 37 20c22 0 63 -75 75 -99c35 33 106 95 128 95c9 0 18 -1 18 -3v-1c-53 -43 -100 -82 -146 -130c-6 -7 -13 -10 -19 -10c-15 0 -61 88 -93 128z" />
    <glyph glyph-name="Ydieresis" unicode="&#x178;" horiz-adv-x="584" 
d="M552 799c-38 -10 -50 -50 -74 -50c-11 0 -21 6 -21 17c0 19 39 87 70 87c15 0 31 -27 31 -43c0 -6 -1 -10 -6 -11zM365 799c-38 -10 -50 -50 -74 -50c-11 0 -21 6 -21 17c0 19 39 87 70 87c15 0 31 -27 31 -43c0 -6 -1 -10 -6 -11zM668 698c-128 -90 -359 -316 -424 -618
c-6 -29 -13 -54 -13 -69c0 -4 1 -8 2 -11h-122c17 74 76 200 76 274c0 43 -18 102 -36 160c-14 45 -64 186 -92 225c-8 12 -35 25 -35 26c0 5 11 13 23 13h107c26 0 30 0 44 -44c35 -106 62 -217 88 -317c75 104 175 251 243 341c14 18 49 21 83 21c21 0 41 -1 56 -1z" />
    <glyph glyph-name="uni00A0" unicode="&#xa0;" horiz-adv-x="290" 
 />
    <glyph glyph-name="multiply" unicode="&#xd7;" horiz-adv-x="740" 
d="M414 342l237 169h1c2 0 2 -6 2 -14c0 -21 -5 -59 -15 -66l-183 -130l139 -133c2 -2 3 -6 3 -11c0 -22 -14 -68 -20 -68v0l-179 171l-241 -171h-1c-2 0 -3 5 -3 13c0 21 6 60 15 66l187 133l-135 130c-2 2 -3 5 -3 10c0 23 15 70 20 70h1z" />
    <glyph glyph-name="divide" unicode="&#xf7;" horiz-adv-x="737" 
d="M456 481c-10 -11 -36 -47 -41 -47c-14 0 -42 20 -42 34c0 23 38 45 73 45c11 0 17 -5 17 -16c0 -6 -2 -12 -7 -16zM201 372h376c1 0 1 -1 1 -2c0 -9 -33 -63 -47 -63h-376c-1 0 -1 0 -1 1c0 10 34 64 47 64zM341 177c-11 -10 -35 -47 -42 -47c-14 0 -42 20 -42 34
c0 23 39 46 73 46c12 0 18 -6 18 -17c0 -6 -2 -12 -7 -16z" />
    <glyph glyph-name="ae" unicode="&#xe6;" horiz-adv-x="618" 
d="M691 203c-56 -96 -130 -213 -262 -213c-67 0 -135 37 -135 128c0 24 6 49 16 74c-77 -115 -143 -195 -215 -195c-38 0 -67 23 -67 92c0 138 101 315 243 315c34 0 84 -13 97 -61c12 24 45 57 77 57c11 0 35 -1 50 -1h10c-5 -4 -13 -15 -20 -26c29 15 60 25 89 25
c50 0 69 -32 69 -56c0 -109 -103 -151 -172 -151c-28 0 -53 5 -68 13l-10 -28c-8 -21 -9 -43 -10 -62c0 -48 22 -83 72 -83c62 0 127 60 163 107c27 34 40 56 71 115c3 5 5 7 7 7c3 0 6 -7 6 -16c0 -12 -3 -28 -11 -41zM362 334c-7 23 -25 32 -47 32
c-94 0 -190 -167 -190 -255c0 -21 7 -31 24 -31c37 0 90 56 124 109c59 93 85 138 89 145zM590 339c0 15 -7 29 -28 29c-25 0 -57 -18 -83 -44c-10 -10 -52 -56 -52 -82c0 -15 17 -20 32 -20c59 0 126 59 131 117z" />
    <glyph glyph-name="agrave" unicode="&#xe0;" horiz-adv-x="473" 
d="M545 201c-38 -64 -125 -207 -206 -207c-41 0 -54 36 -54 83c0 37 6 79 21 122c-62 -110 -136 -202 -211 -202c-38 0 -67 23 -67 92c0 138 101 315 243 315c34 0 84 -13 97 -61c15 31 50 57 77 57c11 0 35 -1 50 -1h10c-44 -36 -129 -229 -129 -296c0 -17 6 -26 18 -26
c51 0 116 110 148 171c3 5 5 7 7 7c4 0 6 -7 6 -17c0 -11 -3 -25 -10 -37zM362 334c-7 23 -25 32 -47 32c-94 0 -190 -167 -190 -255c0 -21 7 -31 24 -31c37 0 90 56 124 109c59 93 85 138 89 145zM251 587c-2 1 -3 2 -3 3c0 8 35 28 52 28c3 0 6 -1 8 -2
c49 -35 125 -94 140 -101c1 -3 -17 -12 -23 -12s-103 54 -174 84z" />
    <glyph glyph-name="aacute" unicode="&#xe1;" horiz-adv-x="473" 
d="M545 201c-38 -64 -125 -207 -206 -207c-41 0 -54 36 -54 83c0 37 6 79 21 122c-62 -110 -136 -202 -211 -202c-38 0 -67 23 -67 92c0 138 101 315 243 315c34 0 84 -13 97 -61c15 31 50 57 77 57c11 0 35 -1 50 -1h10c-44 -36 -129 -229 -129 -296c0 -17 6 -26 18 -26
c51 0 116 110 148 171c3 5 5 7 7 7c4 0 6 -7 6 -17c0 -11 -3 -25 -10 -37zM362 334c-7 23 -25 32 -47 32c-94 0 -190 -167 -190 -255c0 -21 7 -31 24 -31c37 0 90 56 124 109c59 93 85 138 89 145zM469 588c-71 -30 -169 -84 -174 -84c-6 0 -23 9 -23 12c14 7 91 66 140 101
c2 1 4 2 7 2c18 0 52 -20 52 -28c0 -1 0 -2 -2 -3z" />
    <glyph glyph-name="acircumflex" unicode="&#xe2;" horiz-adv-x="473" 
d="M545 201c-38 -64 -125 -207 -206 -207c-41 0 -54 36 -54 83c0 37 6 79 21 122c-62 -110 -136 -202 -211 -202c-38 0 -67 23 -67 92c0 138 101 315 243 315c34 0 84 -13 97 -61c15 31 50 57 77 57c11 0 35 -1 50 -1h10c-44 -36 -129 -229 -129 -296c0 -17 6 -26 18 -26
c51 0 116 110 148 171c3 5 5 7 7 7c4 0 6 -7 6 -17c0 -11 -3 -25 -10 -37zM362 334c-7 23 -25 32 -47 32c-94 0 -190 -167 -190 -255c0 -21 7 -31 24 -31c37 0 90 56 124 109c59 93 85 138 89 145zM476 511v-1c0 -4 -25 -19 -37 -19c-22 0 -64 74 -75 99
c-35 -34 -107 -95 -128 -95c-9 0 -18 1 -18 3v1c53 43 100 82 146 130c6 7 13 9 18 9c15 0 62 -88 94 -127z" />
    <glyph glyph-name="adieresis" unicode="&#xe4;" horiz-adv-x="473" 
d="M545 201c-38 -64 -125 -207 -206 -207c-41 0 -54 36 -54 83c0 37 6 79 21 122c-62 -110 -136 -202 -211 -202c-38 0 -67 23 -67 92c0 138 101 315 243 315c34 0 84 -13 97 -61c15 31 50 57 77 57c11 0 35 -1 50 -1h10c-44 -36 -129 -229 -129 -296c0 -17 6 -26 18 -26
c51 0 116 110 148 171c3 5 5 7 7 7c4 0 6 -7 6 -17c0 -11 -3 -25 -10 -37zM362 334c-7 23 -25 32 -47 32c-94 0 -190 -167 -190 -255c0 -21 7 -31 24 -31c37 0 90 56 124 109c59 93 85 138 89 145zM510 558c-38 -10 -50 -50 -74 -50c-11 0 -21 6 -21 17c0 19 39 87 70 87
c15 0 31 -27 31 -43c0 -6 -1 -10 -6 -11zM323 558c-38 -10 -50 -50 -74 -50c-11 0 -21 6 -21 17c0 19 39 87 70 87c15 0 31 -27 31 -43c0 -6 -1 -10 -6 -11z" />
    <glyph glyph-name="atilde" unicode="&#xe3;" horiz-adv-x="473" 
d="M545 201c-38 -64 -125 -207 -206 -207c-41 0 -54 36 -54 83c0 37 6 79 21 122c-62 -110 -136 -202 -211 -202c-38 0 -67 23 -67 92c0 138 101 315 243 315c34 0 84 -13 97 -61c15 31 50 57 77 57c11 0 35 -1 50 -1h10c-44 -36 -129 -229 -129 -296c0 -17 6 -26 18 -26
c51 0 116 110 148 171c3 5 5 7 7 7c4 0 6 -7 6 -17c0 -11 -3 -25 -10 -37zM362 334c-7 23 -25 32 -47 32c-94 0 -190 -167 -190 -255c0 -21 7 -31 24 -31c37 0 90 56 124 109c59 93 85 138 89 145zM513 593c-17 -29 -43 -72 -80 -72c-46 0 -84 36 -130 36
c-43 0 -53 -30 -63 -30c-5 0 -11 4 -11 9c0 7 38 68 77 68c48 0 92 -37 139 -37c41 0 45 41 61 41c5 0 9 -3 9 -8c0 -2 -1 -5 -2 -7z" />
    <glyph glyph-name="ccedilla" unicode="&#xe7;" horiz-adv-x="358" 
d="M430 201c-64 -105 -125 -211 -266 -211c-95 0 -130 58 -130 128c0 135 111 280 250 280c62 0 99 -38 99 -80c0 -40 -25 -80 -64 -80c-21 0 -40 12 -40 37c0 24 51 15 51 67c0 15 -8 26 -28 26c-82 0 -178 -151 -178 -254c0 -48 21 -83 71 -83c62 0 119 50 163 108
c28 36 72 117 76 117s6 -7 6 -17c0 -11 -3 -26 -10 -38zM184 -9l-19 -63c-1 -3 -3 -4 -6 -4c-1 0 -9 2 -18 2c-48 0 -99 -79 -99 -137c0 -27 12 -47 40 -47c27 0 52 16 73 38c2 2 3 2 4 2c2 0 3 -3 3 -7c0 -34 -55 -57 -98 -57c-54 0 -74 34 -74 74c0 86 64 152 148 152h4
l20 46c1 3 6 4 11 4c6 0 11 -1 11 -3z" />
    <glyph glyph-name="egrave" unicode="&#xe8;" horiz-adv-x="358" 
d="M431 203c-56 -96 -130 -213 -262 -213c-69 0 -135 37 -135 132c0 131 113 276 250 276c62 0 99 -38 99 -80c0 -77 -86 -124 -178 -124c-26 0 -49 4 -62 11c-12 -32 -19 -63 -19 -90c0 -49 21 -84 71 -84c62 0 127 60 163 107c27 34 40 56 71 115c3 5 5 7 7 7
c3 0 6 -7 6 -16c0 -12 -3 -28 -11 -41zM330 339c0 15 -7 29 -28 29c-25 0 -57 -18 -83 -44c-10 -10 -52 -56 -52 -82c0 -15 17 -20 32 -20c59 0 126 59 131 117zM185 575c-2 1 -3 2 -3 3c0 8 35 28 52 28c3 0 6 -1 8 -2c49 -35 125 -94 140 -101c1 -3 -17 -12 -23 -12
s-103 54 -174 84z" />
    <glyph glyph-name="eacute" unicode="&#xe9;" horiz-adv-x="358" 
d="M431 203c-56 -96 -130 -213 -262 -213c-69 0 -135 37 -135 132c0 131 113 276 250 276c62 0 99 -38 99 -80c0 -77 -86 -124 -178 -124c-26 0 -49 4 -62 11c-12 -32 -19 -63 -19 -90c0 -49 21 -84 71 -84c62 0 127 60 163 107c27 34 40 56 71 115c3 5 5 7 7 7
c3 0 6 -7 6 -16c0 -12 -3 -28 -11 -41zM330 339c0 15 -7 29 -28 29c-25 0 -57 -18 -83 -44c-10 -10 -52 -56 -52 -82c0 -15 17 -20 32 -20c59 0 126 59 131 117zM455 571c-71 -30 -169 -84 -174 -84c-6 0 -23 9 -23 12c14 7 91 66 140 101c2 1 4 2 7 2c18 0 52 -20 52 -28
c0 -1 0 -2 -2 -3z" />
    <glyph glyph-name="ecircumflex" unicode="&#xea;" horiz-adv-x="358" 
d="M431 203c-56 -96 -130 -213 -262 -213c-69 0 -135 37 -135 132c0 131 113 276 250 276c62 0 99 -38 99 -80c0 -77 -86 -124 -178 -124c-26 0 -49 4 -62 11c-12 -32 -19 -63 -19 -90c0 -49 21 -84 71 -84c62 0 127 60 163 107c27 34 40 56 71 115c3 5 5 7 7 7
c3 0 6 -7 6 -16c0 -12 -3 -28 -11 -41zM330 339c0 15 -7 29 -28 29c-25 0 -57 -18 -83 -44c-10 -10 -52 -56 -52 -82c0 -15 17 -20 32 -20c59 0 126 59 131 117zM450 515v-1c0 -4 -25 -19 -37 -19c-22 0 -64 74 -75 99c-35 -34 -107 -95 -128 -95c-9 0 -18 1 -18 3v1
c53 43 100 82 146 130c6 7 13 9 18 9c15 0 62 -88 94 -127z" />
    <glyph glyph-name="edieresis" unicode="&#xeb;" horiz-adv-x="358" 
d="M431 203c-56 -96 -130 -213 -262 -213c-69 0 -135 37 -135 132c0 131 113 276 250 276c62 0 99 -38 99 -80c0 -77 -86 -124 -178 -124c-26 0 -49 4 -62 11c-12 -32 -19 -63 -19 -90c0 -49 21 -84 71 -84c62 0 127 60 163 107c27 34 40 56 71 115c3 5 5 7 7 7
c3 0 6 -7 6 -16c0 -12 -3 -28 -11 -41zM330 339c0 15 -7 29 -28 29c-25 0 -57 -18 -83 -44c-10 -10 -52 -56 -52 -82c0 -15 17 -20 32 -20c59 0 126 59 131 117zM482 557c-38 -10 -50 -50 -74 -50c-11 0 -21 6 -21 17c0 19 39 87 70 87c15 0 31 -27 31 -43
c0 -6 -1 -10 -6 -11zM295 557c-38 -10 -50 -50 -74 -50c-11 0 -21 6 -21 17c0 19 39 87 70 87c15 0 31 -27 31 -43c0 -6 -1 -10 -6 -11z" />
    <glyph glyph-name="hbar" unicode="&#x127;" horiz-adv-x="438" 
d="M510 201c-38 -64 -125 -207 -208 -207c-46 0 -59 32 -59 68c0 56 32 153 63 225c6 16 14 36 14 51c0 12 -5 20 -18 20c-8 0 -20 -4 -37 -12c-114 -57 -143 -214 -165 -276c-8 -23 -16 -47 -23 -70h-97c92 235 212 744 404 744c40 0 53 -20 53 -47c0 -29 -16 -65 -27 -87
c-43 -85 -103 -164 -194 -264c79 58 114 63 146 63c36 0 57 -17 57 -50c0 -14 -4 -30 -12 -50c-17 -43 -66 -157 -66 -205c0 -15 3 -28 17 -28c57 0 123 122 150 174c2 5 5 7 7 7c3 0 5 -7 5 -17c0 -12 -3 -26 -10 -39zM389 719c-51 0 -143 -207 -202 -366
c67 79 141 170 187 264c4 9 28 58 28 85c0 10 -4 17 -13 17zM117 583h369c1 0 2 -1 2 -1c0 -7 -39 -39 -54 -39h-369c-1 0 -1 0 -1 1c0 6 37 39 53 39z" />
    <glyph glyph-name="dotlessi" unicode="&#x131;" horiz-adv-x="217" 
d="M289 201c-19 -32 -45 -73 -72 -109c-28 -38 -88 -98 -136 -98c-31 0 -56 22 -56 84c0 48 15 110 40 172c18 45 59 150 121 150c11 0 35 -1 50 -1h10c-12 -9 -33 -46 -40 -60c-39 -77 -88 -171 -88 -232c0 -18 6 -30 19 -30c16 0 52 25 80 61c24 32 72 117 76 117
s6 -6 6 -16c0 -11 -3 -26 -10 -38z" />
    <glyph glyph-name="itilde" unicode="&#x129;" horiz-adv-x="217" 
d="M289 201c-19 -32 -45 -73 -72 -109c-28 -38 -88 -98 -136 -98c-31 0 -56 22 -56 84c0 48 15 110 40 172c18 45 59 150 121 150c11 0 35 -1 50 -1h10c-12 -9 -33 -46 -40 -60c-39 -77 -88 -171 -88 -232c0 -18 6 -30 19 -30c16 0 52 25 80 61c24 32 72 117 76 117
s6 -6 6 -16c0 -11 -3 -26 -10 -38zM378 578c-17 -29 -43 -72 -80 -72c-46 0 -84 36 -130 36c-43 0 -53 -30 -63 -30c-5 0 -11 4 -11 9c0 7 38 68 77 68c48 0 92 -37 139 -37c41 0 45 41 61 41c5 0 9 -3 9 -8c0 -2 -1 -5 -2 -7z" />
    <glyph glyph-name="ij" unicode="&#x133;" horiz-adv-x="432" 
d="M322 532h-4c-29 0 -56 -33 -65 -52c-16 6 -26 18 -26 32c0 39 38 83 75 83c23 0 39 -16 39 -33c0 -11 -6 -22 -19 -30zM289 201c-19 -32 -45 -73 -72 -109c-28 -38 -88 -98 -136 -98c-31 0 -56 22 -56 84c0 48 15 110 40 172c18 45 59 150 121 150c11 0 35 -1 50 -1h10
c-12 -9 -33 -46 -40 -60c-39 -77 -88 -171 -88 -232c0 -18 6 -30 19 -30c16 0 52 25 80 61c24 32 72 117 76 117s6 -6 6 -16c0 -11 -3 -26 -10 -38zM383 390h40c-48 -31 -81 -140 -127 -269c-48 -133 -126 -357 -327 -357c-43 0 -90 15 -90 62c0 29 19 70 57 70
c16 0 31 -9 36 -21c-14 -9 -21 -35 -21 -47c0 -22 16 -35 39 -35c71 1 123 94 151 161c46 111 79 233 122 338c29 71 35 98 120 98zM499 532h-4c-29 0 -56 -33 -65 -52c-16 6 -26 18 -26 32c0 39 38 83 75 83c23 0 39 -16 39 -33c0 -11 -6 -22 -19 -30z" />
    <glyph glyph-name="igrave" unicode="&#xec;" horiz-adv-x="217" 
d="M289 201c-19 -32 -45 -73 -72 -109c-28 -38 -88 -98 -136 -98c-31 0 -56 22 -56 84c0 48 15 110 40 172c18 45 59 150 121 150c11 0 35 -1 50 -1h10c-12 -9 -33 -46 -40 -60c-39 -77 -88 -171 -88 -232c0 -18 6 -30 19 -30c16 0 52 25 80 61c24 32 72 117 76 117
s6 -6 6 -16c0 -11 -3 -26 -10 -38zM106 584c-2 1 -3 2 -3 3c0 8 35 28 52 28c3 0 6 -1 8 -2c49 -35 125 -94 140 -101c1 -3 -17 -12 -23 -12s-103 54 -174 84z" />
    <glyph glyph-name="iacute" unicode="&#xed;" horiz-adv-x="217" 
d="M289 201c-19 -32 -45 -73 -72 -109c-28 -38 -88 -98 -136 -98c-31 0 -56 22 -56 84c0 48 15 110 40 172c18 45 59 150 121 150c11 0 35 -1 50 -1h10c-12 -9 -33 -46 -40 -60c-39 -77 -88 -171 -88 -232c0 -18 6 -30 19 -30c16 0 52 25 80 61c24 32 72 117 76 117
s6 -6 6 -16c0 -11 -3 -26 -10 -38zM365 587c-71 -30 -169 -84 -174 -84c-6 0 -23 9 -23 12c14 7 91 66 140 101c2 1 4 2 7 2c18 0 52 -20 52 -28c0 -1 0 -2 -2 -3z" />
    <glyph glyph-name="icircumflex" unicode="&#xee;" horiz-adv-x="217" 
d="M289 201c-19 -32 -45 -73 -72 -109c-28 -38 -88 -98 -136 -98c-31 0 -56 22 -56 84c0 48 15 110 40 172c18 45 59 150 121 150c11 0 35 -1 50 -1h10c-12 -9 -33 -46 -40 -60c-39 -77 -88 -171 -88 -232c0 -18 6 -30 19 -30c16 0 52 25 80 61c24 32 72 117 76 117
s6 -6 6 -16c0 -11 -3 -26 -10 -38zM360 509v-1c0 -4 -25 -19 -37 -19c-22 0 -64 74 -75 99c-35 -34 -107 -95 -128 -95c-9 0 -18 1 -18 3v1c53 43 100 82 146 130c6 7 13 9 18 9c15 0 62 -88 94 -127z" />
    <glyph glyph-name="idieresis" unicode="&#xef;" horiz-adv-x="217" 
d="M289 201c-19 -32 -45 -73 -72 -109c-28 -38 -88 -98 -136 -98c-31 0 -56 22 -56 84c0 48 15 110 40 172c18 45 59 150 121 150c11 0 35 -1 50 -1h10c-12 -9 -33 -46 -40 -60c-39 -77 -88 -171 -88 -232c0 -18 6 -30 19 -30c16 0 52 25 80 61c24 32 72 117 76 117
s6 -6 6 -16c0 -11 -3 -26 -10 -38zM366 559c-38 -10 -50 -50 -74 -50c-11 0 -21 6 -21 17c0 19 39 87 70 87c15 0 31 -27 31 -43c0 -6 -1 -10 -6 -11zM179 559c-38 -10 -50 -50 -74 -50c-11 0 -21 6 -21 17c0 19 39 87 70 87c15 0 31 -27 31 -43c0 -6 -1 -10 -6 -11z" />
    <glyph glyph-name="jcircumflex" unicode="&#x135;" horiz-adv-x="215" 
d="M206 390h40c-48 -31 -81 -140 -127 -269c-48 -133 -126 -357 -327 -357c-43 0 -90 15 -90 62c0 29 19 70 57 70c16 0 31 -9 36 -21c-14 -9 -21 -35 -21 -47c0 -22 16 -35 39 -35c71 1 123 94 151 161c46 111 79 233 122 338c29 71 35 98 120 98zM345 505v-1
c0 -4 -25 -19 -37 -19c-22 0 -64 74 -75 99c-35 -34 -107 -95 -128 -95c-9 0 -18 1 -18 3v1c53 43 100 82 146 130c6 7 13 9 18 9c15 0 62 -88 94 -127z" />
    <glyph glyph-name="kcommaaccent" unicode="&#x137;" horiz-adv-x="411" 
d="M482 199c-19 -32 -44 -71 -71 -107c-30 -39 -85 -100 -152 -100c-59 0 -82 69 -82 143c0 48 11 89 30 89c57 0 127 28 127 78c0 15 -9 28 -32 28c-62 0 -121 -93 -153 -150c-35 -62 -74 -180 -117 -180h-61c59 111 120 345 181 471c38 78 123 272 230 272
c42 0 55 -23 55 -50c0 -102 -157 -289 -275 -404l-18 -50c56 72 147 155 221 155c39 0 62 -21 62 -52c0 -80 -89 -121 -160 -132c7 -68 15 -138 53 -138c19 0 59 24 91 66c24 31 72 117 76 117c3 0 6 -7 6 -17c0 -11 -3 -27 -11 -39zM384 717c-48 0 -143 -224 -196 -360
c66 77 135 163 180 253c5 9 30 61 30 89c0 11 -4 18 -14 18zM157 -64c-34 -79 -112 -198 -148 -198c-4 0 -9 1 -14 4c48 72 70 151 77 196c1 9 21 13 41 13c22 0 44 -5 44 -13v-2z" />
    <glyph glyph-name="kgreenlandic" unicode="&#x138;" horiz-adv-x="566" 
d="M573 432c-78 0 -164 -62 -235 -124c47 -156 148 -254 226 -306c-27 -9 -98 -8 -116 -8c-61 0 -160 180 -175 270c-4 -3 -25 -23 -38 -42c-20 -28 -59 -143 -59 -200c0 -9 1 -17 4 -22h-129c38 121 152 500 263 653c5 7 24 22 52 22c8 0 61 -8 61 -30
c0 -51 -168 -257 -178 -353c34 34 190 166 274 166c24 0 58 -9 58 -23c0 -2 -3 -3 -8 -3z" />
    <glyph glyph-name="ldot" unicode="&#x140;" horiz-adv-x="400" 
d="M415 610c-53 -106 -176 -250 -243 -314l-16 -46c-15 -44 -37 -126 -37 -156c0 -37 28 -53 62 -53c108 0 221 82 290 211c3 6 6 9 8 9c4 0 6 -6 6 -15c0 -12 -4 -28 -12 -43c-66 -119 -214 -220 -354 -220c-66 0 -89 20 -89 75c0 52 20 131 49 219c39 119 149 467 304 467
c42 0 55 -24 55 -52c0 -29 -12 -62 -23 -82zM394 719h-7c-56 0 -137 -208 -195 -366c67 79 141 170 187 264c4 9 28 58 28 85c0 10 -4 17 -13 17zM378 323c-13 -13 -46 -61 -54 -61c-19 0 -55 26 -55 44c0 29 50 60 95 60c15 0 24 -7 24 -22c0 -8 -3 -16 -10 -21z" />
    <glyph glyph-name="lslash" unicode="&#x142;" horiz-adv-x="241" 
d="M-15 219l88 33c21 83 150 492 312 492c40 0 52 -20 52 -47c0 -101 -180 -316 -270 -401l-4 -10l127 47c1 0 1 -1 1 -3c0 -10 -7 -39 -13 -41l-131 -49c-14 -46 -29 -118 -29 -146c0 -21 9 -30 22 -30c34 0 84 52 101 74c25 32 71 118 76 118c4 0 6 -6 6 -16
c0 -34 -44 -98 -82 -148c-30 -40 -96 -98 -152 -98c-37 0 -56 29 -56 76c0 35 11 84 26 136l-86 -32c-1 0 -1 1 -1 2c0 10 6 40 13 43zM389 719c-51 0 -143 -207 -202 -366c67 79 141 170 187 264c4 9 28 58 28 85c0 10 -4 17 -13 17z" />
    <glyph glyph-name="nacute" unicode="&#x144;" horiz-adv-x="436" 
d="M508 201c-19 -32 -45 -73 -72 -109c-28 -38 -88 -98 -136 -98c-46 0 -59 32 -59 68c0 65 47 185 75 258c3 7 4 13 4 19c0 15 -11 21 -25 21c-135 0 -204 -311 -219 -360h-97c-1 22 63 173 88 241c7 20 36 106 36 144c0 6 -1 12 -3 15h42c50 0 55 -11 55 -31
c0 -16 -8 -34 -11 -44c20 19 84 80 169 80c37 0 57 -17 57 -52c0 -12 -3 -27 -8 -44c-15 -44 -66 -162 -66 -208c0 -15 6 -24 18 -24c18 0 54 28 80 61c25 32 72 117 76 117s6 -7 6 -17c0 -11 -3 -25 -10 -37zM448 578c-71 -30 -169 -84 -174 -84c-6 0 -23 9 -23 12
c14 7 91 66 140 101c2 1 4 2 7 2c18 0 52 -20 52 -28c0 -1 0 -2 -2 -3z" />
    <glyph glyph-name="ntilde" unicode="&#xf1;" horiz-adv-x="436" 
d="M508 201c-19 -32 -45 -73 -72 -109c-28 -38 -88 -98 -136 -98c-46 0 -59 32 -59 68c0 65 47 185 75 258c3 7 4 13 4 19c0 15 -11 21 -25 21c-135 0 -204 -311 -219 -360h-97c-1 22 63 173 88 241c7 20 36 106 36 144c0 6 -1 12 -3 15h42c50 0 55 -11 55 -31
c0 -16 -8 -34 -11 -44c20 19 84 80 169 80c37 0 57 -17 57 -52c0 -12 -3 -27 -8 -44c-15 -44 -66 -162 -66 -208c0 -15 6 -24 18 -24c18 0 54 28 80 61c25 32 72 117 76 117s6 -7 6 -17c0 -11 -3 -25 -10 -37zM452 581c-17 -29 -43 -72 -80 -72c-46 0 -84 36 -130 36
c-43 0 -53 -30 -63 -30c-5 0 -11 4 -11 9c0 7 38 68 77 68c48 0 92 -37 139 -37c41 0 45 41 61 41c5 0 9 -3 9 -8c0 -2 -1 -5 -2 -7z" />
    <glyph glyph-name="ograve" unicode="&#xf2;" 
d="M517 246c2 4 4 6 6 6c4 0 6 -6 6 -15c0 -70 -73 -111 -112 -111c-20 0 -41 7 -56 19c-41 -82 -100 -153 -213 -153c-62 0 -113 36 -113 122c0 124 93 293 243 293c92 0 119 -60 119 -126c0 -34 -8 -68 -21 -101c10 -14 26 -21 43 -21c43 0 74 42 98 87zM350 308
c-2 30 -15 53 -48 53c-61 0 -112 -87 -135 -134c-17 -35 -36 -89 -36 -131c0 -36 14 -64 52 -66c64 0 117 92 141 146c-21 18 -34 44 -34 73c0 36 21 59 54 59h6zM177 581c-2 1 -3 2 -3 3c0 8 35 28 52 28c3 0 6 -1 8 -2c49 -35 125 -94 140 -101c1 -3 -17 -12 -23 -12
s-103 54 -174 84z" />
    <glyph glyph-name="oacute" unicode="&#xf3;" 
d="M517 246c2 4 4 6 6 6c4 0 6 -6 6 -15c0 -70 -73 -111 -112 -111c-20 0 -41 7 -56 19c-41 -82 -100 -153 -213 -153c-62 0 -113 36 -113 122c0 124 93 293 243 293c92 0 119 -60 119 -126c0 -34 -8 -68 -21 -101c10 -14 26 -21 43 -21c43 0 74 42 98 87zM350 308
c-2 30 -15 53 -48 53c-61 0 -112 -87 -135 -134c-17 -35 -36 -89 -36 -131c0 -36 14 -64 52 -66c64 0 117 92 141 146c-21 18 -34 44 -34 73c0 36 21 59 54 59h6zM431 581c-71 -30 -169 -84 -174 -84c-6 0 -23 9 -23 12c14 7 91 66 140 101c2 1 4 2 7 2c18 0 52 -20 52 -28
c0 -1 0 -2 -2 -3z" />
    <glyph glyph-name="ocircumflex" unicode="&#xf4;" 
d="M517 246c2 4 4 6 6 6c4 0 6 -6 6 -15c0 -70 -73 -111 -112 -111c-20 0 -41 7 -56 19c-41 -82 -100 -153 -213 -153c-62 0 -113 36 -113 122c0 124 93 293 243 293c92 0 119 -60 119 -126c0 -34 -8 -68 -21 -101c10 -14 26 -21 43 -21c43 0 74 42 98 87zM350 308
c-2 30 -15 53 -48 53c-61 0 -112 -87 -135 -134c-17 -35 -36 -89 -36 -131c0 -36 14 -64 52 -66c64 0 117 92 141 146c-21 18 -34 44 -34 73c0 36 21 59 54 59h6zM437 502v-1c0 -4 -25 -19 -37 -19c-22 0 -64 74 -75 99c-35 -34 -107 -95 -128 -95c-9 0 -18 1 -18 3v1
c53 43 100 82 146 130c6 7 13 9 18 9c15 0 62 -88 94 -127z" />
    <glyph glyph-name="otilde" unicode="&#xf5;" 
d="M517 246c2 4 4 6 6 6c4 0 6 -6 6 -15c0 -70 -73 -111 -112 -111c-20 0 -41 7 -56 19c-41 -82 -100 -153 -213 -153c-62 0 -113 36 -113 122c0 124 93 293 243 293c92 0 119 -60 119 -126c0 -34 -8 -68 -21 -101c10 -14 26 -21 43 -21c43 0 74 42 98 87zM350 308
c-2 30 -15 53 -48 53c-61 0 -112 -87 -135 -134c-17 -35 -36 -89 -36 -131c0 -36 14 -64 52 -66c64 0 117 92 141 146c-21 18 -34 44 -34 73c0 36 21 59 54 59h6zM448 575c-17 -29 -43 -72 -80 -72c-46 0 -84 36 -130 36c-43 0 -53 -30 -63 -30c-5 0 -11 4 -11 9
c0 7 38 68 77 68c48 0 92 -37 139 -37c41 0 45 41 61 41c5 0 9 -3 9 -8c0 -2 -1 -5 -2 -7z" />
    <glyph glyph-name="odieresis" unicode="&#xf6;" 
d="M517 246c2 4 4 6 6 6c4 0 6 -6 6 -15c0 -70 -73 -111 -112 -111c-20 0 -41 7 -56 19c-41 -82 -100 -153 -213 -153c-62 0 -113 36 -113 122c0 124 93 293 243 293c92 0 119 -60 119 -126c0 -34 -8 -68 -21 -101c10 -14 26 -21 43 -21c43 0 74 42 98 87zM350 308
c-2 30 -15 53 -48 53c-61 0 -112 -87 -135 -134c-17 -35 -36 -89 -36 -131c0 -36 14 -64 52 -66c64 0 117 92 141 146c-21 18 -34 44 -34 73c0 36 21 59 54 59h6zM480 550c-38 -10 -50 -50 -74 -50c-11 0 -21 6 -21 17c0 19 39 87 70 87c15 0 31 -27 31 -43
c0 -6 -1 -10 -6 -11zM293 550c-38 -10 -50 -50 -74 -50c-11 0 -21 6 -21 17c0 19 39 87 70 87c15 0 31 -27 31 -43c0 -6 -1 -10 -6 -11z" />
    <glyph glyph-name="oslash" unicode="&#xf8;" 
d="M517 246c2 4 4 6 6 6c4 0 6 -6 6 -15c0 -70 -73 -111 -112 -111c-20 0 -41 7 -56 19c-42 -84 -101 -153 -216 -153h-2l-65 -103c-2 -3 -16 -5 -26 -5c-6 0 -10 0 -10 2v1l69 110c-45 12 -76 48 -76 117c0 124 93 293 243 293c34 0 60 -9 78 -23l55 87c2 3 14 5 24 5
c7 0 12 0 12 -2v-1l-70 -111c15 -23 20 -51 20 -81c0 -34 -8 -68 -21 -101c10 -14 26 -21 43 -21c43 0 74 42 98 87zM167 227c-17 -35 -36 -88 -36 -131c0 -19 4 -36 13 -48l190 301c-7 8 -18 12 -32 12c-61 0 -112 -87 -135 -134zM324 176c-16 13 -28 31 -32 52l-124 -196
c5 -1 9 -2 15 -2c64 0 117 92 141 146z" />
    <glyph glyph-name="rcaron" unicode="&#x159;" horiz-adv-x="362" 
d="M409 203c-20 -33 -46 -75 -73 -112c-27 -36 -89 -98 -137 -98c-39 0 -57 30 -57 84c0 70 26 173 87 268c-20 -16 -46 -28 -70 -28c-8 0 -16 2 -23 5c-11 -22 -34 -72 -74 -137c-1 -2 -2 -3 -3 -3c-3 0 -5 8 -5 19c0 32 51 118 55 130c-24 12 -36 36 -36 58
c0 25 16 52 47 52c14 0 28 -6 36 -14c-2 -6 -2 -12 -2 -18c0 -37 32 -58 67 -58c4 0 8 0 12 1c19 27 43 50 71 50c11 0 36 -1 51 -1h10c-12 -9 -33 -47 -40 -61c-40 -78 -90 -173 -90 -234c0 -18 7 -30 20 -30c17 1 52 26 81 62c24 31 71 119 76 119c4 0 7 -8 7 -18
s-3 -24 -10 -36zM176 623v0c0 5 25 20 37 20c22 0 63 -75 75 -99c35 33 106 95 128 95c9 0 18 -1 18 -3v-1c-53 -43 -100 -82 -146 -130c-6 -7 -13 -10 -19 -10c-15 0 -61 88 -93 128z" />
    <glyph glyph-name="rcommaaccent" unicode="&#x157;" horiz-adv-x="336" 
d="M409 203c-20 -33 -46 -75 -73 -112c-27 -36 -89 -98 -137 -98c-39 0 -57 30 -57 84c0 70 26 173 87 268c-20 -16 -46 -28 -70 -28c-8 0 -16 2 -23 5c-11 -22 -34 -72 -74 -137c-1 -2 -2 -3 -3 -3c-3 0 -5 8 -5 19c0 32 51 118 55 130c-24 12 -36 36 -36 58
c0 25 16 52 47 52c14 0 28 -6 36 -14c-2 -6 -2 -12 -2 -18c0 -37 32 -58 67 -58c4 0 8 0 12 1c19 27 43 50 71 50c11 0 36 -1 51 -1h10c-12 -9 -33 -47 -40 -61c-40 -78 -90 -173 -90 -234c0 -18 7 -30 20 -30c17 1 52 26 81 62c24 31 71 119 76 119c4 0 7 -8 7 -18
s-3 -24 -10 -36zM121 -71c-34 -79 -112 -198 -148 -198c-4 0 -9 1 -14 4c48 72 70 151 77 196c1 9 21 13 41 13c22 0 44 -5 44 -13v-2z" />
    <glyph glyph-name="germandbls" unicode="&#xdf;" horiz-adv-x="544" 
d="M617 202c-79 -135 -151 -219 -299 -219c-66 0 -126 27 -126 81c0 28 17 65 52 65c14 0 28 -8 32 -18c-14 -14 -19 -34 -19 -48c0 -27 21 -46 56 -46c44 0 82 35 82 77c0 11 -2 22 -8 34c-34 70 -122 101 -122 189c0 138 245 121 245 270c0 54 -38 76 -77 76
c-124 0 -209 -240 -254 -362c-49 -132 -104 -290 -172 -406c-51 -87 -107 -150 -213 -150c-88 0 -122 43 -122 86c0 35 24 67 57 67c18 0 34 -10 34 -28c0 -14 -27 -36 -27 -61c0 -21 15 -32 36 -32c10 0 22 3 35 9c144 73 217 354 283 534c59 163 137 383 347 383
c59 0 143 -34 143 -111c0 -133 -230 -127 -230 -249c0 -91 142 -99 142 -209c0 -40 -24 -75 -49 -93c101 42 166 219 180 219c3 0 5 -6 5 -16c0 -12 -3 -29 -11 -42z" />
    <glyph glyph-name="ugrave" unicode="&#xf9;" 
d="M521 201c-19 -32 -45 -72 -72 -109c-28 -37 -88 -98 -135 -98c-32 0 -56 21 -56 83c0 16 1 32 4 50c-80 -113 -142 -133 -179 -133c-32 0 -56 26 -56 82c0 45 38 202 100 292c14 20 24 22 65 22h48c-35 -49 -79 -143 -96 -191c-5 -14 -24 -66 -24 -102
c0 -22 7 -38 27 -38c63 0 158 222 198 286c20 31 41 58 71 58c10 0 31 -1 48 -1c8 0 15 0 19 1c-35 -24 -133 -227 -133 -296c0 -18 6 -30 20 -30c17 0 50 24 79 61c25 32 73 118 77 118s6 -7 6 -16c0 -11 -3 -27 -11 -39zM216 576c-2 1 -3 2 -3 3c0 8 35 28 52 28
c3 0 6 -1 8 -2c49 -35 125 -94 140 -101c1 -3 -17 -12 -23 -12s-103 54 -174 84z" />
    <glyph glyph-name="uacute" unicode="&#xfa;" 
d="M521 201c-19 -32 -45 -72 -72 -109c-28 -37 -88 -98 -135 -98c-32 0 -56 21 -56 83c0 16 1 32 4 50c-80 -113 -142 -133 -179 -133c-32 0 -56 26 -56 82c0 45 38 202 100 292c14 20 24 22 65 22h48c-35 -49 -79 -143 -96 -191c-5 -14 -24 -66 -24 -102
c0 -22 7 -38 27 -38c63 0 158 222 198 286c20 31 41 58 71 58c10 0 31 -1 48 -1c8 0 15 0 19 1c-35 -24 -133 -227 -133 -296c0 -18 6 -30 20 -30c17 0 50 24 79 61c25 32 73 118 77 118s6 -7 6 -16c0 -11 -3 -27 -11 -39zM459 577c-71 -30 -169 -84 -174 -84
c-6 0 -23 9 -23 12c14 7 91 66 140 101c2 1 4 2 7 2c18 0 52 -20 52 -28c0 -1 0 -2 -2 -3z" />
    <glyph glyph-name="ucircumflex" unicode="&#xfb;" 
d="M521 201c-19 -32 -45 -72 -72 -109c-28 -37 -88 -98 -135 -98c-32 0 -56 21 -56 83c0 16 1 32 4 50c-80 -113 -142 -133 -179 -133c-32 0 -56 26 -56 82c0 45 38 202 100 292c14 20 24 22 65 22h48c-35 -49 -79 -143 -96 -191c-5 -14 -24 -66 -24 -102
c0 -22 7 -38 27 -38c63 0 158 222 198 286c20 31 41 58 71 58c10 0 31 -1 48 -1c8 0 15 0 19 1c-35 -24 -133 -227 -133 -296c0 -18 6 -30 20 -30c17 0 50 24 79 61c25 32 73 118 77 118s6 -7 6 -16c0 -11 -3 -27 -11 -39zM477 505v-1c0 -4 -25 -19 -37 -19
c-22 0 -64 74 -75 99c-35 -34 -107 -95 -128 -95c-9 0 -18 1 -18 3v1c53 43 100 82 146 130c6 7 13 9 18 9c15 0 62 -88 94 -127z" />
    <glyph glyph-name="udieresis" unicode="&#xfc;" 
d="M521 201c-19 -32 -45 -72 -72 -109c-28 -37 -88 -98 -135 -98c-32 0 -56 21 -56 83c0 16 1 32 4 50c-80 -113 -142 -133 -179 -133c-32 0 -56 26 -56 82c0 45 38 202 100 292c14 20 24 22 65 22h48c-35 -49 -79 -143 -96 -191c-5 -14 -24 -66 -24 -102
c0 -22 7 -38 27 -38c63 0 158 222 198 286c20 31 41 58 71 58c10 0 31 -1 48 -1c8 0 15 0 19 1c-35 -24 -133 -227 -133 -296c0 -18 6 -30 20 -30c17 0 50 24 79 61c25 32 73 118 77 118s6 -7 6 -16c0 -11 -3 -27 -11 -39zM475 554c-38 -10 -50 -50 -74 -50
c-11 0 -21 6 -21 17c0 19 39 87 70 87c15 0 31 -27 31 -43c0 -6 -1 -10 -6 -11zM288 554c-38 -10 -50 -50 -74 -50c-11 0 -21 6 -21 17c0 19 39 87 70 87c15 0 31 -27 31 -43c0 -6 -1 -10 -6 -11z" />
    <glyph glyph-name="yacute" unicode="&#xfd;" horiz-adv-x="425" 
d="M440 390h41c-47 -30 -85 -146 -128 -268c-26 -72 -52 -172 -100 -232c-45 -56 -114 -91 -186 -91c-51 0 -117 20 -117 81c0 28 18 57 48 57c19 0 37 -13 43 -26c-13 -4 -18 -31 -18 -42c0 -25 20 -42 48 -42c74 0 116 92 136 145l57 152c-98 -123 -136 -130 -183 -130
c-32 0 -57 29 -57 82c1 53 34 177 80 249c35 55 73 65 139 65c3 0 4 -1 4 -4c0 -2 -2 -6 -6 -10c-53 -46 -126 -198 -126 -286c0 -20 5 -34 19 -34c52 0 142 131 178 216c36 86 36 118 128 118zM464 571c-71 -30 -169 -84 -174 -84c-6 0 -23 9 -23 12c14 7 91 66 140 101
c2 1 4 2 7 2c18 0 52 -20 52 -28c0 -1 0 -2 -2 -3z" />
    <glyph glyph-name="ydieresis" unicode="&#xff;" horiz-adv-x="425" 
d="M440 390h41c-47 -30 -85 -146 -128 -268c-26 -72 -52 -172 -100 -232c-45 -56 -114 -91 -186 -91c-51 0 -117 20 -117 81c0 28 18 57 48 57c19 0 37 -13 43 -26c-13 -4 -18 -31 -18 -42c0 -25 20 -42 48 -42c74 0 116 92 136 145l57 152c-98 -123 -136 -130 -183 -130
c-32 0 -57 29 -57 82c1 53 34 177 80 249c35 55 73 65 139 65c3 0 4 -1 4 -4c0 -2 -2 -6 -6 -10c-53 -46 -126 -198 -126 -286c0 -20 5 -34 19 -34c52 0 142 131 178 216c36 86 36 118 128 118zM491 545c-38 -10 -50 -50 -74 -50c-11 0 -21 6 -21 17c0 19 39 87 70 87
c15 0 31 -27 31 -43c0 -6 -1 -10 -6 -11zM304 545c-38 -10 -50 -50 -74 -50c-11 0 -21 6 -21 17c0 19 39 87 70 87c15 0 31 -27 31 -43c0 -6 -1 -10 -6 -11z" />
    <glyph glyph-name="eth" unicode="&#xf0;" horiz-adv-x="482" 
d="M423 167c-43 -102 -131 -187 -246 -187c-102 0 -148 83 -148 184c0 139 100 304 249 304c9 0 14 -2 14 -5c0 -4 -5 -8 -16 -12c-89 -30 -151 -175 -151 -284c0 -78 30 -130 101 -130c94 0 147 112 147 208c0 103 -48 231 -117 320l-135 -87h-1s-2 4 -2 11
c0 17 5 47 13 52l94 60c-43 45 -92 73 -141 73c-24 0 -41 -11 -41 -35c0 -30 30 -44 30 -62s-17 -29 -35 -29c-33 0 -58 32 -58 68c0 44 36 89 133 89c67 0 127 -23 177 -62l88 58v0c2 0 3 -5 3 -12c0 -17 -5 -46 -12 -51l-43 -27c77 -79 123 -196 123 -308
c0 -47 -9 -94 -26 -136z" />
    <glyph glyph-name="thorn" unicode="&#xfe;" horiz-adv-x="394" 
d="M466 201c-92 -167 -170 -218 -300 -218c-40 0 -82 8 -94 37l-3 11l-56 -175c-22 -70 -32 -104 -87 -104h-48c38 54 70 159 120 299c4 19 8 35 12 44c52 124 129 551 285 551h30c-25 -16 -75 -106 -99 -163c-29 -71 -55 -143 -76 -216c47 73 116 137 173 137
c37 0 67 -24 67 -92c0 -108 -78 -218 -161 -281h7c62 -1 126 65 158 106c26 34 73 120 77 120s6 -7 6 -16c0 -11 -3 -26 -11 -40zM278 319c-3 1 -6 1 -9 1c-14 0 -30 -7 -46 -20c-48 -37 -133 -157 -133 -233c0 -23 6 -41 29 -41c75 0 174 196 174 264c0 15 -5 26 -15 29z
" />
    <glyph glyph-name="AE" unicode="&#xc6;" horiz-adv-x="998" 
d="M1029 688c1 -5 2 -10 2 -16c0 -51 -47 -142 -59 -142c-6 0 -11 0 -11 8c0 13 8 42 8 60c0 42 -39 67 -89 67c-37 0 -60 -3 -75 -26c-53 -79 -96 -162 -133 -248h261l1 -1c0 -8 -24 -48 -37 -48h-247c-33 -80 -79 -218 -79 -257c0 -34 18 -51 70 -51c130 0 301 19 346 114
c1 2 3 3 6 3s7 -3 7 -11c0 -3 -1 -6 -2 -11c-38 -120 -113 -129 -203 -129h-41h-261c-22 0 -31 18 -31 48c0 52 28 139 56 211h-232c-85 -90 -161 -172 -234 -259h-100c103 94 437 420 600 601c40 44 66 97 131 97h201c47 0 84 5 109 5c20 0 32 -3 36 -15zM704 668
c-107 -65 -296 -278 -374 -359h207l35 82c33 79 57 142 102 220c10 18 19 35 31 49c0 2 -1 5 -1 8zM466 698h166c-57 -56 -249 -53 -329 -71c-72 -17 -107 -64 -107 -128c-22 23 -31 46 -31 69c0 114 147 130 243 130h58z" />
    <glyph glyph-name="Agrave" unicode="&#xc0;" horiz-adv-x="813" 
d="M466 698h166c-57 -56 -249 -53 -329 -71c-72 -17 -107 -64 -107 -128c-22 23 -31 46 -31 69c0 114 147 130 243 130h58zM683 698h72c-35 -33 -70 -144 -87 -216c-24 -98 -54 -227 -54 -328c0 -33 6 -118 59 -118c11 0 23 4 37 13l6 -9c-19 -27 -75 -49 -121 -49
c-77 0 -90 69 -93 136c0 38 9 107 13 132h-229c-85 -90 -161 -172 -234 -259h-100c103 94 437 420 600 601c40 44 66 97 131 97zM580 557c-82 -77 -167 -162 -250 -248h192c16 88 40 181 58 248zM601 815c-2 1 -3 2 -3 3c0 8 35 28 52 28c3 0 6 -1 8 -2
c49 -35 125 -94 140 -101c1 -3 -17 -12 -23 -12s-103 54 -174 84z" />
    <glyph glyph-name="Aacute" unicode="&#xc1;" horiz-adv-x="813" 
d="M466 698h166c-57 -56 -249 -53 -329 -71c-72 -17 -107 -64 -107 -128c-22 23 -31 46 -31 69c0 114 147 130 243 130h58zM683 698h72c-35 -33 -70 -144 -87 -216c-24 -98 -54 -227 -54 -328c0 -33 6 -118 59 -118c11 0 23 4 37 13l6 -9c-19 -27 -75 -49 -121 -49
c-77 0 -90 69 -93 136c0 38 9 107 13 132h-229c-85 -90 -161 -172 -234 -259h-100c103 94 437 420 600 601c40 44 66 97 131 97zM580 557c-82 -77 -167 -162 -250 -248h192c16 88 40 181 58 248zM880 810c-71 -30 -169 -84 -174 -84c-6 0 -23 9 -23 12c14 7 91 66 140 101
c2 1 4 2 7 2c18 0 52 -20 52 -28c0 -1 0 -2 -2 -3z" />
    <glyph glyph-name="Acircumflex" unicode="&#xc2;" horiz-adv-x="813" 
d="M466 698h166c-57 -56 -249 -53 -329 -71c-72 -17 -107 -64 -107 -128c-22 23 -31 46 -31 69c0 114 147 130 243 130h58zM683 698h72c-35 -33 -70 -144 -87 -216c-24 -98 -54 -227 -54 -328c0 -33 6 -118 59 -118c11 0 23 4 37 13l6 -9c-19 -27 -75 -49 -121 -49
c-77 0 -90 69 -93 136c0 38 9 107 13 132h-229c-85 -90 -161 -172 -234 -259h-100c103 94 437 420 600 601c40 44 66 97 131 97zM580 557c-82 -77 -167 -162 -250 -248h192c16 88 40 181 58 248zM876 766v-1c0 -4 -25 -19 -37 -19c-22 0 -64 74 -75 99
c-35 -34 -107 -95 -128 -95c-9 0 -18 1 -18 3v1c53 43 100 82 146 130c6 7 13 9 18 9c15 0 62 -88 94 -127z" />
    <glyph glyph-name="Atilde" unicode="&#xc3;" horiz-adv-x="813" 
d="M466 698h166c-57 -56 -249 -53 -329 -71c-72 -17 -107 -64 -107 -128c-22 23 -31 46 -31 69c0 114 147 130 243 130h58zM683 698h72c-35 -33 -70 -144 -87 -216c-24 -98 -54 -227 -54 -328c0 -33 6 -118 59 -118c11 0 23 4 37 13l6 -9c-19 -27 -75 -49 -121 -49
c-77 0 -90 69 -93 136c0 38 9 107 13 132h-229c-85 -90 -161 -172 -234 -259h-100c103 94 437 420 600 601c40 44 66 97 131 97zM580 557c-82 -77 -167 -162 -250 -248h192c16 88 40 181 58 248zM940 883c-17 -29 -43 -72 -80 -72c-46 0 -84 36 -130 36
c-43 0 -53 -30 -63 -30c-5 0 -11 4 -11 9c0 7 38 68 77 68c48 0 92 -37 139 -37c41 0 45 41 61 41c5 0 9 -3 9 -8c0 -2 -1 -5 -2 -7z" />
    <glyph glyph-name="Adieresis" unicode="&#xc4;" horiz-adv-x="813" 
d="M466 698h166c-57 -56 -249 -53 -329 -71c-72 -17 -107 -64 -107 -128c-22 23 -31 46 -31 69c0 114 147 130 243 130h58zM683 698h72c-35 -33 -70 -144 -87 -216c-24 -98 -54 -227 -54 -328c0 -33 6 -118 59 -118c11 0 23 4 37 13l6 -9c-19 -27 -75 -49 -121 -49
c-77 0 -90 69 -93 136c0 38 9 107 13 132h-229c-85 -90 -161 -172 -234 -259h-100c103 94 437 420 600 601c40 44 66 97 131 97zM580 557c-82 -77 -167 -162 -250 -248h192c16 88 40 181 58 248zM905 809c-38 -10 -50 -50 -74 -50c-11 0 -21 6 -21 17c0 19 39 87 70 87
c15 0 31 -27 31 -43c0 -6 -1 -10 -6 -11zM718 809c-38 -10 -50 -50 -74 -50c-11 0 -21 6 -21 17c0 19 39 87 70 87c15 0 31 -27 31 -43c0 -6 -1 -10 -6 -11z" />
    <glyph glyph-name="Aring" unicode="&#xc5;" horiz-adv-x="813" 
d="M466 698h166c-57 -56 -249 -53 -329 -71c-72 -17 -107 -64 -107 -128c-22 23 -31 46 -31 69c0 114 147 130 243 130h58zM683 698h72c-35 -33 -70 -144 -87 -216c-24 -98 -54 -227 -54 -328c0 -33 6 -118 59 -118c11 0 23 4 37 13l6 -9c-19 -27 -75 -49 -121 -49
c-77 0 -90 69 -93 136c0 38 9 107 13 132h-229c-85 -90 -161 -172 -234 -259h-100c103 94 437 420 600 601c40 44 66 97 131 97zM580 557c-82 -77 -167 -162 -250 -248h192c16 88 40 181 58 248z" />
    <glyph glyph-name="Ccedilla" unicode="&#xc7;" horiz-adv-x="651" 
d="M666 556c-22 -55 -87 -97 -150 -97c-28 0 -50 13 -50 36c0 9 4 19 12 30c8 -3 16 -4 25 -4c49 0 105 39 105 92c0 46 -38 58 -77 58c-209 0 -415 -243 -415 -478c0 -114 52 -178 162 -178c137 0 315 127 364 247c13 -9 19 -21 19 -35c0 -38 -39 -86 -58 -106
c-95 -97 -232 -151 -365 -151c-164 0 -235 83 -235 219c0 219 202 519 494 519c107 0 177 -47 177 -112c0 -13 -3 -26 -8 -40zM232 -27l-19 -63c-1 -3 -3 -4 -6 -4c-1 0 -9 2 -18 2c-48 0 -99 -79 -99 -137c0 -27 12 -47 40 -47c27 0 52 16 73 38c2 2 3 2 4 2c2 0 3 -3 3 -7
c0 -34 -55 -57 -98 -57c-54 0 -74 34 -74 74c0 86 64 152 148 152h4l20 46c1 3 6 4 11 4c6 0 11 -1 11 -3z" />
    <glyph glyph-name="Egrave" unicode="&#xc8;" horiz-adv-x="587" 
d="M616 688c1 -5 2 -10 2 -16c0 -51 -47 -142 -59 -142c-6 0 -11 0 -11 8c0 13 8 42 8 60c0 42 -39 67 -89 67c-37 0 -60 -3 -75 -26c-53 -79 -96 -162 -133 -248h261l1 -1c0 -8 -24 -48 -37 -48h-247c-33 -80 -79 -218 -79 -257c0 -34 18 -51 70 -51c130 0 301 19 346 114
c1 2 3 3 6 3s7 -3 7 -11c0 -3 -1 -6 -2 -11c-38 -120 -113 -129 -203 -129h-41h-261c-22 0 -31 18 -31 47c0 76 59 223 89 295h-55c-6 0 -8 2 -8 5c0 13 33 44 50 44h34c33 79 58 142 102 220c10 18 19 35 31 49c-108 -14 -238 -49 -273 -109c-1 -2 -2 -3 -4 -3s-5 4 -5 8
c0 2 0 3 1 5c49 131 155 137 262 137h34h164c47 0 84 5 109 5c20 0 32 -3 36 -15zM316 815c-2 1 -3 2 -3 3c0 8 35 28 52 28c3 0 6 -1 8 -2c49 -35 125 -94 140 -101c1 -3 -17 -12 -23 -12s-103 54 -174 84z" />
    <glyph glyph-name="Eacute" unicode="&#xc9;" horiz-adv-x="587" 
d="M616 688c1 -5 2 -10 2 -16c0 -51 -47 -142 -59 -142c-6 0 -11 0 -11 8c0 13 8 42 8 60c0 42 -39 67 -89 67c-37 0 -60 -3 -75 -26c-53 -79 -96 -162 -133 -248h261l1 -1c0 -8 -24 -48 -37 -48h-247c-33 -80 -79 -218 -79 -257c0 -34 18 -51 70 -51c130 0 301 19 346 114
c1 2 3 3 6 3s7 -3 7 -11c0 -3 -1 -6 -2 -11c-38 -120 -113 -129 -203 -129h-41h-261c-22 0 -31 18 -31 47c0 76 59 223 89 295h-55c-6 0 -8 2 -8 5c0 13 33 44 50 44h34c33 79 58 142 102 220c10 18 19 35 31 49c-108 -14 -238 -49 -273 -109c-1 -2 -2 -3 -4 -3s-5 4 -5 8
c0 2 0 3 1 5c49 131 155 137 262 137h34h164c47 0 84 5 109 5c20 0 32 -3 36 -15zM562 810c-71 -30 -169 -84 -174 -84c-6 0 -23 9 -23 12c14 7 91 66 140 101c2 1 4 2 7 2c18 0 52 -20 52 -28c0 -1 0 -2 -2 -3z" />
    <glyph glyph-name="Ecircumflex" unicode="&#xca;" horiz-adv-x="587" 
d="M616 688c1 -5 2 -10 2 -16c0 -51 -47 -142 -59 -142c-6 0 -11 0 -11 8c0 13 8 42 8 60c0 42 -39 67 -89 67c-37 0 -60 -3 -75 -26c-53 -79 -96 -162 -133 -248h261l1 -1c0 -8 -24 -48 -37 -48h-247c-33 -80 -79 -218 -79 -257c0 -34 18 -51 70 -51c130 0 301 19 346 114
c1 2 3 3 6 3s7 -3 7 -11c0 -3 -1 -6 -2 -11c-38 -120 -113 -129 -203 -129h-41h-261c-22 0 -31 18 -31 47c0 76 59 223 89 295h-55c-6 0 -8 2 -8 5c0 13 33 44 50 44h34c33 79 58 142 102 220c10 18 19 35 31 49c-108 -14 -238 -49 -273 -109c-1 -2 -2 -3 -4 -3s-5 4 -5 8
c0 2 0 3 1 5c49 131 155 137 262 137h34h164c47 0 84 5 109 5c20 0 32 -3 36 -15zM583 758v-1c0 -4 -25 -19 -37 -19c-22 0 -64 74 -75 99c-35 -34 -107 -95 -128 -95c-9 0 -18 1 -18 3v1c53 43 100 82 146 130c6 7 13 9 18 9c15 0 62 -88 94 -127z" />
    <glyph glyph-name="Edieresis" unicode="&#xcb;" horiz-adv-x="587" 
d="M616 688c1 -5 2 -10 2 -16c0 -51 -47 -142 -59 -142c-6 0 -11 0 -11 8c0 13 8 42 8 60c0 42 -39 67 -89 67c-37 0 -60 -3 -75 -26c-53 -79 -96 -162 -133 -248h261l1 -1c0 -8 -24 -48 -37 -48h-247c-33 -80 -79 -218 -79 -257c0 -34 18 -51 70 -51c130 0 301 19 346 114
c1 2 3 3 6 3s7 -3 7 -11c0 -3 -1 -6 -2 -11c-38 -120 -113 -129 -203 -129h-41h-261c-22 0 -31 18 -31 47c0 76 59 223 89 295h-55c-6 0 -8 2 -8 5c0 13 33 44 50 44h34c33 79 58 142 102 220c10 18 19 35 31 49c-108 -14 -238 -49 -273 -109c-1 -2 -2 -3 -4 -3s-5 4 -5 8
c0 2 0 3 1 5c49 131 155 137 262 137h34h164c47 0 84 5 109 5c20 0 32 -3 36 -15zM600 809c-38 -10 -50 -50 -74 -50c-11 0 -21 6 -21 17c0 19 39 87 70 87c15 0 31 -27 31 -43c0 -6 -1 -10 -6 -11zM413 809c-38 -10 -50 -50 -74 -50c-11 0 -21 6 -21 17c0 19 39 87 70 87
c15 0 31 -27 31 -43c0 -6 -1 -10 -6 -11z" />
    <glyph glyph-name="Igrave" unicode="&#xcc;" horiz-adv-x="408" 
d="M264 698h179c-63 -48 -151 -239 -190 -328c-23 -52 -110 -268 -110 -349c0 -9 1 -16 4 -21h-129c23 100 78 240 134 373c37 88 68 166 114 249c9 16 16 29 25 39c-105 -2 -254 -49 -274 -112c-1 -2 -2 -3 -4 -3c-4 0 -9 5 -9 13c0 3 1 6 2 10c40 116 126 129 211 129h47z
M238 815c-2 1 -3 2 -3 3c0 8 35 28 52 28c3 0 6 -1 8 -2c49 -35 125 -94 140 -101c1 -3 -17 -12 -23 -12s-103 54 -174 84z" />
    <glyph glyph-name="Iacute" unicode="&#xcd;" horiz-adv-x="408" 
d="M264 698h179c-63 -48 -151 -239 -190 -328c-23 -52 -110 -268 -110 -349c0 -9 1 -16 4 -21h-129c23 100 78 240 134 373c37 88 68 166 114 249c9 16 16 29 25 39c-105 -2 -254 -49 -274 -112c-1 -2 -2 -3 -4 -3c-4 0 -9 5 -9 13c0 3 1 6 2 10c40 116 126 129 211 129h47z
M525 810c-71 -30 -169 -84 -174 -84c-6 0 -23 9 -23 12c14 7 91 66 140 101c2 1 4 2 7 2c18 0 52 -20 52 -28c0 -1 0 -2 -2 -3z" />
    <glyph glyph-name="Itilde" unicode="&#x128;" horiz-adv-x="408" 
d="M264 698h179c-63 -48 -151 -239 -190 -328c-23 -52 -110 -268 -110 -349c0 -9 1 -16 4 -21h-129c23 100 78 240 134 373c37 88 68 166 114 249c9 16 16 29 25 39c-105 -2 -254 -49 -274 -112c-1 -2 -2 -3 -4 -3c-4 0 -9 5 -9 13c0 3 1 6 2 10c40 116 126 129 211 129h47z
M522 828c-17 -29 -43 -72 -80 -72c-46 0 -84 36 -130 36c-43 0 -53 -30 -63 -30c-5 0 -11 4 -11 9c0 7 38 68 77 68c48 0 92 -37 139 -37c41 0 45 41 61 41c5 0 9 -3 9 -8c0 -2 -1 -5 -2 -7z" />
    <glyph glyph-name="Icircumflex" unicode="&#xce;" horiz-adv-x="408" 
d="M264 698h179c-63 -48 -151 -239 -190 -328c-23 -52 -110 -268 -110 -349c0 -9 1 -16 4 -21h-129c23 100 78 240 134 373c37 88 68 166 114 249c9 16 16 29 25 39c-105 -2 -254 -49 -274 -112c-1 -2 -2 -3 -4 -3c-4 0 -9 5 -9 13c0 3 1 6 2 10c40 116 126 129 211 129h47z
M511 754v-1c0 -4 -25 -19 -37 -19c-22 0 -64 74 -75 99c-35 -34 -107 -95 -128 -95c-9 0 -18 1 -18 3v1c53 43 100 82 146 130c6 7 13 9 18 9c15 0 62 -88 94 -127z" />
    <glyph glyph-name="Idieresis" unicode="&#xcf;" horiz-adv-x="408" 
d="M264 698h179c-63 -48 -151 -239 -190 -328c-23 -52 -110 -268 -110 -349c0 -9 1 -16 4 -21h-129c23 100 78 240 134 373c37 88 68 166 114 249c9 16 16 29 25 39c-105 -2 -254 -49 -274 -112c-1 -2 -2 -3 -4 -3c-4 0 -9 5 -9 13c0 3 1 6 2 10c40 116 126 129 211 129h47z
M511 809c-38 -10 -50 -50 -74 -50c-11 0 -21 6 -21 17c0 19 39 87 70 87c15 0 31 -27 31 -43c0 -6 -1 -10 -6 -11zM324 809c-38 -10 -50 -50 -74 -50c-11 0 -21 6 -21 17c0 19 39 87 70 87c15 0 31 -27 31 -43c0 -6 -1 -10 -6 -11z" />
    <glyph glyph-name="IJ" unicode="&#x132;" horiz-adv-x="752" 
d="M712 698l40 -1c-71 -23 -121 -93 -193 -298c-48 -136 -186 -616 -403 -616c-63 0 -104 38 -104 97c0 19 9 66 46 70c0 -2 -1 -4 -1 -6c0 -41 26 -55 50 -55c40 0 75 29 99 58c85 103 201 366 226 428c32 80 117 254 183 277h-1c-84 -18 -174 -57 -189 -103
c-1 -2 -2 -3 -4 -3c-4 0 -9 5 -9 13c0 3 1 6 2 10c40 116 126 129 211 129h47zM264 698h179c-63 -48 -151 -239 -190 -328c-23 -52 -110 -268 -110 -349c0 -9 1 -16 4 -21h-129c23 100 78 240 134 373c37 88 68 166 114 249c9 16 16 29 25 39c-105 -2 -254 -49 -274 -112
c-1 -2 -2 -3 -4 -3c-4 0 -9 5 -9 13c0 3 1 6 2 10c40 116 126 129 211 129h47z" />
    <glyph glyph-name="Jcircumflex" unicode="&#x134;" horiz-adv-x="441" 
d="M363 698l225 -1c-102 -78 -119 -90 -193 -298c-48 -136 -159 -569 -376 -569c-63 0 -104 38 -104 97c0 19 9 66 46 70c0 -2 -1 -4 -1 -6c0 -41 26 -55 50 -55c126 0 262 350 298 439c32 80 117 254 183 277c-22 6 -59 8 -92 8c-102 0 -261 -44 -283 -111
c-1 -2 -2 -3 -4 -3c-4 0 -9 5 -9 13c0 3 1 6 2 10c40 116 126 129 211 129h47zM637 765v-1c0 -4 -25 -19 -37 -19c-22 0 -64 74 -75 99c-35 -34 -107 -95 -128 -95c-9 0 -18 1 -18 3v1c53 43 100 82 146 130c6 7 13 9 18 9c15 0 62 -88 94 -127z" />
    <glyph glyph-name="Lslash" unicode="&#x141;" horiz-adv-x="593" 
d="M584 129c-38 -121 -112 -129 -202 -129h-42h-261c-28 0 -40 21 -40 56c0 131 143 401 239 574c3 5 13 24 19 31c-105 -2 -254 -49 -274 -112c-1 -2 -2 -3 -4 -3c-4 0 -9 5 -9 13c0 3 1 6 2 10c43 117 125 129 211 129h47h180c-30 -23 -72 -87 -114 -162
c-50 -90 -179 -347 -179 -437c0 -37 16 -65 71 -65c126 0 298 17 346 114c1 2 3 3 5 3c3 0 7 -3 7 -10c0 -3 -1 -7 -2 -12zM11 267h312v-1c0 -6 -18 -41 -26 -41h-312s-1 0 -1 1c0 6 19 41 27 41z" />
    <glyph glyph-name="Ldotaccent" unicode="&#x13f;" horiz-adv-x="570" 
d="M564 129c-38 -121 -112 -129 -202 -129h-42h-261c-28 0 -40 21 -40 56c0 131 143 401 239 574c3 5 13 24 19 31c-105 -2 -254 -49 -274 -112c-1 -2 -2 -3 -4 -3c-4 0 -9 5 -9 13c0 3 1 6 2 10c43 117 125 129 211 129h47h180c-30 -23 -72 -87 -114 -162
c-50 -90 -179 -347 -179 -437c0 -37 16 -65 71 -65c126 0 298 17 346 114c1 2 3 3 5 3c3 0 7 -3 7 -10c0 -3 -1 -7 -2 -12zM450 323c-13 -13 -46 -61 -54 -61c-19 0 -55 26 -55 44c0 29 50 60 95 60c15 0 24 -7 24 -22c0 -8 -3 -16 -10 -21z" />
    <glyph glyph-name="Nacute" unicode="&#x143;" horiz-adv-x="703" 
d="M858 697c-84 -55 -298 -555 -298 -679c0 -7 0 -13 2 -18h-63c-3 80 -28 119 -117 328c-39 91 -55 158 -59 206c-62 -138 -194 -450 -194 -525c0 -4 0 -7 1 -9h-92c87 224 273 632 292 669c-119 0 -258 -55 -279 -120c-1 -2 -2 -3 -4 -3c-3 0 -8 5 -8 13c0 3 1 6 2 10
c40 117 125 129 210 129h47h122c-3 -5 -14 -19 -14 -56c0 -40 12 -102 57 -208c87 -209 74 -213 79 -250c39 99 168 388 223 514c1 3 10 5 21 5c24 0 61 -6 72 -6zM728 810c-71 -30 -169 -84 -174 -84c-6 0 -23 9 -23 12c14 7 91 66 140 101c2 1 4 2 7 2c18 0 52 -20 52 -28
c0 -1 0 -2 -2 -3z" />
    <glyph glyph-name="Ntilde" unicode="&#xd1;" horiz-adv-x="703" 
d="M858 697c-84 -55 -298 -555 -298 -679c0 -7 0 -13 2 -18h-63c-3 80 -28 119 -117 328c-39 91 -55 158 -59 206c-62 -138 -194 -450 -194 -525c0 -4 0 -7 1 -9h-92c87 224 273 632 292 669c-119 0 -258 -55 -279 -120c-1 -2 -2 -3 -4 -3c-3 0 -8 5 -8 13c0 3 1 6 2 10
c40 117 125 129 210 129h47h122c-3 -5 -14 -19 -14 -56c0 -40 12 -102 57 -208c87 -209 74 -213 79 -250c39 99 168 388 223 514c1 3 10 5 21 5c24 0 61 -6 72 -6zM756 883c-17 -29 -43 -72 -80 -72c-46 0 -84 36 -130 36c-43 0 -53 -30 -63 -30c-5 0 -11 4 -11 9
c0 7 38 68 77 68c48 0 92 -37 139 -37c41 0 45 41 61 41c5 0 9 -3 9 -8c0 -2 -1 -5 -2 -7z" />
    <glyph glyph-name="Ograve" unicode="&#xd2;" horiz-adv-x="763" 
d="M718 303c-84 -191 -251 -335 -467 -335c-148 0 -248 59 -248 219c0 269 237 521 502 521c178 0 254 -99 254 -227c0 -56 -14 -117 -41 -178zM671 551c-15 81 -74 111 -141 111c-221 0 -410 -256 -410 -476c0 -97 39 -177 145 -177c216 0 411 273 411 490
c0 18 -2 36 -5 52zM431 833c-2 1 -3 2 -3 3c0 8 35 28 52 28c3 0 6 -1 8 -2c49 -35 125 -94 140 -101c1 -3 -17 -12 -23 -12s-103 54 -174 84z" />
    <glyph glyph-name="Oacute" unicode="&#xd3;" horiz-adv-x="763" 
d="M718 303c-84 -191 -251 -335 -467 -335c-148 0 -248 59 -248 219c0 269 237 521 502 521c178 0 254 -99 254 -227c0 -56 -14 -117 -41 -178zM671 551c-15 81 -74 111 -141 111c-221 0 -410 -256 -410 -476c0 -97 39 -177 145 -177c216 0 411 273 411 490
c0 18 -2 36 -5 52zM681 835c-71 -30 -169 -84 -174 -84c-6 0 -23 9 -23 12c14 7 91 66 140 101c2 1 4 2 7 2c18 0 52 -20 52 -28c0 -1 0 -2 -2 -3z" />
    <glyph glyph-name="Ocircumflex" unicode="&#xd4;" horiz-adv-x="763" 
d="M718 303c-84 -191 -251 -335 -467 -335c-148 0 -248 59 -248 219c0 269 237 521 502 521c178 0 254 -99 254 -227c0 -56 -14 -117 -41 -178zM671 551c-15 81 -74 111 -141 111c-221 0 -410 -256 -410 -476c0 -97 39 -177 145 -177c216 0 411 273 411 490
c0 18 -2 36 -5 52zM687 775v-1c0 -4 -25 -19 -37 -19c-22 0 -64 74 -75 99c-35 -34 -107 -95 -128 -95c-9 0 -18 1 -18 3v1c53 43 100 82 146 130c6 7 13 9 18 9c15 0 62 -88 94 -127z" />
    <glyph glyph-name="Otilde" unicode="&#xd5;" horiz-adv-x="763" 
d="M718 303c-84 -191 -251 -335 -467 -335c-148 0 -248 59 -248 219c0 269 237 521 502 521c178 0 254 -99 254 -227c0 -56 -14 -117 -41 -178zM671 551c-15 81 -74 111 -141 111c-221 0 -410 -256 -410 -476c0 -97 39 -177 145 -177c216 0 411 273 411 490
c0 18 -2 36 -5 52zM722 883c-17 -29 -43 -72 -80 -72c-46 0 -84 36 -130 36c-43 0 -53 -30 -63 -30c-5 0 -11 4 -11 9c0 7 38 68 77 68c48 0 92 -37 139 -37c41 0 45 41 61 41c5 0 9 -3 9 -8c0 -2 -1 -5 -2 -7z" />
    <glyph glyph-name="Odieresis" unicode="&#xd6;" horiz-adv-x="763" 
d="M718 303c-84 -191 -251 -335 -467 -335c-148 0 -248 59 -248 219c0 269 237 521 502 521c178 0 254 -99 254 -227c0 -56 -14 -117 -41 -178zM671 551c-15 81 -74 111 -141 111c-221 0 -410 -256 -410 -476c0 -97 39 -177 145 -177c216 0 411 273 411 490
c0 18 -2 36 -5 52zM703 846c-38 -10 -50 -50 -74 -50c-11 0 -21 6 -21 17c0 19 39 87 70 87c15 0 31 -27 31 -43c0 -6 -1 -10 -6 -11zM516 846c-38 -10 -50 -50 -74 -50c-11 0 -21 6 -21 17c0 19 39 87 70 87c15 0 31 -27 31 -43c0 -6 -1 -10 -6 -11z" />
    <glyph glyph-name="Oslash" unicode="&#xd8;" horiz-adv-x="763" 
d="M718 303c-84 -191 -251 -335 -467 -335c-30 0 -59 3 -84 8l-24 -34c-2 -3 -9 -3 -17 -3c-16 0 -35 3 -35 7v1l30 42c-73 28 -118 90 -118 197c0 264 229 515 489 522c52 0 94 -6 131 -19l15 20c2 2 9 3 17 3c15 0 35 -3 35 -7v-1l-25 -35c65 -41 94 -109 94 -189
c0 -55 -15 -117 -41 -177zM671 551c-6 33 -19 58 -37 75l-433 -604c18 -8 39 -13 65 -13c217 0 410 274 410 490c0 18 -2 36 -5 52zM164 49l432 602c-18 7 -39 11 -60 11c-214 0 -413 -264 -413 -483c0 -52 12 -99 41 -130z" />
    <glyph glyph-name="Racute" unicode="&#x154;" horiz-adv-x="666" 
d="M645 562c0 -124 -118 -190 -226 -210l-32 -6c47 -163 145 -275 210 -344c-10 -2 -28 -3 -46 -3c-36 0 -77 3 -77 3c-88 0 -181 302 -181 347c0 8 3 15 14 16c113 14 236 58 242 184c0 71 -37 113 -139 119c-60 -81 -131 -234 -173 -336c-22 -55 -94 -237 -94 -310
c0 -9 1 -17 4 -22h-129c23 100 78 240 134 373c37 88 68 166 114 249c9 16 16 29 25 39c-105 -2 -254 -49 -274 -112c-1 -2 -2 -3 -4 -3c-4 0 -9 5 -9 13c0 3 1 6 2 10c40 116 126 129 211 129h47h196c130 0 185 -63 185 -136zM626 810c-71 -30 -169 -84 -174 -84
c-6 0 -23 9 -23 12c14 7 91 66 140 101c2 1 4 2 7 2c18 0 52 -20 52 -28c0 -1 0 -2 -2 -3z" />
    <glyph glyph-name="Rcaron" unicode="&#x158;" horiz-adv-x="666" 
d="M645 562c0 -124 -118 -190 -226 -210l-32 -6c47 -163 145 -275 210 -344c-10 -2 -28 -3 -46 -3c-36 0 -77 3 -77 3c-88 0 -181 302 -181 347c0 8 3 15 14 16c113 14 236 58 242 184c0 71 -37 113 -139 119c-60 -81 -131 -234 -173 -336c-22 -55 -94 -237 -94 -310
c0 -9 1 -17 4 -22h-129c23 100 78 240 134 373c37 88 68 166 114 249c9 16 16 29 25 39c-105 -2 -254 -49 -274 -112c-1 -2 -2 -3 -4 -3c-4 0 -9 5 -9 13c0 3 1 6 2 10c40 116 126 129 211 129h47h196c130 0 185 -63 185 -136zM369 882v0c0 5 25 20 37 20
c22 0 63 -75 75 -99c35 33 106 95 128 95c9 0 18 -1 18 -3v-1c-53 -43 -100 -82 -146 -130c-6 -7 -13 -10 -19 -10c-15 0 -61 88 -93 128z" />
    <glyph glyph-name="Rcommaaccent" unicode="&#x156;" horiz-adv-x="666" 
d="M645 562c0 -124 -118 -190 -226 -210l-32 -6c47 -163 145 -275 210 -344c-10 -2 -28 -3 -46 -3c-36 0 -77 3 -77 3c-88 0 -181 302 -181 347c0 8 3 15 14 16c113 14 236 58 242 184c0 71 -37 113 -139 119c-60 -81 -131 -234 -173 -336c-22 -55 -94 -237 -94 -310
c0 -9 1 -17 4 -22h-129c23 100 78 240 134 373c37 88 68 166 114 249c9 16 16 29 25 39c-105 -2 -254 -49 -274 -112c-1 -2 -2 -3 -4 -3c-4 0 -9 5 -9 13c0 3 1 6 2 10c40 116 126 129 211 129h47h196c130 0 185 -63 185 -136z" />
    <glyph glyph-name="Ugrave" unicode="&#xd9;" horiz-adv-x="747" 
d="M278 630c3 5 13 24 19 31c-105 -2 -254 -49 -274 -112c-1 -2 -2 -3 -4 -3c-4 0 -9 5 -9 13c0 3 1 6 2 10c43 117 125 129 211 129h47h180c-70 -53 -185 -300 -220 -386c-13 -30 -55 -127 -55 -193c0 -36 13 -63 51 -63c124 0 376 389 447 521c45 85 80 121 127 121h62
c-43 -33 -101 -144 -137 -216c-57 -115 -135 -293 -135 -391c0 -29 8 -55 35 -55c10 0 24 4 40 13h1c2 0 3 -3 3 -6c0 -28 -99 -51 -131 -51c-49 0 -64 31 -64 74c0 49 38 170 92 287c-120 -180 -245 -360 -372 -360c-72 0 -115 30 -115 111c0 118 107 360 199 526zM495 830
c-2 1 -3 2 -3 3c0 8 35 28 52 28c3 0 6 -1 8 -2c49 -35 125 -94 140 -101c1 -3 -17 -12 -23 -12s-103 54 -174 84z" />
    <glyph glyph-name="Uacute" unicode="&#xda;" horiz-adv-x="747" 
d="M278 630c3 5 13 24 19 31c-105 -2 -254 -49 -274 -112c-1 -2 -2 -3 -4 -3c-4 0 -9 5 -9 13c0 3 1 6 2 10c43 117 125 129 211 129h47h180c-70 -53 -185 -300 -220 -386c-13 -30 -55 -127 -55 -193c0 -36 13 -63 51 -63c124 0 376 389 447 521c45 85 80 121 127 121h62
c-43 -33 -101 -144 -137 -216c-57 -115 -135 -293 -135 -391c0 -29 8 -55 35 -55c10 0 24 4 40 13h1c2 0 3 -3 3 -6c0 -28 -99 -51 -131 -51c-49 0 -64 31 -64 74c0 49 38 170 92 287c-120 -180 -245 -360 -372 -360c-72 0 -115 30 -115 111c0 118 107 360 199 526zM735 827
c-71 -30 -169 -84 -174 -84c-6 0 -23 9 -23 12c14 7 91 66 140 101c2 1 4 2 7 2c18 0 52 -20 52 -28c0 -1 0 -2 -2 -3z" />
    <glyph glyph-name="Ucircumflex" unicode="&#xdb;" horiz-adv-x="747" 
d="M278 630c3 5 13 24 19 31c-105 -2 -254 -49 -274 -112c-1 -2 -2 -3 -4 -3c-4 0 -9 5 -9 13c0 3 1 6 2 10c43 117 125 129 211 129h47h180c-70 -53 -185 -300 -220 -386c-13 -30 -55 -127 -55 -193c0 -36 13 -63 51 -63c124 0 376 389 447 521c45 85 80 121 127 121h62
c-43 -33 -101 -144 -137 -216c-57 -115 -135 -293 -135 -391c0 -29 8 -55 35 -55c10 0 24 4 40 13h1c2 0 3 -3 3 -6c0 -28 -99 -51 -131 -51c-49 0 -64 31 -64 74c0 49 38 170 92 287c-120 -180 -245 -360 -372 -360c-72 0 -115 30 -115 111c0 118 107 360 199 526zM746 754
v-1c0 -4 -25 -19 -37 -19c-22 0 -64 74 -75 99c-35 -34 -107 -95 -128 -95c-9 0 -18 1 -18 3v1c53 43 100 82 146 130c6 7 13 9 18 9c15 0 62 -88 94 -127z" />
    <glyph glyph-name="Udieresis" unicode="&#xdc;" horiz-adv-x="747" 
d="M278 630c3 5 13 24 19 31c-105 -2 -254 -49 -274 -112c-1 -2 -2 -3 -4 -3c-4 0 -9 5 -9 13c0 3 1 6 2 10c43 117 125 129 211 129h47h180c-70 -53 -185 -300 -220 -386c-13 -30 -55 -127 -55 -193c0 -36 13 -63 51 -63c124 0 376 389 447 521c45 85 80 121 127 121h62
c-43 -33 -101 -144 -137 -216c-57 -115 -135 -293 -135 -391c0 -29 8 -55 35 -55c10 0 24 4 40 13h1c2 0 3 -3 3 -6c0 -28 -99 -51 -131 -51c-49 0 -64 31 -64 74c0 49 38 170 92 287c-120 -180 -245 -360 -372 -360c-72 0 -115 30 -115 111c0 118 107 360 199 526zM741 804
c-38 -10 -50 -50 -74 -50c-11 0 -21 6 -21 17c0 19 39 87 70 87c15 0 31 -27 31 -43c0 -6 -1 -10 -6 -11zM554 804c-38 -10 -50 -50 -74 -50c-11 0 -21 6 -21 17c0 19 39 87 70 87c15 0 31 -27 31 -43c0 -6 -1 -10 -6 -11z" />
    <glyph glyph-name="Yacute" unicode="&#xdd;" horiz-adv-x="684" 
d="M756 698c-128 -89 -360 -316 -424 -618c-5 -23 -8 -42 -8 -57c0 -10 1 -18 4 -23h-129c17 75 75 200 75 276c0 95 -81 343 -159 343c-28 0 -62 -22 -104 -78c-1 -1 -1 -1 -2 -1c-3 0 -5 7 -5 12c0 2 0 4 1 5c42 84 84 138 179 138c77 0 103 -46 130 -136
c20 -69 43 -154 60 -222c75 104 174 251 243 341c14 18 48 21 82 21c21 0 42 -1 57 -1zM591 810c-71 -30 -169 -84 -174 -84c-6 0 -23 9 -23 12c14 7 91 66 140 101c2 1 4 2 7 2c18 0 52 -20 52 -28c0 -1 0 -2 -2 -3z" />
    <glyph glyph-name="Eth" unicode="&#xd0;" horiz-adv-x="731" 
d="M743 358c-40 -243 -245 -378 -476 -378c-100 0 -217 17 -217 111c0 74 35 145 57 199h-99c-1 0 -1 1 -1 2c0 10 24 53 37 53h85c73 173 145 309 148 313c-91 -7 -231 -44 -268 -107c-1 -2 -2 -3 -4 -3s-5 4 -5 8c0 2 0 3 1 5c49 131 155 137 262 137h34h171
c201 0 280 -128 280 -273c0 -22 -2 -44 -5 -67zM638 350c7 29 11 59 11 88c0 59 -17 116 -57 161c-47 52 -140 68 -191 68c-72 -96 -124 -222 -165 -322h117c1 0 1 -1 1 -2c0 -10 -24 -53 -37 -53h-102c-25 -64 -57 -137 -57 -205c0 -53 27 -62 91 -62
c189 0 347 144 389 327z" />
    <glyph glyph-name="Thorn" unicode="&#xde;" horiz-adv-x="499" 
d="M494 723c-29 -19 -77 -87 -130 -174h47c130 0 186 -65 186 -141c0 -143 -162 -255 -384 -255c-16 0 -31 1 -46 3c-34 -86 -83 -224 -83 -284c0 -9 2 -16 4 -21h-129c29 120 84 264 169 455c25 56 44 113 80 167l20 39c-104 -3 -249 -50 -269 -112c-1 -2 -2 -3 -4 -3
c-4 0 -9 5 -9 13c0 3 1 6 2 10c43 117 125 129 211 129h47h42c28 52 55 96 78 128c48 67 115 39 168 46zM444 271c31 34 48 81 48 125c0 71 -40 117 -137 123c-57 -73 -128 -222 -161 -298l-21 -49h12c89 0 198 30 259 99z" />
    <glyph glyph-name="ring" unicode="&#x2da;" horiz-adv-x="555" 
d="M539 611c-15 -46 -61 -89 -127 -89c-50 0 -72 29 -72 66c0 54 49 117 130 117c51 0 74 -30 74 -65c0 -9 -2 -19 -5 -29zM483 681c-3 0 -7 1 -10 1c-45 0 -80 -54 -80 -93c0 -22 12 -39 38 -39c46 0 82 54 82 93c0 19 -9 35 -30 38z" />
    <glyph glyph-name="aring" unicode="&#xe5;" horiz-adv-x="473" 
d="M545 201c-38 -64 -125 -207 -206 -207c-41 0 -54 36 -54 83c0 37 6 79 21 122c-62 -110 -136 -202 -211 -202c-38 0 -67 23 -67 92c0 138 101 315 243 315c34 0 84 -13 97 -61c15 31 50 57 77 57c11 0 35 -1 50 -1h10c-44 -36 -129 -229 -129 -296c0 -17 6 -26 18 -26
c51 0 116 110 148 171c3 5 5 7 7 7c4 0 6 -7 6 -17c0 -11 -3 -25 -10 -37zM362 334c-7 23 -25 32 -47 32c-94 0 -190 -167 -190 -255c0 -21 7 -31 24 -31c37 0 90 56 124 109c59 93 85 138 89 145zM488 573c-15 -46 -61 -89 -127 -89c-50 0 -72 29 -72 66
c0 54 49 117 130 117c51 0 74 -30 74 -65c0 -9 -2 -19 -5 -29zM432 643c-3 0 -7 1 -10 1c-45 0 -80 -54 -80 -93c0 -22 12 -39 38 -39c46 0 82 54 82 93c0 19 -9 35 -30 38z" />
    <glyph glyph-name="caron" unicode="&#x2c7;" horiz-adv-x="531" 
d="M245 606v0c0 5 25 20 37 20c22 0 63 -75 75 -99c35 33 106 95 128 95c9 0 18 -1 18 -3v-1c-53 -43 -100 -82 -146 -130c-6 -7 -13 -10 -19 -10c-15 0 -61 88 -93 128z" />
    <glyph glyph-name="breve" unicode="&#x2d8;" horiz-adv-x="607" 
d="M564 698c-28 -59 -79 -96 -153 -96c-58 0 -121 38 -121 91c0 8 6 10 30 10c15 0 30 -2 30 -4c0 -43 40 -64 76 -64c39 0 78 20 96 63c1 3 9 4 19 4c11 0 23 -2 23 -4v0z" />
    <glyph glyph-name="dotaccent" unicode="&#x2d9;" horiz-adv-x="607" 
d="M484 665c-16 -3 -53 -42 -61 -57c-9 3 -49 17 -49 41c0 23 32 52 71 52c22 0 41 -7 41 -25c0 -4 -1 -7 -2 -11z" />
    <glyph glyph-name="hungarumlaut" unicode="&#x2dd;" horiz-adv-x="607" 
d="M531 711c-34 -66 -71 -152 -77 -170c-1 -2 -10 -3 -19 -3c-7 0 -13 0 -13 2c7 16 30 112 46 172c2 8 17 11 32 11c16 0 31 -4 31 -10v-2zM406 711c-35 -66 -72 -152 -78 -170c-1 -2 -10 -3 -18 -3c-7 0 -13 0 -13 2c6 16 30 112 46 172c2 8 17 11 32 11
c16 0 31 -4 31 -10v-2z" />
    <glyph glyph-name="ogonek" unicode="&#x2db;" horiz-adv-x="670" 
d="M641 -185c-42 -68 -87 -115 -130 -115c-30 0 -55 27 -55 73c0 108 76 241 185 241c7 0 10 -2 10 -5c0 -4 -5 -9 -10 -10c-74 -23 -115 -127 -115 -193c0 -33 13 -51 28 -51c20 0 49 32 76 69c8 11 13 15 15 15s3 -2 3 -4c0 -5 -3 -14 -7 -20z" />
    <glyph glyph-name="uni00AD" unicode="&#xad;" horiz-adv-x="490" 
d="M200 288h279c1 0 1 -1 1 -2c0 -9 -33 -63 -47 -63h-279c-1 0 -1 0 -1 1c0 10 34 64 47 64z" />
    </font>
</defs>
</svg>
