<?xml version="1.0" standalone="no"?>
<!DOCTYPE svg PUBLIC "-//W3C//DTD SVG 1.1//EN" "http://www.w3.org/Graphics/SVG/1.1/DTD/svg11.dtd" >
<svg xmlns="http://www.w3.org/2000/svg" xmlns:xlink="http://www.w3.org/1999/xlink" version="1.1">
<metadata>
Created by FontForge 20170731 at Tue Oct  6 09:12:52 2015
 By ,,,
</metadata>
<defs>
<font id="Rambies" horiz-adv-x="581" >
  <font-face 
    font-family="Rambies"
    font-weight="400"
    font-stretch="normal"
    units-per-em="1000"
    panose-1="2 0 0 0 0 0 0 0 0 0"
    ascent="750"
    descent="-250"
    x-height="251"
    cap-height="577.5"
    bbox="-1150 -425 1668 797.545"
    underline-thickness="50"
    underline-position="-150"
    unicode-range="U+0020-FB02"
  />
<missing-glyph horiz-adv-x="500" 
 />
    <glyph glyph-name="a_x" unicode="ax" horiz-adv-x="827" 
d="M551 157q19 -29 38 -58.5t36.5 -53t32.5 -38.5t25 -15q16 0 42.5 17.5t51 39t43 39t19.5 17.5q6 0 2 -4l-23 -23t-48 -43t-57.5 -41.5t-50.5 -18.5q-20 0 -40 12.5t-39.5 33t-38 47t-35.5 54.5q-4 6 -5.5 9t-3.5 5q-42 -27 -86.5 -54.5t-84 -49t-69.5 -35t-43 -13.5
q-20 0 -29 11.5t-9.5 30t5.5 42.5t15.5 49.5t21 50.5t22.5 45q-23 -21 -51 -46t-58 -46t-58.5 -35t-52.5 -14q-21 0 -32 7.5t-11 17.5t16 33.5t47 48t75 43t101 18.5q17 0 32 -5l3.5 3.5l3.5 3.5q13 24 13 30q4 0 11.5 -0.5t15.5 -2t14 -5t6 -8.5q0 -10 -10.5 -32.5
t-24.5 -51.5t-29 -59.5t-24 -55.5t-9.5 -41.5t14.5 -16.5q9 0 35.5 12.5t62.5 33t78 46.5t83 53q-15 25 -28 47.5t-24.5 40t-21.5 28t-17 10.5q-3 0 3.5 1t15.5 2.5t18.5 2.5t13.5 1q12 0 35 -31t51 -73q14 11 28.5 20.5t29.5 18.5q16 10 32 18t34 13q11 3 23.5 2.5
t20.5 -10.5q2 -3 -0.5 -5.5t-5.5 1.5q-5 5 -13 6q-12 3 -26.5 -2t-26.5 -10q-20 -9 -37.5 -20.5t-34.5 -23.5q-8 -7 -19 -14zM29 104q0 -5 4.5 -6.5t6.5 -1.5q24 0 50 11.5t52 30t51.5 42t49.5 47.5q-4 2 -8 2h-8q-35 0 -70 -13.5t-63.5 -32.5t-46.5 -41t-18 -38z" />
    <glyph glyph-name="e_x" unicode="ex" horiz-adv-x="730" 
d="M314 106q3 2 28.5 16.5t58.5 33.5q-15 25 -29 49t-26 42t-22 29t-18 11q-3 0 3.5 1t15.5 2.5t18.5 2.5t13.5 1q6 0 15.5 -9t21 -24.5t25.5 -35.5t29 -42q26 17 56.5 32.5t68.5 24.5q11 2 23 0t20 -13q2 -3 -1 -5t-6 1q-4 6 -11 8q-12 4 -26.5 0.5t-28.5 -7.5
q-20 -8 -38.5 -17.5t-36.5 -20.5q-5 -3 -8 -5.5t-7 -4.5l1 -2q19 -29 38 -58.5t36.5 -53t32.5 -38.5t25 -15q11 0 26.5 7.5t32.5 18.5t34 24.5t31 24.5t22.5 18.5t9.5 7.5q6 0 2 -4q-3 -3 -23 -21t-48 -38.5t-57.5 -37.5t-50.5 -17q-20 0 -40 12.5t-39.5 33t-38 47
t-35.5 54.5q-4 5 -5 7l-2 4q-33 -20 -60 -36t-31 -18q-20 -12 -51.5 -29t-67 -32t-71.5 -26t-64 -11q-13 0 -28 2t-28 8.5t-22 19t-9 33.5q0 23 20.5 55t53 61t73.5 49.5t83 20.5q9 0 16.5 -3t12.5 -12q6 -13 -0.5 -27t-14.5 -23q-13 -14 -30 -24t-34 -18q-54 -23 -109 -32
q-8 -11 -14.5 -30t-6.5 -29q0 -14 4.5 -22t10.5 -12.5t12.5 -6t11.5 -1.5q22 0 52 8t64 22t69 31.5t67 37.5zM208 235q-13 -2 -34 -13t-43.5 -27.5t-44.5 -36.5t-37 -41q14 3 27.5 6t27.5 8q29 8 58.5 21t49.5 36q7 7 13 21.5t-4 23.5q-2 1 -4.5 2t-4.5 1q-3 0 -4 -1z" />
    <glyph glyph-name="i_x" unicode="ix" horiz-adv-x="650" 
d="M662 113q6 0 2 -4q-3 -3 -23 -22t-48 -41t-57.5 -40t-50.5 -18q-20 0 -40 12.5t-39.5 33t-38 47t-35.5 54.5l-1 1q-36 -26 -79.5 -55t-87 -53t-82 -40t-63.5 -16q-28 0 -35 19.5t-1 49.5t21 65.5t30 67.5t27 55t12 29q3 0 11 -0.5t16 -2t14 -5t6 -8.5q0 -10 -10.5 -32.5
t-24.5 -51t-29 -58.5t-24 -55.5t-9.5 -41.5t14.5 -16q16 0 49.5 14.5t74.5 37t84.5 50t81.5 53.5q-16 27 -31 52t-27.5 45t-23.5 32t-19 12q-3 0 3.5 1t15.5 2.5t18.5 2.5t13.5 1q6 0 16 -9t22 -25t26 -36.5t29 -42.5l1 -3q14 9 27.5 17.5t27.5 16.5q17 10 33.5 17.5
t33.5 11.5q11 2 23.5 1t20.5 -11q2 -3 -0.5 -5t-5.5 1q-4 4 -12 7q-13 3 -27.5 -1.5t-27.5 -9.5q-19 -8 -37.5 -19t-35.5 -22q-4 -3 -8 -5.5t-8 -5.5l38 -58t36 -52t32 -37.5t25 -14.5q16 0 42.5 17t51 37t43 37t19.5 17zM125 313q-11 5 -14 17t2 24q6 11 17 15.5t22 -0.5
t14 -17t-2 -23q-6 -12 -17 -16.5t-22 0.5z" />
    <glyph glyph-name="o_x" unicode="ox" horiz-adv-x="699" 
d="M355 163q-32 -56 -70 -67.5t-74 11.5q-14 -20 -34 -38t-43 -31.5t-48.5 -22t-50.5 -8.5q-20 0 -31 8t-16.5 18.5t-7 20.5t-1.5 13q0 31 18 62.5t44.5 56.5t57.5 41t57 16q10 0 14 -4q10 12 24 12t25 -13t15.5 -33t0.5 -44t-19 -47q38 -21 70.5 -10.5t63.5 67.5
q-10 17 -21 34.5t-21 32t-18.5 23.5t-14.5 9q-3 0 3.5 1t15.5 2.5t18.5 2.5t13.5 1q8 0 21.5 -14.5t27.5 -33.5t26 -38t18 -27q14 11 27.5 21.5t28.5 20.5q15 11 31 20t33 14q11 3 23.5 3t21.5 -9q2 -3 -0.5 -5.5t-5.5 0.5q-5 5 -13 6q-13 2 -27 -3.5t-26 -11.5
q-19 -10 -36 -22t-34 -25q-5 -4 -9.5 -7.5t-9.5 -8.5q19 -29 38 -58.5t36.5 -53t32.5 -38.5t25 -15q16 0 42.5 18.5t51 40.5t43 40.5t19.5 18.5q6 0 2 -4q-3 -3 -23 -23.5t-48 -44.5t-57.5 -43.5t-50.5 -19.5q-20 0 -40 12.5t-39.5 33t-38 47t-35.5 54.5q-42 -39 -82 -79
q-17 -17 -34 -34.5t-34 -35.5q-2 -3 -4.5 -0.5t-0.5 5.5q4 4 5 6q23 25 47.5 49.5t49.5 48.5q12 11 24 23t25 23q-13 19 -22 35zM33 70q0 -25 10.5 -35t27.5 -9.5t37 9.5t39.5 22t35 27.5t22.5 25.5q-14 8 -24 24t-15 34.5t-5 36.5t7 30q-8 -3 -30 -14t-45 -31t-41.5 -49.5
t-18.5 -70.5zM210 118q10 15 14 36t1.5 41t-10 34t-20.5 14q-14 0 -19.5 -16t-3.5 -37t11.5 -42t26.5 -30z" />
    <glyph glyph-name="u_x" unicode="ux" horiz-adv-x="830" 
d="M512 133q-33 -27 -73 -58.5t-80 -58t-76 -44.5t-60 -18t-32.5 16t-6.5 41.5t11.5 57t22 63t25.5 59t22 45.5q-35 -37 -65.5 -81t-60.5 -81.5t-59.5 -63t-61.5 -25.5q-27 0 -33.5 21t-0.5 52.5t21 68t32.5 68t33.5 52.5t24 21q4 0 11.5 -1t15 -2.5t13.5 -4.5t6 -6
q-2 -2 -14 -21.5t-28 -47.5t-32.5 -60.5t-28 -60t-13.5 -46t11 -18.5q22 0 47.5 25.5t55 63.5t63.5 83.5t73 85.5l2 6h7q11 -1 25.5 -4t14.5 -12q0 -10 -10.5 -34.5t-24.5 -55.5t-29 -64.5t-24 -61t-9.5 -45.5t14.5 -18q16 0 47 16.5t68.5 42t77 55.5t73.5 57
q-17 27 -31.5 52.5t-27.5 45t-23.5 31.5t-18.5 12q-3 0 3.5 1t15.5 2.5t18.5 2.5t13.5 1q6 0 16 -9t22 -25t26 -36.5t29 -42.5q14 11 27.5 21.5t28.5 20.5q15 11 31 20t33 14q11 3 23.5 3t21.5 -9q2 -3 -0.5 -5.5t-5.5 0.5q-5 5 -13 6q-13 2 -27 -3.5t-26 -11.5
q-19 -10 -36 -22t-34 -25q-5 -4 -9.5 -7.5t-9.5 -8.5q19 -29 38 -58.5t36.5 -53t32.5 -38.5t25 -15q16 0 42.5 17.5t51 39t43 39t19.5 17.5q6 0 2 -4l-23 -23t-48 -43t-57.5 -41.5t-50.5 -18.5q-20 0 -40 12.5t-39.5 33t-38 47t-35.5 54.5z" />
    <glyph glyph-name="l_l" unicode="ll" horiz-adv-x="616" 
d="M630 101q-28 -20 -75 -50.5t-98.5 -59t-100 -48.5t-79.5 -20q-16 0 -21.5 13t-3 35.5t12 53.5t23.5 66q-31 -21 -69 -43.5t-76.5 -42t-74.5 -32t-63 -12.5q-21 0 -24 22.5t6.5 59t28.5 84t41.5 97.5t47 98t44.5 87t32.5 65t12.5 30q4 0 12 -0.5t16 -2t14 -5t6 -8.5
q0 -7 -12 -33t-31 -63.5t-42.5 -82.5t-46.5 -91.5t-44 -90t-34 -77t-16.5 -54t7.5 -20.5q17 0 48 10.5t68.5 28t77.5 40.5t76 47q23 57 53 119.5t56.5 115t45 88.5t18.5 41q4 0 12 -0.5t16 -2t14 -5t6 -8.5q0 -7 -12 -33t-31 -63.5t-42.5 -82.5t-46.5 -91.5t-44 -90t-34 -77
t-16.5 -54t7.5 -20.5q13 0 36 7.5t52.5 21t63.5 31t67 36.5t63.5 39.5t54.5 38.5z" />
    <glyph glyph-name="t_t" unicode="tt" horiz-adv-x="582" 
d="M727 283q2 -2 5 -6.5t-3 -4.5q-5 0 -6 5.5t-2 6.5q-19 23 -42.5 36.5t-48.5 20.5t-51 7.5t-51 -1.5q-35 -4 -74 -12q-32 -62 -64.5 -126t-55.5 -115.5t-32 -84t6 -32.5q21 0 56 12t74.5 31.5t80.5 45.5t76 53l-1 -10q-29 -22 -67.5 -47.5t-80.5 -47.5t-82.5 -36.5
t-73.5 -14.5q-25 0 -25 30.5t15 79.5q-29 -23 -69 -50.5t-82.5 -51.5t-83.5 -40t-72 -16q-25 0 -25 31t16 80.5t43.5 110.5t56.5 121h-24l-28 2l-28 2q-15 3 -28.5 6.5t-25.5 11.5q-24 16 -34 41q-2 5 -3.5 10t-2.5 9q-1 2 -1 6v3h-1q0 4 4.5 1.5t5.5 -5.5q0 -8 3 -18
q5 -16 15 -28q8 -10 17.5 -14.5t19.5 -7.5q10 -2 19.5 -3.5t20.5 -3.5q19 -2 37.5 -2.5t38.5 0.5q19 39 36 72t29.5 58t20 41t7.5 19q4 0 12 -0.5t16 -2t14 -5t6 -8.5q0 -13 -10 -35t-23 -47t-26 -48t-20 -37q26 4 52.5 9.5t52.5 10.5q40 8 79 18t78 19q17 34 32.5 64
t27.5 53.5t19 38.5t7 18q4 0 12 -0.5t16 -2t14 -5t6 -8.5q0 -10 -19.5 -49.5t-48.5 -95.5q6 2 11.5 2.5t10.5 1.5q27 5 54 7.5t53.5 0t52.5 -11t50 -25.5q19 -16 36 -37zM285 85q9 26 19 51.5t22.5 54t28 60t33.5 69.5q-26 -6 -50.5 -12t-49.5 -12q-41 -10 -81 -18.5
t-82 -14.5l-1 -2q-29 -55 -58.5 -114t-51 -107.5t-29.5 -79.5t6 -31q21 0 56.5 14t77 36.5t83.5 50.5t77 55z" />
    <glyph glyph-name="e_s" unicode="es" horiz-adv-x="555" 
d="M565 113q5 2 6 -2t-3 -6q-45 -15 -98 -27t-99 -22q1 -18 1.5 -32.5t-0.5 -23.5q-4 -45 -34.5 -70t-68.5 -25q-22 0 -37 9.5t-21.5 24t-3 32.5t18.5 36q10 12 24.5 20t29.5 13q8 3 17 6t18 5v49.5t1 36.5q-16 -12 -46 -35.5t-66.5 -46.5t-74.5 -40t-69 -17q-13 0 -28 2
t-28 8.5t-22 19t-9 33.5q0 23 20.5 55t53 61t73.5 49.5t83 20.5q9 0 16.5 -3t12.5 -12q6 -13 -0.5 -27t-14.5 -23q-13 -14 -30 -24t-34 -18q-54 -23 -109 -32q-8 -11 -14.5 -30t-6.5 -29q0 -14 4.5 -22t10.5 -12.5t12.5 -6t11.5 -1.5q23 0 52.5 11.5t62.5 30.5t68.5 44
t71.5 52v2q3 31 13 61.5t28.5 54.5t45 39.5t61.5 16.5q15 0 24 -4.5t13.5 -10.5t5.5 -11.5t1 -8.5q-1 -14 -16 -30t-36 -31t-42.5 -27t-36.5 -19q-5 -27 -6.5 -55t-0.5 -57q45 10 97.5 22t96.5 26zM208 235q-13 -2 -34 -13t-43.5 -27.5t-44.5 -36.5t-37 -41q14 3 27.5 6
t27.5 8q29 8 58.5 21t49.5 36q7 7 13 21.5t-4 23.5q-2 2 -6 3t-7 -1zM229 -4q-10 -16 -11 -29t4.5 -22t15.5 -13.5t21 -4.5q18 1 34.5 15.5t19.5 49.5q1 9 1 22t1 28q-8 -2 -16.5 -5t-16.5 -6q-15 -5 -29.5 -13t-23.5 -22zM477 303q-2 0 -13.5 -4t-27 -16t-31 -34.5
t-24.5 -59.5q11 4 30 14.5t37.5 25t33 30t15.5 28.5q1 7 -1.5 10.5t-5.5 5t-7 1t-6 -0.5z" />
    <glyph glyph-name="fi" unicode="fi" horiz-adv-x="462" 
d="M376 329q-6 -12 -17 -16.5t-22 0.5t-14 17t2 24q6 11 17 15.5t22 -0.5t14 -17t-2 -23zM249 1q18 0 43.5 9.5t55.5 25.5t63.5 38t66.5 48l-1 -8q-30 -23 -63 -46t-65.5 -41t-63 -29.5t-54.5 -11.5q-22 0 -31 12t-8 31.5t9 44.5t20 51q-9 -5 -30 -14.5t-48.5 -21.5t-61 -25
t-68.5 -25q-2 0 -6 -2q-19 -47 -42 -96.5t-48 -96t-51.5 -88.5t-53.5 -73t-54.5 -49t-53.5 -18q-9 0 -22.5 4t-25.5 14.5t-20.5 28.5t-8.5 45q0 61 29.5 110t75 87.5t102 67.5t110.5 50q4 10 15 36t22.5 54t20.5 50t10 24l14 34t15 34q-23 -5 -49 -7t-37 3q-16 3 -23 17
q-6 11 -1 24q5 -13 10.5 -18t17.5 -8q7 -2 26.5 -2t41.5 4q5 1 11 2t11 2q28 63 61 123t67.5 107.5t69.5 76.5t69 29q9 0 21 -3.5t23 -12.5t20 -24t11 -38q-2 2 -5.5 2h-6.5q-9 0 -12 -1v9q0 30 -13 41t-21 11q-21 0 -47.5 -26t-55 -69t-58.5 -98.5t-58 -114.5q5 1 10.5 1.5
t10.5 2.5q22 4 42.5 6.5t28.5 2.5q15 2 25 0.5t22 -5.5q-12 -4 -21.5 -6t-23.5 -4q-8 -1 -28.5 -3.5t-41.5 -6.5q-20 -3 -32 -6q-6 -13 -12 -25t-12 -25q-1 -3 -10.5 -26t-21.5 -51.5t-23 -54.5t-15 -36q54 17 109.5 40.5t104.5 47.5q10 22 20.5 42t19 36.5t14 28t5.5 15.5
q3 0 11 -0.5t16 -2t14 -5t6 -8.5q0 -10 -10.5 -31.5t-24.5 -48.5t-29 -55.5t-24 -52t-9.5 -38.5t14.5 -15zM-314 -368q25 0 56 33.5t64.5 87.5t67 121t63.5 134q-50 -23 -100.5 -53.5t-91.5 -70.5t-67 -89.5t-26 -110.5q0 -15 4 -25t9.5 -16t11 -8.5t9.5 -2.5z" />
    <glyph glyph-name="fl" unicode="fl" horiz-adv-x="519" 
d="M235 -24q19 0 55.5 13t79 34t87 48t80.5 55l-2 -11q-28 -20 -69.5 -46.5t-86.5 -50.5t-88 -40.5t-74 -16.5q-16 0 -21.5 13t-3 35.5t12 53.5t23.5 66q0 -1 -1 -1q-3 -2 -22.5 -11t-49 -22t-66.5 -28t-76 -28q-2 0 -6 -2q-19 -47 -42 -96.5t-48 -96t-51.5 -88.5t-53.5 -73
t-54.5 -49t-53.5 -18q-9 0 -22.5 4t-25.5 14.5t-20.5 28.5t-8.5 45q0 61 29.5 110t75 87.5t102 67.5t110.5 50q4 10 15 36t22.5 54t20.5 50t10 24l14 34t15 34q-23 -5 -49 -7t-37 3q-16 3 -23 17q-6 11 -1 24q5 -13 10.5 -18t17.5 -8q7 -2 26.5 -2t41.5 4q5 1 11 2t11 2
q28 63 61 123t67.5 107.5t69.5 76.5t69 29q9 0 21 -3.5t23 -12.5t20 -24t11 -38q-2 2 -5.5 2h-6.5q-9 0 -12 -1v9q0 30 -13 41t-21 11q-21 0 -47.5 -26t-55 -69t-58.5 -98.5t-58 -114.5q5 1 10.5 1.5t10.5 2.5q22 4 42.5 6.5t28.5 2.5q15 2 25 0.5t22 -5.5q-12 -4 -21.5 -6
t-23.5 -4q-8 -1 -28.5 -3.5t-41.5 -6.5q-20 -3 -32 -6q-6 -13 -12 -25t-12 -25q-1 -3 -10.5 -26t-21.5 -51.5t-23 -54.5t-15 -36q55 18 113 42t108 49q15 38 34 79t38.5 80.5t37.5 75t32 63.5t22.5 45.5t8.5 21.5q4 0 12 -0.5t16 -2t14 -5t6 -8.5q0 -7 -12 -33t-31 -63.5
t-42.5 -82.5t-46.5 -91.5t-44 -90t-34 -77t-16.5 -54t7.5 -20.5zM-314 -368q25 0 56 33.5t64.5 87.5t67 121t63.5 134q-50 -23 -100.5 -53.5t-91.5 -70.5t-67 -89.5t-26 -110.5q0 -15 4 -25t9.5 -16t11 -8.5t9.5 -2.5z" />
    <glyph glyph-name=".notdef" horiz-adv-x="500" 
 />
    <glyph glyph-name=".null" horiz-adv-x="0" 
 />
    <glyph glyph-name="nonmarkingreturn" horiz-adv-x="354" 
 />
    <glyph glyph-name="space" unicode=" " horiz-adv-x="354" 
 />
    <glyph glyph-name="space" unicode="&#xa0;" horiz-adv-x="354" 
 />
    <glyph glyph-name="exclam" unicode="!" horiz-adv-x="280" 
d="M303 547q0 -8 -12 -36t-31 -67t-41.5 -84t-44.5 -86.5t-39.5 -74.5t-25.5 -47q-11 -19 -19.5 -29t-15 -15t-11 -6t-5.5 -1t12 33.5t34 84t45.5 109.5t46 110.5t37.5 86.5t18 38q2 2 10.5 0.5t17.5 -4.5t16.5 -7t7.5 -5zM80 29q0 15 -14 24.5t-28 9.5q-38 0 -38 -29
q0 -14 12.5 -24.5t29.5 -10.5q12 0 25 9t13 21z" />
    <glyph glyph-name="quotedbl" unicode="&#x22;" horiz-adv-x="207" 
d="M105 486q0 -12 -8 -27.5t-19.5 -29.5t-25 -23.5t-23.5 -9.5q-6 0 -2 4.5t11.5 12t15 18t7.5 22.5q0 6 -4.5 10.5t-9.5 9t-9 8.5t-4 9q0 30 29 30q14 0 28 -9.5t14 -24.5zM205 487q0 -12 -8 -27.5t-19.5 -29.5t-25 -23.5t-23.5 -9.5q-6 0 -2 4.5t11.5 12t15 18t7.5 22.5
q0 6 -4.5 10.5t-9.5 9t-9 8.5t-4 9q0 30 29 30q14 0 28 -9.5t14 -24.5z" />
    <glyph glyph-name="numbersign" unicode="#" horiz-adv-x="761" 
d="M494 277q60 0 99 -3.5t39 -11.5q-16 0 -56.5 -3t-95.5 -8q-19 -39 -37 -74.5t-33 -64.5t-26 -50t-16 -30q-11 -19 -19.5 -29t-15 -15t-11 -6t-5.5 -1t8 21.5t24 58t35.5 84.5t42.5 100q-47 -5 -95.5 -11t-94.5 -13l-32.5 -65t-28.5 -56t-22.5 -42.5t-13.5 -25.5
q-11 -19 -19.5 -29t-15 -15t-11 -6t-5.5 -1t6.5 18.5t21 50t31 73.5t37.5 89q-51 -9 -87 -18.5t-46 -19.5q-5 -5 -8.5 -13.5t-13.5 -8.5q-11 0 -16.5 9.5t-5.5 17.5q0 14 15.5 26t42 21.5t62.5 17.5t77 14q10 23 20 47.5t21 47.5q-61 -6 -101.5 -10t-43.5 -4q-10 0 -16 7.5
t-6 18.5q0 7 14.5 13.5t40 11t60 8t74.5 6.5q18 42 34 78.5t28.5 64l20 44t9.5 18.5t10.5 0.5t17.5 -4.5t16.5 -7t7.5 -5q0 -5 -6.5 -21t-17.5 -40.5t-26 -56t-32 -67.5q84 3 169 3q18 40 33.5 75.5t27.5 62.5t19 42.5t9 17.5t10.5 0.5t17.5 -4.5t16.5 -7t7.5 -5
q0 -5 -6 -20.5t-17 -40t-26 -56t-32 -66.5q36 -1 66 -2.5t52.5 -3.5t35 -5t12.5 -6q-24 0 -72 -3.5t-108 -8.5q-13 -26 -25.5 -52t-25.5 -52zM259 265q46 5 92.5 7.5t89.5 4.5q11 25 21.5 50t21.5 49q-45 -5 -90 -8.5t-88 -8.5q-23 -47 -47 -94z" />
    <glyph glyph-name="dollar" unicode="$" horiz-adv-x="617" 
d="M438 591q0 -2 -2 -8l-5 -15q32 7 60 9t49 -2t33.5 -14.5t12.5 -28.5q0 -21 -13.5 -44.5t-34 -47t-45 -45t-45 -38t-35 -26.5t-15.5 -10q-1 -1 -6 -1t-10 1t-9.5 3t-4.5 4q0 6 13 19t32.5 30.5t42.5 38.5t42.5 43t32.5 44t13 42q0 8 -9.5 12.5t-25.5 5.5t-37.5 -1.5
t-46.5 -7.5q-10 -23 -25.5 -56t-34.5 -73t-40.5 -84t-43.5 -88q33 -31 68 -62t63.5 -58t47 -49t18.5 -34q0 -26 -31 -41.5t-79 -22t-105.5 -3.5t-110.5 15l-6 -12t-5 -9q-11 -19 -19.5 -29t-15 -15t-11 -6t-5.5 -1t8 22t24 57q-56 16 -93 41t-37 60q1 1 2 0q0 -33 38 -56
t93 -36q19 45 44 103t53 123q-38 39 -65 76t-27 66q0 22 19.5 45.5t51.5 45.5t73 41.5t84 33.5q11 26 18.5 41.5t9.5 17.5t10.5 0.5t17.5 -4.5t16.5 -7t7.5 -5zM417 43q0 8 -14 24t-37 37.5t-51.5 47.5t-56.5 53q-31 -62 -57.5 -114t-43.5 -84q45 -8 91 -9.5t83.5 3t61.5 15
t24 27.5zM175 393q0 -19 19.5 -45.5t49.5 -57.5q30 70 59 134.5t49 110.5q-34 -11 -66 -26t-56.5 -33t-39.5 -39t-15 -44z" />
    <glyph glyph-name="ampersand" unicode="&#x26;" horiz-adv-x="500" 
d="M500 501q0 -35 -30 -70.5t-76 -71t-101.5 -70.5t-106.5 -69q28 -42 64.5 -85.5t73.5 -83.5q28 14 53 31t44 35.5t29.5 38t10.5 38.5q0 23 -33.5 44t-92.5 21l17 -21q-15 7 -27 11q-11 4 -20 6.5t-11 0.5q-4 -4 -2 3.5t5 9.5q3 3 17 3.5t34 -2t42.5 -8.5t41.5 -16
t31.5 -24t12.5 -33q0 -18 -11.5 -37t-31 -38t-46 -36.5t-56.5 -33.5q24 -25 46 -47.5t40 -39.5t30 -28.5t15 -14.5q4 -4 2.5 -9t-6 -9t-11 -7t-11.5 -3q-11 0 -15 1.5t-8 5.5q-1 1 -11.5 11t-28.5 27t-41.5 40.5t-48.5 50.5q-53 -22 -108 -35t-99.5 -11.5t-73 20t-28.5 59.5
q0 20 11.5 41t32 43.5t47.5 45t59 45.5q-17 31 -26 59.5t-9 54.5q0 49 30.5 89t76 68.5t99 44.5t99 17t76 -14t30.5 -48zM471 513q0 19 -24.5 29.5t-61.5 9.5t-80 -13.5t-80 -38.5t-61.5 -67t-24.5 -97q0 -17 6.5 -36t17.5 -41q53 37 107.5 72.5t99 68.5t73 61.5t28.5 51.5z
M35 62q0 -32 21.5 -47t56 -17.5t77.5 6t86 25.5q-35 37 -69 79t-61 84q-48 -35 -79.5 -67.5t-31.5 -62.5z" />
    <glyph glyph-name="quotesingle" unicode="'" horiz-adv-x="132" 
d="M138 403q0 -43 -41 -93q-38 -45 -54 -41q-3 1 -3 4q0 4 28 39q29 37 26 57q0 6 -4.5 10.5t-9.5 9t-9 8.5t-4 9q0 30 29 30q14 0 28 -9.5t14 -23.5z" />
    <glyph glyph-name="parenleft" unicode="(" horiz-adv-x="375" 
d="M615 700q20 -3 20 -12q0 -10 -25 -11q-65 -6 -131.5 -31.5t-128.5 -66.5t-116 -94.5t-94.5 -115t-64 -129.5t-23.5 -137q0 -75 38 -120.5t111 -51.5q23 -2 23 -11q0 -17 -33 -14q-44 4 -80.5 25.5t-62 54t-39.5 74t-14 86.5q0 75 26.5 142t72 125t106 106.5t129.5 85
t142.5 60.5t143.5 35z" />
    <glyph glyph-name="parenright" unicode=")" horiz-adv-x="377" 
d="M375 456q0 -73 -27 -140t-73 -126.5t-107 -109t-130 -87t-141.5 -61.5t-140.5 -31q-21 3 -21 12q0 10 25 11q64 6 130 31t128 65.5t117 93.5t96 114.5t64.5 129.5t23.5 139q0 75 -37.5 121t-112.5 52q-22 1 -22 11q0 17 32 14q44 -4 80 -25.5t62 -54t40 -74t14 -85.5z
" />
    <glyph glyph-name="asterisk" unicode="*" horiz-adv-x="206" 
d="M116 361q13 11 22.5 7.5t3.5 -17.5q-6 -8 -12.5 -18.5t-12.5 -21.5q14 8 26 14.5t26 13.5q16 6 17.5 -4t-11.5 -19q-26 -14 -54 -30q13 -13 38 -24q7 -3 7.5 -8t-3 -10t-9.5 -8t-13 -1q-15 5 -25.5 13t-18.5 19q-9 -20 -15.5 -37t-11.5 -28q-4 -8 -9.5 -11t-11 -3
t-8.5 3.5t-1 10.5q4 9 8.5 20t10.5 24l-22 -13q-14 -6 -18 2t8 19l49 31l3 7q-6 8 -11 17.5t-10 18.5q-3 6 -0.5 11.5t7.5 9t11 3.5t10 -5l10 -20q10 21 20 34z" />
    <glyph glyph-name="plus" unicode="+" horiz-adv-x="366" 
d="M245 341q13 -9 5.5 -36t-24.5 -62q24 1 46 0.5t39 -1.5t27 -3t10 -5q-6 0 -19.5 -1t-31.5 -2.5t-39 -3.5t-43 -5q-15 -26 -31.5 -51.5t-30.5 -45t-24.5 -31t-13.5 -9.5q3 5 10 18.5t16.5 31.5t20.5 39.5t21 42.5q-35 -5 -62 -10.5t-33 -11.5q-2 -2 -3.5 -6t-6.5 -4
t-7.5 9.5t-2.5 13.5q0 7 10.5 12.5t27.5 9.5t40 6.5t47 4.5q14 30 22.5 53t6.5 31q-1 3 -3 6.5t0 7.5t12.5 4t13.5 -2z" />
    <glyph glyph-name="comma" unicode="," horiz-adv-x="126" 
d="M118 48q0 -12 -8 -27.5t-19.5 -29.5t-25 -23.5t-23.5 -9.5q-6 0 -2 4.5t11.5 12t15 18t7.5 22.5q0 6 -4.5 10.5t-9.5 9t-9 8.5t-4 9q0 30 29 30q14 0 28 -9.5t14 -24.5z" />
    <glyph glyph-name="hyphen" unicode="-" horiz-adv-x="437" 
d="M82 171q0 7 21.5 12t54.5 7t70.5 2t70.5 -1.5t54.5 -4.5t21.5 -7q-14 0 -40 -1.5t-56.5 -4t-62.5 -5.5t-58.5 -5.5t-44 -4t-19.5 -1.5q-12 0 -12 14z" />
    <glyph glyph-name="period" unicode="." horiz-adv-x="138" 
d="M108 29q0 -12 -13 -21t-25 -9q-17 0 -29.5 10.5t-12.5 24.5q0 29 38 29q14 0 28 -9.5t14 -24.5z" />
    <glyph glyph-name="slash" unicode="/" horiz-adv-x="280" 
d="M301 593q0 -6 -10.5 -30.5t-27.5 -61.5t-39.5 -83.5t-46.5 -94.5t-47.5 -95.5t-44 -87.5t-35.5 -68.5t-21 -39.5q-11 -19 -19.5 -29t-15 -15t-11 -6t-5.5 -1t10 26.5t29.5 70t42 99.5t48.5 114.5t49.5 114.5t44.5 100.5t32.5 72.5t14.5 30t10.5 0.5t17.5 -4.5t16.5 -7
t7.5 -5z" />
    <glyph glyph-name="zero" unicode="0" horiz-adv-x="365" 
d="M46 459q19 15 42 29q20 12 45 26t54 26l15 15q4 4 10 3t12 -4q18 5 36 8.5t35 3.5q34 0 54 -13t30 -32t12.5 -40t2.5 -37q0 -45 -18 -95.5t-47 -100t-66.5 -94.5t-77 -79t-77 -54t-66.5 -18.5t-47 27t-18 81.5q0 69 22 133.5t53.5 119t65 96.5t56.5 66q-26 -11 -58 -27
t-70 -40zM243 536q0 -5 -15.5 -25t-39.5 -51t-51 -71.5t-51 -85t-39.5 -90.5t-15.5 -90t15 -64t39.5 -19.5t55.5 18t63.5 48t63.5 71.5t55.5 86.5t39.5 94.5t15 96q0 30 -10.5 49.5t-25 30t-30.5 14.5t-27 4q-8 0 -20 -1t-29 -5q7 -7 7 -10z" />
    <glyph glyph-name="one" unicode="1" horiz-adv-x="267" 
d="M295 556q0 -3 -11.5 -28t-30 -64.5t-43 -89t-50 -101t-50.5 -100.5t-45.5 -88.5t-34.5 -65t-17 -28.5q-21 0 -31.5 7t-8.5 15q0 -2 10.5 19l28 56t40 80.5t46 93.5t45.5 94t39 82.5t26 58.5t7 22t-10.5 -10t-18.5 -22.5t-19 -24t-12 -14.5q-4 0 0 9.5t13 24t20.5 31
t23 31t21 24t14.5 9.5q7 0 15.5 -2.5t15.5 -6.5t12 -7.5t5 -4.5z" />
    <glyph glyph-name="two" unicode="2" horiz-adv-x="484" 
d="M298 517q62 0 95.5 -20.5t44 -54.5t1.5 -78t-32.5 -90.5t-58 -92t-74.5 -83.5q55 -9 103.5 -15.5t74.5 -6.5q4 -5 -10.5 -5.5t-41.5 1.5t-63.5 6.5t-74.5 9.5q-45 -39 -90.5 -63t-87.5 -24q-41 0 -65 9.5t-34 23.5t-8.5 30.5t12 30.5t27.5 23.5t38 9.5q23 0 65 -5.5
t91 -13.5q38 35 72 78.5t60 87.5t41 86t14.5 74.5t-20 52.5t-61.5 20q-45 0 -80.5 -16.5t-60 -39.5t-37.5 -46.5t-13 -38.5q0 -6 -8.5 -7.5t-19 1t-19 8t-8.5 14.5q0 11 17 33t47.5 44.5t72 39.5t91.5 17zM60 116q-31 0 -49.5 -15t-22 -33t9.5 -33t45 -15q35 0 74.5 21
t79.5 56q-52 8 -91 13.5t-46 5.5z" />
    <glyph glyph-name="three" unicode="3" horiz-adv-x="448" 
d="M109 513q109 0 168 -8.5t80.5 -22t11.5 -30.5t-37.5 -35t-66.5 -35.5t-76 -31t-65.5 -21.5t-35.5 -8q106 0 171 -15t95.5 -40t29 -56.5t-29 -64t-78 -64t-117.5 -56.5t-148 -40t-169 -15q-18 0 -13.5 6t26.5 6q45 0 103 14t117 37t112.5 52.5t90 60t49 60t-10.5 52.5
t-88 37t-184 14q-5 0 -4 8.5t12 8.5q3 0 25.5 7.5t53.5 19.5t65.5 27.5t61.5 31.5t40.5 31.5t2.5 27.5t-51.5 19.5t-121.5 7.5q-14 0 -19 -4.5t-5.5 -10t1.5 -10.5t2 -7t-8.5 -3.5t-19 -0.5t-19 6t-8.5 15t7.5 16t17 9t19 4t13.5 1z" />
    <glyph glyph-name="four" unicode="4" horiz-adv-x="364" 
d="M412 515q0 -3 -12 -31.5t-31.5 -72t-44.5 -96.5t-50 -105h43q14 0 14.5 -1t-5 -1.5t-14 -1.5t-12.5 -1h-28q-20 -41 -38 -78.5t-32.5 -66.5t-24.5 -47.5t-13 -21.5q-21 0 -31.5 7t-8.5 15q0 -2 7.5 13.5t20 42.5t29.5 63t35 75h-24q-17 0 -26.5 3.5t-17.5 3.5
q-13 0 -40.5 -3t-56 -7t-51.5 -7t-28 -3q-9 0 -16.5 1t-7.5 6q0 2 19 26.5t48 60t62 77t62 78t48 62t19 29.5q14 -5 25 -9q10 -4 18 -8t8 -6q0 -5 -16 -27.5t-40 -53.5t-53 -67t-54 -67t-43 -52.5t-21 -24.5q26 1 49 3q20 1 39.5 2t29.5 1q20 0 33.5 -3.5t37.5 -6.5
q22 47 43 94t37.5 84.5t25.5 61t7 23.5t-10.5 -10t-18.5 -22.5t-19 -24t-12 -14.5q-4 0 0 9.5t13 24t20.5 31t23 31t21 24t14.5 9.5q7 0 15.5 -2.5t15.5 -6.5t12 -7.5t5 -4.5z" />
    <glyph glyph-name="five" unicode="5" horiz-adv-x="375" 
d="M496 511q4 0 9 -3t8.5 -7t5.5 -7t0 -3q-94 5 -162.5 2.5t-117.5 -7.5q1 -1 1 -3q0 -6 -17 -25t-38 -46t-38 -59.5t-17 -64.5t13.5 -57t30 -46t30 -41t13.5 -43q0 -26 -18 -44t-44.5 -27.5t-57.5 -11t-57.5 3.5t-44.5 17t-18 31q0 3 2.5 2.5t2.5 -2.5q0 -12 14 -21.5
t35 -15t45.5 -6t45.5 6.5t35 21.5t14 39.5q0 22 -14.5 42.5t-32 43t-32 49t-14.5 61.5q0 30 11 58.5t27 53.5t34 44.5t33 30.5q-42 -7 -62 -13.5t-22 -7.5q-5 -2 -6.5 -6t-7.5 -4q-5 0 -10 4t-5 8q0 14 34.5 24t93 16t135.5 9t163 3z" />
    <glyph glyph-name="six" unicode="6" horiz-adv-x="417" 
d="M362 115q0 -24 -24 -47t-60.5 -41t-79.5 -27.5t-81.5 -6.5t-66.5 22t-34 59l-12 -9q-30 -22 -44.5 -32t-18 -11.5t1 3.5t12.5 12.5t17.5 15.5t15.5 12q4 2 10.5 7.5t16.5 12.5v9q0 43 19 95t49.5 106t68 104.5t74 89.5t69 63t51.5 24q13 0 14 -1.5t-4 -4t-12.5 -6
t-11.5 -7.5q-3 -3 -20.5 -25t-43.5 -57t-56.5 -79.5t-58.5 -91.5t-49.5 -94t-29.5 -87q41 25 90 45.5t97 20.5q30 0 50 -7.5t31 -19t15.5 -24.5t4.5 -23zM70 87q0 -35 20.5 -52t52 -20t67.5 5t67.5 23t52 34t20.5 38q0 17 -10 29t-23.5 19.5t-28 11t-24.5 3.5
q-24 0 -75 -14.5t-117 -53.5q-1 -6 -1.5 -12t-0.5 -11z" />
    <glyph glyph-name="seven" unicode="7" horiz-adv-x="354" 
d="M390 538q2 0 14 0.5t25 0t23.5 -3.5t10.5 -9q0 -2 -11 -6t-27.5 -11t-34.5 -17t-33 -25q-51 -51 -96.5 -103.5t-85.5 -102.5t-73 -94.5t-57.5 -79t-39.5 -56.5t-19 -26q-6 -7 -19.5 -3.5t-13.5 21.5q0 11 16 40t42.5 68t61.5 85.5t73.5 94t78 92t74.5 79.5l8 8
q-21 -1 -57.5 -3.5t-73 -4.5t-65 -4t-33.5 -2q-6 0 -15 -4.5t-18.5 -9.5t-19 -9.5t-15.5 -4.5t-10.5 5.5t-6.5 12t-2 12t3 5.5q9 0 32 1.5t53.5 3.5t66 4.5t69 5t62.5 4.5t47 3q30 24 46 28.5t20 4.5z" />
    <glyph glyph-name="eight" unicode="8" horiz-adv-x="396" 
d="M188 351q-14 -11 -29.5 -30.5t-31.5 -43.5q19 -28 40.5 -57t39 -57.5t27 -55.5t5.5 -52q-5 -24 -23 -35.5t-39 -16t-39 -4t-22 0.5q-52 0 -77 25t-29 64t11.5 87t44.5 94q-18 32 -28 62.5t-5 59.5q3 22 17.5 45.5t43 43t72.5 32t107 12.5q64 0 97 -17.5t43.5 -46t3 -64.5
t-23.5 -72t-36.5 -69.5t-36.5 -56.5q14 22 31 54.5t30.5 67.5t20 69.5t-1 62t-33.5 44.5t-76 17q-45 0 -82 -10t-64 -27t-44 -38.5t-21 -43.5q-3 -17 3 -37t18 -41q20 24 45 46q9 7 17 7t13.5 -3.5t8.5 -8.5t3 -7zM192 53q3 15 -5 33.5t-22 40.5t-33 47t-37 51
q-20 -38 -33.5 -77t-13 -70.5t18 -51.5t59.5 -20q20 0 32.5 4.5t19.5 11.5t10 15t4 16z" />
    <glyph glyph-name="nine" unicode="9" horiz-adv-x="377" 
d="M38 -16q30 0 60 24t58 63t53 88.5t46 100.5t36.5 98t24.5 82q-15 -12 -41.5 -33t-57.5 -42t-63 -39t-57.5 -24.5t-40 2.5t-10.5 41q3 24 30.5 54.5t67 58t86 46t86.5 18.5q6 0 15.5 -2.5t18.5 -8t15 -15t5 -22.5q-1 -14 -9.5 -47t-22 -75.5t-31 -90.5t-38.5 -93
t-44.5 -83t-47.5 -59q-33 -29 -76 -42t-88 -12q-31 0 -54.5 8t-39.5 17.5t-24.5 18l-9.5 9.5q-2 2 -1.5 4.5t3.5 -0.5q13 -16 31.5 -25t39 -13.5t41.5 -5.5t39 -1zM93 338q12 -14 42 -2.5t65 33.5t68.5 47t51.5 40q9 41 5 47q-10 12 -34 7.5t-53.5 -18.5t-59.5 -35.5
t-52.5 -44t-33 -42.5t0.5 -32z" />
    <glyph glyph-name="colon" unicode=":" horiz-adv-x="162" 
d="M151 211q0 -12 -13 -21t-25 -9q-17 0 -29.5 10.5t-12.5 24.5q0 29 38 29q14 0 28 -9.5t14 -24.5zM113 29q0 -12 -13 -21t-25 -9q-17 0 -29.5 10.5t-12.5 24.5q0 29 38 29q14 0 28 -9.5t14 -24.5z" />
    <glyph glyph-name="semicolon" unicode=";" horiz-adv-x="160" 
d="M118 48q0 -12 -8 -27.5t-19.5 -29.5t-25 -23.5t-23.5 -9.5q-6 0 -2 4.5t11.5 12t15 18t7.5 22.5q0 6 -4.5 10.5t-9.5 9t-9 8.5t-4 9q0 30 29 30q14 0 28 -9.5t14 -24.5zM151 211q0 -12 -13 -21t-25 -9q-17 0 -29.5 10.5t-12.5 24.5q0 29 38 29q14 0 28 -9.5t14 -24.5z
" />
    <glyph glyph-name="less" unicode="&#x3c;" horiz-adv-x="318" 
d="M85 256q0 3 7 11.5t21.5 27.5t37 51.5t52.5 84.5q6 11 19 11q7 0 7 -6q0 -15 -99 -153q97 -124 97 -134q0 -13 -10 -13l-8 4q-34 48 -121 110q-3 1 -3 6z" />
    <glyph glyph-name="equal" unicode="=" horiz-adv-x="409" 
d="M91 232q0 6 21.5 10.5t53.5 7t69.5 3.5t69.5 0t53.5 -3t21.5 -5q-12 0 -36.5 -2t-55 -4.5t-63 -5.5t-60 -5.5t-45.5 -4.5t-19 -2q-10 0 -10 11zM59 149q0 11 20.5 19.5t52 13.5t67.5 8t67.5 3t52 -1.5t20.5 -5.5q-8 0 -29 -1.5t-48 -4.5t-57.5 -6.5t-56.5 -8t-45 -9
t-24 -9.5q-2 -2 -3.5 -6t-6.5 -4t-7.5 4t-2.5 8z" />
    <glyph glyph-name="greater" unicode="&#x3e;" horiz-adv-x="318" 
d="M229 256q0 -5 -3 -6q-87 -62 -121 -110l-8 -4q-10 0 -10 13q0 10 97 134q-99 138 -99 153q0 6 7 6q13 0 19 -11q30 -52 52.5 -84.5t37 -51.5t21.5 -27.5t7 -11.5z" />
    <glyph glyph-name="question" unicode="?" horiz-adv-x="349" 
d="M347 485q-5 -35 -21.5 -65t-39.5 -55t-49.5 -45.5t-51 -36.5t-43.5 -28t-27 -20q-12 -12 -17 -24.5t-6.5 -22t-0.5 -16.5t1 -9q0 -4 -7.5 -9t-14.5 -5q-4 0 -9 5.5t-7.5 16.5t0 28t14.5 41q9 17 28 35t43 36.5t49.5 38.5t48 41.5t38 45.5t19.5 51q4 33 -20 56t-64 23
q-24 0 -47.5 -6.5t-41.5 -19t-29 -31t-11 -42.5q0 -4 2 -23.5t2 -41t-4 -38.5t-16 -17q-10 0 -16.5 10.5t-10 26.5t-4 34.5t1.5 35.5q2 16 11.5 40.5t30 47t53.5 38.5t83 16q49 0 76.5 -14.5t40.5 -33.5t15 -37.5t1 -26.5zM100 29q0 -12 -13 -21t-25 -9q-17 0 -29.5 10.5
t-12.5 24.5q0 29 38 29q14 0 28 -9.5t14 -24.5z" />
    <glyph glyph-name="at" unicode="@" horiz-adv-x="421" 
d="M396 22q-31 -11 -73 -18t-99 -6q-47 1 -86.5 11.5t-68.5 29t-45.5 45t-16.5 60.5q0 55 29 98t71 72.5t88 45t79 15.5q62 -1 93.5 -24.5t40 -57.5t-1.5 -73.5t-31 -73t-48.5 -56t-53.5 -22.5q-25 0 -29.5 18t2.5 45t21.5 58t27.5 56q-19 -18 -42.5 -38.5t-48.5 -38
t-49 -29t-44 -11.5q-17 0 -26.5 6.5t-9.5 14.5t13.5 27.5t39 40t63 36t84.5 15.5q8 0 14.5 -1t12.5 -3q1 2 2.5 3t2.5 3q11 19 11 25q3 0 10 -0.5t13.5 -2t11.5 -4.5t5 -7q0 -8 -7.5 -24t-18.5 -37t-23 -43t-20.5 -42t-11.5 -34.5t4 -18.5q18 0 37.5 20.5t34 51t22.5 66
t3 66t-24.5 51t-58.5 20.5q-49 0 -96 -25t-82.5 -63t-53.5 -82t-10.5 -82t46.5 -64.5t119 -27.5q59 -1 100.5 4.5t70.5 14.5h1zM126 148q20 0 41.5 9.5t43.5 25t43 35t41 39.5q-3 2 -6.5 2h-6.5q-29 0 -58.5 -11t-53.5 -27.5t-39 -34.5t-15 -31q0 -5 4 -6t6 -1z" />
    <glyph glyph-name="A" unicode="A" horiz-adv-x="488" 
d="M420 247q7 0 18 -0.5t22 -2t19 -3t8 -2.5q0 -2 -20.5 -2.5t-55.5 -0.5q-10 0 -27.5 -2t-40.5 -4q-16 -39 -30 -75t-24.5 -65.5t-16.5 -50.5t-6 -30q0 -8 -7.5 -8.5t-16 3t-16 9t-7.5 9.5q0 22 18.5 77t46.5 124q-31 -5 -61 -8.5t-56 -6.5q-42 -45 -82 -85t-73 -70
t-57.5 -48t-35.5 -18q-9 0 -14 4.5t-5 10.5q0 7 7 27t15.5 41t15.5 38t7 18q0 2 -2.5 3.5t-2.5 3.5q0 1 2 5.5t5 9.5t5.5 9l2.5 4q1 1 4.5 1.5t7.5 0t7.5 -2t3.5 -5.5q0 -5 -8.5 -28.5t-18.5 -50t-17.5 -47.5t-4.5 -21q6 0 25 15.5t46.5 42.5t62.5 63t74 77q-5 -1 -9 -1h-8
q-20 0 -30 2t-14 5t-4 6v5t3 4t8 2q10 0 14 -1.5t6.5 -3t6 -2.5t12.5 -1q4 0 12 0.5t19 1.5q50 54 97 105.5t89 98t77 87.5t61 75h11q4 0 7.5 -1.5t3.5 -4.5q0 -1 -11 -14q13 -7 13 -9q-9 -9 -26 -40t-38 -75t-44 -97t-45 -105q22 2 40.5 3t31.5 1zM184 226q23 3 50.5 6
t56.5 5q23 57 49.5 114t51.5 105q-45 -51 -98.5 -110.5t-109.5 -119.5z" />
    <glyph glyph-name="B" unicode="B" horiz-adv-x="519" 
d="M219 312q1 -1 18.5 -3.5t43.5 -8t56 -15t56 -23.5t43 -33.5t17 -45.5q0 -39 -32.5 -73t-85 -58.5t-119 -38.5t-134.5 -14q-60 0 -99.5 12t-62 26.5t-31.5 27l-9 12.5q0 1 0.5 3t4.5 2q2 0 10.5 -10.5t28.5 -23t54 -23t88 -10.5q48 0 104.5 11.5t105.5 33t82 53t33 71.5
q0 30 -15 48.5t-37 30t-48 17.5t-48 10.5t-37 9t-15 12.5q0 4 13 12t32.5 19t42.5 25t42.5 31.5t32.5 38t13 44.5q0 4 -2 14.5t-8 22t-18 20t-32 8.5q-44 0 -78.5 -28t-61 -69t-45.5 -88t-32 -86q16 33 33 66t30.5 59.5t22.5 43.5t10 19q3 2 9.5 1t14 -4t13 -6t5.5 -5h6
q0 -1 -11.5 -25.5t-29.5 -60t-39 -77.5l-39 -78t-31 -60.5t-14 -25.5q-3 0 -11 -0.5t-16.5 -0.5t-14.5 1.5t-6 6.5v2v-1q0 1 1 2q0 1 0.5 1.5t0.5 2.5q12 32 27 76t33.5 91t40.5 93t49.5 82.5t60.5 59t72 22.5q17 0 36 -5.5t35 -17t26.5 -29.5t10.5 -42q0 -23 -15 -43
t-37.5 -36.5t-48.5 -29.5t-48 -22.5t-35.5 -15.5t-11.5 -8z" />
    <glyph glyph-name="C" unicode="C" horiz-adv-x="303" 
d="M197 359q-9 0 9 7.5t43.5 23t48.5 40t25 57.5q0 4 -0.5 10t-3 11.5t-7 9.5t-10.5 4q-28 0 -59.5 -16t-63 -44.5t-60.5 -67t-52 -83.5t-37.5 -94t-16.5 -98q0 -10 2 -27.5t12 -34.5t30 -29.5t56 -12.5q24 0 47.5 8.5t44 20t36.5 24.5t27 22t15 12t-1 -5q-1 -2 -15 -16.5
t-36.5 -31t-51.5 -30t-62 -14.5q-32 0 -60.5 9.5t-49.5 28.5t-33 48t-11 68q2 40 15.5 84t36 87t52.5 81.5t64.5 67.5t71 46t73.5 17q21 0 36 -6.5t24.5 -16t13.5 -20.5t3 -21q-2 -25 -21.5 -46.5t-44.5 -37.5t-50.5 -25.5t-39.5 -9.5z" />
    <glyph glyph-name="D" unicode="D" horiz-adv-x="554" 
d="M11 -92h-10.5t-13 1t-11.5 3t-6 6q0 2 1 27t4 66q-56 13 -86 29t-32 24q0 4 7 0.5t21.5 -10.5t37 -16t53.5 -16q4 47 12.5 106.5t22.5 122t34.5 122.5t49.5 107t67.5 75.5t87.5 29.5q55 1 101.5 -24t80.5 -66t53 -94t20 -108t-19 -108t-64.5 -95t-115.5 -68t-173 -27
q-40 0 -76 3q-20 -39 -32 -63.5t-14 -26.5zM304 521q0 -3 -11.5 -30t-31 -69.5t-45 -96t-52.5 -109.5t-53.5 -109.5t-47.5 -96.5q8 -1 15 -0.5t15 0.5q97 1 164.5 25.5t109.5 64t61 89.5t19.5 102t-15 102t-42 88.5t-62 62.5t-75.5 24q-47 0 -83.5 -31.5t-64.5 -82
t-47.5 -113t-33 -123.5t-20.5 -114.5t-10 -85.5q4 -1 7.5 -1t7.5 -1q14 31 38 82.5t51 110.5t55.5 120t51.5 110.5t39 82t18 35.5q2 2 8.5 -2t14 -10t13.5 -13t6 -11zM-7 7q-1 -11 -1 -18.5v-9.5q1 3 3 7q2 3 4 8t5 11q-3 0 -5.5 1t-5.5 1z" />
    <glyph glyph-name="E" unicode="E" horiz-adv-x="418" 
d="M530 521v-2.5t-10 -0.5q-5 0 -11.5 3t-27.5 7t-63 7t-118 3q-25 0 -58 -3q-5 -11 -16.5 -33.5t-27.5 -53.5t-33.5 -67t-34.5 -72q59 3 122 4.5t125 1.5q4 0 9 -3t8.5 -7t5.5 -7t0 -3q-83 4 -152 2.5t-126 -5.5q-24 -53 -41 -97.5t-17 -67.5q0 -29 16 -49.5t38.5 -33
t47 -18t41.5 -5.5t34.5 1.5t31 3t22 1t8.5 -3.5t-10 -6t-23.5 -5.5t-28 -4t-23.5 -1.5q-30 0 -64 5.5t-63.5 19t-49 37t-19.5 60.5q0 26 12 68.5t30 90.5q-74 -8 -113.5 -16t-42.5 -10q-5 -2 -6.5 -6t-7.5 -4q-5 0 -10 4t-5 8q0 8 14.5 14.5t40 11.5t60.5 9t77 7
q13 34 28 68.5t29 64.5t25.5 53.5t19.5 37.5l-58 -8t-53.5 -8.5t-43 -8.5t-27.5 -7q-7 0 -8.5 3.5t-1.5 5.5q0 7 29.5 15.5t81 16t120.5 12.5t149 5q46 0 78 -5t52.5 -11t29.5 -11.5t9 -6.5z" />
    <glyph glyph-name="F" unicode="F" horiz-adv-x="430" 
d="M811 567q5 0 11 -4t10.5 -9.5t7 -9.5t0.5 -4q-142 6 -284 -1t-263 -20q-2 -7 -10.5 -27t-22 -49.5t-30.5 -66.5t-36 -77q45 -2 81 -6.5t54 -4.5q31 0 44 9t16.5 20t2.5 20t3 9q8 0 11.5 -7.5t3.5 -27.5q0 -19 -17 -30.5t-55 -11.5q-27 0 -70 3.5t-83 5.5
q-26 -56 -52.5 -113t-47.5 -104t-34 -79.5t-13 -39.5q0 -3 -8 -7t-18 -5t-18 3.5t-8 19.5q0 8 12 39.5t32 77t45 100.5t51 110q-30 -1 -47 -6t-17 -10v-39q0 -12 -6 -25.5t-8 -13.5q-3 0 -3.5 12t-0.5 18q0 5 -4 19t-4 29q0 20 27.5 27t72.5 9q16 34 31 66t28.5 60t25 50.5
t19.5 37.5q-57 -7 -103.5 -13.5t-80.5 -11.5t-53.5 -8.5t-20.5 -4.5q-7 -3 -9 -8t-9 -5q-8 0 -14 5t-6 10q0 9 24.5 18t66.5 16.5t99.5 14.5t123.5 13q3 3 8 1q67 6 140 11t144.5 8t138 5t122.5 2z" />
    <glyph glyph-name="G" unicode="G" horiz-adv-x="450" 
d="M414 253q0 -2 -13.5 -18.5t-33 -42t-42 -58.5t-40.5 -69t-27.5 -73.5t-2.5 -72.5q1 -5 -4.5 -3.5t-13 7t-14 12.5t-7.5 13q-2 13 2.5 42.5t19.5 71.5q-11 -5 -33 -10.5t-57 -5.5q-77 1 -121.5 23.5t-63 58.5t-14 82t27 93.5t59 93.5t82 81.5t97 57.5t102.5 22q19 0 35 -6
t27 -15.5t17.5 -20.5t8.5 -20q4 -23 -9.5 -43.5t-33.5 -35.5t-42 -23.5t-35 -8.5q-9 0 6.5 7t36 22t37 37.5t10.5 54.5q-1 8 -8.5 20.5t-19.5 12.5q-27 0 -64 -15t-77.5 -41.5t-79 -63t-67 -79t-42.5 -89t-6 -92.5q1 -9 7 -25.5t19.5 -32.5t35.5 -28t56 -12q52 -1 80.5 13.5
t45.5 30.5q16 35 38.5 72.5t54.5 75.5q-20 -14 -46 -20q-23 -5 -54.5 -5t-71.5 17q-5 3 -2 5.5t10 0.5q19 -8 45.5 -6.5t54 6.5t53.5 10.5t44 5.5q4 0 9.5 -2t10.5 -4t9 -4.5t4 -3.5z" />
    <glyph glyph-name="H" unicode="H" horiz-adv-x="541" 
d="M520 346q8 0 11.5 -7.5t3.5 -27.5q0 -19 -17 -30.5t-55 -11.5h-14t-19 1q-28 -57 -57 -116.5t-52.5 -109t-38.5 -83.5t-15 -39q-7 0 -14.5 3t-14 6.5t-11 7.5t-4.5 7q0 1 12.5 30t33 74.5t47 103.5t55.5 118q-47 2 -106.5 4t-125.5 4q-26 -52 -51.5 -102.5t-46.5 -91
t-35.5 -66.5t-17.5 -29q-21 0 -32.5 10t-11.5 18q0 4 3.5 15t7.5 22t7.5 17.5t3.5 2.5q0 -10 -0.5 -19t4.5 -4q1 1 11 21t25.5 51.5t34.5 72t39 82.5q-32 0 -50 -5.5t-18 -10.5v-39q0 -12 -6 -25.5t-8 -13.5q-3 0 -3.5 12t-0.5 18q0 5 -4 19t-4 29q0 20 28.5 27t75.5 9
q20 42 38.5 81t32.5 70t22 49.5t7 18.5q-2 0 -10.5 -10t-18.5 -22.5t-19 -24t-12 -14.5q-4 0 0 9.5t13 24t20.5 31t23 31t21 24t14.5 9.5q7 0 15.5 -2.5t15.5 -6.5t12 -7.5t5 -4.5q0 -3 -10 -25.5t-27 -58t-39 -80.5t-46 -93q48 -2 111.5 -4.5t120.5 -4.5q23 48 45.5 93.5
t42.5 82.5t36 63.5t26 36.5q7 7 19.5 8.5t24.5 -1t20.5 -8t8.5 -10.5q0 -3 -11.5 -23t-26 -44t-26.5 -43.5t-13 -20.5q-4 0 -2.5 8t4.5 18t5.5 18t1.5 8t-9 -15t-21 -40.5t-30 -59.5t-36 -73h15q31 0 44 9t16.5 20t2.5 20t3 9z" />
    <glyph glyph-name="I" unicode="I" horiz-adv-x="289" 
d="M292 564q0 2 -12 -16.5t-32 -51.5t-45.5 -77t-52.5 -92.5t-53.5 -98.5t-48 -95.5t-36 -83t-18.5 -60.5q-13 0 -29 8t-16 13q0 1 12.5 30.5t32.5 76t46 104t53 115t52.5 109t45.5 85.5q-29 11 4 24q4 2 19.5 8.5t33 11t31 4t13.5 -13.5z" />
    <glyph glyph-name="J" unicode="J" horiz-adv-x="352" 
d="M354 535q9 -2 16.5 -4.5t5.5 -4.5q-6 -6 -17 -37.5t-26.5 -78t-36.5 -104.5t-47 -117t-57.5 -115.5t-68.5 -100t-80.5 -70t-92.5 -26.5q-41 0 -70.5 9.5t-48.5 22t-27.5 24t-8.5 14.5t2 1l8.5 -9t25 -19.5t41.5 -19.5t58 -9q48 0 92.5 39t83.5 99.5t72 134t59.5 143
t45.5 126.5t29 85q-40 1 -82.5 2t-86.5 1q-34 0 -53 -6t-19 -11v-41q0 -13 -6.5 -27t-8.5 -14q-3 0 -3.5 12.5t-0.5 19.5q0 5 -4.5 19.5t-4.5 30.5q0 23 36.5 30.5t94.5 7.5q25 0 63.5 -1t83.5 -3q2 2 9 1.5t16 -2.5q8 -1 8 -2z" />
    <glyph glyph-name="K" unicode="K" horiz-adv-x="461" 
d="M488 438q1 -10 -20 -25t-54.5 -33t-75 -36.5t-81.5 -35.5q-24 -25 -47.5 -52t-45.5 -54q29 -26 71 -59t81 -62t67.5 -49t31.5 -20q0 -2 -3 -2h-5q-11 0 -40.5 17.5t-66.5 43.5t-77 57t-71 58q-32 -41 -58.5 -80t-46 -70t-30 -50.5t-10.5 -22.5q-22 0 -33.5 6.5
t-13.5 14.5q-2 14 6.5 45.5t25 73t38 90.5t45 98.5t46.5 96t41.5 82.5t31 59.5t15.5 26.5q1 2 10.5 0t20 -5t19.5 -7t9 -5q2 -11 -5 -30.5t-18 -43t-24.5 -49t-24.5 -48.5t-18.5 -41t-5.5 -27q0 -2 0.5 -3.5t-1.5 -1.5q-3 0 -8 4t-5 9q-1 3 1.5 11.5t5.5 18.5t5.5 18.5
t1.5 10.5q-7 -13 -14 -28q-7 -14 -15 -31.5t-18 -38.5q23 11 55.5 25.5t70.5 31.5q66 66 120 94.5t98 29.5q6 0 12 -2t7 -10zM12 -2q34 58 66 107t63 91q-21 18 -35 32q-14 -30 -28.5 -62.5t-27.5 -63t-23 -57.5t-15 -47zM469 438q-40 -1 -84 -26t-89 -66q34 15 65.5 30
t55.5 27.5t38.5 21.5t13.5 13zM124 246q1 -5 8.5 -13.5t20.5 -20.5q17 23 33.5 42.5t32.5 36.5q-42 -17 -69 -29.5t-26 -15.5z" />
    <glyph glyph-name="L" unicode="L" horiz-adv-x="336" 
d="M239 544q0 -9 -10.5 -35.5t-28 -64t-40 -82t-46 -91t-46 -90.5t-40 -80t-28 -61t-10.5 -32q0 -19 25.5 -27.5t64.5 -11.5t85 -1t87 5.5t71 7t36 3.5q9 0 -13 -4.5t-63.5 -10.5t-95.5 -10.5t-109 -4.5q-56 0 -92.5 14.5t-36.5 37.5q0 25 15.5 69t39.5 96t51 106.5
t51 101.5t39.5 81t15.5 44q-8 -12 -18 -23q-8 -10 -19.5 -20.5t-23.5 -18.5q-8 -6 -5 0t12.5 18.5t23.5 29t27 32t24 27.5t14 15q5 0 12.5 -2.5t14 -6t11.5 -7t5 -4.5z" />
    <glyph glyph-name="M" unicode="M" horiz-adv-x="742" 
d="M682 536q2 0 8 -2.5t13 -5.5t12 -7t5 -7t-18.5 -35.5t-46.5 -82t-60.5 -110t-60.5 -121.5t-46.5 -116.5t-18.5 -93.5q0 -5 -2.5 -5t-5.5 3.5t-5.5 9.5t-2.5 14q0 58 15 119t37.5 120t50 112.5t52.5 96.5q-22 -27 -52.5 -62t-65 -72.5t-69.5 -73.5t-66.5 -64.5t-56.5 -46
t-38 -17.5q-14 0 -22 10t-8 27q0 16 13.5 50t34 75.5t44 86t43 81t31.5 60t9 24.5q-8 0 -29.5 -21t-52.5 -55t-67.5 -78t-74 -90.5t-73 -91.5t-63.5 -81t-46 -59.5t-20 -26.5l3 15q-3 -9 -3 -14q0 -7 -6.5 -7t-15 4t-15 9t-6.5 8q0 13 9.5 43.5t24 68.5t32.5 79.5t34.5 77.5
t30 61.5t20.5 32.5q0 4 0.5 7.5t0.5 9.5q0 2 5.5 15.5t14 33t19 41.5t20 40.5t17 31t10.5 12.5q4 0 11.5 -2t15 -5.5t13 -7.5t5.5 -8t-12.5 -32t-32.5 -70.5t-45 -95t-50 -105.5t-46.5 -101.5t-35.5 -83.5q16 24 49.5 68.5t75.5 97.5t88 107.5t86 99.5t70 73.5t41 28.5
q3 0 10 -2t14.5 -6.5t13.5 -11.5t6 -18q0 -12 -14 -43.5t-34.5 -72t-43 -84.5t-40 -81t-26 -61t0.5 -24q8 0 37 27t69 68.5t85.5 91t85.5 94.5t69.5 78.5t38.5 43.5q1 2 3 4z" />
    <glyph glyph-name="N" unicode="N" horiz-adv-x="531" 
d="M237 555q0 -4 -6 -42.5t-12.5 -94t-11.5 -118.5t-3.5 -117t12 -89.5t34.5 -35.5t55.5 31.5t64.5 81t65 110t56.5 118t40 105t15.5 71.5q0 13 1 16t2.5 1t2.5 -8t1 -12q0 -21 -14 -67.5t-38 -105t-55.5 -121t-66 -114t-69.5 -85t-67 -33.5q-26 0 -41.5 20.5t-24 54
t-10.5 77t-0.5 89.5t6 91.5t9.5 82.5q-18 -41 -40.5 -90.5t-46 -100.5t-46.5 -99.5t-41.5 -87t-31 -63.5t-15.5 -28q-20 -3 -35.5 4.5t-16.5 15.5q-1 4 1 14.5l4 21t4.5 17.5t3.5 3q1 -8 1.5 -16.5t4.5 -3.5q1 1 11.5 22t26.5 54.5t36 76t41 86.5t40.5 86t34.5 74.5t24 52.5
t8 20q-2 0 -8.5 -10.5t-14.5 -23t-15 -24.5t-10 -15q-4 -1 -1 8.5t9.5 24t15 32t17.5 32t17 24.5t12 11q3 0 13.5 -2t21.5 -6t20 -8t9 -8z" />
    <glyph glyph-name="O" unicode="O" 
d="M570 337q-4 -53 -24 -98.5t-51.5 -82.5t-70 -66t-79 -48.5t-80.5 -29.5t-72 -9q-74 1 -115 22t-60.5 49.5t-23 59t-1.5 51.5q4 59 28.5 113.5t60 100t78 80t83.5 52.5q-106 -1 -171.5 -16.5t-103.5 -33.5t-54.5 -33t-24.5 -15q-1 0 -3.5 0.5t-2.5 4.5q0 2 20 21
t65.5 40.5t118.5 38.5t179 15q14 -1 28.5 -1.5t28.5 -2.5q2 0 4 -0.5t4 -0.5q55 -8 100.5 -25.5t77 -44.5t48 -62.5t13.5 -78.5zM369 503q0 -5 -5 -12.5t-11 -14.5t-13 -12t-12 -5q-2 0 0.5 10t5 22t2.5 23t-9 13q-2 0 -2.5 0.5t-2.5 0.5q-22 0 -54 -21.5t-66.5 -56.5
t-67 -79.5t-57 -90.5t-37 -91t-5.5 -80t37.5 -57t90.5 -23q56 -1 108 16.5t96.5 48t79.5 70t55.5 83t26 86.5t-9.5 80.5t-51.5 66t-99.5 41.5q1 -5 1 -10v-8z" />
    <glyph glyph-name="P" unicode="P" horiz-adv-x="457" 
d="M43 27q-16 -27 -30 -27q-21 0 -32.5 9t-16.5 24t-6 34.5t0 39.5q1 40 11.5 90.5t30.5 102t50.5 100.5t72 87t95 61t118.5 23q64 0 100 -19.5t53.5 -44t21.5 -46.5t4 -27q0 -45 -33.5 -91.5t-89 -85t-128 -65t-151.5 -30.5q-11 -20 -22.5 -43t-22 -43t-17.5 -33.5
t-8 -15.5zM254 445q0 -3 -12.5 -29.5t-32 -65t-42.5 -84t-44 -86.5q32 6 70 18.5t76 31t73 42.5t62 53.5t43.5 64t16.5 73.5q0 22 -13.5 38t-34.5 26.5t-46.5 16t-50.5 5.5q-80 0 -139 -38t-100 -95.5t-66 -124t-36.5 -124t-10.5 -95.5t12 -38q6 0 13.5 10.5t17 28.5
t21 41.5t24.5 50.5q-12 2 -21.5 5t-7.5 5t11 0.5t23 -1.5q15 30 29.5 60.5t27.5 58t23.5 49.5t16.5 34q-5 -8 -12.5 -18.5l-15 -21t-14 -20t-9.5 -14.5t0.5 4t11.5 25.5t18.5 37.5t21.5 39.5t20 31.5t14 14q7 1 17 1t19 -1t16 -3t10 -6z" />
    <glyph glyph-name="Q" unicode="Q" 
d="M354 -25q0 -54 17.5 -78.5t39 -34.5t39 -11.5t17.5 -9.5q0 -2 -11 -2.5t-28 3t-36 13t-36 27t-28 44.5t-11 66q0 15 -5 33q-54 -21 -103 -21q-75 0 -118.5 20t-66.5 48t-29.5 58.5t-6.5 51.5q0 44 24.5 96t61.5 101.5t80.5 91t81.5 62.5q-112 -1 -180 -17.5t-106 -36
t-54 -35.5t-24 -16q-1 0 -3.5 0.5t-2.5 4.5q0 2 18.5 21.5t62.5 41.5t115.5 40t178.5 18q68 0 126.5 -14.5t101.5 -41.5t67.5 -66t24.5 -88q0 -55 -18.5 -102.5t-48.5 -86t-69 -68t-80 -48.5q9 -29 9 -64zM177 29q65 0 125 26q-11 29 -24.5 50t-13.5 25t7 3t17.5 -8.5
t22.5 -21t22 -33.5q50 27 89.5 67.5t64 87t31 94t-9 89t-55 73t-108.5 44.5q2 -5 2 -10v-9q0 -5 -4 -12.5t-9.5 -14.5t-12 -12t-11.5 -5q-2 0 0.5 10.5t4 23.5t-0.5 23.5t-14 10.5q-20 0 -48.5 -21.5t-60 -57t-61.5 -80.5t-52 -91.5t-32 -91.5t-1 -80.5t40 -57t92 -21.5z
" />
    <glyph glyph-name="R" unicode="R" horiz-adv-x="457" 
d="M472 -105q15 0 21 6.5t9 6.5q5 0 2.5 -5.5t-10.5 -12.5t-20 -12.5t-25 -5.5q-27 0 -57 12.5t-58 30.5t-52.5 37.5t-40.5 33.5q-35 30 -70 64t-68 69l-8 8l-3 -6q-6 -12 -14.5 -28t-16 -30.5t-13 -25t-6.5 -11.5q-16 -29 -33 -29q-18 0 -28.5 9t-16 24t-7 34t-1.5 38
q1 40 10.5 90.5t30 102.5t51 101.5t72.5 88.5t96 62.5t120 23.5q64 0 100 -19.5t53.5 -44t21.5 -46.5t4 -27q0 -44 -31.5 -88.5t-84 -83t-121.5 -65.5t-145 -34l16 -16q36 -38 73.5 -73.5t72.5 -66.5q14 -11 35.5 -30t45.5 -37.5t49.5 -31.5t46.5 -13zM60 174
q15 30 29.5 60.5t27.5 58t23.5 49.5t16.5 34q-5 -8 -12.5 -18.5l-15 -21t-14 -20t-9.5 -14.5t0.5 4t11.5 25.5t18.5 37.5t21.5 39.5t20 31.5t14 14q7 1 17 1t19 -1t16 -3t10 -6q0 -3 -12.5 -29.5t-32 -65t-42.5 -84t-44 -86.5q32 6 70 18.5t76 31t73 42.5t62 53.5t43.5 64
t16.5 73.5q0 22 -13.5 38t-34.5 26.5t-46.5 16t-50.5 5.5q-79 0 -138.5 -38t-100.5 -95.5t-66 -124t-36.5 -124t-10.5 -95.5t12 -38q6 0 13.5 10.5t17 28.5t21 41.5t24.5 50.5q-12 2 -21.5 5t-7.5 5t11 0.5t23 -1.5z" />
    <glyph glyph-name="S" unicode="S" horiz-adv-x="544" 
d="M526 532q0 -21 -13.5 -44.5t-34 -47t-45 -45t-45 -38t-35 -26.5t-15.5 -10q-1 -1 -6 -1t-10 1t-9.5 3t-4.5 4q0 6 13 19t32.5 30.5t42.5 38.5t42.5 43t32.5 44t13 42q0 14 -27 17t-67 -3t-87 -21t-87 -37t-67 -49.5t-27 -58.5q0 -20 22 -49.5t55 -63t71 -68.5t71 -66.5
t55 -56.5t22 -39q0 -28 -36 -44t-90 -21t-117 0.5t-117 21t-90 40.5t-36 59q1 1 2 0q0 -30 31 -51.5t77.5 -35t101 -18.5t101 -2t77.5 14t31 30q0 10 -21 32.5t-52.5 52t-68 63.5t-68 68t-52.5 66t-21 57q0 22 19.5 45.5t51.5 45.5t73 41.5t84 34t84 22.5t73 7t51.5 -12
t19.5 -34z" />
    <glyph glyph-name="T" unicode="T" horiz-adv-x="437" 
d="M811 567q5 0 11 -4t10.5 -9.5t7 -9.5t0.5 -4q-141 6 -282.5 -1t-261.5 -19q-2 -8 -14.5 -36t-31 -68t-41.5 -89t-46.5 -99.5t-46 -99.5t-40 -88t-28 -65.5t-10.5 -32.5q0 -3 -8 -7t-18 -5t-18 3.5t-8 19.5q0 9 15 46.5t38.5 91t52.5 116t57 122t52.5 109t38.5 76.5
q-57 -7 -103.5 -13.5t-80.5 -11.5t-53.5 -8.5t-20.5 -4.5q-7 -3 -9 -8t-9 -5q-8 0 -14 5t-6 10q0 9 24.5 18t66.5 16.5t99.5 14.5t123.5 13q1 1 4 1q68 6 141 11t145 8t139.5 5t123.5 2z" />
    <glyph glyph-name="U" unicode="U" horiz-adv-x="547" 
d="M209 574q0 -3 -14.5 -29.5t-37 -68t-49 -93t-50 -105.5t-41.5 -105t-22.5 -90.5t7 -64t46.5 -24.5q28 0 59 13t63.5 35.5t65.5 53t65 65.5q21 54 47 116.5t52 119t49.5 100t38.5 58.5q7 7 18 9t21.5 1.5t18 -4t7.5 -6.5q0 -19 -12 -51.5t-34 -72.5t-51.5 -86t-63.5 -92
q-18 -39 -34 -79.5t-28 -79.5t-19 -75.5t-7 -67.5q0 -9 -7.5 -7t-16 12.5t-16 28t-7.5 39.5q0 8 8.5 36t23.5 68q-32 -34 -64 -63t-62.5 -50t-59.5 -33t-54 -12q-33 0 -52.5 10t-30 26.5t-14 38t-3.5 44.5q0 40 15 93t38 109t50 110.5t51 98t41 71t19 29.5q4 4 11.5 1.5
t15 -7.5t13.5 -11t6 -9zM537 526q-18 -29 -38 -64q-17 -30 -38.5 -70t-43.5 -86q27 37 49 72.5t37.5 64.5t24.5 50.5t9 32.5z" />
    <glyph glyph-name="V" unicode="V" horiz-adv-x="418" 
d="M167 553q0 -3 -8.5 -29.5t-21.5 -67.5t-28.5 -91.5t-29.5 -102.5t-24.5 -100t-13.5 -83q-3 -33 8 -55t28 -22q24 0 56 23t67 61.5t71 88.5t69 104t60 107.5t44.5 98.5t22.5 77.5t-6 45.5q14 -15 10.5 -50t-20 -82t-44 -101.5t-61 -109.5t-71.5 -105.5t-75.5 -89.5
t-73 -62.5t-64.5 -22.5q-25 0 -40.5 9.5t-23.5 25.5t-10.5 35.5t-0.5 39.5q2 19 10.5 59.5t21 90.5t27 103.5t27.5 99t23.5 76t15.5 34.5q5 5 14.5 5.5t18.5 -1t15.5 -4.5t6.5 -5z" />
    <glyph glyph-name="W" unicode="W" horiz-adv-x="676" 
d="M393 397q0 -5 -16.5 -39t-36.5 -83.5t-38.5 -108t-22.5 -111.5q-3 -33 8 -55t28 -22q24 0 56 23t67 61.5t71 88.5t69 104t60 107.5t44.5 98.5t22.5 77.5t-6 45.5q14 -15 10.5 -50t-20 -82.5t-44 -102.5t-61 -110t-71.5 -106t-75.5 -90.5t-73 -63t-64.5 -22.5
q-37 2 -53 29t-17 67.5t9.5 90t25.5 96.5q-25 -36 -56 -76t-63 -73.5t-62.5 -55t-53.5 -21.5q-38 0 -50 22.5t-10 54.5q1 13 11.5 52t25.5 90t33 107.5t34 104.5t28.5 80.5t16.5 36.5q0 3 8.5 3.5t18.5 -1t18.5 -3.5t8.5 -3q-1 -7 -12 -40t-27 -79.5t-35 -101t-35.5 -104
t-28 -89t-12.5 -56.5q-2 -27 8 -33.5t14 -6.5q23 0 52.5 21t61 54t62.5 73.5t57 78.5q18 48 35.5 83.5t26.5 43.5q5 5 14 5.5t17.5 -1t15 -4.5t6.5 -5z" />
    <glyph glyph-name="X" unicode="X" horiz-adv-x="524" 
d="M505 -65q10 0 13 -1.5t1.5 -3.5t-6 -3.5t-9.5 -1.5q-63 0 -121 19t-108.5 55t-91.5 86.5t-70 113.5q-38 -39 -72.5 -74t-62 -61.5t-46 -41.5t-25.5 -15q-10 0 -10 10q0 11 5.5 20.5t7.5 9.5q1 0 -0.5 -4t-2.5 -9t-1 -9t4 -4q5 0 22 15.5t43.5 41.5t60 61.5t70.5 74.5
q-24 58 -37.5 124t-13.5 140q-4 0 -9.5 -10.5t-11 -23.5t-9 -24.5t-3.5 -13.5t-1 8t1.5 26t9.5 35t24 36q7 7 15.5 10t15.5 4t12 0t5 -3q0 -10 2.5 -35t8 -59.5t15 -76.5t24.5 -87q51 54 102 107.5t93.5 95.5t73 68.5t41.5 26.5q13 0 14 -4.5t-3.5 -10t-10.5 -10t-7 -4.5
q-2 0 -2 1q0 2 2.5 5l5 6t3.5 5t-3 2q-6 0 -35 -27t-71 -70.5t-93.5 -97.5t-103.5 -109q20 -58 50 -114t72 -100.5t97 -71.5t126 -27z" />
    <glyph glyph-name="Y" unicode="Y" horiz-adv-x="336" 
d="M152 526q-2 -2 -19.5 -33.5t-41.5 -77t-49.5 -98.5t-43 -98t-22.5 -75t11 -30q19 0 42 22t50 57.5t56 81t61 92.5t65 91.5t67 78.5l1 1q2 1 11.5 0.5t19.5 -3t17.5 -5t6.5 -4.5q-6 -6 -17.5 -37.5t-27.5 -78t-37.5 -104.5t-48 -117t-59 -115.5t-70 -100t-81.5 -70
t-93 -26.5q-41 0 -70.5 9.5t-48.5 22t-27.5 24t-8.5 14.5t2 1l8.5 -9t25 -19.5t41.5 -19.5t58 -9q35 0 69 21.5t65 58t59.5 84.5t53.5 100t47 105.5t39.5 101.5t31 87t22.5 62q-31 -33 -61.5 -76t-60.5 -89.5t-59.5 -91.5t-58.5 -80t-57.5 -57t-55.5 -22q-22 0 -28.5 19.5
t-2 51.5t18.5 72.5t32 83.5t39.5 83.5t40.5 72.5t34.5 51.5t22.5 19.5q10 0 20.5 -6.5t10.5 -16.5z" />
    <glyph glyph-name="Z" unicode="Z" horiz-adv-x="767" 
d="M675 34q0 -35 -27.5 -50t-73.5 -16t-105 8.5t-121.5 23t-124 28t-111.5 23.5q-44 -28 -77.5 -44t-53.5 -16q-23 0 -32 13.5t-3 29t26 29t55 13.5q8 0 17 -0.5t18 -1.5q31 22 71.5 53.5t86 67t94 74t96 75.5t92 71t81.5 60q-53 3 -108 9.5t-101 13t-77 11.5t-35 5
q-8 0 -11 -5.5t-2.5 -13.5t3.5 -16t8 -13t-1.5 -8.5t-16 -2t-18.5 10t-9 26.5q0 31 8 40t19 9t39.5 -8t71 -18t98.5 -18t122 -8h28q35 23 60 37t36 14q22 0 36 -3.5t21 -8.5t9.5 -10t2.5 -9q0 -17 -25 -25t-66 -10q-46 -32 -113 -84.5t-141.5 -110.5t-150 -115.5
t-139.5 -99.5q46 -8 94.5 -20t94 -23t85 -19t66.5 -8q63 0 102.5 13t62 25t31 16t8.5 -14zM-19 34q0 -8 16 -1t45 27q-29 1 -45 -4.5t-16 -21.5zM749 507q0 8 -12 4t-33 -18q17 2 26 4t13.5 4t5 3.5t0.5 2.5z" />
    <glyph glyph-name="bracketleft" unicode="[" horiz-adv-x="490" 
d="M573 697q0 -6 -18.5 -7t-42.5 -1t-47.5 -1t-33.5 -8q-34 -21 -73 -66.5t-77.5 -103.5t-73.5 -124t-61.5 -127.5t-42.5 -114t-16 -84.5q0 -23 13.5 -35.5t33.5 -18t43.5 -6t43.5 0t33.5 0.5t13.5 -4t-18 -8t-44.5 -5.5t-57.5 0t-57.5 8t-44.5 19t-18 32.5q0 35 18.5 92
t48.5 124t68 137t77 131.5t75.5 108t64.5 65.5q8 5 25 7.5t38.5 3.5t44.5 0t42 -3t31 -5t12 -7z" />
    <glyph glyph-name="backslash" unicode="\" horiz-adv-x="358" 
d="M0 593q0 1 7.5 5t16.5 7t17.5 4.5t10.5 -0.5t14.5 -30t32.5 -72.5t44.5 -100.5t49.5 -114.5t48.5 -114.5t42 -99.5t29.5 -70t10 -26.5q-2 0 -6 1t-10.5 6t-15.5 15t-19 29q-6 11 -21 39.5t-35.5 68.5t-44 87.5t-47.5 95.5t-46.5 94.5t-39.5 83.5t-27.5 61.5t-10.5 30.5z
" />
    <glyph glyph-name="bracketright" unicode="]" horiz-adv-x="569" 
d="M28 -14q0 6 18 7t42 1t47.5 1t34.5 8q34 21 73 66.5t77.5 103.5t73.5 124t61.5 127.5t42.5 114t16 84.5q0 23 -13.5 35.5t-33.5 18t-43.5 6t-43.5 0t-33.5 -0.5t-13.5 4t18 8t44.5 5.5t57.5 0t57.5 -8t44.5 -19t18 -32.5q0 -35 -18.5 -92t-48.5 -124t-68 -137t-77 -131.5
t-76 -108t-64 -65.5q-8 -5 -25 -7.5t-38.5 -3.5t-44.5 0t-42 3t-31 5t-12 7z" />
    <glyph glyph-name="asciicircum" unicode="^" horiz-adv-x="360" 
d="M324 331q-6 -5 -18 -2t-28 10.5t-32.5 18.5t-31.5 22t-26 19.5t-14 12.5q-101 -84 -114 -84q-9 0 -3.5 10t19 24.5t32 31t36 30.5t30 22t14.5 5q24 -23 56.5 -51.5t79.5 -68.5z" />
    <glyph glyph-name="underscore" unicode="_" horiz-adv-x="668" 
d="M62 -39q0 11 38.5 20t96 15t125 9.5t125 3.5t96 -3t38.5 -10q-26 0 -72.5 -4t-100.5 -10t-110.5 -13t-102.5 -13t-77 -10t-34 -4q-10 0 -16 4t-6 15z" />
    <glyph glyph-name="grave" unicode="`" horiz-adv-x="221" 
d="M186 266q-37 3 -69 21l-64 36q-6 9 -8 17t0 13.5t7.5 6t14.5 -5.5q23 -26 55 -51t64 -37z" />
    <glyph glyph-name="a" unicode="a" horiz-adv-x="431" 
d="M444 109q-27 -21 -58 -40.5t-61.5 -35t-58.5 -24.5t-49 -9q-20 0 -29 10t-9.5 27t5.5 39t15.5 45.5t21 47.5t22.5 44q-23 -21 -51 -46t-58 -46t-58.5 -35t-52.5 -14q-21 0 -32 7.5t-11 17.5t16 33.5t47 48t75 43t101 18.5q17 0 32 -5l3.5 3.5l3.5 3.5q13 24 13 30
q4 0 11.5 -0.5t15.5 -2t14 -5t6 -8.5q0 -10 -10.5 -31.5t-24.5 -48.5t-29 -55.5t-24 -52t-9.5 -38.5t14.5 -15t39 8.5t52.5 22.5t59.5 33.5t60 42.5zM29 104q0 -5 4.5 -6.5t6.5 -1.5q24 0 50 11.5t52 30t51.5 42t49.5 47.5q-4 2 -8 2h-8q-35 0 -70 -13.5t-63.5 -32.5
t-46.5 -41t-18 -38z" />
    <glyph glyph-name="b" unicode="b" horiz-adv-x="378" 
d="M390 139q17 0 20 -5t-5 -5h-14.5h-33t-46 -1t-53.5 -3q-4 -20 -16 -42.5t-30 -42t-40.5 -32.5t-46.5 -13q-11 0 -23 2.5t-22.5 8.5t-17.5 15.5t-7 23.5q0 19 13 33.5t34.5 25t50 17t59.5 10.5q10 22 10 29q0 12 -6.5 21t-32.5 9q-14 0 -32 -8t-36 -20t-34 -25.5
t-26 -23.5q-28 -58 -46.5 -103.5t-18.5 -66.5q0 -6 -5.5 -4.5t-11.5 7.5t-11.5 14t-5.5 14q0 20 16.5 66t42 103.5t54.5 119.5t54.5 114t42 87.5t16.5 39.5q3 0 11 -1t16 -2.5t14 -4.5t6 -6q0 -15 -15 -51t-38.5 -84t-51.5 -103t-54 -109q23 22 58 42t70 20q26 0 44 -15
t18 -47v-8q36 3 70 3.5t60 0.5zM109 14q12 0 26 10.5t27 26t25 34t20 35.5q-28 -4 -53 -10t-44 -15t-30.5 -21.5t-11.5 -28.5q0 -8 8 -19.5t33 -11.5z" />
    <glyph glyph-name="c" unicode="c" horiz-adv-x="283" 
d="M294 112q-24 -20 -54.5 -38.5t-62.5 -32.5t-64 -23t-57 -9q-23 0 -37.5 6t-23 15t-12 19.5t-3.5 18.5q0 29 22 62t53 61.5t64.5 47.5t56.5 19q20 0 31 -4.5t16.5 -10.5t6.5 -11.5t1 -7.5q0 -13 -8.5 -23t-20.5 -10q-13 0 -17 4.5t-4 13.5q0 19 10 19q5 0 8.5 1t3.5 6
t-4 5.5t-7 0.5q-9 0 -35 -17.5t-53 -44t-48 -58t-21 -60.5q0 -20 11 -27.5t20 -7.5q25 0 55.5 8t61.5 21.5t60 30.5t51 35v-9z" />
    <glyph glyph-name="d" unicode="d" horiz-adv-x="475" 
d="M488 106q-30 -25 -64.5 -51t-69 -47.5t-66.5 -35t-57 -13.5q-27 0 -29.5 24.5t9 62.5t32 84.5t40.5 90.5l-1 -1q-1 1 -3 1q-4 0 -6 1q-22 -21 -51.5 -47.5t-61 -49.5t-63 -39t-56.5 -16q-21 0 -32 7.5t-11 16.5q0 10 16 34t47 48.5t75 43t101 18.5q17 0 32 -5l34 34
q23 48 44 89.5t37.5 72.5t26 50t9.5 24q3 0 11 -0.5t16 -2t14 -5t6 -8.5q0 -7 -12 -33t-31 -63.5t-42.5 -83t-46.5 -91.5t-44 -90t-34 -77.5t-16.5 -54t7.5 -20.5q19 0 46 11.5t58.5 31t66 45t69.5 54.5v-10zM58 94q24 0 50 11.5t52 30t51.5 42t49.5 47.5q-10 2 -16 2
q-35 0 -70 -13.5t-63.5 -33t-46.5 -41t-18 -37.5q0 -5 4.5 -6.5t6.5 -1.5zM280 229q2 -1 3 -1t3 -1q2 4 3 7t3 7z" />
    <glyph glyph-name="e" unicode="e" horiz-adv-x="314" 
d="M62 7q24 0 58.5 10t72.5 26.5t77 37t71 42.5l-5 -12q-6 -6 -37.5 -24.5t-73 -38t-86.5 -35t-79 -15.5q-13 0 -28 2t-28 8.5t-22 19t-9 33.5q0 23 20.5 55t53 61t73.5 49.5t83 20.5q9 0 16.5 -3t12.5 -12q6 -13 -0.5 -27t-14.5 -23q-13 -14 -30 -24t-34 -18
q-54 -23 -109 -32q-8 -11 -14.5 -30t-6.5 -29q0 -14 4.5 -22t10.5 -12.5t12.5 -6t11.5 -1.5zM208 235q-13 -2 -34 -13t-43.5 -27.5t-44.5 -36.5t-37 -41q14 3 27.5 6t27.5 8q29 8 58.5 21t49.5 36q7 7 13 21.5t-4 23.5q-2 2 -6 3t-7 -1z" />
    <glyph glyph-name="f" unicode="f" horiz-adv-x="227" 
d="M329 608q9 0 21 -3.5t23 -12.5t20 -24t11 -38q-2 2 -5.5 2h-6.5q-9 0 -12 -1v9q0 30 -13 41t-21 11q-21 0 -47.5 -26t-55 -69t-58.5 -98.5t-58 -114.5q23 3 45.5 7.5t46.5 5.5q15 2 25 0.5t22 -5.5q-12 -4 -21.5 -6t-23.5 -4q-26 -2 -51 -6.5t-51 -9.5q-25 -54 -48 -108
t-46 -110q56 18 114 42.5t108 49.5q4 2 4 -2t-11 -10q-3 -2 -22.5 -11t-49 -22t-66.5 -28t-76 -28q-2 0 -6 -2q-19 -47 -42 -96.5t-48 -96t-51.5 -88.5t-53.5 -73t-54.5 -49t-53.5 -18q-9 0 -22.5 4t-25.5 14.5t-20.5 28.5t-8.5 45q0 61 29.5 110t75 87.5t102 67.5t110.5 50
q4 10 15 36t22.5 54t20.5 50t10 24l14 34t15 34q-7 -1 -14.5 -2.5t-14.5 -1t-13.5 4.5t-11.5 13q-6 11 -1 24q5 -13 10.5 -19t17.5 -7q14 -1 20.5 1t14.5 4q28 63 61 123t67.5 107.5t69.5 76.5t69 29zM-301 -368q25 0 56 33.5t64.5 87.5t67 121t63.5 134
q-50 -23 -100.5 -53.5t-91.5 -70.5t-67 -89.5t-26 -110.5q0 -15 4 -25t9.5 -16t11 -8.5t9.5 -2.5z" />
    <glyph glyph-name="g" unicode="g" horiz-adv-x="454" 
d="M478 140q4 2 4.5 -2t-11.5 -10q-3 -2 -22 -11t-48.5 -22t-66.5 -28t-76 -28q-2 -1 -3 -1t-3 -1q-19 -47 -42 -96.5t-48 -96t-51.5 -88.5t-54 -73t-55 -49t-53.5 -18q-9 0 -22 4t-25 14.5t-20.5 28.5t-8.5 45q0 61 29.5 110t75 87.5t101.5 67.5t110 50q23 51 42.5 97
t33.5 82q-2 0 -9 3q-22 -21 -51.5 -48t-61 -50t-62.5 -39t-56 -16q-22 0 -33 7.5t-11 17.5t16.5 33.5t47 48t75 43t101.5 18.5q18 0 31 -5l29 29q8 20 12 31t4 12q2 3 9 2t14.5 -4t13.5 -7t6 -6t-6 -20t-16.5 -48.5t-26 -70.5t-33.5 -85q56 18 113.5 42.5t107.5 49.5z
M-69 -368q25 0 56 33.5t64 87.5t67 121t64 134q-50 -23 -100.5 -53.5t-91.5 -70.5t-67 -89.5t-26 -110.5q0 -15 4 -25t9.5 -16t11 -8.5t9.5 -2.5zM40 76q24 0 50 11.5t52 30t52 42t50 47.5q-5 2 -9 2h-8q-35 0 -70 -13.5t-63.5 -32.5t-46 -41t-17.5 -38q0 -5 4.5 -6.5
t5.5 -1.5zM263 211q1 0 2 -0.5t2 -0.5q1 2 2 4.5t2 5.5q-6 -6 -8 -9z" />
    <glyph glyph-name="h" unicode="h" horiz-adv-x="409" 
d="M419 114q4 4 6.5 3t2.5 -5q-7 -7 -23.5 -18t-38.5 -23.5t-48 -24.5t-52.5 -22t-51.5 -16.5t-45 -6.5q-17 0 -22.5 8.5t-5.5 19.5q0 19 10.5 46t22 52.5t18 43.5t-0.5 18q-9 0 -25.5 -12.5t-35.5 -32t-39.5 -43t-38.5 -45.5t-31.5 -40t-18.5 -26q-11 -31 -11 -47
q0 -6 -5.5 -4.5t-11.5 7.5t-11.5 14t-5.5 14q0 20 16.5 66t42 103.5t54.5 119.5t54.5 114t42 87.5t16.5 39.5q3 0 11 -0.5t16 -2.5t14 -5t6 -8q0 -13 -11.5 -42t-30.5 -68.5t-42.5 -86t-47.5 -94t-46 -92.5t-37 -82q9 13 25.5 33.5t37 44t43 47t44 43t39.5 31.5t29 12
q18 0 25.5 -6.5t7.5 -14.5q0 -5 -6 -19.5t-14.5 -33.5t-19 -40.5t-19 -40.5t-14.5 -33t-6 -19t3 -6.5t5 -1.5q28 0 64.5 13t70.5 29.5t59 32t30 20.5z" />
    <glyph glyph-name="i" unicode="i" horiz-adv-x="250" 
d="M164 329q-6 -12 -17 -16.5t-22 0.5t-14 17t2 24q6 11 17 15.5t22 -0.5t14 -17t-2 -23zM265 114q-30 -23 -63 -46t-65.5 -41t-63 -29.5t-54.5 -11.5q-28 0 -35 18.5t-1 47t21 62t30 64t27 53t12 27.5q3 0 11 -0.5t16 -2t14 -5t6 -8.5q0 -10 -10.5 -31.5t-24.5 -48.5
t-29 -55.5t-24 -52t-9.5 -38.5t14.5 -15q18 0 43.5 9.5t55.5 25.5t63.5 38t66.5 48z" />
    <glyph glyph-name="j" unicode="j" horiz-adv-x="198" 
d="M223 138q4 2 4.5 -2t-11.5 -10q-3 -2 -21 -10.5t-46 -21.5t-64 -27.5t-75 -27.5q-2 -1 -3 -1t-3 -1q-19 -47 -42 -96.5t-48 -96t-51.5 -88.5t-54 -73t-55 -49t-53.5 -18q-9 0 -22 4t-25 14.5t-20.5 28.5t-8.5 45q0 61 29.5 110t75 87.5t101.5 67.5t110 50q23 52 43 99
t34.5 83t22.5 58t8 24q17 0 32 -4t15 -12q0 -2 -6.5 -20t-18 -48t-27.5 -70l-34 -85q56 18 110 41.5t104 48.5zM-317 -368q25 0 56 33.5t64 87.5t67 121t64 134q-50 -23 -100.5 -53.5t-91.5 -70.5t-67 -89.5t-26 -110.5q0 -15 4 -25t9.5 -16t11 -8.5t9.5 -2.5zM114 365
q-11 5 -14 17t2 23q6 12 17 16.5t22 -0.5t14 -17t-2 -24q-6 -11 -17 -15.5t-22 0.5z" />
    <glyph glyph-name="k" unicode="k" horiz-adv-x="464" 
d="M482 115q1 1 4 3t5 3t2.5 0.5t-3.5 -4.5t-13.5 -9t-26 -10t-42 -8.5t-62.5 -3.5q-110 0 -176 29q-29 -22 -56 -45.5t-49.5 -47.5t-38 -48t-20.5 -48q0 -4 -0.5 -7.5t-0.5 -7.5q0 -2 -1 -3q0 -1 -0.5 -1t-0.5 -1v2q-4 -3 -12 -4t-10 -1h-12.5t-11.5 5q-11 32 0.5 83.5
t35.5 111t57 122.5t65 119t59.5 99t40.5 63q12 0 29 -3.5t17 -12.5q0 -3 -16.5 -29t-41.5 -67.5t-55 -95.5t-58 -111.5t-50 -116t-30 -109.5q7 15 22.5 33.5t36 39.5t43.5 43t47 44q-54 28 -54 73q0 21 26 37.5t62 28.5t73.5 18t60.5 6h6.5t10.5 -1t9.5 -5t4.5 -11
q0 -8 -14 -21.5t-37.5 -31t-53.5 -38.5t-62 -45q17 -10 39 -16.5t44.5 -11t44 -6.5t37.5 -2q24 0 46 2.5t39 6t28 7t13 4.5zM153 182q0 -25 26 -43q23 21 44 39.5t37 34t25.5 26.5t9.5 16q0 11 -22 10.5t-49 -11t-49 -29.5t-22 -43z" />
    <glyph glyph-name="l" unicode="l" horiz-adv-x="307" 
d="M323 115q-28 -20 -69.5 -46.5t-86.5 -50.5t-88 -40.5t-74 -16.5q-21 0 -24 22.5t6.5 59t28.5 84t41.5 97.5t47 98t44.5 87t32.5 65t12.5 30q4 0 12 -0.5t16 -2t14 -5t6 -8.5q0 -7 -12 -33t-31 -63.5t-42.5 -82.5t-46.5 -91.5t-44 -90t-34 -77t-16.5 -54t7.5 -20.5
q19 0 55.5 13t79 34t87 48t80.5 55z" />
    <glyph glyph-name="m" unicode="m" horiz-adv-x="615" 
d="M626 123q8 8 7 2.5t-9 -13.5q-3 -3 -28 -19t-59.5 -35t-73 -34t-68.5 -15q-12 0 -24 8.5t-12 29.5q0 18 9.5 41.5t19 44.5t15 35.5t-1.5 14.5q-8 0 -24 -13t-36.5 -32t-43.5 -42t-45.5 -42t-43.5 -32t-36 -13q-12 0 -24 8.5t-12 29.5q0 18 9.5 41.5t19 44.5t15 35.5
t-1.5 14.5q-8 0 -23.5 -11.5t-33 -29.5t-37 -40t-36 -42.5t-29 -37.5t-16.5 -24q-1 -1 -1 -3v-1q-1 -1 -7 -0.5t-12.5 2.5t-12 4.5t-5.5 5.5q0 2 7.5 19.5t18.5 42.5t23.5 54.5t23.5 55.5t18.5 43.5t7.5 20.5q13 0 30 -3.5t17 -12.5q0 -4 -9.5 -25t-23.5 -49.5t-29.5 -59.5
l-27.5 -55q10 14 26 33t34.5 40t38.5 41.5t38.5 37t34 26.5t25.5 10q17 0 23.5 -6t6.5 -14q0 -7 -9.5 -31t-20.5 -51t-20.5 -50t-9.5 -27q0 -8 7 -8q20 0 53.5 26.5t72.5 65.5q17 18 35 35t34 30.5t29 21.5t22 8q17 0 23.5 -6t6.5 -14q0 -5 -6.5 -20t-15.5 -35t-18 -42
t-15 -40t-6 -30t9 -12q27 0 60 13t64 29.5t54 32.5t29 22z" />
    <glyph glyph-name="n" unicode="n" horiz-adv-x="387" 
d="M392 114q7 7 8 3.5t-3 -7.5q-21 -21 -53 -44t-67 -43t-68 -33t-55 -13q-12 0 -24 9t-12 30q0 18 11.5 47.5t23.5 58t19.5 49t0.5 20.5q-9 0 -24 -11.5t-32.5 -29.5t-37 -40t-36 -42.5t-29 -37t-16.5 -24.5q-1 -2 -1 -4q-1 -1 -7 -1t-12.5 1.5t-12 3.5t-5.5 5
q0 2 7.5 19.5t18.5 43.5t23.5 55.5t23.5 55.5t18.5 44t7.5 21q4 0 12 -0.5t15.5 -2.5t13.5 -5t6 -8q0 -4 -9.5 -24.5t-23.5 -49t-29.5 -59.5l-27.5 -55q15 20 42.5 52t57 62t56 51.5t41.5 21.5q17 0 23.5 -6t6.5 -14q0 -6 -11.5 -33t-25.5 -60.5t-25.5 -65.5t-10.5 -46
q0 -5 3 -8.5t8 -3.5q20 0 49.5 12t59.5 30t57.5 38.5t44.5 37.5z" />
    <glyph glyph-name="o" unicode="o" horiz-adv-x="294" 
d="M304 107q4 2 5.5 -2.5t-3.5 -6.5q-23 -9 -49.5 -7t-48.5 16q-14 -20 -32.5 -38t-40.5 -31.5t-46 -22t-49 -8.5q-32 0 -45 17.5t-11.5 43.5t16 57t37.5 57t53 43.5t63 17.5q12 0 14 -4q10 12 24 12t25 -13t15.5 -33t0.5 -44t-19 -47q14 -8 31 -11q15 -3 30.5 -2.5
t29.5 6.5zM165 235q-20 6 -42.5 -11t-41.5 -45t-31 -61t-11 -60q1 -16 9 -25t28 -8q17 1 36 10t36.5 22t32 27.5t21.5 25.5q-14 8 -24 24t-15 34.5t-5 36.5t7 30zM207 118q10 15 14 36t1.5 41t-10 34t-20.5 14q-14 0 -19.5 -16t-3.5 -37t11.5 -42t26.5 -30z" />
    <glyph glyph-name="p" unicode="p" horiz-adv-x="385" 
d="M410 149q17 -5 19.5 -8.5t-4.5 -0.5q-4 1 -17 4t-33 5.5t-45 4t-53 -0.5q-3 -16 -14.5 -35t-28.5 -35t-39 -27t-47 -11q-11 0 -23 2.5t-22.5 7.5t-17.5 13.5t-8 19.5q-1 16 11.5 28t34 20t49.5 13.5t59 8.5q9 18 9 25q0 10 -7 17.5t-33 7.5q-14 0 -32 -7t-36 -16.5
t-33.5 -20.5t-24.5 -20q-14 -35 -32 -76.5t-37.5 -83.5t-38 -81t-34 -70.5t-26 -51.5t-13.5 -23q-8 -8 -13.5 -8t-10.5 2q-4 2 -11.5 9.5t-7.5 12.5q-1 2 7 19.5t22 46.5q0 29 7.5 55.5t18.5 52.5q12 27 27 51.5t32 47.5q8 11 16 21.5t16 20.5q15 34 29 64.5t24 54.5
t16 38.5t6 17.5q0 4 5 2.5t11.5 -5.5t12.5 -9t6 -9q0 -8 -6.5 -29t-17.5 -50q10 9 25 19t33 18t37 13.5t38 5.5q26 0 44 -13t20 -39v-7q18 1 38.5 0t39.5 -3.5t33.5 -5t19.5 -3.5zM-84 -55q-8 -18 -14.5 -37t-8.5 -39q17 38 38.5 83t42.5 90q-17 -23 -31.5 -47t-26.5 -50z
M132 61q12 0 25.5 8.5t26.5 22t24 28.5t19 29q-28 -3 -53 -8t-43.5 -12t-29.5 -17.5t-11 -23.5q1 -7 9 -16.5t33 -10.5z" />
    <glyph glyph-name="q" unicode="q" horiz-adv-x="394" 
d="M322 279q22 0 36.5 -8.5t22.5 -19.5t11 -23.5t3 -19.5q0 -10 -2.5 -19.5t-2.5 -1.5q0 4 -2 18t-9 29.5t-22 27.5t-40 12h-7q9 -9 9 -24q0 -23 -16 -63t-39.5 -89t-51.5 -103.5t-51.5 -105.5t-39.5 -95t-16 -72q0 -4 2 -10.5t10 -6.5q10 0 31 9t47.5 22t54.5 28t50 27
t34.5 18.5t9.5 3.5q-4 -4 -30 -19t-59.5 -33.5t-68 -36t-56.5 -27.5q-9 -4 -10.5 -6t-12.5 -2q-6 0 -13.5 1.5t-14 7.5t-10.5 18t-4 33q0 34 16 81.5t40 99.5t52 104.5l52 97.5t40 78t16 46q0 2 0.5 7t-5.5 5q-2 0 -15 -19t-33.5 -47.5t-47 -61.5t-55.5 -61.5t-59 -47.5
t-58 -19q-6 0 -13.5 1t-13.5 4.5t-10 10t-4 17.5q0 23 26 57.5t68.5 68.5t96.5 62.5t109 39.5q10 12 17 12q3 0 9 -1t12 -6q5 1 9 1h8zM35 36q19 0 39.5 13t41.5 33.5t41.5 46.5t39.5 51.5t35 48t29 37.5q-47 -12 -91 -39.5t-78 -59t-55 -62.5t-21 -50q0 -8 4.5 -13.5
t14.5 -5.5z" />
    <glyph glyph-name="r" unicode="r" horiz-adv-x="250" 
d="M292 252q4 0 8 -1l6 -1.5t0.5 -1.5t-9.5 -1q-56 0 -91 -7t-58.5 -20t-40 -32t-36.5 -42q-12 -24 -24 -49t-21.5 -45.5t-16 -34.5t-6.5 -15q-1 -1 -7.5 1t-13.5 6t-12.5 8t-5.5 7q0 2 6 17.5t15 38.5t20.5 50t22.5 51.5t21 43t17 24.5q2 2 9 0.5t15 -4.5t14 -5.5t6 -3.5
q0 -4 -7 -20.5t-18 -39.5q18 19 30 33.5t27 24.5t37.5 15t60.5 5q13 0 31 -1t21 -1z" />
    <glyph glyph-name="s" unicode="s" horiz-adv-x="240" 
d="M250 109q5 2 6 -2t-3 -6q-45 -15 -98 -27t-99 -22q1 -18 1.5 -32.5t-0.5 -23.5q-4 -45 -34.5 -70t-68.5 -25q-22 0 -37 9.5t-21.5 24t-3 32.5t18.5 36q10 12 24.5 20t29.5 13q8 3 17 6t18 5v65.5t2 46.5q3 31 13 61.5t28.5 54.5t45 39.5t61.5 16.5q15 0 24 -4.5
t13.5 -10.5t5.5 -11.5t1 -8.5q-1 -14 -16 -30t-36 -31t-42.5 -27t-36.5 -19q-2 -8 -3 -17.5t-2 -20.5q-2 -25 -2.5 -47.5t0.5 -42.5q45 10 97.5 22t96.5 26zM162 315q-2 0 -13.5 -4t-27 -16t-31 -34.5t-24.5 -59.5q11 4 30 14.5t37.5 25t33 30t15.5 28.5q1 7 -1.5 10.5
t-5.5 5t-7 1t-6 -0.5zM-86 -8q-10 -16 -11 -29t4.5 -22t15.5 -13.5t21 -4.5q18 1 34.5 15.5t19.5 49.5q1 9 1 22t1 28q-8 -2 -16.5 -5t-16.5 -6q-15 -5 -29.5 -13t-23.5 -22z" />
    <glyph glyph-name="t" unicode="t" horiz-adv-x="321" 
d="M336 130q3 3 5 -0.5t-8 -13.5q-6 -6 -27 -23t-51.5 -39.5t-67.5 -47t-75 -44.5t-74.5 -33.5t-64.5 -13.5q-25 0 -25 31t16 80t42.5 109t55.5 118q-8 0 -18.5 -1t-21 0t-19.5 5t-14 14q-6 11 -1 24q5 -12 10.5 -17t17.5 -8q16 -3 30.5 -2t23.5 3q18 36 34.5 68.5t29.5 58
t20.5 41.5t7.5 19q4 0 12 -0.5t16 -2t14 -5t6 -8.5q0 -11 -22 -55t-53 -104h2q22 4 42.5 6.5t28.5 3.5q15 1 25 -0.5t22 -5.5q-12 -4 -21.5 -6t-23.5 -4q-8 -1 -28.5 -3t-41.5 -6q-4 -1 -7 -1.5t-7 -1.5q-29 -56 -59 -115t-51.5 -108.5t-30 -81t5.5 -31.5q26 0 72.5 20.5
t97.5 51.5t98.5 65.5t76.5 63.5z" />
    <glyph glyph-name="u" unicode="u" horiz-adv-x="429" 
d="M447 122q-28 -23 -59 -50.5t-62 -51.5t-59 -40t-50 -16q-24 0 -32 15t-5.5 39.5t13 55t23.5 60.5t26.5 57l22.5 45q-35 -37 -65.5 -81t-60.5 -81.5t-59.5 -63t-61.5 -25.5q-27 0 -33.5 21t-0.5 52.5t21 68t32.5 68t33.5 52.5t24 21q4 0 11.5 -1t15 -2.5t13.5 -4.5t6 -6
q-2 -2 -14 -21.5t-28 -47.5t-32.5 -60.5t-28 -60t-13.5 -46t11 -18.5q22 0 47.5 25.5t55 63.5t63.5 83.5t73 85.5l2 6h5h2q11 -1 25.5 -4t14.5 -12q0 -10 -11 -33.5t-25.5 -53.5t-30.5 -62t-25.5 -59t-10.5 -44t14 -17q16 0 40 15t52 37.5t59 49.5t61 51v-10z" />
    <glyph glyph-name="v" unicode="v" horiz-adv-x="316" 
d="M331 100q5 2 6 -2t-3 -6q-21 -8 -43.5 -13t-45.5 -5q-15 0 -30 3.5t-26 14.5q-14 14 -17 32q-5 -6 -10.5 -12.5t-10.5 -12.5q-9 -10 -23 -27t-30.5 -33.5t-34.5 -28.5t-33 -12q-2 0 -10 1.5t-17 8.5t-16 21.5t-7 41.5q0 28 10 61t22.5 62.5t22.5 50t10 22.5q6 0 14 -0.5
t15.5 -2.5t12.5 -5t5 -8q0 -6 -12 -31.5t-26 -58.5t-26 -67t-12 -58q0 -25 19 -25q10 0 21 7q27 17 50.5 43t47.5 55q4 5 7.5 10t8.5 10q-2 15 1 29.5t8 28.5q10 26 24.5 49.5t31.5 43.5q2 3 8.5 10t14 13t14.5 7.5t10 -6.5q2 -5 1 -10t-3 -10q-7 -16 -13 -28
q-11 -20 -23.5 -39t-26.5 -38q-9 -14 -18.5 -26.5t-19.5 -25.5q2 -10 5 -19t11 -16q13 -13 35 -16q14 -2 28.5 0t28.5 5q24 5 44 12zM178 153v-5q11 14 21 27.5t20 27.5q12 18 23.5 36t21.5 38q6 13 9 23q1 3 1 7q-1 1 0 1h-1v1v-1q-2 0 -5 -1.5t-5 -3.5q-4 -3 -7 -6.5
t-7 -6.5q-16 -18 -31 -40q-8 -12 -14.5 -24t-12.5 -26q-5 -11 -8.5 -22.5t-4.5 -24.5z" />
    <glyph glyph-name="w" unicode="w" horiz-adv-x="544" 
d="M566 100q5 2 6 -2t-3 -6q-21 -8 -43.5 -13t-45.5 -5q-15 0 -30 3.5t-26 14.5q-14 14 -17 32q-5 -6 -10.5 -12.5t-10.5 -12.5q-9 -10 -23 -27t-30.5 -33.5t-34.5 -28.5t-33 -12q-2 0 -10 1.5t-17 8.5t-16 21.5t-7 41.5q0 21 6 45.5t14.5 48.5t18 45t16.5 35
q-36 -37 -67.5 -82t-62 -84t-60.5 -65t-62 -26q-27 0 -33.5 21t-0.5 52.5t21 68t32.5 68t33.5 52.5t24 21q4 0 11.5 -1t15 -2.5t13.5 -4.5t6 -6q-2 -2 -14 -21.5t-28 -47.5t-32.5 -60.5t-28 -60t-13.5 -46t11 -18.5q22 0 48 26t56 65t64.5 85t74.5 86q1 1 1 2q1 2 9 2
t16.5 -1t15.5 -2.5t7 -2.5q0 -4 -5.5 -20.5t-14.5 -39t-18.5 -48.5t-18.5 -50t-14.5 -42.5t-5.5 -26.5q0 -25 19 -25q8 1 12.5 3t8.5 4q8 5 15.5 11.5t14.5 13.5q23 20 42 44.5t42 48.5q-2 15 1 29.5t8 28.5q10 26 24.5 49.5t31.5 43.5q2 3 8.5 10t14 13t14.5 7.5t10 -6.5
q2 -5 1 -10t-3 -10q-7 -16 -13 -28q-11 -20 -23.5 -39t-26.5 -38q-9 -14 -18.5 -26.5t-19.5 -25.5q2 -10 5 -19t11 -16q13 -13 35 -16q14 -2 28.5 0t28.5 5q24 5 44 12zM413 148q11 14 21 27.5t20 27.5q12 18 23.5 36t21.5 38q6 13 9 23q1 3 1 7q-1 0 -1 1q-2 0 -5 -1.5
t-5 -3.5q-4 -3 -7 -6.5t-7 -6.5q-16 -18 -31 -40q-8 -12 -14.5 -24t-12.5 -26q-5 -11 -8.5 -22.5t-4.5 -24.5v-5z" />
    <glyph glyph-name="x" unicode="x" horiz-adv-x="420" 
d="M432 105q6 0 2 -4l-23 -23t-48 -43t-57.5 -41.5t-50.5 -18.5q-20 0 -40 12.5t-39.5 33t-38 47t-35.5 54.5q-42 -39 -82 -79q-17 -17 -34 -34.5t-34 -35.5q-2 -3 -4.5 -0.5t-0.5 5.5q4 4 5 6q23 25 47.5 49.5t49.5 48.5q12 11 24 23t25 23q-17 27 -31.5 52.5t-27.5 45.5
t-24 32t-19 12q-3 0 3.5 1t15.5 2.5t18.5 2.5t13.5 1q6 0 16 -9t22 -25t26 -36.5t29 -42.5q14 11 27.5 21.5t28.5 20.5q15 11 31 20t33 14q11 3 23.5 3t21.5 -9q2 -3 -0.5 -5.5t-5.5 0.5q-5 5 -13 6q-13 2 -27 -3.5t-26 -11.5q-19 -10 -36 -22t-34 -25q-5 -4 -9.5 -7.5
t-9.5 -8.5q19 -29 38 -58.5t36.5 -53t32.5 -38.5t25 -15q16 0 42.5 17.5t51 39t43 39t19.5 17.5z" />
    <glyph glyph-name="y" unicode="y" horiz-adv-x="426" 
d="M449 136q4 2 4.5 -2t-11.5 -10q-3 -2 -22 -10.5t-48.5 -20.5t-66.5 -26.5t-76 -27.5q-2 -1 -3 -1t-3 -1q-20 -47 -42.5 -96.5t-47.5 -96t-51.5 -88.5t-54 -73t-55 -49t-53.5 -18q-9 0 -22 4t-25 14.5t-20.5 28t-8.5 44.5q0 61 29.5 110.5t75 88t101.5 67.5t110 50
q18 41 34.5 79.5t30 71.5t23 58t14.5 39q-36 -37 -68.5 -82.5t-63.5 -85.5t-61 -67t-63 -27q-27 0 -33.5 21t-0.5 52.5t21 68t32.5 68t33.5 52.5t24 21q3 0 10.5 -1t15 -2.5t13.5 -4.5t6 -6q-1 -2 -13 -21.5t-28 -47.5t-33 -60.5t-28 -60t-13.5 -46t10.5 -18.5q23 0 49 26
t56 65.5t65 85.5t75 86v1q6 0 14 -1t15.5 -2.5t12.5 -5t5 -7.5q0 -2 -6.5 -20t-18 -48.5t-27.5 -70.5l-34 -85q56 18 113.5 40.5t107.5 47.5zM-98 -368q25 0 56 33.5t64 87.5t67 121t64 134q-50 -23 -100.5 -53.5t-91.5 -70.5t-67 -90t-26 -111q0 -15 4 -25t9.5 -15.5t11 -8
t9.5 -2.5z" />
    <glyph glyph-name="z" unicode="z" horiz-adv-x="330" 
d="M347 112q-28 -14 -75.5 -34.5t-101.5 -38.5q-2 -1 -3 -1t-3 -1q-19 -47 -42 -96.5t-48 -96t-51.5 -88.5t-54 -73t-55 -49t-53.5 -18q-9 0 -22 4t-25 14.5t-20.5 28.5t-8.5 45q0 61 29.5 110t75 87.5t101.5 67.5t110 50q10 23 19.5 44.5t18.5 41.5q-44 -17 -79 -27.5
t-52 -10.5q-6 0 -16.5 3t-10.5 13q0 8 11 24t28 35.5t36.5 40.5t36.5 39.5t28 31.5t11 18t-22.5 6t-49.5 -1q-32 -2 -71 -5q0 -13 -5.5 -19.5t-10.5 -6.5q-2 0 -6 6t-8 14t-7 16t-3 11q0 2 3.5 5t8.5 3q4 0 10 -1.5t23 -3t49.5 -3t89.5 -1.5q2 0 7 -0.5t10.5 -3t10 -7.5
t4.5 -15q0 -11 -10 -27.5t-25 -36t-33 -38.5t-33 -34.5t-25 -26l-10 -10.5q0 -7 5 -7q27 0 49.5 7.5t41 17t35 17t32.5 7.5q11 0 10 -6t-3 -10q-8 -20 -13.5 -36t-15.5 -39q45 15 89.5 33.5t86.5 38.5zM-157 -368q25 0 56 33.5t64 87.5t67 121t64 134q-50 -23 -100.5 -53.5
t-91.5 -70.5t-67 -89.5t-26 -110.5q0 -15 4 -25t9.5 -16t11 -8.5t9.5 -2.5z" />
    <glyph glyph-name="braceleft" unicode="{" horiz-adv-x="326" 
d="M127 290q58 -26 40 -93q-9 -34 -44 -105q-17 -35 -28 -61t-16 -44q-12 -47 13 -59l59 -13l7 -9q-17 -5 -19 -5q-54 1 -80 16q-33 21 -18 75q9 35 46 105q19 35 29.5 61.5t15.5 44.5q21 79 -83 83l15 16q70 6 104 26q41 26 70 88l55 122q17 31 34.5 53t39.5 36
q53 34 138 30h2q5 0 8 -9l-15 -5q-77 3 -119 -40q-15 -14 -31 -41t-33 -67q-13 -28 -41 -82q-61 -106 -149 -123z" />
    <glyph glyph-name="braceright" unicode="}" horiz-adv-x="358" 
d="M260 271q-58 26 -40 93q8 34 44 105q17 35 28 61t16 44q12 46 -13 59l-59 13l-7 9q17 5 19 5q54 -1 80 -16q33 -21 18 -75q-9 -35 -46 -105q-19 -35 -29.5 -61.5t-15.5 -44.5q-21 -79 83 -83l-15 -16q-70 -6 -104 -26q-41 -26 -70 -88l-55 -122q-17 -31 -34.5 -53
t-39.5 -36q-53 -34 -138 -30h-2q-5 0 -8 9l15 5q77 -3 119 40q15 14 31 41t33 67q13 28 41 82q61 106 149 123z" />
    <glyph glyph-name="asciitilde" unicode="~" horiz-adv-x="307" 
d="M234 429q14 0 21 9t14 9t0.5 -8t-19 -17.5t-26.5 -17.5t-22 -8q-13 0 -27 4t-28.5 9.5t-29.5 9.5t-28 4q-3 0 -9 -3.5t-12 -8t-11.5 -8t-8.5 -3.5q-9 0 -1 8t23 17t31.5 17t25.5 8q12 0 25.5 -3.5t27.5 -7t27.5 -7t26.5 -3.5z" />
    <glyph glyph-name="exclamdown" unicode="&#xa1;" horiz-adv-x="280" 
d="M0.0185547 21.0332q0 8 11.999 35.998t30.998 66.9961q18.999 38.9971 41.498 83.9941q22.498 44.998 44.4971 86.4951t39.4971 74.4951q17.499 32.998 25.499 46.998q10.999 18.998 19.499 28.998q8.49902 9.99902 14.999 14.999q6.49902 4.99902 10.999 5.99902t5.5 1
t-12 -33.498q-12.999 -33.498 -33.998 -83.9941q-20.998 -50.4971 -45.4971 -109.494q-24.498 -58.9961 -45.9971 -110.493q-21.498 -51.4961 -37.4971 -86.4941t-17.999 -37.998q-2 -2 -10.5 -0.5q-8.49902 1.5 -17.499 4.5q-8.99902 3 -16.499 6.99902
q-7.49902 4 -7.49902 5zM223.005 539.002q0 -14.999 13.999 -24.499q13.999 -9.49902 27.998 -9.49902q37.998 0 37.998 28.998q0 13.999 -12.499 24.499q-12.499 10.499 -29.498 10.499q-12 0 -24.999 -9q-12.999 -8.99902 -12.999 -20.998z" />
    <glyph glyph-name="cent" unicode="&#xa2;" horiz-adv-x="283" 
d="M261 400q0 -7 -18.5 -47.5t-45.5 -96.5q12 -3 19 -7.5t10.5 -9.5t4 -9.5t0.5 -5.5q0 -13 -8.5 -23t-20.5 -10q-13 0 -17 4.5t-4 13.5q0 19 10 19q5 0 8.5 1t3.5 6t-4 5.5t-7 0.5h-2q-26 -54 -54 -110.5t-52 -103.5q24 3 52.5 11.5t56.5 21.5t54.5 28.5t46.5 32.5v-9
q-22 -18 -49.5 -35t-56.5 -31t-58.5 -23.5t-54.5 -12.5q-15 -29 -26 -50.5t-16 -29.5q-9 -16 -16 -24.5t-12.5 -12.5t-9.5 -5t-5 -1t13 35t37 88q-18 2 -29.5 8.5t-18 15t-9.5 17.5t-3 17q0 24 16 52t40.5 54t53.5 46.5t54 30.5q15 33 27.5 62t22.5 51t16 35t7 14q2 2 9 0.5
t15 -4t14 -5.5t6 -4zM35 61q0 -12 4 -19t10 -11q17 38 34.5 79.5t35.5 83.5q-15 -14 -30 -30.5t-27 -33.5t-19.5 -35t-7.5 -34z" />
    <glyph glyph-name="sterling" unicode="&#xa3;" horiz-adv-x="336" 
d="M396 337q-19 0 -44 2t-48.5 5t-43 6t-26.5 5q-13 -23 -27 -54t-30 -66q26 0 50 -1.5t43 -3t30 -3.5t11 -5q-20 0 -60 -3t-83 -7q-28 -65 -57.5 -131.5t-59.5 -111.5q44 -13 86.5 -24.5t87.5 -19.5t89 -12.5t89 0.5q20 2 39.5 6.5t36.5 15.5q10 7 16.5 16t4.5 21
q0 3 4.5 4t10.5 1t10.5 -2t4.5 -5q1 -12 -5 -21.5t-15 -17.5q-14 -11 -32.5 -16.5t-35.5 -9.5q-46 -8 -92.5 -6.5t-92.5 8.5q-55 8 -108 21.5t-107 29.5q-1 -1 -2 -1.5t-2 -1.5q-9 -8 -22 -12t-27.5 -6t-29 -1.5t-25.5 3.5t-21.5 9t-15.5 17q-8 17 9 29q10 7 21.5 8
t23.5 -0.5t23.5 -5.5t21.5 -8q3 -2 6 -2.5t6 -2.5q10 19 22 45t25 55.5t26.5 61t26.5 62.5q-32 -3 -54 -5t-24 -2q-12 0 -12 14q0 9 30 13.5t72 6.5q19 45 35 81t27 53q-60 15 -103 51t-63.5 82t-14.5 97t45 98q28 35 69 53.5t85 16.5q47 -2 86 -24q3 -2 1 -4t-5 0
q-31 18 -68 21q-45 2 -88 -17t-71 -55q-36 -47 -40 -96.5t16.5 -92t62.5 -74.5t98 -42q16 29 41.5 67.5t62.5 73t87 58t117 23.5q28 0 52.5 -6.5t42.5 -19.5t28.5 -33.5t10.5 -47.5q0 -33 -19.5 -62t-52.5 -50.5t-76 -34.5t-90 -13zM241 368q37 -8 72 -14t70 -6
q70 0 118.5 18t77 45t37 59t-1.5 59t-38 45t-72 18q-45 0 -86 -24.5t-75.5 -59.5t-60.5 -73.5t-41 -66.5zM-42 -57q13 0 24 9.5t20 23.5q-7 2 -14.5 5t-15.5 6q-5 2 -10 3t-10 3q-2 0 -3 0.5t-3 0.5h-3q-1 1 -3 1h-2q-10 0 -17 -5t-8 -12q-2 -9 4 -16.5t14 -11.5
q14 -7 27 -7z" />
    <glyph glyph-name="yen" unicode="&#xa5;" horiz-adv-x="559" 
d="M258 -3q38 2 73 2.5t62 -0.5t43 -4t16 -7q-9 0 -31 -1.5t-51.5 -4t-64.5 -6.5t-71 -8q-37 -42 -79 -66.5t-90 -24.5q-41 0 -70.5 9.5t-48.5 22t-27.5 24t-8.5 14.5t2 1l8.5 -9t25 -19.5t41.5 -19.5t58 -9q32 0 63.5 18t60.5 50q-50 -8 -87.5 -16.5t-45.5 -16.5
q-4 -4 -6 -10t-10 -6t-12 6.5t-4 12.5q0 12 16 22t42.5 18t61 13.5t72.5 9.5q12 16 23.5 33t22.5 36q-33 -3 -63.5 -6.5t-54 -5.5t-38 -3.5t-15.5 -1.5q-7 0 -11.5 5t-4.5 13q0 7 17.5 12.5t46 9.5t66 6.5t77.5 4.5q31 57 58 119t48.5 119t37.5 104t26 74
q-31 -32 -61.5 -75.5t-60.5 -90t-59.5 -91.5t-58.5 -80t-57.5 -57t-55.5 -22q-22 0 -28.5 19.5t-2 51.5t18.5 72.5t32 83.5t39.5 83.5t40.5 72.5t34.5 51.5t22.5 19.5q10 0 20.5 -6.5t10.5 -16.5q-2 -2 -19.5 -33.5t-41.5 -77t-49.5 -98.5t-43 -98t-22.5 -75t11 -30
q19 0 42 22t50 57.5t56 81t61 92.5t65 91.5t67 78.5l1 1q2 1 11.5 0.5t19.5 -3t17.5 -5t6.5 -4.5q-8 -8 -22.5 -50.5t-36.5 -104t-51.5 -134.5t-66.5 -141q39 0 74.5 -0.5t62.5 -2t43 -4.5t16 -6q-13 0 -35 -1.5t-50.5 -3.5t-61 -5t-66.5 -6q-11 -19 -22.5 -36.5
t-24.5 -33.5z" />
    <glyph glyph-name="section" unicode="&#xa7;" horiz-adv-x="553" 
d="M360 410q0 7 21 25.5t46.5 42t46.5 50t21 49.5q0 11 -21 13.5t-52.5 -2.5t-68 -16.5t-68 -28t-52.5 -38t-21 -45.5q0 -15 17.5 -38t43 -48.5t56 -52.5t56 -51t43 -43.5t17.5 -30.5q0 -13 -11 -23t-30 -16.5t-43.5 -9.5t-52.5 -3q23 -22 38.5 -39.5t15.5 -27.5
q0 -21 -27.5 -33.5t-69.5 -16.5t-90 0.5t-90 16t-69.5 31t-27.5 45.5h2q0 -23 24 -39.5t60 -26.5t78.5 -14t78.5 -2t60 10.5t24 23.5q0 8 -16.5 25t-41 39.5t-53 48.5t-53 52.5t-41 51t-16.5 43.5q0 23 26 47t64 45q-7 17 -7 28q0 23 26 47t65 44.5t84.5 36t84.5 20.5t65 -2
t26 -31t-22 -52t-49 -52.5t-50 -41t-24 -16.5q-2 -2 -12.5 -0.5t-10.5 5.5zM398 191q0 7 -12.5 20.5t-32 32t-43.5 40t-47 44t-43.5 45.5t-31.5 43q-26 -16 -42.5 -34.5t-16.5 -40.5q0 -15 16.5 -37t41 -46.5t54 -51t55.5 -50.5q43 1 72.5 9.5t29.5 25.5z" />
    <glyph glyph-name="dieresis" unicode="&#xa8;" horiz-adv-x="250" 
d="M118 435q2 0 3 -0.5t0 -0.5q-8 0 -14 -13.5t-12 -29t-13.5 -29t-18.5 -13.5q-7 0 -11.5 7t-4.5 15q0 12 7.5 23.5t18.5 20.5t23.5 14.5t21.5 5.5zM204 435q2 0 3 -0.5t0 -0.5q-8 0 -14 -13.5t-12 -29t-13.5 -29t-18.5 -13.5q-7 0 -11.5 7t-4.5 15q0 12 7.5 23.5
t18.5 20.5t23.5 14.5t21.5 5.5z" />
    <glyph glyph-name="ordfeminine" unicode="&#xaa;" horiz-adv-x="283" 
d="M271.539 307.712q-15.2969 -11.8896 -32.8594 -22.9297t-34.8408 -19.8154q-17.2793 -8.77539 -33.1426 -13.8711q-15.8623 -5.0957 -27.7598 -5.0957q-11.3301 0 -16.4287 5.66211q-5.09961 5.66113 -5.38281 15.2861q-0.283203 9.62402 3.11621 22.0801
t8.78125 25.7607t11.8975 26.8926q6.51465 13.5879 12.7461 24.9111q-13.0293 -11.8896 -28.8926 -26.0439t-32.8584 -26.043q-16.9961 -11.8896 -33.1426 -19.8164q-16.1455 -7.92578 -29.7422 -7.92578q-11.8975 0 -18.1289 4.24609t-6.23145 9.9082
q0 5.66113 9.06445 18.9658q9.06445 13.3057 26.626 27.1758q17.5625 13.8711 42.4902 24.3457q24.9268 10.4736 57.2188 10.4736q9.63184 0 18.1289 -2.83105q1.13379 1.13281 1.9834 1.98145l1.98242 1.98242q7.36523 13.5879 7.36523 16.9844
q2.26562 0 6.51465 -0.283203t8.78125 -1.13184q4.53223 -0.849609 7.93164 -2.83105t3.39941 -4.8125q0 -5.66211 -5.94922 -17.834q-5.94824 -12.1729 -13.8799 -27.459q-7.93066 -15.2861 -16.4287 -31.4219t-13.5967 -29.4404t-5.38184 -21.7979
q-0.283203 -8.49219 8.21387 -8.49219q8.49805 0 22.0947 4.8125t29.7432 12.7383q16.1455 7.92676 33.708 18.9668t33.9922 24.0625zM36.4297 304.881q0 -2.83105 2.54883 -3.67969q2.5498 -0.849609 3.68262 -0.849609q13.5967 0 28.3262 6.51074t29.46 16.9854
q14.7295 10.4736 29.1758 23.7783t28.043 26.8926q-2.26562 1.13281 -4.53223 1.13281h-4.53223q-19.8281 0 -39.6562 -7.64355q-19.8291 -7.64258 -35.9746 -18.4004q-16.1465 -10.7568 -26.3438 -23.2129q-10.1973 -12.4551 -10.1973 -21.5137z" />
    <glyph glyph-name="guillemotleft" unicode="&#xab;" horiz-adv-x="391" 
d="M85 256q0 3 7 11.5t21.5 27.5t37 51.5t52.5 84.5q6 11 19 11q7 0 7 -6q0 -15 -99 -153q97 -124 97 -134q0 -13 -10 -13l-8 4q-34 48 -121 110q-3 1 -3 6zM186 256q0 3 7 11.5t21.5 27.5t37 51.5t52.5 84.5q6 11 19 11q7 0 7 -6q0 -15 -99 -153q97 -124 97 -134
q0 -13 -10 -13l-8 4q-34 48 -121 110q-3 1 -3 6z" />
    <glyph glyph-name="degree" unicode="&#xb0;" horiz-adv-x="299" 
d="M237 406q0 -18 -7 -33.5t-18.5 -27.5t-27 -18.5t-33.5 -6.5q-36 0 -61 25t-25 61t25 61t61 25t61 -25t25 -61zM215 406q0 26 -19 45t-45 19t-45 -19t-19 -45t19 -45t45 -19t45 19t19 45z" />
    <glyph glyph-name="plusminus" unicode="&#xb1;" horiz-adv-x="405" 
d="M245 341q13 -9 5.5 -36t-24.5 -62q24 1 46 0.5t39 -1.5t27 -3t10 -5q-6 0 -19.5 -1t-31.5 -2.5t-39 -3.5t-43 -5q-15 -26 -31.5 -51.5t-30.5 -45t-24.5 -31t-13.5 -9.5q3 5 10 18.5t16.5 31.5t20.5 39.5t21 42.5q-35 -5 -62 -10.5t-33 -11.5q-2 -2 -3.5 -6t-6.5 -4
t-7.5 9.5t-2.5 13.5q0 7 10.5 12.5t27.5 9.5t40 6.5t47 4.5q14 30 22.5 53t6.5 31q-1 3 -3 6.5t0 7.5t12.5 4t13.5 -2zM30 37q0 10 20.5 17t52 11t67.5 6t67.5 1.5t52 -3t20.5 -6.5q-8 0 -29 -1.5t-48 -4.5t-57.5 -6.5t-56.5 -8t-45 -9t-24 -9.5q-2 -2 -3.5 -6t-6.5 -4
t-7.5 9.5t-2.5 13.5z" />
    <glyph glyph-name="twosuperior" unicode="&#xb2;" horiz-adv-x="311" 
d="M203.667 600.612q38.2129 0 58.8604 -12.6328q20.6465 -12.6338 27.1182 -33.5869t0.924805 -48.0693t-20.0312 -55.7725q-14.4834 -28.6572 -35.7471 -56.6973q-21.2637 -28.041 -45.917 -51.459q33.8984 -5.5459 63.791 -9.55176q29.8916 -4.00586 45.916 -4.00586
q2.46582 -3.08203 -6.4707 -3.38965q-8.9375 -0.308594 -25.5781 0.923828q-16.6406 1.2334 -39.1367 4.00586q-22.4961 2.77344 -45.917 5.85547q-27.7354 -24.0352 -55.7783 -38.8252q-28.043 -14.791 -53.9297 -14.791q-25.2695 0 -40.0615 5.85449t-20.9551 14.4824
t-5.23828 18.7969q0.923828 10.168 7.39551 18.7959t16.9492 14.4824t23.4209 5.85449q14.1758 0 40.0615 -3.38965t56.0859 -8.31934q23.4209 21.5693 44.376 48.377q20.9561 26.8076 36.9805 53.9238t25.2695 53q9.24512 25.8828 8.93652 45.9121
q-0.307617 20.0283 -12.3262 32.3535q-12.0186 12.3262 -37.9043 12.3262q-27.7354 0 -49.6152 -10.1689q-21.8799 -10.168 -36.9805 -24.3428q-15.0996 -14.1738 -23.1123 -28.6562q-8.01172 -14.4824 -8.01172 -23.7266q0 -3.69727 -5.23926 -4.62207
q-5.23828 -0.924805 -11.71 0.616211t-11.7109 4.93066q-5.23828 3.38867 -5.23828 8.93555q0 6.7793 10.4775 20.3369t29.2754 27.4238q18.7988 13.8662 44.376 24.3428q25.5781 10.4766 56.3945 10.4766zM56.9805 353.487q-19.1064 0 -30.5088 -9.24414t-13.5596 -20.3369
t5.85547 -20.3369q8.01172 -9.24414 27.7344 -9.24414q21.5723 0 45.917 12.9424q24.3457 12.9414 48.999 34.5107q-32.0498 4.93066 -56.0869 8.31934q-24.0371 3.38965 -28.3506 3.38965z" />
    <glyph glyph-name="threesuperior" unicode="&#xb3;" horiz-adv-x="325" 
d="M155.284 592.884q62.2832 0 95.9971 -4.85352q33.7129 -4.85254 45.998 -12.5596q12.2852 -7.70801 6.57129 -17.4141q-5.71387 -9.70508 -21.4277 -19.9814q-15.7139 -10.2773 -37.999 -20.2686q-22.2852 -9.99023 -43.4268 -17.6982
q-21.1426 -7.70703 -37.4277 -12.2744t-20.2852 -4.56738q60.5693 0 97.7109 -8.56445q37.1416 -8.56348 54.5703 -22.8369q17.4277 -14.2725 16.5703 -32.2568q-0.856445 -17.9844 -16.5703 -36.5391t-44.5703 -36.5391t-67.1406 -32.2568
q-38.2842 -14.2734 -84.5693 -22.8369q-46.2842 -8.56445 -96.5684 -8.56445q-10.2852 0 -7.71387 3.42578t15.1426 3.42578q25.7139 0 58.8555 7.99316q33.1416 7.99219 66.8545 21.124q33.7139 13.1309 64.2842 29.9727q30.5703 16.8428 51.4268 34.2559t27.999 34.2549
q7.14258 16.8428 -5.99902 29.9736q-13.1426 13.1318 -50.2852 21.124q-37.1416 7.99316 -105.139 7.99316q-2.85742 0 -2.28613 4.85254q0.571289 4.85352 6.85645 4.85352q1.71484 0 14.5713 4.28125q12.8564 4.28223 30.5703 11.1338q17.7139 6.85059 37.4277 15.7002
t35.1416 17.9844q15.4287 9.13477 23.1426 17.9834q7.71387 8.84961 1.42871 15.7002q-6.28613 6.85156 -29.4277 11.1338q-23.1426 4.28125 -69.4268 4.28125q-8 0 -10.8564 -2.56934q-2.85742 -2.56836 -3.14355 -5.70898q-0.285156 -3.13965 0.857422 -5.99414
q1.14258 -2.85547 1.14258 -3.99707t-4.85645 -1.99805q-4.85742 -0.856445 -10.8574 -0.285156q-5.99902 0.570312 -10.8564 3.4248q-4.85742 2.85547 -4.85742 8.56445t4.28613 9.13477q4.28516 3.42578 9.71387 5.13867q5.42871 1.71191 10.8564 2.2832
q5.42871 0.571289 7.71484 0.571289z" />
    <glyph glyph-name="acute" unicode="&#xb4;" horiz-adv-x="224" 
d="M36 266q32 12 64 37t55 51q9 6 14.5 5.5t7.5 -6t0 -13.5t-8 -17l-64 -36t-69 -21z" />
    <glyph glyph-name="periodcentered" unicode="&#xb7;" horiz-adv-x="160" 
d="M118 233q0 -12 -13 -21t-25 -9q-17 0 -29.5 10.5t-12.5 24.5q0 29 38 29q14 0 28 -9.5t14 -24.5z" />
    <glyph glyph-name="cedilla" unicode="&#xb8;" horiz-adv-x="262" 
d="M197 -1q9 6 14.5 0.5t-0.5 -14.5q-5 -6 -11.5 -11t-10.5 -13q-7 -15 -1.5 -39t15 -51t18.5 -53.5t9 -46.5q0 -15 -14 -25t-35 -15t-46 -5t-47.5 5t-38.5 15t-20 25q-2 8 3 13.5t13 -0.5q10 -10 29.5 -17.5t40.5 -9t38.5 4t24.5 22.5t0.5 43.5t-14 54.5t-9.5 53t13 39
q8 7 14.5 13t14.5 12z" />
    <glyph glyph-name="onesuperior" unicode="&#xb9;" horiz-adv-x="138" 
d="M158.944 566.398q0 -1.45898 -5.57227 -13.6172t-14.5361 -31.3682q-8.96484 -19.21 -20.8369 -43.2832q-11.8711 -24.0732 -24.2275 -49.1191t-24.4697 -48.876q-12.1143 -23.8301 -22.0479 -43.04t-16.7168 -31.6113q-6.78418 -12.4014 -8.23828 -13.8604
q-10.1758 0 -15.2627 3.4043q-5.08789 3.4043 -4.11914 7.29492q0 -0.972656 5.08789 9.24023t13.5674 27.2344t19.3828 39.1494q10.9023 22.1279 22.2891 45.4717q11.3877 23.3438 22.0479 45.7148t18.8975 40.1221t12.5986 28.4502t3.3916 10.6992
q-0.96875 0 -5.08789 -4.86328q-4.11816 -4.86328 -8.96387 -10.9424t-9.20703 -11.6719q-4.36035 -5.59277 -5.81445 -7.05176q-1.93848 0 0 4.62012t6.2998 11.6719q4.36035 7.05176 9.93262 15.0762q5.57324 8.02441 11.1455 15.0762t10.1758 11.6719
q4.60254 4.62012 7.02539 4.62012q3.39258 0 7.51074 -1.21582q4.11914 -1.21582 7.51074 -3.16113t5.81445 -3.64746t2.42285 -2.18848z" />
    <glyph glyph-name="ordmasculine" unicode="&#xba;" horiz-adv-x="294" 
d="M304 107q4 2 5.5 -2.5t-3.5 -6.5q-23 -9 -49.5 -7t-48.5 16q-14 -20 -32.5 -38t-40.5 -31.5t-46 -22t-49 -8.5q-32 0 -45 17.5t-11.5 43.5t16 57t37.5 57t53 43.5t63 17.5q12 0 14 -4q10 12 24 12t25 -13t15.5 -33t0.5 -44t-19 -47q14 -8 31 -11q15 -3 30.5 -2.5
t29.5 6.5zM165 235q-20 6 -42.5 -11t-41.5 -45t-31 -61t-11 -60q1 -16 9 -25t28 -8q17 1 36 10t36.5 22t32 27.5t21.5 25.5q-14 8 -24 24t-15 34.5t-5 36.5t7 30zM207 118q10 15 14 36t1.5 41t-10 34t-20.5 14q-14 0 -19.5 -16t-3.5 -37t11.5 -42t26.5 -30z" />
    <glyph glyph-name="guillemotright" unicode="&#xbb;" horiz-adv-x="405" 
d="M229 250q0 -5 -3 -6q-16 -12 -33 -28.5t-34 -32.5t-33 -30t-29 -23q-11 -2 -11 13q0 5 27.5 38t76.5 96q-50 69 -77.5 107t-27.5 46q0 6 6 6q5 0 17 -12.5t27.5 -31.5t32 -42t30 -43.5t22.5 -36t9 -20.5zM339 250q0 -5 -3 -6q-16 -12 -33 -28.5t-34 -32.5t-33 -30
t-29 -23q-11 -2 -11 13q0 5 27.5 38t76.5 96q-50 69 -77.5 107t-27.5 46q0 6 6 6q5 0 17 -12.5t27.5 -31.5t32 -42t30 -43.5t22.5 -36t9 -20.5z" />
    <glyph glyph-name="onequarter" unicode="&#xbc;" horiz-adv-x="368" 
d="M194.358 547.791q0 -1.7207 -6.60156 -16.0547q-6.60254 -14.334 -17.2236 -36.9824q-10.6201 -22.6475 -24.6855 -51.0293q-14.0654 -28.3809 -28.7051 -57.9092t-28.9922 -57.623t-26.1211 -50.7432q-11.7695 -22.6475 -19.8066 -37.2686t-9.75977 -16.3408
q-12.0557 0 -18.084 4.01367q-6.02734 4.01367 -4.87988 8.60059q0 -1.14746 6.02832 10.8936t16.0752 32.1084q10.0459 20.0674 22.9639 46.1562q12.917 26.0879 26.4082 53.6094t26.1211 53.8955q12.6299 26.375 22.3896 47.3027t14.9268 33.542t4.01855 12.6143
t-6.02832 -5.7334q-4.87891 -5.73438 -10.6201 -12.9014t-10.9082 -13.7607t-6.88867 -8.31348q-2.29688 0 0 5.44727q2.2959 5.44629 7.46289 13.7607q5.16699 8.31348 11.7686 17.7744q6.60254 9.45996 13.2051 17.7734q6.60156 8.31445 12.0557 13.7607
q5.4541 5.44727 8.32422 5.44727q4.01855 0 8.89844 -1.43359q4.87988 -1.43262 8.89844 -3.72656t6.88965 -4.2998q2.87012 -2.00684 2.87012 -2.58008zM320.531 564.101q0 -4.95898 -8.66992 -25.207q-8.66992 -20.249 -22.707 -50.8281
q-14.0361 -30.5801 -32.6143 -69.0117q-18.5771 -38.4307 -38.3936 -78.1016t-39.2207 -78.9287q-19.4033 -39.2578 -36.3301 -72.3164q-16.9258 -33.0596 -29.3115 -56.6143t-17.3389 -32.6455q-9.08301 -15.7031 -16.1016 -23.9678q-7.01758 -8.26465 -12.3848 -12.3975
q-5.36719 -4.13184 -9.08301 -4.95898q-3.71582 -0.826172 -4.54102 -0.826172t8.25684 21.9014q9.08203 21.9023 24.3574 57.8535q15.2754 35.9521 34.6787 82.2344q19.4033 46.2832 40.0459 94.6318t40.8711 94.6318q20.2295 46.2822 36.7432 83.0605t26.835 59.9199
q10.3203 23.1416 11.9727 24.7939q1.65039 1.65332 8.66895 0.413086q7.01855 -1.23926 14.4502 -3.71875q7.43066 -2.47949 13.623 -5.78516q6.19336 -3.30566 6.19336 -4.13281zM352.549 237.313q0 -1.46973 -5.87012 -15.4326t-15.4102 -35.2754
q-9.53906 -21.3115 -21.7686 -47.2773q-12.2305 -25.9668 -24.46 -51.4434h21.0352q6.84863 0 7.09375 -0.489258q0.244141 -0.490234 -2.44629 -0.735352t-6.84863 -0.734375q-4.1582 -0.490234 -6.11523 -0.490234h-13.6973q-9.78418 -20.0869 -18.5898 -38.46
q-8.80566 -18.3721 -15.8984 -32.5801q-7.09375 -14.208 -11.9854 -23.2715t-6.35938 -10.5332q-10.2734 0 -15.4102 3.42969q-5.13672 3.42871 -4.1582 7.34863q0 -0.979492 3.66895 6.61426t9.78418 20.8213q6.11523 13.2285 14.4316 30.8662t17.1211 36.7441h-11.7402
q-8.31641 0 -12.9639 1.71484t-8.56055 1.71484q-6.35938 0 -19.8125 -1.46973t-27.3955 -3.42969q-13.9414 -1.95898 -25.1934 -3.42969q-11.252 -1.46973 -13.6973 -1.46973q-4.40332 0 -8.07227 0.490234t-3.66895 2.93945q0 0.980469 9.29492 12.9834t23.4814 29.3955
t30.3301 37.7246t30.3301 38.2148q14.1875 17.8818 23.4814 30.375q9.29492 12.4932 9.29492 14.4531q6.84863 -2.44922 12.2305 -4.40918q4.8916 -1.95996 8.80469 -3.91992q3.91406 -1.95898 3.91406 -2.93945q0 -2.44922 -7.82715 -13.4727t-19.5684 -26.2109
q-11.7402 -15.1885 -25.9268 -32.8252q-14.1865 -17.6377 -26.417 -32.8252q-12.2295 -15.1885 -21.0352 -25.7217t-10.2734 -12.0029q12.7188 0.489258 23.9707 1.46973q9.78418 0.489258 19.3232 0.979492t14.4316 0.490234q9.78418 0 16.3877 -1.71484
q6.60449 -1.71484 18.3447 -3.18457q10.7627 23.0264 21.0361 46.0527q10.2725 23.0273 18.3447 41.3994q8.07129 18.3721 12.4746 29.8857q4.40234 11.5137 3.42383 11.5137t-5.13672 -4.89941t-9.0498 -11.0234t-9.29492 -11.7588q-4.40234 -5.63379 -5.87012 -7.10352
q-1.95703 0 0 4.6543t6.35938 11.7578q4.40332 7.10449 10.0283 15.1885q5.62598 8.08398 11.252 15.1875t10.2734 11.7578t7.09277 4.6543q3.4248 0 7.58301 -1.22461t7.58203 -3.18457q3.4248 -1.95898 5.87109 -3.67383q2.44531 -1.71484 2.44531 -2.20508z" />
    <glyph glyph-name="onehalf" unicode="&#xbd;" horiz-adv-x="393" 
d="M194.358 496.791q0 -1.7207 -6.60156 -16.0547q-6.60254 -14.334 -17.2236 -36.9824q-10.6201 -22.6475 -24.6855 -51.0293q-14.0654 -28.3809 -28.7051 -57.9092t-28.9922 -57.623t-26.1211 -50.7432q-11.7695 -22.6475 -19.8066 -37.2686t-9.75977 -16.3408
q-12.0557 0 -18.084 4.01367q-6.02734 4.01367 -4.87988 8.60059q0 -1.14746 6.02832 10.8936t16.0752 32.1084q10.0459 20.0674 22.9639 46.1562q12.917 26.0879 26.4082 53.6094t26.1211 53.8955q12.6299 26.375 22.3896 47.3027t14.9268 33.542t4.01855 12.6143
t-6.02832 -5.7334q-4.87891 -5.73438 -10.6201 -12.9014t-10.9082 -13.7607t-6.88867 -8.31348q-2.29688 0 0 5.44727q2.2959 5.44629 7.46289 13.7607q5.16699 8.31348 11.7686 17.7744q6.60254 9.45996 13.2051 17.7734q6.60156 8.31445 12.0557 13.7607
q5.4541 5.44727 8.32422 5.44727q4.01855 0 8.89844 -1.43359q4.87988 -1.43262 8.89844 -3.72656t6.88965 -4.2998q2.87012 -2.00684 2.87012 -2.58008zM314.082 499.035q0 -4.82715 -8.44434 -24.5361q-8.44434 -19.708 -22.1172 -49.4727t-31.7686 -67.1709
q-18.0957 -37.4072 -37.3975 -76.0205q-19.3027 -38.6133 -38.2031 -76.8242q-18.8994 -38.2109 -35.3867 -70.3887t-28.5518 -55.1045q-12.0635 -22.9268 -16.8896 -31.7754q-8.84668 -15.2842 -15.6826 -23.3291q-6.83594 -8.04395 -12.0645 -12.0664
q-5.22754 -4.02246 -8.84668 -4.82715q-3.61914 -0.803711 -4.42285 -0.803711q-0.804688 0 8.04199 21.3174q8.84668 21.3184 23.7256 56.3115t33.7793 80.042t39.0068 92.1084t39.8105 92.1084t35.79 80.8467q16.085 35.7979 26.1377 58.3223
q10.0537 22.5244 11.6621 24.1338q1.6084 1.6084 8.44434 0.402344q6.83691 -1.20703 14.0752 -3.62012t13.2705 -5.63184q6.03125 -3.2168 6.03125 -4.02148zM318.474 286.508q31.5146 0 48.543 -10.4092t22.3652 -27.6729t0.762695 -39.6045
q-4.5752 -22.3408 -16.5205 -45.9512q-11.9443 -23.6104 -29.4814 -46.7129q-17.5361 -23.1025 -37.8682 -42.3975q27.9561 -4.57031 52.6094 -7.87012q24.6523 -3.30078 37.8682 -3.30078q2.0332 -2.53809 -5.33691 -2.79199t-21.0947 0.761719
q-13.7246 1.01465 -32.2773 3.2998t-37.8682 4.82324q-22.874 -19.8018 -46.001 -31.9883q-23.1279 -12.1855 -44.4766 -12.1855q-20.8398 0 -33.0391 4.82324q-12.1992 4.82422 -17.2832 11.9326q-5.08203 7.1084 -4.32031 15.4863q0.762695 8.37793 6.09961 15.4863
q5.33789 7.1084 13.9785 11.9326q8.64062 4.82324 19.3154 4.82324q11.6904 0 33.04 -2.79297q21.3477 -2.79199 46.2549 -6.85449q19.3154 17.7715 36.5977 39.8584q17.2822 22.0879 30.498 44.4287t20.8408 43.666q7.62402 21.3262 7.37012 37.8281
q-0.254883 16.502 -10.166 26.6572q-9.91211 10.1543 -31.2607 10.1543q-22.873 0 -40.918 -8.37793t-30.498 -20.0557q-12.4531 -11.6787 -19.0615 -23.6104q-6.6084 -11.9326 -6.6084 -19.5488q0 -3.04688 -4.32031 -3.80762q-4.32031 -0.761719 -9.65723 0.506836
q-5.33691 1.26953 -9.6582 4.0625q-4.32031 2.79297 -4.32031 7.3623q0 5.58496 8.6416 16.7559q8.64062 11.1709 24.1436 22.5947q15.5029 11.4248 36.5977 20.0566t46.5098 8.63184zM197.498 82.8994q-15.7578 0 -25.1611 -7.61621t-11.1826 -16.7559t4.8291 -16.7559
t22.874 -7.61621q17.79 0 37.8682 10.6621q20.0771 10.6631 40.4092 28.4346q-26.4316 4.06152 -46.2549 6.85449t-23.3818 2.79297z" />
    <glyph glyph-name="threequarters" unicode="&#xbe;" horiz-adv-x="500" 
d="M135.958 590.512q48.958 0 75.459 -3.81934q26.5 -3.81934 36.1572 -9.88574q9.65625 -6.06543 5.16504 -13.7051q-4.49121 -7.63867 -16.8438 -15.7266q-12.3516 -8.08789 -29.8691 -15.9512q-17.5166 -7.86328 -34.1357 -13.9297t-29.4199 -9.66113t-15.9453 -3.59473
q47.6113 0 76.8066 -6.74023t42.8945 -17.9736t13.0254 -25.3877t-13.0254 -28.7578t-35.0342 -28.7578t-52.7764 -25.3877t-66.4756 -17.9736t-75.9072 -6.74023q-8.08496 0 -6.06348 2.69629q2.02051 2.69629 11.9023 2.69629q20.2119 0 46.2637 6.29102
q26.0508 6.29004 52.5508 16.625q26.501 10.335 50.5303 23.5908q24.0303 13.2549 40.4248 26.96q16.3936 13.7051 22.0088 26.9609q5.61426 13.2549 -4.7168 23.5898q-10.3301 10.335 -39.5254 16.626t-82.6455 6.29102q-2.24512 0 -1.7959 3.81934
q0.448242 3.81934 5.38965 3.81934q1.34766 0 11.4531 3.37012q10.1064 3.37012 24.0303 8.76172q13.9238 5.39258 29.4199 12.3574t27.623 14.1543t18.1904 14.1533q6.06348 6.96484 1.12305 12.3574q-4.94043 5.3916 -23.1318 8.76172q-18.1904 3.37012 -54.5723 3.37012
q-6.28809 0 -8.53418 -2.02148q-2.24512 -2.02246 -2.46973 -4.49414q-0.224609 -2.4707 0.672852 -4.71777q0.898438 -2.24707 0.898438 -3.14551t-3.81738 -1.57227q-3.81836 -0.673828 -8.53418 -0.224609t-8.53418 2.69531q-3.81738 2.24707 -3.81738 6.74023
q0 4.49414 3.36816 7.18945q3.36914 2.69629 7.63574 4.04492q4.26758 1.34766 8.53418 1.79688t6.06348 0.449219zM416.877 573.347q0 -5.80078 -10.1465 -29.4893q-10.1465 -23.6875 -26.5752 -59.4619q-16.4287 -35.7734 -38.1719 -80.7324t-44.9355 -91.3682
q-23.1934 -46.4092 -45.9033 -92.335q-22.709 -45.9258 -42.5195 -84.5996q-19.8105 -38.6748 -34.3066 -66.2305q-14.4951 -27.5547 -20.2939 -38.1904q-10.6299 -18.3701 -18.8438 -28.0391q-8.21387 -9.66797 -14.4961 -14.5029q-6.28125 -4.83398 -10.6299 -5.80078
t-5.31445 -0.966797q-0.966797 0 9.66309 25.6211q10.6299 25.6221 28.5078 67.6807t40.5879 96.2021q22.71 54.1445 46.8691 110.705q24.1592 56.5615 47.835 110.705q23.6758 54.1445 43.0039 97.1699q19.3271 43.0244 31.4062 70.0967q12.0801 27.0723 14.0127 29.0059
t10.1465 0.483398q8.21484 -1.4502 16.9121 -4.35059t15.9453 -6.76855q7.24707 -3.86719 7.24707 -4.83398zM480.873 280.749q0 -1.62402 -6.49121 -17.0498t-17.04 -38.9707t-24.0723 -52.2314q-13.5244 -28.6865 -27.0479 -56.833h23.2607q7.57324 0 7.84375 -0.541016
t-2.7041 -0.811523q-2.97559 -0.270508 -7.57422 -0.811523q-4.59766 -0.541992 -6.76172 -0.541992h-15.1465q-10.8193 -22.1914 -20.5566 -42.4883q-9.7373 -20.2979 -17.5811 -35.9941t-13.2529 -25.71t-7.03223 -11.6367q-11.3604 0 -17.04 3.78906
q-5.68066 3.78809 -4.59863 8.11816q0 -1.08203 4.05762 7.30762q4.05664 8.38867 10.8193 23.0029q6.76172 14.6143 15.958 34.0996t18.9326 40.5947h-12.9824q-9.19629 0 -14.335 1.89453q-5.13965 1.89453 -9.4668 1.89453q-7.03223 0 -21.9092 -1.62402
q-14.876 -1.62402 -30.293 -3.78906t-27.8594 -3.78906t-15.1465 -1.62402q-4.86914 0 -8.92578 0.541992q-4.05762 0.541016 -4.05762 3.24707q0 1.08301 10.2783 14.3438t25.9658 32.4756t33.5391 41.6768q17.8516 22.4629 33.5391 42.2188
q15.6885 19.7559 25.9658 33.5576q10.2783 13.8018 10.2783 15.9678q7.57324 -2.70703 13.5244 -4.87207q5.40918 -2.16504 9.73633 -4.33008q4.32812 -2.16504 4.32812 -3.24707q0 -2.70703 -8.65527 -14.8848q-8.65527 -12.1787 -21.6387 -28.957
q-12.9824 -16.7793 -28.6699 -36.2646t-29.2119 -36.2646q-13.5234 -16.7793 -23.2607 -28.416t-11.3604 -13.2607q14.0645 0.541016 26.5068 1.62402q10.8193 0.541016 21.3682 1.08203q10.5479 0.541016 15.958 0.541016q10.8193 0 18.1221 -1.89453t20.2852 -3.51758
q11.9014 25.4395 23.2617 50.8779q11.3594 25.4395 20.2852 45.7363q8.92578 20.2979 13.7949 33.0176q4.86816 12.7197 3.78613 12.7197t-5.67969 -5.41309q-4.59863 -5.41309 -10.0078 -12.1787t-10.2783 -12.9902q-4.86816 -6.22461 -6.49121 -7.84766
q-2.16406 0 0 5.1416t7.03223 12.9902q4.86914 7.84863 11.0898 16.7793t12.4414 16.7793q6.22168 7.84766 11.3604 12.9902q5.13965 5.1416 7.84375 5.1416q3.78711 0 8.38477 -1.35352q4.59863 -1.35254 8.38477 -3.51758q3.78711 -2.16504 6.49219 -4.05957
q2.7041 -1.89453 2.7041 -2.43555z" />
    <glyph glyph-name="questiondown" unicode="&#xbf;" horiz-adv-x="349" 
d="M23.0215 111.029q4.99902 34.998 21.498 64.9961t39.498 54.9971q22.998 24.998 49.4971 45.4971q26.498 20.499 50.9971 36.498q24.498 15.999 43.4971 27.998t26.998 19.999q11.999 11.999 16.999 24.498t6.5 21.999q1.5 9.49902 0.5 16.499q-1 6.99902 -1 8.99902
q0 4 7.49902 9q7.5 4.99902 14.499 4.99902q4 0 9 -5.49902q5 -5.5 7.49902 -16.499q2.5 -11 0 -27.999q-2.49902 -16.998 -14.499 -40.9971q-8.99902 -16.999 -27.998 -34.998t-42.9971 -36.498q-23.999 -18.498 -49.4971 -38.4971q-25.499 -19.999 -47.9971 -41.498
q-22.499 -21.498 -37.998 -45.4971q-15.499 -23.998 -19.499 -50.9971q-3.99902 -32.9971 19.999 -55.9961q23.999 -22.999 63.9961 -22.999q23.999 0 47.4971 6.5q23.499 6.5 41.498 18.999q17.998 12.499 28.998 30.998q10.999 18.499 10.999 42.4971q0 4 -2 23.499
t-2 40.9971q0 21.499 4 38.498t15.999 16.999q9.99902 0 16.499 -10.5q6.5 -10.499 9.99902 -26.498q3.5 -15.999 4 -34.498t-1.5 -35.498q-2 -15.999 -11.499 -40.4971q-9.49902 -24.499 -29.998 -46.9971q-20.499 -22.499 -53.4971 -38.498t-82.9951 -15.999
q-48.9971 0 -76.4951 14.499q-27.498 14.5 -40.4971 33.498q-12.999 18.999 -14.999 37.498t-1 26.498zM270.006 567.002q0 11.999 12.999 20.998q13 9 24.999 9q16.999 0 29.498 -10.499q12.499 -10.5 12.499 -24.499q0 -28.998 -37.9971 -28.998q-14 0 -27.999 9.49902
q-13.999 9.5 -13.999 24.499z" />
    <glyph glyph-name="Agrave" unicode="&#xc0;" horiz-adv-x="488" 
d="M420 247q7 0 18 -0.5t22 -2t19 -3t8 -2.5q0 -2 -20.5 -2.5t-55.5 -0.5q-10 0 -27.5 -2t-40.5 -4q-16 -39 -30 -75t-24.5 -65.5t-16.5 -50.5t-6 -30q0 -8 -7.5 -8.5t-16 3t-16 9t-7.5 9.5q0 22 18.5 77t46.5 124q-31 -5 -61 -8.5t-56 -6.5q-42 -45 -82 -85t-73 -70
t-57.5 -48t-35.5 -18q-9 0 -14 4.5t-5 10.5q0 7 7 27t15.5 41t15.5 38t7 18q0 2 -2.5 3.5t-2.5 3.5q0 1 2 5.5t5 9.5t5.5 9l2.5 4q1 1 4.5 1.5t7.5 0t7.5 -2t3.5 -5.5q0 -5 -8.5 -28.5t-18.5 -50t-17.5 -47.5t-4.5 -21q6 0 25 15.5t46.5 42.5t62.5 63t74 77q-5 -1 -9 -1h-8
q-20 0 -30 2t-14 5t-4 6v5t3 4t8 2q10 0 14 -1.5t6.5 -3t6 -2.5t12.5 -1q4 0 12 0.5t19 1.5q50 54 97 105.5t89 98t77 87.5t61 75h11q4 0 7.5 -1.5t3.5 -4.5q0 -1 -11 -14q13 -7 13 -9q-9 -9 -26 -40t-38 -75t-44 -97t-45 -105q22 2 40.5 3t31.5 1zM184 226q23 3 50.5 6
t56.5 5q23 57 49.5 114t51.5 105q-45 -51 -98.5 -110.5t-109.5 -119.5zM462 607q-37 3 -69 21l-64 36q-6 9 -8 17t0 13.5t7.5 6t14.5 -5.5q23 -26 55 -51t64 -37z" />
    <glyph glyph-name="Aacute" unicode="&#xc1;" horiz-adv-x="488" 
d="M420 247q7 0 18 -0.5t22 -2t19 -3t8 -2.5q0 -2 -20.5 -2.5t-55.5 -0.5q-10 0 -27.5 -2t-40.5 -4q-16 -39 -30 -75t-24.5 -65.5t-16.5 -50.5t-6 -30q0 -8 -7.5 -8.5t-16 3t-16 9t-7.5 9.5q0 22 18.5 77t46.5 124q-31 -5 -61 -8.5t-56 -6.5q-42 -45 -82 -85t-73 -70
t-57.5 -48t-35.5 -18q-9 0 -14 4.5t-5 10.5q0 7 7 27t15.5 41t15.5 38t7 18q0 2 -2.5 3.5t-2.5 3.5q0 1 2 5.5t5 9.5t5.5 9l2.5 4q1 1 4.5 1.5t7.5 0t7.5 -2t3.5 -5.5q0 -5 -8.5 -28.5t-18.5 -50t-17.5 -47.5t-4.5 -21q6 0 25 15.5t46.5 42.5t62.5 63t74 77q-5 -1 -9 -1h-8
q-20 0 -30 2t-14 5t-4 6v5t3 4t8 2q10 0 14 -1.5t6.5 -3t6 -2.5t12.5 -1q4 0 12 0.5t19 1.5q50 54 97 105.5t89 98t77 87.5t61 75h11q4 0 7.5 -1.5t3.5 -4.5q0 -1 -11 -14q13 -7 13 -9q-9 -9 -26 -40t-38 -75t-44 -97t-45 -105q22 2 40.5 3t31.5 1zM184 226q23 3 50.5 6
t56.5 5q23 57 49.5 114t51.5 105q-45 -51 -98.5 -110.5t-109.5 -119.5zM359 602q32 12 64 37t55 51q9 6 14.5 5.5t7.5 -6t0 -13.5t-8 -17l-64 -36t-69 -21z" />
    <glyph glyph-name="Acircumflex" unicode="&#xc2;" horiz-adv-x="488" 
d="M420 247q7 0 18 -0.5t22 -2t19 -3t8 -2.5q0 -2 -20.5 -2.5t-55.5 -0.5q-10 0 -27.5 -2t-40.5 -4q-16 -39 -30 -75t-24.5 -65.5t-16.5 -50.5t-6 -30q0 -8 -7.5 -8.5t-16 3t-16 9t-7.5 9.5q0 22 18.5 77t46.5 124q-31 -5 -61 -8.5t-56 -6.5q-42 -45 -82 -85t-73 -70
t-57.5 -48t-35.5 -18q-9 0 -14 4.5t-5 10.5q0 7 7 27t15.5 41t15.5 38t7 18q0 2 -2.5 3.5t-2.5 3.5q0 1 2 5.5t5 9.5t5.5 9l2.5 4q1 1 4.5 1.5t7.5 0t7.5 -2t3.5 -5.5q0 -5 -8.5 -28.5t-18.5 -50t-17.5 -47.5t-4.5 -21q6 0 25 15.5t46.5 42.5t62.5 63t74 77q-5 -1 -9 -1h-8
q-20 0 -30 2t-14 5t-4 6v5t3 4t8 2q10 0 14 -1.5t6.5 -3t6 -2.5t12.5 -1q4 0 12 0.5t19 1.5q50 54 97 105.5t89 98t77 87.5t61 75h11q4 0 7.5 -1.5t3.5 -4.5q0 -1 -11 -14q13 -7 13 -9q-9 -9 -26 -40t-38 -75t-44 -97t-45 -105q22 2 40.5 3t31.5 1zM184 226q23 3 50.5 6
t56.5 5q23 57 49.5 114t51.5 105q-45 -51 -98.5 -110.5t-109.5 -119.5zM327 611q-11 -3 -8 2.5t13 15.5t25.5 22.5t29.5 24t24 19t11 8.5q11 8 21 15t24 -4q7 -6 21 -19t28.5 -28t25 -29t10.5 -23q0 -12 -14.5 -5t-33 21.5t-36 30t-24.5 20.5q-8 -6 -24 -17.5t-34 -22.5
t-34 -20.5t-25 -10.5z" />
    <glyph glyph-name="Atilde" unicode="&#xc3;" horiz-adv-x="488" 
d="M420 247q7 0 18 -0.5t22 -2t19 -3t8 -2.5q0 -2 -20.5 -2.5t-55.5 -0.5q-10 0 -27.5 -2t-40.5 -4q-16 -39 -30 -75t-24.5 -65.5t-16.5 -50.5t-6 -30q0 -8 -7.5 -8.5t-16 3t-16 9t-7.5 9.5q0 22 18.5 77t46.5 124q-31 -5 -61 -8.5t-56 -6.5q-42 -45 -82 -85t-73 -70
t-57.5 -48t-35.5 -18q-9 0 -14 4.5t-5 10.5q0 7 7 27t15.5 41t15.5 38t7 18q0 2 -2.5 3.5t-2.5 3.5q0 1 2 5.5t5 9.5t5.5 9l2.5 4q1 1 4.5 1.5t7.5 0t7.5 -2t3.5 -5.5q0 -5 -8.5 -28.5t-18.5 -50t-17.5 -47.5t-4.5 -21q6 0 25 15.5t46.5 42.5t62.5 63t74 77q-5 -1 -9 -1h-8
q-20 0 -30 2t-14 5t-4 6v5t3 4t8 2q10 0 14 -1.5t6.5 -3t6 -2.5t12.5 -1q4 0 12 0.5t19 1.5q50 54 97 105.5t89 98t77 87.5t61 75h11q4 0 7.5 -1.5t3.5 -4.5q0 -1 -11 -14q13 -7 13 -9q-9 -9 -26 -40t-38 -75t-44 -97t-45 -105q22 2 40.5 3t31.5 1zM184 226q23 3 50.5 6
t56.5 5q23 57 49.5 114t51.5 105q-45 -51 -98.5 -110.5t-109.5 -119.5zM299 596q-2 0 -2 8v13q0 11 6.5 18.5t16 11.5t19.5 5.5t18 1.5q31 0 72.5 -8t78.5 -8q2 0 7.5 0.5t11.5 2.5t11 5.5t5 9.5t-4.5 11.5t-9.5 9.5t-7.5 6.5t0.5 2.5q18 0 28.5 -11t10.5 -22q0 -2 -1.5 -7
t-6.5 -10.5t-15.5 -9.5t-28.5 -4q-28 0 -45.5 2.5t-32.5 6t-31.5 6t-41.5 2.5t-36.5 -6.5t-16 -15t-4.5 -15t-2 -6.5z" />
    <glyph glyph-name="Adieresis" unicode="&#xc4;" horiz-adv-x="488" 
d="M420 247q7 0 18 -0.5t22 -2t19 -3t8 -2.5q0 -2 -20.5 -2.5t-55.5 -0.5q-10 0 -27.5 -2t-40.5 -4q-16 -39 -30 -75t-24.5 -65.5t-16.5 -50.5t-6 -30q0 -8 -7.5 -8.5t-16 3t-16 9t-7.5 9.5q0 22 18.5 77t46.5 124q-31 -5 -61 -8.5t-56 -6.5q-42 -45 -82 -85t-73 -70
t-57.5 -48t-35.5 -18q-9 0 -14 4.5t-5 10.5q0 7 7 27t15.5 41t15.5 38t7 18q0 2 -2.5 3.5t-2.5 3.5q0 1 2 5.5t5 9.5t5.5 9l2.5 4q1 1 4.5 1.5t7.5 0t7.5 -2t3.5 -5.5q0 -5 -8.5 -28.5t-18.5 -50t-17.5 -47.5t-4.5 -21q6 0 25 15.5t46.5 42.5t62.5 63t74 77q-5 -1 -9 -1h-8
q-20 0 -30 2t-14 5t-4 6v5t3 4t8 2q10 0 14 -1.5t6.5 -3t6 -2.5t12.5 -1q4 0 12 0.5t19 1.5q50 54 97 105.5t89 98t77 87.5t61 75h11q4 0 7.5 -1.5t3.5 -4.5q0 -1 -11 -14q13 -7 13 -9q-9 -9 -26 -40t-38 -75t-44 -97t-45 -105q22 2 40.5 3t31.5 1zM184 226q23 3 50.5 6
t56.5 5q23 57 49.5 114t51.5 105q-45 -51 -98.5 -110.5t-109.5 -119.5zM449 690q2 0 3 -0.5t0 -0.5q-8 0 -14 -13.5t-12 -29t-13.5 -29t-18.5 -13.5q-7 0 -11.5 7t-4.5 15q0 12 7.5 23.5t18.5 20.5t23.5 14.5t21.5 5.5zM535 690q2 0 3 -0.5t0 -0.5q-8 0 -14 -13.5t-12 -29
t-13.5 -29t-18.5 -13.5q-7 0 -11.5 7t-4.5 15q0 12 7.5 23.5t18.5 20.5t23.5 14.5t21.5 5.5z" />
    <glyph glyph-name="Aring" unicode="&#xc5;" horiz-adv-x="488" 
d="M420 247q7 0 18 -0.5t22 -2t19 -3t8 -2.5q0 -2 -20.5 -2.5t-55.5 -0.5q-10 0 -27.5 -2t-40.5 -4q-16 -39 -30 -75t-24.5 -65.5t-16.5 -50.5t-6 -30q0 -8 -7.5 -8.5t-16 3t-16 9t-7.5 9.5q0 22 18.5 77t46.5 124q-31 -5 -61 -8.5t-56 -6.5q-42 -45 -82 -85t-73 -70
t-57.5 -48t-35.5 -18q-9 0 -14 4.5t-5 10.5q0 7 7 27t15.5 41t15.5 38t7 18q0 2 -2.5 3.5t-2.5 3.5q0 1 2 5.5t5 9.5t5.5 9l2.5 4q1 1 4.5 1.5t7.5 0t7.5 -2t3.5 -5.5q0 -5 -8.5 -28.5t-18.5 -50t-17.5 -47.5t-4.5 -21q6 0 25 15.5t46.5 42.5t62.5 63t74 77q-5 -1 -9 -1h-8
q-20 0 -30 2t-14 5t-4 6v5t3 4t8 2q10 0 14 -1.5t6.5 -3t6 -2.5t12.5 -1q4 0 12 0.5t19 1.5q50 54 97 105.5t89 98t77 87.5t61 75h11q4 0 7.5 -1.5t3.5 -4.5q0 -1 -11 -14q13 -7 13 -9q-9 -9 -26 -40t-38 -75t-44 -97t-45 -105q22 2 40.5 3t31.5 1zM184 226q23 3 50.5 6
t56.5 5q23 57 49.5 114t51.5 105q-45 -51 -98.5 -110.5t-109.5 -119.5zM529 695q0 -36 -28 -65q-29 -29 -64 -29q-23 0 -32.5 15t-8.5 34.5t11.5 38t27.5 26.5q17 32 51 32q19 0 31 -15.5t12 -36.5zM515 693q0 18 -10.5 28.5t-21.5 10.5t-18.5 -5t-10.5 -11
q-10 -11 -18 -27.5t-10.5 -31.5t2 -26t20.5 -11q12 0 24 7t21.5 17.5t15.5 23.5t6 25z" />
    <glyph glyph-name="AE" unicode="&#xc6;" horiz-adv-x="664" 
d="M776 521v-2.5t-10 -0.5q-5 0 -11.5 3t-27.5 7t-63 7t-118 3q-25 0 -58 -3q-5 -11 -16.5 -33.5t-27.5 -53.5t-33.5 -67t-34.5 -72q59 3 122 4.5t125 1.5q4 0 9 -3t8.5 -7t5.5 -7t0 -3q-83 4 -152 2.5t-125 -5.5q-5 -12 -10.5 -24.5t-10.5 -24.5l-5 -13q-7 -16 -13 -31
l-12 -30q-8 -27 -8 -42q0 -29 16 -49.5t38.5 -33t47 -18t41.5 -5.5t34.5 1.5t31 3t22 1t8.5 -3.5t-10 -6t-23.5 -5.5t-28 -4t-23.5 -1.5q-23 0 -49.5 3t-51.5 11t-46 21t-34 33q-17 -49 -17 -65q0 -8 -7.5 -8.5t-16 3t-16 9t-7.5 9.5q0 22 18.5 77t46.5 124q-31 -5 -61 -8.5
t-56 -6.5q-42 -45 -82 -85t-73 -70t-57.5 -48t-35.5 -18q-9 0 -14 4.5t-5 10.5q0 7 7 27t15.5 41t15.5 38t7 18q0 2 -2.5 3.5t-2.5 3.5q0 1 2 5.5t5 9.5t5.5 9l2.5 4q1 1 4.5 1.5t7.5 0t7.5 -2t3.5 -5.5q0 -5 -8.5 -28.5t-18.5 -50t-17.5 -47.5t-4.5 -21q6 0 25 15.5
t46.5 42.5t62.5 63t74 77q-5 -1 -9 -1h-8q-20 0 -30 2t-14 5t-4 6v5t3 4t8 2q10 0 14 -1.5t6.5 -3t6 -2.5t12.5 -1q4 0 12 0.5t19 1.5q71 78 135.5 148t115.5 130q5 8 8.5 15.5t6.5 12.5l-58 -8t-53.5 -8.5t-43 -8.5t-27.5 -7q-7 0 -8.5 3.5t-1.5 5.5q0 5 16 11t44.5 12
t68.5 11t89 9q9 11 16.5 20.5t15.5 19.5h11q4 0 7.5 -1.5t3.5 -4.5q0 -1 -11 -14q13 -7 13 -9q-2 -2 -3.5 -4t-3.5 -4q54 3 113 3q46 0 78 -5t52.5 -11t29.5 -11.5t9 -6.5zM184 226q23 3 50.5 6t56.5 5q2 4 3.5 8t3.5 8q3 8 6 17t6 17q-29 -2 -27 5.5t34 12.5q13 33 27 66
t28 62q-42 -47 -90 -100.5t-98 -106.5z" />
    <glyph glyph-name="Ccedilla" unicode="&#xc7;" horiz-adv-x="336" 
d="M190 359q-9 0 8.5 7.5t42 23.5t46.5 40.5t22 57.5q0 8 -5.5 21.5t-18.5 13.5q-28 0 -58.5 -16.5t-60.5 -45t-57 -67.5t-47.5 -84t-32.5 -94t-12 -98q0 -10 3.5 -27.5t14.5 -34t33 -29t58 -12.5t63 9.5t46 22.5t32.5 27.5t22.5 23.5q10 9 10.5 6.5t-3.5 -10t-10.5 -17
t-11.5 -13.5q-7 -6 -16 -15.5t-22 -18.5q6 -6 0 -15q-5 -6 -11.5 -11t-10.5 -13q-7 -15 -1.5 -39t15 -51t18.5 -53.5t9 -46.5q0 -15 -14 -25t-35 -15t-46 -5t-47.5 5t-38.5 15t-20 25q-2 8 3 13.5t13 -0.5q10 -10 29.5 -17.5t40.5 -9t38.5 4t24.5 22.5t0.5 43.5t-14 54.5
t-9.5 53t13 39q4 4 6 5q-12 -5 -26 -7.5t-31 -2.5q-64 0 -102.5 23.5t-55.5 61.5t-15.5 87t17.5 100t44 100t64 87t77.5 61.5t84.5 23.5q21 0 36.5 -6.5t25.5 -16t15 -20.5t5 -21q0 -25 -18 -46.5t-42.5 -38t-49.5 -26t-39 -9.5z" />
    <glyph glyph-name="Egrave" unicode="&#xc8;" horiz-adv-x="418" 
d="M530 521v-2.5t-10 -0.5q-5 0 -11.5 3t-27.5 7t-63 7t-118 3q-25 0 -58 -3q-5 -11 -16.5 -33.5t-27.5 -53.5t-33.5 -67t-34.5 -72q59 3 122 4.5t125 1.5q4 0 9 -3t8.5 -7t5.5 -7t0 -3q-83 4 -152 2.5t-126 -5.5q-24 -53 -41 -97.5t-17 -67.5q0 -29 16 -49.5t38.5 -33
t47 -18t41.5 -5.5t34.5 1.5t31 3t22 1t8.5 -3.5t-10 -6t-23.5 -5.5t-28 -4t-23.5 -1.5q-30 0 -64 5.5t-63.5 19t-49 37t-19.5 60.5q0 26 12 68.5t30 90.5q-74 -8 -113.5 -16t-42.5 -10q-5 -2 -6.5 -6t-7.5 -4q-5 0 -10 4t-5 8q0 8 14.5 14.5t40 11.5t60.5 9t77 7
q13 34 28 68.5t29 64.5t25.5 53.5t19.5 37.5l-58 -8t-53.5 -8.5t-43 -8.5t-27.5 -7q-7 0 -8.5 3.5t-1.5 5.5q0 7 29.5 15.5t81 16t120.5 12.5t149 5q46 0 78 -5t52.5 -11t29.5 -11.5t9 -6.5zM332 589q-37 3 -69 21l-64 36q-6 9 -8 17t0 13.5t7.5 6t14.5 -5.5q23 -26 55 -51
t64 -37z" />
    <glyph glyph-name="Eacute" unicode="&#xc9;" horiz-adv-x="418" 
d="M530 521v-2.5t-10 -0.5q-5 0 -11.5 3t-27.5 7t-63 7t-118 3q-25 0 -58 -3q-5 -11 -16.5 -33.5t-27.5 -53.5t-33.5 -67t-34.5 -72q59 3 122 4.5t125 1.5q4 0 9 -3t8.5 -7t5.5 -7t0 -3q-83 4 -152 2.5t-126 -5.5q-24 -53 -41 -97.5t-17 -67.5q0 -29 16 -49.5t38.5 -33
t47 -18t41.5 -5.5t34.5 1.5t31 3t22 1t8.5 -3.5t-10 -6t-23.5 -5.5t-28 -4t-23.5 -1.5q-30 0 -64 5.5t-63.5 19t-49 37t-19.5 60.5q0 26 12 68.5t30 90.5q-74 -8 -113.5 -16t-42.5 -10q-5 -2 -6.5 -6t-7.5 -4q-5 0 -10 4t-5 8q0 8 14.5 14.5t40 11.5t60.5 9t77 7
q13 34 28 68.5t29 64.5t25.5 53.5t19.5 37.5l-58 -8t-53.5 -8.5t-43 -8.5t-27.5 -7q-7 0 -8.5 3.5t-1.5 5.5q0 7 29.5 15.5t81 16t120.5 12.5t149 5q46 0 78 -5t52.5 -11t29.5 -11.5t9 -6.5zM212 585q32 12 64 37t55 51q9 6 14.5 5.5t7.5 -6t0 -13.5t-8 -17l-64 -36t-69 -21
z" />
    <glyph glyph-name="Ecircumflex" unicode="&#xca;" horiz-adv-x="418" 
d="M530 521v-2.5t-10 -0.5q-5 0 -11.5 3t-27.5 7t-63 7t-118 3q-25 0 -58 -3q-5 -11 -16.5 -33.5t-27.5 -53.5t-33.5 -67t-34.5 -72q59 3 122 4.5t125 1.5q4 0 9 -3t8.5 -7t5.5 -7t0 -3q-83 4 -152 2.5t-126 -5.5q-24 -53 -41 -97.5t-17 -67.5q0 -29 16 -49.5t38.5 -33
t47 -18t41.5 -5.5t34.5 1.5t31 3t22 1t8.5 -3.5t-10 -6t-23.5 -5.5t-28 -4t-23.5 -1.5q-30 0 -64 5.5t-63.5 19t-49 37t-19.5 60.5q0 26 12 68.5t30 90.5q-74 -8 -113.5 -16t-42.5 -10q-5 -2 -6.5 -6t-7.5 -4q-5 0 -10 4t-5 8q0 8 14.5 14.5t40 11.5t60.5 9t77 7
q13 34 28 68.5t29 64.5t25.5 53.5t19.5 37.5l-58 -8t-53.5 -8.5t-43 -8.5t-27.5 -7q-7 0 -8.5 3.5t-1.5 5.5q0 7 29.5 15.5t81 16t120.5 12.5t149 5q46 0 78 -5t52.5 -11t29.5 -11.5t9 -6.5zM146 592q-11 -3 -8 2.5t13 15.5t25.5 22.5t29.5 24t24 19t11 8.5q11 8 21 15
t24 -4q7 -6 21 -19t28.5 -28t25 -29t10.5 -23q0 -12 -14.5 -5t-33 21.5t-36 30t-24.5 20.5q-8 -6 -24 -17.5t-34 -22.5t-34 -20.5t-25 -10.5z" />
    <glyph glyph-name="Edieresis" unicode="&#xcb;" horiz-adv-x="418" 
d="M530 521v-2.5t-10 -0.5q-5 0 -11.5 3t-27.5 7t-63 7t-118 3q-25 0 -58 -3q-5 -11 -16.5 -33.5t-27.5 -53.5t-33.5 -67t-34.5 -72q59 3 122 4.5t125 1.5q4 0 9 -3t8.5 -7t5.5 -7t0 -3q-83 4 -152 2.5t-126 -5.5q-24 -53 -41 -97.5t-17 -67.5q0 -29 16 -49.5t38.5 -33
t47 -18t41.5 -5.5t34.5 1.5t31 3t22 1t8.5 -3.5t-10 -6t-23.5 -5.5t-28 -4t-23.5 -1.5q-30 0 -64 5.5t-63.5 19t-49 37t-19.5 60.5q0 26 12 68.5t30 90.5q-74 -8 -113.5 -16t-42.5 -10q-5 -2 -6.5 -6t-7.5 -4q-5 0 -10 4t-5 8q0 8 14.5 14.5t40 11.5t60.5 9t77 7
q13 34 28 68.5t29 64.5t25.5 53.5t19.5 37.5l-58 -8t-53.5 -8.5t-43 -8.5t-27.5 -7q-7 0 -8.5 3.5t-1.5 5.5q0 7 29.5 15.5t81 16t120.5 12.5t149 5q46 0 78 -5t52.5 -11t29.5 -11.5t9 -6.5zM301 681q2 0 3 -0.5t0 -0.5q-8 0 -14 -13.5t-12 -29t-13.5 -29t-18.5 -13.5
q-7 0 -11.5 7t-4.5 15q0 12 7.5 23.5t18.5 20.5t23.5 14.5t21.5 5.5zM387 681q2 0 3 -0.5t0 -0.5q-8 0 -14 -13.5t-12 -29t-13.5 -29t-18.5 -13.5q-7 0 -11.5 7t-4.5 15q0 12 7.5 23.5t18.5 20.5t23.5 14.5t21.5 5.5z" />
    <glyph glyph-name="Igrave" unicode="&#xcc;" horiz-adv-x="289" 
d="M292 564q0 2 -12 -16.5t-32 -51.5t-45.5 -77t-52.5 -92.5t-53.5 -98.5t-48 -95.5t-36 -83t-18.5 -60.5q-13 0 -29 8t-16 13q0 1 12.5 30.5t32.5 76t46 104t53 115t52.5 109t45.5 85.5q-29 11 4 24q4 2 19.5 8.5t33 11t31 4t13.5 -13.5zM325 595q-37 3 -69 21l-64 36
q-6 9 -8 17t0 13.5t7.5 6t14.5 -5.5q23 -26 55 -51t64 -37z" />
    <glyph glyph-name="Iacute" unicode="&#xcd;" horiz-adv-x="289" 
d="M292 564q0 2 -12 -16.5t-32 -51.5t-45.5 -77t-52.5 -92.5t-53.5 -98.5t-48 -95.5t-36 -83t-18.5 -60.5q-13 0 -29 8t-16 13q0 1 12.5 30.5t32.5 76t46 104t53 115t52.5 109t45.5 85.5q-29 11 4 24q4 2 19.5 8.5t33 11t31 4t13.5 -13.5zM213 592q32 12 64 37t55 51
q9 6 14.5 5.5t7.5 -6t0 -13.5t-8 -17l-64 -36t-69 -21z" />
    <glyph glyph-name="Icircumflex" unicode="&#xce;" horiz-adv-x="289" 
d="M292 564q0 2 -12 -16.5t-32 -51.5t-45.5 -77t-52.5 -92.5t-53.5 -98.5t-48 -95.5t-36 -83t-18.5 -60.5q-13 0 -29 8t-16 13q0 1 12.5 30.5t32.5 76t46 104t53 115t52.5 109t45.5 85.5q-29 11 4 24q4 2 19.5 8.5t33 11t31 4t13.5 -13.5zM148 600q-11 -3 -8 2.5t13 15.5
t25.5 22.5t29.5 24t24 19t11 8.5q11 8 21 15t24 -4q7 -6 21 -19t28.5 -28t25 -29t10.5 -23q0 -12 -14.5 -5t-33 21.5t-36 30t-24.5 20.5q-8 -6 -24 -17.5t-34 -22.5t-34 -20.5t-25 -10.5z" />
    <glyph glyph-name="Idieresis" unicode="&#xcf;" horiz-adv-x="289" 
d="M292 564q0 2 -12 -16.5t-32 -51.5t-45.5 -77t-52.5 -92.5t-53.5 -98.5t-48 -95.5t-36 -83t-18.5 -60.5q-13 0 -29 8t-16 13q0 1 12.5 30.5t32.5 76t46 104t53 115t52.5 109t45.5 85.5q-29 11 4 24q4 2 19.5 8.5t33 11t31 4t13.5 -13.5zM276 685q2 0 3 -0.5t0 -0.5
q-8 0 -14 -13.5t-12 -29t-13.5 -29t-18.5 -13.5q-7 0 -11.5 7t-4.5 15q0 12 7.5 23.5t18.5 20.5t23.5 14.5t21.5 5.5zM362 685q2 0 3 -0.5t0 -0.5q-8 0 -14 -13.5t-12 -29t-13.5 -29t-18.5 -13.5q-7 0 -11.5 7t-4.5 15q0 12 7.5 23.5t18.5 20.5t23.5 14.5t21.5 5.5z" />
    <glyph glyph-name="Eth" unicode="&#xd0;" horiz-adv-x="554" 
d="M250 585q55 1 101.5 -24t80.5 -66t53 -94t20 -108t-19 -108t-64.5 -95t-115.5 -68t-173 -27q-40 0 -76 3q-20 -39 -32 -63.5t-14 -26.5h-10.5t-13 1t-11.5 3t-6 6q0 2 1 27t4 66q-56 13 -86 29t-32 24q0 4 7 0.5t21.5 -10.5t37 -16t53.5 -16q4 47 12.5 106.5t22.5 122
t34.5 122.5t49.5 107t67.5 75.5t87.5 29.5zM-8 -21q1 3 3 7q2 3 4 8t5 11q-3 0 -5.5 1t-5.5 1q-1 -11 -1 -18.5v-9.5zM93 10q97 1 164.5 25.5t109.5 64t61 89.5t19.5 102t-15 102t-42 88.5t-62 62.5t-75.5 24q-47 0 -83.5 -31.5t-64.5 -82t-47.5 -113t-33 -123.5
t-20.5 -114.5t-10 -85.5q4 -1 7.5 -1t7.5 -1q13 27 33 71t43.5 95t48.5 105.5t48 103.5q-17 -2 -27.5 -3t-12.5 -1q-12 0 -12 14q0 7 18 11.5t47 6.5q27 58 46 96.5t21 41.5q2 2 8.5 -2t14 -10t13.5 -13t6 -11q1 -3 -11 -30t-32 -69q29 0 58 -0.5t52 -2.5t37.5 -4.5
t14.5 -5.5q-12 0 -31 -1t-42.5 -2.5t-49.5 -4t-50 -4.5q-20 -43 -44.5 -94t-49.5 -102.5t-49 -101t-44 -89.5q8 -1 15 -0.5t15 0.5z" />
    <glyph glyph-name="Ntilde" unicode="&#xd1;" horiz-adv-x="531" 
d="M237 555q0 -4 -6 -42.5t-12.5 -94t-11.5 -118.5t-3.5 -117t12 -89.5t34.5 -35.5t55.5 31.5t64.5 81t65 110t56.5 118t40 105t15.5 71.5q0 13 1 16t2.5 1t2.5 -8t1 -12q0 -21 -14 -67.5t-38 -105t-55.5 -121t-66 -114t-69.5 -85t-67 -33.5q-26 0 -41.5 20.5t-24 54
t-10.5 77t-0.5 89.5t6 91.5t9.5 82.5q-18 -41 -40.5 -90.5t-46 -100.5t-46.5 -99.5t-41.5 -87t-31 -63.5t-15.5 -28q-20 -3 -35.5 4.5t-16.5 15.5q-1 4 1 14.5l4 21t4.5 17.5t3.5 3q1 -8 1.5 -16.5t4.5 -3.5q1 1 11.5 22t26.5 54.5t36 76t41 86.5t40.5 86t34.5 74.5t24 52.5
t8 20q-2 0 -8.5 -10.5t-14.5 -23t-15 -24.5t-10 -15q-4 -1 -1 8.5t9.5 24t15 32t17.5 32t17 24.5t12 11q3 0 13.5 -2t21.5 -6t20 -8t9 -8zM260 580q-2 0 -2 8v13q0 11 6.5 18.5t16 11.5t19.5 5.5t18 1.5q31 0 72.5 -8t78.5 -8q2 0 7.5 0.5t11.5 2.5t11 5.5t5 9.5t-4.5 11.5
t-9.5 9.5t-7.5 6.5t0.5 2.5q18 0 28.5 -11t10.5 -22q0 -2 -1.5 -7t-6.5 -10.5t-15.5 -9.5t-28.5 -4q-28 0 -45.5 2.5t-32.5 6t-31.5 6t-41.5 2.5t-36.5 -6.5t-16 -15t-4.5 -15t-2 -6.5z" />
    <glyph glyph-name="Ograve" unicode="&#xd2;" 
d="M570 337q-4 -53 -24 -98.5t-51.5 -82.5t-70 -66t-79 -48.5t-80.5 -29.5t-72 -9q-74 1 -115 22t-60.5 49.5t-23 59t-1.5 51.5q4 59 28.5 113.5t60 100t78 80t83.5 52.5q-106 -1 -171.5 -16.5t-103.5 -33.5t-54.5 -33t-24.5 -15q-1 0 -3.5 0.5t-2.5 4.5q0 2 20 21
t65.5 40.5t118.5 38.5t179 15q14 -1 28.5 -1.5t28.5 -2.5q2 0 4 -0.5t4 -0.5q55 -8 100.5 -25.5t77 -44.5t48 -62.5t13.5 -78.5zM369 503q0 -5 -5 -12.5t-11 -14.5t-13 -12t-12 -5q-2 0 0.5 10t5 22t2.5 23t-9 13q-2 0 -2.5 0.5t-2.5 0.5q-22 0 -54 -21.5t-66.5 -56.5
t-67 -79.5t-57 -90.5t-37 -91t-5.5 -80t37.5 -57t90.5 -23q56 -1 108 16.5t96.5 48t79.5 70t55.5 83t26 86.5t-9.5 80.5t-51.5 66t-99.5 41.5q1 -5 1 -10v-8zM444 591q-37 3 -69 21l-64 36q-6 9 -8 17t0 13.5t7.5 6t14.5 -5.5q23 -26 55 -51t64 -37z" />
    <glyph glyph-name="Oacute" unicode="&#xd3;" 
d="M570 337q-4 -53 -24 -98.5t-51.5 -82.5t-70 -66t-79 -48.5t-80.5 -29.5t-72 -9q-74 1 -115 22t-60.5 49.5t-23 59t-1.5 51.5q4 59 28.5 113.5t60 100t78 80t83.5 52.5q-106 -1 -171.5 -16.5t-103.5 -33.5t-54.5 -33t-24.5 -15q-1 0 -3.5 0.5t-2.5 4.5q0 2 20 21
t65.5 40.5t118.5 38.5t179 15q14 -1 28.5 -1.5t28.5 -2.5q2 0 4 -0.5t4 -0.5q55 -8 100.5 -25.5t77 -44.5t48 -62.5t13.5 -78.5zM369 503q0 -5 -5 -12.5t-11 -14.5t-13 -12t-12 -5q-2 0 0.5 10t5 22t2.5 23t-9 13q-2 0 -2.5 0.5t-2.5 0.5q-22 0 -54 -21.5t-66.5 -56.5
t-67 -79.5t-57 -90.5t-37 -91t-5.5 -80t37.5 -57t90.5 -23q56 -1 108 16.5t96.5 48t79.5 70t55.5 83t26 86.5t-9.5 80.5t-51.5 66t-99.5 41.5q1 -5 1 -10v-8zM326 597q32 12 64 37t55 51q9 6 14.5 5.5t7.5 -6t0 -13.5t-8 -17l-64 -36t-69 -21z" />
    <glyph glyph-name="Ocircumflex" unicode="&#xd4;" 
d="M570 337q-4 -53 -24 -98.5t-51.5 -82.5t-70 -66t-79 -48.5t-80.5 -29.5t-72 -9q-74 1 -115 22t-60.5 49.5t-23 59t-1.5 51.5q4 59 28.5 113.5t60 100t78 80t83.5 52.5q-106 -1 -171.5 -16.5t-103.5 -33.5t-54.5 -33t-24.5 -15q-1 0 -3.5 0.5t-2.5 4.5q0 2 20 21
t65.5 40.5t118.5 38.5t179 15q14 -1 28.5 -1.5t28.5 -2.5q2 0 4 -0.5t4 -0.5q55 -8 100.5 -25.5t77 -44.5t48 -62.5t13.5 -78.5zM369 503q0 -5 -5 -12.5t-11 -14.5t-13 -12t-12 -5q-2 0 0.5 10t5 22t2.5 23t-9 13q-2 0 -2.5 0.5t-2.5 0.5q-22 0 -54 -21.5t-66.5 -56.5
t-67 -79.5t-57 -90.5t-37 -91t-5.5 -80t37.5 -57t90.5 -23q56 -1 108 16.5t96.5 48t79.5 70t55.5 83t26 86.5t-9.5 80.5t-51.5 66t-99.5 41.5q1 -5 1 -10v-8zM246 592q-11 -3 -8 2.5t13 15.5t25.5 22.5t29.5 24t24 19t11 8.5q11 8 21 15t24 -4q7 -6 21 -19t28.5 -28t25 -29
t10.5 -23q0 -12 -14.5 -5t-33 21.5t-36 30t-24.5 20.5q-8 -6 -24 -17.5t-34 -22.5t-34 -20.5t-25 -10.5z" />
    <glyph glyph-name="Otilde" unicode="&#xd5;" 
d="M570 337q-4 -53 -24 -98.5t-51.5 -82.5t-70 -66t-79 -48.5t-80.5 -29.5t-72 -9q-74 1 -115 22t-60.5 49.5t-23 59t-1.5 51.5q4 59 28.5 113.5t60 100t78 80t83.5 52.5q-106 -1 -171.5 -16.5t-103.5 -33.5t-54.5 -33t-24.5 -15q-1 0 -3.5 0.5t-2.5 4.5q0 2 20 21
t65.5 40.5t118.5 38.5t179 15q14 -1 28.5 -1.5t28.5 -2.5q2 0 4 -0.5t4 -0.5q55 -8 100.5 -25.5t77 -44.5t48 -62.5t13.5 -78.5zM369 503q0 -5 -5 -12.5t-11 -14.5t-13 -12t-12 -5q-2 0 0.5 10t5 22t2.5 23t-9 13q-2 0 -2.5 0.5t-2.5 0.5q-22 0 -54 -21.5t-66.5 -56.5
t-67 -79.5t-57 -90.5t-37 -91t-5.5 -80t37.5 -57t90.5 -23q56 -1 108 16.5t96.5 48t79.5 70t55.5 83t26 86.5t-9.5 80.5t-51.5 66t-99.5 41.5q1 -5 1 -10v-8zM274 573q-2 0 -2 8v13q0 11 6.5 18.5t16 11.5t19.5 5.5t18 1.5q31 0 72.5 -8t78.5 -8q2 0 7.5 0.5t11.5 2.5
t11 5.5t5 9.5t-4.5 11.5t-9.5 9.5t-7.5 6.5t0.5 2.5q18 0 28.5 -11t10.5 -22q0 -2 -1.5 -7t-6.5 -10.5t-15.5 -9.5t-28.5 -4q-28 0 -45.5 2.5t-32.5 6t-31.5 6t-41.5 2.5t-36.5 -6.5t-16 -15t-4.5 -15t-2 -6.5z" />
    <glyph glyph-name="Odieresis" unicode="&#xd6;" 
d="M570 337q-4 -53 -24 -98.5t-51.5 -82.5t-70 -66t-79 -48.5t-80.5 -29.5t-72 -9q-74 1 -115 22t-60.5 49.5t-23 59t-1.5 51.5q4 59 28.5 113.5t60 100t78 80t83.5 52.5q-106 -1 -171.5 -16.5t-103.5 -33.5t-54.5 -33t-24.5 -15q-1 0 -3.5 0.5t-2.5 4.5q0 2 20 21
t65.5 40.5t118.5 38.5t179 15q14 -1 28.5 -1.5t28.5 -2.5q2 0 4 -0.5t4 -0.5q55 -8 100.5 -25.5t77 -44.5t48 -62.5t13.5 -78.5zM369 503q0 -5 -5 -12.5t-11 -14.5t-13 -12t-12 -5q-2 0 0.5 10t5 22t2.5 23t-9 13q-2 0 -2.5 0.5t-2.5 0.5q-22 0 -54 -21.5t-66.5 -56.5
t-67 -79.5t-57 -90.5t-37 -91t-5.5 -80t37.5 -57t90.5 -23q56 -1 108 16.5t96.5 48t79.5 70t55.5 83t26 86.5t-9.5 80.5t-51.5 66t-99.5 41.5q1 -5 1 -10v-8zM410 683q2 0 3 -0.5t0 -0.5q-8 0 -14 -13.5t-12 -29t-13.5 -29t-18.5 -13.5q-7 0 -11.5 7t-4.5 15q0 12 7.5 23.5
t18.5 20.5t23.5 14.5t21.5 5.5zM496 683q2 0 3 -0.5t0 -0.5q-8 0 -14 -13.5t-12 -29t-13.5 -29t-18.5 -13.5q-7 0 -11.5 7t-4.5 15q0 12 7.5 23.5t18.5 20.5t23.5 14.5t21.5 5.5z" />
    <glyph glyph-name="Oslash" unicode="&#xd8;" 
d="M454 593q0 -5 -7.5 -23t-19.5 -46q69 -26 108.5 -73.5t34.5 -113.5q-4 -53 -24 -98.5t-51.5 -82.5t-70 -66t-79 -48.5t-80.5 -29.5t-72 -9h-15t-14 1q-14 -17 -22.5 -20t-10.5 -3q-1 0 10 26q-55 9 -85.5 30.5t-45 48t-16.5 53.5t-1 46q4 59 28.5 113.5t60 100t78 80
t83.5 52.5q-106 -1 -171.5 -16.5t-103.5 -33.5t-54.5 -33t-24.5 -15q-1 0 -3.5 0.5t-2.5 4.5q0 2 20 21t65.5 40.5t118.5 38.5t179 15q14 -1 28.5 -1.5t28.5 -2.5q2 0 4 -0.5t4 -0.5q10 -2 19.5 -3.5t19.5 -3.5q14 30 22 48t10 20t10.5 0.5t17.5 -4.5t16.5 -7t7.5 -5z
M418 506q-17 -37 -39 -83t-46.5 -95t-48.5 -97.5t-44.5 -89t-36 -69.5t-21.5 -40q-1 -1 -1 -1.5t-1 -1.5q68 2 129.5 31.5t109 74.5t77 99t33 106t-22 96.5t-88.5 69.5zM328 459q-2 0 0.5 10t5 22t2.5 23t-9 13q-2 0 -2.5 0.5t-2.5 0.5q-22 0 -53.5 -21t-65 -55t-66 -77.5
t-57.5 -89t-38 -90t-7.5 -80t32.5 -58.5t83 -27q14 34 36 86t47.5 111t52 120t49.5 114q-3 -2 -7 -2z" />
    <glyph glyph-name="Ugrave" unicode="&#xd9;" horiz-adv-x="547" 
d="M209 574q0 -3 -14.5 -29.5t-37 -68t-49 -93t-50 -105.5t-41.5 -105t-22.5 -90.5t7 -64t46.5 -24.5q28 0 59 13t63.5 35.5t65.5 53t65 65.5q21 54 47 116.5t52 119t49.5 100t38.5 58.5q7 7 18 9t21.5 1.5t18 -4t7.5 -6.5q0 -19 -12 -51.5t-34 -72.5t-51.5 -86t-63.5 -92
q-18 -39 -34 -79.5t-28 -79.5t-19 -75.5t-7 -67.5q0 -9 -7.5 -7t-16 12.5t-16 28t-7.5 39.5q0 8 8.5 36t23.5 68q-32 -34 -64 -63t-62.5 -50t-59.5 -33t-54 -12q-33 0 -52.5 10t-30 26.5t-14 38t-3.5 44.5q0 40 15 93t38 109t50 110.5t51 98t41 71t19 29.5q4 4 11.5 1.5
t15 -7.5t13.5 -11t6 -9zM537 526q-18 -29 -38 -64q-17 -30 -38.5 -70t-43.5 -86q27 37 49 72.5t37.5 64.5t24.5 50.5t9 32.5zM448 594q-37 3 -69 21l-64 36q-6 9 -8 17t0 13.5t7.5 6t14.5 -5.5q23 -26 55 -51t64 -37z" />
    <glyph glyph-name="Uacute" unicode="&#xda;" horiz-adv-x="547" 
d="M209 574q0 -3 -14.5 -29.5t-37 -68t-49 -93t-50 -105.5t-41.5 -105t-22.5 -90.5t7 -64t46.5 -24.5q28 0 59 13t63.5 35.5t65.5 53t65 65.5q21 54 47 116.5t52 119t49.5 100t38.5 58.5q7 7 18 9t21.5 1.5t18 -4t7.5 -6.5q0 -19 -12 -51.5t-34 -72.5t-51.5 -86t-63.5 -92
q-18 -39 -34 -79.5t-28 -79.5t-19 -75.5t-7 -67.5q0 -9 -7.5 -7t-16 12.5t-16 28t-7.5 39.5q0 8 8.5 36t23.5 68q-32 -34 -64 -63t-62.5 -50t-59.5 -33t-54 -12q-33 0 -52.5 10t-30 26.5t-14 38t-3.5 44.5q0 40 15 93t38 109t50 110.5t51 98t41 71t19 29.5q4 4 11.5 1.5
t15 -7.5t13.5 -11t6 -9zM537 526q-18 -29 -38 -64q-17 -30 -38.5 -70t-43.5 -86q27 37 49 72.5t37.5 64.5t24.5 50.5t9 32.5zM326 596q32 12 64 37t55 51q9 6 14.5 5.5t7.5 -6t0 -13.5t-8 -17l-64 -36t-69 -21z" />
    <glyph glyph-name="Ucircumflex" unicode="&#xdb;" horiz-adv-x="547" 
d="M209 574q0 -3 -14.5 -29.5t-37 -68t-49 -93t-50 -105.5t-41.5 -105t-22.5 -90.5t7 -64t46.5 -24.5q28 0 59 13t63.5 35.5t65.5 53t65 65.5q21 54 47 116.5t52 119t49.5 100t38.5 58.5q7 7 18 9t21.5 1.5t18 -4t7.5 -6.5q0 -19 -12 -51.5t-34 -72.5t-51.5 -86t-63.5 -92
q-18 -39 -34 -79.5t-28 -79.5t-19 -75.5t-7 -67.5q0 -9 -7.5 -7t-16 12.5t-16 28t-7.5 39.5q0 8 8.5 36t23.5 68q-32 -34 -64 -63t-62.5 -50t-59.5 -33t-54 -12q-33 0 -52.5 10t-30 26.5t-14 38t-3.5 44.5q0 40 15 93t38 109t50 110.5t51 98t41 71t19 29.5q4 4 11.5 1.5
t15 -7.5t13.5 -11t6 -9zM537 526q-18 -29 -38 -64q-17 -30 -38.5 -70t-43.5 -86q27 37 49 72.5t37.5 64.5t24.5 50.5t9 32.5zM278 603q-11 -3 -8 2.5t13 15.5t25.5 22.5t29.5 24t24 19t11 8.5q11 8 21 15t24 -4q7 -6 21 -19t28.5 -28t25 -29t10.5 -23q0 -12 -14.5 -5
t-33 21.5t-36 30t-24.5 20.5q-8 -6 -24 -17.5t-34 -22.5t-34 -20.5t-25 -10.5z" />
    <glyph glyph-name="Udieresis" unicode="&#xdc;" horiz-adv-x="547" 
d="M209 574q0 -3 -14.5 -29.5t-37 -68t-49 -93t-50 -105.5t-41.5 -105t-22.5 -90.5t7 -64t46.5 -24.5q28 0 59 13t63.5 35.5t65.5 53t65 65.5q21 54 47 116.5t52 119t49.5 100t38.5 58.5q7 7 18 9t21.5 1.5t18 -4t7.5 -6.5q0 -19 -12 -51.5t-34 -72.5t-51.5 -86t-63.5 -92
q-18 -39 -34 -79.5t-28 -79.5t-19 -75.5t-7 -67.5q0 -9 -7.5 -7t-16 12.5t-16 28t-7.5 39.5q0 8 8.5 36t23.5 68q-32 -34 -64 -63t-62.5 -50t-59.5 -33t-54 -12q-33 0 -52.5 10t-30 26.5t-14 38t-3.5 44.5q0 40 15 93t38 109t50 110.5t51 98t41 71t19 29.5q4 4 11.5 1.5
t15 -7.5t13.5 -11t6 -9zM537 526q-18 -29 -38 -64q-17 -30 -38.5 -70t-43.5 -86q27 37 49 72.5t37.5 64.5t24.5 50.5t9 32.5zM383 683q2 0 3 -0.5t0 -0.5q-8 0 -14 -13.5t-12 -29t-13.5 -29t-18.5 -13.5q-7 0 -11.5 7t-4.5 15q0 12 7.5 23.5t18.5 20.5t23.5 14.5t21.5 5.5z
M469 683q2 0 3 -0.5t0 -0.5q-8 0 -14 -13.5t-12 -29t-13.5 -29t-18.5 -13.5q-7 0 -11.5 7t-4.5 15q0 12 7.5 23.5t18.5 20.5t23.5 14.5t21.5 5.5z" />
    <glyph glyph-name="Yacute" unicode="&#xdd;" horiz-adv-x="336" 
d="M152 526q-2 -2 -19.5 -33.5t-41.5 -77t-49.5 -98.5t-43 -98t-22.5 -75t11 -30q19 0 42 22t50 57.5t56 81t61 92.5t65 91.5t67 78.5l1 1q2 1 11.5 0.5t19.5 -3t17.5 -5t6.5 -4.5q-6 -6 -17.5 -37.5t-27.5 -78t-37.5 -104.5t-48 -117t-59 -115.5t-70 -100t-81.5 -70
t-93 -26.5q-41 0 -70.5 9.5t-48.5 22t-27.5 24t-8.5 14.5t2 1l8.5 -9t25 -19.5t41.5 -19.5t58 -9q35 0 69 21.5t65 58t59.5 84.5t53.5 100t47 105.5t39.5 101.5t31 87t22.5 62q-31 -33 -61.5 -76t-60.5 -89.5t-59.5 -91.5t-58.5 -80t-57.5 -57t-55.5 -22q-22 0 -28.5 19.5
t-2 51.5t18.5 72.5t32 83.5t39.5 83.5t40.5 72.5t34.5 51.5t22.5 19.5q10 0 20.5 -6.5t10.5 -16.5zM250 587q32 12 64 37t55 51q9 6 14.5 5.5t7.5 -6t0 -13.5t-8 -17l-64 -36t-69 -21z" />
    <glyph glyph-name="agrave" unicode="&#xe0;" horiz-adv-x="431" 
d="M444 109q-27 -21 -58 -40.5t-61.5 -35t-58.5 -24.5t-49 -9q-20 0 -29 10t-9.5 27t5.5 39t15.5 45.5t21 47.5t22.5 44q-23 -21 -51 -46t-58 -46t-58.5 -35t-52.5 -14q-21 0 -32 7.5t-11 17.5t16 33.5t47 48t75 43t101 18.5q17 0 32 -5l3.5 3.5l3.5 3.5q13 24 13 30
q4 0 11.5 -0.5t15.5 -2t14 -5t6 -8.5q0 -10 -10.5 -31.5t-24.5 -48.5t-29 -55.5t-24 -52t-9.5 -38.5t14.5 -15t39 8.5t52.5 22.5t59.5 33.5t60 42.5zM29 104q0 -5 4.5 -6.5t6.5 -1.5q24 0 50 11.5t52 30t51.5 42t49.5 47.5q-4 2 -8 2h-8q-35 0 -70 -13.5t-63.5 -32.5
t-46.5 -41t-18 -38zM260 288q-37 3 -69 21l-64 36q-6 9 -8 17t0 13.5t7.5 6t14.5 -5.5q23 -26 55 -51t64 -37z" />
    <glyph glyph-name="aacute" unicode="&#xe1;" horiz-adv-x="431" 
d="M444 109q-27 -21 -58 -40.5t-61.5 -35t-58.5 -24.5t-49 -9q-20 0 -29 10t-9.5 27t5.5 39t15.5 45.5t21 47.5t22.5 44q-23 -21 -51 -46t-58 -46t-58.5 -35t-52.5 -14q-21 0 -32 7.5t-11 17.5t16 33.5t47 48t75 43t101 18.5q17 0 32 -5l3.5 3.5l3.5 3.5q13 24 13 30
q4 0 11.5 -0.5t15.5 -2t14 -5t6 -8.5q0 -10 -10.5 -31.5t-24.5 -48.5t-29 -55.5t-24 -52t-9.5 -38.5t14.5 -15t39 8.5t52.5 22.5t59.5 33.5t60 42.5zM29 104q0 -5 4.5 -6.5t6.5 -1.5q24 0 50 11.5t52 30t51.5 42t49.5 47.5q-4 2 -8 2h-8q-35 0 -70 -13.5t-63.5 -32.5
t-46.5 -41t-18 -38zM140 266q32 12 64 37t55 51q9 6 14.5 5.5t7.5 -6t0 -13.5t-8 -17l-64 -36t-69 -21z" />
    <glyph glyph-name="acircumflex" unicode="&#xe2;" horiz-adv-x="431" 
d="M444 109q-27 -21 -58 -40.5t-61.5 -35t-58.5 -24.5t-49 -9q-20 0 -29 10t-9.5 27t5.5 39t15.5 45.5t21 47.5t22.5 44q-23 -21 -51 -46t-58 -46t-58.5 -35t-52.5 -14q-21 0 -32 7.5t-11 17.5t16 33.5t47 48t75 43t101 18.5q17 0 32 -5l3.5 3.5l3.5 3.5q13 24 13 30
q4 0 11.5 -0.5t15.5 -2t14 -5t6 -8.5q0 -10 -10.5 -31.5t-24.5 -48.5t-29 -55.5t-24 -52t-9.5 -38.5t14.5 -15t39 8.5t52.5 22.5t59.5 33.5t60 42.5zM29 104q0 -5 4.5 -6.5t6.5 -1.5q24 0 50 11.5t52 30t51.5 42t49.5 47.5q-4 2 -8 2h-8q-35 0 -70 -13.5t-63.5 -32.5
t-46.5 -41t-18 -38zM68 300q-11 -3 -8 2.5t13 15.5t25.5 22.5t29.5 24t24 19t11 8.5q11 8 21 15t24 -4q7 -6 21 -19t28.5 -28t25 -29t10.5 -23q0 -12 -14.5 -5t-33 21.5t-36 30t-24.5 20.5q-8 -6 -24 -17.5t-34 -22.5t-34 -20.5t-25 -10.5z" />
    <glyph glyph-name="atilde" unicode="&#xe3;" horiz-adv-x="431" 
d="M444 109q-27 -21 -58 -40.5t-61.5 -35t-58.5 -24.5t-49 -9q-20 0 -29 10t-9.5 27t5.5 39t15.5 45.5t21 47.5t22.5 44q-23 -21 -51 -46t-58 -46t-58.5 -35t-52.5 -14q-21 0 -32 7.5t-11 17.5t16 33.5t47 48t75 43t101 18.5q17 0 32 -5l3.5 3.5l3.5 3.5q13 24 13 30
q4 0 11.5 -0.5t15.5 -2t14 -5t6 -8.5q0 -10 -10.5 -31.5t-24.5 -48.5t-29 -55.5t-24 -52t-9.5 -38.5t14.5 -15t39 8.5t52.5 22.5t59.5 33.5t60 42.5zM29 104q0 -5 4.5 -6.5t6.5 -1.5q24 0 50 11.5t52 30t51.5 42t49.5 47.5q-4 2 -8 2h-8q-35 0 -70 -13.5t-63.5 -32.5
t-46.5 -41t-18 -38zM84.8232 271.892q-1.37793 0 -1.37793 5.51172v8.95508q0 7.57812 4.47754 12.7451q4.47852 5.16699 11.0225 7.92188q6.54492 2.75586 13.4336 3.78906q6.88965 1.0332 12.4004 1.0332q21.3564 0 49.9453 -5.51074q28.5898 -5.51074 54.0791 -5.51074
q1.37793 0 5.16699 0.34375q3.78906 0.344727 7.92188 1.72266q4.13379 1.37793 7.57812 3.78906q3.44531 2.41113 3.44531 6.54395q0 4.13379 -3.10059 7.92285q-3.09961 3.78906 -6.54492 6.54492q-3.44434 2.75488 -5.16602 4.47754q-1.72266 1.72168 0.34375 1.72168
q12.4004 0 19.6338 -7.57715q7.2334 -7.57812 7.2334 -15.1562q0 -1.37793 -1.0332 -4.82227t-4.47754 -7.2334t-10.6777 -6.54492q-7.23438 -2.75586 -19.6338 -2.75586q-19.29 0 -31.3457 1.72266t-22.3896 4.13379q-10.333 2.41113 -21.7002 4.13281
q-11.3662 1.72266 -28.5889 1.72266t-25.1455 -4.47754q-7.92188 -4.47852 -11.0225 -10.334q-3.09961 -5.85547 -3.09961 -10.334q0 -4.47754 -1.37793 -4.47754z" />
    <glyph glyph-name="adieresis" unicode="&#xe4;" horiz-adv-x="431" 
d="M444 109q-27 -21 -58 -40.5t-61.5 -35t-58.5 -24.5t-49 -9q-20 0 -29 10t-9.5 27t5.5 39t15.5 45.5t21 47.5t22.5 44q-23 -21 -51 -46t-58 -46t-58.5 -35t-52.5 -14q-21 0 -32 7.5t-11 17.5t16 33.5t47 48t75 43t101 18.5q17 0 32 -5l3.5 3.5l3.5 3.5q13 24 13 30
q4 0 11.5 -0.5t15.5 -2t14 -5t6 -8.5q0 -10 -10.5 -31.5t-24.5 -48.5t-29 -55.5t-24 -52t-9.5 -38.5t14.5 -15t39 8.5t52.5 22.5t59.5 33.5t60 42.5zM29 104q0 -5 4.5 -6.5t6.5 -1.5q24 0 50 11.5t52 30t51.5 42t49.5 47.5q-4 2 -8 2h-8q-35 0 -70 -13.5t-63.5 -32.5
t-46.5 -41t-18 -38zM208 375q2 0 3 -0.5t0 -0.5q-8 0 -14 -13.5t-12 -29t-13.5 -29t-18.5 -13.5q-7 0 -11.5 7t-4.5 15q0 12 7.5 23.5t18.5 20.5t23.5 14.5t21.5 5.5zM294 375q2 0 3 -0.5t0 -0.5q-8 0 -14 -13.5t-12 -29t-13.5 -29t-18.5 -13.5q-7 0 -11.5 7t-4.5 15
q0 12 7.5 23.5t18.5 20.5t23.5 14.5t21.5 5.5z" />
    <glyph glyph-name="aring" unicode="&#xe5;" horiz-adv-x="431" 
d="M444 109q-27 -21 -58 -40.5t-61.5 -35t-58.5 -24.5t-49 -9q-20 0 -29 10t-9.5 27t5.5 39t15.5 45.5t21 47.5t22.5 44q-23 -21 -51 -46t-58 -46t-58.5 -35t-52.5 -14q-21 0 -32 7.5t-11 17.5t16 33.5t47 48t75 43t101 18.5q17 0 32 -5l3.5 3.5l3.5 3.5q13 24 13 30
q4 0 11.5 -0.5t15.5 -2t14 -5t6 -8.5q0 -10 -10.5 -31.5t-24.5 -48.5t-29 -55.5t-24 -52t-9.5 -38.5t14.5 -15t39 8.5t52.5 22.5t59.5 33.5t60 42.5zM29 104q0 -5 4.5 -6.5t6.5 -1.5q24 0 50 11.5t52 30t51.5 42t49.5 47.5q-4 2 -8 2h-8q-35 0 -70 -13.5t-63.5 -32.5
t-46.5 -41t-18 -38zM290 394q0 -36 -28 -65q-29 -29 -64 -29q-23 0 -32.5 15t-8.5 34.5t11.5 38t27.5 26.5q17 32 51 32q19 0 31 -15.5t12 -36.5zM276 392q0 18 -10.5 28.5t-21.5 10.5t-18.5 -5t-10.5 -11q-10 -11 -18 -27.5t-10.5 -31.5t2 -26t20.5 -11q12 0 24 7
t21.5 17.5t15.5 23.5t6 25z" />
    <glyph glyph-name="ae" unicode="&#xe6;" horiz-adv-x="525" 
d="M268 7q24 0 58.5 10t72.5 26.5t77 37t71 42.5l-5 -12q-6 -6 -37.5 -24.5t-73 -38t-86.5 -35t-79 -15.5q-12 0 -27.5 1t-29 5t-22.5 12t-9 23q0 17 6 39t16 45t21 46.5t22 43.5q-23 -21 -51 -46t-58 -46t-58.5 -35t-52.5 -14q-21 0 -32 7.5t-11 17.5t16 33.5t47 48t75 43
t101 18.5q17 0 32 -5l3.5 3.5l3.5 3.5q13 24 13 30q4 0 11.5 -0.5t15.5 -2t14 -5t6 -8.5q0 -6 -4 -17t-11 -25q25 15 52 24t54 9q9 0 16.5 -3t12.5 -12q6 -13 -0.5 -27t-14.5 -23q-13 -14 -30 -24t-34 -18q-54 -23 -109 -32q-8 -11 -14.5 -30t-6.5 -29q0 -14 4.5 -22
t10.5 -12.5t12.5 -6t11.5 -1.5zM427 233q-11 6 -33 -3t-47 -27t-50 -41.5t-42 -44.5q14 3 27.5 6t27.5 8q29 8 58.5 21t49.5 36q7 7 13 21.5t-4 23.5zM40 96q24 0 50 11.5t52 30t51.5 42t49.5 47.5q-4 2 -8 2h-8q-35 0 -70 -13.5t-63.5 -32.5t-46.5 -41t-18 -38
q0 -5 4.5 -6.5t6.5 -1.5z" />
    <glyph glyph-name="ccedilla" unicode="&#xe7;" horiz-adv-x="283" 
d="M294 112q-24 -20 -54.5 -38.5t-62.5 -32.5t-64 -23t-57 -9q-23 0 -37.5 6t-23 15t-12 19.5t-3.5 18.5q0 29 22 62t53 61.5t64.5 47.5t56.5 19q20 0 31 -4.5t16.5 -10.5t6.5 -11.5t1 -7.5q0 -13 -8.5 -23t-20.5 -10q-13 0 -17 4.5t-4 13.5q0 19 10 19q5 0 8.5 1t3.5 6
t-4 5.5t-7 0.5q-9 0 -35 -17.5t-53 -44t-48 -58t-21 -60.5q0 -20 11 -27.5t20 -7.5q25 0 55.5 8t61.5 21.5t60 30.5t51 35v-9zM190.546 54.2227q7.01465 4.66211 11.3008 0.388672q4.28711 -4.27344 -0.389648 -11.2666q-3.89648 -4.66211 -8.96289 -8.54785
q-5.06641 -3.88477 -8.18359 -10.1016q-5.45605 -11.6553 -1.16992 -30.3047q4.28711 -18.6484 11.6914 -39.6289q7.4043 -20.9795 14.4199 -41.5713q7.01465 -20.5918 7.01465 -36.1318q0 -11.6562 -10.9121 -19.4268t-27.2793 -11.6553
q-16.3682 -3.88477 -35.8535 -3.88477t-37.0225 3.88477t-30.0078 11.6553t-15.5879 19.4268q-1.55957 6.21582 2.33789 10.4893q3.89746 4.27441 10.1328 -0.387695q7.79395 -7.77051 22.9922 -13.5986q15.1992 -5.82812 31.5664 -6.99316q16.3682 -1.16602 30.0078 3.1084
q13.6396 4.27344 19.0957 17.4834q5.45605 13.209 0.389648 33.8008q-5.06543 20.5918 -10.9111 42.3486t-7.40527 41.1826q-1.55859 19.4258 10.1328 30.3047q6.23535 5.43945 11.3018 10.1016t11.3018 9.32422z" />
    <glyph glyph-name="egrave" unicode="&#xe8;" horiz-adv-x="314" 
d="M62 7q24 0 58.5 10t72.5 26.5t77 37t71 42.5l-5 -12q-6 -6 -37.5 -24.5t-73 -38t-86.5 -35t-79 -15.5q-13 0 -28 2t-28 8.5t-22 19t-9 33.5q0 23 20.5 55t53 61t73.5 49.5t83 20.5q9 0 16.5 -3t12.5 -12q6 -13 -0.5 -27t-14.5 -23q-13 -14 -30 -24t-34 -18
q-54 -23 -109 -32q-8 -11 -14.5 -30t-6.5 -29q0 -14 4.5 -22t10.5 -12.5t12.5 -6t11.5 -1.5zM208 235q-13 -2 -34 -13t-43.5 -27.5t-44.5 -36.5t-37 -41q14 3 27.5 6t27.5 8q29 8 58.5 21t49.5 36q7 7 13 21.5t-4 23.5q-2 2 -6 3t-7 -1zM232 266q-37 3 -69 21l-64 36
q-6 9 -8 17t0 13.5t7.5 6t14.5 -5.5q23 -26 55 -51t64 -37z" />
    <glyph glyph-name="eacute" unicode="&#xe9;" horiz-adv-x="314" 
d="M62 7q24 0 58.5 10t72.5 26.5t77 37t71 42.5l-5 -12q-6 -6 -37.5 -24.5t-73 -38t-86.5 -35t-79 -15.5q-13 0 -28 2t-28 8.5t-22 19t-9 33.5q0 23 20.5 55t53 61t73.5 49.5t83 20.5q9 0 16.5 -3t12.5 -12q6 -13 -0.5 -27t-14.5 -23q-13 -14 -30 -24t-34 -18
q-54 -23 -109 -32q-8 -11 -14.5 -30t-6.5 -29q0 -14 4.5 -22t10.5 -12.5t12.5 -6t11.5 -1.5zM208 235q-13 -2 -34 -13t-43.5 -27.5t-44.5 -36.5t-37 -41q14 3 27.5 6t27.5 8q29 8 58.5 21t49.5 36q7 7 13 21.5t-4 23.5q-2 2 -6 3t-7 -1zM82 266q32 12 64 37t55 51
q9 6 14.5 5.5t7.5 -6t0 -13.5t-8 -17l-64 -36t-69 -21z" />
    <glyph glyph-name="ecircumflex" unicode="&#xea;" horiz-adv-x="314" 
d="M62 7q24 0 58.5 10t72.5 26.5t77 37t71 42.5l-5 -12q-6 -6 -37.5 -24.5t-73 -38t-86.5 -35t-79 -15.5q-13 0 -28 2t-28 8.5t-22 19t-9 33.5q0 23 20.5 55t53 61t73.5 49.5t83 20.5q9 0 16.5 -3t12.5 -12q6 -13 -0.5 -27t-14.5 -23q-13 -14 -30 -24t-34 -18
q-54 -23 -109 -32q-8 -11 -14.5 -30t-6.5 -29q0 -14 4.5 -22t10.5 -12.5t12.5 -6t11.5 -1.5zM208 235q-13 -2 -34 -13t-43.5 -27.5t-44.5 -36.5t-37 -41q14 3 27.5 6t27.5 8q29 8 58.5 21t49.5 36q7 7 13 21.5t-4 23.5q-2 2 -6 3t-7 -1zM37 296q-11 -3 -8 2.5t13 15.5
t25.5 22.5t29.5 24t24 19t11 8.5q11 8 21 15t24 -4q7 -6 21 -19t28.5 -28t25 -29t10.5 -23q0 -12 -14.5 -5t-33 21.5t-36 30t-24.5 20.5q-8 -6 -24 -17.5t-34 -22.5t-34 -20.5t-25 -10.5z" />
    <glyph glyph-name="edieresis" unicode="&#xeb;" horiz-adv-x="314" 
d="M62 7q24 0 58.5 10t72.5 26.5t77 37t71 42.5l-5 -12q-6 -6 -37.5 -24.5t-73 -38t-86.5 -35t-79 -15.5q-13 0 -28 2t-28 8.5t-22 19t-9 33.5q0 23 20.5 55t53 61t73.5 49.5t83 20.5q9 0 16.5 -3t12.5 -12q6 -13 -0.5 -27t-14.5 -23q-13 -14 -30 -24t-34 -18
q-54 -23 -109 -32q-8 -11 -14.5 -30t-6.5 -29q0 -14 4.5 -22t10.5 -12.5t12.5 -6t11.5 -1.5zM208 235q-13 -2 -34 -13t-43.5 -27.5t-44.5 -36.5t-37 -41q14 3 27.5 6t27.5 8q29 8 58.5 21t49.5 36q7 7 13 21.5t-4 23.5q-2 2 -6 3t-7 -1zM158 377q2 0 3 -0.5t0 -0.5
q-8 0 -14 -13.5t-12 -29t-13.5 -29t-18.5 -13.5q-7 0 -11.5 7t-4.5 15q0 12 7.5 23.5t18.5 20.5t23.5 14.5t21.5 5.5zM244 377q2 0 3 -0.5t0 -0.5q-8 0 -14 -13.5t-12 -29t-13.5 -29t-18.5 -13.5q-7 0 -11.5 7t-4.5 15q0 12 7.5 23.5t18.5 20.5t23.5 14.5t21.5 5.5z" />
    <glyph glyph-name="igrave" unicode="&#xec;" horiz-adv-x="250" 
d="M164 329q-6 -12 -17 -16.5t-22 0.5t-14 17t2 24q6 11 17 15.5t22 -0.5t14 -17t-2 -23zM265 114q-30 -23 -63 -46t-65.5 -41t-63 -29.5t-54.5 -11.5q-28 0 -35 18.5t-1 47t21 62t30 64t27 53t12 27.5q3 0 11 -0.5t16 -2t14 -5t6 -8.5q0 -10 -10.5 -31.5t-24.5 -48.5
t-29 -55.5t-24 -52t-9.5 -38.5t14.5 -15q18 0 43.5 9.5t55.5 25.5t63.5 38t66.5 48zM222 364q-37 3 -69 21l-64 36q-6 9 -8 17t0 13.5t7.5 6t14.5 -5.5q23 -26 55 -51t64 -37z" />
    <glyph glyph-name="iacute" unicode="&#xed;" horiz-adv-x="250" 
d="M164 329q-6 -12 -17 -16.5t-22 0.5t-14 17t2 24q6 11 17 15.5t22 -0.5t14 -17t-2 -23zM265 114q-30 -23 -63 -46t-65.5 -41t-63 -29.5t-54.5 -11.5q-28 0 -35 18.5t-1 47t21 62t30 64t27 53t12 27.5q3 0 11 -0.5t16 -2t14 -5t6 -8.5q0 -10 -10.5 -31.5t-24.5 -48.5
t-29 -55.5t-24 -52t-9.5 -38.5t14.5 -15q18 0 43.5 9.5t55.5 25.5t63.5 38t66.5 48zM77 368q32 12 64 37t55 51q9 6 14.5 5.5t7.5 -6t0 -13.5t-8 -17l-64 -36t-69 -21z" />
    <glyph glyph-name="icircumflex" unicode="&#xee;" horiz-adv-x="250" 
d="M164 329q-6 -12 -17 -16.5t-22 0.5t-14 17t2 24q6 11 17 15.5t22 -0.5t14 -17t-2 -23zM265 114q-30 -23 -63 -46t-65.5 -41t-63 -29.5t-54.5 -11.5q-28 0 -35 18.5t-1 47t21 62t30 64t27 53t12 27.5q3 0 11 -0.5t16 -2t14 -5t6 -8.5q0 -10 -10.5 -31.5t-24.5 -48.5
t-29 -55.5t-24 -52t-9.5 -38.5t14.5 -15q18 0 43.5 9.5t55.5 25.5t63.5 38t66.5 48zM35 340q-11 -3 -8 2.5t13 15.5t25.5 22.5t29.5 24t24 19t11 8.5q11 8 21 15t24 -4q7 -6 21 -19t28.5 -28t25 -29t10.5 -23q0 -12 -14.5 -5t-33 21.5t-36 30t-24.5 20.5q-8 -6 -24 -17.5
t-34 -22.5t-34 -20.5t-25 -10.5z" />
    <glyph glyph-name="idieresis" unicode="&#xef;" horiz-adv-x="250" 
d="M164 329q-6 -12 -17 -16.5t-22 0.5t-14 17t2 24q6 11 17 15.5t22 -0.5t14 -17t-2 -23zM265 114q-30 -23 -63 -46t-65.5 -41t-63 -29.5t-54.5 -11.5q-28 0 -35 18.5t-1 47t21 62t30 64t27 53t12 27.5q3 0 11 -0.5t16 -2t14 -5t6 -8.5q0 -10 -10.5 -31.5t-24.5 -48.5
t-29 -55.5t-24 -52t-9.5 -38.5t14.5 -15q18 0 43.5 9.5t55.5 25.5t63.5 38t66.5 48zM150 464q2 0 3 -0.5t0 -0.5q-8 0 -14 -13.5t-12 -29t-13.5 -29t-18.5 -13.5q-7 0 -11.5 7t-4.5 15q0 12 7.5 23.5t18.5 20.5t23.5 14.5t21.5 5.5zM236 464q2 0 3 -0.5t0 -0.5
q-8 0 -14 -13.5t-12 -29t-13.5 -29t-18.5 -13.5q-7 0 -11.5 7t-4.5 15q0 12 7.5 23.5t18.5 20.5t23.5 14.5t21.5 5.5z" />
    <glyph glyph-name="eth" unicode="&#xf0;" horiz-adv-x="377" 
d="M38 -16q30 0 60 24t58 63t53 88.5t46 100.5t36.5 98t24.5 82q-15 -12 -41.5 -33t-57.5 -42t-63 -39t-57.5 -24.5t-40 2.5t-10.5 41q3 24 30.5 54.5t67 58t86 46t86.5 18.5q6 0 15.5 -2.5t18.5 -8t15 -15t5 -22.5q-1 -14 -9.5 -47t-22 -75.5t-31 -90.5t-38.5 -93
t-44.5 -83t-47.5 -59q-33 -29 -76 -42t-88 -12q-31 0 -54.5 8t-39.5 17.5t-24.5 18l-9.5 9.5q-2 2 -1.5 4.5t3.5 -0.5q13 -16 31.5 -25t39 -13.5t41.5 -5.5t39 -1zM93 338q12 -14 42 -2.5t65 33.5t68.5 47t51.5 40q9 41 5 47q-10 12 -34 7.5t-53.5 -18.5t-59.5 -35.5
t-52.5 -44t-33 -42.5t0.5 -32z" />
    <glyph glyph-name="ntilde" unicode="&#xf1;" horiz-adv-x="387" 
d="M392 114q7 7 8 3.5t-3 -7.5q-21 -21 -53 -44t-67 -43t-68 -33t-55 -13q-12 0 -24 9t-12 30q0 18 11.5 47.5t23.5 58t19.5 49t0.5 20.5q-9 0 -24 -11.5t-32.5 -29.5t-37 -40t-36 -42.5t-29 -37t-16.5 -24.5q-1 -2 -1 -4q-1 -1 -7 -1t-12.5 1.5t-12 3.5t-5.5 5
q0 2 7.5 19.5t18.5 43.5t23.5 55.5t23.5 55.5t18.5 44t7.5 21q4 0 12 -0.5t15.5 -2.5t13.5 -5t6 -8q0 -4 -9.5 -24.5t-23.5 -49t-29.5 -59.5l-27.5 -55q15 20 42.5 52t57 62t56 51.5t41.5 21.5q17 0 23.5 -6t6.5 -14q0 -6 -11.5 -33t-25.5 -60.5t-25.5 -65.5t-10.5 -46
q0 -5 3 -8.5t8 -3.5q20 0 49.5 12t59.5 30t57.5 38.5t44.5 37.5zM94.5479 268.339q-1.25195 0 -1.25195 5.06641v8.23438q0 6.9668 4.06836 11.7168t10.0146 7.28418q5.94629 2.5332 12.2051 3.4834q6.25977 0.950195 11.2666 0.950195q19.4033 0 45.3789 -5.06738
t49.1348 -5.06738q1.25195 0 4.69434 0.317383q3.44238 0.316406 7.19727 1.58301q3.75586 1.2666 6.88574 3.4834t3.12988 6.01758q0 3.7998 -2.81738 7.2832q-2.81641 3.4834 -5.94629 6.0166q-3.12891 2.53418 -4.69434 4.11719q-1.56445 1.58398 0.313477 1.58398
q11.2666 0 17.8389 -6.96777q6.57129 -6.9668 6.57129 -13.9336q0 -1.2666 -0.938477 -4.43359t-4.06836 -6.65039t-9.70215 -6.0166t-17.8379 -2.5332q-17.5264 0 -28.4795 1.58301t-20.3428 3.7998q-9.38867 2.2168 -19.7158 3.80078q-10.3271 1.58301 -25.9756 1.58301
q-15.6475 0 -22.8457 -4.11719q-7.19824 -4.11621 -10.0146 -9.5t-2.81641 -9.5q0 -4.11719 -1.25195 -4.11719z" />
    <glyph glyph-name="ograve" unicode="&#xf2;" horiz-adv-x="294" 
d="M304 107q4 2 5.5 -2.5t-3.5 -6.5q-23 -9 -49.5 -7t-48.5 16q-14 -20 -32.5 -38t-40.5 -31.5t-46 -22t-49 -8.5q-32 0 -45 17.5t-11.5 43.5t16 57t37.5 57t53 43.5t63 17.5q12 0 14 -4q10 12 24 12t25 -13t15.5 -33t0.5 -44t-19 -47q14 -8 31 -11q15 -3 30.5 -2.5
t29.5 6.5zM165 235q-20 6 -42.5 -11t-41.5 -45t-31 -61t-11 -60q1 -16 9 -25t28 -8q17 1 36 10t36.5 22t32 27.5t21.5 25.5q-14 8 -24 24t-15 34.5t-5 36.5t7 30zM207 118q10 15 14 36t1.5 41t-10 34t-20.5 14q-14 0 -19.5 -16t-3.5 -37t11.5 -42t26.5 -30zM222 266
q-37 3 -69 21l-64 36q-6 9 -8 17t0 13.5t7.5 6t14.5 -5.5q23 -26 55 -51t64 -37z" />
    <glyph glyph-name="oacute" unicode="&#xf3;" horiz-adv-x="294" 
d="M304 107q4 2 5.5 -2.5t-3.5 -6.5q-23 -9 -49.5 -7t-48.5 16q-14 -20 -32.5 -38t-40.5 -31.5t-46 -22t-49 -8.5q-32 0 -45 17.5t-11.5 43.5t16 57t37.5 57t53 43.5t63 17.5q12 0 14 -4q10 12 24 12t25 -13t15.5 -33t0.5 -44t-19 -47q14 -8 31 -11q15 -3 30.5 -2.5
t29.5 6.5zM165 235q-20 6 -42.5 -11t-41.5 -45t-31 -61t-11 -60q1 -16 9 -25t28 -8q17 1 36 10t36.5 22t32 27.5t21.5 25.5q-14 8 -24 24t-15 34.5t-5 36.5t7 30zM207 118q10 15 14 36t1.5 41t-10 34t-20.5 14q-14 0 -19.5 -16t-3.5 -37t11.5 -42t26.5 -30zM72 266
q32 12 64 37t55 51q9 6 14.5 5.5t7.5 -6t0 -13.5t-8 -17l-64 -36t-69 -21z" />
    <glyph glyph-name="ocircumflex" unicode="&#xf4;" horiz-adv-x="294" 
d="M304 107q4 2 5.5 -2.5t-3.5 -6.5q-23 -9 -49.5 -7t-48.5 16q-14 -20 -32.5 -38t-40.5 -31.5t-46 -22t-49 -8.5q-32 0 -45 17.5t-11.5 43.5t16 57t37.5 57t53 43.5t63 17.5q12 0 14 -4q10 12 24 12t25 -13t15.5 -33t0.5 -44t-19 -47q14 -8 31 -11q15 -3 30.5 -2.5
t29.5 6.5zM165 235q-20 6 -42.5 -11t-41.5 -45t-31 -61t-11 -60q1 -16 9 -25t28 -8q17 1 36 10t36.5 22t32 27.5t21.5 25.5q-14 8 -24 24t-15 34.5t-5 36.5t7 30zM207 118q10 15 14 36t1.5 41t-10 34t-20.5 14q-14 0 -19.5 -16t-3.5 -37t11.5 -42t26.5 -30zM31 291
q-11 -3 -8 2.5t13 15.5t25.5 22.5t29.5 24t24 19t11 8.5q11 8 21 15t24 -4q7 -6 21 -19t28.5 -28t25 -29t10.5 -23q0 -12 -14.5 -5t-33 21.5t-36 30t-24.5 20.5q-8 -6 -24 -17.5t-34 -22.5t-34 -20.5t-25 -10.5z" />
    <glyph glyph-name="otilde" unicode="&#xf5;" horiz-adv-x="294" 
d="M304 107q4 2 5.5 -2.5t-3.5 -6.5q-23 -9 -49.5 -7t-48.5 16q-14 -20 -32.5 -38t-40.5 -31.5t-46 -22t-49 -8.5q-32 0 -45 17.5t-11.5 43.5t16 57t37.5 57t53 43.5t63 17.5q12 0 14 -4q10 12 24 12t25 -13t15.5 -33t0.5 -44t-19 -47q14 -8 31 -11q15 -3 30.5 -2.5
t29.5 6.5zM165 235q-20 6 -42.5 -11t-41.5 -45t-31 -61t-11 -60q1 -16 9 -25t28 -8q17 1 36 10t36.5 22t32 27.5t21.5 25.5q-14 8 -24 24t-15 34.5t-5 36.5t7 30zM207 118q10 15 14 36t1.5 41t-10 34t-20.5 14q-14 0 -19.5 -16t-3.5 -37t11.5 -42t26.5 -30zM18 249
q-2 0 -2 8v13q0 11 6.5 18.5t16 11.5t19.5 5.5t18 1.5q31 0 72.5 -8t78.5 -8q2 0 7.5 0.5t11.5 2.5t11 5.5t5 9.5t-4.5 11.5t-9.5 9.5t-7.5 6.5t0.5 2.5q18 0 28.5 -11t10.5 -22q0 -2 -1.5 -7t-6.5 -10.5t-15.5 -9.5t-28.5 -4q-28 0 -45.5 2.5t-32.5 6t-31.5 6t-41.5 2.5
t-36.5 -6.5t-16 -15t-4.5 -15t-2 -6.5z" />
    <glyph glyph-name="odieresis" unicode="&#xf6;" horiz-adv-x="294" 
d="M304 107q4 2 5.5 -2.5t-3.5 -6.5q-23 -9 -49.5 -7t-48.5 16q-14 -20 -32.5 -38t-40.5 -31.5t-46 -22t-49 -8.5q-32 0 -45 17.5t-11.5 43.5t16 57t37.5 57t53 43.5t63 17.5q12 0 14 -4q10 12 24 12t25 -13t15.5 -33t0.5 -44t-19 -47q14 -8 31 -11q15 -3 30.5 -2.5
t29.5 6.5zM165 235q-20 6 -42.5 -11t-41.5 -45t-31 -61t-11 -60q1 -16 9 -25t28 -8q17 1 36 10t36.5 22t32 27.5t21.5 25.5q-14 8 -24 24t-15 34.5t-5 36.5t7 30zM207 118q10 15 14 36t1.5 41t-10 34t-20.5 14q-14 0 -19.5 -16t-3.5 -37t11.5 -42t26.5 -30zM182 374
q2 0 3 -0.5t0 -0.5q-8 0 -14 -13.5t-12 -29t-13.5 -29t-18.5 -13.5q-7 0 -11.5 7t-4.5 15q0 12 7.5 23.5t18.5 20.5t23.5 14.5t21.5 5.5zM268 374q2 0 3 -0.5t0 -0.5q-8 0 -14 -13.5t-12 -29t-13.5 -29t-18.5 -13.5q-7 0 -11.5 7t-4.5 15q0 12 7.5 23.5t18.5 20.5t23.5 14.5
t21.5 5.5z" />
    <glyph glyph-name="oslash" unicode="&#xf8;" horiz-adv-x="294" 
d="M307 107q4 2 5.5 -2.5t-3.5 -6.5q-23 -9 -49.5 -7t-48.5 16q-22 -30 -56.5 -56t-73.5 -37q-6 -12 -11 -20.5t-7 -13.5q-13 -23 -21.5 -27.5t-10.5 -4.5q-1 0 6 16.5t19 43.5q-5 -1 -10.5 -1h-10.5q-20 0 -31 8t-16.5 18.5t-7 20.5t-1.5 13q0 31 18 62.5t44.5 56.5
t57.5 41t57 16h1q18 42 30.5 70t14.5 30q1 1 6.5 0.5t11.5 -2.5t10.5 -4.5t4.5 -3.5q0 -5 -10 -27.5t-26 -55.5q13 -2 23 -15.5t13.5 -33t-0.5 -42.5t-19 -45q14 -8 31 -11q15 -3 30.5 -2.5t29.5 6.5zM33 70q0 -23 8 -32.5t22 -11.5q18 43 41.5 97.5t45.5 102.5
q-15 -7 -35 -19.5t-38 -31.5t-31 -45t-13 -60zM89 28q16 4 34 14t34 22t29 24t19 22q-15 9 -25.5 28t-15.5 40zM210 118q10 15 14 36t2 40.5t-10 33.5t-20 15l-12 -24t-12 -26q2 -22 11 -43.5t27 -31.5z" />
    <glyph glyph-name="ugrave" unicode="&#xf9;" horiz-adv-x="429" 
d="M447 122q-28 -23 -59 -50.5t-62 -51.5t-59 -40t-50 -16q-24 0 -32 15t-5.5 39.5t13 55t23.5 60.5t26.5 57l22.5 45q-35 -37 -65.5 -81t-60.5 -81.5t-59.5 -63t-61.5 -25.5q-27 0 -33.5 21t-0.5 52.5t21 68t32.5 68t33.5 52.5t24 21q4 0 11.5 -1t15 -2.5t13.5 -4.5t6 -6
q-2 -2 -14 -21.5t-28 -47.5t-32.5 -60.5t-28 -60t-13.5 -46t11 -18.5q22 0 47.5 25.5t55 63.5t63.5 83.5t73 85.5l2 6h5h2q11 -1 25.5 -4t14.5 -12q0 -10 -11 -33.5t-25.5 -53.5t-30.5 -62t-25.5 -59t-10.5 -44t14 -17q16 0 40 15t52 37.5t59 49.5t61 51v-10zM279 280
q-37 3 -69 21l-64 36q-6 9 -8 17t0 13.5t7.5 6t14.5 -5.5q23 -26 55 -51t64 -37z" />
    <glyph glyph-name="uacute" unicode="&#xfa;" horiz-adv-x="429" 
d="M447 122q-28 -23 -59 -50.5t-62 -51.5t-59 -40t-50 -16q-24 0 -32 15t-5.5 39.5t13 55t23.5 60.5t26.5 57l22.5 45q-35 -37 -65.5 -81t-60.5 -81.5t-59.5 -63t-61.5 -25.5q-27 0 -33.5 21t-0.5 52.5t21 68t32.5 68t33.5 52.5t24 21q4 0 11.5 -1t15 -2.5t13.5 -4.5t6 -6
q-2 -2 -14 -21.5t-28 -47.5t-32.5 -60.5t-28 -60t-13.5 -46t11 -18.5q22 0 47.5 25.5t55 63.5t63.5 83.5t73 85.5l2 6h5h2q11 -1 25.5 -4t14.5 -12q0 -10 -11 -33.5t-25.5 -53.5t-30.5 -62t-25.5 -59t-10.5 -44t14 -17q16 0 40 15t52 37.5t59 49.5t61 51v-10zM157 274
q32 12 64 37t55 51q9 6 14.5 5.5t7.5 -6t0 -13.5t-8 -17l-64 -36t-69 -21z" />
    <glyph glyph-name="ucircumflex" unicode="&#xfb;" horiz-adv-x="429" 
d="M447 122q-28 -23 -59 -50.5t-62 -51.5t-59 -40t-50 -16q-24 0 -32 15t-5.5 39.5t13 55t23.5 60.5t26.5 57l22.5 45q-35 -37 -65.5 -81t-60.5 -81.5t-59.5 -63t-61.5 -25.5q-27 0 -33.5 21t-0.5 52.5t21 68t32.5 68t33.5 52.5t24 21q4 0 11.5 -1t15 -2.5t13.5 -4.5t6 -6
q-2 -2 -14 -21.5t-28 -47.5t-32.5 -60.5t-28 -60t-13.5 -46t11 -18.5q22 0 47.5 25.5t55 63.5t63.5 83.5t73 85.5l2 6h5h2q11 -1 25.5 -4t14.5 -12q0 -10 -11 -33.5t-25.5 -53.5t-30.5 -62t-25.5 -59t-10.5 -44t14 -17q16 0 40 15t52 37.5t59 49.5t61 51v-10zM116 307
q-11 -3 -8 2.5t13 15.5t25.5 22.5t29.5 24t24 19t11 8.5q11 8 21 15t24 -4q7 -6 21 -19t28.5 -28t25 -29t10.5 -23q0 -12 -14.5 -5t-33 21.5t-36 30t-24.5 20.5q-8 -6 -24 -17.5t-34 -22.5t-34 -20.5t-25 -10.5z" />
    <glyph glyph-name="udieresis" unicode="&#xfc;" horiz-adv-x="429" 
d="M447 122q-28 -23 -59 -50.5t-62 -51.5t-59 -40t-50 -16q-24 0 -32 15t-5.5 39.5t13 55t23.5 60.5t26.5 57l22.5 45q-35 -37 -65.5 -81t-60.5 -81.5t-59.5 -63t-61.5 -25.5q-27 0 -33.5 21t-0.5 52.5t21 68t32.5 68t33.5 52.5t24 21q4 0 11.5 -1t15 -2.5t13.5 -4.5t6 -6
q-2 -2 -14 -21.5t-28 -47.5t-32.5 -60.5t-28 -60t-13.5 -46t11 -18.5q22 0 47.5 25.5t55 63.5t63.5 83.5t73 85.5l2 6h5h2q11 -1 25.5 -4t14.5 -12q0 -10 -11 -33.5t-25.5 -53.5t-30.5 -62t-25.5 -59t-10.5 -44t14 -17q16 0 40 15t52 37.5t59 49.5t61 51v-10zM224 381
q2 0 3 -0.5t0 -0.5q-8 0 -14 -13.5t-12 -29t-13.5 -29t-18.5 -13.5q-7 0 -11.5 7t-4.5 15q0 12 7.5 23.5t18.5 20.5t23.5 14.5t21.5 5.5zM310 381q2 0 3 -0.5t0 -0.5q-8 0 -14 -13.5t-12 -29t-13.5 -29t-18.5 -13.5q-7 0 -11.5 7t-4.5 15q0 12 7.5 23.5t18.5 20.5t23.5 14.5
t21.5 5.5z" />
    <glyph glyph-name="yacute" unicode="&#xfd;" horiz-adv-x="426" 
d="M449 136q4 2 4.5 -2t-11.5 -10q-3 -2 -22 -10.5t-48.5 -20.5t-66.5 -26.5t-76 -27.5q-2 -1 -3 -1t-3 -1q-20 -47 -42.5 -96.5t-47.5 -96t-51.5 -88.5t-54 -73t-55 -49t-53.5 -18q-9 0 -22 4t-25 14.5t-20.5 28t-8.5 44.5q0 61 29.5 110.5t75 88t101.5 67.5t110 50
q18 41 34.5 79.5t30 71.5t23 58t14.5 39q-36 -37 -68.5 -82.5t-63.5 -85.5t-61 -67t-63 -27q-27 0 -33.5 21t-0.5 52.5t21 68t32.5 68t33.5 52.5t24 21q3 0 10.5 -1t15 -2.5t13.5 -4.5t6 -6q-1 -2 -13 -21.5t-28 -47.5t-33 -60.5t-28 -60t-13.5 -46t10.5 -18.5q23 0 49 26
t56 65.5t65 85.5t75 86v1q6 0 14 -1t15.5 -2.5t12.5 -5t5 -7.5q0 -2 -6.5 -20t-18 -48.5t-27.5 -70.5l-34 -85q56 18 113.5 40.5t107.5 47.5zM-98 -368q25 0 56 33.5t64 87.5t67 121t64 134q-50 -23 -100.5 -53.5t-91.5 -70.5t-67 -90t-26 -111q0 -15 4 -25t9.5 -15.5t11 -8
t9.5 -2.5zM160 292q32 12 64 37t55 51q9 6 14.5 5.5t7.5 -6t0 -13.5t-8 -17l-64 -36t-69 -21z" />
    <glyph glyph-name="ydieresis" unicode="&#xff;" horiz-adv-x="426" 
d="M449 136q4 2 4.5 -2t-11.5 -10q-3 -2 -22 -10.5t-48.5 -20.5t-66.5 -26.5t-76 -27.5q-2 -1 -3 -1t-3 -1q-20 -47 -42.5 -96.5t-47.5 -96t-51.5 -88.5t-54 -73t-55 -49t-53.5 -18q-9 0 -22 4t-25 14.5t-20.5 28t-8.5 44.5q0 61 29.5 110.5t75 88t101.5 67.5t110 50
q18 41 34.5 79.5t30 71.5t23 58t14.5 39q-36 -37 -68.5 -82.5t-63.5 -85.5t-61 -67t-63 -27q-27 0 -33.5 21t-0.5 52.5t21 68t32.5 68t33.5 52.5t24 21q3 0 10.5 -1t15 -2.5t13.5 -4.5t6 -6q-1 -2 -13 -21.5t-28 -47.5t-33 -60.5t-28 -60t-13.5 -46t10.5 -18.5q23 0 49 26
t56 65.5t65 85.5t75 86v1q6 0 14 -1t15.5 -2.5t12.5 -5t5 -7.5q0 -2 -6.5 -20t-18 -48.5t-27.5 -70.5l-34 -85q56 18 113.5 40.5t107.5 47.5zM-98 -368q25 0 56 33.5t64 87.5t67 121t64 134q-50 -23 -100.5 -53.5t-91.5 -70.5t-67 -90t-26 -111q0 -15 4 -25t9.5 -15.5t11 -8
t9.5 -2.5zM212 398q2 0 3 -0.5t0 -0.5q-8 0 -14 -13.5t-12 -29t-13.5 -29t-18.5 -13.5q-7 0 -11.5 7t-4.5 15q0 12 7.5 23.5t18.5 20.5t23.5 14.5t21.5 5.5zM298 398q2 0 3 -0.5t0 -0.5q-8 0 -14 -13.5t-12 -29t-13.5 -29t-18.5 -13.5q-7 0 -11.5 7t-4.5 15q0 12 7.5 23.5
t18.5 20.5t23.5 14.5t21.5 5.5z" />
    <glyph glyph-name="dotlessi" unicode="&#x131;" horiz-adv-x="250" 
d="M265 114q-30 -23 -63 -46t-65.5 -41t-63 -29.5t-54.5 -11.5q-28 0 -35 18.5t-1 47t21 62t30 64t27 53t12 27.5q3 0 11 -0.5t16 -2t14 -5t6 -8.5q0 -10 -10.5 -31.5t-24.5 -48.5t-29 -55.5t-24 -52t-9.5 -38.5t14.5 -15q18 0 43.5 9.5t55.5 25.5t63.5 38t66.5 48z" />
    <glyph glyph-name="Lslash" unicode="&#x141;" horiz-adv-x="336" 
d="M239 544q0 -8 -8 -29.5t-22 -51.5t-32 -66.5t-38 -76.5q27 16 52 30t43.5 24.5t30 17t13.5 6.5t6 -4t7.5 -9.5t6 -10t1.5 -5.5q-2 -3 -19 -13t-43 -24.5t-58.5 -31.5t-66.5 -34q-23 -45 -45 -88.5t-39 -79t-27.5 -59.5t-10.5 -31q0 -19 25.5 -27.5t64.5 -11.5t85 -1
t87 5.5t71 7t36 3.5q9 0 -13 -4.5t-63.5 -10.5t-95.5 -10.5t-109 -4.5q-56 0 -92.5 14.5t-36.5 37.5q0 16 6.5 39t17.5 51.5t25 61t30 65.5q-35 -17 -60.5 -29.5t-35.5 -16.5q-26 -12 -36 -10.5t-12 3.5l13.5 8t36.5 22t53 31.5t63 37.5q20 41 40 79.5t35.5 70t25.5 54
t10 30.5q-1 -1 -6.5 -8t-13.5 -16t-18.5 -19t-22.5 -18q-8 -6 -5 0t12.5 18.5t23.5 29t27 32t24 27.5t14 15q5 0 12.5 -2.5t14 -6t11.5 -7t5 -4.5z" />
    <glyph glyph-name="lslash" unicode="&#x142;" horiz-adv-x="307" 
d="M323 115q-28 -20 -69.5 -46.5t-86.5 -50.5t-88 -40.5t-74 -16.5q-16 0 -21.5 13.5t-2.5 37.5t13 56t25 69q-25 -13 -33 -16q-26 -12 -36 -10.5t-12 3.5q12 7 27 16q13 8 30.5 18.5t38.5 22.5q24 55 52 112t52 104.5t40 79.5t16 37q4 0 12 -0.5t16 -2t14 -5t6 -8.5
q0 -8 -12 -34t-31 -63.5t-43 -83.5t-47 -92q39 23 78 45.5t70.5 40.5t52 29.5t22.5 11.5t6 -4t7.5 -9.5t6 -10t1.5 -5.5q-3 -4 -30 -19.5t-66.5 -36.5t-85 -44.5t-85.5 -43.5q-19 -39 -35 -74t-25.5 -61.5t-11 -42t8.5 -15.5q19 0 55.5 13t79 34t87 48t80.5 55z" />
    <glyph glyph-name="OE" unicode="&#x152;" horiz-adv-x="865" 
d="M977 521v-2.5t-10 -0.5q-5 0 -11.5 3t-27.5 7t-63 7t-118 3q-25 0 -58 -3q-5 -11 -16.5 -33.5t-27.5 -53.5t-33.5 -67t-34.5 -72q59 3 122 4.5t125 1.5q4 0 9 -3t8.5 -7t5.5 -7t0 -3q-83 4 -152 2.5t-126 -5.5q-5 -10 -9 -19.5t-8 -19.5q-2 -6 -5 -12t-5 -11
q-14 -34 -22.5 -60.5t-8.5 -42.5q0 -29 16 -49.5t38.5 -33t47 -18t41.5 -5.5t34.5 1.5t31 3t22 1t8.5 -3.5t-10 -6t-23.5 -5.5t-28 -4t-23.5 -1.5q-30 0 -64 5.5t-63.5 19t-49 37t-19.5 60.5q-31 -30 -67 -53.5t-73 -39.5t-72 -24t-64 -8q-74 1 -115 22t-60.5 49.5t-23 59
t-1.5 51.5q4 59 28.5 113.5t60 100t78 80t83.5 52.5q-106 -1 -171.5 -16.5t-103.5 -33.5t-54.5 -33t-24.5 -15q-1 0 -3.5 0.5t-2.5 4.5q0 2 20 21t65.5 40.5t118.5 38.5t179 15q14 -1 28.5 -1.5t28.5 -2.5q2 0 4 -0.5t4 -0.5q32 -5 60.5 -12.5t53.5 -18.5q18 6 52.5 13
t82 12.5t105.5 9t123 3.5q46 0 78 -5t52.5 -11t29.5 -11.5t9 -6.5zM163 29q51 -1 99.5 14t90.5 41t76.5 61t57.5 74q5 16 11 33t13 35q-37 -4 -56 -2.5t-19 5t20 8t62 7.5q2 6 5 12.5t5 12.5q6 51 -14.5 95.5t-75.5 71.5q-7 0 -9 5q-25 11 -61 19q1 -5 1 -10v-8
q0 -5 -5 -12.5t-11 -14.5t-13 -12t-12 -5q-2 0 0.5 10t5 22t2.5 23t-9 13q-2 0 -2.5 0.5t-2.5 0.5q-22 0 -54 -21.5t-66.5 -56.5t-67 -79.5t-57 -90.5t-37 -91t-5.5 -80t37.5 -57t90.5 -23zM560 406q19 41 34.5 73.5t25.5 49.5q-43 -5 -83.5 -11.5t-67.5 -12.5
q33 -19 56.5 -43.5t34.5 -55.5z" />
    <glyph glyph-name="oe" unicode="&#x153;" horiz-adv-x="504" 
d="M245 7q24 0 58.5 10t72.5 26.5t77 37t71 42.5l-5 -12q-6 -6 -37.5 -24.5t-73 -38t-86.5 -35t-79 -15.5q-12 0 -26.5 1.5t-27 7t-22 16.5t-11.5 29q-27 -20 -58 -32.5t-63 -12.5q-20 0 -31 8t-16.5 18.5t-7 20.5t-1.5 13q0 31 18 62.5t44.5 56.5t57.5 41t57 16q12 0 14 -4
q10 12 24 12q17 0 29.5 -19.5t13.5 -47.5q32 26 70.5 44.5t78.5 18.5q9 0 16.5 -3t12.5 -12q6 -13 -0.5 -27t-14.5 -23q-13 -14 -30 -24t-34 -18q-54 -23 -108 -32q5 -2 9.5 -3t9.5 -2q15 -3 30.5 -2.5t29.5 6.5q4 2 5.5 -2.5t-3.5 -6.5q-20 -8 -43.5 -7.5t-43.5 10.5
q-6 -12 -11 -28t-5 -24q0 -14 4.5 -22t10.5 -12.5t12.5 -6t11.5 -1.5zM185 129q-9 11 -14.5 25.5t-8 29.5t-1 28.5t6.5 22.5q-7 -3 -29 -13.5t-45.5 -30.5t-42 -50t-18.5 -71q0 -27 12 -36.5t30 -8t39.5 12.5t41.5 25q0 14 7.5 31t21.5 35zM391 235q-13 -2 -34 -13
t-43.5 -27.5t-44.5 -36.5t-37 -41q14 3 27.5 6t27.5 8q29 8 58.5 21t49.5 36q7 7 13 21.5t-4 23.5q-2 1 -4.5 2t-4.5 1q-3 0 -4 -1zM195 243q-11 0 -17 -11.5t-6.5 -28t4 -35t14.5 -32.5q8 10 17 19.5t19 18.5q1 26 -7 47.5t-24 21.5z" />
    <glyph glyph-name="Scaron" unicode="&#x160;" horiz-adv-x="544" 
d="M526 532q0 -21 -13.5 -44.5t-34 -47t-45 -45t-45 -38t-35 -26.5t-15.5 -10q-1 -1 -6 -1t-10 1t-9.5 3t-4.5 4q0 6 13 19t32.5 30.5t42.5 38.5t42.5 43t32.5 44t13 42q0 14 -27 17t-67 -3t-87 -21t-87 -37t-67 -49.5t-27 -58.5q0 -20 22 -49.5t55 -63t71 -68.5t71 -66.5
t55 -56.5t22 -39q0 -28 -36 -44t-90 -21t-117 0.5t-117 21t-90 40.5t-36 59q1 1 2 0q0 -30 31 -51.5t77.5 -35t101 -18.5t101 -2t77.5 14t31 30q0 10 -21 32.5t-52.5 52t-68 63.5t-68 68t-52.5 66t-21 57q0 22 19.5 45.5t51.5 45.5t73 41.5t84 34t84 22.5t73 7t51.5 -12
t19.5 -34zM144 707q17 -2 36 -11t37 -21.5t34.5 -27t29.5 -26.5q51 42 83.5 62t39.5 20t7 -10q0 -5 -21.5 -14.5t-51.5 -34.5q-31 -25 -43 -44t-19 -20l-6 3q-20 22 -51 48.5t-74 58.5q-8 8 -9 11.5t8 5.5z" />
    <glyph glyph-name="scaron" unicode="&#x161;" horiz-adv-x="240" 
d="M250 109q5 2 6 -2t-3 -6q-45 -15 -98 -27t-99 -22q1 -18 1.5 -32.5t-0.5 -23.5q-4 -45 -34.5 -70t-68.5 -25q-22 0 -37 9.5t-21.5 24t-3 32.5t18.5 36q10 12 24.5 20t29.5 13q8 3 17 6t18 5v65.5t2 46.5q3 31 13 61.5t28.5 54.5t45 39.5t61.5 16.5q15 0 24 -4.5
t13.5 -10.5t5.5 -11.5t1 -8.5q-1 -14 -16 -30t-36 -31t-42.5 -27t-36.5 -19q-2 -8 -3 -17.5t-2 -20.5q-2 -25 -2.5 -47.5t0.5 -42.5q45 10 97.5 22t96.5 26zM162 315q-2 0 -13.5 -4t-27 -16t-31 -34.5t-24.5 -59.5q11 4 30 14.5t37.5 25t33 30t15.5 28.5q1 7 -1.5 10.5
t-5.5 5t-7 1t-6 -0.5zM-86 -8q-10 -16 -11 -29t4.5 -22t15.5 -13.5t21 -4.5q18 1 34.5 15.5t19.5 49.5q1 9 1 22t1 28q-8 -2 -16.5 -5t-16.5 -6q-15 -5 -29.5 -13t-23.5 -22zM-6 477q17 -2 36 -11t37 -21.5t34.5 -27t29.5 -26.5q51 42 83.5 62t39.5 20t7 -10
q0 -5 -21.5 -14.5t-51.5 -34.5q-31 -25 -43 -44t-19 -20l-6 3q-20 22 -51 48.5t-74 58.5q-8 8 -9 11.5t8 5.5z" />
    <glyph glyph-name="Ydieresis" unicode="&#x178;" horiz-adv-x="336" 
d="M152 526q-2 -2 -19.5 -33.5t-41.5 -77t-49.5 -98.5t-43 -98t-22.5 -75t11 -30q19 0 42 22t50 57.5t56 81t61 92.5t65 91.5t67 78.5l1 1q2 1 11.5 0.5t19.5 -3t17.5 -5t6.5 -4.5q-6 -6 -17.5 -37.5t-27.5 -78t-37.5 -104.5t-48 -117t-59 -115.5t-70 -100t-81.5 -70
t-93 -26.5q-41 0 -70.5 9.5t-48.5 22t-27.5 24t-8.5 14.5t2 1l8.5 -9t25 -19.5t41.5 -19.5t58 -9q35 0 69 21.5t65 58t59.5 84.5t53.5 100t47 105.5t39.5 101.5t31 87t22.5 62q-31 -33 -61.5 -76t-60.5 -89.5t-59.5 -91.5t-58.5 -80t-57.5 -57t-55.5 -22q-22 0 -28.5 19.5
t-2 51.5t18.5 72.5t32 83.5t39.5 83.5t40.5 72.5t34.5 51.5t22.5 19.5q10 0 20.5 -6.5t10.5 -16.5zM243 665q2 0 3 -0.5t0 -0.5q-8 0 -14 -13.5t-12 -29t-13.5 -29t-18.5 -13.5q-7 0 -11.5 7t-4.5 15q0 12 7.5 23.5t18.5 20.5t23.5 14.5t21.5 5.5zM329 665q2 0 3 -0.5
t0 -0.5q-8 0 -14 -13.5t-12 -29t-13.5 -29t-18.5 -13.5q-7 0 -11.5 7t-4.5 15q0 12 7.5 23.5t18.5 20.5t23.5 14.5t21.5 5.5z" />
    <glyph glyph-name="Zcaron" unicode="&#x17d;" horiz-adv-x="767" 
d="M256 707q17 -2 36 -11t37 -21.5t34.5 -27t29.5 -26.5q51 42 83.5 62t39.5 20t7 -10q0 -5 -21.5 -14.5t-51.5 -34.5q-31 -25 -43 -44t-19 -20l-6 3q-20 22 -51 48.5t-74 58.5q-8 8 -9 11.5t8 5.5z" />
    <glyph glyph-name="zcaron" unicode="&#x17e;" horiz-adv-x="330" 
d="M347 112q-28 -14 -75.5 -34.5t-101.5 -38.5q-2 -1 -3 -1t-3 -1q-19 -47 -42 -96.5t-48 -96t-51.5 -88.5t-54 -73t-55 -49t-53.5 -18q-9 0 -22 4t-25 14.5t-20.5 28.5t-8.5 45q0 61 29.5 110t75 87.5t101.5 67.5t110 50q10 23 19.5 44.5t18.5 41.5q-44 -17 -79 -27.5
t-52 -10.5q-6 0 -16.5 3t-10.5 13q0 8 11 24t28 35.5t36.5 40.5t36.5 39.5t28 31.5t11 18t-22.5 6t-49.5 -1q-32 -2 -71 -5q0 -13 -5.5 -19.5t-10.5 -6.5q-2 0 -6 6t-8 14t-7 16t-3 11q0 2 3.5 5t8.5 3q4 0 10 -1.5t23 -3t49.5 -3t89.5 -1.5q2 0 7 -0.5t10.5 -3t10 -7.5
t4.5 -15q0 -11 -10 -27.5t-25 -36t-33 -38.5t-33 -34.5t-25 -26l-10 -10.5q0 -7 5 -7q27 0 49.5 7.5t41 17t35 17t32.5 7.5q11 0 10 -6t-3 -10q-8 -20 -13.5 -36t-15.5 -39q45 15 89.5 33.5t86.5 38.5zM-157 -368q25 0 56 33.5t64 87.5t67 121t64 134q-50 -23 -100.5 -53.5
t-91.5 -70.5t-67 -89.5t-26 -110.5q0 -15 4 -25t9.5 -16t11 -8.5t9.5 -2.5zM39 477q17 -2 36 -11t37 -21.5t34.5 -27t29.5 -26.5q51 42 83.5 62t39.5 20t7 -10q0 -5 -21.5 -14.5t-51.5 -34.5q-31 -25 -43 -44t-19 -20l-6 3q-20 22 -51 48.5t-74 58.5q-8 8 -9 11.5t8 5.5z
" />
    <glyph glyph-name="florin" unicode="&#x192;" horiz-adv-x="227" 
d="M316 608q9 0 21 -3.5t23 -12.5t20 -24t11 -38q-2 2 -5.5 2h-6.5q-9 0 -12 -1v9q0 30 -13 41t-21 11q-21 0 -47.5 -26t-55 -69t-58.5 -98.5t-58 -114.5q5 1 10.5 1.5t10.5 2.5q22 4 42.5 6.5t28.5 2.5q15 2 25 0.5t22 -5.5q-12 -4 -21.5 -6t-23.5 -4q-8 -1 -28.5 -3.5
t-41.5 -6.5q-20 -3 -32 -6q-25 -54 -48 -108t-46 -110q56 18 114 42.5t108 49.5q4 2 4 -2t-11 -10q-3 -2 -22.5 -11t-49 -22t-66.5 -28t-76 -28q-2 0 -6 -2q-19 -47 -42 -96.5t-48 -96t-51.5 -88.5t-53.5 -73t-54.5 -49t-53.5 -18q-9 0 -22.5 4t-25.5 14.5t-20.5 28.5
t-8.5 45q0 61 29.5 110t75 87.5t102 67.5t110.5 50q4 10 15 36t22.5 54t20.5 50t10 24l14 34t15 34q-23 -5 -49 -7t-37 3q-16 3 -23 17q-6 11 -1 24q5 -13 10.5 -18t17.5 -8q7 -2 26.5 -2t41.5 4q5 1 11 2t11 2q28 63 61 123t67.5 107.5t69.5 76.5t69 29zM-314 -368
q25 0 56 33.5t64.5 87.5t67 121t63.5 134q-50 -23 -100.5 -53.5t-91.5 -70.5t-67 -89.5t-26 -110.5q0 -15 4 -25t9.5 -16t11 -8.5t9.5 -2.5z" />
    <glyph glyph-name="circumflex" unicode="&#x2c6;" horiz-adv-x="393" 
d="M102 340q-11 -3 -8 2.5t13 15.5t25.5 22.5t29.5 24t24 19t11 8.5q11 8 21 15t24 -4q7 -6 21 -19t28.5 -28t25 -29t10.5 -23q0 -12 -14.5 -5t-33 21.5t-36 30t-24.5 20.5q-8 -6 -24 -17.5t-34 -22.5t-34 -20.5t-25 -10.5z" />
    <glyph glyph-name="caron" unicode="&#x2c7;" horiz-adv-x="370" 
d="M64 477q17 -2 36 -11t37 -21.5t34.5 -27t29.5 -26.5q51 42 83.5 62t39.5 20t7 -10q0 -5 -21.5 -14.5t-51.5 -34.5q-31 -25 -43 -44t-19 -20l-6 3q-20 22 -51 48.5t-74 58.5q-8 8 -9 11.5t8 5.5z" />
    <glyph glyph-name="breve" unicode="&#x2d8;" horiz-adv-x="184" 
d="M123 366q-14 0 -27.5 5t-24.5 14t-18 21.5t-7 28.5q0 10 6 10q4 0 12 -15q11 -18 29.5 -35.5t41.5 -17.5q33 0 52.5 21.5t38.5 53.5q3 6 5.5 8t-1.5 -9q-40 -85 -107 -85z" />
    <glyph glyph-name="dotaccent" unicode="&#x2d9;" horiz-adv-x="176" 
d="M131 571q2 0 3 -0.5t0 -0.5q-8 0 -14 -13.5t-12 -29t-13.5 -29t-18.5 -13.5q-7 0 -11.5 7t-4.5 15q0 12 7.5 23.5t18.5 20.5t23.5 14.5t21.5 5.5z" />
    <glyph glyph-name="ring" unicode="&#x2da;" horiz-adv-x="229" 
d="M176 527q0 -36 -28 -65q-29 -29 -64 -29q-23 0 -32.5 15t-8.5 34.5t11.5 38t27.5 26.5q17 32 51 32q19 0 31 -15.5t12 -36.5zM162 525q0 18 -10.5 28.5t-21.5 10.5t-18.5 -5t-10.5 -11q-10 -11 -18 -27.5t-10.5 -31.5t2 -26t20.5 -11q12 0 24 7t21.5 17.5t15.5 23.5t6 25
z" />
    <glyph glyph-name="ogonek" unicode="&#x2db;" horiz-adv-x="237" 
d="M201 -110q0 -7 -12 -15.5t-30 -14.5t-39.5 -9.5t-39.5 -1t-30 12t-12 28.5q0 20 7.5 40t19.5 36.5t26 28t28 13.5l3 -3q-26 -17 -45 -39.5t-19 -48.5q0 -20 7.5 -29t19.5 -11t27 1.5t30 8t27.5 8.5t20.5 4q11 0 11 -9z" />
    <glyph glyph-name="tilde" unicode="&#x2dc;" horiz-adv-x="358" 
d="M52 190q-2 0 -2 8v13q0 11 6.5 18.5t16 11.5t19.5 5.5t18 1.5q31 0 72.5 -8t78.5 -8q2 0 7.5 0.5t11.5 2.5t11 5.5t5 9.5t-4.5 11.5t-9.5 9.5t-7.5 6.5t0.5 2.5q18 0 28.5 -11t10.5 -22q0 -2 -1.5 -7t-6.5 -10.5t-15.5 -9.5t-28.5 -4q-28 0 -45.5 2.5t-32.5 6t-31.5 6
t-41.5 2.5t-36.5 -6.5t-16 -15t-4.5 -15t-2 -6.5z" />
    <glyph glyph-name="hungarumlaut" unicode="&#x2dd;" horiz-adv-x="442" 
d="M150 472q-4 0 -7 4.5t-1 8.5q10 33 16 51t9 26.5t4.5 10.5t2.5 2q6 0 13 -13q6 -11 4 -19q0 -2 -6 -13.5t-13 -24.5t-13.5 -23t-8.5 -10zM265 472q-4 0 -7 4.5t-1 8.5q10 33 16 51t9 26.5t4.5 10.5t2.5 2q6 0 13 -13q6 -11 4 -19q0 -2 -6 -13.5t-13 -24.5t-13.5 -23
t-8.5 -10z" />
    <glyph glyph-name="endash" unicode="&#x2013;" horiz-adv-x="669" 
d="M71 219q0 11 38.5 20t96 15t125 9.5t125 3.5t96 -3t38.5 -10q-26 0 -72.5 -4t-100.5 -10t-110.5 -13t-102.5 -13t-77 -10t-34 -4q-10 0 -16 4t-6 15z" />
    <glyph glyph-name="emdash" unicode="&#x2014;" horiz-adv-x="739" 
d="M71 219q0 8 26 15t68.5 13t97 10t111.5 6.5t111.5 3.5t97 -0.5t68.5 -4.5t26 -8q-27 0 -79.5 -4t-116 -10t-131 -13t-123.5 -13t-93.5 -10t-40.5 -4q-10 0 -16 4t-6 15z" />
    <glyph glyph-name="quoteleft" unicode="&#x2018;" horiz-adv-x="93" 
d="M12 430q0 12 8 27.5t19.5 29.5t24.5 23.5t24 9.5q6 0 2 -4.5t-11.5 -12t-15 -18t-7.5 -22.5q0 -6 4.5 -10.5t9.5 -9t9 -9t4 -8.5q0 -30 -29 -30q-14 0 -28 9.5t-14 24.5z" />
    <glyph glyph-name="quoteright" unicode="&#x2019;" horiz-adv-x="106" 
d="M105 486q0 -12 -8 -27.5t-19.5 -29.5t-25 -23.5t-23.5 -9.5q-6 0 -2 4.5t11.5 12t15 18t7.5 22.5q0 6 -4.5 10.5t-9.5 9t-9 8.5t-4 9q0 30 29 30q14 0 28 -9.5t14 -24.5z" />
    <glyph glyph-name="quotesinglbase" unicode="&#x201a;" horiz-adv-x="124" 
d="M118 48q0 -12 -8 -27.5t-19.5 -29.5t-25 -23.5t-23.5 -9.5q-6 0 -2 4.5t11.5 12t15 18t7.5 22.5q0 6 -4.5 10.5t-9.5 9t-9 8.5t-4 9q0 30 29 30q14 0 28 -9.5t14 -24.5z" />
    <glyph glyph-name="quotedblleft" unicode="&#x201c;" horiz-adv-x="192" 
d="M112 431q0 12 8 27.5t19.5 29.5t24.5 23.5t24 9.5q6 0 2 -4.5t-11.5 -12t-15 -18t-7.5 -22.5q0 -6 4.5 -10.5t9.5 -9t9 -9t4 -8.5q0 -30 -29 -30q-14 0 -28 9.5t-14 24.5zM12 430q0 12 8 27.5t19.5 29.5t24.5 23.5t24 9.5q6 0 2 -4.5t-11.5 -12t-15 -18t-7.5 -22.5
q0 -6 4.5 -10.5t9.5 -9t9 -9t4 -8.5q0 -30 -29 -30q-14 0 -28 9.5t-14 24.5z" />
    <glyph glyph-name="quotedblright" unicode="&#x201d;" horiz-adv-x="206" 
d="M105 486q0 -12 -8 -27.5t-19.5 -29.5t-25 -23.5t-23.5 -9.5q-6 0 -2 4.5t11.5 12t15 18t7.5 22.5q0 6 -4.5 10.5t-9.5 9t-9 8.5t-4 9q0 30 29 30q14 0 28 -9.5t14 -24.5zM205 487q0 -12 -8 -27.5t-19.5 -29.5t-25 -23.5t-23.5 -9.5q-6 0 -2 4.5t11.5 12t15 18t7.5 22.5
q0 6 -4.5 10.5t-9.5 9t-9 8.5t-4 9q0 30 29 30q14 0 28 -9.5t14 -24.5z" />
    <glyph glyph-name="quotedblbase" unicode="&#x201e;" horiz-adv-x="211" 
d="M118 48q0 -12 -8 -27.5t-19.5 -29.5t-25 -23.5t-23.5 -9.5q-6 0 -2 4.5t11.5 12t15 18t7.5 22.5q0 6 -4.5 10.5t-9.5 9t-9 8.5t-4 9q0 30 29 30q14 0 28 -9.5t14 -24.5zM208 48q0 -12 -8 -27.5t-19.5 -29.5t-25 -23.5t-23.5 -9.5q-6 0 -2 4.5t11.5 12t15 18t7.5 22.5
q0 6 -4.5 10.5t-9.5 9t-9 8.5t-4 9q0 30 29 30q14 0 28 -9.5t14 -24.5z" />
    <glyph glyph-name="dagger" unicode="&#x2020;" horiz-adv-x="354" 
d="M348 389q-16 0 -45 -2t-63 -5q-27 -54 -55 -109.5t-52 -103.5t-42.5 -83.5t-25.5 -47.5q-11 -19 -19.5 -29t-15 -15t-11 -6t-5.5 -1t14 36t39 92.5t53.5 125.5t58.5 136q-22 -2 -41.5 -3.5t-35 -3t-25 -2.5t-10.5 -1q-12 0 -12 14q0 5 11 9t30 6.5t43 4t50 1.5
q19 43 35.5 81t29.5 67t21 46t10 19t10.5 0.5t17.5 -4.5t16.5 -7t7.5 -5q0 -5 -7 -22t-19 -43.5t-28 -60.5t-34 -72q41 -2 70 -4.5t29 -7.5z" />
    <glyph glyph-name="daggerdbl" unicode="&#x2021;" horiz-adv-x="354" 
d="M163 227q24 1 46.5 1.5t39.5 0t27.5 -2t10.5 -4.5q-6 0 -19 -1t-31 -2.5t-39.5 -3.5t-43.5 -5q-32 -62 -56.5 -109.5t-32.5 -62.5q-11 -19 -19.5 -29t-15 -15t-11 -6t-5.5 -1t6 17t19 46.5t29 69t36 83.5q-29 -5 -50.5 -10t-26.5 -10q-2 -2 -3.5 -6t-6.5 -4t-7.5 4
t-2.5 8q0 14 31.5 23.5t73.5 14.5q13 29 25.5 58.5t25.5 58.5q-35 -3 -58.5 -5.5t-25.5 -2.5q-10 0 -10 11q0 8 30.5 12.5t72.5 6.5q21 49 41 94.5t35.5 80t25 55.5t11.5 23t10.5 0.5t17.5 -4.5t16.5 -7t7.5 -5q0 -5 -8.5 -26t-23 -53t-34 -72.5t-40.5 -83.5h48t40.5 -1
t28 -3t10.5 -4q-16 0 -54.5 -3t-81.5 -7l-30 -60t-29 -59z" />
    <glyph glyph-name="bullet" unicode="&#x2022;" horiz-adv-x="383" 
d="M307 237q0 -47 -33 -80q-34 -32 -78 -32q-46 0 -80 32q-32 34 -32 80q0 44 32 78q33 33 80 33q45 0 78 -33t33 -78z" />
    <glyph glyph-name="ellipsis" unicode="&#x2026;" horiz-adv-x="414" 
d="M118 29q0 -12 -13 -21t-25 -9q-17 0 -29.5 10.5t-12.5 24.5q0 29 38 29q14 0 28 -9.5t14 -24.5zM256 29q0 -12 -13 -21t-25 -9q-17 0 -29.5 10.5t-12.5 24.5q0 29 38 29q14 0 28 -9.5t14 -24.5zM394 29q0 -12 -13 -21t-25 -9q-17 0 -29.5 10.5t-12.5 24.5q0 29 38 29
q14 0 28 -9.5t14 -24.5z" />
    <glyph glyph-name="perthousand" unicode="&#x2030;" horiz-adv-x="509" 
d="M389 595q-1 -8 -23.5 -48t-57 -97.5t-75 -123.5t-78 -125.5t-66 -104.5t-38.5 -59q-13 -18 -23 -28.5t-17 -15t-11.5 -5.5t-5.5 -1t13 26.5t37.5 70t54 99t62.5 113.5t63 114t56 100t41 72t18 30q3 2 11 0.5t17 -5t15.5 -7.5t6.5 -5zM348 193q8 7 18 13q8 5 19 11t24 11
l6 6q2 3 8 -1q16 6 31 6t23.5 -5.5t13 -13.5t5.5 -17t1 -16q0 -26 -13.5 -55.5t-33 -56.5t-43 -47t-43 -27.5t-33 2t-13.5 41.5q0 30 10 57.5t23.5 50.5t28 41t23.5 29q-11 -5 -24.5 -11.5t-30.5 -17.5zM89 563q8 7 18 13q8 5 19 11t24 11l6 6q2 3 8 -1q16 6 31 6t23.5 -5.5
t13 -13.5t5.5 -17t1 -16q0 -26 -13.5 -55.5t-33 -56.5t-43 -47t-43 -27.5t-33 2t-13.5 41.5q0 30 10 57.5t23.5 50.5t28 41t23.5 29q-11 -5 -24.5 -11.5t-30.5 -17.5zM185 193q8 7 18 13q8 5 19 11t24 11l6 6q2 3 8 -1q16 6 31 6t23.5 -5.5t13 -13.5t5.5 -17t1 -16
q0 -26 -13.5 -55.5t-33 -56.5t-43 -47t-43 -27.5t-33 2t-13.5 41.5q0 30 10 57.5t23.5 50.5t28 41t23.5 29q-11 -5 -24.5 -11.5t-30.5 -17.5zM432 226q0 -3 -14 -20.5t-31.5 -43t-31.5 -55.5t-14 -58q0 -25 11 -32t27.5 0t36 25t36 42t27.5 52t11 55q0 25 -15 33.5t-25 8.5
q-7 0 -22 -3zM269 226q0 -3 -14 -20.5t-31.5 -43t-31.5 -55.5t-14 -58q0 -25 11 -32t27.5 0t36 25t36 42t27.5 52t11 55q0 25 -15 33.5t-25 8.5q-7 0 -22 -3zM173 596q0 -3 -14 -20.5t-31.5 -43t-31.5 -55.5t-14 -58q0 -25 11 -32t27.5 0t36 25t36 42t27.5 52t11 55
q0 25 -15 33.5t-25 8.5q-7 0 -22 -3z" />
    <glyph glyph-name="guilsinglleft" unicode="&#x2039;" horiz-adv-x="303" 
d="M85 250q0 5 9 20.5t22.5 36t30 43.5t32 42t27.5 31.5t17 12.5q6 0 6 -6q0 -8 -27.5 -46t-77.5 -107q49 -63 76.5 -96t27.5 -38q0 -15 -11 -13q-14 9 -29.5 23t-32.5 30t-34 32.5t-33 28.5q-3 1 -3 6z" />
    <glyph glyph-name="guilsinglright" unicode="&#x203a;" horiz-adv-x="296" 
d="M229 250q0 -5 -3 -6q-16 -12 -33 -28.5t-34 -32.5t-33 -30t-29 -23q-11 -2 -11 13q0 5 27.5 38t76.5 96q-50 69 -77.5 107t-27.5 46q0 6 6 6q5 0 17 -12.5t27.5 -31.5t32 -42t30 -43.5t22.5 -36t9 -20.5z" />
    <glyph glyph-name="fraction" unicode="&#x2044;" horiz-adv-x="354" 
d="M337 599q0 -6 -10.5 -30.5t-27.5 -61.5t-39.5 -83.5t-46.5 -94.5t-47.5 -95.5t-44 -87.5t-35.5 -68.5t-21 -39.5q-11 -19 -19.5 -29t-15 -15t-11 -6t-5.5 -1t10 26.5t29.5 70t42 99.5t48.5 114.5t49.5 114.5t44.5 100.5t32.5 72.5t14.5 30t10.5 0.5t17.5 -4.5t16.5 -7
t7.5 -5z" />
    <glyph glyph-name="Euro" unicode="&#x20ac;" horiz-adv-x="392" 
d="M-31 149q0 12 25 21t60 14q6 40 23 85q-28 -2 -46 -4t-20 -2q-10 0 -10 11q0 7 24.5 11t60.5 7q21 48 52 93.5t68 80t77.5 55.5t81.5 21q21 0 36 -6.5t24.5 -16t13.5 -20.5t3 -21q-2 -25 -21.5 -46.5t-44.5 -37.5t-50.5 -25.5t-39.5 -9.5q-9 0 9 7.5t43.5 23t48.5 40
t25 57.5q0 4 -0.5 10t-3 11.5t-7 9.5t-10.5 4q-29 0 -62.5 -17.5t-66 -48.5t-62.5 -72t-52 -89h52.5t45.5 -1t32 -3t12 -4q-9 0 -25 -1t-36 -2.5t-43.5 -4t-46.5 -4.5q-8 -20 -15 -41.5t-12 -43.5q26 2 50.5 2.5t44 0t31 -2t11.5 -4.5q-6 0 -20 -1t-33.5 -2.5t-42 -4
t-45.5 -5.5q-5 -27 -6 -54q0 -10 2 -27.5t12 -34.5t30 -29.5t56 -12.5q24 0 47.5 8.5t44 20t36.5 24.5t27 22t15 12t-1 -5q-1 -2 -15 -16.5t-36.5 -31t-51.5 -30t-62 -14.5q-32 0 -60.5 9.5t-49.5 28.5t-33 48t-11 68q0 2 0.5 3t0.5 3q-25 -5 -42 -9t-22 -9q-2 -2 -3.5 -6
t-6.5 -4t-7.5 4t-2.5 8z" />
    <glyph glyph-name="trademark" unicode="&#x2122;" horiz-adv-x="600" 
d="M572 612q2 0 10 -4t8 -6t-8.5 -17t-21.5 -37.5t-28.5 -51t-28.5 -56.5t-21.5 -53.5t-8.5 -43.5q0 -6 -4.5 -2t-4.5 12q0 28 7.5 57.5t19 58t25 53.5t25.5 45q-14 -17 -38 -44.5t-49 -53.5t-47 -45t-32 -19q-12 0 -12 17q0 7 6.5 23t15.5 35.5t20 40t19.5 37.5l14 28
t4.5 11q-4 0 -20 -17t-37.5 -42t-45.5 -55t-44.5 -56t-34.5 -44.5t-16 -20.5q-2 -1 -10.5 -1t-8.5 8q0 10 9 36t21 54t24 51.5t17 29.5v7q0 1 3 8.5t7.5 17.5t10 21.5t9.5 19.5q-36 -1 -71 -3.5t-66 -5.5q0 -3 -9.5 -23t-22.5 -48.5t-28.5 -62t-28.5 -62.5t-22 -49.5
t-9 -24.5l-4 -2t-8.5 -2.5t-8.5 1.5t-4 9q0 4 7 22t18 43t25 54.5t27.5 57t24.5 50t18 34.5q-54 -6 -86.5 -11.5t-33.5 -6.5q-5 0 -6 -2.5t-3 -2.5q-4 0 -6.5 2.5t-2.5 4.5q0 6 28.5 12.5t73 11.5t99 9.5t106.5 6.5l2 2q1 0 7 -2q23 1 44.5 1.5t40.5 0.5q5 0 10.5 -7t4.5 -7
q-22 1 -43.5 1.5t-43.5 -0.5q-2 -5 -14 -31.5t-28.5 -61t-33 -70t-26.5 -59.5q9 12 25 33t35.5 45t40.5 49t39 45t31.5 33t18.5 13q2 0 11 -4.5t9 -13.5q0 -5 -6.5 -20t-16 -34t-20 -39.5t-18.5 -38t-12 -28.5t0 -11t17.5 13t32.5 32t40 42.5t40 44.5t32.5 36.5t17.5 20.5
l1 1v0z" />
    <glyph glyph-name="minus" unicode="&#x2212;" horiz-adv-x="421" 
d="M65 171q0 7 21.5 12t54.5 7t70.5 2t70.5 -1.5t54.5 -4.5t21.5 -7q-14 0 -40 -1.5t-56.5 -4t-62.5 -5.5t-58.5 -5.5t-44 -4t-19.5 -1.5q-12 0 -12 14z" />
    <glyph glyph-name="T.swsh" unicode="&#xe000;" horiz-adv-x="668" 
d="M178 228q17 1 22 -0.5t2 -4t-12.5 -5t-21.5 -2.5q-29 1 -58 6q-25 5 -49 14t-45 24q-20 14 -34 33.5t-21 43.5q-10 34 -4 66q4 27 16.5 50t31.5 41.5t42 32.5t47 24q47 17 95.5 24.5t97.5 9.5q51 2 100 -2t98 -10q97 -14 194 -32t195 -23q44 -2 88 0t88 13
q19 5 38.5 11.5t34.5 19.5q8 8 13 18t3 22q-1 3 3.5 4.5t10 1.5t10.5 -1.5t6 -4.5v-1q2 -13 -3.5 -23.5t-14.5 -18.5q-14 -14 -33 -22t-38 -13q-46 -13 -93 -17t-95 -2q-27 1 -63.5 4.5t-76 8.5t-80 11t-74.5 12v-1q-1 -1 -1 -1.5t-1 -1.5q-39 -80 -73 -162.5t-77 -160.5
q-17 -29 -42.5 -68.5t-63.5 -75t-89 -60t-118 -24.5q-28 0 -52.5 6.5t-42.5 19.5t-28.5 33.5t-10.5 47.5q0 26 12 49t34 42l7 -11q-27 -27 -35 -57.5t2.5 -56.5t38 -43.5t71.5 -17.5q56 0 101.5 29t83 76t69 106.5t59.5 120.5t54 118.5t54 100.5q-11 2 -19.5 3.5t-14.5 2.5
q-7 1 -13 2q-48 8 -96.5 12.5t-97.5 3.5q-47 0 -93.5 -5.5t-91.5 -22.5q-31 -11 -59.5 -28.5t-48.5 -44.5q-11 -16 -19 -33t-11 -37q-4 -33 5 -66q11 -34 37 -57.5t59 -35.5q20 -7 44.5 -11t46.5 -4z" />
    <glyph glyph-name="T.salt" unicode="&#xe002;" horiz-adv-x="668" 
d="M1213 582q2 -13 -3.5 -23.5t-14.5 -18.5q-14 -14 -33 -22t-38 -13q-46 -13 -93 -17t-95 -2q-85 3 -168 16.5t-168 27.5l-8 -18q-7 -19 -29 -66.5t-50 -108.5t-59 -127t-57 -123t-43 -97t-17 -48q0 -3 -8 -7t-18 -5t-18 3.5t-8 19.5q0 8 14.5 44.5t37 88.5t51 113t56 120
t52 109t39.5 79l16 31h-4q-48 8 -96.5 12.5t-97.5 3.5q-47 0 -93.5 -5.5t-91.5 -22.5q-31 -11 -59.5 -28.5t-48.5 -44.5q-11 -16 -19 -33t-11 -37q-4 -33 5 -66q7 -23 21 -41t34 -31q33 -22 72 -28.5t68 -6.5q16 0 37.5 3.5t40.5 12.5t32 24t13 37v8.5t-1 8.5q-1 3 3.5 4.5
t10 1.5t10.5 -1.5t6 -4.5q1 -5 1.5 -9t-0.5 -8q-1 -18 -11.5 -32.5t-24.5 -24.5q-20 -13 -42 -19.5t-45 -10.5q-26 -4 -53 -3t-53 6q-25 5 -49 14t-45 24q-20 14 -34 33.5t-21 43.5q-10 34 -4 66q4 27 16.5 50t31.5 41.5t42 32.5t47 24q47 17 95.5 24.5t97.5 9.5
q51 2 100 -2t98 -10q97 -14 194 -32t195 -23q44 -2 88 0t88 13q19 5 38.5 11.5t34.5 19.5q8 8 13 18t3 22q-1 3 3.5 4.5t10 1.5t10.5 -1.5t6 -4.5v-1v0z" />
    <glyph glyph-name="F.salt" unicode="&#xe003;" horiz-adv-x="668" 
d="M1214 582q2 -13 -3.5 -23.5t-14.5 -18.5q-14 -14 -33 -22t-38 -13q-46 -13 -93 -17t-95 -2q-87 3 -171.5 17t-170.5 28q-1 -2 -1 -7v-5h-1q-2 -7 -10.5 -27t-22 -49.5t-30.5 -66.5t-36 -77q45 -2 81 -6.5t54 -4.5q31 0 44 9t16.5 20t2.5 20t3 9q8 0 11.5 -7.5t3.5 -27.5
q0 -19 -17 -30.5t-55 -11.5q-27 0 -70 3.5t-83 5.5q-26 -56 -52.5 -113t-47.5 -104t-34 -79.5t-13 -39.5q0 -3 -8 -7t-18 -5t-18 3.5t-8 19.5q0 8 12 39.5t32 77t45 100.5t51 110q-30 -1 -47 -6t-17 -10v-39q0 -12 -6 -25.5t-8 -13.5q-3 0 -3.5 12t-0.5 18q0 5 -4 19t-4 29
q0 20 27.5 27t72.5 9q16 34 31 66t28.5 60t25 50.5t19.5 37.5h-1q9 12 10 24h-1q-48 8 -96.5 12.5t-97.5 3.5q-47 0 -93.5 -5.5t-91.5 -22.5q-31 -11 -59.5 -28.5t-48.5 -44.5q-11 -16 -19 -33t-11 -37q-4 -33 5 -66q11 -34 37 -57.5t59 -35.5q20 -7 44.5 -11t46.5 -4
q16 0 36 3t34 10q6 2 11 -4t-4 -10h-3q-9 -3 -18 -4.5t-18 -3.5q-26 -4 -53 -3t-53 6q-25 5 -49 14t-45 24q-20 14 -34 33.5t-21 43.5q-10 34 -4 66q4 27 16.5 50t31.5 41.5t42 32.5t47 24q47 17 95.5 24.5t97.5 9.5q51 2 100 -2t98 -10q97 -14 194 -32t195 -23q44 -2 88 0
t88 13q19 5 38.5 11.5t34.5 19.5q8 8 13 18t3 22q-1 3 3.5 4.5t10 1.5t10.5 -1.5t6 -4.5v-1v0z" />
    <glyph glyph-name="F.swsh" unicode="&#xe004;" horiz-adv-x="668" 
d="M1281 590q2 -13 -3.5 -23.5t-14.5 -18.5q-14 -14 -33 -22t-38 -13q-46 -13 -93 -17t-95 -2q-22 1 -50 3.5t-59.5 6t-64.5 8t-64 9.5q-73 11 -151 25q-5 1 -8.5 1t-7.5 1q0 -5 -1 -8q-1 -1 -1 -1.5t-1 -1.5q-29 -59 -54 -118.5t-53 -119.5q45 -2 80 -6.5t53 -4.5
q31 0 44 9t16.5 20t2.5 20t3 9q8 0 11.5 -7.5t3.5 -27.5q0 -19 -17 -30.5t-55 -11.5q-27 0 -69.5 3.5t-82.5 5.5q-14 -31 -33 -64q-17 -29 -42.5 -68.5t-63.5 -75t-89 -60t-118 -24.5q-28 0 -52.5 6.5t-42.5 19.5t-28.5 33.5t-10.5 47.5q0 26 12 49t34 42l7 -11
q-27 -27 -35 -57.5t2.5 -56.5t38 -43.5t71.5 -17.5q50 0 91.5 23.5t77 62.5t65 90t56.5 106h-1q-29 -1 -46 -6t-17 -10v-39q0 -12 -6 -25.5t-8 -13.5q-3 0 -3.5 12t-0.5 18q0 5 -4 19t-4 29q0 20 27 27t72 9q33 71 63.5 138.5t62.5 115.5q-33 4 -66.5 6t-66.5 2
q-47 0 -93.5 -5.5t-91.5 -22.5q-31 -11 -59.5 -28.5t-48.5 -44.5q-11 -16 -19 -33t-11 -37q-4 -33 5 -66q11 -34 37 -57.5t59 -35.5q16 -5 35.5 -9t39.5 -6q9 0 16 -2t8 -4.5t-5 -4t-22 -1.5q-25 1 -49 6q-25 5 -49 14t-45 24q-20 14 -34 33.5t-21 43.5q-10 34 -4 66
q4 27 16.5 50t31.5 41.5t42 32.5t47 24q47 17 95.5 24.5t97.5 9.5q51 2 100 -2t98 -10q97 -14 194 -32t195 -23q44 -2 88 0t88 13q19 5 38.5 11.5t34.5 19.5q8 8 13 18t3 22q-1 3 3.5 4.5t10 1.5t10.5 -1.5t6 -4.5v-1v0z" />
    <glyph glyph-name="A.salt" unicode="&#xe005;" horiz-adv-x="579" 
d="M511 247q7 0 18 -0.5t22 -2t19 -3t8 -2.5q0 -2 -20.5 -2.5t-55.5 -0.5q-10 0 -27.5 -2t-40.5 -4q-16 -39 -30 -75t-24.5 -65.5t-16.5 -50.5t-6 -30q0 -8 -7.5 -8.5t-16 3t-16 9t-7.5 9.5q0 22 18.5 77t46.5 124q-31 -5 -61 -8.5t-56 -6.5q-42 -45 -82 -85t-73 -70
t-57.5 -48t-35.5 -18q-9 0 -14 4.5t-5 10.5q0 7 7 27t15.5 41t15.5 38t7 18q0 2 -2.5 3.5t-2.5 3.5q0 1 2 5.5t5 9.5t5.5 9l2.5 4q1 1 4.5 1.5t7.5 0t7.5 -2t3.5 -5.5q0 -5 -8.5 -28.5t-18.5 -50t-17.5 -47.5t-4.5 -21q6 0 25 15.5t46.5 42.5t62.5 63t74 77q-5 -1 -9 -1h-8
q-20 0 -30 2t-14 5t-4 6v5t3 4t8 2q10 0 14 -1.5t6.5 -3t6 -2.5t12.5 -1q4 0 12 0.5t19 1.5q94 103 175 192t135 156q-41 19 -81 36.5t-82 33.5q-32 11 -63.5 20t-64.5 12q-73 8 -141 -20q-32 -14 -59 -36t-44 -53q-17 -30 -21 -64t2 -67q10 -49 41 -87t79 -54
q42 -14 87.5 -6t77.5 38q19 17 30.5 39t16.5 46q4 16 5.5 32.5t-0.5 32.5q-2 13 -5.5 25.5t-11.5 22.5q-2 2 0 2.5t4 0.5q6 0 8 -4q11 -15 15 -34t4 -37q-1 -17 -3.5 -35t-8.5 -35q-8 -22 -22 -41t-34 -33q-38 -26 -83 -29q-48 -4 -93 14.5t-77 53.5q-19 22 -30.5 50t-15 58
t1.5 59.5t19 55.5q17 32 44.5 54.5t60 36t68 19t69.5 3.5q33 -2 65 -10t63 -19q36 -12 71.5 -27t70.5 -31q10 -5 20 -9t20 -9q5 5 11 13h11q4 0 7.5 -1.5t3.5 -4.5q0 -1 -11 -14q13 -7 13 -9q-9 -9 -26 -40t-38 -75t-44 -97t-45 -105q22 2 40.5 3t31.5 1zM382 237
q23 57 49.5 114t51.5 105q-45 -51 -98.5 -110.5t-109.5 -119.5q23 3 50.5 6t56.5 5z" />
    <glyph glyph-name="A.swsh" unicode="&#xe006;" horiz-adv-x="796" 
d="M902 579q2 -18 -19 -29q-17 -10 -37 -8q-17 0 -48 13q-17 -27 -35.5 -65t-37 -80.5t-36.5 -86t-33 -80.5q-11 -26 -17 -41.5t-12 -29.5q14 -7 17 -9q5 -2 5 -5t-2 -4q0 -2 -3 -4t-8 0q-2 2 -5.5 3.5t-8.5 3.5q-21 -54 -34.5 -94.5t-13.5 -53.5q0 -8 -7.5 -8.5t-16 3
t-16 9t-7.5 9.5q0 18 13.5 60.5t34.5 97.5q-19 9 -38 19t-41 15q-26 -29 -65 -68.5t-88.5 -75t-108.5 -60t-125 -24.5q-28 0 -50 6.5t-36 19.5t-18.5 33.5t4.5 47.5q12 38 44.5 67.5t74.5 49t87 29.5t83 10q46 0 91.5 -4.5t91.5 -15.5q37 45 76.5 94t77 95t71 85t59.5 64
q2 1 3 2t3 2q-41 19 -81 36.5t-82 33.5q-32 11 -63.5 20t-64.5 12q-73 8 -141 -20q-32 -14 -59 -36t-44 -53q-17 -30 -21 -64t2 -67q10 -49 41 -87t79 -54q42 -14 87.5 -6t77.5 38q19 17 30.5 39t16.5 46q4 16 5.5 32.5t-0.5 32.5q-2 13 -5.5 25.5t-11.5 22.5q-2 2 0 2.5
t4 0.5q6 0 8 -4q11 -15 15 -34t4 -37q-1 -17 -3.5 -35t-8.5 -35q-8 -22 -22 -41t-34 -33q-38 -26 -83 -29q-48 -4 -93 14.5t-77 53.5q-19 22 -30.5 50t-15 58t1.5 59.5t19 55.5q17 32 44.5 54.5t60 36t68 19t69.5 3.5q33 -2 65 -10t63 -19q36 -12 71.5 -27t70.5 -31
q10 -5 20.5 -9.5t20.5 -9.5q0 1 1 1q37 32 66 32q19 0 31 -3q10 -3 19 -9t10 -17zM108 -2q53 0 102.5 18t95 48t87 70t80.5 85q-39 9 -79.5 14t-85.5 5q-14 0 -27.5 -1t-27.5 -3q-59 -7 -104.5 -27t-75.5 -46.5t-43.5 -55t-10 -52.5t25.5 -39.5t63 -15.5zM700 455
q0 2 0.5 2.5t0.5 2.5q-28 -34 -57 -69.5t-55 -67t-47.5 -57t-34.5 -40.5l-2 -2q19 -5 37 -13.5t38 -16.5q5 10 9 20.5t10 22.5q23 57 49.5 114t51.5 105v-1zM882 566q4 9 1 16.5t-10 11.5q-13 7 -25 7q-10 0 -21 -10t-23 -27q16 -7 27.5 -11t18.5 -4q10 0 20 5q7 4 12 12z
" />
    <glyph glyph-name="R.swsh" unicode="&#xe007;" horiz-adv-x="628" 
d="M673 -92q5 0 2.5 -5.5t-10.5 -12.5t-20 -12.5t-25 -5.5q-27 0 -57 12.5t-58 30.5t-52.5 37.5t-40.5 33.5q-35 30 -70 64t-68 69l-8 8l-2 -4q-7 -13 -15.5 -29t-16 -30.5t-13 -25.5t-6.5 -12q-17 -29 -33 -29q-28 0 -39.5 23t-13 54t2.5 63t7 50q-49 19 -85.5 55t-47.5 91
q-9 45 0.5 89.5t38.5 79.5q28 34 69 52.5t86 16.5q46 -2 86 -23q2 -2 1.5 -3t-0.5 -2q-4 0 -6 1q-31 18 -68 20q-45 2 -87.5 -16.5t-70.5 -54.5t-36.5 -82t2.5 -90q11 -46 43.5 -78.5t75.5 -50.5q13 62 41 129t73.5 122.5t108.5 91.5t146 36q64 0 100 -19.5t53.5 -44
t21.5 -46.5t4 -27q0 -39 -19.5 -74.5t-51.5 -65.5t-73 -54.5t-83 -41.5t-83 -26t-72 -9l16 -16q36 -38 73.5 -73.5t72.5 -66.5q14 -11 35.5 -30t45.5 -37.5t49.5 -31.5t46.5 -13q15 0 21 6.5t9 6.5zM150 34q6 0 13.5 11t17 29.5t21 42t23.5 48.5q-7 0 -17.5 2t-21 4.5t-20 5
t-15.5 5.5q-7 -32 -10 -59t-3 -46.5t3 -31t9 -11.5zM231 174q15 30 29.5 60.5t27.5 58t23.5 49.5t16.5 34q-5 -8 -12.5 -18.5l-15 -21t-14 -20t-9.5 -14.5t0.5 4t11.5 25.5t18.5 37.5t21.5 39.5t20 31.5t14 14q7 1 17 1t19 -1t16 -3t10 -6q0 -3 -12.5 -29.5t-32 -65
t-42.5 -84t-44 -86.5q32 2 70 12.5t76 29t73 44t62 56.5t43.5 66.5t16.5 74.5q0 22 -13.5 38t-34.5 26.5t-46.5 16t-50.5 5.5q-51 0 -93 -16.5t-77 -44t-62 -63.5t-48 -76t-35 -81.5t-23 -79.5q20 -6 38 -9.5t41 -4.5z" />
    <glyph glyph-name="R.salt" unicode="&#xe008;" horiz-adv-x="683" 
d="M608 -38q10 -6 20.5 -13.5t14 -11.5t-3.5 -1.5t-31 15.5q-17 9 -57 30t-89.5 47t-101.5 53.5t-92 49.5h-1q-1 -3 -2.5 -5.5t-2.5 -4.5q-13 -25 -20.5 -41t-9.5 -19q-3 -6 -9 -15.5t-15 -17.5t-20 -14t-24 -6t-21.5 14t-12 38.5t-2 57t8.5 69.5q-49 19 -85.5 55t-47.5 91
q-9 45 0.5 89.5t38.5 79.5q28 34 69 52.5t86 16.5q46 -2 86 -23q2 -2 1.5 -3t-0.5 -2q-4 0 -6 1q-31 18 -68 20q-45 2 -87.5 -16.5t-70.5 -54.5t-36.5 -82t2.5 -90q11 -43 40 -74.5t69 -49.5q3 -2 5.5 -2.5t4.5 -2.5q13 62 41 129t73.5 122.5t108.5 91.5t146 36
q64 0 100 -19.5t53.5 -44t21.5 -46.5t4 -27q0 -45 -33.5 -91.5t-89 -85t-128 -65t-151.5 -30.5q-2 -2 -3.5 -5.5t-2.5 -7.5q28 -15 62.5 -34t69 -39t68 -39t61 -34.5t46 -26.5t23.5 -14zM490 549q-51 0 -93 -16.5t-77 -44t-62 -63.5t-48 -76t-35 -81.5t-23 -79.5
q10 -3 19 -5.5t19 -4.5q8 8 14.5 6t23.5 -10h3q15 30 29.5 60.5t27.5 58t23.5 49.5t16.5 34q-5 -8 -12.5 -18.5l-15 -21t-14 -20t-9.5 -14.5t0.5 4t11.5 25.5t18.5 37.5t21.5 39.5t20 31.5t14 14q7 1 17 1t19 -1t16 -3t10 -6q0 -3 -12.5 -29.5t-32 -65t-42.5 -84t-44 -86.5
q32 6 70 18.5t76 31t73 42.5t62 53.5t43.5 64t16.5 73.5q0 22 -13.5 38t-34.5 26.5t-46.5 16t-50.5 5.5zM150 34q6 0 13 9.5t16 26t19.5 39t22.5 47.5q-8 5 -15 9t-11 6q-20 4 -44 12q-7 -32 -10 -59t-3 -47t3 -31.5t9 -11.5z" />
    <glyph glyph-name="B.swsh" unicode="&#xe009;" horiz-adv-x="818" 
d="M518 312q1 -1 18.5 -3.5t43.5 -8t56 -15t56 -23.5t43 -33.5t17 -45.5q0 -39 -32.5 -73t-85 -58.5t-119 -38.5t-134.5 -14q-60 0 -99.5 12t-62 26.5t-31.5 27l-9 12.5q0 1 0.5 3t4.5 2q2 0 10.5 -10.5t28.5 -23t54 -23t88 -10.5q48 0 104 11.5t104.5 33t81 53t32.5 71.5
q0 30 -14.5 48.5t-36.5 30t-47.5 17.5t-47.5 10.5t-36.5 9t-14.5 12.5q0 7 27.5 20.5t60.5 34t60.5 47.5t27.5 60q0 22 -31.5 37.5t-76.5 25.5t-94.5 14.5t-86.5 4.5q-39 0 -84 -3.5t-88.5 -14.5t-81.5 -31t-63 -54q-11 -16 -19 -33t-11 -37q-4 -33 5 -66q8 -27 26 -47
t42 -33.5t52 -20.5t55 -7q17 0 41 2.5t41 10.5q6 2 11 -4t-4 -10h-3q-9 -3 -18 -4.5t-18 -3.5q-26 -4 -53 -3t-53 6q-25 5 -49 14t-45 24q-20 14 -34 33.5t-21 43.5q-10 34 -4 66q8 57 47 93t92 56.5t111 27.5t104 7q23 0 58.5 -1t76 -5t81 -11t73.5 -19t53.5 -29t20.5 -40
t-15.5 -42.5t-38.5 -36t-49.5 -28.5t-48.5 -21.5t-36 -15t-12 -7.5zM323 137q6 17 19 47t26.5 58.5t23.5 50l10 21.5q-3 -10 -6.5 -19.5t-6.5 -18.5q16 33 33 66t30.5 59.5t22.5 43.5t10 19q3 2 10 1t14.5 -4t14.5 -6t9 -5q0 -1 -11.5 -25.5t-29.5 -60t-39 -77.5l-39 -78
t-31 -60.5t-14 -25.5q-3 0 -11 -0.5t-16.5 -0.5t-14.5 1.5t-6 6.5v1q0 1 1 2q0 1 0.5 1.5t0.5 2.5z" />
    <glyph glyph-name="C.swsh" unicode="&#xe00a;" horiz-adv-x="509" 
d="M559 474q-2 -24 -22 -44.5t-49 -37t-63 -29t-65 -21t-55.5 -12.5t-33.5 -4q-10 -17 -24 -46.5t-25 -63t-17 -68.5t0.5 -63.5t28 -47.5t64.5 -20q36 -1 64 7.5t48.5 21t35 26t25.5 22.5q10 9 11 7t-3.5 -9.5t-12.5 -16.5t-14 -14q-9 -7 -22 -16.5t-31 -18t-41 -14.5
t-51 -6q-71 3 -106.5 32.5t-43.5 75t7.5 101.5t46.5 112q-38 4 -73.5 16.5t-64 34t-47.5 52t-23 70.5q-4 45 10.5 89t46.5 78q31 34 74 51t88 14q22 -2 43 -8.5t38 -18.5q3 -2 1 -4t-5 0q-32 21 -66 22q-44 5 -88 -12.5t-76 -52.5t-45.5 -80.5t-6.5 -89.5t33 -76.5t64 -51.5
q23 -12 48 -18.5t52 -8.5q24 42 55 80.5t66.5 67t73 44.5t74.5 15q21 0 36 -7t24 -16.5t13 -21t3 -21.5zM509 520q-26 1 -56.5 -13t-61 -38.5t-60 -59t-54.5 -74.5q22 -1 63 9t82 29t72.5 47t35.5 64q1 8 -3.5 21.5t-17.5 14.5z" />
    <glyph glyph-name="D.swsh" unicode="&#xe00b;" horiz-adv-x="765" 
d="M461 585q55 1 101.5 -24t80.5 -66t53 -94t20 -108t-19 -108t-64.5 -95t-115.5 -68t-173 -27q-40 0 -76 3q-20 -39 -32 -63.5t-14 -26.5h-10.5t-13 1t-11.5 3t-6 6q0 2 1 27t4 66q-56 13 -86 29t-32 24q0 4 7 0.5t21.5 -10.5t37 -16t53.5 -16q4 38 9.5 85t15.5 98
q-2 0 -4.5 -0.5t-4.5 -0.5q-44 -2 -85 17t-69 53q-29 35 -38.5 79.5t-1.5 88.5q9 46 37.5 79.5t67.5 54t84 28.5t87 4q29 -2 57.5 -9.5t56.5 -16.5q10 -4 15 -5q22 8 47 8zM59 283q27 -35 68.5 -54t86.5 -17q11 56 27 112.5t38.5 105.5t52.5 86t68 55q-39 14 -82 24
q-47 10 -94 7t-90 -23q-40 -18 -69.5 -50t-40.5 -74q-11 -44 -2 -90t37 -82zM203 -21q1 3 3 7q2 3 4 8t5 11q-3 0 -5.5 1t-5.5 1q-1 -11 -1 -18.5v-9.5zM220 16q13 28 34 73.5t45.5 98.5t50.5 109t49 105.5t40.5 87.5t26.5 55q-10 5 -20 8.5t-21 8.5q-38 -13 -68 -48.5
t-53.5 -84t-40.5 -104.5t-29 -111q27 4 51 18q2 1 5 1q3 -3 -1 -5q-26 -16 -56 -20q-12 -59 -19 -109t-9 -81q4 -1 7.5 -1t7.5 -1zM304 10q97 1 164.5 25.5t109.5 64t61 89.5t19.5 102t-15 102t-42 88.5t-62 62.5t-75.5 24q-6 0 -11.5 -0.5t-10.5 -1.5q8 -3 15 -6l14 -6
q19 -8 30.5 -16t13.5 -17q0 -3 -11.5 -30t-31 -69.5t-45 -96t-52.5 -109.5t-53.5 -109.5t-47.5 -96.5q8 -1 15 -0.5t15 0.5z" />
    <glyph glyph-name="E.swsh" unicode="&#xe00c;" horiz-adv-x="788" 
d="M1215 582q2 -13 -3.5 -23.5t-14.5 -18.5q-14 -14 -33 -22t-38 -13q-46 -13 -93 -17t-95 -2q-84 3 -165 16t-164 27q-6 -13 -18 -36.5t-27 -52.5t-31.5 -63t-32.5 -68q59 3 122 4.5t125 1.5q4 0 9 -3t8.5 -7t5.5 -7t0 -3q-83 4 -152 2.5t-126 -5.5q-24 -53 -41 -97.5
t-17 -67.5q0 -29 16 -49.5t38.5 -33t47 -18t41.5 -5.5t34.5 1.5t31 3t22 1t8.5 -3.5t-10 -6t-23.5 -5.5t-28 -4t-23.5 -1.5q-30 0 -64 5.5t-63.5 19t-49 37t-19.5 60.5q0 26 12 68.5t30 90.5q-74 -8 -113.5 -16t-42.5 -10q-5 -2 -6.5 -6t-7.5 -4q-5 0 -10 4t-5 8
q0 8 14.5 14.5t40 11.5t60.5 9t77 7q13 34 28 68.5t29 64.5t25.5 53.5t19.5 37.5v1q2 5 1 9q-47 7 -94 11.5t-95 3.5q-47 0 -93.5 -5.5t-91.5 -22.5q-31 -11 -59.5 -28.5t-48.5 -44.5q-11 -16 -19 -33t-11 -37q-4 -33 5 -66q11 -34 37 -57.5t59 -35.5q20 -7 44.5 -11
t46.5 -4q16 0 36 3t34 10q6 2 11 -4t-4 -10h-3q-9 -3 -18 -4.5t-18 -3.5q-26 -4 -53 -3t-53 6q-25 5 -49 14t-45 24q-20 14 -34 33.5t-21 43.5q-10 34 -4 66q4 27 16.5 50t31.5 41.5t42 32.5t47 24q47 17 95.5 24.5t97.5 9.5q51 2 100 -2t98 -10q97 -14 194 -32t195 -23
q44 -2 88 0t88 13q19 5 38.5 11.5t34.5 19.5q8 8 13 18t3 22q-1 3 3.5 4.5t10 1.5t10.5 -1.5t6 -4.5v-1v0z" />
    <glyph glyph-name="G.swsh" unicode="&#xe00d;" horiz-adv-x="521" 
d="M485 253q0 -2 -13.5 -18.5t-33 -42t-42 -58.5t-40.5 -69t-27.5 -73.5t-2.5 -72.5q1 -5 -4.5 -3.5t-13 7t-14 12.5t-7.5 13q-2 13 2.5 42.5t19.5 71.5q-11 -5 -33 -10.5t-57 -5.5q-64 0 -105.5 16t-64 42.5t-28 61.5t3 73.5t29.5 79t51 77.5q-38 20 -65.5 53t-36.5 78
q-8 45 1.5 89.5t37.5 79.5q28 34 69.5 52.5t85.5 16.5q46 -2 86 -23q4 -2 1 -5q-3 0 -6 1q-31 18 -67 20q-45 2 -88 -16.5t-71 -54.5q-27 -36 -36 -82t2 -90q10 -38 34 -67t57 -48q27 33 60 62t69 50t74 33.5t76 12.5q19 0 35 -6t27 -15.5t17.5 -20.5t8.5 -20q6 -31 -15 -55
t-53.5 -40.5t-68.5 -26.5t-61 -12q-29 -3 -60.5 0t-61.5 13q-40 -49 -62 -104t-12 -112q1 -9 7 -25.5t19.5 -32.5t35.5 -28t56 -12q52 -1 80.5 13.5t45.5 30.5q16 35 38.5 72.5t54.5 75.5q-20 -14 -46 -20q-23 -5 -54.5 -5t-71.5 17q-5 3 -2 5.5t10 0.5q19 -8 45.5 -6.5
t54 6.5t53.5 10.5t44 5.5q4 0 9.5 -2t10.5 -4t9 -4.5t4 -3.5zM418 539q-23 0 -55 -11.5t-67.5 -33t-70.5 -51t-65 -64.5q37 -11 75.5 -11.5t75.5 7.5q22 5 47 15.5t45.5 26.5t33 38t9.5 51q-1 8 -8.5 20.5t-19.5 12.5z" />
    <glyph glyph-name="H.salt" unicode="&#xe00e;" horiz-adv-x="773" 
d="M752 346q8 0 11.5 -7.5t3.5 -27.5q0 -19 -17 -30.5t-55 -11.5h-14t-19 1q-28 -57 -57 -116.5t-52.5 -109t-38.5 -83.5t-15 -39q-7 0 -14.5 3t-14 6.5t-11 7.5t-4.5 7q0 1 12.5 30t33 74.5t47 103.5t55.5 118q-47 2 -106.5 4t-125.5 4q-26 -52 -51.5 -102.5t-46.5 -91
t-35.5 -66.5t-17.5 -29q-21 0 -32.5 10t-11.5 18q0 4 3.5 15t7.5 22t7.5 17.5t3.5 2.5q0 -10 -0.5 -19t4.5 -4q1 1 11 21t25.5 51.5t34.5 72t39 82.5q-32 0 -50 -5.5t-18 -10.5v-26q18 5 34 14q3 1 6 1q3 -3 -1 -5q-16 -10 -39 -16v-7q0 -12 -6 -25.5t-8 -13.5q-3 0 -3.5 12
t-0.5 18q0 1 -2 11q-7 -1 -13.5 -1.5t-13.5 -0.5q-44 -2 -85.5 16.5t-69.5 52.5q-28 35 -37.5 79.5t-1.5 89.5q9 46 37.5 79t67.5 53.5t84 29t87 4.5q29 -3 57.5 -10.5t56.5 -16.5q4 -2 20.5 -7.5t35 -13t34 -15.5t18.5 -14q-3 -8 -14 -32t-27.5 -58t-37 -76t-42.5 -87
q48 -2 111.5 -4.5t120.5 -4.5q23 48 45.5 93.5t42.5 82.5t36 63.5t26 36.5q7 7 19.5 8.5t24.5 -1t20.5 -8t8.5 -10.5q0 -3 -11.5 -23t-26 -44t-26.5 -43.5t-13 -20.5q-4 0 -2.5 8t4.5 18t5.5 18t1.5 8t-9 -15t-21 -40.5t-30 -59.5t-36 -73h15q31 0 44 9t16.5 20t2.5 20t3 9z
M322 300q20 42 38.5 81t32.5 70t22 49.5t7 18.5q-2 0 -10.5 -10t-18.5 -22.5t-19 -24t-12 -14.5q-5 0 3 16t22 37t30 41.5t27 29.5q-32 14 -65 24.5t-68 18.5q-46 10 -93 7t-91 -23q-39 -18 -68.5 -49.5t-40.5 -74.5q-11 -44 -2 -90t36 -82q28 -36 71 -54.5t88 -16.5
q3 0 6 0.5t5 0.5q-2 7 -3 15t-1 16q0 20 28.5 27t75.5 9z" />
    <glyph glyph-name="H.swash" unicode="&#xe00f;" horiz-adv-x="886" 
d="M875 566q7 7 19.5 8.5t24.5 -1t20.5 -8t8.5 -10.5q0 -3 -11.5 -23t-26 -44t-26.5 -43.5t-13 -20.5q-4 0 -2.5 8t4.5 18t5.5 18t1.5 8t-10 -18t-23.5 -46t-31.5 -62l-33.5 -67l-30.5 -61t-21 -43q29 -5 58.5 -9t57.5 -2q4 0 7.5 -2.5t3.5 -5.5q0 -2 -2.5 -5t-8.5 -3
q-62 6 -121 15q-23 -45 -43 -87.5t-36 -76t-25 -55.5t-9 -26q-7 0 -14.5 3t-14 6.5t-11 7.5t-4.5 7q0 1 8 19.5t22 50t33 73t40 87.5q-60 11 -114.5 22t-106.5 21q-17 -29 -42.5 -68.5t-63.5 -75.5t-89.5 -61t-118.5 -25q-28 0 -52.5 6.5t-42.5 19.5t-28.5 33.5t-10.5 47.5
q0 33 19.5 61.5t52.5 49.5t76 33t90 12q38 0 78.5 -3.5t83.5 -10.5q28 53 51.5 98t44 89.5t39.5 92t40 105.5q-1 0 -1 -1q2 6 3 10q-37 15 -74.5 28.5t-75.5 21.5q-46 10 -93.5 7t-90.5 -23q-40 -18 -69.5 -49.5t-40.5 -74.5q-11 -44 -2 -90t37 -82t70.5 -54.5t87.5 -16.5
q23 2 44.5 9.5t38.5 21.5q35 27 49 71q6 17 8.5 34.5t2.5 34.5q-1 17 -5 33.5t-13 30.5q-2 2 4.5 5t8.5 0q12 -17 15.5 -38t1.5 -41q-2 -46 -23 -86q-22 -39 -61.5 -59.5t-83.5 -22.5q-45 -2 -86 16.5t-69 52.5q-29 35 -38.5 79.5t-1.5 89.5q9 46 37.5 79t67.5 53.5t84 29
t87 4.5q29 -3 57.5 -10.5t56.5 -16.5q4 -2 22.5 -8.5t39.5 -14t37.5 -14t16.5 -8.5q0 -11 -9 -39t-24 -65t-33.5 -79t-37.5 -82t-36.5 -74.5t-29.5 -55.5q54 -9 108.5 -20t111.5 -21q12 27 29.5 64t37 76.5t39.5 78.5t38 72t32.5 56t22.5 31zM132 1q46 0 87 25t75.5 61
t60.5 75t41 66q-38 6 -73 9.5t-70 3.5q-70 0 -118.5 -18t-77 -44.5t-37 -57.5t1.5 -57.5t38 -44.5t72 -18z" />
    <glyph glyph-name="I.swsh" unicode="&#xe010;" horiz-adv-x="629" 
d="M709 558q8 -17 -9 -29q-10 -7 -21.5 -8t-23.5 0.5t-23.5 5.5t-21.5 8q-3 2 -6 2.5t-6 2.5q-19 -36 -39 -81.5t-39.5 -90.5t-37 -83t-29.5 -59q0 -1 -1 -2l12 -3q15 -5 30.5 -10t30.5 -12q5 -2 6 -5t0 -4q0 -2 -2.5 -4t-7.5 0q-19 8 -37 16t-38 12q-17 -29 -42.5 -68.5
t-63.5 -75t-89 -60t-118 -24.5q-28 0 -52.5 6.5t-42.5 19.5t-28.5 33.5t-10.5 47.5q0 28 14.5 52.5t39.5 44.5t58.5 34t71.5 20q-27 17 -47 41q-29 35 -38.5 79.5t-0.5 88.5q9 46 37.5 79.5t67 54t83.5 28.5t87 4q29 -2 58 -9.5t57 -16.5l38 -14t38 -15q3 3 5 4q9 7 22 11.5
t27.5 6.5t29 1.5t25.5 -3.5t21.5 -9t15.5 -17zM146 294q11 -15 25.5 -26.5t30.5 -20.5q9 1 17.5 1.5t17.5 0.5q38 0 78.5 -3.5t83.5 -10.5q19 33 36.5 73t36 83t39 85.5t44.5 78.5q-36 16 -73.5 29.5t-76.5 21.5q-46 10 -93 7t-91 -23q-40 -18 -69 -50t-40 -74
q-11 -44 -2 -90t36 -82zM129 -2q45 0 86 24.5t75.5 59.5t60.5 73.5t41 66.5v3q-37 6 -72 9.5t-70 3.5q-7 0 -13 -0.5t-12 -0.5q19 -8 39 -11t40 -3q14 1 18 0t0.5 -3t-12.5 -3.5t-19 -1.5q-47 0 -90 20q-58 -6 -97.5 -26.5t-61.5 -46.5t-26.5 -55t7 -53.5t38 -40t68.5 -15.5
zM693 545q2 9 -4 16.5t-14 11.5q-14 7 -27 7t-24 -9.5t-20 -23.5q7 -2 14.5 -5t15.5 -6q7 -2 16 -5t17 -3q10 0 18 5q7 5 8 12z" />
    <glyph glyph-name="J.swsh" unicode="&#xe011;" horiz-adv-x="481" 
d="M630 558q8 -17 -9 -29q-10 -7 -21.5 -8t-23.5 0.5t-23.5 5.5t-21.5 8q-3 2 -6 2.5t-6 2.5q-13 -24 -35 -73.5t-48.5 -111t-55 -128.5t-54 -125t-45 -101t-27.5 -57q0 -1 -1 -2l12 -3q15 -5 30.5 -10t30.5 -12q5 -2 6 -5t0 -4q0 -2 -2.5 -4t-7.5 0q-19 8 -37 16t-38 12
q-17 -29 -42.5 -68.5t-63.5 -75t-89 -60t-118 -24.5q-28 0 -52.5 6.5t-42.5 19.5t-28.5 33.5t-10.5 47.5q0 33 19.5 61.5t52.5 49.5t76 33t90 12q38 0 78.5 -3.5t83.5 -10.5q12 22 33 68t46.5 105t53 124.5t54 125t50 107.5t39.5 72q-36 16 -73.5 29.5t-76.5 21.5
q-46 10 -93 7t-91 -23q-40 -18 -69 -50t-40 -74q-11 -44 -2 -90t36 -82q28 -36 70.5 -53.5t87.5 -17.5q14 1 18 0t0.5 -3t-12.5 -3.5t-19 -1.5q-45 0 -86 18t-69 52q-29 35 -38.5 79.5t-0.5 88.5q9 46 37.5 79.5t67 54t83.5 28.5t87 4q29 -2 58 -9.5t57 -16.5l38 -14t38 -15
q3 3 5 4q9 7 22 11.5t27.5 6.5t29 1.5t25.5 -3.5t21.5 -9t15.5 -17zM-70 -284q45 0 86 24.5t75.5 59.5t60.5 73.5t41 66.5v3q-37 6 -72 9.5t-70 3.5q-70 0 -118.5 -18t-77 -44.5t-37 -57.5t1.5 -57.5t38 -44.5t72 -18zM614 545q2 9 -4 16.5t-14 11.5q-14 7 -27 7t-24 -9.5
t-20 -23.5q7 -2 14.5 -5t15.5 -6q7 -2 16 -5t17 -3q10 0 18 5q7 5 8 12z" />
    <glyph glyph-name="K.swsh" unicode="&#xe012;" horiz-adv-x="803" 
d="M826 414q1 -10 -20 -25t-54.5 -33t-75 -36.5t-81.5 -35.5q-12 -12 -22 -19.5t-16 -9.5t-7 1t7 11q-42 -17 -69 -29.5t-26 -15.5q1 -5 8.5 -13.5t19.5 -19.5q0 -1 1 -1q18 -17 44 -38.5t54.5 -44t56.5 -43.5t51 -37.5t38.5 -26.5t17.5 -10q0 -2 -3 -2h-5q-9 0 -30 11.5
t-48.5 29.5t-59 41.5t-62 48t-57 47t-44.5 40.5q-18 -29 -44 -67t-63.5 -71.5t-87 -56.5t-114.5 -23q-28 0 -52.5 6.5t-42.5 19.5t-28.5 33.5t-10.5 47.5q0 28 14.5 52.5t39.5 44.5t58.5 34.5t71.5 20.5q-26 15 -47 40q-29 35 -38.5 79.5t-0.5 88.5q9 46 37.5 79.5t67 54
t83.5 28.5t87 4q29 -2 58 -9.5t57 -16.5l38 -14t38 -15q3 3 5 4q9 7 22 11.5t27.5 6.5t29 1.5t25.5 -3.5t21.5 -9t15.5 -17q8 -17 -9 -29q-10 -7 -21.5 -8t-23.5 0.5t-23.5 5.5t-21.5 8q-3 2 -6 2.5t-6 2.5q-17 -32 -35 -72.5t-35.5 -81t-34 -77.5t-29.5 -63q23 11 55 25.5
t68 30.5q66 66 120 94.5t98 29.5q6 0 12 -2t7 -10zM807 414q-40 -1 -84 -26t-89 -66q34 15 65.5 30t55.5 27.5t38.5 21.5t13.5 13zM650 580q-13 0 -24 -9.5t-20 -23.5q7 -2 14.5 -5t15.5 -6q5 -2 10 -3t10 -3q2 0 3 -0.5t3 -0.5h3q1 -1 3 -1h2q9 0 17 5q7 5 8 12
q2 9 -4 16.5t-14 11.5q-14 7 -27 7zM131 -2q45 0 86 24.5t75.5 59.5t60.5 73.5t41 66.5q-71 16 -142 16h-13t-13 -1q40 -14 80 -14q14 1 18 0t0.5 -3t-12.5 -3.5t-19 -1.5q-48 0 -91 20q-58 -6 -97.5 -26.5t-61 -46.5t-26 -55t7 -53.5t38 -40t68.5 -15.5zM401 235
q19 33 36.5 73t36 83t39 85.5t44.5 78.5q-36 16 -73.5 29.5t-76.5 21.5q-46 10 -93 7t-91 -23q-40 -18 -69 -50t-40 -74q-11 -44 -2 -90t36 -82q11 -15 25.5 -26.5t30.5 -20.5q9 1 17.5 1.5t17.5 0.5q38 0 78.5 -3.5t83.5 -10.5z" />
    <glyph glyph-name="L.swsh" unicode="&#xe013;" horiz-adv-x="453" 
d="M396 337q-19 0 -44 2t-48.5 5t-43 6t-26.5 5q-19 -33 -40.5 -83.5t-45 -105.5t-48 -107.5t-49.5 -89.5q44 -13 86.5 -24.5t87.5 -19.5t89 -12.5t89 0.5q20 2 39.5 6.5t36.5 15.5q10 7 16.5 16t4.5 21q0 3 4.5 4t10.5 1t10.5 -2t4.5 -5q1 -12 -5 -21.5t-15 -17.5
q-14 -11 -32.5 -16.5t-35.5 -9.5q-46 -8 -92.5 -6.5t-92.5 8.5q-55 8 -108 21.5t-107 29.5q-1 -1 -2 -1.5t-2 -1.5q-9 -8 -22 -12t-27.5 -6t-29 -1.5t-25.5 3.5t-21.5 9t-15.5 17q-8 17 9 29q10 7 21.5 8t23.5 -0.5t23.5 -5.5t21.5 -8q3 -2 6 -2.5t6 -2.5q13 24 28.5 58
t32 72t33 77.5t31.5 74t27.5 62t21.5 41.5q-60 15 -103 51t-63.5 82t-14.5 97t45 98q28 35 69 53.5t85 16.5q47 -2 86 -24q3 -2 1 -4t-5 0q-31 18 -68 21q-45 2 -88 -17t-71 -55q-36 -47 -40 -96.5t16.5 -92t62.5 -74.5t98 -42q16 29 41.5 67.5t62.5 73t87 58t117 23.5
q28 0 52.5 -6.5t42.5 -19.5t28.5 -33.5t10.5 -47.5q0 -33 -19.5 -62t-52.5 -50.5t-76 -34.5t-90 -13zM241 368q37 -8 72 -14t70 -6q70 0 118.5 18t77 45t37 59t-1.5 59t-38 45t-72 18q-45 0 -86 -24.5t-75.5 -59.5t-60.5 -73.5t-41 -66.5zM-42 -57q13 0 24 9.5t20 23.5
q-7 2 -14.5 5t-15.5 6q-5 2 -10 3t-10 3q-2 0 -3 0.5t-3 0.5h-3q-1 1 -3 1h-2q-10 0 -17 -5t-8 -12q-2 -9 4 -16.5t14 -11.5q14 -7 27 -7z" />
    <glyph glyph-name="M.swsh" unicode="&#xe014;" horiz-adv-x="966" 
d="M951 536q2 0 8 -2.5t13 -5.5t12 -7t5 -7t-18.5 -35.5t-46.5 -82t-60.5 -110t-60.5 -121.5t-46.5 -116.5t-18.5 -93.5q0 -5 -2.5 -5t-5.5 3.5t-5.5 9.5t-2.5 14q0 58 15 119t37.5 120t50 112.5t52.5 96.5q-22 -27 -52.5 -62t-65 -72.5t-69.5 -73.5t-66.5 -64.5t-56.5 -46
t-38 -17.5q-14 0 -22 10t-8 27q0 16 13.5 50t34 75.5t44 86t43 81t31.5 60t9 24.5q-8 0 -29.5 -21t-52.5 -55t-67.5 -78t-74 -90.5t-73 -91.5t-63.5 -81t-46 -59.5t-20 -26.5l3 15q-3 -9 -3 -14q0 -7 -6.5 -7t-15 4t-15 9t-6.5 8q0 15 11.5 50t28.5 78.5t37.5 89.5t37.5 81
q-24 -23 -55 -35t-65 -14q-44 -2 -85.5 17t-69.5 53q-28 35 -37.5 79.5t-1.5 88.5q9 46 37.5 79.5t67 54t83.5 28.5t87 4q30 -2 58.5 -9.5t56.5 -16.5q20 -7 38.5 -14t37.5 -15q3 3 5 4q9 7 22 11.5t27.5 6.5t29 1.5t25.5 -3.5t22 -9t16 -17q6 -17 -9 -29q-10 -7 -22 -8
t-24 0.5t-23.5 5.5t-21.5 8q-3 2 -6 2t-5 2q-3 -5 -17 -34t-34.5 -73t-46 -99t-51.5 -112.5t-50.5 -112.5t-42.5 -100q16 24 49.5 68.5t75.5 97.5t88 107.5t86 99.5t70 73.5t41 28.5q3 0 10 -2t14.5 -6.5t13.5 -11.5t6 -18q0 -12 -14 -43.5t-34.5 -72t-43 -84.5t-40 -81
t-26 -61t0.5 -24q8 0 37 27t69 68.5t85.5 91t85.5 94.5t69.5 78.5t38.5 43.5q1 2 3 4zM558 630q-13 0 -24.5 -9.5t-20.5 -23.5q15 -4 30.5 -11.5t32.5 -7.5q7 0 15.5 3.5t10.5 13.5q1 8 -3 14.5t-10.5 11t-15 7t-15.5 2.5zM297 304q17 14 29 32t20 39q10 31 10 68
q0 17 -4 34t-14 31q-1 1 1 2.5t4 2.5t4.5 1t3.5 -1q12 -17 16 -38t2 -42v-8q7 17 18 42t24 51t27 49.5t27 37.5q-37 16 -74.5 29.5t-76.5 21.5q-46 10 -93 7t-91 -23q-40 -18 -69 -50t-40 -74q-11 -44 -2 -90t36 -82q28 -36 71 -54.5t88 -16.5q46 2 83 31z" />
    <glyph glyph-name="N.swsh" unicode="&#xe015;" horiz-adv-x="842" 
d="M922 575q0 13 1 16t2.5 1t2.5 -8t1 -12q0 -21 -14 -67.5t-38 -105t-55.5 -121t-66 -114t-69.5 -85t-67 -33.5q-25 0 -41 19.5t-24.5 52t-10.5 74.5t-0.5 87t5.5 89.5t9 82.5q-15 -33 -29.5 -66.5t-28 -63.5t-25 -55t-20.5 -40q-1 -2 -3.5 -6t-3.5 -6q-17 -29 -42.5 -68.5
t-63.5 -75t-89 -60t-118 -24.5q-28 0 -52.5 6.5t-42.5 19.5t-28.5 33.5t-10.5 47.5q0 28 14.5 52.5t39.5 44.5t58.5 34.5t71.5 20.5q-26 15 -47 40q-29 35 -38.5 79.5t-0.5 88.5q9 46 37.5 79.5t67 54t83.5 28.5t87 4q29 -2 58 -9.5t57 -16.5l38 -14t38 -15q3 3 5 4
q9 7 22 11.5t27.5 6.5t29 1.5t25.5 -3.5t21.5 -9t15.5 -17q8 -17 -9 -29q-10 -7 -21.5 -8t-23.5 0.5t-23.5 5.5t-21.5 8q-1 0 -1 1q-4 -23 -10 -67.5t-11.5 -97.5t-8.5 -108.5t-0.5 -101t13 -74.5t32.5 -29q24 0 55.5 31.5t64.5 81t65 110t56.5 118t40 105t15.5 71.5z
M649 580q-11 0 -20 -6.5t-17 -17.5v-1v-3.5t-1 -6.5q10 -5 24 -9q8 -2 15.5 -4.5t16.5 -3.5h1h1q9 0 17 5q7 5 8 12q2 9 -4 16.5t-14 11.5q-14 7 -27 7zM393 225q-37 6 -72 9.5t-70 3.5h-13t-13 -1q40 -14 80 -14q14 1 18 0t0.5 -3t-12.5 -3.5t-19 -1.5q-48 0 -91 20
q-58 -6 -97.5 -26.5t-61 -46.5t-26 -55t7 -53.5t38 -40t68.5 -15.5q45 0 86 24.5t75.5 59.5t60.5 73.5t41 66.5v3zM400 235q19 33 36.5 73t36 83t39 85.5t44.5 78.5q-36 16 -73.5 29.5t-76.5 21.5q-46 10 -93 7t-91 -23q-40 -18 -69 -50t-40 -74q-11 -44 -2 -90t36 -82
q11 -15 25.5 -26.5t30.5 -20.5q9 1 17.5 1.5t17.5 0.5q38 0 78.5 -3.5t83.5 -10.5z" />
    <glyph glyph-name="O.swsh" unicode="&#xe016;" horiz-adv-x="843" 
d="M633 582q90 -23 141.5 -74.5t46.5 -126.5q-4 -53 -23.5 -101.5t-49.5 -90.5t-67 -76.5t-76.5 -59t-78.5 -38t-71 -12.5q-74 1 -115 22t-60.5 49.5t-23 59t-1.5 51.5q4 49 21.5 95t44.5 86.5t60 74.5t68 58q-33 14 -67 25t-69 19q-46 10 -93 7t-91 -23q-40 -18 -69 -49.5
t-40 -74.5q-11 -44 -2 -90t36 -82q28 -36 71 -54.5t88 -16.5q4 0 7 1q0 -4 1 -6q-5 -1 -11 -1.5t-11 -0.5q-44 -2 -85.5 16.5t-69.5 52.5q-28 35 -37.5 79.5t-1.5 89.5q9 46 37.5 79t67 53.5t83.5 29t87 4.5q30 -3 58.5 -10.5t56.5 -16.5q17 -5 32.5 -11.5t31.5 -12.5
q13 8 27.5 17t30.5 16.5t33 11.5t34 3q20 0 32 -12t14 -27t-7.5 -29.5t-31.5 -19.5q-24 -4 -48.5 0.5t-47.5 12.5q-36 -31 -73 -76.5t-66.5 -95t-47 -98.5t-13 -88.5t34.5 -65t95 -26.5q73 -1 138 31.5t114 84.5t78 115.5t28.5 123t-34 107t-108.5 68.5q-11 3 -14.5 9
t-3.5 9q0 2 1 4.5t9 0.5zM584 528q-16 0 -36.5 -11t-43.5 -30q18 -7 40.5 -9t30.5 -2q13 0 22.5 8t12.5 18t-2.5 18t-23.5 8z" />
    <glyph glyph-name="P.swsh" unicode="&#xe017;" horiz-adv-x="733" 
d="M635 571q99 0 146 -30.5t52 -75.5t-26.5 -98.5t-90 -98.5t-138.5 -75.5t-172 -30.5q-19 -30 -45.5 -61t-61 -56.5t-77.5 -42t-97 -16.5q-28 0 -52.5 6.5t-42.5 19.5t-28.5 33.5t-10.5 47.5q0 26 12 48.5t34 42.5q0 -4 1 -7t3 -7q-26 -27 -32.5 -57t4 -55.5t38 -42.5
t70.5 -17q36 0 69 15.5t62 40t54 54t44 58.5q-11 2 -19 4.5t-6 4.5t9.5 0.5t20.5 -1.5q28 41 50 86t42.5 91.5t41 93.5t47.5 93q-61 -23 -114.5 -75.5t-91.5 -125.5q-4 2 -10 4q16 36 36.5 69.5t47.5 62t60.5 51t75.5 34.5q-35 15 -70 27.5t-73 20.5q-46 10 -93 7t-91 -23
q-40 -18 -69 -50t-40 -74q-11 -44 -2 -90t36 -82q27 -34 65.5 -51t92.5 -20q14 1 18 0t0.5 -3t-12.5 -3.5t-19 -1.5q-41 0 -84 18t-71 52q-29 35 -38.5 79.5t-0.5 88.5q9 46 37.5 79.5t67 54t83.5 28.5t87 4q29 -2 58 -9.5t57 -16.5l38 -14t38 -15q3 3 5 4q14 13 40.5 17
t48.5 1q-10 -1 -20 -8q-3 -2 -6.5 -3.5t-6.5 -4.5q5 1 9.5 1h9.5zM422 180q50 0 98.5 16t91.5 42.5t77.5 60t56.5 68.5t28.5 68.5t-7.5 60t-50 42.5t-99 16h-9t-9 -1q-6 -6 -10 -13q-23 -47 -45.5 -97.5t-44 -99t-41 -91t-37.5 -72.5z" />
    <glyph glyph-name="Q.swsh" unicode="&#xe018;" horiz-adv-x="843" 
d="M821 381q-4 -53 -23.5 -102t-50 -91.5t-68 -77t-77.5 -58.5q6 -16 10 -35t4 -42q0 -36 8.5 -58.5t20.5 -35.5t27 -19t27 -9t20.5 -5t8.5 -7q0 -2 -11 -2.5t-28 3t-36 13t-36 27t-28 44.5t-11 66q0 11 -2 21t-5 21q-32 -15 -61 -23.5t-55 -7.5q-74 1 -115 22t-60.5 49.5
t-23 59t-1.5 51.5q4 49 21.5 95t44.5 86.5t60 74.5t68 58q-33 14 -67 25t-69 19q-46 10 -93 7t-91 -23q-40 -18 -69 -49.5t-40 -74.5q-11 -44 -2 -90t36 -82q28 -36 71 -54.5t88 -16.5q4 0 7 1q0 -4 1 -6q-5 -1 -11 -1.5t-11 -0.5q-44 -2 -85.5 16.5t-69.5 52.5
q-28 35 -37.5 79.5t-1.5 89.5q9 46 37.5 79t67 53.5t83.5 29t87 4.5q30 -3 58.5 -10.5t56.5 -16.5q17 -5 32.5 -11.5t31.5 -12.5q13 8 27.5 17t30.5 16.5t33 11.5t34 3q20 0 32 -12t14 -27t-7.5 -29.5t-31.5 -19.5q-24 -4 -48.5 0.5t-47.5 12.5q-36 -31 -73 -76.5t-66.5 -95
t-47 -98.5t-13 -88.5t34.5 -65t95 -26.5q71 -1 136 31q-11 27 -23.5 46.5t-12.5 23.5t6.5 3t16.5 -8t21.5 -19t21.5 -30q49 29 88 71.5t65 90.5t35.5 98t-1.5 94t-44 78t-93 51q-11 3 -14.5 9t-3.5 9q0 2 1 4.5t9 0.5q90 -23 141.5 -74.5t46.5 -126.5zM584 528
q-16 0 -36.5 -11t-43.5 -30q18 -7 40.5 -9t30.5 -2q13 0 22.5 8t12.5 18t-2.5 18t-23.5 8z" />
    <glyph glyph-name="S.swsh" unicode="&#xe019;" horiz-adv-x="544" 
d="M859 561q44 0 77 -5t55 -12t33 -14t11 -11q0 -7 -10 -7q-4 0 -10 1q0 13 -45 25t-126 12q-79 0 -156 -11t-152 -25q-6 0 -13 -3q-6 -20 -22 -42t-36 -43t-42 -40t-40.5 -33.5t-31 -23t-13.5 -8.5l-1 -0.5t-6.5 -0.5h-16.5h-31q14 32 28 72t14 85q-62 -9 -118 -9
q-10 0 -19.5 0.5t-18.5 1.5q-22 -17 -34.5 -36.5t-12.5 -40.5q0 -20 22 -49.5t55 -63t71 -68.5t71 -66.5t55 -56.5t22 -39q0 -28 -36 -44t-90 -21t-117 0.5t-117 21t-90 40.5t-36 59h2q0 -30 31 -51.5t77.5 -35t101 -18.5t101 -2t77.5 14t31 30q0 10 -21 32.5t-52.5 52
t-68 63.5t-68 68t-52.5 66t-21 57q0 23 20 46.5t53 46.5q-30 6 -56 18.5t-45 29.5t-30 37t-11 43q0 35 20 56.5t52 30t71 4t78 -20.5t72.5 -44t54.5 -66q35 9 67 12.5t56.5 0.5t39 -13.5t14.5 -30.5q0 -6 -1 -9q76 15 158.5 26.5t175.5 11.5zM484 545q0 9 -10.5 13t-28 5
t-41 -2t-50.5 -9q7 -14 11 -28.5t6 -30.5l52 10t53 10q8 18 8 32zM114 686q-35 0 -58 -13t-33.5 -32.5t-8 -44t18.5 -47t46.5 -41t75.5 -26.5q32 20 71.5 38t79.5 31q-25 59 -76 97t-116 38zM219 477q25 0 51 2.5t54 6.5q-2 14 -5 27.5t-8 26.5q-35 -11 -70 -26.5t-61 -34.5
q9 -2 18.5 -2h20.5zM358 381q29 26 61.5 57.5t50.5 63.5q-48 -10 -98 -18q3 -26 -1.5 -52t-12.5 -51z" />
    <glyph glyph-name="S.salt" unicode="&#xe01a;" horiz-adv-x="684" 
d="M592 578q52 -1 65 -21.5t-2 -51.5t-51.5 -67.5t-82 -69.5t-94 -57.5t-87.5 -31.5q33 -33 71 -68t71 -66t54.5 -56t21.5 -39q0 -28 -36 -44t-90 -21t-117 0.5t-117 21t-90 40.5t-36 59h2q0 -30 31 -51.5t77.5 -35t101 -18.5t101 -2t77.5 14t31 30q0 10 -22 33.5t-55 54
t-71 66t-69 70.5h-4q-42 -4 -87 4t-84 28.5t-67.5 53.5t-37.5 79q-8 45 1.5 89.5t38.5 79.5q28 34 69 52.5t86 16.5q47 -2 85 -23q4 -2 1 -5q-3 0 -5 1q-32 19 -68 20q-45 2 -87.5 -16.5t-70.5 -54.5t-36.5 -82t2.5 -90q11 -43 40 -74.5t69 -49.5q35 -16 73 -21t76 0
q-26 30 -43 57.5t-17 49.5t19.5 45.5t51 45.5t72 41t83 33.5t83.5 22.5t73 8zM262 393q0 -20 20 -47t51 -59q36 5 78 28t80 54.5t68.5 66.5t44.5 64t7 47t-43 16q-26 -1 -58.5 -7.5t-66.5 -17.5t-66.5 -26t-58 -33.5t-41 -40t-15.5 -45.5z" />
    <glyph glyph-name="U.swsh" unicode="&#xe01b;" horiz-adv-x="862" 
d="M803 555q7 7 18 9t21.5 1.5t18 -4t7.5 -6.5q0 -19 -12 -51.5t-34 -72.5t-51.5 -86t-63.5 -92q-18 -39 -34 -79.5t-28 -79.5t-19 -75.5t-7 -67.5q0 -9 -7.5 -7t-16 12.5t-16 28t-7.5 39.5q0 8 8.5 36t23.5 68q-32 -34 -64 -63t-62.5 -50t-59.5 -33t-54 -12q-33 0 -52.5 10
t-30 26.5t-14 38t-3.5 44.5q0 38 13.5 87t34.5 102t46.5 105.5t49 96t42 74.5t25.5 41q-40 17 -80.5 32t-82.5 24q-46 10 -93.5 7t-90.5 -23q-40 -18 -69 -49.5t-40 -74.5q-11 -44 -2.5 -90t36.5 -82t70.5 -54.5t87.5 -16.5q37 2 68 20q1 1 3 1h2q3 -3 0 -5q-40 -21 -86 -23
q-45 -2 -86 16.5t-69 52.5q-29 35 -38.5 79.5t-0.5 89.5q9 46 37.5 79t67 53.5t83.5 29t87 4.5q29 -3 58 -10t57 -17q7 -3 28.5 -10.5t44 -17.5t40 -19.5t17.5 -16.5q0 -3 -14.5 -29.5t-37 -68t-49 -93t-50 -105.5t-41.5 -105t-22.5 -90.5t7 -64t46.5 -24.5q28 0 59 13
t63.5 35.5t65.5 53t65 65.5q21 54 47 116.5t52 119t49.5 100t38.5 58.5zM732 306q27 37 49 72.5t37.5 64.5t24.5 50.5t9 32.5q-18 -29 -38 -64q-17 -30 -38.5 -70t-43.5 -86z" />
    <glyph glyph-name="V.swsh" unicode="&#xe01c;" horiz-adv-x="741" 
d="M784 608q14 -15 10.5 -50t-20 -82t-44 -101.5t-61 -109.5t-71.5 -105.5t-75.5 -89.5t-73 -62.5t-64.5 -22.5q-25 0 -40.5 9.5t-23.5 25.5t-10.5 35.5t-0.5 39.5q1 16 8 49t17 74.5t22 88t24.5 90t23.5 79.5t19 58q3 10 12 31t29 40q-38 16 -75.5 29.5t-76.5 21.5
q-46 10 -93.5 7t-90.5 -23q-40 -18 -69 -50t-40 -74q-11 -44 -2.5 -90t36.5 -82t70.5 -54.5t87.5 -16.5q47 2 83 31q18 14 30 32t19 39q6 17 8.5 34t2.5 34t-4 34t-14 31q-2 2 4.5 5t8.5 0q12 -17 15.5 -38t2.5 -42q-2 -22 -7.5 -43.5t-16.5 -41.5q-22 -39 -61.5 -60
t-83.5 -23q-45 -2 -86 17t-69 53q-29 35 -38.5 79.5t-1.5 88.5q9 46 37.5 79.5t67.5 54t84 28.5t87 4q29 -2 57.5 -9.5t56.5 -16.5q20 -7 39.5 -15t39.5 -16q14 11 32 18t41 7q19 0 33 -3q11 -3 22 -9t16 -17q7 -18 -9 -29q-14 -9 -31 -9q-18 -1 -36.5 5.5t-34.5 14.5
q-11 -21 -17.5 -43.5t-14.5 -45.5q-12 -37 -29.5 -92.5t-34 -115t-30 -117t-16.5 -97.5q-3 -33 8 -55t28 -22q24 0 56 23t67 61.5t71 88.5t69 104t60 107.5t44.5 98.5t22.5 77.5t-6 45.5zM556 630q-15 0 -26.5 -9t-19.5 -23q14 -5 31 -12.5t34 -7.5q3 0 7 1q6 2 10 4
q7 4 9 12q2 9 -4 16.5t-14 11.5q-14 7 -27 7z" />
    <glyph glyph-name="W.swsh" unicode="&#xe01d;" horiz-adv-x="990" 
d="M1013 584q14 -15 10.5 -50t-20 -82.5t-44 -102.5t-61 -110t-71.5 -106t-75.5 -90.5t-73 -63t-64.5 -22.5q-37 2 -53 29t-17 67.5t9.5 90t25.5 96.5q-25 -36 -56 -76t-63 -73.5t-62.5 -55t-53.5 -21.5q-38 0 -50 22.5t-10 54.5q1 12 8.5 41.5t19 69t26 85.5t29 91t28 86
t24.5 70q3 10 15 31t32 40q-38 16 -75.5 29.5t-76.5 21.5q-46 10 -93.5 7t-90.5 -23q-40 -18 -69 -50t-40 -74q-11 -44 -2.5 -90t36.5 -82t70.5 -54.5t87.5 -16.5q47 2 83 31q18 14 30 32t19 39q6 17 8.5 34t2.5 34t-4 34t-14 31q-2 2 4.5 5t8.5 0q12 -17 15.5 -38t2.5 -42
q-2 -22 -7.5 -43.5t-16.5 -41.5q-22 -39 -61.5 -60t-83.5 -23q-45 -2 -86 17t-69 53q-29 35 -38.5 79.5t-1.5 88.5q9 46 37.5 79.5t67.5 54t84 28.5t87 4q29 -2 57.5 -9.5t56.5 -16.5q20 -7 39.5 -15t39.5 -16q14 11 32 18t41 7q19 0 33 -3q11 -3 22 -9t16 -17q7 -18 -9 -29
q-10 -7 -22 -8t-24 0.5t-23.5 5.5t-21.5 8q-2 2 -5 2.5t-6 2.5q-21 -40 -35 -82q-9 -28 -22.5 -66t-28 -80t-29 -85t-26.5 -80.5t-20 -66.5t-9 -42q-2 -27 8 -33.5t14 -6.5q23 0 52.5 21t61 54t62.5 73.5t57 78.5q18 48 35.5 83.5t26.5 43.5q5 5 14 5.5t17.5 -1t15 -4.5
t6.5 -5q0 -5 -16.5 -39t-36.5 -83.5t-38.5 -108t-22.5 -111.5q-3 -33 8 -55t28 -22q24 0 56 23t67 61.5t71 88.5t69 104t60 107.5t44.5 98.5t22.5 77.5t-6 45.5zM557 630q-15 0 -26.5 -9t-19.5 -23q8 -3 15.5 -6t15.5 -6l21 -6q2 0 3 -0.5t2 -0.5h2h1q2 -1 4 -1h1h1
q10 0 16 5q7 4 9 12q2 9 -4 16.5t-14 11.5q-14 7 -27 7z" />
    <glyph glyph-name="X.swsh" unicode="&#xe01e;" horiz-adv-x="898" 
d="M879 -65q10 0 13 -1.5t1.5 -3.5t-6 -3.5t-9.5 -1.5q-63 0 -121 19t-108.5 55t-91.5 86.5t-70 113.5q-38 -39 -72.5 -74t-62 -61.5t-46 -41.5t-25.5 -15q-10 0 -10 10q0 11 5.5 20.5t7.5 9.5q1 0 -0.5 -4t-2.5 -9t-1 -9t4 -4q5 0 22 15.5t43.5 41.5t60 61.5t70.5 74.5
q-14 35 -28 84.5t-21 102.5t-2 104t29 88q3 6 8 11q-38 16 -76 29.5t-78 22.5q-47 10 -94 7t-90 -23q-40 -18 -69.5 -50t-40.5 -74q-11 -44 -2 -90t37 -82q27 -36 70 -54.5t88 -16.5q47 2 83 31q35 27 49 71q6 17 8.5 34t2.5 34q-1 17 -5 34t-13 31q-2 2 4.5 5t8.5 0
q11 -17 15 -38t2 -42q-2 -45 -23 -85q-22 -39 -61.5 -60t-84.5 -23q-44 -2 -85 17t-69 53q-29 35 -38.5 79.5t-1.5 88.5q9 46 37.5 79.5t67.5 54t84 28.5t87 4q29 -2 57.5 -9.5t56.5 -16.5q20 -7 40 -15l40 -16h1q9 9 21 15q8 4 19 6t23 3t23.5 0t20.5 -3q11 -3 22 -9
t16 -17q3 -8 1 -16t-10 -13q-10 -7 -22 -8t-24 1t-23.5 6t-21.5 8q-5 2 -9 3t-8 3q-2 -3 -6 -11q-8 -17 -11 -34.5t-3 -35.5q0 -60 13 -120.5t33 -125.5q51 54 102 107.5t93.5 95.5t73 68.5t41.5 26.5q13 0 14 -4.5t-3.5 -10t-10.5 -10t-7 -4.5q-2 0 -2 1q0 2 2.5 5l5 6
t3.5 5t-3 2q-6 0 -35 -27t-71 -70.5t-93.5 -97.5t-103.5 -109q20 -58 50 -114t72 -100.5t97 -71.5t126 -27zM524 617q-11 -8 -17 -18q14 -7 33.5 -14.5t36.5 -7.5q9 0 17 5q7 5 9 12t-3 15q-7 11 -18.5 15t-23.5 5q-13 1 -22 -4.5t-12 -7.5z" />
    <glyph glyph-name="Y.swsh" unicode="&#xe01f;" horiz-adv-x="688" 
d="M681 538q2 1 11.5 0.5t19.5 -3t17.5 -5t6.5 -4.5q-6 -6 -17.5 -37.5t-27.5 -78t-37.5 -104.5t-48 -117t-59 -115.5t-70 -100t-81.5 -70t-93 -26.5q-41 0 -70.5 9.5t-48.5 22t-27.5 24t-8.5 14.5t2 1l8.5 -9t25 -19.5t41.5 -19.5t58 -9q35 0 69 21.5t65 58t59.5 84.5
t53.5 100t47 105.5t39.5 101.5t31 87t22.5 62q-31 -32 -61.5 -75.5t-60.5 -90t-59.5 -91.5t-58.5 -80t-57.5 -57t-55.5 -22q-20 0 -25.5 21t0 55t19 78t31.5 90q-23 -35 -60.5 -53.5t-79.5 -20.5q-45 -2 -86 17t-69 53q-29 35 -38.5 79.5t-0.5 88.5q9 46 37 79.5t67 54
t84 28.5t87 4q29 -2 57.5 -9.5t57.5 -16.5l38 -14t38 -15l4 4q9 7 22.5 11.5t28 6.5t28.5 1.5t25 -3.5t22 -9t16 -17q8 -17 -9 -29q-10 -7 -21.5 -8t-23.5 0.5t-23.5 5.5t-21.5 8q-3 2 -6 2.5t-6 2.5q-10 -16 -16.5 -31.5t-10.5 -23.5q-4 -9 -19 -44t-34 -81.5t-39.5 -98.5
t-34.5 -96t-19.5 -72.5t4.5 -28.5q19 0 42 22t50 57.5t56 81t61 92.5t65 91.5t67 78.5zM370 433q-1 -8 -1.5 -16t-2.5 -16q13 32 26 61.5t24.5 53.5t21 42t14.5 27l6 10t7 10q-37 16 -74 29.5t-76 21.5q-46 10 -93.5 7t-90.5 -23q-40 -18 -69 -50t-40 -74q-11 -44 -2.5 -90
t36.5 -82t70.5 -54.5t87.5 -16.5q47 2 84 31q17 14 29 32t19 39q6 17 8.5 34t2.5 34t-4 34t-14 31q-2 2 4.5 5t8.5 0q12 -17 15.5 -38t2.5 -42zM558 630q-13 0 -24 -9.5t-21 -23.5q16 -4 31.5 -11.5t32.5 -7.5q3 0 7 1q8 2 11 4q7 5 8 12q2 9 -4 16.5t-14 11.5q-14 7 -27 7z
" />
    <glyph glyph-name="Z.swsh" unicode="&#xe020;" horiz-adv-x="1048" 
d="M978 540q22 0 36 -3.5t21 -8.5t9.5 -10t2.5 -9q0 -17 -25 -25t-66 -10q-46 -32 -113 -84.5t-141.5 -110.5t-150 -115.5t-139.5 -99.5q46 -8 94.5 -20t94 -23t85 -19t66.5 -8q63 0 102.5 13t62 25t31 16t8.5 -14q0 -35 -27.5 -50t-73.5 -16t-105 8.5t-121.5 23t-124 28
t-111.5 23.5q-44 -28 -77.5 -44t-53.5 -16q-23 0 -32 13.5t-3 29t26 29t55 13.5q8 0 17 -0.5t18 -1.5q32 22 72 53.5t85.5 67t94 74t96 75.5t92 71t81.5 60q2 2 11.5 9t13.5 10q-76 16 -150 39.5t-149 45.5q-48 14 -96 26t-98 20q-48 8 -96 10.5t-96 -5.5
q-34 -6 -66.5 -18.5t-58.5 -35.5q-17 -14 -30 -35q-5 -7 -9 -15.5t-6 -15.5q-5 -15 -7 -31t-1 -31q2 -25 13 -46.5t28 -38.5q26 -24 67.5 -42t79.5 -18q18 0 40 2.5t41 10.5t32 23t13 40q0 3 4.5 4.5t10 1.5t10.5 -1.5t5 -4.5v-5q0 -23 -12 -38t-30.5 -25t-39.5 -14.5
t-39 -5.5q-27 -2 -54 0.5t-53 10.5q-25 8 -48.5 19t-43.5 28q-19 16 -32.5 36.5t-18.5 45.5q-7 34 2 70t36 66q22 24 50.5 39.5t60.5 24.5q48 14 97 16t99 -3t99 -14t98 -23q92 -24 181.5 -53.5t182.5 -49.5q4 3 11.5 9t17.5 12t21.5 10.5t22.5 4.5zM262 34q0 -8 16 -1
t45 27q-29 1 -45 -4.5t-16 -21.5zM985 493q17 2 26 4t13.5 4t5 3.5t0.5 2.5q0 8 -12 4t-33 -18z" />
    <glyph glyph-name="P.salt" unicode="&#xe021;" horiz-adv-x="628" 
d="M507 571q64 0 100 -19.5t53.5 -44t21.5 -46.5t4 -27q0 -45 -33.5 -91.5t-89 -85t-128 -65t-151.5 -30.5q-11 -20 -23 -44t-22.5 -44.5t-18 -35t-8.5 -16.5q-7 -12 -15 -17.5t-16 -5.5q-28 1 -39.5 23.5t-14 53t2 62t7.5 49.5q-49 19 -85.5 55t-47.5 91q-9 45 0.5 89.5
t38.5 79.5q28 34 69 52.5t86 16.5q46 -2 86 -23q2 -2 1.5 -3t-0.5 -2q-4 0 -6 1q-31 18 -68 20q-45 2 -87.5 -16.5t-70.5 -54.5t-36.5 -82t2.5 -90q11 -43 40 -74.5t69 -49.5q3 -2 5.5 -2.5t4.5 -2.5q13 62 41 129t73.5 122.5t108.5 91.5t146 36zM150 34q11 0 28 34t40 82
l8 15q-21 4 -38 8t-25 6l-6 2l-6 2q-7 -32 -10 -59t-3 -47t3 -31.5t9 -11.5zM294 180q32 6 70 18.5t76 31t73 42.5t62 53.5t43.5 64t16.5 73.5q0 22 -13.5 38t-34.5 26.5t-46.5 16t-50.5 5.5q-51 0 -93 -16.5t-77 -44t-62 -63.5t-48 -76t-35 -81.5t-23 -79.5q6 -2 11.5 -3.5
t11.5 -3.5q14 -3 28 -5.5t28 -1.5q15 30 29.5 60.5t27.5 58t23.5 49.5t16.5 34q-5 -8 -12.5 -18.5l-15 -21t-14 -20t-9.5 -14.5t0.5 4t11.5 25.5t18.5 37.5t21.5 39.5t20 31.5t14 14q7 1 17 1t19 -1t16 -3t10 -6q0 -3 -12.5 -29.5t-32 -65t-42.5 -84t-44 -86.5z" />
    </font>
</defs>
</svg>
